M48
;Layer_Color=9474304
;FILE_FORMAT=2:5
INCH,TZ
;TYPE=PLATED
T01F00S00C0.01181
T02F00S00C0.02362
T03F00S00C0.03000
T04F00S00C0.03346
T05F00S00C0.05118
%
T01
X118000Y109000
X129000
X143000
X142500Y156000
X130500
X118500
X169154Y155439
X171999Y147099
X170000Y138500
Y112500
X173500
X173562Y107246
X173500Y104000
X201000Y132500
X169000Y163000
X162500Y166500
Y173500
X169000Y191000
X156500Y192500
X176000Y209000
X194500Y208000
X195000Y211500
X201000Y210500
X201500Y214000
X207000Y220500
X209500Y222500
X206500Y231500
X214000
X221500Y232000
X222500Y212500
X228000Y213500
X231500Y208000
Y200500
X216500Y204000
X214000Y206000
X211000
X192000Y204000
X226000Y185000
X263000Y196000
Y217500
X265000Y230000
X249000Y231500
X251200Y220482
X239332Y237350
X159000Y238000
X155000Y254500
X140000
X150500Y222500
X146000Y218000
X143000Y192000
Y184000
X149000Y179000
X113000Y239000
T02
X175500Y122500
Y132500
Y142500
Y152500
X245500
Y147500
Y142500
Y137500
Y132500
Y127500
Y122500
Y157500
Y162500
Y167500
Y172500
Y177500
Y182500
X175500
Y177500
Y172500
Y167500
Y162500
Y157500
T03
X162000Y180500
Y190500
Y200500
Y210500
Y220500
X206500Y159500
X112000Y190500
Y210500
T04
X180500Y122500
Y132500
Y142500
Y152500
X240500
Y142500
Y132500
Y122500
Y162500
Y172500
Y182500
X180500
Y172500
Y162500
T05
X179500Y243000
X189500
M30
