G04*
G04 #@! TF.GenerationSoftware,Altium Limited,Altium Designer,25.8.1 (18)*
G04*
G04 Layer_Color=128*
%FSLAX25Y25*%
%MOIN*%
G70*
G04*
G04 #@! TF.SameCoordinates,9ED927D4-040A-4753-B034-1DC7637F36AC*
G04*
G04*
G04 #@! TF.FilePolarity,Positive*
G04*
G01*
G75*
%ADD14C,0.00500*%
D14*
X244319Y122500D02*
X246681D01*
X245500Y121319D02*
Y123681D01*
X238827Y122500D02*
X242173D01*
X240500Y120827D02*
Y124173D01*
X244319Y132500D02*
X246681D01*
X245500Y131319D02*
Y133681D01*
X238827Y132500D02*
X242173D01*
X240500Y130827D02*
Y134173D01*
X244319Y142500D02*
X246681D01*
X245500Y141319D02*
Y143681D01*
X238827Y142500D02*
X242173D01*
X240500Y140827D02*
Y144173D01*
X244319Y152500D02*
X246681D01*
X245500Y151319D02*
Y153681D01*
X238827Y152500D02*
X242173D01*
X240500Y150827D02*
Y154173D01*
X244319Y162500D02*
X246681D01*
X245500Y161319D02*
Y163681D01*
X238827Y162500D02*
X242173D01*
X240500Y160827D02*
Y164173D01*
X244319Y172500D02*
X246681D01*
X245500Y171319D02*
Y173681D01*
X238827Y172500D02*
X242173D01*
X240500Y170827D02*
Y174173D01*
X244319Y182500D02*
X246681D01*
X245500Y181319D02*
Y183681D01*
X238827Y182500D02*
X242173D01*
X240500Y180827D02*
Y184173D01*
X178827Y182500D02*
X182173D01*
X180500Y180827D02*
Y184173D01*
X174319Y182500D02*
X176681D01*
X175500Y181319D02*
Y183681D01*
X178827Y172500D02*
X182173D01*
X180500Y170827D02*
Y174173D01*
X174319Y172500D02*
X176681D01*
X175500Y171319D02*
Y173681D01*
X178827Y162500D02*
X182173D01*
X180500Y160827D02*
Y164173D01*
X174319Y162500D02*
X176681D01*
X175500Y161319D02*
Y163681D01*
X178827Y152500D02*
X182173D01*
X180500Y150827D02*
Y154173D01*
X174319Y152500D02*
X176681D01*
X175500Y151319D02*
Y153681D01*
X178827Y142500D02*
X182173D01*
X180500Y140827D02*
Y144173D01*
X174319Y142500D02*
X176681D01*
X175500Y141319D02*
Y143681D01*
X178827Y132500D02*
X182173D01*
X180500Y130827D02*
Y134173D01*
X174319Y132500D02*
X176681D01*
X175500Y131319D02*
Y133681D01*
X178827Y122500D02*
X182173D01*
X180500Y120827D02*
Y124173D01*
X174319Y122500D02*
X176681D01*
X175500Y121319D02*
Y123681D01*
X244319Y127500D02*
X246681D01*
X245500Y126319D02*
Y128681D01*
X244319Y137500D02*
X246681D01*
X245500Y136319D02*
Y138681D01*
X244319Y147500D02*
X246681D01*
X245500Y146319D02*
Y148681D01*
X244319Y157500D02*
X246681D01*
X245500Y156319D02*
Y158681D01*
X244319Y167500D02*
X246681D01*
X245500Y166319D02*
Y168681D01*
X244319Y177500D02*
X246681D01*
X245500Y176319D02*
Y178681D01*
X174319Y177500D02*
X176681D01*
X175500Y176319D02*
Y178681D01*
X174319Y167500D02*
X176681D01*
X175500Y166319D02*
Y168681D01*
X174319Y157500D02*
X176681D01*
X175500Y156319D02*
Y158681D01*
X205000Y159500D02*
X208000D01*
X206500Y158000D02*
Y161000D01*
X110500Y210500D02*
X113500D01*
X112000Y209000D02*
Y212000D01*
X110500Y190500D02*
X113500D01*
X112000Y189000D02*
Y192000D01*
X160500Y180500D02*
X163500D01*
X162000Y179000D02*
Y182000D01*
X160500Y220500D02*
X163500D01*
X162000Y219000D02*
Y222000D01*
X160500Y190500D02*
X163500D01*
X162000Y189000D02*
Y192000D01*
X160500Y210500D02*
X163500D01*
X162000Y209000D02*
Y212000D01*
X160500Y200500D02*
X163500D01*
X162000Y199000D02*
Y202000D01*
X176941Y243000D02*
X182059D01*
X179500Y240441D02*
Y245559D01*
X186941Y243000D02*
X192059D01*
X189500Y240441D02*
Y245559D01*
X200409Y132500D02*
X201591D01*
X201000Y131909D02*
Y133091D01*
X149909Y222500D02*
X151091D01*
X150500Y221909D02*
Y223091D01*
X145409Y218000D02*
X146591D01*
X146000Y217409D02*
Y218590D01*
X148409Y179000D02*
X149591D01*
X149000Y178409D02*
Y179591D01*
X142409Y184000D02*
X143591D01*
X143000Y183409D02*
Y184591D01*
X142409Y192000D02*
X143591D01*
X143000Y191409D02*
Y192591D01*
X168409Y191000D02*
X169591D01*
X169000Y190409D02*
Y191591D01*
X161909Y166500D02*
X163091D01*
X162500Y165909D02*
Y167091D01*
X161909Y173500D02*
X163091D01*
X162500Y172909D02*
Y174091D01*
X112409Y239000D02*
X113591D01*
X113000Y238409D02*
Y239591D01*
X158409Y238000D02*
X159591D01*
X159000Y237409D02*
Y238591D01*
X175409Y209000D02*
X176591D01*
X176000Y208410D02*
Y209591D01*
X225410Y185000D02*
X226590D01*
X226000Y184409D02*
Y185591D01*
X139409Y254500D02*
X140591D01*
X140000Y253909D02*
Y255090D01*
X155909Y192500D02*
X157091D01*
X156500Y191909D02*
Y193091D01*
X154409Y254500D02*
X155591D01*
X155000Y253909D02*
Y255090D01*
X171408Y147099D02*
X172589D01*
X171999Y146509D02*
Y147690D01*
X168409Y163000D02*
X169591D01*
X169000Y162409D02*
Y163591D01*
X168564Y155439D02*
X169745D01*
X169154Y154848D02*
Y156029D01*
X169409Y138500D02*
X170591D01*
X170000Y137909D02*
Y139091D01*
X238741Y237350D02*
X239922D01*
X239332Y236759D02*
Y237941D01*
X262409Y217500D02*
X263591D01*
X263000Y216910D02*
Y218091D01*
X230909Y200500D02*
X232090D01*
X231500Y199909D02*
Y201091D01*
X230909Y208000D02*
X232090D01*
X231500Y207410D02*
Y208591D01*
X262409Y196000D02*
X263591D01*
X263000Y195409D02*
Y196591D01*
X264409Y230000D02*
X265591D01*
X265000Y229410D02*
Y230591D01*
X172909Y104000D02*
X174091D01*
X173500Y103409D02*
Y104591D01*
X172909Y112500D02*
X174091D01*
X173500Y111909D02*
Y113091D01*
X172972Y107246D02*
X174153D01*
X173562Y106655D02*
Y107836D01*
X169409Y112500D02*
X170591D01*
X170000Y111909D02*
Y113091D01*
X215910Y204000D02*
X217091D01*
X216500Y203409D02*
Y204591D01*
X213409Y206000D02*
X214591D01*
X214000Y205410D02*
Y206591D01*
X210409Y206000D02*
X211591D01*
X211000Y205410D02*
Y206591D01*
X205909Y231500D02*
X207090D01*
X206500Y230909D02*
Y232090D01*
X213409Y231500D02*
X214591D01*
X214000Y230909D02*
Y232090D01*
X142409Y109000D02*
X143591D01*
X143000Y108409D02*
Y109591D01*
X128409Y109000D02*
X129591D01*
X129000Y108409D02*
Y109591D01*
X117409Y109000D02*
X118591D01*
X118000Y108409D02*
Y109591D01*
X129909Y156000D02*
X131091D01*
X130500Y155409D02*
Y156591D01*
X141909Y156000D02*
X143091D01*
X142500Y155409D02*
Y156591D01*
X117909Y156000D02*
X119091D01*
X118500Y155409D02*
Y156591D01*
X194409Y211500D02*
X195591D01*
X195000Y210910D02*
Y212090D01*
X191409Y204000D02*
X192591D01*
X192000Y203409D02*
Y204591D01*
X200909Y214000D02*
X202091D01*
X201500Y213409D02*
Y214591D01*
X227410Y213500D02*
X228590D01*
X228000Y212910D02*
Y214090D01*
X250609Y220482D02*
X251790D01*
X251200Y219891D02*
Y221072D01*
X248410Y231500D02*
X249590D01*
X249000Y230909D02*
Y232090D01*
X200409Y210500D02*
X201591D01*
X201000Y209910D02*
Y211090D01*
X193909Y208000D02*
X195091D01*
X194500Y207410D02*
Y208591D01*
X220910Y232000D02*
X222091D01*
X221500Y231410D02*
Y232591D01*
X208910Y222500D02*
X210090D01*
X209500Y221909D02*
Y223091D01*
X206410Y220500D02*
X207591D01*
X207000Y219910D02*
Y221091D01*
X221909Y212500D02*
X223091D01*
X222500Y211910D02*
Y213090D01*
M02*
