G04*
G04 #@! TF.GenerationSoftware,Altium Limited,Altium Designer,25.8.1 (18)*
G04*
G04 Layer_Color=2752767*
%FSLAX25Y25*%
%MOIN*%
G70*
G04*
G04 #@! TF.SameCoordinates,9ED927D4-040A-4753-B034-1DC7637F36AC*
G04*
G04*
G04 #@! TF.FilePolarity,Positive*
G04*
G01*
G75*
%ADD14C,0.00500*%
%ADD50C,0.00667*%
%ADD51C,0.00400*%
D14*
X243500Y120500D02*
Y124500D01*
X247500D01*
Y120500D01*
X243500D01*
X244300Y121300D02*
Y123700D01*
X246700D01*
Y121300D01*
X244300D01*
X243500Y130500D02*
Y134500D01*
X247500D01*
Y130500D01*
X243500D01*
X244300Y131300D02*
Y133700D01*
X246700D01*
Y131300D01*
X244300D01*
X243500Y140500D02*
Y144500D01*
X247500D01*
Y140500D01*
X243500D01*
X244300Y141300D02*
Y143700D01*
X246700D01*
Y141300D01*
X244300D01*
X243500Y150500D02*
Y154500D01*
X247500D01*
Y150500D01*
X243500D01*
X244300Y151300D02*
Y153700D01*
X246700D01*
Y151300D01*
X244300D01*
X243500Y160500D02*
Y164500D01*
X247500D01*
Y160500D01*
X243500D01*
X244300Y161300D02*
Y163700D01*
X246700D01*
Y161300D01*
X244300D01*
X243500Y170500D02*
Y174500D01*
X247500D01*
Y170500D01*
X243500D01*
X244300Y171300D02*
Y173700D01*
X246700D01*
Y171300D01*
X244300D01*
X243500Y180500D02*
Y184500D01*
X247500D01*
Y180500D01*
X243500D01*
X244300Y181300D02*
Y183700D01*
X246700D01*
Y181300D01*
X244300D01*
X173500Y180500D02*
Y184500D01*
X177500D01*
Y180500D01*
X173500D01*
X174300Y181300D02*
Y183700D01*
X176700D01*
Y181300D01*
X174300D01*
X173500Y170500D02*
Y174500D01*
X177500D01*
Y170500D01*
X173500D01*
X174300Y171300D02*
Y173700D01*
X176700D01*
Y171300D01*
X174300D01*
X173500Y160500D02*
Y164500D01*
X177500D01*
Y160500D01*
X173500D01*
X174300Y161300D02*
Y163700D01*
X176700D01*
Y161300D01*
X174300D01*
X173500Y150500D02*
Y154500D01*
X177500D01*
Y150500D01*
X173500D01*
X174300Y151300D02*
Y153700D01*
X176700D01*
Y151300D01*
X174300D01*
X173500Y140500D02*
Y144500D01*
X177500D01*
Y140500D01*
X173500D01*
X174300Y141300D02*
Y143700D01*
X176700D01*
Y141300D01*
X174300D01*
X173500Y130500D02*
Y134500D01*
X177500D01*
Y130500D01*
X173500D01*
X174300Y131300D02*
Y133700D01*
X176700D01*
Y131300D01*
X174300D01*
X173500Y120500D02*
Y124500D01*
X177500D01*
Y120500D01*
X173500D01*
X174300Y121300D02*
Y123700D01*
X176700D01*
Y121300D01*
X174300D01*
X243500Y125500D02*
Y129500D01*
X247500D01*
Y125500D01*
X243500D01*
X244300Y126300D02*
Y128700D01*
X246700D01*
Y126300D01*
X244300D01*
X243500Y135500D02*
Y139500D01*
X247500D01*
Y135500D01*
X243500D01*
X244300Y136300D02*
Y138700D01*
X246700D01*
Y136300D01*
X244300D01*
X243500Y145500D02*
Y149500D01*
X247500D01*
Y145500D01*
X243500D01*
X244300Y146300D02*
Y148700D01*
X246700D01*
Y146300D01*
X244300D01*
X243500Y155500D02*
Y159500D01*
X247500D01*
Y155500D01*
X243500D01*
X244300Y156300D02*
Y158700D01*
X246700D01*
Y156300D01*
X244300D01*
X243500Y165500D02*
Y169500D01*
X247500D01*
Y165500D01*
X243500D01*
X244300Y166300D02*
Y168700D01*
X246700D01*
Y166300D01*
X244300D01*
X243500Y175500D02*
Y179500D01*
X247500D01*
Y175500D01*
X243500D01*
X244300Y176300D02*
Y178700D01*
X246700D01*
Y176300D01*
X244300D01*
X173500Y175500D02*
Y179500D01*
X177500D01*
Y175500D01*
X173500D01*
X174300Y176300D02*
Y178700D01*
X176700D01*
Y176300D01*
X174300D01*
X173500Y165500D02*
Y169500D01*
X177500D01*
Y165500D01*
X173500D01*
X174300Y166300D02*
Y168700D01*
X176700D01*
Y166300D01*
X174300D01*
X173500Y155500D02*
Y159500D01*
X177500D01*
Y155500D01*
X173500D01*
X174300Y156300D02*
Y158700D01*
X176700D01*
Y156300D01*
X174300D01*
X204500Y159500D02*
X206500Y161500D01*
X208500Y159500D01*
X206500Y157500D01*
X204500Y159500D01*
X110000Y210500D02*
X112000Y212500D01*
X114000Y210500D01*
X112000Y208500D01*
X110000Y210500D01*
Y190500D02*
X112000Y192500D01*
X114000Y190500D01*
X112000Y188500D01*
X110000Y190500D01*
X160000Y180500D02*
X162000Y182500D01*
X164000Y180500D01*
X162000Y178500D01*
X160000Y180500D01*
Y220500D02*
X162000Y222500D01*
X164000Y220500D01*
X162000Y218500D01*
X160000Y220500D01*
Y190500D02*
X162000Y192500D01*
X164000Y190500D01*
X162000Y188500D01*
X160000Y190500D01*
Y210500D02*
X162000Y212500D01*
X164000Y210500D01*
X162000Y208500D01*
X160000Y210500D01*
Y200500D02*
X162000Y202500D01*
X164000Y200500D01*
X162000Y198500D01*
X160000Y200500D01*
X179500Y241000D02*
X177500Y245000D01*
X181500D01*
X179500Y241000D01*
Y241800D02*
X178300Y244200D01*
X180700D01*
X179500Y241800D01*
X189500Y241000D02*
X187500Y245000D01*
X191500D01*
X189500Y241000D01*
Y241800D02*
X188300Y244200D01*
X190700D01*
X189500Y241800D01*
X199000Y130500D02*
Y134500D01*
X203000D01*
Y130500D01*
X199000D01*
X148500Y220500D02*
Y224500D01*
X152500D01*
Y220500D01*
X148500D01*
X144000Y216000D02*
Y220000D01*
X148000D01*
Y216000D01*
X144000D01*
X147000Y177000D02*
Y181000D01*
X151000D01*
Y177000D01*
X147000D01*
X141000Y182000D02*
Y186000D01*
X145000D01*
Y182000D01*
X141000D01*
Y190000D02*
Y194000D01*
X145000D01*
Y190000D01*
X141000D01*
X167000Y189000D02*
Y193000D01*
X171000D01*
Y189000D01*
X167000D01*
X160500Y164500D02*
Y168500D01*
X164500D01*
Y164500D01*
X160500D01*
Y171500D02*
Y175500D01*
X164500D01*
Y171500D01*
X160500D01*
X111000Y237000D02*
Y241000D01*
X115000D01*
Y237000D01*
X111000D01*
X157000Y236000D02*
Y240000D01*
X161000D01*
Y236000D01*
X157000D01*
X174000Y207000D02*
Y211000D01*
X178000D01*
Y207000D01*
X174000D01*
X224000Y183000D02*
Y187000D01*
X228000D01*
Y183000D01*
X224000D01*
X138000Y252500D02*
Y256500D01*
X142000D01*
Y252500D01*
X138000D01*
X154500Y190500D02*
Y194500D01*
X158500D01*
Y190500D01*
X154500D01*
X153000Y252500D02*
Y256500D01*
X157000D01*
Y252500D01*
X153000D01*
X168000Y136500D02*
Y140500D01*
X172000D01*
Y136500D01*
X168000D01*
X261000Y215500D02*
Y219500D01*
X265000D01*
Y215500D01*
X261000D01*
Y194000D02*
Y198000D01*
X265000D01*
Y194000D01*
X261000D01*
X263000Y228000D02*
Y232000D01*
X267000D01*
Y228000D01*
X263000D01*
X207500Y220500D02*
Y224500D01*
X211500D01*
Y220500D01*
X207500D01*
X205000Y218500D02*
Y222500D01*
X209000D01*
Y218500D01*
X205000D01*
D50*
X242500Y122500D02*
G03*
X242500Y122500I-2000J0D01*
G01*
Y132500D02*
G03*
X242500Y132500I-2000J0D01*
G01*
Y142500D02*
G03*
X242500Y142500I-2000J0D01*
G01*
Y152500D02*
G03*
X242500Y152500I-2000J0D01*
G01*
Y162500D02*
G03*
X242500Y162500I-2000J0D01*
G01*
Y172500D02*
G03*
X242500Y172500I-2000J0D01*
G01*
Y182500D02*
G03*
X242500Y182500I-2000J0D01*
G01*
X182500D02*
G03*
X182500Y182500I-2000J0D01*
G01*
Y172500D02*
G03*
X182500Y172500I-2000J0D01*
G01*
Y162500D02*
G03*
X182500Y162500I-2000J0D01*
G01*
Y152500D02*
G03*
X182500Y152500I-2000J0D01*
G01*
Y142500D02*
G03*
X182500Y142500I-2000J0D01*
G01*
Y132500D02*
G03*
X182500Y132500I-2000J0D01*
G01*
Y122500D02*
G03*
X182500Y122500I-2000J0D01*
G01*
X173998Y147099D02*
G03*
X173998Y147099I-2000J0D01*
G01*
X171000Y163000D02*
G03*
X171000Y163000I-2000J0D01*
G01*
X171154Y155439D02*
G03*
X171154Y155439I-2000J0D01*
G01*
X241332Y237350D02*
G03*
X241332Y237350I-2000J0D01*
G01*
X233500Y200500D02*
G03*
X233500Y200500I-2000J0D01*
G01*
Y208000D02*
G03*
X233500Y208000I-2000J0D01*
G01*
X175500Y104000D02*
G03*
X175500Y104000I-2000J0D01*
G01*
Y112500D02*
G03*
X175500Y112500I-2000J0D01*
G01*
X175562Y107246D02*
G03*
X175562Y107246I-2000J0D01*
G01*
X172000Y112500D02*
G03*
X172000Y112500I-2000J0D01*
G01*
X218500Y204000D02*
G03*
X218500Y204000I-2000J0D01*
G01*
X216000Y206000D02*
G03*
X216000Y206000I-2000J0D01*
G01*
X213000D02*
G03*
X213000Y206000I-2000J0D01*
G01*
X208500Y231500D02*
G03*
X208500Y231500I-2000J0D01*
G01*
X216000D02*
G03*
X216000Y231500I-2000J0D01*
G01*
X145000Y109000D02*
G03*
X145000Y109000I-2000J0D01*
G01*
X131000D02*
G03*
X131000Y109000I-2000J0D01*
G01*
X120000D02*
G03*
X120000Y109000I-2000J0D01*
G01*
X132500Y156000D02*
G03*
X132500Y156000I-2000J0D01*
G01*
X144500D02*
G03*
X144500Y156000I-2000J0D01*
G01*
X120500D02*
G03*
X120500Y156000I-2000J0D01*
G01*
X197000Y211500D02*
G03*
X197000Y211500I-2000J0D01*
G01*
X194000Y204000D02*
G03*
X194000Y204000I-2000J0D01*
G01*
X203500Y214000D02*
G03*
X203500Y214000I-2000J0D01*
G01*
X230000Y213500D02*
G03*
X230000Y213500I-2000J0D01*
G01*
X253200Y220482D02*
G03*
X253200Y220482I-2000J0D01*
G01*
X251000Y231500D02*
G03*
X251000Y231500I-2000J0D01*
G01*
X203000Y210500D02*
G03*
X203000Y210500I-2000J0D01*
G01*
X196500Y208000D02*
G03*
X196500Y208000I-2000J0D01*
G01*
X223500Y232000D02*
G03*
X223500Y232000I-2000J0D01*
G01*
X224500Y212500D02*
G03*
X224500Y212500I-2000J0D01*
G01*
D51*
X241700Y122500D02*
G03*
X241700Y122500I-1200J0D01*
G01*
Y132500D02*
G03*
X241700Y132500I-1200J0D01*
G01*
Y142500D02*
G03*
X241700Y142500I-1200J0D01*
G01*
Y152500D02*
G03*
X241700Y152500I-1200J0D01*
G01*
Y162500D02*
G03*
X241700Y162500I-1200J0D01*
G01*
Y172500D02*
G03*
X241700Y172500I-1200J0D01*
G01*
Y182500D02*
G03*
X241700Y182500I-1200J0D01*
G01*
X181700D02*
G03*
X181700Y182500I-1200J0D01*
G01*
Y172500D02*
G03*
X181700Y172500I-1200J0D01*
G01*
Y162500D02*
G03*
X181700Y162500I-1200J0D01*
G01*
Y152500D02*
G03*
X181700Y152500I-1200J0D01*
G01*
Y142500D02*
G03*
X181700Y142500I-1200J0D01*
G01*
Y132500D02*
G03*
X181700Y132500I-1200J0D01*
G01*
Y122500D02*
G03*
X181700Y122500I-1200J0D01*
G01*
M02*
