G04*
G04 #@! TF.GenerationSoftware,Altium Limited,Altium Designer,25.8.1 (18)*
G04*
G04 Layer_Color=16711935*
%FSLAX25Y25*%
%MOIN*%
G70*
G04*
G04 #@! TF.SameCoordinates,9ED927D4-040A-4753-B034-1DC7637F36AC*
G04*
G04*
G04 #@! TF.FilePolarity,Positive*
G04*
G01*
G75*
%ADD10C,0.00787*%
%ADD12C,0.02000*%
%ADD14C,0.00500*%
%ADD15C,0.00500*%
%ADD16C,0.00300*%
%ADD46C,0.00000*%
%ADD47C,0.00394*%
%ADD48C,0.00100*%
D10*
X202020Y216453D02*
G03*
X202020Y216453I-394J0D01*
G01*
D12*
X237803Y230615D02*
G03*
X237803Y230615I-1500J0D01*
G01*
D14*
X203594Y208579D02*
Y218421D01*
Y208579D02*
X215406D01*
Y218421D01*
X203594D02*
X215406D01*
D15*
X151518Y241201D02*
Y239601D01*
X152318Y240401D02*
X150719D01*
X107018Y241201D02*
Y239601D01*
X107818Y240401D02*
X106219D01*
X121519Y241201D02*
Y239601D01*
X122318Y240401D02*
X120719D01*
X136519Y241201D02*
Y239601D01*
X137318Y240401D02*
X135719D01*
D16*
X160435Y113750D02*
X163767Y117082D01*
Y113750D02*
X160435Y117082D01*
X162101Y113750D02*
Y117082D01*
X163767Y115416D02*
X160435D01*
D46*
X253200Y194000D02*
G03*
X250800Y194000I-1200J0D01*
G01*
X258450Y202658D02*
G03*
X258450Y202658I-150J0D01*
G01*
D47*
X149925Y244350D02*
X153075D01*
X149925Y250650D02*
X153075D01*
Y244350D02*
Y250650D01*
X149925Y244350D02*
Y250650D01*
X150909Y247067D02*
X152051D01*
X150909D02*
X151500Y248012D01*
X152051Y247067D01*
X173713Y230205D02*
X195287D01*
Y255795D01*
X173713D02*
X195287D01*
X173713Y230205D02*
Y255795D01*
X105425Y244350D02*
X108575D01*
X105425Y250650D02*
X108575D01*
Y244350D02*
Y250650D01*
X105425Y244350D02*
Y250650D01*
X106409Y247067D02*
X107551D01*
X106409D02*
X107000Y248012D01*
X107551Y247067D01*
X119925Y244350D02*
X123075D01*
X119925Y250650D02*
X123075D01*
Y244350D02*
Y250650D01*
X119925Y244350D02*
Y250650D01*
X120909Y247067D02*
X122051D01*
X120909D02*
X121500Y248012D01*
X122051Y247067D01*
X134925Y244350D02*
X138075D01*
X134925Y250650D02*
X138075D01*
Y244350D02*
Y250650D01*
X134925Y244350D02*
Y250650D01*
X135909Y247067D02*
X137051D01*
X135909D02*
X136500Y248012D01*
X137051Y247067D01*
D48*
X109500Y112000D02*
X149500D01*
X109500D02*
Y153000D01*
X149500D01*
Y112000D02*
Y153000D01*
Y144400D02*
X166000D01*
Y140600D02*
Y144400D01*
X149500Y140600D02*
X166000D01*
X149500D02*
Y144400D01*
Y134400D02*
X166000D01*
Y130600D02*
Y134400D01*
X149500Y130600D02*
X166000D01*
X149500D02*
Y134400D01*
Y124400D02*
X166000D01*
Y120600D02*
Y124400D01*
X149500Y120600D02*
X166000D01*
X149500D02*
Y124400D01*
X259300Y194000D02*
Y231000D01*
X244700Y194000D02*
X259300D01*
X244700D02*
Y231000D01*
X259300D01*
X155750Y244150D02*
X159250D01*
X155750D02*
Y250850D01*
X159250D01*
Y244150D02*
Y250850D01*
X155750Y249250D02*
Y250850D01*
X159250D01*
Y249250D02*
Y250850D01*
X155750Y249250D02*
X159250D01*
Y244150D02*
Y245750D01*
X155750Y244150D02*
X159250D01*
X155750D02*
Y245750D01*
X159250D01*
X260650Y191450D02*
X265350D01*
X260650Y183550D02*
Y191450D01*
Y183550D02*
X265350D01*
Y191450D01*
X260650Y183550D02*
Y186150D01*
Y183550D02*
X265350D01*
Y186150D01*
X260650D02*
X265350D01*
Y188850D02*
Y191450D01*
X260650D02*
X265350D01*
X260650Y188850D02*
Y191450D01*
Y188850D02*
X265350D01*
X202850Y255050D02*
X245150D01*
X202850Y235950D02*
Y255050D01*
Y235950D02*
X245150D01*
Y255050D01*
X197450Y214150D02*
Y218850D01*
X189550Y214150D02*
X197450D01*
X189550D02*
Y218850D01*
X197450D01*
X189550Y214150D02*
X192150D01*
X189550D02*
Y218850D01*
X192150D01*
Y214150D02*
Y218850D01*
X194850D02*
X197450D01*
Y214150D02*
Y218850D01*
X194850Y214150D02*
X197450D01*
X194850D02*
Y218850D01*
X252650Y112550D02*
X257350D01*
X252650D02*
Y120450D01*
X257350D01*
Y112550D02*
Y120450D01*
X252650Y117850D02*
Y120450D01*
X257350D01*
Y117850D02*
Y120450D01*
X252650Y117850D02*
X257350D01*
Y112550D02*
Y115150D01*
X252650Y112550D02*
X257350D01*
X252650D02*
Y115150D01*
X257350D01*
X195150Y152050D02*
X199850D01*
Y159950D01*
X195150D02*
X199850D01*
X195150Y152050D02*
Y159950D01*
X199850Y157350D02*
Y159950D01*
X195150D02*
X199850D01*
X195150Y157350D02*
Y159950D01*
Y157350D02*
X199850D01*
X195150Y152050D02*
Y154650D01*
Y152050D02*
X199850D01*
Y154650D01*
X195150D02*
X199850D01*
X252650Y135450D02*
X257350D01*
Y127550D02*
Y135450D01*
X252650Y127550D02*
X257350D01*
X252650D02*
Y135450D01*
X257350Y127550D02*
Y130150D01*
X252650Y127550D02*
X257350D01*
X252650D02*
Y130150D01*
X257350D01*
X252650Y132850D02*
Y135450D01*
X257350D01*
Y132850D02*
Y135450D01*
X252650Y132850D02*
X257350D01*
X186650Y171550D02*
X191350D01*
Y179450D01*
X186650D02*
X191350D01*
X186650Y171550D02*
Y179450D01*
X191350Y176850D02*
Y179450D01*
X186650D02*
X191350D01*
X186650Y176850D02*
Y179450D01*
Y176850D02*
X191350D01*
X186650Y171550D02*
Y174150D01*
Y171550D02*
X191350D01*
Y174150D01*
X186650D02*
X191350D01*
X250150Y179950D02*
X254850D01*
Y172050D02*
Y179950D01*
X250150Y172050D02*
X254850D01*
X250150D02*
Y179950D01*
X254850Y172050D02*
Y174650D01*
X250150Y172050D02*
X254850D01*
X250150D02*
Y174650D01*
X254850D01*
X250150Y177350D02*
Y179950D01*
X254850D01*
Y177350D02*
Y179950D01*
X250150Y177350D02*
X254850D01*
X258150Y168950D02*
X262850D01*
Y161050D02*
Y168950D01*
X258150Y161050D02*
X262850D01*
X258150D02*
Y168950D01*
X262850Y161050D02*
Y163650D01*
X258150Y161050D02*
X262850D01*
X258150D02*
Y163650D01*
X262850D01*
X258150Y166350D02*
Y168950D01*
X262850D01*
Y166350D02*
Y168950D01*
X258150Y166350D02*
X262850D01*
X257150Y237450D02*
X261850D01*
X257150Y229550D02*
Y237450D01*
Y229550D02*
X261850D01*
Y237450D01*
X257150Y229550D02*
Y232150D01*
Y229550D02*
X261850D01*
Y232150D01*
X257150D02*
X261850D01*
Y234850D02*
Y237450D01*
X257150D02*
X261850D01*
X257150Y234850D02*
Y237450D01*
Y234850D02*
X261850D01*
X111250Y244150D02*
X114750D01*
X111250D02*
Y250850D01*
X114750D01*
Y244150D02*
Y250850D01*
X111250Y249250D02*
Y250850D01*
X114750D01*
Y249250D02*
Y250850D01*
X111250Y249250D02*
X114750D01*
Y244150D02*
Y245750D01*
X111250Y244150D02*
X114750D01*
X111250D02*
Y245750D01*
X114750D01*
X125750Y244150D02*
X129250D01*
X125750D02*
Y250850D01*
X129250D01*
Y244150D02*
Y250850D01*
X125750Y249250D02*
Y250850D01*
X129250D01*
Y249250D02*
Y250850D01*
X125750Y249250D02*
X129250D01*
Y244150D02*
Y245750D01*
X125750Y244150D02*
X129250D01*
X125750D02*
Y245750D01*
X129250D01*
X140750Y244150D02*
X144250D01*
X140750D02*
Y250850D01*
X144250D01*
Y244150D02*
Y250850D01*
X140750Y249250D02*
Y250850D01*
X144250D01*
Y249250D02*
Y250850D01*
X140750Y249250D02*
X144250D01*
Y244150D02*
Y245750D01*
X140750Y244150D02*
X144250D01*
X140750D02*
Y245750D01*
X144250D01*
M02*
