G04*
G04 #@! TF.GenerationSoftware,Altium Limited,Altium Designer,25.8.1 (18)*
G04*
G04 Layer_Color=32896*
%FSLAX25Y25*%
%MOIN*%
G70*
G04*
G04 #@! TF.SameCoordinates,9ED927D4-040A-4753-B034-1DC7637F36AC*
G04*
G04*
G04 #@! TF.FilePolarity,Positive*
G04*
G01*
G75*
%ADD12C,0.02000*%
%ADD18C,0.00800*%
D12*
X254150Y238115D02*
G03*
X254150Y238115I-1500J0D01*
G01*
D18*
X256499Y190832D02*
X252501D01*
Y188833D01*
X253167Y188166D01*
X254500D01*
X255166Y188833D01*
Y190832D01*
Y189499D02*
X256499Y188166D01*
X255833Y186834D02*
X256499Y186167D01*
Y184834D01*
X255833Y184168D01*
X253167D01*
X252501Y184834D01*
Y186167D01*
X253167Y186834D01*
X253834D01*
X254500Y186167D01*
Y184168D01*
X261499Y249832D02*
X257501D01*
Y247833D01*
X258167Y247166D01*
X259500D01*
X260166Y247833D01*
Y249832D01*
Y248499D02*
X261499Y247166D01*
X258167Y245833D02*
X257501Y245167D01*
Y243834D01*
X258167Y243168D01*
X258834D01*
X259500Y243834D01*
X260166Y243168D01*
X260833D01*
X261499Y243834D01*
Y245167D01*
X260833Y245833D01*
X260166D01*
X259500Y245167D01*
X258834Y245833D01*
X258167D01*
X259500Y245167D02*
Y243834D01*
X187001Y185668D02*
X190999D01*
Y187667D01*
X190333Y188333D01*
X189000D01*
X188333Y187667D01*
Y185668D01*
Y187001D02*
X187001Y188333D01*
X190999Y189666D02*
Y192332D01*
X190333D01*
X187667Y189666D01*
X187001D01*
X195501Y166168D02*
X199499D01*
Y168167D01*
X198833Y168833D01*
X197500D01*
X196834Y168167D01*
Y166168D01*
Y167501D02*
X195501Y168833D01*
X199499Y172832D02*
Y170167D01*
X197500D01*
X198167Y171499D01*
Y172166D01*
X197500Y172832D01*
X196167D01*
X195501Y172166D01*
Y170833D01*
X196167Y170167D01*
M02*
