G04*
G04 #@! TF.GenerationSoftware,Altium Limited,Altium Designer,25.8.1 (18)*
G04*
G04 Layer_Color=255*
%FSLAX25Y25*%
%MOIN*%
G70*
G04*
G04 #@! TF.SameCoordinates,9ED927D4-040A-4753-B034-1DC7637F36AC*
G04*
G04*
G04 #@! TF.FilePolarity,Positive*
G04*
G01*
G75*
%ADD19R,0.03150X0.03150*%
%ADD20R,0.07700X0.04700*%
%ADD21R,0.03500X0.02400*%
%ADD22R,0.02400X0.06700*%
%ADD23R,0.02441X0.05787*%
%ADD24R,0.04000X0.04700*%
%ADD25R,0.04700X0.04000*%
%ADD35R,0.00984X0.01870*%
%ADD36R,0.01870X0.00984*%
%ADD37R,0.41200X0.41000*%
%ADD38R,0.10600X0.04000*%
%ADD39R,0.03900X0.11200*%
%ADD41C,0.03543*%
%ADD42C,0.05512*%
%ADD43C,0.06000*%
%ADD44C,0.07677*%
D19*
X151500Y250650D02*
D03*
Y244350D02*
D03*
X107000Y250650D02*
D03*
Y244350D02*
D03*
X121500Y250650D02*
D03*
Y244350D02*
D03*
X136500Y250650D02*
D03*
Y244350D02*
D03*
D20*
X240878Y202658D02*
D03*
Y212500D02*
D03*
Y222342D02*
D03*
X263122D02*
D03*
Y212500D02*
D03*
Y202658D02*
D03*
D21*
X157500Y250450D02*
D03*
Y244550D02*
D03*
X113000Y250450D02*
D03*
Y244550D02*
D03*
X127500Y250450D02*
D03*
Y244550D02*
D03*
X142500Y250450D02*
D03*
Y244550D02*
D03*
D22*
X236303Y238115D02*
D03*
X231382D02*
D03*
X226461D02*
D03*
X221539D02*
D03*
X216618D02*
D03*
X211697D02*
D03*
D23*
X158063Y159500D02*
D03*
X165937D02*
D03*
X220000Y208000D02*
D03*
X227874D02*
D03*
X207374Y203000D02*
D03*
X199500D02*
D03*
X220063Y200500D02*
D03*
X227937D02*
D03*
X162063Y107000D02*
D03*
X169937D02*
D03*
D24*
X190150Y216500D02*
D03*
X196850D02*
D03*
D25*
X255000Y119850D02*
D03*
Y113150D02*
D03*
Y128150D02*
D03*
Y134850D02*
D03*
X252500Y172650D02*
D03*
Y179350D02*
D03*
X260500Y161650D02*
D03*
Y168350D02*
D03*
D35*
X207531Y217092D02*
D03*
X209500D02*
D03*
X211469D02*
D03*
Y209908D02*
D03*
X209500D02*
D03*
X207531D02*
D03*
D36*
X214077Y216453D02*
D03*
Y214484D02*
D03*
Y212516D02*
D03*
Y210547D02*
D03*
X204923D02*
D03*
Y212516D02*
D03*
Y214484D02*
D03*
Y216453D02*
D03*
D37*
X128900Y132500D02*
D03*
D38*
X162100Y142500D02*
D03*
Y132500D02*
D03*
Y122500D02*
D03*
D39*
X243587Y250714D02*
D03*
X204413D02*
D03*
D41*
X245500Y122500D02*
D03*
Y132500D02*
D03*
Y142500D02*
D03*
Y152500D02*
D03*
Y162500D02*
D03*
Y172500D02*
D03*
Y182500D02*
D03*
X175500D02*
D03*
Y172500D02*
D03*
Y162500D02*
D03*
Y152500D02*
D03*
Y142500D02*
D03*
Y132500D02*
D03*
Y122500D02*
D03*
X245500Y127500D02*
D03*
Y137500D02*
D03*
Y147500D02*
D03*
Y157500D02*
D03*
Y167500D02*
D03*
Y177500D02*
D03*
X175500D02*
D03*
Y167500D02*
D03*
Y157500D02*
D03*
D42*
X240500Y122500D02*
D03*
Y132500D02*
D03*
Y142500D02*
D03*
Y152500D02*
D03*
Y162500D02*
D03*
Y172500D02*
D03*
Y182500D02*
D03*
X180500D02*
D03*
Y172500D02*
D03*
Y162500D02*
D03*
Y152500D02*
D03*
Y142500D02*
D03*
Y132500D02*
D03*
Y122500D02*
D03*
D43*
X206500Y159500D02*
D03*
X112000Y210500D02*
D03*
Y190500D02*
D03*
X162000Y180500D02*
D03*
Y220500D02*
D03*
Y190500D02*
D03*
Y210500D02*
D03*
Y200500D02*
D03*
D44*
X179500Y243000D02*
D03*
X189500D02*
D03*
M02*
