G04*
G04 #@! TF.GenerationSoftware,Altium Limited,Altium Designer,25.8.1 (18)*
G04*
G04 Layer_Color=8421504*
%FSLAX25Y25*%
%MOIN*%
G70*
G04*
G04 #@! TF.SameCoordinates,9ED927D4-040A-4753-B034-1DC7637F36AC*
G04*
G04*
G04 #@! TF.FilePolarity,Positive*
G04*
G01*
G75*
%ADD19R,0.03150X0.03150*%
%ADD20R,0.07700X0.04700*%
%ADD21R,0.03500X0.02400*%
%ADD22R,0.02400X0.06700*%
%ADD23R,0.02441X0.05787*%
%ADD24R,0.04000X0.04700*%
%ADD25R,0.04700X0.04000*%
G36*
X211937Y216207D02*
X211000D01*
Y217978D01*
X211937D01*
Y216207D01*
D02*
G37*
G36*
X209968D02*
X209032D01*
Y217978D01*
X209968D01*
Y216207D01*
D02*
G37*
G36*
X208000D02*
X207063D01*
Y217978D01*
X208000D01*
Y216207D01*
D02*
G37*
G36*
X214963Y215984D02*
X213191D01*
Y216921D01*
X214963D01*
Y215984D01*
D02*
G37*
G36*
X205809D02*
X204037D01*
Y216921D01*
X205809D01*
Y215984D01*
D02*
G37*
G36*
X214963Y214016D02*
X213191D01*
Y214953D01*
X214963D01*
Y214016D01*
D02*
G37*
G36*
X205809D02*
X204037D01*
Y214953D01*
X205809D01*
Y214016D01*
D02*
G37*
G36*
X214963Y212047D02*
X213191D01*
Y212984D01*
X214963D01*
Y212047D01*
D02*
G37*
G36*
X205809D02*
X204037D01*
Y212984D01*
X205809D01*
Y212047D01*
D02*
G37*
G36*
X214963Y210079D02*
X213191D01*
Y211016D01*
X214963D01*
Y210079D01*
D02*
G37*
G36*
X205809D02*
X204037D01*
Y211016D01*
X205809D01*
Y210079D01*
D02*
G37*
G36*
X211937Y209022D02*
X211000D01*
Y210793D01*
X211937D01*
Y209022D01*
D02*
G37*
G36*
X209968D02*
X209032D01*
Y210793D01*
X209968D01*
Y209022D01*
D02*
G37*
G36*
X208000D02*
X207063D01*
Y210793D01*
X208000D01*
Y209022D01*
D02*
G37*
D19*
X151500Y250650D02*
D03*
Y244350D02*
D03*
X107000Y250650D02*
D03*
Y244350D02*
D03*
X121500Y250650D02*
D03*
Y244350D02*
D03*
X136500Y250650D02*
D03*
Y244350D02*
D03*
D20*
X240878Y202658D02*
D03*
Y212500D02*
D03*
Y222342D02*
D03*
X263122D02*
D03*
Y212500D02*
D03*
Y202658D02*
D03*
D21*
X157500Y250450D02*
D03*
Y244550D02*
D03*
X113000Y250450D02*
D03*
Y244550D02*
D03*
X127500Y250450D02*
D03*
Y244550D02*
D03*
X142500Y250450D02*
D03*
Y244550D02*
D03*
D22*
X236303Y238115D02*
D03*
X231382D02*
D03*
X226461D02*
D03*
X221539D02*
D03*
X216618D02*
D03*
X211697D02*
D03*
D23*
X158063Y159500D02*
D03*
X165937D02*
D03*
X220000Y208000D02*
D03*
X227874D02*
D03*
X207374Y203000D02*
D03*
X199500D02*
D03*
X220063Y200500D02*
D03*
X227937D02*
D03*
X162063Y107000D02*
D03*
X169937D02*
D03*
D24*
X190150Y216500D02*
D03*
X196850D02*
D03*
D25*
X255000Y119850D02*
D03*
Y113150D02*
D03*
Y128150D02*
D03*
Y134850D02*
D03*
X252500Y172650D02*
D03*
Y179350D02*
D03*
X260500Y161650D02*
D03*
Y168350D02*
D03*
M02*
