G04*
G04 #@! TF.GenerationSoftware,Altium Limited,Altium Designer,25.8.1 (18)*
G04*
G04 Layer_Color=32768*
%FSLAX25Y25*%
%MOIN*%
G70*
G04*
G04 #@! TF.SameCoordinates,9ED927D4-040A-4753-B034-1DC7637F36AC*
G04*
G04*
G04 #@! TF.FilePolarity,Positive*
G04*
G01*
G75*
%ADD11C,0.00600*%
%ADD47C,0.00394*%
%ADD49C,0.00197*%
G36*
X160250Y242350D02*
X154750D01*
Y252650D01*
X160250D01*
Y242350D01*
D02*
G37*
G36*
X145250D02*
X139750D01*
Y252650D01*
X145250D01*
Y242350D01*
D02*
G37*
G36*
X130250D02*
X124750D01*
Y252650D01*
X130250D01*
Y242350D01*
D02*
G37*
G36*
X115750D02*
X110250D01*
Y252650D01*
X115750D01*
Y242350D01*
D02*
G37*
G36*
X154256Y241988D02*
X148744D01*
Y253012D01*
X154256D01*
Y241988D01*
D02*
G37*
G36*
X139256D02*
X133744D01*
Y253012D01*
X139256D01*
Y241988D01*
D02*
G37*
G36*
X124256D02*
X118744D01*
Y253012D01*
X124256D01*
Y241988D01*
D02*
G37*
G36*
X109756D02*
X104244D01*
Y253012D01*
X109756D01*
Y241988D01*
D02*
G37*
G36*
X246537Y233765D02*
X201463D01*
Y257314D01*
X246537D01*
Y233765D01*
D02*
G37*
G36*
X196468Y229024D02*
X172531D01*
Y256976D01*
X196468D01*
Y229024D01*
D02*
G37*
G36*
X199850Y213150D02*
X187150D01*
Y219850D01*
X199850D01*
Y213150D01*
D02*
G37*
G36*
X262850Y227150D02*
X260300D01*
Y225693D01*
X267972D01*
Y199308D01*
X260300D01*
Y193850D01*
X266350D01*
Y181150D01*
X259650D01*
Y193000D01*
X243700D01*
Y199308D01*
X236028D01*
Y225693D01*
X243700D01*
Y232000D01*
X256150D01*
Y239850D01*
X262850D01*
Y227150D01*
D02*
G37*
G36*
X255850Y169650D02*
X249150D01*
Y182350D01*
X255850D01*
Y169650D01*
D02*
G37*
G36*
X192350Y169150D02*
X185650D01*
Y181850D01*
X192350D01*
Y169150D01*
D02*
G37*
G36*
X263850Y158650D02*
X257150D01*
Y171350D01*
X263850D01*
Y158650D01*
D02*
G37*
G36*
X200850Y149650D02*
X194150D01*
Y162350D01*
X200850D01*
Y149650D01*
D02*
G37*
G36*
X258350Y125150D02*
X251650D01*
Y137850D01*
X258350D01*
Y125150D01*
D02*
G37*
G36*
X168400Y111000D02*
X107300D01*
Y154000D01*
X168400D01*
Y111000D01*
D02*
G37*
G36*
X258350Y110150D02*
X251650D01*
Y122850D01*
X258350D01*
Y110150D01*
D02*
G37*
D11*
X168400Y111000D02*
Y154000D01*
X107300D02*
X168400D01*
X107300Y111000D02*
Y154000D01*
Y111000D02*
X168400D01*
X260300Y225693D02*
Y232000D01*
X243700D02*
X260300D01*
X243700Y225693D02*
Y232000D01*
Y193000D02*
Y199308D01*
Y193000D02*
X260300D01*
Y199308D01*
Y225693D02*
X267972D01*
X236028D02*
X243700D01*
X236028Y199308D02*
Y225693D01*
Y199308D02*
X243700D01*
X260300D02*
X267972D01*
Y225693D01*
X160250Y242350D02*
Y252650D01*
X154750D02*
X160250D01*
X154750Y242350D02*
Y252650D01*
Y242350D02*
X160250D01*
X266350Y181150D02*
Y193850D01*
X259650Y181150D02*
X266350D01*
X259650D02*
Y193850D01*
X266350D01*
X246537Y233765D02*
Y257314D01*
X201463D02*
X246537D01*
X201463Y233765D02*
Y257314D01*
Y233765D02*
X246537D01*
X187150Y219850D02*
X199850D01*
X187150Y213150D02*
Y219850D01*
Y213150D02*
X199850D01*
Y219850D01*
X258350Y110150D02*
Y122850D01*
X251650D02*
X258350D01*
X251650Y110150D02*
Y122850D01*
Y110150D02*
X258350D01*
X194150Y149650D02*
Y162350D01*
X200850D01*
Y149650D02*
Y162350D01*
X194150Y149650D02*
X200850D01*
X251650Y125150D02*
Y137850D01*
Y125150D02*
X258350D01*
Y137850D01*
X251650D02*
X258350D01*
X185650Y169150D02*
Y181850D01*
X192350D01*
Y169150D02*
Y181850D01*
X185650Y169150D02*
X192350D01*
X249150Y169650D02*
Y182350D01*
Y169650D02*
X255850D01*
Y182350D01*
X249150D02*
X255850D01*
X257150Y158650D02*
Y171350D01*
Y158650D02*
X263850D01*
Y171350D01*
X257150D02*
X263850D01*
X262850Y227150D02*
Y239850D01*
X256150Y227150D02*
X262850D01*
X256150D02*
Y239850D01*
X262850D01*
X115750Y242350D02*
Y252650D01*
X110250D02*
X115750D01*
X110250Y242350D02*
Y252650D01*
Y242350D02*
X115750D01*
X130250D02*
Y252650D01*
X124750D02*
X130250D01*
X124750Y242350D02*
Y252650D01*
Y242350D02*
X130250D01*
X145250D02*
Y252650D01*
X139750D02*
X145250D01*
X139750Y242350D02*
Y252650D01*
Y242350D02*
X145250D01*
D47*
X165937Y157039D02*
Y161961D01*
X158063D02*
X165937D01*
X158063Y157039D02*
Y161961D01*
Y157039D02*
X165937D01*
X227874Y205539D02*
Y210461D01*
X220000D02*
X227874D01*
X220000Y205539D02*
Y210461D01*
Y205539D02*
X227874D01*
X199500Y200539D02*
Y205461D01*
Y200539D02*
X207374D01*
Y205461D01*
X199500D02*
X207374D01*
X227937Y198039D02*
Y202961D01*
X220063D02*
X227937D01*
X220063Y198039D02*
Y202961D01*
Y198039D02*
X227937D01*
X169937Y104539D02*
Y109461D01*
X162063D02*
X169937D01*
X162063Y104539D02*
Y109461D01*
Y104539D02*
X169937D01*
D49*
X202610Y219406D02*
X216390D01*
Y207594D02*
Y219406D01*
X202610Y207594D02*
X216390D01*
X202610D02*
Y219406D01*
M02*
