G04*
G04 #@! TF.GenerationSoftware,Altium Limited,Altium Designer,25.8.1 (18)*
G04*
G04 Layer_Color=65535*
%FSLAX25Y25*%
%MOIN*%
G70*
G04*
G04 #@! TF.SameCoordinates,E1838567-EF02-44A7-8A02-23B903FEE0B8*
G04*
G04*
G04 #@! TF.FilePolarity,Positive*
G04*
G01*
G75*
%ADD10C,0.00600*%
%ADD11C,0.02000*%
%ADD12C,0.03937*%
%ADD13C,0.00787*%
%ADD14C,0.01575*%
%ADD15C,0.00500*%
%ADD16C,0.01000*%
%ADD17C,0.00630*%
%ADD18C,0.00300*%
%ADD19C,0.00630*%
%ADD20C,0.00500*%
%ADD21C,0.01600*%
G36*
X129420Y230860D02*
X130420D01*
Y229360D01*
X129420D01*
Y230860D01*
D02*
G37*
G36*
X140079Y220236D02*
Y237953D01*
X145000D01*
Y220236D01*
X140079D01*
D02*
G37*
G36*
X431797Y343876D02*
X433297D01*
Y342876D01*
X431797D01*
Y343876D01*
D02*
G37*
G36*
X439203Y366376D02*
X437703D01*
Y367376D01*
X439203D01*
Y366376D01*
D02*
G37*
G36*
X523276Y306347D02*
X524648D01*
Y306194D01*
X525562D01*
Y306042D01*
X526324D01*
Y305890D01*
X526933D01*
Y305737D01*
X527543D01*
Y305585D01*
X528000D01*
Y305433D01*
X528610D01*
Y305280D01*
X529067D01*
Y305128D01*
X529524D01*
Y304975D01*
X530133D01*
Y304823D01*
X530438D01*
Y304671D01*
X530895D01*
Y304518D01*
X531352D01*
Y304366D01*
X531810D01*
Y304214D01*
X532267D01*
Y304061D01*
X532571D01*
Y303909D01*
X533029D01*
Y303756D01*
X533333D01*
Y303604D01*
X533790D01*
Y303452D01*
X534095D01*
Y303299D01*
X534400D01*
Y303147D01*
X534705D01*
Y302994D01*
X535009D01*
Y302842D01*
X535314D01*
Y302690D01*
X535619D01*
Y302537D01*
X535924D01*
Y302385D01*
X536229D01*
Y302233D01*
X536533D01*
Y302080D01*
X536838D01*
Y301928D01*
X537143D01*
Y301775D01*
X537448D01*
Y301623D01*
X537600D01*
Y301471D01*
X537905D01*
Y301318D01*
X538209D01*
Y301166D01*
X538362D01*
Y301013D01*
X538667D01*
Y300861D01*
X538971D01*
Y300709D01*
X539124D01*
Y300556D01*
X539429D01*
Y300404D01*
X539581D01*
Y300252D01*
X539886D01*
Y300099D01*
X540038D01*
Y299947D01*
X540191D01*
Y299795D01*
X540495D01*
Y299642D01*
X540648D01*
Y299490D01*
X540952D01*
Y299337D01*
X541105D01*
Y299185D01*
X541257D01*
Y299033D01*
X541409D01*
Y298880D01*
X541562D01*
Y298728D01*
X541867D01*
Y298575D01*
X542019D01*
Y298423D01*
X542171D01*
Y298271D01*
X542324D01*
Y298118D01*
X542476D01*
Y297966D01*
X542781D01*
Y297814D01*
X542933D01*
Y297661D01*
X543086D01*
Y297509D01*
X543238D01*
Y297356D01*
X543391D01*
Y297204D01*
X543543D01*
Y297052D01*
X543848D01*
Y296899D01*
X544000D01*
Y296747D01*
X544152D01*
Y296595D01*
X544305D01*
Y296442D01*
X544609D01*
Y296290D01*
X544762D01*
Y296137D01*
X544914D01*
Y295985D01*
X545067D01*
Y295833D01*
X545219D01*
Y295680D01*
X545371D01*
Y295528D01*
X545676D01*
Y295375D01*
X545829D01*
Y295223D01*
X545981D01*
Y295071D01*
X546133D01*
Y294918D01*
X546286D01*
Y294766D01*
X546438D01*
Y294614D01*
X546591D01*
Y294461D01*
X546743D01*
Y294309D01*
X546895D01*
Y294156D01*
X547048D01*
Y294004D01*
X547200D01*
Y293852D01*
X547352D01*
Y293699D01*
X547505D01*
Y293547D01*
X547657D01*
Y293394D01*
X547810D01*
Y293242D01*
X547962D01*
Y293090D01*
X548114D01*
Y292937D01*
X548267D01*
Y292785D01*
X548419D01*
Y292633D01*
X548571D01*
Y292480D01*
X548724D01*
Y292328D01*
X548876D01*
Y292175D01*
X549029D01*
Y292023D01*
X549181D01*
Y291871D01*
X549333D01*
Y291718D01*
X549486D01*
Y291566D01*
X549638D01*
Y291261D01*
X549790D01*
Y291109D01*
X549943D01*
Y290956D01*
X550095D01*
Y290804D01*
X550248D01*
Y290652D01*
X550400D01*
Y290499D01*
X550552D01*
Y290347D01*
X550705D01*
Y290195D01*
X550857D01*
Y289890D01*
X551010D01*
Y289737D01*
X551162D01*
Y289585D01*
X551314D01*
Y289433D01*
X551467D01*
Y289128D01*
X551619D01*
Y288975D01*
X551771D01*
Y288823D01*
X551924D01*
Y288671D01*
X552076D01*
Y288366D01*
X552229D01*
Y288213D01*
X552381D01*
Y288061D01*
X552533D01*
Y287909D01*
X552686D01*
Y287604D01*
X552838D01*
Y287452D01*
X552990D01*
Y287299D01*
X553143D01*
Y286995D01*
X553295D01*
Y286842D01*
X553448D01*
Y286690D01*
X553600D01*
Y286385D01*
X553752D01*
Y286233D01*
X553905D01*
Y286080D01*
X554057D01*
Y285775D01*
X554210D01*
Y285623D01*
X554362D01*
Y285318D01*
X554514D01*
Y285166D01*
X554667D01*
Y284861D01*
X554819D01*
Y284709D01*
X554971D01*
Y284556D01*
Y284404D01*
X555124D01*
Y284252D01*
X555276D01*
Y283947D01*
X555429D01*
Y283794D01*
X555581D01*
Y283490D01*
X555733D01*
Y283337D01*
X555886D01*
Y283033D01*
X556038D01*
Y282880D01*
X556190D01*
Y282575D01*
X556343D01*
Y282423D01*
X556495D01*
Y282271D01*
X556648D01*
Y281966D01*
X556800D01*
Y281814D01*
X556952D01*
Y281509D01*
X557105D01*
Y281356D01*
X557257D01*
Y281052D01*
X557409D01*
Y280899D01*
X557562D01*
Y280594D01*
X557714D01*
Y280442D01*
X557867D01*
Y280137D01*
X558019D01*
Y279985D01*
X558171D01*
Y279833D01*
X558324D01*
Y279528D01*
X558476D01*
Y279375D01*
X558629D01*
Y279071D01*
X558781D01*
Y278766D01*
X558933D01*
Y278613D01*
X559086D01*
Y278309D01*
X559238D01*
Y278156D01*
X559390D01*
Y277852D01*
X559543D01*
Y277547D01*
X559695D01*
Y277395D01*
X559848D01*
Y277090D01*
X560000D01*
Y276785D01*
X560152D01*
Y276633D01*
X560305D01*
Y276328D01*
X560457D01*
Y276023D01*
X560609D01*
Y275871D01*
X560762D01*
Y275566D01*
X560914D01*
Y275261D01*
X561067D01*
Y274956D01*
X561219D01*
Y274804D01*
X561371D01*
Y274499D01*
X561524D01*
Y274195D01*
X561676D01*
Y273890D01*
X561829D01*
Y273585D01*
X561981D01*
Y273280D01*
X562133D01*
Y273128D01*
X562286D01*
Y272823D01*
X562438D01*
Y272518D01*
X562591D01*
Y272214D01*
X562743D01*
Y271909D01*
X562895D01*
Y271604D01*
X563048D01*
Y271299D01*
X563200D01*
Y270994D01*
X563352D01*
Y270690D01*
X563505D01*
Y270233D01*
X563657D01*
Y269928D01*
X563809D01*
Y269623D01*
X563962D01*
Y269318D01*
X564114D01*
Y269014D01*
X564267D01*
Y268556D01*
X564419D01*
Y268252D01*
X564571D01*
Y267794D01*
X564724D01*
Y267490D01*
X564876D01*
Y267033D01*
X565029D01*
Y266575D01*
X565181D01*
Y266271D01*
X565333D01*
Y265813D01*
X565486D01*
Y265356D01*
X565638D01*
Y265052D01*
X565791D01*
Y264595D01*
X565943D01*
Y264137D01*
X566095D01*
Y263528D01*
X566248D01*
Y263223D01*
X566400D01*
Y262614D01*
X566552D01*
Y262156D01*
X566705D01*
Y261699D01*
X566857D01*
Y261090D01*
X567009D01*
Y260480D01*
X567162D01*
Y259718D01*
X567314D01*
Y258956D01*
X567467D01*
Y258194D01*
X567619D01*
Y257128D01*
X567771D01*
Y256366D01*
X567924D01*
Y255604D01*
X568076D01*
Y254537D01*
X568229D01*
Y253471D01*
X568381D01*
Y251795D01*
X568533D01*
Y250271D01*
X568686D01*
Y249966D01*
X568838D01*
Y249814D01*
X569752D01*
Y249661D01*
X570362D01*
Y249509D01*
X570971D01*
Y249356D01*
X571429D01*
Y249204D01*
X571886D01*
Y249052D01*
X572191D01*
Y248899D01*
X572648D01*
Y248747D01*
X572952D01*
Y248594D01*
X573257D01*
Y248442D01*
X573562D01*
Y248290D01*
X573867D01*
Y248137D01*
X574019D01*
Y247985D01*
X574324D01*
Y247833D01*
X574629D01*
Y247680D01*
X574781D01*
Y247528D01*
X575086D01*
Y247375D01*
X575238D01*
Y247223D01*
X575543D01*
Y247071D01*
X575848D01*
Y246918D01*
X576000D01*
Y246766D01*
X576152D01*
Y246614D01*
X576457D01*
Y246461D01*
X576610D01*
Y246309D01*
X576762D01*
Y246156D01*
X576914D01*
Y246004D01*
X577067D01*
Y245852D01*
X577371D01*
Y245699D01*
X577524D01*
Y245547D01*
X577676D01*
Y245394D01*
X577829D01*
Y245242D01*
X577981D01*
Y245090D01*
X578133D01*
Y244937D01*
X578286D01*
Y244785D01*
X578438D01*
Y244633D01*
X578590D01*
Y244328D01*
X578743D01*
Y244175D01*
X578895D01*
Y244023D01*
X579048D01*
Y243871D01*
X579200D01*
Y243718D01*
X579352D01*
Y243413D01*
X579505D01*
Y243261D01*
X579657D01*
Y243109D01*
X579810D01*
Y242804D01*
X579962D01*
Y242652D01*
X580114D01*
Y242347D01*
X580267D01*
Y242195D01*
X580419D01*
Y241890D01*
X580571D01*
Y241585D01*
X580724D01*
Y241280D01*
X580876D01*
Y240975D01*
X581029D01*
Y240671D01*
X581181D01*
Y240366D01*
X581333D01*
Y239909D01*
X581486D01*
Y239604D01*
X581638D01*
Y239147D01*
X581790D01*
Y238690D01*
X581943D01*
Y238080D01*
X582095D01*
Y237471D01*
X582248D01*
Y236404D01*
X582400D01*
Y231680D01*
X582248D01*
Y230613D01*
X582095D01*
Y230004D01*
X581943D01*
Y229395D01*
X581790D01*
Y228937D01*
X581638D01*
Y228633D01*
X581486D01*
Y228023D01*
X581333D01*
Y227718D01*
X581181D01*
Y227414D01*
X581029D01*
Y227109D01*
X580876D01*
Y226652D01*
X580724D01*
Y226499D01*
X580571D01*
Y226195D01*
X580419D01*
Y225890D01*
X580267D01*
Y225585D01*
X580114D01*
Y225433D01*
X579962D01*
Y225128D01*
X579810D01*
Y224975D01*
X579657D01*
Y224823D01*
X579505D01*
Y224518D01*
X579352D01*
Y224366D01*
X579200D01*
Y224214D01*
X579048D01*
Y224061D01*
X578895D01*
Y223756D01*
X578743D01*
Y223604D01*
X578590D01*
Y223452D01*
X578438D01*
Y223299D01*
X578286D01*
Y223147D01*
X578133D01*
Y222994D01*
X577981D01*
Y222842D01*
X577829D01*
Y222690D01*
X577676D01*
Y222537D01*
X577524D01*
Y222385D01*
X577371D01*
Y222233D01*
X577219D01*
Y222080D01*
X577067D01*
Y221928D01*
X576914D01*
Y221775D01*
X576610D01*
Y221623D01*
X576457D01*
Y221471D01*
X576305D01*
Y221318D01*
X576152D01*
Y221166D01*
X575848D01*
Y221013D01*
X575695D01*
Y220861D01*
X575390D01*
Y220709D01*
X575238D01*
Y220556D01*
X575086D01*
Y220404D01*
X574781D01*
Y220252D01*
X574476D01*
Y220099D01*
X574324D01*
Y219947D01*
X574019D01*
Y219795D01*
X573714D01*
Y219642D01*
X573410D01*
Y219490D01*
X573105D01*
Y219337D01*
X572800D01*
Y219185D01*
X572495D01*
Y219033D01*
X572191D01*
Y217966D01*
X572343D01*
Y215528D01*
X572191D01*
Y214614D01*
X572038D01*
Y213852D01*
X571886D01*
Y213090D01*
X571733D01*
Y212480D01*
X571581D01*
Y212023D01*
X571429D01*
Y211566D01*
X571276D01*
Y211109D01*
X571124D01*
Y210652D01*
X570971D01*
Y210194D01*
X570819D01*
Y209890D01*
X570667D01*
Y209585D01*
X570514D01*
Y209280D01*
X570362D01*
Y208975D01*
X570210D01*
Y208671D01*
X570057D01*
Y208213D01*
X569905D01*
Y208061D01*
X569752D01*
Y207756D01*
X569600D01*
Y207452D01*
X569448D01*
Y207147D01*
X569295D01*
Y206995D01*
X569143D01*
Y206690D01*
X568991D01*
Y206537D01*
X568838D01*
Y206233D01*
X568686D01*
Y206080D01*
X568533D01*
Y205775D01*
X568381D01*
Y205623D01*
X568229D01*
Y205318D01*
X568076D01*
Y205166D01*
X567924D01*
Y205013D01*
X567771D01*
Y204709D01*
X567619D01*
Y204556D01*
X567467D01*
Y204404D01*
X567314D01*
Y204252D01*
X567162D01*
Y203947D01*
X567009D01*
Y203795D01*
X566857D01*
Y203642D01*
X566705D01*
Y203490D01*
X566552D01*
Y203337D01*
X566400D01*
Y203033D01*
X566248D01*
Y202880D01*
X566095D01*
Y202728D01*
X565943D01*
Y202575D01*
X565791D01*
Y202423D01*
X565638D01*
Y202271D01*
X565486D01*
Y202118D01*
X565333D01*
Y201966D01*
X565181D01*
Y201814D01*
X565029D01*
Y201661D01*
X564876D01*
Y201509D01*
X564724D01*
Y201356D01*
X564419D01*
Y201204D01*
X564267D01*
Y201052D01*
X564114D01*
Y200899D01*
X563962D01*
Y200747D01*
X563809D01*
Y200594D01*
X563505D01*
Y200442D01*
X563352D01*
Y200290D01*
X563200D01*
Y200137D01*
X563048D01*
Y199985D01*
X562743D01*
Y199833D01*
X562591D01*
Y199680D01*
X562286D01*
Y199528D01*
X562133D01*
Y199375D01*
X561829D01*
Y199223D01*
X561524D01*
Y199071D01*
X561219D01*
Y198918D01*
X560914D01*
Y198766D01*
X560609D01*
Y198614D01*
X560305D01*
Y198461D01*
X560000D01*
Y198309D01*
X559695D01*
Y198156D01*
X559390D01*
Y198004D01*
X559086D01*
Y197852D01*
X558781D01*
Y197699D01*
X558476D01*
Y197547D01*
X558019D01*
Y197395D01*
X557714D01*
Y197242D01*
X557105D01*
Y197090D01*
X556495D01*
Y196937D01*
X555733D01*
Y196785D01*
X554819D01*
Y196633D01*
X552381D01*
Y196785D01*
X551619D01*
Y196937D01*
X551162D01*
Y197090D01*
X550705D01*
Y197242D01*
X550095D01*
Y197395D01*
X549486D01*
Y197547D01*
X548876D01*
Y197699D01*
X548419D01*
Y197852D01*
X547810D01*
Y198004D01*
X547352D01*
Y198156D01*
X547048D01*
Y198309D01*
X546743D01*
Y198461D01*
X546286D01*
Y198614D01*
X545981D01*
Y198766D01*
X545676D01*
Y198918D01*
X545219D01*
Y198766D01*
X545067D01*
Y198614D01*
X544914D01*
Y198461D01*
X544762D01*
Y198156D01*
X544609D01*
Y198004D01*
X544457D01*
Y197852D01*
X544305D01*
Y197547D01*
X544152D01*
Y197395D01*
X544000D01*
Y197242D01*
X543848D01*
Y197090D01*
X543695D01*
Y196785D01*
X543543D01*
Y196633D01*
X543391D01*
Y196480D01*
X543238D01*
Y196328D01*
X543086D01*
Y196175D01*
X542933D01*
Y195871D01*
X542781D01*
Y195718D01*
X542629D01*
Y195566D01*
X542476D01*
Y195413D01*
X542324D01*
Y195109D01*
X542171D01*
Y194956D01*
X542019D01*
Y194804D01*
X541867D01*
Y194652D01*
X541714D01*
Y194499D01*
X541562D01*
Y194347D01*
X541409D01*
Y194194D01*
X541257D01*
Y194042D01*
X541105D01*
Y193890D01*
X540952D01*
Y193737D01*
X540800D01*
Y193585D01*
X540648D01*
Y193433D01*
X540495D01*
Y193280D01*
X540343D01*
Y193128D01*
X540038D01*
Y192975D01*
X539886D01*
Y192823D01*
X539581D01*
Y192671D01*
X539429D01*
Y192518D01*
X539124D01*
Y192366D01*
X538971D01*
Y192213D01*
X538667D01*
Y192061D01*
X538362D01*
Y191909D01*
X538057D01*
Y191756D01*
X537752D01*
Y191604D01*
X537448D01*
Y191452D01*
X537295D01*
Y191299D01*
X536990D01*
Y191147D01*
X536686D01*
Y190995D01*
X536381D01*
Y190842D01*
X536076D01*
Y190690D01*
X535619D01*
Y190537D01*
X535314D01*
Y190385D01*
X535009D01*
Y190233D01*
X534552D01*
Y190080D01*
X534248D01*
Y189928D01*
X533790D01*
Y189775D01*
X533333D01*
Y189623D01*
X532724D01*
Y189471D01*
X532267D01*
Y189318D01*
X531657D01*
Y189166D01*
X530895D01*
Y189014D01*
X529219D01*
Y188861D01*
X528914D01*
Y188709D01*
X528762D01*
Y188556D01*
X528610D01*
Y188404D01*
X528457D01*
Y188099D01*
X528305D01*
Y187947D01*
X528152D01*
Y187794D01*
X528000D01*
Y187642D01*
X527848D01*
Y187490D01*
X527695D01*
Y187337D01*
X527543D01*
Y187185D01*
X527390D01*
Y187033D01*
X527238D01*
Y186880D01*
X527086D01*
Y186728D01*
X526933D01*
Y186575D01*
X526781D01*
Y186423D01*
X526629D01*
Y186271D01*
X526324D01*
Y186118D01*
X526171D01*
Y185966D01*
X526019D01*
Y185813D01*
X525867D01*
Y185661D01*
X525562D01*
Y185509D01*
X525410D01*
Y185356D01*
X525257D01*
Y185204D01*
X524952D01*
Y185052D01*
X524800D01*
Y184899D01*
X524495D01*
Y184747D01*
X524343D01*
Y184595D01*
X524038D01*
Y184442D01*
X523581D01*
Y184290D01*
X523429D01*
Y184137D01*
X522971D01*
Y183985D01*
X522667D01*
Y183833D01*
X522362D01*
Y183680D01*
X522057D01*
Y183528D01*
X521905D01*
Y183375D01*
X521448D01*
Y183223D01*
X521143D01*
Y183071D01*
X520838D01*
Y182918D01*
X520381D01*
Y182766D01*
X519924D01*
Y182614D01*
X519467D01*
Y182461D01*
X519009D01*
Y182309D01*
X518400D01*
Y182156D01*
X517638D01*
Y182004D01*
X516724D01*
Y181852D01*
X515657D01*
Y181699D01*
X513981D01*
Y181547D01*
X510933D01*
Y181699D01*
X509714D01*
Y181852D01*
X508800D01*
Y182004D01*
X508190D01*
Y182156D01*
X507429D01*
Y182309D01*
X506819D01*
Y182461D01*
X506362D01*
Y182614D01*
X505905D01*
Y182766D01*
X505448D01*
Y182918D01*
X505143D01*
Y183071D01*
X504686D01*
Y183223D01*
X504381D01*
Y183375D01*
X504076D01*
Y183528D01*
X503619D01*
Y183680D01*
X503314D01*
Y183833D01*
X503010D01*
Y183985D01*
X502857D01*
Y184137D01*
X502552D01*
Y184290D01*
X502248D01*
Y184442D01*
X502095D01*
Y184595D01*
X501791D01*
Y184747D01*
X501486D01*
Y184899D01*
X501333D01*
Y185052D01*
X501029D01*
Y185204D01*
X500876D01*
Y185356D01*
X500571D01*
Y185509D01*
X500419D01*
Y185661D01*
X500267D01*
Y185813D01*
X500114D01*
Y185966D01*
X499810D01*
Y186118D01*
X499657D01*
Y186271D01*
X499505D01*
Y186423D01*
X499352D01*
Y186575D01*
X499048D01*
Y186880D01*
X498895D01*
Y187033D01*
X498591D01*
Y187185D01*
X498438D01*
Y187490D01*
X498286D01*
Y187642D01*
X498133D01*
Y187794D01*
X497981D01*
Y187947D01*
X497829D01*
Y188099D01*
X497676D01*
Y188252D01*
X497524D01*
Y188404D01*
X497371D01*
Y188709D01*
X497219D01*
Y188861D01*
X497067D01*
Y189014D01*
X496914D01*
Y189318D01*
X496762D01*
Y189471D01*
X496609D01*
Y189775D01*
X496457D01*
Y189928D01*
X496305D01*
Y190233D01*
X496152D01*
Y190537D01*
X496000D01*
Y190842D01*
X495848D01*
Y190995D01*
X495695D01*
Y191299D01*
X495543D01*
Y191604D01*
X495391D01*
Y192061D01*
X495238D01*
Y192366D01*
X495086D01*
Y192671D01*
X494933D01*
Y193128D01*
X494781D01*
Y193280D01*
X494629D01*
Y193585D01*
X494324D01*
Y193737D01*
X494019D01*
Y193890D01*
X493714D01*
Y194042D01*
X493257D01*
Y194194D01*
X492800D01*
Y194347D01*
X492343D01*
Y194499D01*
X491886D01*
Y194652D01*
X491429D01*
Y194804D01*
X491124D01*
Y194956D01*
X490819D01*
Y195109D01*
X490514D01*
Y195261D01*
X490209D01*
Y195413D01*
X489905D01*
Y195566D01*
X489600D01*
Y195718D01*
X489295D01*
Y195871D01*
X488990D01*
Y196023D01*
X488686D01*
Y196175D01*
X488533D01*
Y196328D01*
X488229D01*
Y196480D01*
X488076D01*
Y196633D01*
X487771D01*
Y196785D01*
X487619D01*
Y196937D01*
X487314D01*
Y197090D01*
X487162D01*
Y197242D01*
X487009D01*
Y197395D01*
X486705D01*
Y197547D01*
X486552D01*
Y197699D01*
X486400D01*
Y197852D01*
X486248D01*
Y198004D01*
X485943D01*
Y198156D01*
X485790D01*
Y198309D01*
X485638D01*
Y198461D01*
X485486D01*
Y198614D01*
X485333D01*
Y198766D01*
X485181D01*
Y198918D01*
X484876D01*
Y199071D01*
X484724D01*
Y199223D01*
X484571D01*
Y199375D01*
X484419D01*
Y199528D01*
X484267D01*
Y199680D01*
X484114D01*
Y199833D01*
X483962D01*
Y199985D01*
X483810D01*
Y200137D01*
X483657D01*
Y200290D01*
X483505D01*
Y200442D01*
X483352D01*
Y200594D01*
X483200D01*
Y200747D01*
X483048D01*
Y200899D01*
X482895D01*
Y201052D01*
X482743D01*
Y201356D01*
X482590D01*
Y201509D01*
X482438D01*
Y201661D01*
X482286D01*
Y201966D01*
X482133D01*
Y202118D01*
X481981D01*
Y202271D01*
X481829D01*
Y202575D01*
X481676D01*
Y202728D01*
X481524D01*
Y203033D01*
X481371D01*
Y203185D01*
X481219D01*
Y203490D01*
X481067D01*
Y203795D01*
X480914D01*
Y204099D01*
X480762D01*
Y204404D01*
X480610D01*
Y204709D01*
X480457D01*
Y205013D01*
X480305D01*
Y205471D01*
X480152D01*
Y205928D01*
X480000D01*
Y206233D01*
X479848D01*
Y206995D01*
X479695D01*
Y207452D01*
X479543D01*
Y207909D01*
X479390D01*
Y208366D01*
X479238D01*
Y208518D01*
X479086D01*
Y208671D01*
X478933D01*
Y208823D01*
X478781D01*
Y208975D01*
X478476D01*
Y209128D01*
X478324D01*
Y209280D01*
X478171D01*
Y209433D01*
X478019D01*
Y209585D01*
X477867D01*
Y209737D01*
X477714D01*
Y209890D01*
X477562D01*
Y210194D01*
X477410D01*
Y210347D01*
X477257D01*
Y210499D01*
X477105D01*
Y210804D01*
X476952D01*
Y211109D01*
X476800D01*
Y211566D01*
X476648D01*
Y211871D01*
X476495D01*
Y212328D01*
X476343D01*
Y212633D01*
X476191D01*
Y212937D01*
X475886D01*
Y213090D01*
X475581D01*
Y213242D01*
X475276D01*
Y213394D01*
X474971D01*
Y213547D01*
X474819D01*
Y213699D01*
X474667D01*
Y213852D01*
X474362D01*
Y214156D01*
X474057D01*
Y214461D01*
X473905D01*
Y214614D01*
X473752D01*
Y214918D01*
X473600D01*
Y215071D01*
X473448D01*
Y215375D01*
X473295D01*
Y215680D01*
X473143D01*
Y215985D01*
X472991D01*
Y216442D01*
X472838D01*
Y216899D01*
X472686D01*
Y217509D01*
X472533D01*
Y218423D01*
X472381D01*
Y220404D01*
X472533D01*
Y220709D01*
X472381D01*
Y221928D01*
X472229D01*
Y222385D01*
X472076D01*
Y222842D01*
X471924D01*
Y223147D01*
X471771D01*
Y223604D01*
X471619D01*
Y223756D01*
X471467D01*
Y224061D01*
X471314D01*
Y224518D01*
X471162D01*
Y224823D01*
X471009D01*
Y225433D01*
X470857D01*
Y226042D01*
X470705D01*
Y226804D01*
X470552D01*
Y228023D01*
X470400D01*
Y230613D01*
X470552D01*
Y231680D01*
X470705D01*
Y232442D01*
X470857D01*
Y233052D01*
X471009D01*
Y233509D01*
X471162D01*
Y234118D01*
X471314D01*
Y234575D01*
X471467D01*
Y235033D01*
X471619D01*
Y235490D01*
X471771D01*
Y235794D01*
X471924D01*
Y236252D01*
X472076D01*
Y236556D01*
X472229D01*
Y236861D01*
X472381D01*
Y237166D01*
X472533D01*
Y237471D01*
X472686D01*
Y237775D01*
X472838D01*
Y237928D01*
X472991D01*
Y238233D01*
X473143D01*
Y238537D01*
X473295D01*
Y238690D01*
X473448D01*
Y238995D01*
X473600D01*
Y239147D01*
X473752D01*
Y239299D01*
X473905D01*
Y239604D01*
X474057D01*
Y239756D01*
X474209D01*
Y239909D01*
X474362D01*
Y240061D01*
X474514D01*
Y240213D01*
X474667D01*
Y240518D01*
X474819D01*
Y240671D01*
X474971D01*
Y240823D01*
X475124D01*
Y240975D01*
X475276D01*
Y241128D01*
X475429D01*
Y241280D01*
X475581D01*
Y241433D01*
X475733D01*
Y241585D01*
X475886D01*
Y241737D01*
X476038D01*
Y241890D01*
X476343D01*
Y242042D01*
X476495D01*
Y242195D01*
X476648D01*
Y242347D01*
X476800D01*
Y242499D01*
X477105D01*
Y242652D01*
X477257D01*
Y242804D01*
X477410D01*
Y242956D01*
X477714D01*
Y243109D01*
X477867D01*
Y243261D01*
X478171D01*
Y243413D01*
X478476D01*
Y243566D01*
X478781D01*
Y243718D01*
X479086D01*
Y243871D01*
X479390D01*
Y244023D01*
X479695D01*
Y244175D01*
X480152D01*
Y244328D01*
X480457D01*
Y244480D01*
X480914D01*
Y244633D01*
X481524D01*
Y244785D01*
X482133D01*
Y244937D01*
X482895D01*
Y245090D01*
X483810D01*
Y245242D01*
X485029D01*
Y245394D01*
X485943D01*
Y245547D01*
X487009D01*
Y245852D01*
X487162D01*
Y246309D01*
X487314D01*
Y246614D01*
X487467D01*
Y247071D01*
X487619D01*
Y247528D01*
X487771D01*
Y247833D01*
X487924D01*
Y248290D01*
X488076D01*
Y248747D01*
X488229D01*
Y249204D01*
X488381D01*
Y249509D01*
X488533D01*
Y250118D01*
X488381D01*
Y250271D01*
X488229D01*
Y250575D01*
X488076D01*
Y250728D01*
X487924D01*
Y250880D01*
X487771D01*
Y251033D01*
X487619D01*
Y251185D01*
X487467D01*
Y251490D01*
X487314D01*
Y251642D01*
X487162D01*
Y251795D01*
X487009D01*
Y251947D01*
X486857D01*
Y252099D01*
X486705D01*
Y252252D01*
X486552D01*
Y252556D01*
X486400D01*
Y252709D01*
X486248D01*
Y252861D01*
X486095D01*
Y253013D01*
X485943D01*
Y253166D01*
X485790D01*
Y253318D01*
X485638D01*
Y253471D01*
X485486D01*
Y253623D01*
X485333D01*
Y253775D01*
X485181D01*
Y253928D01*
X485029D01*
Y254080D01*
X484876D01*
Y254233D01*
X484724D01*
Y254385D01*
X484571D01*
Y254537D01*
X484419D01*
Y254690D01*
X484267D01*
Y254842D01*
X484114D01*
Y255147D01*
X483810D01*
Y255452D01*
X483657D01*
Y255604D01*
X483505D01*
Y255756D01*
X483352D01*
Y255909D01*
X483200D01*
Y256061D01*
X483048D01*
Y256213D01*
X482895D01*
Y256366D01*
X482743D01*
Y256518D01*
X482590D01*
Y256671D01*
X482438D01*
Y256975D01*
X482286D01*
Y257128D01*
X482133D01*
Y257280D01*
X481981D01*
Y257433D01*
X481829D01*
Y257585D01*
X481676D01*
Y257737D01*
X481524D01*
Y257890D01*
X481371D01*
Y258194D01*
X481219D01*
Y258347D01*
X481067D01*
Y258499D01*
X480914D01*
Y258652D01*
X480762D01*
Y258804D01*
X480610D01*
Y259109D01*
X480457D01*
Y259261D01*
X480305D01*
Y259414D01*
X480152D01*
Y259718D01*
X480000D01*
Y259871D01*
X479848D01*
Y260023D01*
X479695D01*
Y260328D01*
X479543D01*
Y260480D01*
X479390D01*
Y260633D01*
X479238D01*
Y260937D01*
X479086D01*
Y261090D01*
X478933D01*
Y261395D01*
X478781D01*
Y261547D01*
X478629D01*
Y261852D01*
X478476D01*
Y262004D01*
X478324D01*
Y262156D01*
X478171D01*
Y262461D01*
X478019D01*
Y262614D01*
X477867D01*
Y262918D01*
X477714D01*
Y263223D01*
X477562D01*
Y263528D01*
X477410D01*
Y263680D01*
X477257D01*
Y263833D01*
X477105D01*
Y264137D01*
X476952D01*
Y264442D01*
X476800D01*
Y264747D01*
X476648D01*
Y264899D01*
X476495D01*
Y265204D01*
X476343D01*
Y265509D01*
X476191D01*
Y265813D01*
X476038D01*
Y266118D01*
X475886D01*
Y266271D01*
X475733D01*
Y266575D01*
X475581D01*
Y266880D01*
X475429D01*
Y267185D01*
X475276D01*
Y267490D01*
X475124D01*
Y267947D01*
X474971D01*
Y268252D01*
X474819D01*
Y268556D01*
X474667D01*
Y269014D01*
X474514D01*
Y269471D01*
X474362D01*
Y269928D01*
X474209D01*
Y270537D01*
X474057D01*
Y271299D01*
X473905D01*
Y274652D01*
X474057D01*
Y275413D01*
X474209D01*
Y276023D01*
X474362D01*
Y276480D01*
X474514D01*
Y276937D01*
X474667D01*
Y277242D01*
X474819D01*
Y277547D01*
X474971D01*
Y277852D01*
X475124D01*
Y278156D01*
X475276D01*
Y278461D01*
X475429D01*
Y278613D01*
X475581D01*
Y278766D01*
X475733D01*
Y279071D01*
X475886D01*
Y279223D01*
X476038D01*
Y279375D01*
X476191D01*
Y279528D01*
X476343D01*
Y279680D01*
X476495D01*
Y279833D01*
X476648D01*
Y279985D01*
X476800D01*
Y280137D01*
X476952D01*
Y280290D01*
X477105D01*
Y280442D01*
X477257D01*
Y280594D01*
X477410D01*
Y280747D01*
X477714D01*
Y280899D01*
X477867D01*
Y281052D01*
X478019D01*
Y281204D01*
X478324D01*
Y281356D01*
X478629D01*
Y281509D01*
X478781D01*
Y281661D01*
X479086D01*
Y281814D01*
X479390D01*
Y281966D01*
X479695D01*
Y282118D01*
X479848D01*
Y282271D01*
X480152D01*
Y282423D01*
X480457D01*
Y282575D01*
X480914D01*
Y282728D01*
X481219D01*
Y282880D01*
X481676D01*
Y283033D01*
X482133D01*
Y283185D01*
X482590D01*
Y283337D01*
X483352D01*
Y283490D01*
X483962D01*
Y283642D01*
X485029D01*
Y283794D01*
X486705D01*
Y283947D01*
X488229D01*
Y284099D01*
X492952D01*
Y283947D01*
X493562D01*
Y284556D01*
X493714D01*
Y285318D01*
X493867D01*
Y286080D01*
X494019D01*
Y286537D01*
X494171D01*
Y286995D01*
X494324D01*
Y287452D01*
X494476D01*
Y287909D01*
X494629D01*
Y288366D01*
X494781D01*
Y288671D01*
X494933D01*
Y289128D01*
X495086D01*
Y289433D01*
X495238D01*
Y289890D01*
X495391D01*
Y290195D01*
X495543D01*
Y290499D01*
X495695D01*
Y290804D01*
X495848D01*
Y291109D01*
X496000D01*
Y291413D01*
X496152D01*
Y291566D01*
X496305D01*
Y291871D01*
X496457D01*
Y292175D01*
X496609D01*
Y292480D01*
X496762D01*
Y292633D01*
X496914D01*
Y292937D01*
X497067D01*
Y293090D01*
X497219D01*
Y293394D01*
X497371D01*
Y293547D01*
X497524D01*
Y293852D01*
X497676D01*
Y294004D01*
X497829D01*
Y294156D01*
X497981D01*
Y294461D01*
X498133D01*
Y294614D01*
X498286D01*
Y294766D01*
X498438D01*
Y295071D01*
X498591D01*
Y295223D01*
X498743D01*
Y295375D01*
X498895D01*
Y295528D01*
X499048D01*
Y295833D01*
X499200D01*
Y295985D01*
X499352D01*
Y296137D01*
X499505D01*
Y296290D01*
X499657D01*
Y296442D01*
X499810D01*
Y296595D01*
X499962D01*
Y296747D01*
X500114D01*
Y297052D01*
X500267D01*
Y297204D01*
X500419D01*
Y297356D01*
X500571D01*
Y297509D01*
X500724D01*
Y297661D01*
X500876D01*
Y297814D01*
X501029D01*
Y297966D01*
X501181D01*
Y298118D01*
X501333D01*
Y298271D01*
X501486D01*
Y298423D01*
X501638D01*
Y298575D01*
X501791D01*
Y298728D01*
X501943D01*
Y298880D01*
X502095D01*
Y299033D01*
X502248D01*
Y299185D01*
X502552D01*
Y299337D01*
X502705D01*
Y299490D01*
X502857D01*
Y299642D01*
X503010D01*
Y299795D01*
X503162D01*
Y299947D01*
X503314D01*
Y300099D01*
X503467D01*
Y300252D01*
X503771D01*
Y300404D01*
X503924D01*
Y300556D01*
X504076D01*
Y300709D01*
X504229D01*
Y300861D01*
X504533D01*
Y301013D01*
X504686D01*
Y301166D01*
X504838D01*
Y301318D01*
X505143D01*
Y301471D01*
X505295D01*
Y301623D01*
X505448D01*
Y301775D01*
X505752D01*
Y301928D01*
X505905D01*
Y302080D01*
X506210D01*
Y302233D01*
X506362D01*
Y302385D01*
X506514D01*
Y302537D01*
X506819D01*
Y302690D01*
X507124D01*
Y302842D01*
X507276D01*
Y302994D01*
X507581D01*
Y303147D01*
X507886D01*
Y303299D01*
X508190D01*
Y303452D01*
X508343D01*
Y303604D01*
X508800D01*
Y303756D01*
X508952D01*
Y303909D01*
X509257D01*
Y304061D01*
X509562D01*
Y304214D01*
X510019D01*
Y304366D01*
X510324D01*
Y304518D01*
X510629D01*
Y304671D01*
X510933D01*
Y304823D01*
X511390D01*
Y304975D01*
X511848D01*
Y305128D01*
X512152D01*
Y305280D01*
X512609D01*
Y305433D01*
X513067D01*
Y305585D01*
X513676D01*
Y305737D01*
X514133D01*
Y305890D01*
X514895D01*
Y306042D01*
X515809D01*
Y306194D01*
X517029D01*
Y306347D01*
X518857D01*
Y306499D01*
X523276D01*
Y306347D01*
D02*
G37*
%LPC*%
G36*
X511543Y283185D02*
X511390D01*
Y283033D01*
X511238D01*
Y282880D01*
X511086D01*
Y282728D01*
X510933D01*
Y282423D01*
X510781D01*
Y282271D01*
X510629D01*
Y282118D01*
X510476D01*
Y281814D01*
X510324D01*
Y281661D01*
X510171D01*
Y281509D01*
X510019D01*
Y281356D01*
X509867D01*
Y281052D01*
X509714D01*
Y280899D01*
X509562D01*
Y280747D01*
X509410D01*
Y280594D01*
X509257D01*
Y280290D01*
X509105D01*
Y280137D01*
X508952D01*
Y279985D01*
X509257D01*
Y279833D01*
X509562D01*
Y279680D01*
X509867D01*
Y279528D01*
X510171D01*
Y279375D01*
X510629D01*
Y279223D01*
X510933D01*
Y279071D01*
X511238D01*
Y278918D01*
X511543D01*
Y278766D01*
X512000D01*
Y278613D01*
X512305D01*
Y278461D01*
X512609D01*
Y278309D01*
X512914D01*
Y278156D01*
X513219D01*
Y278004D01*
X513676D01*
Y277852D01*
X513981D01*
Y277699D01*
X514286D01*
Y277547D01*
X514591D01*
Y277395D01*
X514895D01*
Y277242D01*
X515200D01*
Y277090D01*
X515505D01*
Y276937D01*
X515809D01*
Y276785D01*
X516114D01*
Y276633D01*
X516419D01*
Y276480D01*
X516724D01*
Y276328D01*
X517029D01*
Y276175D01*
X517333D01*
Y276023D01*
X517638D01*
Y275871D01*
X517943D01*
Y275718D01*
X518248D01*
Y275566D01*
X518552D01*
Y275413D01*
X518705D01*
Y275261D01*
X519009D01*
Y275109D01*
X519314D01*
Y274956D01*
X519619D01*
Y274804D01*
X519771D01*
Y274652D01*
X520076D01*
Y274499D01*
X520381D01*
Y274347D01*
X520533D01*
Y274195D01*
X520838D01*
Y274042D01*
X520991D01*
Y273890D01*
X521295D01*
Y273737D01*
X521448D01*
Y273585D01*
X521752D01*
Y273890D01*
X521600D01*
Y274499D01*
X521448D01*
Y274956D01*
X521295D01*
Y275413D01*
X521143D01*
Y275871D01*
X520991D01*
Y276480D01*
X520838D01*
Y276937D01*
X520686D01*
Y277395D01*
X520533D01*
Y277852D01*
X520381D01*
Y278461D01*
X520229D01*
Y278918D01*
X520076D01*
Y279375D01*
X519924D01*
Y279833D01*
X519771D01*
Y280290D01*
X519619D01*
Y280747D01*
X519467D01*
Y281356D01*
X519314D01*
Y281814D01*
X519162D01*
Y282271D01*
X519009D01*
Y282728D01*
X518705D01*
Y282575D01*
X518552D01*
Y282423D01*
X518400D01*
Y282271D01*
X518248D01*
Y282118D01*
X518095D01*
Y281966D01*
X517943D01*
Y281814D01*
X517638D01*
Y281661D01*
X517486D01*
Y281509D01*
X517333D01*
Y281356D01*
X517181D01*
Y281204D01*
X517029D01*
Y281052D01*
X516724D01*
Y280899D01*
X516571D01*
Y280747D01*
X516419D01*
Y280594D01*
X516267D01*
Y280442D01*
X516114D01*
Y280290D01*
X515962D01*
Y280137D01*
X515657D01*
Y279985D01*
X515505D01*
Y279833D01*
X515352D01*
Y279680D01*
X515200D01*
Y279528D01*
X514895D01*
Y279375D01*
X514743D01*
Y279223D01*
X514438D01*
Y279071D01*
X514133D01*
Y278918D01*
X513524D01*
Y279071D01*
X513219D01*
Y279223D01*
X513067D01*
Y279375D01*
X512914D01*
Y279680D01*
X512762D01*
Y280137D01*
X512609D01*
Y280594D01*
X512457D01*
Y281052D01*
X512305D01*
Y281356D01*
X512152D01*
Y281814D01*
X512000D01*
Y282271D01*
X511848D01*
Y282728D01*
X511695D01*
Y283033D01*
X511543D01*
Y283185D01*
D02*
G37*
G36*
X512152Y288823D02*
X512000D01*
Y288671D01*
X511848D01*
Y288518D01*
X511695D01*
Y288366D01*
X511543D01*
Y288213D01*
X511390D01*
Y288061D01*
X511238D01*
Y287756D01*
X511086D01*
Y287604D01*
X510933D01*
Y287452D01*
X510781D01*
Y287299D01*
X510629D01*
Y287147D01*
X510476D01*
Y286995D01*
X510324D01*
Y286842D01*
X510171D01*
Y286690D01*
X510019D01*
Y286537D01*
X509867D01*
Y286385D01*
X509714D01*
Y286233D01*
X509562D01*
Y286080D01*
X509410D01*
Y285928D01*
X509257D01*
Y285775D01*
X509105D01*
Y285623D01*
Y285471D01*
X508952D01*
Y285318D01*
X508800D01*
Y285166D01*
X508648D01*
Y285014D01*
X508495D01*
Y284861D01*
X508343D01*
Y284709D01*
X508190D01*
Y284556D01*
X508038D01*
Y284404D01*
X507886D01*
Y284252D01*
X507733D01*
Y284099D01*
X507581D01*
Y283947D01*
X507429D01*
Y283794D01*
X507276D01*
Y283490D01*
X507124D01*
Y283337D01*
X506971D01*
Y283185D01*
X506819D01*
Y283033D01*
X506667D01*
Y282880D01*
X506514D01*
Y282728D01*
X506362D01*
Y282423D01*
X506667D01*
Y282271D01*
X506971D01*
Y282118D01*
X507276D01*
Y281966D01*
X507581D01*
Y281814D01*
X507733D01*
Y281661D01*
X508495D01*
Y281814D01*
X508648D01*
Y281966D01*
X508800D01*
Y282118D01*
X508952D01*
Y282271D01*
X509105D01*
Y282423D01*
X509257D01*
Y282728D01*
X509410D01*
Y282880D01*
X509562D01*
Y283033D01*
X509714D01*
Y283185D01*
X509867D01*
Y283490D01*
X510019D01*
Y283642D01*
X510171D01*
Y283794D01*
X510324D01*
Y284099D01*
X510476D01*
Y284252D01*
X510629D01*
Y284404D01*
X510781D01*
Y284556D01*
X510933D01*
Y284709D01*
X511086D01*
Y284861D01*
X511238D01*
Y285014D01*
X511390D01*
Y285166D01*
X511543D01*
Y285318D01*
X511695D01*
Y285471D01*
X512000D01*
Y285318D01*
X512152D01*
Y285166D01*
X512305D01*
Y284861D01*
X512457D01*
Y284556D01*
X512609D01*
Y284404D01*
X512762D01*
Y283947D01*
X512914D01*
Y283642D01*
X513067D01*
Y283337D01*
X513219D01*
Y283033D01*
X513371D01*
Y282575D01*
X513524D01*
Y282271D01*
X513676D01*
Y281814D01*
X513829D01*
Y281509D01*
X513981D01*
Y281204D01*
X514133D01*
Y280747D01*
X514591D01*
Y280899D01*
X514743D01*
Y281052D01*
X514895D01*
Y281204D01*
X515048D01*
Y281356D01*
X515200D01*
Y281509D01*
X515352D01*
Y281661D01*
X515657D01*
Y281814D01*
X515809D01*
Y281966D01*
X515962D01*
Y282118D01*
X516114D01*
Y282271D01*
X516419D01*
Y282423D01*
X516571D01*
Y282575D01*
X516724D01*
Y282728D01*
X516876D01*
Y282880D01*
X517029D01*
Y283033D01*
X517181D01*
Y283185D01*
X517486D01*
Y283337D01*
X517638D01*
Y283490D01*
X517791D01*
Y283642D01*
X517943D01*
Y283794D01*
X518095D01*
Y283947D01*
X518248D01*
Y284099D01*
X518552D01*
Y284252D01*
X518705D01*
Y284404D01*
X518857D01*
Y284556D01*
X519467D01*
Y284709D01*
X519619D01*
Y284556D01*
X519924D01*
Y284404D01*
X520076D01*
Y284099D01*
X520229D01*
Y283642D01*
X520381D01*
Y283185D01*
X520533D01*
Y282575D01*
X520686D01*
Y282118D01*
X520838D01*
Y281661D01*
X520991D01*
Y281204D01*
X521143D01*
Y280594D01*
X521295D01*
Y280137D01*
X521448D01*
Y279680D01*
X521600D01*
Y279223D01*
X521752D01*
Y278613D01*
X521905D01*
Y278156D01*
X522057D01*
Y277699D01*
X522210D01*
Y277242D01*
X522362D01*
Y276785D01*
X522514D01*
Y276175D01*
X522667D01*
Y275718D01*
X522819D01*
Y275109D01*
X522971D01*
Y274804D01*
X523124D01*
Y274499D01*
X523276D01*
Y274195D01*
X523429D01*
Y274042D01*
X523581D01*
Y273890D01*
X523733D01*
Y273737D01*
X524038D01*
Y273585D01*
X524191D01*
Y273433D01*
X524648D01*
Y273280D01*
X524952D01*
Y273128D01*
X525257D01*
Y272975D01*
X526019D01*
Y273128D01*
X526476D01*
Y273280D01*
X526781D01*
Y273433D01*
X527086D01*
Y273585D01*
X527238D01*
Y274347D01*
X527086D01*
Y274804D01*
X526933D01*
Y275109D01*
X526781D01*
Y275413D01*
X526629D01*
Y275871D01*
X526476D01*
Y276175D01*
X526324D01*
Y276480D01*
X526171D01*
Y276937D01*
X526019D01*
Y277242D01*
X525867D01*
Y277547D01*
X525714D01*
Y278004D01*
X525562D01*
Y278309D01*
X525410D01*
Y278766D01*
X525257D01*
Y279071D01*
X525105D01*
Y279528D01*
X524952D01*
Y279833D01*
X524800D01*
Y280137D01*
X524648D01*
Y280594D01*
X524495D01*
Y281052D01*
X524343D01*
Y281356D01*
X524191D01*
Y281814D01*
X524038D01*
Y282118D01*
X523886D01*
Y282575D01*
X523733D01*
Y282880D01*
X523581D01*
Y283185D01*
X523429D01*
Y283642D01*
X523276D01*
Y283947D01*
X523124D01*
Y284404D01*
X522971D01*
Y284709D01*
X522819D01*
Y285166D01*
X522667D01*
Y285471D01*
X522514D01*
Y285775D01*
X522362D01*
Y286233D01*
X522210D01*
Y286690D01*
X522057D01*
Y286995D01*
X521905D01*
Y287452D01*
X521752D01*
Y287756D01*
X521600D01*
Y288213D01*
X521448D01*
Y288518D01*
X521295D01*
Y288671D01*
X520838D01*
Y288518D01*
X520686D01*
Y288366D01*
X520381D01*
Y288213D01*
X520229D01*
Y288061D01*
X520076D01*
Y287909D01*
X519924D01*
Y287756D01*
X519771D01*
Y287604D01*
X519619D01*
Y287452D01*
X519467D01*
Y287299D01*
X519314D01*
Y287147D01*
X519009D01*
Y286995D01*
X518857D01*
Y286842D01*
X518705D01*
Y286690D01*
X518552D01*
Y286537D01*
X518400D01*
Y286385D01*
X518248D01*
Y286233D01*
X518095D01*
Y286080D01*
X517943D01*
Y285928D01*
X517638D01*
Y285775D01*
X517486D01*
Y285623D01*
X517333D01*
Y285471D01*
X517181D01*
Y285318D01*
X517029D01*
Y285166D01*
X516876D01*
Y285014D01*
X516571D01*
Y284861D01*
X516419D01*
Y284709D01*
X516267D01*
Y284556D01*
X516114D01*
Y284404D01*
X515962D01*
Y284252D01*
X515657D01*
Y284099D01*
X515505D01*
Y283947D01*
X515352D01*
Y283794D01*
X515200D01*
Y283642D01*
X514895D01*
Y283490D01*
X514286D01*
Y283642D01*
X514133D01*
Y283794D01*
X513981D01*
Y284099D01*
X513829D01*
Y284556D01*
X513676D01*
Y285014D01*
X513524D01*
Y285471D01*
X513371D01*
Y285928D01*
X513219D01*
Y286385D01*
X513067D01*
Y286842D01*
X512914D01*
Y287299D01*
X512762D01*
Y287604D01*
X512609D01*
Y288061D01*
X512457D01*
Y288366D01*
X512305D01*
Y288671D01*
X512152D01*
Y288823D01*
D02*
G37*
G36*
X518705Y292328D02*
X514591D01*
Y292175D01*
X513676D01*
Y292023D01*
X513067D01*
Y291871D01*
X512609D01*
Y291718D01*
X512152D01*
Y291566D01*
X511848D01*
Y291413D01*
X511390D01*
Y291261D01*
X511086D01*
Y291109D01*
X510781D01*
Y290956D01*
X510476D01*
Y290804D01*
X510171D01*
Y290652D01*
X509867D01*
Y290499D01*
X509714D01*
Y290347D01*
X509410D01*
Y290195D01*
X509105D01*
Y290042D01*
X508952D01*
Y289890D01*
X508800D01*
Y289737D01*
X508495D01*
Y289585D01*
X508343D01*
Y289433D01*
X508190D01*
Y289280D01*
X508038D01*
Y289128D01*
X507886D01*
Y288975D01*
X507581D01*
Y288823D01*
X507429D01*
Y288671D01*
X507276D01*
Y288518D01*
X507124D01*
Y288366D01*
X506971D01*
Y288213D01*
X506819D01*
Y288061D01*
X506667D01*
Y287909D01*
X506514D01*
Y287756D01*
X506362D01*
Y287604D01*
X506210D01*
Y287452D01*
X506057D01*
Y287147D01*
X505905D01*
Y286995D01*
X505752D01*
Y286842D01*
X505600D01*
Y286690D01*
X505448D01*
Y286385D01*
X505295D01*
Y286233D01*
X505143D01*
Y285928D01*
X504990D01*
Y285775D01*
X504838D01*
Y285471D01*
X504686D01*
Y285318D01*
X504533D01*
Y285014D01*
X504381D01*
Y284709D01*
X504229D01*
Y284404D01*
X504076D01*
Y284099D01*
X503924D01*
Y283794D01*
X503771D01*
Y283337D01*
X503619D01*
Y283033D01*
X503467D01*
Y282575D01*
X503314D01*
Y281966D01*
X503619D01*
Y281814D01*
X503924D01*
Y281661D01*
X504229D01*
Y281509D01*
X504686D01*
Y281356D01*
X504990D01*
Y281204D01*
X505448D01*
Y281052D01*
X505752D01*
Y280899D01*
X506057D01*
Y280747D01*
X506514D01*
Y280594D01*
X506819D01*
Y280442D01*
X507124D01*
Y280290D01*
X507581D01*
Y280137D01*
X508038D01*
Y280442D01*
X507733D01*
Y280594D01*
X507276D01*
Y280747D01*
X506971D01*
Y280899D01*
X506667D01*
Y281052D01*
X506210D01*
Y281204D01*
X505905D01*
Y281356D01*
X505448D01*
Y281509D01*
X505143D01*
Y281661D01*
X504838D01*
Y281814D01*
X504533D01*
Y281966D01*
X504381D01*
Y282118D01*
X504229D01*
Y282423D01*
X504381D01*
Y282728D01*
X504533D01*
Y282880D01*
X504686D01*
Y283033D01*
X504838D01*
Y283185D01*
X504990D01*
Y283337D01*
X505143D01*
Y283490D01*
X505295D01*
Y283642D01*
X505448D01*
Y283794D01*
X505600D01*
Y283947D01*
X505752D01*
Y284099D01*
X505905D01*
Y284252D01*
X506057D01*
Y284404D01*
X506210D01*
Y284556D01*
X506362D01*
Y284709D01*
X506514D01*
Y285014D01*
X506667D01*
Y285166D01*
X506819D01*
Y285318D01*
X506971D01*
Y285471D01*
X507124D01*
Y285623D01*
X507276D01*
Y285775D01*
X507429D01*
Y285928D01*
X507581D01*
Y286080D01*
X507733D01*
Y286233D01*
X507886D01*
Y286385D01*
X508038D01*
Y286537D01*
X508190D01*
Y286690D01*
X508343D01*
Y286842D01*
X508495D01*
Y286995D01*
X508648D01*
Y287147D01*
X508800D01*
Y287299D01*
X508952D01*
Y287452D01*
X509105D01*
Y287604D01*
X509257D01*
Y287756D01*
X509410D01*
Y287909D01*
X509562D01*
Y288061D01*
X509714D01*
Y288213D01*
X509867D01*
Y288366D01*
X510019D01*
Y288518D01*
X510171D01*
Y288671D01*
X510324D01*
Y288823D01*
X510476D01*
Y288975D01*
X510629D01*
Y289128D01*
X510781D01*
Y289433D01*
X511086D01*
Y289737D01*
X511390D01*
Y289890D01*
X511543D01*
Y290195D01*
X511695D01*
Y290347D01*
X511848D01*
Y290499D01*
X512000D01*
Y290652D01*
X512305D01*
Y290804D01*
X513067D01*
Y290652D01*
X513219D01*
Y290499D01*
X513371D01*
Y290195D01*
X513524D01*
Y289737D01*
X513676D01*
Y289280D01*
X513829D01*
Y288823D01*
X513981D01*
Y288518D01*
X514133D01*
Y287909D01*
X514286D01*
Y287604D01*
X514438D01*
Y286995D01*
X514591D01*
Y286537D01*
X514743D01*
Y286080D01*
X514895D01*
Y285623D01*
X515048D01*
Y285471D01*
X515200D01*
Y285623D01*
X515505D01*
Y285775D01*
X515657D01*
Y285928D01*
X515809D01*
Y286080D01*
X515962D01*
Y286233D01*
X516267D01*
Y286385D01*
X516419D01*
Y286537D01*
X516571D01*
Y286690D01*
X516724D01*
Y286842D01*
X516876D01*
Y286995D01*
X517029D01*
Y287147D01*
X517333D01*
Y287299D01*
X517486D01*
Y287452D01*
X517638D01*
Y287604D01*
X517791D01*
Y287756D01*
X517943D01*
Y287909D01*
X518095D01*
Y288061D01*
X518248D01*
Y288213D01*
X518552D01*
Y288366D01*
X518705D01*
Y288518D01*
X518857D01*
Y288671D01*
X519009D01*
Y288823D01*
X519162D01*
Y288975D01*
X519314D01*
Y289128D01*
X519467D01*
Y289280D01*
X519771D01*
Y289433D01*
X519924D01*
Y289585D01*
X520076D01*
Y289737D01*
X520229D01*
Y289890D01*
X520381D01*
Y290042D01*
X520533D01*
Y290195D01*
X520686D01*
Y290347D01*
X520991D01*
Y290499D01*
X521143D01*
Y290652D01*
X521448D01*
Y290804D01*
X522057D01*
Y290652D01*
X522210D01*
Y290499D01*
X522362D01*
Y290195D01*
X522514D01*
Y289890D01*
X522667D01*
Y289433D01*
X522819D01*
Y289128D01*
X522971D01*
Y288671D01*
X523124D01*
Y288366D01*
X523276D01*
Y287909D01*
X523429D01*
Y287604D01*
X523581D01*
Y287147D01*
X523733D01*
Y286690D01*
X523886D01*
Y286385D01*
X524038D01*
Y285928D01*
X524191D01*
Y285623D01*
X524343D01*
Y285166D01*
X524495D01*
Y284709D01*
X524648D01*
Y284404D01*
X524800D01*
Y283947D01*
X524952D01*
Y283642D01*
X525105D01*
Y283185D01*
X525257D01*
Y282728D01*
X525410D01*
Y282423D01*
X525562D01*
Y281966D01*
X525714D01*
Y281661D01*
X525867D01*
Y281204D01*
X526019D01*
Y280899D01*
X526171D01*
Y280594D01*
X526324D01*
Y280137D01*
X526476D01*
Y279680D01*
X526629D01*
Y279375D01*
X526781D01*
Y279071D01*
X526933D01*
Y278613D01*
X527086D01*
Y278309D01*
X527238D01*
Y277852D01*
X527390D01*
Y277547D01*
X527543D01*
Y277242D01*
X527695D01*
Y276785D01*
X527848D01*
Y276480D01*
X528000D01*
Y276175D01*
X528152D01*
Y275718D01*
X528305D01*
Y275413D01*
X528457D01*
Y274956D01*
X528610D01*
Y274652D01*
X528762D01*
Y274195D01*
X528914D01*
Y273890D01*
X529067D01*
Y273433D01*
X528914D01*
Y273128D01*
X528762D01*
Y272975D01*
X528610D01*
Y272823D01*
X528305D01*
Y272671D01*
X528000D01*
Y272518D01*
X527543D01*
Y272366D01*
X527238D01*
Y272214D01*
X526933D01*
Y272061D01*
X526629D01*
Y271909D01*
X526476D01*
Y271756D01*
X526019D01*
Y271604D01*
X525714D01*
Y271452D01*
X525257D01*
Y271604D01*
X525105D01*
Y271756D01*
X524800D01*
Y271909D01*
X524495D01*
Y272061D01*
X524343D01*
Y272214D01*
X524038D01*
Y272366D01*
X523733D01*
Y272518D01*
X523429D01*
Y272671D01*
X523276D01*
Y272823D01*
X522971D01*
Y272975D01*
X522667D01*
Y273128D01*
X522362D01*
Y272823D01*
X522514D01*
Y272671D01*
X522819D01*
Y272518D01*
X522971D01*
Y272366D01*
X523276D01*
Y272214D01*
X523581D01*
Y272061D01*
X523886D01*
Y271909D01*
X524191D01*
Y271756D01*
X524495D01*
Y271604D01*
X524800D01*
Y271452D01*
X524952D01*
Y271299D01*
X525257D01*
Y271147D01*
X525562D01*
Y270994D01*
X525867D01*
Y270842D01*
X526019D01*
Y270690D01*
X526324D01*
Y270537D01*
X526629D01*
Y270385D01*
X526781D01*
Y270233D01*
X527086D01*
Y270080D01*
X527238D01*
Y269928D01*
X527390D01*
Y269775D01*
X527695D01*
Y269623D01*
X527848D01*
Y269471D01*
X528000D01*
Y269318D01*
X528152D01*
Y269166D01*
X528457D01*
Y269318D01*
X528610D01*
Y269471D01*
X528762D01*
Y269775D01*
X528914D01*
Y270080D01*
X529067D01*
Y270385D01*
X529219D01*
Y270690D01*
X529371D01*
Y270842D01*
Y270994D01*
X529524D01*
Y271452D01*
X529676D01*
Y271756D01*
X529829D01*
Y272214D01*
X529981D01*
Y272671D01*
X530133D01*
Y273128D01*
X530286D01*
Y273585D01*
X530438D01*
Y274347D01*
X530590D01*
Y275109D01*
X530743D01*
Y276328D01*
X530895D01*
Y278613D01*
X530743D01*
Y279680D01*
X530590D01*
Y280290D01*
X530438D01*
Y281204D01*
X530286D01*
Y281814D01*
X530133D01*
Y282271D01*
X529981D01*
Y282880D01*
X529829D01*
Y283337D01*
X529676D01*
Y283642D01*
X529524D01*
Y284099D01*
X529371D01*
Y284404D01*
X529219D01*
Y284709D01*
X529067D01*
Y285014D01*
X528914D01*
Y285318D01*
X528762D01*
Y285623D01*
X528610D01*
Y285775D01*
X528457D01*
Y286080D01*
X528305D01*
Y286233D01*
X528152D01*
Y286537D01*
X528000D01*
Y286690D01*
X527848D01*
Y286995D01*
X527695D01*
Y287147D01*
X527543D01*
Y287299D01*
X527390D01*
Y287452D01*
X527238D01*
Y287756D01*
X527086D01*
Y287909D01*
X526933D01*
Y288061D01*
X526781D01*
Y288213D01*
X526629D01*
Y288366D01*
X526476D01*
Y288518D01*
X526324D01*
Y288671D01*
X526171D01*
Y288823D01*
X526019D01*
Y288975D01*
X525714D01*
Y289128D01*
X525562D01*
Y289280D01*
X525410D01*
Y289433D01*
X525257D01*
Y289585D01*
X525105D01*
Y289737D01*
X524800D01*
Y289890D01*
X524648D01*
Y290042D01*
X524343D01*
Y290195D01*
X524191D01*
Y290347D01*
X523886D01*
Y290499D01*
X523581D01*
Y290652D01*
X523429D01*
Y290804D01*
X523124D01*
Y290956D01*
X522819D01*
Y291109D01*
X522514D01*
Y291261D01*
X522210D01*
Y291413D01*
X521752D01*
Y291566D01*
X521448D01*
Y291718D01*
X520991D01*
Y291871D01*
X520533D01*
Y292023D01*
X519771D01*
Y292175D01*
X518705D01*
Y292328D01*
D02*
G37*
G36*
X499048Y260785D02*
X497676D01*
Y260633D01*
X497219D01*
Y260480D01*
X496914D01*
Y260328D01*
X496609D01*
Y260175D01*
X496305D01*
Y260023D01*
X496000D01*
Y259871D01*
X495848D01*
Y259718D01*
X495543D01*
Y259566D01*
X495391D01*
Y259414D01*
X495238D01*
Y259261D01*
X494933D01*
Y259109D01*
X494781D01*
Y258956D01*
Y258804D01*
X494629D01*
Y258652D01*
X494476D01*
Y258347D01*
X494629D01*
Y258499D01*
X494781D01*
Y258652D01*
X494933D01*
Y258804D01*
X495238D01*
Y258956D01*
X495391D01*
Y259109D01*
X495695D01*
Y259261D01*
X496000D01*
Y259414D01*
X496305D01*
Y259566D01*
X496609D01*
Y259718D01*
X496914D01*
Y259871D01*
X497219D01*
Y260023D01*
X497676D01*
Y260175D01*
X498133D01*
Y260328D01*
X498591D01*
Y260480D01*
X499048D01*
Y260785D01*
D02*
G37*
G36*
X512762Y260328D02*
X507276D01*
Y260175D01*
X504686D01*
Y260023D01*
X504533D01*
Y259871D01*
X504381D01*
Y259566D01*
X504533D01*
Y258956D01*
X504686D01*
Y257890D01*
X504838D01*
Y256518D01*
X504990D01*
Y254537D01*
X504838D01*
Y254385D01*
X504686D01*
Y254233D01*
X504381D01*
Y254537D01*
X504229D01*
Y254995D01*
X504076D01*
Y255604D01*
X503924D01*
Y255909D01*
X503771D01*
Y256366D01*
X503619D01*
Y256671D01*
X503467D01*
Y256975D01*
X503314D01*
Y257280D01*
X503162D01*
Y257433D01*
X503010D01*
Y257737D01*
X502857D01*
Y258042D01*
X502705D01*
Y258194D01*
X502552D01*
Y258347D01*
X502400D01*
Y258499D01*
X502248D01*
Y258804D01*
X502095D01*
Y258956D01*
X501943D01*
Y259109D01*
X501791D01*
Y259261D01*
X500724D01*
Y259109D01*
X500267D01*
Y258956D01*
X499962D01*
Y258804D01*
X499505D01*
Y258652D01*
X499048D01*
Y258499D01*
X498743D01*
Y258347D01*
X498438D01*
Y258194D01*
X498133D01*
Y258042D01*
X497829D01*
Y257890D01*
X497676D01*
Y257737D01*
X497371D01*
Y257585D01*
X497067D01*
Y257433D01*
X496762D01*
Y257280D01*
X496609D01*
Y257128D01*
X496457D01*
Y256975D01*
X496152D01*
Y256823D01*
X496000D01*
Y256671D01*
X495848D01*
Y256518D01*
X495695D01*
Y256366D01*
X495543D01*
Y256213D01*
X495391D01*
Y255909D01*
X495238D01*
Y255604D01*
X495086D01*
Y255452D01*
X494933D01*
Y255147D01*
X494781D01*
Y254995D01*
X494629D01*
Y254690D01*
X494476D01*
Y254385D01*
X494324D01*
Y254080D01*
X494171D01*
Y253775D01*
X494019D01*
Y253623D01*
X493867D01*
Y253318D01*
X493714D01*
Y253013D01*
X493562D01*
Y252709D01*
X493409D01*
Y252404D01*
X493257D01*
Y252099D01*
X493105D01*
Y251795D01*
X492952D01*
Y251490D01*
X492800D01*
Y251185D01*
X492648D01*
Y250880D01*
X492495D01*
Y250423D01*
X492343D01*
Y250118D01*
X492191D01*
Y249814D01*
X492038D01*
Y249356D01*
X491886D01*
Y249052D01*
X491733D01*
Y248747D01*
X491581D01*
Y248290D01*
X491429D01*
Y247833D01*
X491276D01*
Y247528D01*
X491124D01*
Y247071D01*
X490971D01*
Y246614D01*
X490819D01*
Y246156D01*
X490667D01*
Y245699D01*
X490514D01*
Y245090D01*
X490362D01*
Y244937D01*
X490514D01*
Y244633D01*
X490819D01*
Y244480D01*
X491276D01*
Y244328D01*
X491581D01*
Y244175D01*
X491886D01*
Y244785D01*
X492038D01*
Y246309D01*
X492191D01*
Y247223D01*
X492343D01*
Y248137D01*
X492495D01*
Y248594D01*
X492648D01*
Y249204D01*
X492800D01*
Y249661D01*
X492952D01*
Y249966D01*
X493105D01*
Y250423D01*
X493257D01*
Y250880D01*
X493409D01*
Y251185D01*
X493562D01*
Y251490D01*
X493714D01*
Y251795D01*
X493867D01*
Y252099D01*
X494019D01*
Y252404D01*
X494171D01*
Y252709D01*
X494324D01*
Y252861D01*
X494476D01*
Y253166D01*
X494629D01*
Y253318D01*
X494781D01*
Y253623D01*
X494933D01*
Y253775D01*
X495086D01*
Y253928D01*
X495238D01*
Y254080D01*
X495391D01*
Y254233D01*
X495543D01*
Y254385D01*
X495695D01*
Y254537D01*
X495848D01*
Y254690D01*
X496000D01*
Y254842D01*
X496152D01*
Y254995D01*
X496305D01*
Y255147D01*
X496457D01*
Y255299D01*
X496762D01*
Y255452D01*
X496914D01*
Y255604D01*
X497219D01*
Y255756D01*
X497524D01*
Y255909D01*
X497829D01*
Y256061D01*
X498286D01*
Y256213D01*
X498895D01*
Y256366D01*
X500571D01*
Y256213D01*
X501029D01*
Y256061D01*
X501486D01*
Y255909D01*
X501791D01*
Y255756D01*
X502095D01*
Y255604D01*
X502248D01*
Y255452D01*
X502552D01*
Y255299D01*
X502705D01*
Y255147D01*
X503010D01*
Y254995D01*
X503162D01*
Y254842D01*
X503314D01*
Y254690D01*
X503467D01*
Y254537D01*
X503619D01*
Y254385D01*
X503771D01*
Y254080D01*
X503924D01*
Y253928D01*
X504076D01*
Y253775D01*
X504229D01*
Y253471D01*
X504381D01*
Y253166D01*
X504533D01*
Y253013D01*
X504686D01*
Y252709D01*
X504838D01*
Y252252D01*
X504990D01*
Y251947D01*
X505143D01*
Y251490D01*
X505295D01*
Y251033D01*
X505448D01*
Y250271D01*
X505600D01*
Y248899D01*
X505752D01*
Y245699D01*
X505600D01*
Y244633D01*
X505448D01*
Y243718D01*
X505295D01*
Y243261D01*
X505143D01*
Y242652D01*
X504990D01*
Y242195D01*
X504838D01*
Y241737D01*
X504686D01*
Y241433D01*
X504533D01*
Y240823D01*
X504381D01*
Y240366D01*
X504229D01*
Y239909D01*
X504076D01*
Y239452D01*
X503924D01*
Y238995D01*
X503771D01*
Y238537D01*
X503924D01*
Y238233D01*
X504076D01*
Y238080D01*
X504229D01*
Y237928D01*
X504381D01*
Y237775D01*
X504533D01*
Y237623D01*
X504686D01*
Y237471D01*
X504838D01*
Y237318D01*
X504990D01*
Y237014D01*
X505143D01*
Y236099D01*
X504990D01*
Y235794D01*
X504686D01*
Y235642D01*
X504533D01*
Y235490D01*
X504229D01*
Y235337D01*
X503771D01*
Y235185D01*
X502552D01*
Y235337D01*
X502248D01*
Y235490D01*
X502095D01*
Y235642D01*
X501791D01*
Y235794D01*
X501638D01*
Y235947D01*
X501486D01*
Y236099D01*
X501333D01*
Y236252D01*
X501181D01*
Y236404D01*
X500876D01*
Y236556D01*
X500724D01*
Y236709D01*
X500419D01*
Y236861D01*
X500267D01*
Y237014D01*
X499962D01*
Y237166D01*
X499657D01*
Y237318D01*
X499352D01*
Y237471D01*
X499048D01*
Y237623D01*
X498743D01*
Y237775D01*
X498438D01*
Y237928D01*
X498286D01*
Y238080D01*
X497981D01*
Y238233D01*
X497676D01*
Y238385D01*
X497371D01*
Y238537D01*
X497067D01*
Y238690D01*
X496762D01*
Y238842D01*
X496457D01*
Y238995D01*
X496152D01*
Y239147D01*
X495848D01*
Y239299D01*
X495543D01*
Y239452D01*
X495238D01*
Y239604D01*
X494781D01*
Y239756D01*
X494476D01*
Y239909D01*
X494171D01*
Y240061D01*
X493867D01*
Y240213D01*
X493562D01*
Y240366D01*
X493257D01*
Y240518D01*
X492800D01*
Y240671D01*
X492495D01*
Y240823D01*
X492191D01*
Y240975D01*
X491733D01*
Y241128D01*
X491429D01*
Y241280D01*
X490971D01*
Y241433D01*
X490514D01*
Y241585D01*
X490057D01*
Y241737D01*
X489600D01*
Y241890D01*
X489143D01*
Y242042D01*
X488533D01*
Y242195D01*
X487771D01*
Y242347D01*
X487009D01*
Y242499D01*
X484571D01*
Y242347D01*
X483657D01*
Y242195D01*
X483048D01*
Y242042D01*
X482590D01*
Y241890D01*
X482133D01*
Y241737D01*
X481829D01*
Y241585D01*
X481524D01*
Y241433D01*
X481067D01*
Y241280D01*
X480914D01*
Y241128D01*
X480610D01*
Y240975D01*
X480305D01*
Y240823D01*
X480152D01*
Y240671D01*
X479848D01*
Y240518D01*
X479695D01*
Y240366D01*
X479543D01*
Y240213D01*
X479238D01*
Y240061D01*
X479086D01*
Y239909D01*
X478933D01*
Y239756D01*
X478781D01*
Y239604D01*
X478629D01*
Y239452D01*
X478476D01*
Y239299D01*
X478324D01*
Y239147D01*
X478171D01*
Y238995D01*
X478019D01*
Y238842D01*
X477867D01*
Y238537D01*
X477714D01*
Y238385D01*
X477562D01*
Y238233D01*
X477410D01*
Y238080D01*
X477257D01*
Y237775D01*
X477105D01*
Y237623D01*
X476952D01*
Y237318D01*
X476800D01*
Y237166D01*
X476648D01*
Y236861D01*
X476495D01*
Y236556D01*
X476343D01*
Y236252D01*
X476191D01*
Y235947D01*
X476038D01*
Y235642D01*
X475886D01*
Y235337D01*
X475733D01*
Y235033D01*
X475581D01*
Y234575D01*
X475429D01*
Y234118D01*
X475276D01*
Y233661D01*
X475124D01*
Y233204D01*
X474971D01*
Y232594D01*
X474819D01*
Y231833D01*
X474667D01*
Y231071D01*
X474514D01*
Y229852D01*
X474362D01*
Y228175D01*
X474514D01*
Y227109D01*
X474667D01*
Y226347D01*
X474819D01*
Y225737D01*
X474971D01*
Y225280D01*
X475124D01*
Y224823D01*
X475276D01*
Y224366D01*
X475429D01*
Y224061D01*
X475581D01*
Y223756D01*
X475733D01*
Y223452D01*
X475886D01*
Y223147D01*
X476038D01*
Y222994D01*
X476191D01*
Y222690D01*
X476343D01*
Y222537D01*
X476495D01*
Y222233D01*
X476648D01*
Y222080D01*
X476800D01*
Y221928D01*
X476952D01*
Y221623D01*
X477105D01*
Y221471D01*
X477257D01*
Y221318D01*
X477410D01*
Y221166D01*
X477562D01*
Y221013D01*
X477714D01*
Y220861D01*
X477867D01*
Y220709D01*
X478019D01*
Y220556D01*
X478171D01*
Y220404D01*
X478324D01*
Y220252D01*
X478476D01*
Y220099D01*
X478629D01*
Y219947D01*
X478933D01*
Y219795D01*
X479086D01*
Y219642D01*
X479238D01*
Y219490D01*
X479390D01*
Y219337D01*
X479695D01*
Y219185D01*
X479848D01*
Y219033D01*
X480000D01*
Y218880D01*
X480305D01*
Y218728D01*
X480457D01*
Y218575D01*
X480762D01*
Y218423D01*
X481067D01*
Y218271D01*
X481219D01*
Y218118D01*
X481524D01*
Y217966D01*
X481829D01*
Y217813D01*
X482133D01*
Y217661D01*
X482438D01*
Y217509D01*
X482743D01*
Y217356D01*
X483048D01*
Y217204D01*
X483505D01*
Y217052D01*
X483962D01*
Y216899D01*
X484419D01*
Y216747D01*
X484876D01*
Y216595D01*
X485486D01*
Y216442D01*
X486095D01*
Y216290D01*
X487009D01*
Y216137D01*
X487924D01*
Y215985D01*
X493257D01*
Y216137D01*
X494171D01*
Y216290D01*
X495086D01*
Y216442D01*
X495848D01*
Y216595D01*
X496457D01*
Y216747D01*
X497219D01*
Y216899D01*
X497676D01*
Y217052D01*
X498133D01*
Y217204D01*
X498743D01*
Y217356D01*
X499048D01*
Y217509D01*
X499505D01*
Y217661D01*
X499810D01*
Y217813D01*
X500114D01*
Y217966D01*
X500419D01*
Y218118D01*
X500724D01*
Y218271D01*
X501029D01*
Y218423D01*
X501333D01*
Y218575D01*
X501486D01*
Y218728D01*
X501791D01*
Y218880D01*
X501943D01*
Y219033D01*
X502248D01*
Y219185D01*
X502400D01*
Y219337D01*
X502552D01*
Y219490D01*
X502705D01*
Y219642D01*
X502857D01*
Y219795D01*
X503162D01*
Y219947D01*
X503314D01*
Y220099D01*
X503467D01*
Y220404D01*
X503771D01*
Y220709D01*
X503924D01*
Y220861D01*
X504076D01*
Y221013D01*
X504229D01*
Y221166D01*
X504381D01*
Y221471D01*
X504533D01*
Y221623D01*
X504686D01*
Y221928D01*
X504838D01*
Y222080D01*
X504990D01*
Y222233D01*
X505143D01*
Y222537D01*
X505295D01*
Y222842D01*
X505448D01*
Y222994D01*
X505752D01*
Y223147D01*
X505905D01*
Y223299D01*
X506210D01*
Y223452D01*
X506819D01*
Y223604D01*
X507429D01*
Y223452D01*
X508190D01*
Y223299D01*
X508343D01*
Y223147D01*
X508648D01*
Y222994D01*
X508800D01*
Y222842D01*
X508952D01*
Y222537D01*
X509105D01*
Y221775D01*
X508952D01*
Y221471D01*
X509714D01*
Y221623D01*
X510629D01*
Y221775D01*
X511238D01*
Y221928D01*
X511848D01*
Y222080D01*
X512609D01*
Y222233D01*
X513371D01*
Y222385D01*
X513981D01*
Y222537D01*
X514438D01*
Y222690D01*
X515048D01*
Y222842D01*
X515657D01*
Y222994D01*
X516114D01*
Y223147D01*
X516571D01*
Y223299D01*
X517029D01*
Y223452D01*
X517486D01*
Y223604D01*
X517943D01*
Y223756D01*
X518400D01*
Y223909D01*
X518857D01*
Y224061D01*
X519314D01*
Y224214D01*
X519771D01*
Y224366D01*
X520076D01*
Y224518D01*
X520533D01*
Y224671D01*
X520838D01*
Y224823D01*
X521143D01*
Y224975D01*
X521600D01*
Y225128D01*
X521905D01*
Y225280D01*
X522210D01*
Y225433D01*
X522667D01*
Y225585D01*
X522971D01*
Y225737D01*
X523276D01*
Y225890D01*
X523581D01*
Y226042D01*
X523886D01*
Y226195D01*
X524191D01*
Y226347D01*
X524495D01*
Y226499D01*
X524648D01*
Y226652D01*
X524952D01*
Y226804D01*
X525105D01*
Y226956D01*
X525257D01*
Y227109D01*
X525562D01*
Y227261D01*
X525714D01*
Y227414D01*
X525867D01*
Y227718D01*
X526019D01*
Y227871D01*
X526171D01*
Y228023D01*
X526324D01*
Y228328D01*
X526476D01*
Y228480D01*
X526629D01*
Y228785D01*
X526933D01*
Y228937D01*
X528152D01*
Y228785D01*
X528610D01*
Y228633D01*
X528762D01*
Y228480D01*
X529067D01*
Y228328D01*
X529219D01*
Y228023D01*
X529371D01*
Y227871D01*
X529524D01*
Y227566D01*
X529676D01*
Y227414D01*
X529829D01*
Y227109D01*
X529981D01*
Y226956D01*
X530133D01*
Y226652D01*
X530286D01*
Y226347D01*
X530438D01*
Y226042D01*
X530590D01*
Y225890D01*
X530743D01*
Y225433D01*
X530895D01*
Y225128D01*
X531048D01*
Y224518D01*
X531200D01*
Y222233D01*
X531048D01*
Y221166D01*
X530895D01*
Y220556D01*
X530743D01*
Y220099D01*
X530590D01*
Y219642D01*
X530438D01*
Y219337D01*
X530286D01*
Y219033D01*
X530133D01*
Y218728D01*
X529981D01*
Y218423D01*
X529829D01*
Y218271D01*
X529676D01*
Y218118D01*
X529524D01*
Y217813D01*
X529371D01*
Y217661D01*
X529219D01*
Y217509D01*
X529067D01*
Y217356D01*
X528914D01*
Y217204D01*
X528762D01*
Y217052D01*
X528610D01*
Y216899D01*
X528457D01*
Y216747D01*
X528305D01*
Y216595D01*
X528000D01*
Y216442D01*
X527848D01*
Y216290D01*
X527695D01*
Y216137D01*
X527390D01*
Y215985D01*
X527086D01*
Y215833D01*
X526781D01*
Y215680D01*
X526476D01*
Y215528D01*
X526019D01*
Y215375D01*
X525562D01*
Y215223D01*
X524800D01*
Y215071D01*
X523581D01*
Y214918D01*
X523429D01*
Y214766D01*
X523276D01*
Y214309D01*
X523124D01*
Y213852D01*
X522971D01*
Y213394D01*
X522819D01*
Y212937D01*
X522667D01*
Y212480D01*
X522514D01*
Y212175D01*
X522362D01*
Y212023D01*
X522210D01*
Y211718D01*
X522057D01*
Y211566D01*
X521905D01*
Y211261D01*
X521752D01*
Y211109D01*
X521600D01*
Y210956D01*
X521448D01*
Y210804D01*
X521295D01*
Y210652D01*
X521143D01*
Y210499D01*
X520991D01*
Y210347D01*
X520838D01*
Y210194D01*
X520686D01*
Y210042D01*
X520533D01*
Y209890D01*
X520229D01*
Y209585D01*
X520076D01*
Y209280D01*
X519924D01*
Y208518D01*
X520076D01*
Y207299D01*
X520229D01*
Y203185D01*
X520076D01*
Y202118D01*
X519924D01*
Y201204D01*
X519771D01*
Y200442D01*
X519619D01*
Y199833D01*
X519467D01*
Y199223D01*
X519314D01*
Y198766D01*
X519162D01*
Y198309D01*
X519009D01*
Y197852D01*
X518857D01*
Y197395D01*
X518705D01*
Y196937D01*
X518552D01*
Y196633D01*
X518400D01*
Y196175D01*
X518248D01*
Y195871D01*
X518095D01*
Y195413D01*
X517943D01*
Y195109D01*
X517791D01*
Y194804D01*
X517638D01*
Y194499D01*
X517486D01*
Y194194D01*
X517333D01*
Y194042D01*
X517181D01*
Y193890D01*
X517029D01*
Y193585D01*
X516876D01*
Y193433D01*
X516724D01*
Y193280D01*
X516571D01*
Y193128D01*
X516419D01*
Y192975D01*
X516267D01*
Y192823D01*
X516114D01*
Y192671D01*
X515962D01*
Y192518D01*
X515809D01*
Y192366D01*
X515657D01*
Y192213D01*
X515505D01*
Y192061D01*
X515352D01*
Y191909D01*
X515048D01*
Y191756D01*
X514895D01*
Y191604D01*
X514591D01*
Y191452D01*
X514286D01*
Y191299D01*
X513829D01*
Y191147D01*
X512305D01*
Y190995D01*
X510324D01*
Y191147D01*
X509257D01*
Y191299D01*
X508648D01*
Y191452D01*
X508190D01*
Y191604D01*
X507733D01*
Y191756D01*
X507276D01*
Y191909D01*
X506971D01*
Y192061D01*
X506819D01*
Y192213D01*
X506514D01*
Y192366D01*
X506210D01*
Y192518D01*
X506057D01*
Y192671D01*
X505752D01*
Y192823D01*
X505600D01*
Y192975D01*
X505448D01*
Y193128D01*
X505143D01*
Y193280D01*
X504990D01*
Y193433D01*
X504838D01*
Y193585D01*
X504686D01*
Y193737D01*
X504533D01*
Y193890D01*
X504381D01*
Y194042D01*
X504229D01*
Y194194D01*
X504076D01*
Y194347D01*
X503924D01*
Y194499D01*
X503771D01*
Y194652D01*
X503619D01*
Y194956D01*
X503467D01*
Y195109D01*
X503314D01*
Y195261D01*
X503162D01*
Y195566D01*
X503010D01*
Y195718D01*
X502857D01*
Y196023D01*
X502705D01*
Y196328D01*
X502552D01*
Y196480D01*
X502400D01*
Y196785D01*
X502248D01*
Y197090D01*
X502095D01*
Y197395D01*
X501943D01*
Y197699D01*
X501791D01*
Y198156D01*
X501638D01*
Y198614D01*
X501486D01*
Y199071D01*
X501333D01*
Y199528D01*
X501181D01*
Y200137D01*
X501029D01*
Y200899D01*
X500876D01*
Y201661D01*
X500724D01*
Y202271D01*
X500571D01*
Y202575D01*
X500114D01*
Y202728D01*
X499505D01*
Y202880D01*
X498895D01*
Y203033D01*
X498286D01*
Y203185D01*
X497829D01*
Y203337D01*
X497371D01*
Y203490D01*
X497067D01*
Y203642D01*
X496762D01*
Y203795D01*
X496609D01*
Y203947D01*
X496457D01*
Y204099D01*
X496305D01*
Y204404D01*
X496152D01*
Y205013D01*
X496305D01*
Y205318D01*
X496457D01*
Y205471D01*
X496609D01*
Y205623D01*
X496762D01*
Y205928D01*
X496609D01*
Y206080D01*
X496305D01*
Y206233D01*
X496000D01*
Y206385D01*
X495848D01*
Y206537D01*
X495695D01*
Y206690D01*
X495391D01*
Y206842D01*
X494933D01*
Y206690D01*
X494781D01*
Y206537D01*
X494476D01*
Y206385D01*
X494324D01*
Y206233D01*
X494171D01*
Y206080D01*
X494019D01*
Y205928D01*
X493714D01*
Y205775D01*
X493562D01*
Y205623D01*
X493257D01*
Y205471D01*
X493105D01*
Y205318D01*
X492800D01*
Y205166D01*
X492495D01*
Y205013D01*
X492191D01*
Y204861D01*
X491581D01*
Y204709D01*
X488838D01*
Y204861D01*
X487924D01*
Y205013D01*
X487467D01*
Y205166D01*
X487009D01*
Y205318D01*
X486705D01*
Y205471D01*
X486400D01*
Y205623D01*
X486095D01*
Y205775D01*
X485943D01*
Y205928D01*
X485638D01*
Y206080D01*
X485486D01*
Y206233D01*
X485333D01*
Y206385D01*
X485029D01*
Y206537D01*
X484876D01*
Y206690D01*
X484724D01*
Y206995D01*
X484571D01*
Y207147D01*
X484419D01*
Y207299D01*
X484267D01*
Y207452D01*
X484114D01*
Y207604D01*
X483962D01*
Y207756D01*
X483810D01*
Y207909D01*
X483505D01*
Y208061D01*
X483200D01*
Y207909D01*
X482895D01*
Y207299D01*
X483048D01*
Y206842D01*
X483200D01*
Y206537D01*
X483352D01*
Y206080D01*
X483505D01*
Y205928D01*
X483657D01*
Y205623D01*
X483810D01*
Y205318D01*
X483962D01*
Y205013D01*
X484114D01*
Y204861D01*
X484267D01*
Y204556D01*
X484419D01*
Y204252D01*
X484571D01*
Y204099D01*
X484724D01*
Y203947D01*
X484876D01*
Y203642D01*
X485029D01*
Y203490D01*
X485181D01*
Y203185D01*
X485333D01*
Y203033D01*
X485486D01*
Y202880D01*
X485638D01*
Y202728D01*
X485790D01*
Y202423D01*
X485943D01*
Y202271D01*
X486095D01*
Y202118D01*
X486248D01*
Y201966D01*
X486400D01*
Y201814D01*
X486552D01*
Y201661D01*
X486705D01*
Y201509D01*
X486857D01*
Y201356D01*
X487009D01*
Y201204D01*
X487162D01*
Y201052D01*
X487314D01*
Y200899D01*
X487467D01*
Y200747D01*
X487619D01*
Y200594D01*
X487771D01*
Y200442D01*
X488076D01*
Y200290D01*
X488229D01*
Y200137D01*
X488381D01*
Y199985D01*
X488533D01*
Y199833D01*
X488838D01*
Y199680D01*
X488990D01*
Y199528D01*
X489143D01*
Y199375D01*
X489448D01*
Y199223D01*
X489600D01*
Y199071D01*
X489905D01*
Y198918D01*
X490057D01*
Y198766D01*
X490362D01*
Y198614D01*
X490514D01*
Y198461D01*
X490819D01*
Y198309D01*
X490971D01*
Y198156D01*
X491276D01*
Y198004D01*
X491581D01*
Y197852D01*
X491886D01*
Y197699D01*
X492191D01*
Y197547D01*
X492495D01*
Y197395D01*
X492952D01*
Y197242D01*
X493257D01*
Y197090D01*
X493562D01*
Y196937D01*
X494171D01*
Y196785D01*
X494629D01*
Y196633D01*
X495238D01*
Y196480D01*
X496000D01*
Y196328D01*
X496609D01*
Y196175D01*
X496914D01*
Y196023D01*
X497219D01*
Y195871D01*
X497371D01*
Y195718D01*
X497524D01*
Y195413D01*
X497676D01*
Y194956D01*
X497829D01*
Y194347D01*
X497981D01*
Y193890D01*
X498133D01*
Y193585D01*
X498286D01*
Y193128D01*
X498438D01*
Y192823D01*
X498591D01*
Y192518D01*
X498743D01*
Y192061D01*
X498895D01*
Y191909D01*
X499048D01*
Y191604D01*
X499200D01*
Y191452D01*
X499352D01*
Y191147D01*
X499505D01*
Y190842D01*
X499657D01*
Y190690D01*
X499810D01*
Y190537D01*
X499962D01*
Y190233D01*
X500114D01*
Y190080D01*
X500267D01*
Y189928D01*
X500419D01*
Y189775D01*
X500571D01*
Y189623D01*
X500724D01*
Y189471D01*
X500876D01*
Y189318D01*
X501029D01*
Y189166D01*
X501181D01*
Y189014D01*
X501333D01*
Y188861D01*
X501486D01*
Y188709D01*
X501638D01*
Y188556D01*
X501791D01*
Y188404D01*
X501943D01*
Y188252D01*
X502095D01*
Y188099D01*
X502248D01*
Y187947D01*
X502552D01*
Y187794D01*
X502705D01*
Y187642D01*
X502857D01*
Y187490D01*
X503162D01*
Y187337D01*
X503314D01*
Y187185D01*
X503619D01*
Y187033D01*
X503771D01*
Y186880D01*
X503924D01*
Y186728D01*
X504229D01*
Y186575D01*
X504533D01*
Y186423D01*
X504838D01*
Y186271D01*
X505143D01*
Y186118D01*
X505448D01*
Y185966D01*
X505752D01*
Y185813D01*
X506057D01*
Y185661D01*
X506514D01*
Y185509D01*
X506971D01*
Y185356D01*
X507276D01*
Y185204D01*
X507886D01*
Y185052D01*
X508343D01*
Y184899D01*
X508952D01*
Y184747D01*
X509714D01*
Y184595D01*
X510629D01*
Y184442D01*
X515505D01*
Y184595D01*
X516267D01*
Y184747D01*
X517029D01*
Y184899D01*
X517638D01*
Y185052D01*
X518095D01*
Y185204D01*
X518552D01*
Y185356D01*
X519009D01*
Y185509D01*
X519467D01*
Y185661D01*
X519771D01*
Y185813D01*
X520076D01*
Y185966D01*
X520533D01*
Y186118D01*
X520838D01*
Y186271D01*
X521143D01*
Y186423D01*
X521448D01*
Y186575D01*
X521752D01*
Y186728D01*
X521905D01*
Y186880D01*
X522210D01*
Y187033D01*
X522514D01*
Y187185D01*
X522667D01*
Y187337D01*
X522819D01*
Y187490D01*
X523124D01*
Y187642D01*
X523276D01*
Y187794D01*
X523429D01*
Y187947D01*
X523733D01*
Y188099D01*
X523886D01*
Y188252D01*
X524038D01*
Y188404D01*
X524191D01*
Y188556D01*
X524343D01*
Y188709D01*
X524495D01*
Y188861D01*
X524648D01*
Y189014D01*
X524800D01*
Y189166D01*
X524952D01*
Y189318D01*
X525105D01*
Y189471D01*
X525257D01*
Y189623D01*
X525410D01*
Y189928D01*
X525562D01*
Y190080D01*
X525714D01*
Y190233D01*
X525867D01*
Y190385D01*
X526019D01*
Y190690D01*
X526171D01*
Y190842D01*
X526324D01*
Y190995D01*
X526476D01*
Y191147D01*
X526629D01*
Y191299D01*
X526781D01*
Y191452D01*
X527086D01*
Y191604D01*
X527390D01*
Y191756D01*
X528000D01*
Y191909D01*
X530438D01*
Y192061D01*
X531048D01*
Y192213D01*
X531505D01*
Y192366D01*
X531962D01*
Y192518D01*
X532419D01*
Y192671D01*
X532876D01*
Y192823D01*
X533181D01*
Y192975D01*
X533638D01*
Y193128D01*
X533943D01*
Y193280D01*
X534400D01*
Y193433D01*
X534705D01*
Y193585D01*
X535009D01*
Y193737D01*
X535467D01*
Y193890D01*
X535619D01*
Y194042D01*
X536076D01*
Y194194D01*
X536381D01*
Y194347D01*
X536533D01*
Y194499D01*
X536838D01*
Y194652D01*
X537143D01*
Y194804D01*
X537295D01*
Y194956D01*
X537600D01*
Y195109D01*
X537752D01*
Y195261D01*
X537905D01*
Y195413D01*
X538209D01*
Y195566D01*
X538362D01*
Y195718D01*
X538514D01*
Y195871D01*
X538667D01*
Y196023D01*
X538819D01*
Y196175D01*
X538971D01*
Y196328D01*
X539276D01*
Y196480D01*
X539429D01*
Y196633D01*
X539581D01*
Y196785D01*
X539733D01*
Y196937D01*
X539886D01*
Y197242D01*
X540038D01*
Y197395D01*
X540191D01*
Y197547D01*
X540343D01*
Y197699D01*
X540495D01*
Y197852D01*
X540648D01*
Y198156D01*
X540800D01*
Y198309D01*
X540952D01*
Y198461D01*
X541105D01*
Y198766D01*
X541257D01*
Y198918D01*
X541409D01*
Y199223D01*
X541562D01*
Y199375D01*
X541714D01*
Y199680D01*
X541867D01*
Y199833D01*
X542019D01*
Y200137D01*
X542171D01*
Y200290D01*
X542324D01*
Y200594D01*
X542476D01*
Y200899D01*
X542629D01*
Y201052D01*
X542781D01*
Y201356D01*
X542933D01*
Y201509D01*
X543086D01*
Y201814D01*
X543238D01*
Y201966D01*
X543391D01*
Y202118D01*
X543543D01*
Y202271D01*
X543848D01*
Y202423D01*
X544152D01*
Y202575D01*
X544762D01*
Y202423D01*
X545371D01*
Y202271D01*
X545676D01*
Y202118D01*
X545981D01*
Y201966D01*
X546286D01*
Y201814D01*
X546591D01*
Y201661D01*
X547048D01*
Y201509D01*
X547200D01*
Y201356D01*
X547505D01*
Y201204D01*
X547810D01*
Y201052D01*
X548114D01*
Y200899D01*
X548419D01*
Y200747D01*
X548724D01*
Y200594D01*
X549029D01*
Y200442D01*
X549486D01*
Y200290D01*
X549790D01*
Y200137D01*
X550248D01*
Y199985D01*
X550857D01*
Y199833D01*
X551619D01*
Y199680D01*
X554971D01*
Y199833D01*
X555886D01*
Y199985D01*
X556495D01*
Y200137D01*
X556952D01*
Y200290D01*
X557257D01*
Y200442D01*
X557714D01*
Y200594D01*
X558019D01*
Y200747D01*
X558324D01*
Y200899D01*
X558781D01*
Y201052D01*
X558933D01*
Y201204D01*
X559238D01*
Y201356D01*
X559543D01*
Y201509D01*
X559695D01*
Y201661D01*
X560000D01*
Y201814D01*
X560305D01*
Y201966D01*
X560457D01*
Y202118D01*
X560609D01*
Y202271D01*
X560914D01*
Y202423D01*
X561067D01*
Y202575D01*
X561219D01*
Y202728D01*
X561524D01*
Y202880D01*
X561676D01*
Y203033D01*
X561829D01*
Y203185D01*
X561981D01*
Y203337D01*
X562133D01*
Y203490D01*
X562438D01*
Y203642D01*
X562591D01*
Y203795D01*
X562743D01*
Y203947D01*
X562895D01*
Y204099D01*
X563048D01*
Y204252D01*
X563200D01*
Y204404D01*
X563352D01*
Y204709D01*
X563505D01*
Y204861D01*
X563657D01*
Y205013D01*
X563809D01*
Y205166D01*
X563962D01*
Y205318D01*
X564114D01*
Y205471D01*
X564267D01*
Y205623D01*
X564419D01*
Y205928D01*
X564571D01*
Y206080D01*
X564724D01*
Y206233D01*
X564876D01*
Y206385D01*
X565029D01*
Y206690D01*
X565181D01*
Y206842D01*
X565333D01*
Y206995D01*
X565486D01*
Y207299D01*
X565638D01*
Y207452D01*
X565791D01*
Y207756D01*
X565943D01*
Y207909D01*
X566095D01*
Y208213D01*
X566248D01*
Y208518D01*
X566400D01*
Y208671D01*
X566552D01*
Y208975D01*
X566705D01*
Y209280D01*
X566857D01*
Y209585D01*
X567009D01*
Y209890D01*
X567162D01*
Y210194D01*
X567314D01*
Y210499D01*
X567467D01*
Y210804D01*
X567619D01*
Y211261D01*
X567771D01*
Y211566D01*
X567924D01*
Y212023D01*
X568076D01*
Y212480D01*
X568229D01*
Y212937D01*
X568381D01*
Y213394D01*
X568533D01*
Y214156D01*
X568686D01*
Y214918D01*
X568838D01*
Y216137D01*
X568991D01*
Y218118D01*
X568838D01*
Y219490D01*
X568686D01*
Y220252D01*
X568533D01*
Y220709D01*
X568381D01*
Y221318D01*
X568229D01*
Y221623D01*
X568076D01*
Y221928D01*
X567924D01*
Y222385D01*
X567771D01*
Y222690D01*
X567619D01*
Y222842D01*
X567467D01*
Y223147D01*
X567314D01*
Y223452D01*
X567162D01*
Y223604D01*
X567009D01*
Y223756D01*
X566857D01*
Y224061D01*
X566705D01*
Y224214D01*
X566552D01*
Y224366D01*
X566400D01*
Y224671D01*
X566248D01*
Y224823D01*
X566095D01*
Y224975D01*
X565943D01*
Y225128D01*
X565791D01*
Y225280D01*
X565638D01*
Y225433D01*
X565333D01*
Y225585D01*
X565181D01*
Y225737D01*
X565029D01*
Y225890D01*
X564724D01*
Y226042D01*
X564571D01*
Y226195D01*
X564267D01*
Y226347D01*
X564114D01*
Y226499D01*
X563809D01*
Y226652D01*
X563505D01*
Y226804D01*
X563352D01*
Y226956D01*
X562895D01*
Y227109D01*
X562591D01*
Y227261D01*
X562133D01*
Y227414D01*
X561676D01*
Y227566D01*
X561219D01*
Y227718D01*
X560609D01*
Y227871D01*
X560000D01*
Y228023D01*
X559390D01*
Y228175D01*
X558476D01*
Y228328D01*
X557867D01*
Y228480D01*
X556952D01*
Y228328D01*
X556343D01*
Y228175D01*
X556038D01*
Y228023D01*
X555886D01*
Y227871D01*
X555733D01*
Y227718D01*
X555581D01*
Y227566D01*
X555429D01*
Y227414D01*
X555276D01*
Y227261D01*
X555124D01*
Y227109D01*
X554971D01*
Y226956D01*
X554819D01*
Y226804D01*
X554667D01*
Y226652D01*
X554514D01*
Y226347D01*
X554362D01*
Y226195D01*
X554210D01*
Y226042D01*
X554057D01*
Y225890D01*
X553905D01*
Y225737D01*
X553752D01*
Y225585D01*
X553600D01*
Y225433D01*
X553448D01*
Y225280D01*
X553295D01*
Y225128D01*
X553143D01*
Y224823D01*
X552990D01*
Y224671D01*
X552838D01*
Y224518D01*
X552686D01*
Y224366D01*
X552533D01*
Y224214D01*
X552381D01*
Y224061D01*
X552229D01*
Y223909D01*
X552076D01*
Y223756D01*
X551924D01*
Y223604D01*
X551771D01*
Y223452D01*
X551619D01*
Y223299D01*
X551467D01*
Y222994D01*
X551314D01*
Y222842D01*
X551162D01*
Y222690D01*
X551010D01*
Y222537D01*
X550857D01*
Y222385D01*
X550705D01*
Y222233D01*
X550552D01*
Y222080D01*
X550400D01*
Y221928D01*
X550248D01*
Y221623D01*
X549943D01*
Y221318D01*
X549790D01*
Y221166D01*
X549638D01*
Y221013D01*
X549486D01*
Y220861D01*
X549333D01*
Y220709D01*
X549181D01*
Y220556D01*
X549029D01*
Y220404D01*
X548876D01*
Y220099D01*
X548724D01*
Y219947D01*
X548571D01*
Y219795D01*
X548419D01*
Y219490D01*
X548267D01*
Y219337D01*
X548114D01*
Y219033D01*
X547962D01*
Y218728D01*
X547810D01*
Y218423D01*
X547657D01*
Y218118D01*
X547505D01*
Y217509D01*
X547352D01*
Y216899D01*
X547200D01*
Y216442D01*
X547048D01*
Y215985D01*
X546895D01*
Y215680D01*
X546743D01*
Y215528D01*
X546591D01*
Y215223D01*
X546438D01*
Y214918D01*
X546286D01*
Y214766D01*
X546133D01*
Y214614D01*
X545981D01*
Y214461D01*
X545829D01*
Y214309D01*
X545676D01*
Y214156D01*
X545524D01*
Y214004D01*
X545371D01*
Y213852D01*
X545067D01*
Y213699D01*
X544914D01*
Y213547D01*
X544762D01*
Y213394D01*
X544457D01*
Y213242D01*
X544152D01*
Y213090D01*
X543848D01*
Y212937D01*
X543543D01*
Y212785D01*
X543238D01*
Y212633D01*
X542629D01*
Y212480D01*
X542019D01*
Y212328D01*
X539886D01*
Y212480D01*
X539276D01*
Y212633D01*
X538819D01*
Y212785D01*
X538362D01*
Y212937D01*
X538057D01*
Y213090D01*
X537752D01*
Y213242D01*
X537448D01*
Y213394D01*
X537295D01*
Y213547D01*
X536990D01*
Y213699D01*
X536838D01*
Y213852D01*
X536533D01*
Y214004D01*
X536381D01*
Y214156D01*
X536229D01*
Y214309D01*
X536076D01*
Y214461D01*
X535924D01*
Y214614D01*
X535771D01*
Y214766D01*
X535619D01*
Y214918D01*
X535467D01*
Y215223D01*
X535314D01*
Y215375D01*
X535162D01*
Y215680D01*
X535009D01*
Y215985D01*
X534857D01*
Y216137D01*
X534705D01*
Y216595D01*
X534552D01*
Y217052D01*
X534400D01*
Y217661D01*
X534248D01*
Y219033D01*
X534095D01*
Y219490D01*
X534248D01*
Y220404D01*
X534400D01*
Y221013D01*
X534552D01*
Y221471D01*
X534705D01*
Y221623D01*
X534857D01*
Y222080D01*
X535009D01*
Y222233D01*
X535162D01*
Y222537D01*
X535314D01*
Y222690D01*
X535467D01*
Y222994D01*
X535619D01*
Y223147D01*
X535771D01*
Y223299D01*
X535924D01*
Y223604D01*
X535771D01*
Y223756D01*
X535619D01*
Y223909D01*
X535467D01*
Y224061D01*
X535314D01*
Y224214D01*
X535162D01*
Y224366D01*
X535009D01*
Y224518D01*
X534857D01*
Y224823D01*
X534705D01*
Y224975D01*
X534552D01*
Y225128D01*
X534400D01*
Y225433D01*
X534248D01*
Y225737D01*
X534095D01*
Y226042D01*
X533943D01*
Y226347D01*
X533790D01*
Y226956D01*
X533638D01*
Y228023D01*
X533486D01*
Y228328D01*
X533638D01*
Y229395D01*
X533790D01*
Y230004D01*
X533943D01*
Y230461D01*
X534095D01*
Y230766D01*
X534248D01*
Y231071D01*
X534400D01*
Y231223D01*
X534552D01*
Y231528D01*
X534705D01*
Y231680D01*
X534857D01*
Y231833D01*
X535009D01*
Y231985D01*
X535162D01*
Y232137D01*
X535314D01*
Y232290D01*
X535467D01*
Y232442D01*
X535619D01*
Y232594D01*
X535771D01*
Y232747D01*
X535924D01*
Y232899D01*
X536229D01*
Y233052D01*
X536381D01*
Y233204D01*
X536686D01*
Y233356D01*
X536990D01*
Y233509D01*
X537295D01*
Y233661D01*
X537752D01*
Y233814D01*
X538209D01*
Y233966D01*
X538819D01*
Y234118D01*
X540343D01*
Y233966D01*
X541105D01*
Y233814D01*
X541714D01*
Y233661D01*
X543543D01*
Y233814D01*
X544000D01*
Y233966D01*
X544305D01*
Y234118D01*
X544762D01*
Y234271D01*
X544914D01*
Y234423D01*
X545219D01*
Y234575D01*
X545524D01*
Y234728D01*
X545676D01*
Y234880D01*
X545981D01*
Y235033D01*
X546133D01*
Y235185D01*
X546438D01*
Y235337D01*
X546591D01*
Y235490D01*
X546743D01*
Y235642D01*
X546895D01*
Y235794D01*
X547048D01*
Y235947D01*
X547200D01*
Y236099D01*
X547352D01*
Y236252D01*
X547505D01*
Y236404D01*
X547657D01*
Y236556D01*
X547810D01*
Y236861D01*
X547962D01*
Y237014D01*
X548114D01*
Y237166D01*
X548267D01*
Y237471D01*
X548419D01*
Y237623D01*
X548571D01*
Y237928D01*
X548724D01*
Y238080D01*
X548876D01*
Y238385D01*
X549029D01*
Y238690D01*
X549181D01*
Y238842D01*
X549333D01*
Y239147D01*
X549486D01*
Y239909D01*
X549333D01*
Y240213D01*
X549181D01*
Y240518D01*
X549029D01*
Y240823D01*
X548876D01*
Y240975D01*
X548724D01*
Y241280D01*
X548571D01*
Y241585D01*
X548419D01*
Y241737D01*
X548267D01*
Y242042D01*
X548114D01*
Y242347D01*
X547962D01*
Y242499D01*
X547810D01*
Y242804D01*
X547657D01*
Y242956D01*
X547505D01*
Y243261D01*
X547352D01*
Y243413D01*
X547200D01*
Y243566D01*
X547048D01*
Y243718D01*
X546895D01*
Y243871D01*
X546591D01*
Y244023D01*
X545981D01*
Y243871D01*
X545371D01*
Y243718D01*
X544609D01*
Y243566D01*
X542324D01*
Y243718D01*
X541409D01*
Y243871D01*
X540952D01*
Y244023D01*
X540495D01*
Y244175D01*
X540038D01*
Y244328D01*
X539733D01*
Y244480D01*
X539429D01*
Y244633D01*
X539124D01*
Y244785D01*
X538819D01*
Y244937D01*
X538514D01*
Y245090D01*
X538362D01*
Y245242D01*
X538057D01*
Y245394D01*
X537905D01*
Y245547D01*
X537600D01*
Y245699D01*
X537448D01*
Y245852D01*
X537295D01*
Y246004D01*
X537143D01*
Y246156D01*
X536838D01*
Y246309D01*
X536686D01*
Y246461D01*
X536533D01*
Y246614D01*
X536381D01*
Y246766D01*
X536229D01*
Y246918D01*
X536076D01*
Y247071D01*
X535924D01*
Y247223D01*
X535771D01*
Y247375D01*
X535619D01*
Y247528D01*
X535467D01*
Y247680D01*
X535314D01*
Y247833D01*
X535162D01*
Y247985D01*
X535009D01*
Y248137D01*
X534857D01*
Y248442D01*
X534552D01*
Y248747D01*
X534400D01*
Y248899D01*
X534248D01*
Y249052D01*
X534095D01*
Y249204D01*
X533943D01*
Y249356D01*
X533790D01*
Y249509D01*
X533486D01*
Y248899D01*
X533333D01*
Y248290D01*
X533181D01*
Y247680D01*
X533029D01*
Y247375D01*
X532876D01*
Y246918D01*
X532724D01*
Y246614D01*
X532571D01*
Y246461D01*
X532419D01*
Y246156D01*
X532267D01*
Y246004D01*
X532114D01*
Y246461D01*
X531962D01*
Y247833D01*
X531810D01*
Y248899D01*
X531657D01*
Y249814D01*
X531505D01*
Y250423D01*
X531352D01*
Y250728D01*
X531200D01*
Y251185D01*
X531048D01*
Y251642D01*
X530895D01*
Y251947D01*
X530743D01*
Y252099D01*
X530590D01*
Y252404D01*
X530438D01*
Y252709D01*
X530286D01*
Y252861D01*
X530133D01*
Y253013D01*
X529981D01*
Y253318D01*
X529829D01*
Y253471D01*
X529676D01*
Y253623D01*
X529524D01*
Y253928D01*
X529371D01*
Y254080D01*
X529067D01*
Y254233D01*
X528914D01*
Y254537D01*
X528762D01*
Y254690D01*
X528457D01*
Y254842D01*
X528305D01*
Y254995D01*
X528152D01*
Y255147D01*
X527848D01*
Y255299D01*
X527695D01*
Y255452D01*
X527390D01*
Y255604D01*
X527238D01*
Y255756D01*
X526933D01*
Y255909D01*
X526629D01*
Y256061D01*
X526171D01*
Y256213D01*
X525714D01*
Y256366D01*
X525257D01*
Y256518D01*
X524038D01*
Y256671D01*
X523124D01*
Y256518D01*
X521752D01*
Y256366D01*
X520991D01*
Y256213D01*
X520533D01*
Y256061D01*
X520076D01*
Y255909D01*
X519619D01*
Y255756D01*
X519314D01*
Y255604D01*
X518857D01*
Y255452D01*
X518552D01*
Y255299D01*
X518400D01*
Y255147D01*
X518095D01*
Y254995D01*
X517791D01*
Y254842D01*
X517486D01*
Y254690D01*
X517333D01*
Y254537D01*
X517181D01*
Y254385D01*
X516876D01*
Y254233D01*
X516724D01*
Y254080D01*
X516571D01*
Y253928D01*
X516267D01*
Y253775D01*
X516114D01*
Y253623D01*
X515809D01*
Y253471D01*
X515657D01*
Y253318D01*
X515505D01*
Y253471D01*
X515352D01*
Y253775D01*
X515505D01*
Y254080D01*
X515657D01*
Y254385D01*
X515809D01*
Y254690D01*
X515962D01*
Y254842D01*
X516114D01*
Y255147D01*
X516267D01*
Y255452D01*
X516419D01*
Y255756D01*
X516571D01*
Y255909D01*
X516724D01*
Y256213D01*
X516876D01*
Y256366D01*
X517029D01*
Y256671D01*
X517181D01*
Y256823D01*
X517333D01*
Y256975D01*
X517486D01*
Y257128D01*
X517638D01*
Y257433D01*
X517791D01*
Y257585D01*
X517943D01*
Y257737D01*
X518095D01*
Y258042D01*
X518248D01*
Y258194D01*
X518400D01*
Y258347D01*
X518552D01*
Y258499D01*
X518705D01*
Y258652D01*
X518857D01*
Y258804D01*
X519009D01*
Y258956D01*
X519162D01*
Y259261D01*
X518705D01*
Y259414D01*
X517791D01*
Y259566D01*
X516876D01*
Y259718D01*
X515962D01*
Y259871D01*
X515048D01*
Y260023D01*
X513981D01*
Y260175D01*
X512762D01*
Y260328D01*
D02*
G37*
G36*
X500114Y254385D02*
X499048D01*
Y254233D01*
X498591D01*
Y254080D01*
X498286D01*
Y253928D01*
X497981D01*
Y253775D01*
X497829D01*
Y253623D01*
X497524D01*
Y253471D01*
X497371D01*
Y253318D01*
X497219D01*
Y253166D01*
X497067D01*
Y253013D01*
X496914D01*
Y252861D01*
X496762D01*
Y252709D01*
X496609D01*
Y252556D01*
X496457D01*
Y252404D01*
X496305D01*
Y252099D01*
X496152D01*
Y251795D01*
X496000D01*
Y251642D01*
X495848D01*
Y251337D01*
X495695D01*
Y251033D01*
X495543D01*
Y250728D01*
X495391D01*
Y250271D01*
X495238D01*
Y249966D01*
X495086D01*
Y249509D01*
X494933D01*
Y249052D01*
X494781D01*
Y248594D01*
X494629D01*
Y248137D01*
X494476D01*
Y247223D01*
X494324D01*
Y246156D01*
X494171D01*
Y243566D01*
X494324D01*
Y243261D01*
X494476D01*
Y243109D01*
X494629D01*
Y242956D01*
X495238D01*
Y243413D01*
X495391D01*
Y244328D01*
X495543D01*
Y244937D01*
X495695D01*
Y245547D01*
X495848D01*
Y246156D01*
X496000D01*
Y246614D01*
X496152D01*
Y247071D01*
X496305D01*
Y247375D01*
X496457D01*
Y247680D01*
X496609D01*
Y247985D01*
X496762D01*
Y248290D01*
X496914D01*
Y248442D01*
X497067D01*
Y248747D01*
X497219D01*
Y248899D01*
X497371D01*
Y249204D01*
X497524D01*
Y249356D01*
X497676D01*
Y249509D01*
X497829D01*
Y249661D01*
X497981D01*
Y249814D01*
X498133D01*
Y249966D01*
X498286D01*
Y250118D01*
X498438D01*
Y250271D01*
X498743D01*
Y250423D01*
X498895D01*
Y250575D01*
X499200D01*
Y250728D01*
X499505D01*
Y250880D01*
X499810D01*
Y251033D01*
X500267D01*
Y251185D01*
X501638D01*
Y251033D01*
X502095D01*
Y250880D01*
X502552D01*
Y250728D01*
X502857D01*
Y250575D01*
X503010D01*
Y250423D01*
X503162D01*
Y250575D01*
X503314D01*
Y250728D01*
X503162D01*
Y250880D01*
X503010D01*
Y251185D01*
X502857D01*
Y251490D01*
X502705D01*
Y251795D01*
X502552D01*
Y252099D01*
X502400D01*
Y252404D01*
X502248D01*
Y252556D01*
X502095D01*
Y252861D01*
X501943D01*
Y253013D01*
X501791D01*
Y253166D01*
X501638D01*
Y253318D01*
X501486D01*
Y253471D01*
X501333D01*
Y253623D01*
X501181D01*
Y253775D01*
X501029D01*
Y253928D01*
X500876D01*
Y254080D01*
X500571D01*
Y254233D01*
X500114D01*
Y254385D01*
D02*
G37*
G36*
X501333Y250118D02*
X500114D01*
Y249966D01*
X499810D01*
Y249814D01*
X499505D01*
Y249661D01*
X499352D01*
Y249509D01*
X499200D01*
Y249356D01*
X499048D01*
Y249052D01*
X498895D01*
Y248899D01*
X498743D01*
Y248747D01*
X498591D01*
Y248442D01*
X498438D01*
Y248290D01*
X498286D01*
Y247985D01*
X498133D01*
Y247680D01*
X497981D01*
Y247375D01*
X497829D01*
Y247071D01*
X497676D01*
Y246766D01*
X497524D01*
Y246309D01*
X497371D01*
Y245852D01*
X497219D01*
Y245090D01*
X497067D01*
Y244175D01*
X496914D01*
Y242195D01*
X497067D01*
Y242042D01*
X497219D01*
Y241890D01*
X497524D01*
Y241737D01*
X497981D01*
Y243109D01*
X498133D01*
Y244175D01*
X498286D01*
Y244480D01*
Y244633D01*
Y244785D01*
X498438D01*
Y245242D01*
X498591D01*
Y245699D01*
X498743D01*
Y246004D01*
X498895D01*
Y246309D01*
X499048D01*
Y246461D01*
X499200D01*
Y246766D01*
X499352D01*
Y246918D01*
X499505D01*
Y247223D01*
X499657D01*
Y247375D01*
X499810D01*
Y247528D01*
X499962D01*
Y247680D01*
X500114D01*
Y247833D01*
X500419D01*
Y247985D01*
X500724D01*
Y248137D01*
X501333D01*
Y248290D01*
X501638D01*
Y248137D01*
X502248D01*
Y247985D01*
X502552D01*
Y247833D01*
X502705D01*
Y247680D01*
X502857D01*
Y247528D01*
X503010D01*
Y247375D01*
X503162D01*
Y247223D01*
X503314D01*
Y247071D01*
X503467D01*
Y247528D01*
X503314D01*
Y247833D01*
X503162D01*
Y247985D01*
X503010D01*
Y248442D01*
X502857D01*
Y248594D01*
X502705D01*
Y248899D01*
X502552D01*
Y249052D01*
X502400D01*
Y249356D01*
X502248D01*
Y249509D01*
X502095D01*
Y249661D01*
X501791D01*
Y249814D01*
X501638D01*
Y249966D01*
X501333D01*
Y250118D01*
D02*
G37*
G36*
X490362Y282271D02*
X486552D01*
Y282118D01*
X485486D01*
Y281966D01*
X484571D01*
Y281814D01*
X484114D01*
Y281661D01*
X483505D01*
Y281509D01*
X483048D01*
Y281356D01*
X482590D01*
Y281204D01*
X482286D01*
Y281052D01*
X481981D01*
Y280899D01*
X481676D01*
Y280747D01*
X481371D01*
Y280594D01*
X481219D01*
Y280442D01*
X480914D01*
Y280290D01*
X480762D01*
Y280137D01*
X480457D01*
Y279985D01*
X480305D01*
Y279833D01*
X480152D01*
Y279680D01*
X480000D01*
Y279528D01*
X479848D01*
Y279375D01*
X479695D01*
Y279223D01*
X479543D01*
Y279071D01*
X479390D01*
Y278766D01*
X479238D01*
Y278613D01*
X479086D01*
Y278461D01*
X478933D01*
Y278156D01*
X478781D01*
Y277852D01*
X478629D01*
Y277699D01*
X478476D01*
Y277242D01*
X478324D01*
Y276937D01*
X478171D01*
Y276480D01*
X478019D01*
Y275871D01*
X477867D01*
Y275109D01*
X477714D01*
Y272518D01*
X477867D01*
Y271909D01*
Y271756D01*
Y271452D01*
X478019D01*
Y270842D01*
X478171D01*
Y270385D01*
X478324D01*
Y269928D01*
X478476D01*
Y269471D01*
X478629D01*
Y269166D01*
X478781D01*
Y268861D01*
X478933D01*
Y268404D01*
X479086D01*
Y268099D01*
X479238D01*
Y267794D01*
X479390D01*
Y267490D01*
X479543D01*
Y267185D01*
X479695D01*
Y266880D01*
X479848D01*
Y266728D01*
X480000D01*
Y266423D01*
X480152D01*
Y266118D01*
X480305D01*
Y265813D01*
X480457D01*
Y265509D01*
X480610D01*
Y265356D01*
X480762D01*
Y265052D01*
X480914D01*
Y264899D01*
X481067D01*
Y264595D01*
X481219D01*
Y264442D01*
X481371D01*
Y264137D01*
X481524D01*
Y263833D01*
X481676D01*
Y263680D01*
X481829D01*
Y263375D01*
X481981D01*
Y263223D01*
X482133D01*
Y262918D01*
X482286D01*
Y262766D01*
X482438D01*
Y262461D01*
X482590D01*
Y262309D01*
X482743D01*
Y262004D01*
X482895D01*
Y261852D01*
X483048D01*
Y261547D01*
X483200D01*
Y261395D01*
X483352D01*
Y261090D01*
X483505D01*
Y260937D01*
X483657D01*
Y260633D01*
X483810D01*
Y260480D01*
X483962D01*
Y260328D01*
X484114D01*
Y260023D01*
X484267D01*
Y259871D01*
X484419D01*
Y259718D01*
X484571D01*
Y259566D01*
X484724D01*
Y259414D01*
X484876D01*
Y259109D01*
X485029D01*
Y258956D01*
X485181D01*
Y258804D01*
X485333D01*
Y258652D01*
X485486D01*
Y258499D01*
X485638D01*
Y258347D01*
X485790D01*
Y258194D01*
X485943D01*
Y258042D01*
X486095D01*
Y257737D01*
X486248D01*
Y257585D01*
X486552D01*
Y257433D01*
X486705D01*
Y257128D01*
X486857D01*
Y256975D01*
X487009D01*
Y256823D01*
X487162D01*
Y256671D01*
X487314D01*
Y256518D01*
X487467D01*
Y256366D01*
X487619D01*
Y256213D01*
X487771D01*
Y256061D01*
X488076D01*
Y255756D01*
X488381D01*
Y255604D01*
X488533D01*
Y255452D01*
X488686D01*
Y255299D01*
X488838D01*
Y255147D01*
X488990D01*
Y254995D01*
X489143D01*
Y254690D01*
X489295D01*
Y254537D01*
X489600D01*
Y254385D01*
X489905D01*
Y254537D01*
X490057D01*
Y254690D01*
X490209D01*
Y254842D01*
X490362D01*
Y254995D01*
X490514D01*
Y255147D01*
X490667D01*
Y255299D01*
X490819D01*
Y255452D01*
X490971D01*
Y255604D01*
X491124D01*
Y255756D01*
X491276D01*
Y255909D01*
X491429D01*
Y256061D01*
X491581D01*
Y256213D01*
X491733D01*
Y256366D01*
X491886D01*
Y256518D01*
X492038D01*
Y256671D01*
X492191D01*
Y257128D01*
X492343D01*
Y257890D01*
X492495D01*
Y258804D01*
X492648D01*
Y259566D01*
X492800D01*
Y260175D01*
X492952D01*
Y260937D01*
X493105D01*
Y261547D01*
X493257D01*
Y262004D01*
X493409D01*
Y262461D01*
X493562D01*
Y262766D01*
X493714D01*
Y263223D01*
X493867D01*
Y263528D01*
X494019D01*
Y263833D01*
X494171D01*
Y264137D01*
X494324D01*
Y264290D01*
X494476D01*
Y264595D01*
X494629D01*
Y264899D01*
X494781D01*
Y265052D01*
X494933D01*
Y265204D01*
X495086D01*
Y265356D01*
X495238D01*
Y265661D01*
X495391D01*
Y265813D01*
X495543D01*
Y265966D01*
X495695D01*
Y266118D01*
X495848D01*
Y266271D01*
X496152D01*
Y266423D01*
X496305D01*
Y266575D01*
X496457D01*
Y266728D01*
X496762D01*
Y266880D01*
X496914D01*
Y267033D01*
X497371D01*
Y267185D01*
X497829D01*
Y267337D01*
X499352D01*
Y267185D01*
X499962D01*
Y267033D01*
X500267D01*
Y266880D01*
X500571D01*
Y266728D01*
X500724D01*
Y266575D01*
X501029D01*
Y266423D01*
X501181D01*
Y266271D01*
X501333D01*
Y266118D01*
X501486D01*
Y265966D01*
X501791D01*
Y265661D01*
X501943D01*
Y265509D01*
X502095D01*
Y265356D01*
X502248D01*
Y265052D01*
X502400D01*
Y264899D01*
X502552D01*
Y264747D01*
X502705D01*
Y264442D01*
X502857D01*
Y264137D01*
X503010D01*
Y263833D01*
X503162D01*
Y263528D01*
X503314D01*
Y263071D01*
X503467D01*
Y262614D01*
X503619D01*
Y262309D01*
X503771D01*
Y262004D01*
X503924D01*
Y261852D01*
X505752D01*
Y262004D01*
X507276D01*
Y262156D01*
X509257D01*
Y262309D01*
X511238D01*
Y262156D01*
X515048D01*
Y262004D01*
X516724D01*
Y261852D01*
X517791D01*
Y261699D01*
X518705D01*
Y261547D01*
X519467D01*
Y261395D01*
X520229D01*
Y261242D01*
X521905D01*
Y261395D01*
X522210D01*
Y261547D01*
X522514D01*
Y261699D01*
X522819D01*
Y261852D01*
X523124D01*
Y262004D01*
X523429D01*
Y262156D01*
X523733D01*
Y262309D01*
X524191D01*
Y262461D01*
X524648D01*
Y262614D01*
X525410D01*
Y262766D01*
X528305D01*
Y262614D01*
X528914D01*
Y262461D01*
X529371D01*
Y262309D01*
X529676D01*
Y262156D01*
X529981D01*
Y262004D01*
X530133D01*
Y261852D01*
X530438D01*
Y261699D01*
X530590D01*
Y261547D01*
X530895D01*
Y261395D01*
X531048D01*
Y261242D01*
X531200D01*
Y261090D01*
X531352D01*
Y260937D01*
X531505D01*
Y260785D01*
X531657D01*
Y260633D01*
X531810D01*
Y260328D01*
X531962D01*
Y260175D01*
X532114D01*
Y260023D01*
X532267D01*
Y259718D01*
X532419D01*
Y259566D01*
X532571D01*
Y259261D01*
X532724D01*
Y258956D01*
X532876D01*
Y258652D01*
X533029D01*
Y258347D01*
X533181D01*
Y257890D01*
X533333D01*
Y257433D01*
X533486D01*
Y256823D01*
X533638D01*
Y256061D01*
X533790D01*
Y254995D01*
X533943D01*
Y254537D01*
X534095D01*
Y254385D01*
X534248D01*
Y254233D01*
X534400D01*
Y254080D01*
X534552D01*
Y253928D01*
X534705D01*
Y253775D01*
X534857D01*
Y253623D01*
X535009D01*
Y253471D01*
X535162D01*
Y253318D01*
X535314D01*
Y253166D01*
X535467D01*
Y253013D01*
X535619D01*
Y252709D01*
X535771D01*
Y252556D01*
X535924D01*
Y252404D01*
X536076D01*
Y252099D01*
X536229D01*
Y251947D01*
X536381D01*
Y251795D01*
X536533D01*
Y251642D01*
X536686D01*
Y251337D01*
X536838D01*
Y251185D01*
X536990D01*
Y251033D01*
X537143D01*
Y250880D01*
X537295D01*
Y250575D01*
X537448D01*
Y250423D01*
X537600D01*
Y250271D01*
X537752D01*
Y250118D01*
X537905D01*
Y249966D01*
X538057D01*
Y249661D01*
X538209D01*
Y249509D01*
X538362D01*
Y249356D01*
X538514D01*
Y249204D01*
X538667D01*
Y249052D01*
X538819D01*
Y248899D01*
X538971D01*
Y248747D01*
X539124D01*
Y248594D01*
X539276D01*
Y248442D01*
X539429D01*
Y248290D01*
X539581D01*
Y248137D01*
X539733D01*
Y247985D01*
X539886D01*
Y247833D01*
X540038D01*
Y247680D01*
X540343D01*
Y247528D01*
X540495D01*
Y247375D01*
X540648D01*
Y247223D01*
X540800D01*
Y247071D01*
X540952D01*
Y246918D01*
X541257D01*
Y246766D01*
X541409D01*
Y246614D01*
X541714D01*
Y246461D01*
X541867D01*
Y246309D01*
X542171D01*
Y246156D01*
X542476D01*
Y246004D01*
X542781D01*
Y245852D01*
X543238D01*
Y245699D01*
X544000D01*
Y245547D01*
X545067D01*
Y245852D01*
X544914D01*
Y246156D01*
X544762D01*
Y246309D01*
X544609D01*
Y246461D01*
X544457D01*
Y246766D01*
X544305D01*
Y246918D01*
X544152D01*
Y247071D01*
X544000D01*
Y247375D01*
X543848D01*
Y247528D01*
X543695D01*
Y247680D01*
X543543D01*
Y247985D01*
X543391D01*
Y248137D01*
X543238D01*
Y248442D01*
X543086D01*
Y248594D01*
X542933D01*
Y248747D01*
X542781D01*
Y249052D01*
X542629D01*
Y249204D01*
X542476D01*
Y249356D01*
X542324D01*
Y249661D01*
X542171D01*
Y249814D01*
X542019D01*
Y249966D01*
X541867D01*
Y250271D01*
X541714D01*
Y250423D01*
X541562D01*
Y250575D01*
X541409D01*
Y250880D01*
X541257D01*
Y251033D01*
X541105D01*
Y251185D01*
X540952D01*
Y251490D01*
X540800D01*
Y251642D01*
X540648D01*
Y251795D01*
X540495D01*
Y252099D01*
X540343D01*
Y252252D01*
X540191D01*
Y252404D01*
X540038D01*
Y252709D01*
X539886D01*
Y252861D01*
X539733D01*
Y253013D01*
X539581D01*
Y253166D01*
X539429D01*
Y253471D01*
X539276D01*
Y253623D01*
X539124D01*
Y253775D01*
X538971D01*
Y253928D01*
X538819D01*
Y254233D01*
X538667D01*
Y254385D01*
X538514D01*
Y254537D01*
X538362D01*
Y254690D01*
X538209D01*
Y254995D01*
X538057D01*
Y255147D01*
X537905D01*
Y255299D01*
X537752D01*
Y255452D01*
X537600D01*
Y255604D01*
X537448D01*
Y255909D01*
X537295D01*
Y256061D01*
X537143D01*
Y256213D01*
X536990D01*
Y256366D01*
X536838D01*
Y256518D01*
X536686D01*
Y256671D01*
X536533D01*
Y256975D01*
X536381D01*
Y257128D01*
X536229D01*
Y257280D01*
X536076D01*
Y257433D01*
X535924D01*
Y257585D01*
X535771D01*
Y257737D01*
X535619D01*
Y258042D01*
X535467D01*
Y258194D01*
X535314D01*
Y258347D01*
X535162D01*
Y258499D01*
X535009D01*
Y258652D01*
X534857D01*
Y258804D01*
X534705D01*
Y258956D01*
X534552D01*
Y259109D01*
X534400D01*
Y259261D01*
X534248D01*
Y259566D01*
X534095D01*
Y259718D01*
X533943D01*
Y259871D01*
X533790D01*
Y260023D01*
X533638D01*
Y260175D01*
X533486D01*
Y260328D01*
X533333D01*
Y260480D01*
X533181D01*
Y260633D01*
X533029D01*
Y260785D01*
X532876D01*
Y260937D01*
X532724D01*
Y261090D01*
X532571D01*
Y261242D01*
X532419D01*
Y261395D01*
X532267D01*
Y261547D01*
X532114D01*
Y261699D01*
X531962D01*
Y261852D01*
X531810D01*
Y262004D01*
X531657D01*
Y262156D01*
X531505D01*
Y262309D01*
X531352D01*
Y262461D01*
X531200D01*
Y262614D01*
X531048D01*
Y262766D01*
X530895D01*
Y262918D01*
X530743D01*
Y263071D01*
X530590D01*
Y263223D01*
X530438D01*
Y263375D01*
X530286D01*
Y263528D01*
X529981D01*
Y263680D01*
X529829D01*
Y263833D01*
X529676D01*
Y263985D01*
X529524D01*
Y264137D01*
X529371D01*
Y264290D01*
X529067D01*
Y264442D01*
X528914D01*
Y264595D01*
X528762D01*
Y264747D01*
X528610D01*
Y264899D01*
X528457D01*
Y265052D01*
X528152D01*
Y265204D01*
X528000D01*
Y265356D01*
X527848D01*
Y265509D01*
X527695D01*
Y265661D01*
X527390D01*
Y265813D01*
X527238D01*
Y265966D01*
X527086D01*
Y266118D01*
X526933D01*
Y266271D01*
X526629D01*
Y266423D01*
X526476D01*
Y266575D01*
X526324D01*
Y266728D01*
X526171D01*
Y266880D01*
X525867D01*
Y267033D01*
X525714D01*
Y267185D01*
X525562D01*
Y267337D01*
X525410D01*
Y267490D01*
X525105D01*
Y267642D01*
X524952D01*
Y267794D01*
X524800D01*
Y267947D01*
X524495D01*
Y268099D01*
X524343D01*
Y268252D01*
X524191D01*
Y268404D01*
X523886D01*
Y268556D01*
X523733D01*
Y268709D01*
X523581D01*
Y268861D01*
X523276D01*
Y269014D01*
X523124D01*
Y269166D01*
X522971D01*
Y269318D01*
X522819D01*
Y269471D01*
X522514D01*
Y269623D01*
X522362D01*
Y269775D01*
X522057D01*
Y269928D01*
X521905D01*
Y270080D01*
X521600D01*
Y270233D01*
X521448D01*
Y270385D01*
X521143D01*
Y270537D01*
X520991D01*
Y270690D01*
X520838D01*
Y270842D01*
X520533D01*
Y270994D01*
X520381D01*
Y271147D01*
X520076D01*
Y271299D01*
X519771D01*
Y271452D01*
X519619D01*
Y271604D01*
X519314D01*
Y271756D01*
X519162D01*
Y271909D01*
X518857D01*
Y272061D01*
X518552D01*
Y272214D01*
X518248D01*
Y272366D01*
X518095D01*
Y272518D01*
X517791D01*
Y272671D01*
X517486D01*
Y272823D01*
X517181D01*
Y272975D01*
X516876D01*
Y273128D01*
X516724D01*
Y273280D01*
X516267D01*
Y273433D01*
X516114D01*
Y273585D01*
X515809D01*
Y273737D01*
X515505D01*
Y273890D01*
X515200D01*
Y274042D01*
X514895D01*
Y274195D01*
X514591D01*
Y274347D01*
X514286D01*
Y274499D01*
X513981D01*
Y274652D01*
X513676D01*
Y274804D01*
X513371D01*
Y274956D01*
X513067D01*
Y275109D01*
X512762D01*
Y275261D01*
X512457D01*
Y275413D01*
X512152D01*
Y275566D01*
X511848D01*
Y275718D01*
X511543D01*
Y275871D01*
X511238D01*
Y276023D01*
X510933D01*
Y276175D01*
X510629D01*
Y276328D01*
X510324D01*
Y276480D01*
X510019D01*
Y276633D01*
X509714D01*
Y276785D01*
X509410D01*
Y276937D01*
X509105D01*
Y277090D01*
X508800D01*
Y277242D01*
X508495D01*
Y277395D01*
X508038D01*
Y277547D01*
X507733D01*
Y277699D01*
X507429D01*
Y277852D01*
X507124D01*
Y278004D01*
X506667D01*
Y278156D01*
X506362D01*
Y278309D01*
X505905D01*
Y278461D01*
X505600D01*
Y278613D01*
X505143D01*
Y278766D01*
X504686D01*
Y278918D01*
X504381D01*
Y279071D01*
X503924D01*
Y279223D01*
X503467D01*
Y279375D01*
X503010D01*
Y279528D01*
X502552D01*
Y279680D01*
X502095D01*
Y279833D01*
X501638D01*
Y279985D01*
X501181D01*
Y280137D01*
X500724D01*
Y280290D01*
X500267D01*
Y280442D01*
X499810D01*
Y280594D01*
X499352D01*
Y280747D01*
X498895D01*
Y280899D01*
X498438D01*
Y281052D01*
X497676D01*
Y281204D01*
X497219D01*
Y281356D01*
X496305D01*
Y281509D01*
X495543D01*
Y281661D01*
X494324D01*
Y281814D01*
X493257D01*
Y281966D01*
X491886D01*
Y282118D01*
X490362D01*
Y282271D01*
D02*
G37*
G36*
X502705Y245852D02*
X502095D01*
Y245699D01*
X501791D01*
Y245394D01*
X501638D01*
Y245242D01*
X501486D01*
Y244937D01*
X501333D01*
Y244633D01*
X501181D01*
Y244480D01*
Y244328D01*
Y244175D01*
X501333D01*
Y243718D01*
X501486D01*
Y243261D01*
X501638D01*
Y242956D01*
X501791D01*
Y242804D01*
X502552D01*
Y242956D01*
X502857D01*
Y243109D01*
X503010D01*
Y243261D01*
X503162D01*
Y243718D01*
X503314D01*
Y244937D01*
X503162D01*
Y245394D01*
X503010D01*
Y245547D01*
X502857D01*
Y245699D01*
X502705D01*
Y245852D01*
D02*
G37*
G36*
X551010Y236709D02*
X550857D01*
Y236556D01*
X550705D01*
Y236404D01*
X550552D01*
Y236252D01*
X550400D01*
Y235947D01*
X550248D01*
Y235642D01*
X550095D01*
Y235337D01*
X549943D01*
Y235185D01*
X549790D01*
Y235033D01*
X549638D01*
Y234728D01*
X549486D01*
Y234575D01*
X549333D01*
Y234423D01*
X549181D01*
Y234271D01*
X549029D01*
Y234118D01*
X548876D01*
Y233966D01*
X548724D01*
Y233814D01*
X548571D01*
Y233661D01*
X548419D01*
Y233509D01*
X548267D01*
Y233356D01*
X548114D01*
Y233204D01*
X547810D01*
Y233052D01*
X547657D01*
Y232899D01*
X547505D01*
Y232747D01*
X547352D01*
Y232594D01*
X547200D01*
Y232442D01*
X546895D01*
Y232290D01*
X546743D01*
Y232137D01*
X546438D01*
Y231985D01*
X546133D01*
Y231833D01*
X545981D01*
Y231680D01*
X545676D01*
Y231528D01*
X545219D01*
Y231375D01*
X544762D01*
Y231223D01*
X544152D01*
Y231071D01*
X542324D01*
Y231223D01*
X541409D01*
Y231375D01*
X540648D01*
Y231528D01*
X539581D01*
Y231375D01*
X538971D01*
Y231223D01*
X538514D01*
Y231071D01*
X538057D01*
Y230918D01*
X537752D01*
Y230766D01*
X537448D01*
Y230613D01*
X537295D01*
Y230461D01*
X537143D01*
Y230309D01*
X536990D01*
Y230156D01*
X536838D01*
Y230004D01*
X536686D01*
Y229852D01*
X536533D01*
Y229547D01*
X536381D01*
Y229242D01*
X536229D01*
Y228937D01*
X536076D01*
Y228328D01*
X535924D01*
Y227109D01*
X536076D01*
Y226804D01*
X536229D01*
Y226499D01*
X536381D01*
Y226347D01*
X536533D01*
Y226195D01*
X536686D01*
Y226042D01*
X536838D01*
Y225890D01*
X536990D01*
Y225737D01*
X537143D01*
Y225585D01*
X537295D01*
Y225433D01*
X537448D01*
Y225280D01*
X537752D01*
Y225128D01*
X537905D01*
Y224975D01*
X538057D01*
Y224823D01*
X538362D01*
Y224671D01*
X538514D01*
Y224518D01*
X538667D01*
Y224366D01*
X538819D01*
Y224214D01*
X538971D01*
Y224061D01*
X539124D01*
Y223756D01*
X539276D01*
Y222842D01*
X539124D01*
Y222690D01*
X538971D01*
Y222385D01*
X538667D01*
Y222233D01*
X538514D01*
Y222080D01*
X538209D01*
Y221928D01*
X537905D01*
Y221775D01*
X537752D01*
Y221623D01*
X537600D01*
Y221471D01*
X537448D01*
Y221318D01*
X537295D01*
Y221013D01*
X537143D01*
Y220861D01*
X536990D01*
Y220556D01*
X536838D01*
Y220252D01*
X536686D01*
Y219795D01*
X536533D01*
Y219185D01*
X536381D01*
Y218118D01*
X536533D01*
Y217509D01*
X536686D01*
Y217204D01*
X536838D01*
Y216899D01*
X536990D01*
Y216747D01*
X537143D01*
Y216442D01*
X537295D01*
Y216290D01*
X537448D01*
Y216137D01*
X537600D01*
Y215985D01*
X537752D01*
Y215833D01*
X537905D01*
Y215680D01*
X538057D01*
Y215528D01*
X538362D01*
Y215375D01*
X538667D01*
Y215223D01*
X538971D01*
Y215071D01*
X539886D01*
Y214918D01*
X540952D01*
Y215071D01*
X542171D01*
Y215223D01*
X542629D01*
Y215375D01*
X542933D01*
Y215528D01*
X543238D01*
Y215680D01*
X543391D01*
Y215833D01*
X543543D01*
Y215985D01*
X543695D01*
Y216137D01*
X544000D01*
Y216290D01*
X544152D01*
Y216442D01*
X544305D01*
Y216747D01*
X544457D01*
Y216899D01*
X544609D01*
Y217204D01*
X544762D01*
Y217509D01*
X544914D01*
Y217966D01*
X545067D01*
Y218728D01*
X545219D01*
Y219185D01*
X545371D01*
Y219490D01*
X545524D01*
Y219642D01*
X545676D01*
Y219947D01*
X545829D01*
Y220252D01*
X545981D01*
Y220556D01*
X546133D01*
Y220709D01*
X546286D01*
Y221013D01*
X546438D01*
Y221318D01*
X546591D01*
Y221623D01*
X546743D01*
Y221775D01*
X546895D01*
Y222080D01*
X547048D01*
Y222233D01*
X547200D01*
Y222385D01*
X547352D01*
Y222537D01*
X547505D01*
Y222690D01*
X547657D01*
Y222842D01*
X547810D01*
Y222994D01*
X547962D01*
Y223147D01*
X548114D01*
Y223299D01*
X548267D01*
Y223452D01*
X548419D01*
Y223756D01*
X548571D01*
Y223909D01*
X548724D01*
Y224061D01*
X548876D01*
Y224214D01*
X549029D01*
Y224366D01*
X549181D01*
Y224518D01*
X549333D01*
Y224823D01*
X549486D01*
Y224975D01*
X549638D01*
Y225128D01*
X549790D01*
Y225280D01*
X549943D01*
Y225585D01*
X550095D01*
Y225737D01*
X550248D01*
Y225890D01*
X550400D01*
Y226042D01*
X550552D01*
Y226195D01*
X550705D01*
Y226347D01*
X550857D01*
Y226652D01*
X551010D01*
Y226804D01*
X551162D01*
Y226956D01*
X551314D01*
Y227109D01*
X551467D01*
Y227261D01*
X551619D01*
Y227414D01*
X551771D01*
Y227566D01*
X551924D01*
Y227718D01*
X552076D01*
Y227871D01*
X552229D01*
Y228023D01*
X552381D01*
Y228175D01*
X552533D01*
Y228328D01*
X552686D01*
Y228480D01*
X552838D01*
Y228633D01*
X552990D01*
Y228785D01*
X553143D01*
Y228937D01*
X553295D01*
Y229090D01*
X553448D01*
Y229242D01*
X553600D01*
Y229395D01*
X553752D01*
Y229699D01*
X553905D01*
Y229852D01*
X554057D01*
Y230309D01*
X553905D01*
Y230766D01*
X553752D01*
Y231071D01*
X553600D01*
Y231223D01*
X553448D01*
Y231680D01*
X553295D01*
Y231985D01*
X553143D01*
Y232290D01*
X552990D01*
Y232442D01*
X552838D01*
Y232747D01*
X552686D01*
Y233052D01*
X552533D01*
Y233356D01*
X552381D01*
Y233661D01*
X552229D01*
Y233966D01*
X552076D01*
Y234423D01*
X551924D01*
Y234880D01*
X551771D01*
Y235337D01*
X551619D01*
Y235947D01*
X551467D01*
Y236252D01*
X551314D01*
Y236556D01*
X551010D01*
Y236709D01*
D02*
G37*
G36*
X522514Y304518D02*
X518552D01*
Y304366D01*
X517333D01*
Y304214D01*
X516419D01*
Y304061D01*
X515505D01*
Y303909D01*
X514743D01*
Y303756D01*
X514286D01*
Y303604D01*
X513676D01*
Y303452D01*
X513219D01*
Y303299D01*
X512762D01*
Y303147D01*
X512457D01*
Y302994D01*
X512000D01*
Y302842D01*
X511695D01*
Y302690D01*
X511390D01*
Y302537D01*
X510933D01*
Y302385D01*
X510629D01*
Y302233D01*
X510324D01*
Y302080D01*
X510019D01*
Y301928D01*
X509714D01*
Y301775D01*
X509410D01*
Y301623D01*
X509257D01*
Y301471D01*
X508952D01*
Y301318D01*
X508648D01*
Y301166D01*
X508495D01*
Y301013D01*
X508190D01*
Y300861D01*
X507886D01*
Y300709D01*
X507733D01*
Y300556D01*
X507429D01*
Y300404D01*
X507276D01*
Y300252D01*
X507124D01*
Y300099D01*
X506819D01*
Y299947D01*
X506667D01*
Y299795D01*
X506514D01*
Y299642D01*
X506210D01*
Y299490D01*
X506057D01*
Y299337D01*
X505905D01*
Y299185D01*
X505752D01*
Y299033D01*
X505600D01*
Y298880D01*
X505295D01*
Y298728D01*
X505143D01*
Y298575D01*
X504990D01*
Y298423D01*
X504838D01*
Y298271D01*
X504686D01*
Y298118D01*
X504533D01*
Y297966D01*
X504381D01*
Y297814D01*
X504229D01*
Y297661D01*
X504076D01*
Y297509D01*
X503924D01*
Y297356D01*
X503771D01*
Y297204D01*
X503619D01*
Y297052D01*
X503467D01*
Y296899D01*
X503314D01*
Y296747D01*
X503162D01*
Y296595D01*
X503010D01*
Y296442D01*
X502857D01*
Y296290D01*
X502705D01*
Y295985D01*
X502552D01*
Y295833D01*
X502400D01*
Y295680D01*
X502248D01*
Y295528D01*
X502095D01*
Y295375D01*
X501943D01*
Y295223D01*
X501791D01*
Y294918D01*
X501638D01*
Y294766D01*
X501486D01*
Y294614D01*
X501333D01*
Y294461D01*
X501181D01*
Y294309D01*
X501029D01*
Y294156D01*
X500876D01*
Y293852D01*
X500724D01*
Y293699D01*
X500571D01*
Y293547D01*
X500419D01*
Y293242D01*
X500267D01*
Y293090D01*
X500114D01*
Y292937D01*
X499962D01*
Y292785D01*
X499810D01*
Y292480D01*
X499657D01*
Y292328D01*
X499505D01*
Y292023D01*
X499352D01*
Y291871D01*
X499200D01*
Y291566D01*
X499048D01*
Y291413D01*
X498895D01*
Y291109D01*
X498743D01*
Y290804D01*
X498591D01*
Y290499D01*
X498438D01*
Y290195D01*
X498286D01*
Y289890D01*
X498133D01*
Y289585D01*
X497981D01*
Y289280D01*
X497829D01*
Y288975D01*
X497676D01*
Y288518D01*
X497524D01*
Y288213D01*
X497371D01*
Y287756D01*
X497219D01*
Y287299D01*
X497067D01*
Y286842D01*
X496914D01*
Y286385D01*
X496762D01*
Y285775D01*
X496609D01*
Y285318D01*
X496457D01*
Y284709D01*
X496305D01*
Y283794D01*
X496457D01*
Y283642D01*
X496762D01*
Y283490D01*
X497371D01*
Y283337D01*
X498133D01*
Y283185D01*
X498743D01*
Y283033D01*
X499352D01*
Y282880D01*
X499962D01*
Y282728D01*
X500419D01*
Y282880D01*
X500571D01*
Y283033D01*
X500724D01*
Y283337D01*
X500876D01*
Y283642D01*
X501029D01*
Y284099D01*
X501181D01*
Y284556D01*
X501333D01*
Y284861D01*
X501486D01*
Y285166D01*
X501638D01*
Y285623D01*
X501791D01*
Y285928D01*
X501943D01*
Y286233D01*
X502095D01*
Y286537D01*
X502248D01*
Y286690D01*
X502400D01*
Y286995D01*
X502552D01*
Y287147D01*
X502705D01*
Y287452D01*
X502857D01*
Y287604D01*
X503010D01*
Y287909D01*
X503162D01*
Y288061D01*
X503314D01*
Y288213D01*
X503467D01*
Y288518D01*
X503619D01*
Y288671D01*
X503771D01*
Y288823D01*
X503924D01*
Y288975D01*
X504076D01*
Y289128D01*
X504229D01*
Y289280D01*
X504381D01*
Y289433D01*
X504533D01*
Y289585D01*
X504686D01*
Y289737D01*
X504838D01*
Y290042D01*
X505143D01*
Y290347D01*
X505295D01*
Y290499D01*
X505600D01*
Y290804D01*
X505905D01*
Y290956D01*
X506057D01*
Y291109D01*
X506210D01*
Y291261D01*
X506362D01*
Y291413D01*
X506514D01*
Y291566D01*
X506667D01*
Y291718D01*
X506971D01*
Y291871D01*
X507124D01*
Y292023D01*
X507276D01*
Y292175D01*
X507581D01*
Y292328D01*
X507733D01*
Y292480D01*
X508038D01*
Y292633D01*
X508343D01*
Y292785D01*
X508495D01*
Y292937D01*
X508800D01*
Y293090D01*
X509105D01*
Y293242D01*
X509562D01*
Y293394D01*
X509867D01*
Y293547D01*
X510171D01*
Y293699D01*
X510629D01*
Y293852D01*
X510933D01*
Y294004D01*
X511390D01*
Y294156D01*
X511848D01*
Y294309D01*
X512457D01*
Y294461D01*
X513067D01*
Y294614D01*
X513829D01*
Y294766D01*
X515048D01*
Y294918D01*
X517638D01*
Y294766D01*
X519009D01*
Y294614D01*
X519924D01*
Y294461D01*
X520533D01*
Y294309D01*
X521143D01*
Y294156D01*
X521600D01*
Y294004D01*
X522057D01*
Y293852D01*
X522514D01*
Y293699D01*
X522971D01*
Y293547D01*
X523276D01*
Y293394D01*
X523581D01*
Y293242D01*
X523886D01*
Y293090D01*
X524343D01*
Y292937D01*
X524495D01*
Y292785D01*
X524800D01*
Y292633D01*
X525105D01*
Y292480D01*
X525410D01*
Y292328D01*
X525562D01*
Y292175D01*
X525867D01*
Y292023D01*
X526019D01*
Y291871D01*
X526324D01*
Y291718D01*
X526476D01*
Y291566D01*
X526629D01*
Y291413D01*
X526933D01*
Y291261D01*
X527086D01*
Y291109D01*
X527238D01*
Y290956D01*
X527390D01*
Y290804D01*
X527543D01*
Y290652D01*
X527695D01*
Y290499D01*
X527848D01*
Y290347D01*
X528000D01*
Y290195D01*
X528152D01*
Y290042D01*
X528305D01*
Y289890D01*
X528457D01*
Y289737D01*
X528610D01*
Y289585D01*
X528762D01*
Y289433D01*
X528914D01*
Y289280D01*
X529067D01*
Y289128D01*
X529219D01*
Y288975D01*
X529371D01*
Y288823D01*
X529524D01*
Y288518D01*
X529676D01*
Y288366D01*
X529829D01*
Y288213D01*
X529981D01*
Y287909D01*
X530133D01*
Y287756D01*
X530286D01*
Y287604D01*
X530438D01*
Y287299D01*
X530590D01*
Y287147D01*
X530743D01*
Y286842D01*
X530895D01*
Y286690D01*
X531048D01*
Y286385D01*
X531200D01*
Y286080D01*
X531352D01*
Y285928D01*
X531505D01*
Y285623D01*
X531657D01*
Y285318D01*
X531810D01*
Y285014D01*
X531962D01*
Y284709D01*
X532114D01*
Y284252D01*
X532267D01*
Y283947D01*
X532419D01*
Y283490D01*
X532571D01*
Y283033D01*
X532724D01*
Y282575D01*
X532876D01*
Y282118D01*
X533029D01*
Y281509D01*
X533181D01*
Y280594D01*
X533333D01*
Y279071D01*
X533486D01*
Y274804D01*
X533333D01*
Y273890D01*
X533181D01*
Y273280D01*
X533029D01*
Y272823D01*
X532876D01*
Y272366D01*
X532724D01*
Y271909D01*
X532571D01*
Y271452D01*
X532419D01*
Y271147D01*
X532267D01*
Y270690D01*
X532114D01*
Y270385D01*
X531962D01*
Y270080D01*
X531810D01*
Y269623D01*
X531657D01*
Y269318D01*
X531505D01*
Y269014D01*
X531352D01*
Y268556D01*
X531200D01*
Y268252D01*
X531048D01*
Y267947D01*
X530895D01*
Y267642D01*
X530743D01*
Y267185D01*
X530895D01*
Y267033D01*
X531048D01*
Y266880D01*
X531200D01*
Y266728D01*
X531352D01*
Y266575D01*
X531505D01*
Y266423D01*
X531810D01*
Y266271D01*
X531962D01*
Y266118D01*
X532114D01*
Y265966D01*
X532267D01*
Y265813D01*
X532419D01*
Y265661D01*
X532571D01*
Y265509D01*
X532724D01*
Y265356D01*
X532876D01*
Y265204D01*
X533181D01*
Y265052D01*
X533333D01*
Y264899D01*
X533486D01*
Y264747D01*
X533638D01*
Y264595D01*
X533790D01*
Y264442D01*
X533943D01*
Y264290D01*
X534095D01*
Y264137D01*
X534248D01*
Y263985D01*
X534552D01*
Y263833D01*
X534705D01*
Y263680D01*
X534857D01*
Y263528D01*
X535009D01*
Y263375D01*
X535162D01*
Y263223D01*
X535314D01*
Y263071D01*
X535467D01*
Y262918D01*
X535619D01*
Y262766D01*
X535771D01*
Y262614D01*
X535924D01*
Y262461D01*
X536076D01*
Y262309D01*
X536229D01*
Y262156D01*
X536381D01*
Y262004D01*
X536533D01*
Y261852D01*
X536686D01*
Y261699D01*
X536838D01*
Y261547D01*
X536990D01*
Y261395D01*
X537143D01*
Y261242D01*
X537295D01*
Y261090D01*
X537448D01*
Y260937D01*
X537600D01*
Y260785D01*
X537752D01*
Y260633D01*
X537905D01*
Y260480D01*
X538057D01*
Y260328D01*
X538209D01*
Y260175D01*
X538362D01*
Y260023D01*
X538514D01*
Y259718D01*
X538667D01*
Y259566D01*
X538819D01*
Y259414D01*
X538971D01*
Y259261D01*
X539124D01*
Y259109D01*
X539276D01*
Y258956D01*
X539429D01*
Y258804D01*
X539581D01*
Y258652D01*
X539733D01*
Y258347D01*
X539886D01*
Y258194D01*
X540038D01*
Y258042D01*
X540191D01*
Y257890D01*
X540343D01*
Y257737D01*
X540495D01*
Y257585D01*
X540648D01*
Y257280D01*
X540800D01*
Y257128D01*
X540952D01*
Y256975D01*
X541105D01*
Y256823D01*
X541257D01*
Y256671D01*
X541409D01*
Y256518D01*
X541562D01*
Y256366D01*
X541714D01*
Y256061D01*
X541867D01*
Y255909D01*
X542019D01*
Y255756D01*
X542171D01*
Y255604D01*
X542324D01*
Y255299D01*
X542476D01*
Y255147D01*
X542629D01*
Y254995D01*
X542781D01*
Y254842D01*
X542933D01*
Y254537D01*
X543086D01*
Y254385D01*
X543238D01*
Y254233D01*
X543391D01*
Y253928D01*
X543543D01*
Y253775D01*
X543695D01*
Y253623D01*
X543848D01*
Y253318D01*
X544000D01*
Y253166D01*
X544152D01*
Y253013D01*
X544305D01*
Y252709D01*
X544457D01*
Y252556D01*
X544609D01*
Y252404D01*
X544762D01*
Y252099D01*
X544914D01*
Y251947D01*
X545067D01*
Y251642D01*
X545219D01*
Y251490D01*
X545371D01*
Y251337D01*
X545524D01*
Y251033D01*
X545676D01*
Y250880D01*
X545829D01*
Y250728D01*
X545981D01*
Y250423D01*
X546133D01*
Y250271D01*
X546286D01*
Y249966D01*
X546438D01*
Y249814D01*
X546591D01*
Y249509D01*
X546743D01*
Y249356D01*
X546895D01*
Y249204D01*
X547048D01*
Y249052D01*
X547200D01*
Y248747D01*
X547352D01*
Y248594D01*
X547505D01*
Y248290D01*
X547657D01*
Y248137D01*
X547810D01*
Y247985D01*
X547962D01*
Y247680D01*
X548114D01*
Y247528D01*
X548267D01*
Y247375D01*
X548419D01*
Y247071D01*
X548571D01*
Y246918D01*
X548724D01*
Y246614D01*
X548876D01*
Y246461D01*
X549029D01*
Y246309D01*
X549181D01*
Y246004D01*
X549333D01*
Y245852D01*
X549486D01*
Y245699D01*
X549638D01*
Y245394D01*
X549790D01*
Y245242D01*
X549943D01*
Y245090D01*
X550095D01*
Y244785D01*
X550248D01*
Y244480D01*
X550400D01*
Y244328D01*
X550552D01*
Y244023D01*
X550705D01*
Y243871D01*
X550857D01*
Y243566D01*
X551010D01*
Y243413D01*
X551162D01*
Y243109D01*
X551314D01*
Y242956D01*
X551467D01*
Y242652D01*
X551619D01*
Y242347D01*
X551771D01*
Y242195D01*
X551924D01*
Y241890D01*
X552076D01*
Y241585D01*
X552229D01*
Y241433D01*
X552381D01*
Y241128D01*
X552533D01*
Y240671D01*
X552686D01*
Y240366D01*
X552838D01*
Y240061D01*
X552990D01*
Y239756D01*
X553143D01*
Y239452D01*
X553295D01*
Y239147D01*
X553448D01*
Y238842D01*
X553600D01*
Y238385D01*
X553752D01*
Y238080D01*
X553905D01*
Y237623D01*
X554057D01*
Y237318D01*
X554210D01*
Y236861D01*
X554362D01*
Y236404D01*
X554514D01*
Y235947D01*
X554667D01*
Y235490D01*
X554819D01*
Y235185D01*
X554971D01*
Y234575D01*
X555124D01*
Y234118D01*
X555276D01*
Y233509D01*
X555429D01*
Y232899D01*
X555581D01*
Y232290D01*
X555733D01*
Y231833D01*
X555886D01*
Y231680D01*
X556038D01*
Y231528D01*
X556190D01*
Y231375D01*
X556800D01*
Y231223D01*
X557714D01*
Y231071D01*
X558933D01*
Y230918D01*
X560000D01*
Y230766D01*
X560914D01*
Y230613D01*
X561676D01*
Y230461D01*
X562133D01*
Y230309D01*
X562743D01*
Y230156D01*
X563048D01*
Y230004D01*
X563505D01*
Y229852D01*
X563962D01*
Y229699D01*
X564267D01*
Y229547D01*
X564724D01*
Y229395D01*
X565029D01*
Y229242D01*
X565333D01*
Y229090D01*
X565486D01*
Y228937D01*
X565791D01*
Y228785D01*
X566095D01*
Y228633D01*
X566248D01*
Y228480D01*
X566552D01*
Y228328D01*
X566705D01*
Y228175D01*
X567009D01*
Y228023D01*
X567162D01*
Y227871D01*
X567467D01*
Y227718D01*
X567619D01*
Y227566D01*
X567771D01*
Y227414D01*
X567924D01*
Y227261D01*
X568076D01*
Y227109D01*
X568229D01*
Y226956D01*
X568533D01*
Y226652D01*
X568686D01*
Y226499D01*
X568838D01*
Y226347D01*
X568991D01*
Y226195D01*
X569143D01*
Y226042D01*
X569295D01*
Y225890D01*
X569448D01*
Y225585D01*
X569600D01*
Y225433D01*
X569752D01*
Y225128D01*
X569905D01*
Y224975D01*
X570057D01*
Y224671D01*
X570210D01*
Y224366D01*
X570362D01*
Y224214D01*
X570514D01*
Y223909D01*
X570667D01*
Y223604D01*
X570819D01*
Y223299D01*
X570971D01*
Y222994D01*
X571124D01*
Y222690D01*
X571276D01*
Y222233D01*
X571429D01*
Y221928D01*
X571581D01*
Y221471D01*
X571733D01*
Y221166D01*
X572038D01*
Y221318D01*
X572343D01*
Y221471D01*
X572648D01*
Y221623D01*
X572800D01*
Y221775D01*
X573105D01*
Y221928D01*
X573410D01*
Y222080D01*
X573562D01*
Y222233D01*
X573867D01*
Y222385D01*
X574019D01*
Y222537D01*
X574324D01*
Y222690D01*
X574476D01*
Y222842D01*
X574629D01*
Y222994D01*
X574781D01*
Y223147D01*
X574933D01*
Y223299D01*
X575086D01*
Y223452D01*
X575238D01*
Y223604D01*
X575543D01*
Y223756D01*
X575695D01*
Y224061D01*
X575848D01*
Y224214D01*
X576000D01*
Y224366D01*
X576152D01*
Y224518D01*
X576305D01*
Y224671D01*
X576457D01*
Y224823D01*
X576610D01*
Y224975D01*
X576762D01*
Y225280D01*
X576914D01*
Y225433D01*
X577067D01*
Y225585D01*
X577219D01*
Y225890D01*
X577371D01*
Y226042D01*
X577524D01*
Y226347D01*
X577676D01*
Y226499D01*
X577829D01*
Y226804D01*
X577981D01*
Y227109D01*
X578133D01*
Y227414D01*
X578286D01*
Y227718D01*
X578438D01*
Y227871D01*
Y228023D01*
X578590D01*
Y228328D01*
X578743D01*
Y228785D01*
X578895D01*
Y229242D01*
X579048D01*
Y229699D01*
X579200D01*
Y230156D01*
X579352D01*
Y230766D01*
X579505D01*
Y231680D01*
X579657D01*
Y233052D01*
X579810D01*
Y234728D01*
X579657D01*
Y236404D01*
X579505D01*
Y237166D01*
X579352D01*
Y237775D01*
X579200D01*
Y238385D01*
X579048D01*
Y238842D01*
X578895D01*
Y239147D01*
X578743D01*
Y239452D01*
X578590D01*
Y239909D01*
X578438D01*
Y240213D01*
X578286D01*
Y240518D01*
X578133D01*
Y240823D01*
X577981D01*
Y240975D01*
X577829D01*
Y241280D01*
X577676D01*
Y241585D01*
X577524D01*
Y241737D01*
X577371D01*
Y242042D01*
X577219D01*
Y242195D01*
X577067D01*
Y242499D01*
X576914D01*
Y242652D01*
X576762D01*
Y242804D01*
X576610D01*
Y242956D01*
X576457D01*
Y243261D01*
X576305D01*
Y243413D01*
X576152D01*
Y243566D01*
X576000D01*
Y243718D01*
X575848D01*
Y243871D01*
X575695D01*
Y244023D01*
X575543D01*
Y244175D01*
X575390D01*
Y244328D01*
X575238D01*
Y244480D01*
X575086D01*
Y244633D01*
X574933D01*
Y244785D01*
X574629D01*
Y244937D01*
X574476D01*
Y245090D01*
X574324D01*
Y245242D01*
X574171D01*
Y245394D01*
X573867D01*
Y245547D01*
X573714D01*
Y245699D01*
X573562D01*
Y245852D01*
X573257D01*
Y246004D01*
X572952D01*
Y246156D01*
X572648D01*
Y246309D01*
X572495D01*
Y246461D01*
X572191D01*
Y246614D01*
X571886D01*
Y246766D01*
X571581D01*
Y246918D01*
X571124D01*
Y247071D01*
X570819D01*
Y247223D01*
X570362D01*
Y247375D01*
X569905D01*
Y247528D01*
X569448D01*
Y247680D01*
X568686D01*
Y247833D01*
X568533D01*
Y247680D01*
X568381D01*
Y247528D01*
X568229D01*
Y246004D01*
X568076D01*
Y245242D01*
X567924D01*
Y244633D01*
X567771D01*
Y243871D01*
X567619D01*
Y242956D01*
X567467D01*
Y242652D01*
X567314D01*
Y242499D01*
X567162D01*
Y242347D01*
X566857D01*
Y242195D01*
X566705D01*
Y242042D01*
X565486D01*
Y242195D01*
X565181D01*
Y242347D01*
X565029D01*
Y242804D01*
X564876D01*
Y243566D01*
X565029D01*
Y244175D01*
X565181D01*
Y244937D01*
X565333D01*
Y245699D01*
X565486D01*
Y246918D01*
X565638D01*
Y248747D01*
X565791D01*
Y251490D01*
X565638D01*
Y253471D01*
X565486D01*
Y254690D01*
X565333D01*
Y255604D01*
X565181D01*
Y256518D01*
X565029D01*
Y257280D01*
X564876D01*
Y258042D01*
X564724D01*
Y258652D01*
X564571D01*
Y259261D01*
X564419D01*
Y259871D01*
X564267D01*
Y260480D01*
X564114D01*
Y260937D01*
X563962D01*
Y261395D01*
X563809D01*
Y262004D01*
X563657D01*
Y262461D01*
X563505D01*
Y263071D01*
X563352D01*
Y263528D01*
X563200D01*
Y264137D01*
X563048D01*
Y264747D01*
X562895D01*
Y265052D01*
X562743D01*
Y265509D01*
X562591D01*
Y265813D01*
X562438D01*
Y266271D01*
X562286D01*
Y266575D01*
X562133D01*
Y266880D01*
X561981D01*
Y267337D01*
X561829D01*
Y267642D01*
X561676D01*
Y267947D01*
X561524D01*
Y268404D01*
X561371D01*
Y268709D01*
X561219D01*
Y269014D01*
X561067D01*
Y269318D01*
X560914D01*
Y269775D01*
X560762D01*
Y270080D01*
X560609D01*
Y270385D01*
X560457D01*
Y270690D01*
X560305D01*
Y270994D01*
X560152D01*
Y271299D01*
X560000D01*
Y271604D01*
X559848D01*
Y272061D01*
X559695D01*
Y272366D01*
X559543D01*
Y272518D01*
X559390D01*
Y272975D01*
X559238D01*
Y273128D01*
X559086D01*
Y273433D01*
X558933D01*
Y273737D01*
X558781D01*
Y274042D01*
X558629D01*
Y274347D01*
X558476D01*
Y274499D01*
X558324D01*
Y274804D01*
X558171D01*
Y275109D01*
X558019D01*
Y275413D01*
X557867D01*
Y275566D01*
X557714D01*
Y275871D01*
X557562D01*
Y276175D01*
X557409D01*
Y276480D01*
X557257D01*
Y276633D01*
X557105D01*
Y276937D01*
X556952D01*
Y277090D01*
X556800D01*
Y277395D01*
X556648D01*
Y277699D01*
X556495D01*
Y277852D01*
X556343D01*
Y278156D01*
X556190D01*
Y278309D01*
X556038D01*
Y278613D01*
X555886D01*
Y278766D01*
X555733D01*
Y279071D01*
X555581D01*
Y279223D01*
X555429D01*
Y279528D01*
X555276D01*
Y279680D01*
X555124D01*
Y279985D01*
X554971D01*
Y280137D01*
X554819D01*
Y280442D01*
X554667D01*
Y280594D01*
X554514D01*
Y280899D01*
X554362D01*
Y281204D01*
X554210D01*
Y281356D01*
X554057D01*
Y281509D01*
X553905D01*
Y281814D01*
X553752D01*
Y281966D01*
X553600D01*
Y282118D01*
X553448D01*
Y282423D01*
X553295D01*
Y282728D01*
X553143D01*
Y282880D01*
X552990D01*
Y283033D01*
X552838D01*
Y283185D01*
X552686D01*
Y283490D01*
X552533D01*
Y283642D01*
X552381D01*
Y283794D01*
X552229D01*
Y284099D01*
X552076D01*
Y284252D01*
X551924D01*
Y284556D01*
X551771D01*
Y284709D01*
X551619D01*
Y284861D01*
X551467D01*
Y285014D01*
X551314D01*
Y285318D01*
X551162D01*
Y285471D01*
X551010D01*
Y285623D01*
X550857D01*
Y285928D01*
X550705D01*
Y286080D01*
X550552D01*
Y286233D01*
X550400D01*
Y286537D01*
X550248D01*
Y286690D01*
X550095D01*
Y286842D01*
X549943D01*
Y286995D01*
X549790D01*
Y287147D01*
X549638D01*
Y287452D01*
X549486D01*
Y287604D01*
X549333D01*
Y287756D01*
X549181D01*
Y288061D01*
X549029D01*
Y288213D01*
X548876D01*
Y288366D01*
X548724D01*
Y288518D01*
X548571D01*
Y288671D01*
X548419D01*
Y288975D01*
X548267D01*
Y289128D01*
X548114D01*
Y289280D01*
X547962D01*
Y289433D01*
X547810D01*
Y289585D01*
X547657D01*
Y289890D01*
X547505D01*
Y290042D01*
X547352D01*
Y290195D01*
X547200D01*
Y290347D01*
X547048D01*
Y290499D01*
X546895D01*
Y290652D01*
X546743D01*
Y290956D01*
X546591D01*
Y291109D01*
X546438D01*
Y291261D01*
X546286D01*
Y291413D01*
X546133D01*
Y291566D01*
X545981D01*
Y291718D01*
X545829D01*
Y291871D01*
X545676D01*
Y292023D01*
X545524D01*
Y292175D01*
X545371D01*
Y292328D01*
X545219D01*
Y292480D01*
X545067D01*
Y292633D01*
X544914D01*
Y292937D01*
X544762D01*
Y293090D01*
X544609D01*
Y293242D01*
X544305D01*
Y293547D01*
X544000D01*
Y293699D01*
X543848D01*
Y293852D01*
X543695D01*
Y294004D01*
X543543D01*
Y294156D01*
X543391D01*
Y294309D01*
X543238D01*
Y294461D01*
X543086D01*
Y294614D01*
X542933D01*
Y294766D01*
X542629D01*
Y294918D01*
X542476D01*
Y295071D01*
X542324D01*
Y295223D01*
X542171D01*
Y295375D01*
X542019D01*
Y295528D01*
X541714D01*
Y295680D01*
X541562D01*
Y295833D01*
X541409D01*
Y295985D01*
X541257D01*
Y296137D01*
X540952D01*
Y296290D01*
X540800D01*
Y296442D01*
X540648D01*
Y296595D01*
X540343D01*
Y296747D01*
X540191D01*
Y296899D01*
X540038D01*
Y297052D01*
X539886D01*
Y297204D01*
X539581D01*
Y297356D01*
X539429D01*
Y297509D01*
X539276D01*
Y297661D01*
X539124D01*
Y297814D01*
X538819D01*
Y297966D01*
X538667D01*
Y298118D01*
X538514D01*
Y298271D01*
X538209D01*
Y298423D01*
X538057D01*
Y298575D01*
X537905D01*
Y298728D01*
X537600D01*
Y298880D01*
X537448D01*
Y299033D01*
X537143D01*
Y299185D01*
X536990D01*
Y299337D01*
X536686D01*
Y299490D01*
X536533D01*
Y299642D01*
X536229D01*
Y299795D01*
X535924D01*
Y299947D01*
X535771D01*
Y300099D01*
X535467D01*
Y300252D01*
X535314D01*
Y300404D01*
X535009D01*
Y300556D01*
X534705D01*
Y300709D01*
X534400D01*
Y300861D01*
X534095D01*
Y301013D01*
X533790D01*
Y301166D01*
X533486D01*
Y301318D01*
X533181D01*
Y301471D01*
X532876D01*
Y301623D01*
X532571D01*
Y301775D01*
X532267D01*
Y301928D01*
X531962D01*
Y302080D01*
X531505D01*
Y302233D01*
X531200D01*
Y302385D01*
X530743D01*
Y302537D01*
X530438D01*
Y302690D01*
X529981D01*
Y302842D01*
X529524D01*
Y302994D01*
X529067D01*
Y303147D01*
X528610D01*
Y303299D01*
X528000D01*
Y303452D01*
X527543D01*
Y303604D01*
X526933D01*
Y303756D01*
X526476D01*
Y303909D01*
X525714D01*
Y304061D01*
X524800D01*
Y304214D01*
X523886D01*
Y304366D01*
X522514D01*
Y304518D01*
D02*
G37*
G36*
X509105Y209890D02*
X508800D01*
Y209737D01*
X508648D01*
Y209433D01*
X508495D01*
Y208975D01*
X508343D01*
Y208671D01*
X508190D01*
Y208518D01*
X508038D01*
Y208213D01*
X507886D01*
Y207909D01*
X507733D01*
Y207756D01*
X507581D01*
Y207604D01*
X507429D01*
Y207299D01*
X507276D01*
Y207147D01*
X507124D01*
Y206995D01*
X506971D01*
Y206842D01*
X506819D01*
Y206690D01*
X506514D01*
Y206537D01*
X506362D01*
Y206385D01*
X506210D01*
Y206233D01*
X505905D01*
Y206080D01*
X505600D01*
Y205928D01*
X505295D01*
Y205775D01*
X504990D01*
Y205623D01*
X504533D01*
Y205471D01*
X503771D01*
Y205318D01*
X499200D01*
Y205013D01*
X499505D01*
Y204861D01*
X500114D01*
Y204709D01*
X502857D01*
Y204861D01*
X503771D01*
Y205013D01*
X504381D01*
Y205166D01*
X504838D01*
Y205318D01*
X505295D01*
Y205471D01*
X505600D01*
Y205623D01*
X505905D01*
Y205775D01*
X506362D01*
Y205928D01*
X506819D01*
Y206080D01*
X507276D01*
Y206233D01*
X507733D01*
Y206385D01*
X508343D01*
Y206537D01*
X508800D01*
Y206690D01*
X509410D01*
Y206842D01*
X509867D01*
Y206995D01*
X510324D01*
Y207147D01*
X510933D01*
Y207299D01*
X511390D01*
Y207452D01*
X512000D01*
Y207604D01*
X512305D01*
Y207756D01*
X512762D01*
Y207909D01*
X513067D01*
Y208061D01*
X513524D01*
Y208213D01*
X512762D01*
Y208366D01*
X512000D01*
Y208518D01*
X511543D01*
Y208671D01*
X511238D01*
Y208823D01*
X510781D01*
Y208975D01*
X510476D01*
Y209128D01*
X510171D01*
Y209280D01*
X509867D01*
Y209433D01*
X509714D01*
Y209585D01*
X509410D01*
Y209737D01*
X509105D01*
Y209890D01*
D02*
G37*
G36*
X517638Y207452D02*
X516724D01*
Y207299D01*
X516267D01*
Y207147D01*
X515962D01*
Y206995D01*
X515657D01*
Y206842D01*
X515200D01*
Y206690D01*
X514895D01*
Y206537D01*
X514591D01*
Y206385D01*
X514286D01*
Y206233D01*
X513981D01*
Y206080D01*
X513676D01*
Y205928D01*
X513219D01*
Y205775D01*
X512914D01*
Y205623D01*
X512609D01*
Y205471D01*
X512305D01*
Y205318D01*
X511848D01*
Y205166D01*
X511543D01*
Y205013D01*
X511238D01*
Y204861D01*
X510781D01*
Y204709D01*
X510476D01*
Y204556D01*
X510019D01*
Y204404D01*
X509714D01*
Y204252D01*
X509257D01*
Y204099D01*
X508952D01*
Y203947D01*
X508495D01*
Y203795D01*
X508038D01*
Y203642D01*
X507429D01*
Y203490D01*
X506667D01*
Y203337D01*
X505752D01*
Y203185D01*
X503924D01*
Y203033D01*
X503619D01*
Y202880D01*
X503314D01*
Y202118D01*
X503467D01*
Y201661D01*
X503619D01*
Y201509D01*
X503771D01*
Y201204D01*
X503924D01*
Y201052D01*
X504076D01*
Y200899D01*
X504381D01*
Y200747D01*
X504533D01*
Y200594D01*
X504990D01*
Y200442D01*
X507429D01*
Y200594D01*
X508343D01*
Y200747D01*
X508952D01*
Y200899D01*
X509410D01*
Y201052D01*
X509867D01*
Y201204D01*
X510324D01*
Y201356D01*
X510629D01*
Y201509D01*
X511086D01*
Y201661D01*
X511543D01*
Y201814D01*
X512000D01*
Y201966D01*
X512305D01*
Y202118D01*
X512762D01*
Y202271D01*
X513219D01*
Y202423D01*
X513524D01*
Y202575D01*
X513981D01*
Y202728D01*
X514438D01*
Y202880D01*
X514743D01*
Y203033D01*
X515200D01*
Y203185D01*
X515657D01*
Y203337D01*
X516114D01*
Y203490D01*
X516419D01*
Y203642D01*
X516724D01*
Y203795D01*
X517181D01*
Y203947D01*
X517333D01*
Y204099D01*
X517486D01*
Y204252D01*
X517638D01*
Y204404D01*
X517791D01*
Y204556D01*
X517943D01*
Y205013D01*
X518095D01*
Y206995D01*
X517943D01*
Y207147D01*
X517791D01*
Y207299D01*
X517638D01*
Y207452D01*
D02*
G37*
G36*
X516267Y200899D02*
X515200D01*
Y200747D01*
X514591D01*
Y200594D01*
X513981D01*
Y200442D01*
X513524D01*
Y200290D01*
X513067D01*
Y200137D01*
X512609D01*
Y199985D01*
X512152D01*
Y199833D01*
X511848D01*
Y199680D01*
X511238D01*
Y199528D01*
X510781D01*
Y199375D01*
X510171D01*
Y199223D01*
X509562D01*
Y199071D01*
X508495D01*
Y198918D01*
X507276D01*
Y198766D01*
X506819D01*
Y198614D01*
X506514D01*
Y198461D01*
X506057D01*
Y198309D01*
X505752D01*
Y198156D01*
X505600D01*
Y198004D01*
X505448D01*
Y197852D01*
X505295D01*
Y197699D01*
X505143D01*
Y196785D01*
X505295D01*
Y196480D01*
X505448D01*
Y196328D01*
X505600D01*
Y196175D01*
X505752D01*
Y196023D01*
X505905D01*
Y195871D01*
X506057D01*
Y195718D01*
X506210D01*
Y195566D01*
X506362D01*
Y195413D01*
X506514D01*
Y195261D01*
X506667D01*
Y195109D01*
X506819D01*
Y194956D01*
X507124D01*
Y194804D01*
X507276D01*
Y194652D01*
X507429D01*
Y194499D01*
X507733D01*
Y194347D01*
X508038D01*
Y194194D01*
X508343D01*
Y194042D01*
X508800D01*
Y193890D01*
X509105D01*
Y193737D01*
X509562D01*
Y193585D01*
X510629D01*
Y193433D01*
X511848D01*
Y193585D01*
X512762D01*
Y193737D01*
X513219D01*
Y193890D01*
X513524D01*
Y194042D01*
X513981D01*
Y194194D01*
X514286D01*
Y194347D01*
X514438D01*
Y194499D01*
X514743D01*
Y194652D01*
X515048D01*
Y194804D01*
X515200D01*
Y194956D01*
X515352D01*
Y195109D01*
X515505D01*
Y195261D01*
X515657D01*
Y195413D01*
X515809D01*
Y195566D01*
X515962D01*
Y195718D01*
X516114D01*
Y196023D01*
X516267D01*
Y196175D01*
X516419D01*
Y196480D01*
X516571D01*
Y196785D01*
X516724D01*
Y197242D01*
X516876D01*
Y197699D01*
X517029D01*
Y198004D01*
X517181D01*
Y198461D01*
X517333D01*
Y199223D01*
X517486D01*
Y199528D01*
X517333D01*
Y200137D01*
X517181D01*
Y200442D01*
X517029D01*
Y200594D01*
X516724D01*
Y200747D01*
X516267D01*
Y200899D01*
D02*
G37*
%LPD*%
G36*
X524191Y252252D02*
X524648D01*
Y252099D01*
X524952D01*
Y251947D01*
X525257D01*
Y251795D01*
X525714D01*
Y251642D01*
X525867D01*
Y251490D01*
X526171D01*
Y251337D01*
X526324D01*
Y251185D01*
X526629D01*
Y251033D01*
X526781D01*
Y250880D01*
X526933D01*
Y250728D01*
X527238D01*
Y250575D01*
X527390D01*
Y250423D01*
X527543D01*
Y250271D01*
X527695D01*
Y250118D01*
X527848D01*
Y249966D01*
X528000D01*
Y249661D01*
X528152D01*
Y249509D01*
X528305D01*
Y249356D01*
X528457D01*
Y249204D01*
X528610D01*
Y248899D01*
X528762D01*
Y248594D01*
X528914D01*
Y248290D01*
X529067D01*
Y248137D01*
X529219D01*
Y247680D01*
X529371D01*
Y247375D01*
X529524D01*
Y246918D01*
X529676D01*
Y246461D01*
X529829D01*
Y246004D01*
X529981D01*
Y245394D01*
X530133D01*
Y244328D01*
X530286D01*
Y243413D01*
X530438D01*
Y240366D01*
X530286D01*
Y239147D01*
X530133D01*
Y238080D01*
X529981D01*
Y237318D01*
X529829D01*
Y236556D01*
X529676D01*
Y236099D01*
X529524D01*
Y235490D01*
X529371D01*
Y235033D01*
X529219D01*
Y234575D01*
X529067D01*
Y234271D01*
X528914D01*
Y233966D01*
X528762D01*
Y233509D01*
X528610D01*
Y233204D01*
X528457D01*
Y232899D01*
X528305D01*
Y232594D01*
X528152D01*
Y232290D01*
X528000D01*
Y231985D01*
X527848D01*
Y231680D01*
X527695D01*
Y231528D01*
X527543D01*
Y231223D01*
X527390D01*
Y231071D01*
X527238D01*
Y230766D01*
X527086D01*
Y230613D01*
X526933D01*
Y230309D01*
X526781D01*
Y230156D01*
X526629D01*
Y229852D01*
X526476D01*
Y229699D01*
X526324D01*
Y229547D01*
X526171D01*
Y229395D01*
X526019D01*
Y229090D01*
X525867D01*
Y228937D01*
X525714D01*
Y228785D01*
X525562D01*
Y228633D01*
X525410D01*
Y228480D01*
X525257D01*
Y228328D01*
X525105D01*
Y228175D01*
X524952D01*
Y228023D01*
X524800D01*
Y227871D01*
X524495D01*
Y227718D01*
X524343D01*
Y227566D01*
X524191D01*
Y227414D01*
X524038D01*
Y227261D01*
X523733D01*
Y227109D01*
X523581D01*
Y226956D01*
X523276D01*
Y226804D01*
X522971D01*
Y226652D01*
X522819D01*
Y226499D01*
X522362D01*
Y226347D01*
X522210D01*
Y226195D01*
X521905D01*
Y226042D01*
X521448D01*
Y225890D01*
X520991D01*
Y225737D01*
X520381D01*
Y225585D01*
X519771D01*
Y225433D01*
X517791D01*
Y225585D01*
X517029D01*
Y225737D01*
X516724D01*
Y225890D01*
X516267D01*
Y226042D01*
X515962D01*
Y226195D01*
X515657D01*
Y226347D01*
X515352D01*
Y226499D01*
X515200D01*
Y226652D01*
X514895D01*
Y226804D01*
X514743D01*
Y226956D01*
X514438D01*
Y227109D01*
X514286D01*
Y227261D01*
X514133D01*
Y227414D01*
X513981D01*
Y227566D01*
X513829D01*
Y227718D01*
X513676D01*
Y227871D01*
X513524D01*
Y228023D01*
X513371D01*
Y228328D01*
X513219D01*
Y228480D01*
X513067D01*
Y228633D01*
X512914D01*
Y228937D01*
X512762D01*
Y229090D01*
X512609D01*
Y229395D01*
X512457D01*
Y229699D01*
X512305D01*
Y230004D01*
X512152D01*
Y230309D01*
X512000D01*
Y230766D01*
X511848D01*
Y231223D01*
X511695D01*
Y231680D01*
X511543D01*
Y232137D01*
X511390D01*
Y232747D01*
X511238D01*
Y233661D01*
X511086D01*
Y234728D01*
X510933D01*
Y237928D01*
X511086D01*
Y238995D01*
X511238D01*
Y239756D01*
X511390D01*
Y240366D01*
X511543D01*
Y240975D01*
X511695D01*
Y241585D01*
X511848D01*
Y242042D01*
X512000D01*
Y242499D01*
X512152D01*
Y242956D01*
X512305D01*
Y243413D01*
X512457D01*
Y243871D01*
X512609D01*
Y244175D01*
X512762D01*
Y244633D01*
X512914D01*
Y244937D01*
X513067D01*
Y245242D01*
X513219D01*
Y245547D01*
X513371D01*
Y245852D01*
X513524D01*
Y246004D01*
X513676D01*
Y246309D01*
X513829D01*
Y246614D01*
X513981D01*
Y246766D01*
X514133D01*
Y247071D01*
X514286D01*
Y247223D01*
X514438D01*
Y247375D01*
X514591D01*
Y247680D01*
X514743D01*
Y247833D01*
X514895D01*
Y247985D01*
X515048D01*
Y248137D01*
X515200D01*
Y248290D01*
X515352D01*
Y248442D01*
X515505D01*
Y248747D01*
X515809D01*
Y249052D01*
X515962D01*
Y249204D01*
X516114D01*
Y249356D01*
X516267D01*
Y249509D01*
X516571D01*
Y249661D01*
X516724D01*
Y249814D01*
X516876D01*
Y249966D01*
X517029D01*
Y250118D01*
X517181D01*
Y250271D01*
X517333D01*
Y250423D01*
X517638D01*
Y250575D01*
X517791D01*
Y250728D01*
X517943D01*
Y250880D01*
X518248D01*
Y251033D01*
X518400D01*
Y251185D01*
X518705D01*
Y251337D01*
X519009D01*
Y251490D01*
X519162D01*
Y251642D01*
X519467D01*
Y251795D01*
X519924D01*
Y251947D01*
X520381D01*
Y252099D01*
X520686D01*
Y252252D01*
X521448D01*
Y252404D01*
X524191D01*
Y252252D01*
D02*
G37*
G36*
X561829Y219947D02*
X562438D01*
Y219795D01*
X562743D01*
Y219642D01*
X563200D01*
Y219490D01*
X563505D01*
Y219337D01*
X563962D01*
Y219185D01*
X564114D01*
Y218880D01*
X564267D01*
Y218575D01*
X561371D01*
Y218423D01*
X560457D01*
Y218271D01*
X559848D01*
Y218118D01*
X559238D01*
Y217966D01*
X558781D01*
Y217813D01*
X558324D01*
Y217661D01*
X558019D01*
Y217509D01*
X557714D01*
Y217356D01*
X557409D01*
Y217204D01*
X557105D01*
Y217052D01*
X556800D01*
Y216899D01*
X556648D01*
Y216747D01*
X556343D01*
Y216595D01*
X556190D01*
Y216442D01*
X556038D01*
Y216290D01*
X555886D01*
Y216137D01*
X555733D01*
Y215833D01*
X556190D01*
Y215680D01*
X556648D01*
Y215528D01*
X557105D01*
Y215375D01*
X557562D01*
Y215223D01*
X558019D01*
Y215071D01*
X558171D01*
Y214918D01*
X558629D01*
Y214766D01*
X558781D01*
Y214614D01*
X559086D01*
Y214461D01*
X559238D01*
Y214309D01*
X559390D01*
Y214156D01*
X559543D01*
Y214004D01*
X559695D01*
Y213852D01*
X559848D01*
Y213547D01*
X560000D01*
Y213242D01*
X560152D01*
Y213090D01*
X559848D01*
Y213242D01*
X559390D01*
Y213394D01*
X558933D01*
Y213547D01*
X558476D01*
Y213699D01*
X558019D01*
Y213852D01*
X557257D01*
Y214004D01*
X555124D01*
Y213852D01*
X554667D01*
Y213699D01*
X554362D01*
Y213547D01*
X554057D01*
Y213394D01*
X553905D01*
Y213242D01*
X553752D01*
Y213090D01*
X553600D01*
Y212937D01*
X553448D01*
Y212785D01*
X553295D01*
Y212633D01*
X553143D01*
Y212480D01*
X552990D01*
Y212328D01*
X552838D01*
Y212175D01*
X552686D01*
Y212023D01*
X552533D01*
Y211871D01*
X552381D01*
Y211718D01*
X552229D01*
Y211566D01*
X552076D01*
Y211414D01*
X551924D01*
Y211261D01*
X551771D01*
Y211109D01*
X551619D01*
Y210804D01*
X551467D01*
Y210652D01*
X551314D01*
Y210499D01*
X551162D01*
Y210194D01*
X551010D01*
Y210042D01*
X550857D01*
Y209737D01*
X550705D01*
Y209433D01*
X550552D01*
Y209128D01*
X550400D01*
Y208823D01*
X550248D01*
Y208366D01*
X550095D01*
Y207909D01*
X549943D01*
Y207756D01*
X549790D01*
Y207909D01*
X549486D01*
Y208975D01*
X549638D01*
Y210194D01*
X549790D01*
Y210804D01*
X549943D01*
Y211414D01*
X550095D01*
Y212023D01*
X550248D01*
Y212480D01*
X550400D01*
Y212937D01*
X550552D01*
Y213242D01*
X550705D01*
Y213699D01*
X550857D01*
Y214004D01*
X551010D01*
Y214309D01*
X551162D01*
Y214614D01*
X551314D01*
Y214766D01*
X551467D01*
Y215071D01*
X551619D01*
Y215375D01*
X551771D01*
Y215528D01*
X551924D01*
Y215680D01*
X552076D01*
Y215833D01*
X552229D01*
Y215985D01*
X552381D01*
Y216290D01*
X552533D01*
Y216442D01*
X552686D01*
Y216595D01*
X552838D01*
Y216747D01*
X552990D01*
Y216899D01*
X553143D01*
Y217052D01*
X553295D01*
Y217204D01*
X553448D01*
Y217356D01*
X553600D01*
Y217509D01*
X553905D01*
Y217661D01*
X554057D01*
Y217813D01*
X554210D01*
Y217966D01*
X554362D01*
Y218118D01*
X554667D01*
Y218271D01*
X554819D01*
Y218423D01*
X555124D01*
Y218575D01*
X555276D01*
Y218728D01*
X555581D01*
Y218880D01*
X555886D01*
Y219033D01*
X556190D01*
Y219185D01*
X556495D01*
Y219337D01*
X556952D01*
Y219490D01*
X557257D01*
Y219642D01*
X557714D01*
Y219795D01*
X558324D01*
Y219947D01*
X558933D01*
Y220099D01*
X561829D01*
Y219947D01*
D02*
G37*
%LPC*%
G36*
X521905Y250423D02*
X521752D01*
Y250271D01*
X520838D01*
Y250118D01*
X520381D01*
Y249966D01*
X520076D01*
Y249814D01*
X519619D01*
Y249661D01*
X519467D01*
Y249509D01*
X519162D01*
Y249356D01*
X519009D01*
Y249204D01*
X518705D01*
Y249052D01*
X518552D01*
Y248899D01*
X518400D01*
Y248747D01*
X518248D01*
Y248594D01*
X518095D01*
Y248442D01*
X517943D01*
Y248290D01*
X517791D01*
Y248137D01*
X517638D01*
Y247985D01*
X517486D01*
Y247833D01*
X517333D01*
Y247528D01*
X517181D01*
Y247375D01*
X517029D01*
Y247071D01*
X516876D01*
Y246918D01*
X516724D01*
Y246614D01*
X516571D01*
Y246461D01*
X516419D01*
Y246156D01*
X516267D01*
Y245852D01*
X516114D01*
Y245547D01*
X515962D01*
Y245242D01*
X515809D01*
Y245090D01*
X515657D01*
Y244633D01*
X515505D01*
Y244480D01*
X515352D01*
Y244023D01*
X515200D01*
Y243718D01*
X515048D01*
Y243413D01*
X514895D01*
Y243109D01*
X514743D01*
Y242652D01*
X514591D01*
Y242347D01*
X514438D01*
Y241737D01*
X514286D01*
Y241128D01*
X514133D01*
Y240671D01*
X513981D01*
Y239756D01*
X513829D01*
Y238690D01*
X513676D01*
Y234575D01*
X513829D01*
Y233661D01*
X513981D01*
Y233052D01*
X514133D01*
Y232594D01*
X514286D01*
Y232137D01*
X514438D01*
Y231680D01*
X514591D01*
Y231223D01*
X514743D01*
Y230918D01*
X514895D01*
Y230613D01*
X515048D01*
Y230309D01*
X515200D01*
Y230156D01*
X515352D01*
Y229852D01*
X515505D01*
Y229699D01*
X515657D01*
Y229395D01*
X515809D01*
Y229242D01*
X515962D01*
Y229090D01*
X516114D01*
Y228937D01*
X516267D01*
Y228785D01*
X516571D01*
Y228480D01*
X516876D01*
Y228328D01*
X517029D01*
Y228175D01*
X517333D01*
Y228023D01*
X517638D01*
Y227871D01*
X517943D01*
Y227718D01*
X518248D01*
Y227566D01*
X518857D01*
Y227414D01*
X520076D01*
Y227566D01*
X519771D01*
Y227718D01*
X519467D01*
Y227871D01*
X519162D01*
Y228023D01*
X518857D01*
Y228175D01*
X518705D01*
Y228328D01*
X518552D01*
Y228480D01*
X518248D01*
Y228633D01*
X518095D01*
Y228785D01*
X517943D01*
Y228937D01*
X517791D01*
Y229242D01*
X517638D01*
Y229395D01*
X517486D01*
Y229547D01*
X517333D01*
Y229852D01*
X517181D01*
Y230004D01*
X517029D01*
Y230309D01*
X516876D01*
Y230613D01*
X516724D01*
Y230918D01*
X516571D01*
Y231375D01*
X516419D01*
Y231833D01*
X516267D01*
Y232594D01*
X516114D01*
Y233509D01*
X515962D01*
Y237014D01*
X516114D01*
Y238080D01*
X516267D01*
Y238842D01*
X516419D01*
Y239452D01*
X516571D01*
Y239909D01*
X516724D01*
Y240366D01*
X516876D01*
Y240823D01*
X517029D01*
Y241280D01*
X517181D01*
Y241585D01*
X517333D01*
Y241890D01*
X517486D01*
Y242347D01*
X517638D01*
Y242652D01*
X517791D01*
Y242956D01*
X517943D01*
Y243261D01*
X518095D01*
Y243566D01*
X518248D01*
Y243718D01*
X518400D01*
Y244023D01*
X518552D01*
Y244175D01*
X518705D01*
Y244480D01*
X518857D01*
Y244633D01*
X519009D01*
Y244785D01*
X519162D01*
Y244937D01*
X519314D01*
Y245242D01*
X519467D01*
Y245394D01*
X519619D01*
Y245547D01*
X519771D01*
Y245699D01*
X519924D01*
Y245852D01*
X520076D01*
Y246004D01*
X520381D01*
Y246156D01*
X520533D01*
Y246309D01*
X520686D01*
Y246461D01*
X520991D01*
Y246614D01*
X521143D01*
Y246766D01*
X521448D01*
Y246918D01*
X521600D01*
Y247071D01*
X521905D01*
Y247223D01*
X522362D01*
Y247375D01*
X522667D01*
Y247528D01*
X523429D01*
Y247680D01*
X524648D01*
Y247528D01*
X525257D01*
Y247375D01*
X525562D01*
Y247223D01*
X525867D01*
Y247071D01*
X526171D01*
Y246918D01*
X526324D01*
Y246766D01*
X526476D01*
Y246614D01*
X526629D01*
Y246461D01*
X526781D01*
Y246766D01*
X526629D01*
Y247071D01*
X526476D01*
Y247375D01*
X526324D01*
Y247528D01*
X526171D01*
Y247833D01*
X526019D01*
Y247985D01*
X525867D01*
Y248290D01*
X525714D01*
Y248442D01*
X525562D01*
Y248594D01*
X525410D01*
Y248899D01*
X525257D01*
Y249052D01*
X525105D01*
Y249204D01*
X524952D01*
Y249356D01*
X524648D01*
Y249509D01*
X524495D01*
Y249661D01*
X524191D01*
Y249814D01*
X523886D01*
Y249966D01*
X523581D01*
Y250118D01*
X523124D01*
Y250271D01*
X521905D01*
Y250423D01*
D02*
G37*
G36*
X524648Y246156D02*
X523429D01*
Y246004D01*
X522819D01*
Y245852D01*
X522362D01*
Y245699D01*
X522057D01*
Y245547D01*
X521905D01*
Y245394D01*
X521600D01*
Y245242D01*
X521448D01*
Y245090D01*
X521295D01*
Y244937D01*
X520991D01*
Y244633D01*
X520838D01*
Y244480D01*
X520686D01*
Y244328D01*
X520533D01*
Y244175D01*
X520381D01*
Y244023D01*
X520229D01*
Y243871D01*
X520076D01*
Y243566D01*
X519924D01*
Y243261D01*
X519771D01*
Y243109D01*
X519619D01*
Y242804D01*
X519467D01*
Y242652D01*
X519314D01*
Y242347D01*
X519162D01*
Y242042D01*
X519009D01*
Y241737D01*
X518857D01*
Y241280D01*
X518705D01*
Y240975D01*
X518552D01*
Y240671D01*
X518400D01*
Y240061D01*
X518248D01*
Y239756D01*
X518095D01*
Y239147D01*
X517943D01*
Y238537D01*
X517791D01*
Y237623D01*
X517638D01*
Y236556D01*
X517486D01*
Y233661D01*
X517638D01*
Y232747D01*
X517791D01*
Y232137D01*
X517943D01*
Y231528D01*
X518095D01*
Y231223D01*
X518248D01*
Y230918D01*
X518400D01*
Y230613D01*
X518552D01*
Y230309D01*
X518705D01*
Y230156D01*
X518857D01*
Y229852D01*
X519009D01*
Y229699D01*
X519162D01*
Y229547D01*
X519314D01*
Y229395D01*
X519619D01*
Y229242D01*
X519924D01*
Y229090D01*
X520229D01*
Y228937D01*
X520838D01*
Y228785D01*
X522057D01*
Y228937D01*
X522819D01*
Y229090D01*
X522971D01*
Y229395D01*
X522057D01*
Y229547D01*
X521752D01*
Y229699D01*
X521600D01*
Y229852D01*
X521295D01*
Y230004D01*
X521143D01*
Y230156D01*
X520991D01*
Y230309D01*
X520838D01*
Y230461D01*
X520686D01*
Y230766D01*
X520533D01*
Y230918D01*
X520381D01*
Y231223D01*
X520229D01*
Y231528D01*
X520076D01*
Y231833D01*
X519924D01*
Y232290D01*
X519771D01*
Y233052D01*
X519619D01*
Y234118D01*
X519467D01*
Y235490D01*
X519619D01*
Y236556D01*
X519771D01*
Y237318D01*
X519924D01*
Y237775D01*
X520076D01*
Y238233D01*
X520229D01*
Y238537D01*
X520381D01*
Y238995D01*
X520533D01*
Y239299D01*
X520686D01*
Y239604D01*
X520838D01*
Y239909D01*
X520991D01*
Y240213D01*
X521143D01*
Y240518D01*
X521295D01*
Y240671D01*
X521448D01*
Y240823D01*
X521600D01*
Y241128D01*
X521752D01*
Y241280D01*
X521905D01*
Y241433D01*
X522057D01*
Y241585D01*
X522210D01*
Y241737D01*
X522362D01*
Y241890D01*
X522514D01*
Y242042D01*
X522667D01*
Y242195D01*
X522819D01*
Y242347D01*
X523124D01*
Y242499D01*
X523276D01*
Y242652D01*
X523581D01*
Y242804D01*
X524038D01*
Y242956D01*
X524648D01*
Y243109D01*
X525410D01*
Y242956D01*
X526019D01*
Y242804D01*
X526476D01*
Y242652D01*
X526781D01*
Y242347D01*
X527086D01*
Y242042D01*
X527238D01*
Y241890D01*
X527390D01*
Y241585D01*
X527543D01*
Y241280D01*
X527695D01*
Y240975D01*
X527848D01*
Y240671D01*
X528000D01*
Y240518D01*
X528305D01*
Y240823D01*
X528152D01*
Y241128D01*
X528000D01*
Y241585D01*
X527848D01*
Y242042D01*
X527695D01*
Y242347D01*
X527543D01*
Y242804D01*
X527390D01*
Y243109D01*
X527238D01*
Y243566D01*
X527086D01*
Y243871D01*
X526933D01*
Y244175D01*
X526781D01*
Y244480D01*
X526629D01*
Y244785D01*
X526476D01*
Y245090D01*
X526324D01*
Y245242D01*
X526171D01*
Y245394D01*
X526019D01*
Y245547D01*
X525867D01*
Y245699D01*
X525562D01*
Y245852D01*
X525257D01*
Y246004D01*
X524648D01*
Y246156D01*
D02*
G37*
G36*
X525867Y240518D02*
X525105D01*
Y240366D01*
X524952D01*
Y240213D01*
X524800D01*
Y240061D01*
X524648D01*
Y239909D01*
X524495D01*
Y239756D01*
X524343D01*
Y239452D01*
X524191D01*
Y238995D01*
X524038D01*
Y238233D01*
X524191D01*
Y237623D01*
X524343D01*
Y237318D01*
X524495D01*
Y237014D01*
X524648D01*
Y236861D01*
X524800D01*
Y236709D01*
X525867D01*
Y236861D01*
X526019D01*
Y237014D01*
X526171D01*
Y237166D01*
X526324D01*
Y237318D01*
X526476D01*
Y237623D01*
X526629D01*
Y237928D01*
X526781D01*
Y239604D01*
X526629D01*
Y239909D01*
X526476D01*
Y240213D01*
X526171D01*
Y240366D01*
X525867D01*
Y240518D01*
D02*
G37*
%LPD*%
D10*
X404269Y215551D02*
G03*
X404269Y215551I-300J0D01*
G01*
X139981Y243602D02*
G03*
X139981Y243602I-300J0D01*
G01*
X580529Y219937D02*
G03*
X580529Y219937I-300J0D01*
G01*
X412242Y218905D02*
X413758D01*
X412242Y212197D02*
X413758D01*
X115100Y223694D02*
Y238494D01*
X129900D01*
Y223694D02*
Y238494D01*
X115100Y223694D02*
X129900D01*
X129893Y240248D02*
X131408D01*
X129893Y246957D02*
X131408D01*
X210000Y399794D02*
X241000D01*
X210000Y357394D02*
Y399794D01*
Y357394D02*
X241000D01*
Y399794D01*
X593322Y191095D02*
X608922D01*
Y196592D01*
X593322Y229095D02*
X608922D01*
X593322Y223597D02*
Y229095D01*
Y213755D02*
Y216277D01*
Y203912D02*
Y206434D01*
Y191095D02*
Y196592D01*
X608922Y203912D02*
Y206434D01*
Y213755D02*
Y216277D01*
Y223597D02*
Y229095D01*
X440363Y345576D02*
X443100D01*
X440363Y364676D02*
X443100D01*
X427900D02*
X430637D01*
X427900Y345576D02*
X430637D01*
X196500Y66686D02*
X227500D01*
Y109087D01*
X196500D02*
X227500D01*
X196500Y66686D02*
Y109087D01*
D11*
X208000Y350886D02*
G03*
X208000Y350886I-1500J0D01*
G01*
X232500Y115594D02*
G03*
X232500Y115594I-1500J0D01*
G01*
D12*
X207081Y316094D02*
G03*
X207081Y316094I-1581J0D01*
G01*
X446081Y315595D02*
G03*
X446081Y315595I-1581J0D01*
G01*
D13*
X414894Y234126D02*
G03*
X414894Y234126I-394J0D01*
G01*
X152689Y125831D02*
G03*
X152689Y125831I-394J0D01*
G01*
X433028Y327114D02*
G03*
X433028Y327114I-394J0D01*
G01*
X150531Y279449D02*
G03*
X150531Y279449I-394J0D01*
G01*
X175308Y283186D02*
G03*
X175308Y285712I-485J1263D01*
G01*
Y227871D02*
G03*
X175308Y230397I-485J1263D01*
G01*
Y172556D02*
G03*
X175308Y175082I-485J1263D01*
G01*
X602100Y249732D02*
Y250520D01*
X606900Y249732D02*
Y250520D01*
X132433Y226028D02*
X136567D01*
X447181Y370905D02*
Y397284D01*
X424819D02*
X447181D01*
X424819Y370905D02*
Y397284D01*
Y370905D02*
X447181D01*
X139685Y294567D02*
X175315D01*
X139685Y163622D02*
Y294567D01*
Y163622D02*
X175315D01*
Y285709D02*
Y294567D01*
Y230394D02*
Y283189D01*
Y175079D02*
Y227874D01*
Y163622D02*
Y172559D01*
X430000Y96059D02*
Y100193D01*
Y103527D02*
Y107661D01*
X418933Y350126D02*
X423067D01*
X447433Y352126D02*
X451567D01*
X455433Y352189D02*
X459567D01*
X159933Y141095D02*
X164067D01*
X413000Y205610D02*
Y209744D01*
X427937Y207559D02*
Y211693D01*
X428000Y215059D02*
Y219193D01*
X130500Y249902D02*
Y254035D01*
D14*
X445055Y377402D02*
G03*
X445055Y377402I-394J0D01*
G01*
D15*
X413095Y232455D02*
X415279D01*
X422720D02*
X424905D01*
Y232238D02*
Y232455D01*
Y222612D02*
Y222829D01*
X413095Y222612D02*
X415279D01*
X422720D02*
X424905D01*
X413095Y232238D02*
Y232455D01*
Y222612D02*
Y222829D01*
X151311Y136965D02*
Y146224D01*
X130933Y153405D02*
X148067D01*
X127689Y136965D02*
Y146224D01*
X130933Y129783D02*
X148067D01*
X434209Y316327D02*
Y318925D01*
X427181Y314476D02*
X429819D01*
X422791Y316327D02*
Y318925D01*
D16*
X624000Y189626D02*
Y199126D01*
Y189626D02*
X626500Y192126D01*
X621500D02*
X624000Y189626D01*
X623500Y230626D02*
X626000Y228126D01*
X621000D02*
X623500Y230626D01*
Y221126D02*
Y230626D01*
X232502Y80093D02*
X231502Y79093D01*
Y77094D01*
X232502Y76095D01*
X233501D01*
X234501Y77094D01*
Y79093D01*
X235501Y80093D01*
X236500D01*
X237500Y79093D01*
Y77094D01*
X236500Y76095D01*
X237500Y85092D02*
Y83092D01*
X236500Y82092D01*
X234501D01*
X233501Y83092D01*
Y85092D01*
X234501Y86091D01*
X235501D01*
Y82092D01*
X233501Y88091D02*
X237500D01*
X235501D01*
X234501Y89090D01*
X233501Y90090D01*
Y91090D01*
Y94089D02*
X237500Y96088D01*
X233501Y98087D01*
X237500Y101086D02*
Y103086D01*
X236500Y104085D01*
X234501D01*
X233501Y103086D01*
Y101086D01*
X234501Y100087D01*
X236500D01*
X237500Y101086D01*
X465000Y371595D02*
X459002D01*
X461001Y373594D01*
X459002Y375593D01*
X465000D01*
Y378592D02*
Y380592D01*
X464000Y381591D01*
X462001D01*
X461001Y380592D01*
Y378592D01*
X462001Y377592D01*
X464000D01*
X465000Y378592D01*
X460002Y384590D02*
X461001D01*
Y383591D01*
Y385590D01*
Y384590D01*
X464000D01*
X465000Y385590D01*
Y389589D02*
Y391588D01*
X464000Y392588D01*
X462001D01*
X461001Y391588D01*
Y389589D01*
X462001Y388589D01*
X464000D01*
X465000Y389589D01*
X461001Y394587D02*
X465000D01*
X463001D01*
X462001Y395587D01*
X461001Y396586D01*
Y397586D01*
X621002Y236094D02*
Y234427D01*
X621835Y233594D01*
X625167D01*
X626000Y234427D01*
Y236094D01*
X625167Y236927D01*
X621835D01*
X621002Y236094D01*
Y241925D02*
Y238593D01*
X623501D01*
Y240259D01*
Y238593D01*
X626000D01*
X621002Y246923D02*
Y243591D01*
X623501D01*
Y245257D01*
Y243591D01*
X626000D01*
X621502Y180594D02*
Y178928D01*
X622335Y178094D01*
X625667D01*
X626500Y178928D01*
Y180594D01*
X625667Y181427D01*
X622335D01*
X621502Y180594D01*
X626500Y183093D02*
X621502D01*
X626500Y186425D01*
X621502D01*
X261000Y333594D02*
X262666D01*
X261833D01*
Y338593D01*
X261000Y337760D01*
X265165D02*
X265998Y338593D01*
X267665D01*
X268498Y337760D01*
Y336927D01*
X267665Y336094D01*
X268498Y335261D01*
Y334427D01*
X267665Y333594D01*
X265998D01*
X265165Y334427D01*
Y335261D01*
X265998Y336094D01*
X265165Y336927D01*
Y337760D01*
X265998Y336094D02*
X267665D01*
X270164D02*
X273496D01*
X278494Y338593D02*
X275162D01*
Y336094D01*
X276828Y336927D01*
X277661D01*
X278494Y336094D01*
Y334427D01*
X277661Y333594D01*
X275995D01*
X275162Y334427D01*
X280160Y337760D02*
X280994Y338593D01*
X282660D01*
X283493Y337760D01*
Y334427D01*
X282660Y333594D01*
X280994D01*
X280160Y334427D01*
Y337760D01*
X285159D02*
X285992Y338593D01*
X287658D01*
X288491Y337760D01*
Y334427D01*
X287658Y333594D01*
X285992D01*
X285159Y334427D01*
Y337760D01*
X260500Y348093D02*
X263832D01*
X262166D01*
Y343094D01*
X267998D02*
X266331D01*
X265498Y343928D01*
Y345594D01*
X266331Y346427D01*
X267998D01*
X268831Y345594D01*
Y344761D01*
X265498D01*
X271330Y346427D02*
X272996D01*
X273829Y345594D01*
Y343094D01*
X271330D01*
X270497Y343928D01*
X271330Y344761D01*
X273829D01*
X275495Y343094D02*
Y346427D01*
X276328D01*
X277161Y345594D01*
Y343094D01*
Y345594D01*
X277994Y346427D01*
X278827Y345594D01*
Y343094D01*
X285492D02*
Y346427D01*
X287158Y348093D01*
X288824Y346427D01*
Y343094D01*
Y345594D01*
X285492D01*
X293823Y348093D02*
X292156Y347260D01*
X290490Y345594D01*
Y343928D01*
X291323Y343094D01*
X292989D01*
X293823Y343928D01*
Y344761D01*
X292989Y345594D01*
X290490D01*
X449500Y383594D02*
X452832D01*
X418500Y383761D02*
X421832D01*
X420166Y385427D02*
Y382095D01*
X112500Y157595D02*
Y162593D01*
X114999D01*
X115832Y161760D01*
Y160094D01*
X114999Y159261D01*
X112500D01*
X114166D02*
X115832Y157595D01*
X120831Y162593D02*
X117498D01*
Y157595D01*
X120831D01*
X117498Y160094D02*
X119165D01*
X125829Y161760D02*
X124996Y162593D01*
X123330D01*
X122497Y161760D01*
Y160927D01*
X123330Y160094D01*
X124996D01*
X125829Y159261D01*
Y158428D01*
X124996Y157595D01*
X123330D01*
X122497Y158428D01*
X130827Y162593D02*
X127495D01*
Y157595D01*
X130827D01*
X127495Y160094D02*
X129161D01*
X132493Y162593D02*
X135826D01*
X134160D01*
Y157595D01*
D17*
X397901Y217126D02*
Y213977D01*
X400000D01*
X401050D02*
X402099D01*
X401574D01*
Y217126D01*
X401050Y216601D01*
X115876Y243169D02*
Y240545D01*
X116401Y240020D01*
X117450D01*
X117975Y240545D01*
Y243169D01*
X121124D02*
X119025D01*
Y241595D01*
X120074Y242119D01*
X120599D01*
X121124Y241595D01*
Y240545D01*
X120599Y240020D01*
X119550D01*
X119025Y240545D01*
X128376Y259940D02*
Y256792D01*
X130475D01*
X133624D02*
X131525D01*
X133624Y258891D01*
Y259416D01*
X133099Y259940D01*
X132050D01*
X131525Y259416D01*
X201475Y394291D02*
X200426D01*
X200951D01*
Y391667D01*
X200426Y391142D01*
X199901D01*
X199376Y391667D01*
X204099Y391142D02*
Y394291D01*
X202525Y392717D01*
X204624D01*
X594926Y234644D02*
X594401Y235169D01*
X593351D01*
X592827Y234644D01*
Y234119D01*
X593351Y233594D01*
X594401D01*
X594926Y233070D01*
Y232545D01*
X594401Y232020D01*
X593351D01*
X592827Y232545D01*
X595975Y235169D02*
Y232020D01*
X597025Y233070D01*
X598074Y232020D01*
Y235169D01*
X599124Y232020D02*
X600173D01*
X599649D01*
Y235169D01*
X599124Y234644D01*
X459426Y127459D02*
X462574D01*
Y125885D01*
X462049Y125360D01*
X461000D01*
X460475Y125885D01*
Y127459D01*
Y126410D02*
X459426Y125360D01*
Y124311D02*
Y123261D01*
Y123786D01*
X462574D01*
X462049Y124311D01*
Y121687D02*
X462574Y121162D01*
Y120113D01*
X462049Y119588D01*
X461525D01*
X461000Y120113D01*
X460475Y119588D01*
X459950D01*
X459426Y120113D01*
Y121162D01*
X459950Y121687D01*
X460475D01*
X461000Y121162D01*
X461525Y121687D01*
X462049D01*
X461000Y121162D02*
Y120113D01*
X415876Y366700D02*
Y364076D01*
X416401Y363552D01*
X417451D01*
X417975Y364076D01*
Y366700D01*
X421124Y363552D02*
X419025D01*
X421124Y365651D01*
Y366176D01*
X420599Y366700D01*
X419550D01*
X419025Y366176D01*
X115074Y210159D02*
X111926D01*
Y211733D01*
X112451Y212258D01*
X113500D01*
X114025Y211733D01*
Y210159D01*
Y211208D02*
X115074Y212258D01*
Y213307D02*
Y214357D01*
Y213832D01*
X111926D01*
X112451Y213307D01*
X111926Y215931D02*
Y218030D01*
X112451D01*
X114550Y215931D01*
X115074D01*
X133951Y212429D02*
X133426Y211904D01*
Y210854D01*
X133951Y210330D01*
X136050D01*
X136575Y210854D01*
Y211904D01*
X136050Y212429D01*
X136575Y215577D02*
Y213478D01*
X134476Y215577D01*
X133951D01*
X133426Y215052D01*
Y214003D01*
X133951Y213478D01*
Y216627D02*
X133426Y217151D01*
Y218201D01*
X133951Y218726D01*
X134476D01*
X135001Y218201D01*
X135525Y218726D01*
X136050D01*
X136575Y218201D01*
Y217151D01*
X136050Y216627D01*
X135525D01*
X135001Y217151D01*
X134476Y216627D01*
X133951D01*
X135001Y217151D02*
Y218201D01*
X128901Y264829D02*
X128376Y265354D01*
X127327D01*
X126802Y264829D01*
Y262730D01*
X127327Y262205D01*
X128376D01*
X128901Y262730D01*
X132050Y262205D02*
X129950D01*
X132050Y264304D01*
Y264829D01*
X131525Y265354D01*
X130475D01*
X129950Y264829D01*
X133099Y265354D02*
X135198D01*
Y264829D01*
X133099Y262730D01*
Y262205D01*
X190426Y88070D02*
Y87020D01*
Y87545D01*
X193050D01*
X193574Y87020D01*
Y86495D01*
X193050Y85971D01*
X190951Y89119D02*
X190426Y89644D01*
Y90693D01*
X190951Y91218D01*
X191475D01*
X192000Y90693D01*
Y90169D01*
Y90693D01*
X192525Y91218D01*
X193050D01*
X193574Y90693D01*
Y89644D01*
X193050Y89119D01*
X141599Y301149D02*
X140550D01*
X141074D01*
Y298525D01*
X140550Y298000D01*
X140025D01*
X139500Y298525D01*
X144748Y298000D02*
X142649D01*
X144748Y300099D01*
Y300624D01*
X144223Y301149D01*
X143173D01*
X142649Y300624D01*
X591604Y268764D02*
X593830Y270991D01*
X594943Y269877D01*
Y269135D01*
X594201Y268393D01*
X593459D01*
X592346Y269506D01*
X593088Y268764D02*
X593088Y267280D01*
X593830Y266538D02*
X594572Y265796D01*
X594201Y266167D01*
X596428Y268393D01*
X595685D01*
X599396Y265425D02*
X598283Y265796D01*
X596799D01*
X596057Y265054D01*
Y264312D01*
X596799Y263569D01*
X597541D01*
X597912Y263940D01*
Y264683D01*
X596799Y265796D01*
X595604Y272764D02*
X597830Y274991D01*
X598943Y273877D01*
Y273135D01*
X598201Y272393D01*
X597459D01*
X596346Y273506D01*
X597088Y272764D02*
X597088Y271280D01*
X597830Y270538D02*
X598572Y269796D01*
X598201Y270167D01*
X600428Y272393D01*
X599685D01*
X603396Y269425D02*
X601912Y270909D01*
X600799Y269796D01*
X601912Y269425D01*
X602283Y269054D01*
Y268312D01*
X601541Y267569D01*
X600799D01*
X600057Y268312D01*
Y269054D01*
X612074Y252225D02*
X608926D01*
Y250651D01*
X609450Y250126D01*
X611550D01*
X612074Y250651D01*
Y252225D01*
X608926Y249077D02*
Y248027D01*
Y248552D01*
X612074D01*
X611550Y249077D01*
X580426Y208030D02*
X583574D01*
Y206456D01*
X583049Y205931D01*
X582000D01*
X581475Y206456D01*
Y208030D01*
Y206981D02*
X580426Y205931D01*
Y204882D02*
Y203832D01*
Y204357D01*
X583574D01*
X583049Y204882D01*
X580426Y200683D02*
X583574D01*
X582000Y202258D01*
Y200159D01*
X580426Y193530D02*
X583574D01*
Y191956D01*
X583049Y191431D01*
X582000D01*
X581475Y191956D01*
Y193530D01*
Y192481D02*
X580426Y191431D01*
Y190382D02*
Y189332D01*
Y189857D01*
X583574D01*
X583049Y190382D01*
Y187758D02*
X583574Y187233D01*
Y186184D01*
X583049Y185659D01*
X582525D01*
X582000Y186184D01*
Y186708D01*
Y186184D01*
X581475Y185659D01*
X580950D01*
X580426Y186184D01*
Y187233D01*
X580950Y187758D01*
X230376Y324169D02*
Y321545D01*
X230901Y321020D01*
X231950D01*
X232475Y321545D01*
Y324169D01*
X235099Y321020D02*
Y324169D01*
X233525Y322594D01*
X235624D01*
X426376Y307677D02*
Y305053D01*
X426901Y304528D01*
X427950D01*
X428475Y305053D01*
Y307677D01*
X429525Y307152D02*
X430050Y307677D01*
X431099D01*
X431624Y307152D01*
Y306627D01*
X431099Y306102D01*
X430574D01*
X431099D01*
X431624Y305578D01*
Y305053D01*
X431099Y304528D01*
X430050D01*
X429525Y305053D01*
X118950Y149594D02*
X118426Y149070D01*
Y148020D01*
X118950Y147495D01*
X119475D01*
X120000Y148020D01*
Y149070D01*
X120525Y149594D01*
X121049D01*
X121574Y149070D01*
Y148020D01*
X121049Y147495D01*
X121574Y150644D02*
Y151693D01*
Y151169D01*
X118426D01*
X118950Y150644D01*
X398064Y223052D02*
Y226200D01*
X399639D01*
X400163Y225676D01*
Y224626D01*
X399639Y224101D01*
X398064D01*
X399114D02*
X400163Y223052D01*
X401213D02*
X402262D01*
X401738D01*
Y226200D01*
X401213Y225676D01*
X405936Y223052D02*
X403837D01*
X405936Y225151D01*
Y225676D01*
X405411Y226200D01*
X404361D01*
X403837Y225676D01*
X428589Y243997D02*
Y247145D01*
X430163D01*
X430688Y246620D01*
Y245571D01*
X430163Y245046D01*
X428589D01*
X429639D02*
X430688Y243997D01*
X431738D02*
X432787D01*
X432262D01*
Y247145D01*
X431738Y246620D01*
X434361Y243997D02*
X435411D01*
X434886D01*
Y247145D01*
X434361Y246620D01*
X427064Y264174D02*
Y267322D01*
X428639D01*
X429163Y266798D01*
Y265748D01*
X428639Y265223D01*
X427064D01*
X428114D02*
X429163Y264174D01*
X430213D02*
X431262D01*
X430738D01*
Y267322D01*
X430213Y266798D01*
X432837D02*
X433361Y267322D01*
X434411D01*
X434936Y266798D01*
Y264699D01*
X434411Y264174D01*
X433361D01*
X432837Y264699D01*
Y266798D01*
X429376Y234154D02*
Y237303D01*
X430950D01*
X431475Y236778D01*
Y235728D01*
X430950Y235204D01*
X429376D01*
X430426D02*
X431475Y234154D01*
X432525Y234679D02*
X433049Y234154D01*
X434099D01*
X434624Y234679D01*
Y236778D01*
X434099Y237303D01*
X433049D01*
X432525Y236778D01*
Y236253D01*
X433049Y235728D01*
X434624D01*
X243876Y133760D02*
Y136909D01*
X245450D01*
X245975Y136384D01*
Y135335D01*
X245450Y134810D01*
X243876D01*
X244926D02*
X245975Y133760D01*
X247025Y136384D02*
X247550Y136909D01*
X248599D01*
X249124Y136384D01*
Y135859D01*
X248599Y135335D01*
X249124Y134810D01*
Y134285D01*
X248599Y133760D01*
X247550D01*
X247025Y134285D01*
Y134810D01*
X247550Y135335D01*
X247025Y135859D01*
Y136384D01*
X247550Y135335D02*
X248599D01*
X412376Y330119D02*
Y333267D01*
X413950D01*
X414475Y332742D01*
Y331693D01*
X413950Y331168D01*
X412376D01*
X413426D02*
X414475Y330119D01*
X415525Y333267D02*
X417624D01*
Y332742D01*
X415525Y330643D01*
Y330119D01*
X419426Y392563D02*
Y391513D01*
Y392038D01*
X422050D01*
X422574Y391513D01*
Y390989D01*
X422050Y390464D01*
X422574Y393613D02*
Y394662D01*
Y394137D01*
X419426D01*
X419950Y393613D01*
X436901Y218176D02*
X436376Y218700D01*
X435327D01*
X434802Y218176D01*
Y216076D01*
X435327Y215552D01*
X436376D01*
X436901Y216076D01*
X440050Y215552D02*
X437951D01*
X440050Y217651D01*
Y218176D01*
X439525Y218700D01*
X438475D01*
X437951Y218176D01*
X443198Y218700D02*
X442149Y218176D01*
X441099Y217126D01*
Y216076D01*
X441624Y215552D01*
X442673D01*
X443198Y216076D01*
Y216601D01*
X442673Y217126D01*
X441099D01*
X437401Y210676D02*
X436876Y211200D01*
X435827D01*
X435302Y210676D01*
Y208576D01*
X435827Y208052D01*
X436876D01*
X437401Y208576D01*
X440550Y208052D02*
X438450D01*
X440550Y210151D01*
Y210676D01*
X440025Y211200D01*
X438975D01*
X438450Y210676D01*
X443698Y211200D02*
X441599D01*
Y209626D01*
X442649Y210151D01*
X443173D01*
X443698Y209626D01*
Y208576D01*
X443173Y208052D01*
X442124D01*
X441599Y208576D01*
X398901Y208727D02*
X398376Y209251D01*
X397327D01*
X396802Y208727D01*
Y206628D01*
X397327Y206103D01*
X398376D01*
X398901Y206628D01*
X402049Y206103D02*
X399951D01*
X402049Y208202D01*
Y208727D01*
X401525Y209251D01*
X400475D01*
X399951Y208727D01*
X404673Y206103D02*
Y209251D01*
X403099Y207677D01*
X405198D01*
X161099Y152224D02*
X160574Y152749D01*
X159525D01*
X159000Y152224D01*
Y150125D01*
X159525Y149600D01*
X160574D01*
X161099Y150125D01*
X162149Y149600D02*
X163198D01*
X162673D01*
Y152749D01*
X162149Y152224D01*
X164772D02*
X165297Y152749D01*
X166347D01*
X166872Y152224D01*
Y150125D01*
X166347Y149600D01*
X165297D01*
X164772Y150125D01*
Y152224D01*
X456451Y361070D02*
X455926Y360545D01*
Y359495D01*
X456451Y358971D01*
X458549D01*
X459074Y359495D01*
Y360545D01*
X458549Y361070D01*
Y362119D02*
X459074Y362644D01*
Y363693D01*
X458549Y364218D01*
X456451D01*
X455926Y363693D01*
Y362644D01*
X456451Y362119D01*
X456975D01*
X457500Y362644D01*
Y364218D01*
X448451Y361070D02*
X447926Y360545D01*
Y359495D01*
X448451Y358971D01*
X450550D01*
X451074Y359495D01*
Y360545D01*
X450550Y361070D01*
X448451Y362119D02*
X447926Y362644D01*
Y363693D01*
X448451Y364218D01*
X448975D01*
X449500Y363693D01*
X450025Y364218D01*
X450550D01*
X451074Y363693D01*
Y362644D01*
X450550Y362119D01*
X450025D01*
X449500Y362644D01*
X448975Y362119D01*
X448451D01*
X449500Y362644D02*
Y363693D01*
X411950Y349601D02*
X411426Y349077D01*
Y348027D01*
X411950Y347502D01*
X414049D01*
X414574Y348027D01*
Y349077D01*
X414049Y349601D01*
X411426Y350651D02*
Y352750D01*
X411950D01*
X414049Y350651D01*
X414574D01*
X419475Y106857D02*
X418951Y107381D01*
X417901D01*
X417376Y106857D01*
Y104758D01*
X417901Y104233D01*
X418951D01*
X419475Y104758D01*
X422099Y104233D02*
Y107381D01*
X420525Y105807D01*
X422624D01*
X419475Y99050D02*
X418951Y99574D01*
X417901D01*
X417376Y99050D01*
Y96951D01*
X417901Y96426D01*
X418951D01*
X419475Y96951D01*
X420525Y99050D02*
X421049Y99574D01*
X422099D01*
X422624Y99050D01*
Y98525D01*
X422099Y98000D01*
X421574D01*
X422099D01*
X422624Y97475D01*
Y96951D01*
X422099Y96426D01*
X421049D01*
X420525Y96951D01*
D18*
X110500Y238260D02*
X113832Y234928D01*
X110500D02*
X113832Y238260D01*
X110500Y236594D02*
X113832D01*
X112166Y234928D02*
Y238260D01*
X440000Y338961D02*
X436668Y342293D01*
X440000D02*
X436668Y338961D01*
X440000Y340627D02*
X436668D01*
X438334Y342293D02*
Y338961D01*
D19*
X215130Y344779D02*
Y342681D01*
X226370Y343730D02*
X224271D01*
X225321Y342681D02*
Y344779D01*
X233630Y345779D02*
X236778D01*
Y344205D01*
X236254Y343681D01*
X235204D01*
X234679Y344205D01*
Y345779D01*
X236778Y342631D02*
X233630D01*
X234679Y341581D01*
X233630Y340532D01*
X236778D01*
X233630Y339482D02*
X236778D01*
X235729Y338433D01*
X236778Y337383D01*
X233630D01*
X203370Y122724D02*
X200221D01*
Y124299D01*
X200746Y124823D01*
X201796D01*
X202321Y124299D01*
Y122724D01*
X200221Y125873D02*
X203370D01*
X202321Y126923D01*
X203370Y127972D01*
X200221D01*
X203370Y129022D02*
X200221D01*
X201271Y130071D01*
X200221Y131121D01*
X203370D01*
X210630Y124774D02*
X212729D01*
X211679Y125823D02*
Y123724D01*
X221870D02*
Y125823D01*
D20*
X604482Y256425D02*
Y258025D01*
X603682Y257225D02*
X605281D01*
D21*
X261600Y361692D02*
Y353695D01*
Y356360D01*
X266932Y361692D01*
X262933Y357693D01*
X266932Y353695D01*
X269597D02*
Y359026D01*
X272263Y361692D01*
X274929Y359026D01*
Y353695D01*
Y357693D01*
X269597D01*
X277595Y353695D02*
Y361692D01*
X281593D01*
X282926Y360359D01*
Y357693D01*
X281593Y356360D01*
X277595D01*
X280261D02*
X282926Y353695D01*
X261600Y367195D02*
Y375192D01*
X264266Y372526D01*
X266932Y375192D01*
Y367195D01*
X269597D02*
Y372526D01*
X272263Y375192D01*
X274929Y372526D01*
Y367195D01*
Y371193D01*
X269597D01*
X277595Y367195D02*
Y375192D01*
X281593D01*
X282926Y373859D01*
Y371193D01*
X281593Y369860D01*
X277595D01*
X280261D02*
X282926Y367195D01*
X285592Y375192D02*
X288258D01*
X286925D01*
Y367195D01*
X285592D01*
X288258D01*
X296255Y375192D02*
X293590D01*
X292257Y373859D01*
Y368527D01*
X293590Y367195D01*
X296255D01*
X297588Y368527D01*
Y373859D01*
X296255Y375192D01*
M02*
