G04*
G04 #@! TF.GenerationSoftware,Altium Limited,Altium Designer,25.8.1 (18)*
G04*
G04 Layer_Color=8388736*
%FSLAX25Y25*%
%MOIN*%
G70*
G04*
G04 #@! TF.SameCoordinates,E1838567-EF02-44A7-8A02-23B903FEE0B8*
G04*
G04*
G04 #@! TF.FilePolarity,Negative*
G04*
G01*
G75*
%ADD22R,0.03762X0.05709*%
%ADD23R,0.01200X0.01800*%
%ADD24R,0.01800X0.01200*%
%ADD26R,0.04000X0.04700*%
%ADD28R,0.04700X0.04000*%
%ADD30R,0.07700X0.04700*%
%ADD32R,0.01200X0.03200*%
%ADD33R,0.03200X0.01200*%
G04:AMPARAMS|DCode=35|XSize=40mil|YSize=47mil|CornerRadius=0mil|HoleSize=0mil|Usage=FLASHONLY|Rotation=315.000|XOffset=0mil|YOffset=0mil|HoleType=Round|Shape=Rectangle|*
%AMROTATEDRECTD35*
4,1,4,-0.03076,-0.00248,0.00248,0.03076,0.03076,0.00248,-0.00248,-0.03076,-0.03076,-0.00248,0.0*
%
%ADD35ROTATEDRECTD35*%

%ADD36R,0.03241X0.06587*%
G04:AMPARAMS|DCode=37|XSize=55.64mil|YSize=31.23mil|CornerRadius=9.81mil|HoleSize=0mil|Usage=FLASHONLY|Rotation=270.000|XOffset=0mil|YOffset=0mil|HoleType=Round|Shape=RoundedRectangle|*
%AMROUNDEDRECTD37*
21,1,0.05564,0.01161,0,0,270.0*
21,1,0.03602,0.03123,0,0,270.0*
1,1,0.01961,-0.00581,-0.01801*
1,1,0.01961,-0.00581,0.01801*
1,1,0.01961,0.00581,0.01801*
1,1,0.01961,0.00581,-0.01801*
%
%ADD37ROUNDEDRECTD37*%
%ADD38R,0.02270X0.01384*%
%ADD39C,0.07874*%
%ADD40R,0.01384X0.02270*%
%ADD41R,0.03950X0.03950*%
%ADD42R,0.08500X0.12400*%
%ADD43R,0.06587X0.03241*%
%ADD44C,0.07296*%
%ADD45C,0.06200*%
%ADD46C,0.14383*%
%ADD47C,0.10209*%
%ADD48C,0.13280*%
%ADD49C,0.06737*%
%ADD50R,0.06737X0.06737*%
%ADD51C,0.08477*%
%ADD52C,0.20000*%
%ADD53C,0.13000*%
%ADD54C,0.26000*%
G36*
X437000Y348926D02*
X434000D01*
Y346076D01*
X435000D01*
Y347376D01*
X436000D01*
Y346076D01*
X437000D01*
Y348926D01*
D02*
G37*
G36*
Y361326D02*
X434000D01*
Y364176D01*
X435000D01*
Y362876D01*
X436000D01*
Y364176D01*
X437000D01*
Y361326D01*
D02*
G37*
D22*
X416850Y215551D02*
D03*
X409150D02*
D03*
X134500Y243602D02*
D03*
X126801D02*
D03*
D23*
X119547Y236114D02*
D03*
X121516D02*
D03*
X123484D02*
D03*
X125453D02*
D03*
Y226075D02*
D03*
X123484D02*
D03*
X121516D02*
D03*
X119547D02*
D03*
D24*
X127520Y234047D02*
D03*
Y232079D02*
D03*
Y230110D02*
D03*
Y228142D02*
D03*
X117480D02*
D03*
Y230110D02*
D03*
Y232079D02*
D03*
Y234047D02*
D03*
D26*
X439650Y235595D02*
D03*
X238700Y135594D02*
D03*
X446000Y265595D02*
D03*
X439300D02*
D03*
X439650Y245595D02*
D03*
X446350D02*
D03*
X232000Y135594D02*
D03*
X446350Y235595D02*
D03*
X408850Y230626D02*
D03*
X402150D02*
D03*
D28*
X454000Y120745D02*
D03*
Y127445D02*
D03*
X575000Y201213D02*
D03*
Y207913D02*
D03*
Y186863D02*
D03*
Y193563D02*
D03*
X120000Y209745D02*
D03*
Y216444D02*
D03*
X414500Y318992D02*
D03*
Y325693D02*
D03*
D30*
X590000Y219937D02*
D03*
Y210094D02*
D03*
Y200252D02*
D03*
X612244D02*
D03*
Y210094D02*
D03*
Y219937D02*
D03*
D32*
X438453Y346476D02*
D03*
Y363776D02*
D03*
X432547D02*
D03*
Y346476D02*
D03*
D33*
X442200Y348236D02*
D03*
Y350205D02*
D03*
Y352173D02*
D03*
Y354142D02*
D03*
Y356110D02*
D03*
Y358079D02*
D03*
Y360047D02*
D03*
Y362016D02*
D03*
X428800D02*
D03*
Y360047D02*
D03*
Y358079D02*
D03*
Y356110D02*
D03*
Y354142D02*
D03*
Y352173D02*
D03*
Y350205D02*
D03*
Y348236D02*
D03*
D35*
X593500Y258626D02*
D03*
X588762Y263364D02*
D03*
X587869Y252757D02*
D03*
X583131Y257495D02*
D03*
D36*
X126563Y251969D02*
D03*
X424063Y217126D02*
D03*
X424000Y209626D02*
D03*
X416937Y207677D02*
D03*
X426063Y98126D02*
D03*
X433937D02*
D03*
X426063Y105595D02*
D03*
X433937D02*
D03*
X409063Y207677D02*
D03*
X431874Y209626D02*
D03*
X431937Y217126D02*
D03*
X134437Y251969D02*
D03*
D37*
X432240Y312685D02*
D03*
Y322567D02*
D03*
X428500D02*
D03*
X424760D02*
D03*
Y312685D02*
D03*
D38*
X423577Y224581D02*
D03*
X414423Y230486D02*
D03*
Y228518D02*
D03*
Y226549D02*
D03*
Y224581D02*
D03*
X423577Y226549D02*
D03*
Y228518D02*
D03*
Y230486D02*
D03*
D39*
X188000Y405118D02*
D03*
Y55020D02*
D03*
X645500Y405118D02*
D03*
Y55020D02*
D03*
D40*
X417031Y223941D02*
D03*
X419000D02*
D03*
X420968D02*
D03*
Y231126D02*
D03*
X419000D02*
D03*
X417031D02*
D03*
D41*
X604500Y246976D02*
D03*
Y253276D02*
D03*
D42*
X435500Y355126D02*
D03*
D43*
X134501Y222091D02*
D03*
Y229965D02*
D03*
X421000Y346189D02*
D03*
Y354063D02*
D03*
X449500Y348189D02*
D03*
Y356063D02*
D03*
X457500Y348252D02*
D03*
Y356126D02*
D03*
X162000Y137157D02*
D03*
Y145031D02*
D03*
D44*
X152500Y274095D02*
D03*
X162500D02*
D03*
Y264094D02*
D03*
X152500D02*
D03*
X162500Y254095D02*
D03*
X152500D02*
D03*
Y244094D02*
D03*
X162500D02*
D03*
X152500Y234095D02*
D03*
X162500D02*
D03*
X152500Y224095D02*
D03*
X162500D02*
D03*
X152500Y214094D02*
D03*
X162500D02*
D03*
X152500Y204095D02*
D03*
X162500D02*
D03*
X152500Y194095D02*
D03*
X162500D02*
D03*
X152500Y184095D02*
D03*
X162500D02*
D03*
D45*
X454000Y285595D02*
D03*
X224000Y245595D02*
D03*
X214000Y295595D02*
D03*
Y155595D02*
D03*
X215500Y350886D02*
D03*
X225500D02*
D03*
X235500D02*
D03*
X214000Y175594D02*
D03*
Y195595D02*
D03*
Y185594D02*
D03*
Y165594D02*
D03*
Y145595D02*
D03*
Y135594D02*
D03*
Y315595D02*
D03*
Y305594D02*
D03*
Y285595D02*
D03*
Y275594D02*
D03*
Y265595D02*
D03*
Y255594D02*
D03*
Y235595D02*
D03*
Y245595D02*
D03*
Y225594D02*
D03*
Y215595D02*
D03*
Y205594D02*
D03*
X224000Y175594D02*
D03*
Y165594D02*
D03*
Y155595D02*
D03*
Y145595D02*
D03*
Y315595D02*
D03*
Y305594D02*
D03*
Y295595D02*
D03*
Y285595D02*
D03*
Y275594D02*
D03*
Y265595D02*
D03*
Y255594D02*
D03*
Y235595D02*
D03*
Y225594D02*
D03*
Y215595D02*
D03*
Y205594D02*
D03*
Y195595D02*
D03*
Y185594D02*
D03*
Y135594D02*
D03*
X454000Y175594D02*
D03*
Y195595D02*
D03*
Y185594D02*
D03*
Y165594D02*
D03*
Y155595D02*
D03*
Y145595D02*
D03*
Y135594D02*
D03*
Y315595D02*
D03*
Y305594D02*
D03*
Y295595D02*
D03*
Y275594D02*
D03*
Y265595D02*
D03*
Y255594D02*
D03*
Y235595D02*
D03*
Y245595D02*
D03*
Y225594D02*
D03*
Y215595D02*
D03*
Y205594D02*
D03*
X464000Y175594D02*
D03*
Y165594D02*
D03*
Y155595D02*
D03*
Y145595D02*
D03*
Y315595D02*
D03*
Y305594D02*
D03*
Y295595D02*
D03*
Y285595D02*
D03*
Y275594D02*
D03*
Y265595D02*
D03*
Y255594D02*
D03*
Y245595D02*
D03*
Y235595D02*
D03*
Y225594D02*
D03*
Y215595D02*
D03*
Y205594D02*
D03*
Y195595D02*
D03*
Y185594D02*
D03*
Y135594D02*
D03*
X222000Y115594D02*
D03*
X212000D02*
D03*
X202000D02*
D03*
D46*
X483083Y120772D02*
D03*
X620917Y338094D02*
D03*
X389917Y338787D02*
D03*
X252083Y121465D02*
D03*
D47*
X483083Y370457D02*
D03*
X252083Y371150D02*
D03*
D48*
X552000Y120772D02*
D03*
Y338094D02*
D03*
X321000Y338787D02*
D03*
Y121465D02*
D03*
D49*
X126705Y150453D02*
D03*
X152295D02*
D03*
X126705Y132736D02*
D03*
D50*
X152295D02*
D03*
D51*
X441000Y384095D02*
D03*
X431000D02*
D03*
D52*
X199500Y150594D02*
D03*
Y375594D02*
D03*
D53*
X177000Y350594D02*
D03*
X122000Y173345D02*
D03*
Y283345D02*
D03*
X177000Y135594D02*
D03*
X654500Y270595D02*
D03*
Y205594D02*
D03*
D54*
X644500Y375594D02*
D03*
Y95595D02*
D03*
M02*
