G04*
G04 #@! TF.GenerationSoftware,Altium Limited,Altium Designer,25.8.1 (18)*
G04*
G04 Layer_Color=16711935*
%FSLAX25Y25*%
%MOIN*%
G70*
G04*
G04 #@! TF.SameCoordinates,E1838567-EF02-44A7-8A02-23B903FEE0B8*
G04*
G04*
G04 #@! TF.FilePolarity,Positive*
G04*
G01*
G75*
%ADD13C,0.00787*%
%ADD15C,0.00500*%
%ADD18C,0.00300*%
%ADD20C,0.00500*%
%ADD89C,0.00000*%
%ADD90C,0.00394*%
%ADD91C,0.00100*%
D13*
X411520Y230486D02*
G03*
X411520Y230486I-394J0D01*
G01*
X152689Y125831D02*
G03*
X152689Y125831I-394J0D01*
G01*
X433028Y327114D02*
G03*
X433028Y327114I-394J0D01*
G01*
X439843Y83433D02*
G03*
X439843Y83433I-394J0D01*
G01*
D15*
X496882Y69000D02*
Y72937D01*
X473693Y77740D02*
Y381126D01*
Y77740D02*
X630307D01*
X496882Y385929D02*
Y389866D01*
X473693Y381126D02*
X630307D01*
X494913Y387898D02*
X498850D01*
X607118Y69000D02*
Y72937D01*
X605150Y70969D02*
X609087D01*
X630307Y77740D02*
Y381126D01*
X607118Y385929D02*
Y389866D01*
X376118Y386622D02*
Y390559D01*
X399307Y78433D02*
Y381819D01*
X374150Y71661D02*
X378087D01*
X376118Y69693D02*
Y73630D01*
X242693Y381819D02*
X399307D01*
X265882Y386622D02*
Y390559D01*
X263913Y388591D02*
X267850D01*
X242693Y78433D02*
X399307D01*
X242693D02*
Y381819D01*
X265882Y69693D02*
Y73630D01*
X413095Y232455D02*
X424905D01*
Y222612D02*
Y232455D01*
X413095Y222612D02*
X424905D01*
X413095D02*
Y232455D01*
X151311Y129783D02*
Y153405D01*
X127689D02*
X151311D01*
X127689Y129783D02*
Y153405D01*
Y129783D02*
X151311D01*
X422791Y320776D02*
X434209D01*
X422791Y314476D02*
X434209D01*
Y320776D01*
X422791Y314476D02*
Y320776D01*
X436496Y68768D02*
Y86484D01*
X423504D02*
X436496D01*
X423504Y68768D02*
X436496D01*
X423504D02*
Y86484D01*
D18*
X118130Y236697D02*
X121463Y233365D01*
X118130D02*
X121463Y236697D01*
X118130Y235031D02*
X121463D01*
X119797Y233365D02*
Y236697D01*
X439703Y346411D02*
X436371Y349743D01*
X439703D02*
X436371Y346411D01*
X439703Y348077D02*
X436371D01*
X438037Y349743D02*
Y346411D01*
X445500Y144260D02*
X442168Y140928D01*
X445500D02*
X442168Y144260D01*
X445500Y142594D02*
X442168D01*
X443834Y140928D02*
Y144260D01*
D20*
X604482Y256425D02*
Y258025D01*
X603682Y257225D02*
X605281D01*
D89*
X409950Y215551D02*
G03*
X409950Y215551I-300J0D01*
G01*
X134300Y243602D02*
G03*
X134300Y243602I-300J0D01*
G01*
X594972Y219937D02*
G03*
X594972Y219937I-150J0D01*
G01*
X599922Y228594D02*
G03*
X602322Y228594I1200J0D01*
G01*
D90*
X174924Y283425D02*
G03*
X174924Y285394I17J984D01*
G01*
X174926Y172795D02*
G03*
X174926Y174764I34J984D01*
G01*
X174924Y228110D02*
G03*
X174924Y230079I17J984D01*
G01*
X602925Y253276D02*
X606075D01*
X602925Y246976D02*
X606075D01*
X602925D02*
Y253276D01*
X606075Y246976D02*
Y253276D01*
X603949Y250559D02*
X605091D01*
X604500Y249614D02*
X605091Y250559D01*
X603949D02*
X604500Y249614D01*
X425213Y371299D02*
Y396890D01*
X446787D01*
Y371299D02*
Y396890D01*
X425213Y371299D02*
X446787D01*
X140079Y294173D02*
X174921D01*
Y285394D02*
Y294173D01*
Y174764D02*
Y283425D01*
Y164016D02*
Y172795D01*
X140079Y164016D02*
X174921D01*
X140079D02*
Y220236D01*
Y237953D02*
Y294173D01*
X170000Y168583D02*
Y289606D01*
X145000Y168583D02*
X170000D01*
X145000D02*
Y220236D01*
Y237953D02*
Y289606D01*
X145059D01*
X170000D01*
X172362Y166201D02*
Y291988D01*
X142638Y166201D02*
X172362D01*
X142638D02*
Y220236D01*
Y237953D02*
Y291988D01*
X172362D01*
X169980Y289567D02*
X172343Y291968D01*
X142657D02*
X145059Y289606D01*
X142657Y166260D02*
X145020Y168661D01*
X169902Y168622D02*
X172303Y166260D01*
X142638Y237953D02*
X145000D01*
X140197D02*
X142559D01*
X142638Y220236D02*
X145000D01*
X140118D02*
X142480D01*
D91*
X408669Y212697D02*
Y218406D01*
X417331D01*
Y212697D02*
Y218406D01*
X408669Y212697D02*
X417331D01*
X414968Y218406D02*
X417331D01*
Y212697D02*
Y218406D01*
X414968Y212697D02*
X417331D01*
X414968D02*
Y218406D01*
X408669Y212697D02*
X411031D01*
X408669D02*
Y218406D01*
X411031D01*
Y212697D02*
Y218406D01*
X116600Y225195D02*
Y236995D01*
X128400D01*
Y225195D02*
Y236995D01*
X116600Y225195D02*
X128400D01*
X116600Y231995D02*
X121600Y236995D01*
X134981Y240748D02*
Y246457D01*
X126320Y240748D02*
X134981D01*
X126320D02*
Y246457D01*
X134981D01*
X126320Y240748D02*
X128682D01*
X126320D02*
Y246457D01*
X128682D01*
Y240748D02*
Y246457D01*
X132619D02*
X134981D01*
Y240748D02*
Y246457D01*
X132619Y240748D02*
X134981D01*
X132619D02*
Y246457D01*
X210500Y399294D02*
X240500D01*
X210500Y357894D02*
Y399294D01*
Y357894D02*
X240500D01*
Y399294D01*
X444000Y263245D02*
Y267945D01*
Y263245D02*
X446600D01*
Y267945D01*
X444000D02*
X446600D01*
X441300Y263245D02*
Y267945D01*
X438700D02*
X441300D01*
X438700Y263245D02*
Y267945D01*
Y263245D02*
X441300D01*
X438700Y267945D02*
X446600D01*
X438700Y263245D02*
Y267945D01*
Y263245D02*
X446600D01*
Y267945D01*
X439050Y243245D02*
X441650D01*
X444350D02*
Y247944D01*
Y243245D02*
X446950D01*
X439050D02*
Y247944D01*
Y243245D02*
Y247944D01*
X441650Y243245D02*
Y247944D01*
X439050D02*
X441650D01*
X439050Y243245D02*
X446950D01*
X439050Y247944D02*
X446950D01*
Y243245D02*
Y247944D01*
X444350D02*
X446950D01*
Y243245D02*
Y247944D01*
X593822Y191595D02*
X608422D01*
Y228594D01*
X593822D02*
X608422D01*
X593822Y191595D02*
Y228594D01*
X451650Y125444D02*
X456350D01*
Y128044D01*
X451650D02*
X456350D01*
X451650Y125444D02*
Y128044D01*
Y122745D02*
X456350D01*
X451650Y120144D02*
Y122745D01*
Y120144D02*
X456350D01*
Y122745D01*
X451650Y120144D02*
Y128044D01*
Y120144D02*
X456350D01*
Y128044D01*
X451650D02*
X456350D01*
X572650Y203213D02*
X577350D01*
X572650Y200613D02*
Y203213D01*
Y200613D02*
X577350D01*
Y203213D01*
X572650Y205913D02*
X577350D01*
Y208513D01*
X572650D02*
X577350D01*
X572650Y205913D02*
Y208513D01*
X577350Y200613D02*
Y208513D01*
X572650D02*
X577350D01*
X572650Y200613D02*
Y208513D01*
Y200613D02*
X577350D01*
X572650Y188863D02*
X577350D01*
X572650Y186263D02*
Y188863D01*
Y186263D02*
X577350D01*
Y188863D01*
X572650Y191563D02*
X577350D01*
Y194163D01*
X572650D02*
X577350D01*
X572650Y191563D02*
Y194163D01*
X577350Y186263D02*
Y194163D01*
X572650D02*
X577350D01*
X572650Y186263D02*
Y194163D01*
Y186263D02*
X577350D01*
X437600Y346076D02*
X442600Y351076D01*
X428400Y364176D02*
X442600D01*
X428400Y346076D02*
Y364176D01*
Y346076D02*
X442600D01*
Y364176D01*
X434600Y148594D02*
X438400D01*
Y132095D02*
Y148594D01*
X434600Y132095D02*
X438400D01*
X434600D02*
Y148594D01*
X424600D02*
X428400D01*
Y132095D02*
Y148594D01*
X424600Y132095D02*
X428400D01*
X424600D02*
Y148594D01*
X414600D02*
X418400D01*
Y132095D02*
Y148594D01*
X414600Y132095D02*
X418400D01*
X414600D02*
Y148594D01*
X406000D02*
X447000D01*
X406000D02*
Y188594D01*
X447000D01*
Y148594D02*
Y188594D01*
X117650Y211744D02*
X122350D01*
X117650Y209144D02*
Y211744D01*
Y209144D02*
X122350D01*
Y211744D01*
X117650Y214444D02*
X122350D01*
Y217044D01*
X117650D02*
X122350D01*
X117650Y214444D02*
Y217044D01*
X122350Y209144D02*
Y217044D01*
X117650D02*
X122350D01*
X117650Y209144D02*
Y217044D01*
Y209144D02*
X122350D01*
X197000Y67186D02*
X227000D01*
Y108587D01*
X197000D02*
X227000D01*
X197000Y67186D02*
Y108587D01*
X455350Y76976D02*
Y79576D01*
X450650Y74276D02*
X455350D01*
Y71676D02*
Y74276D01*
X450650Y79576D02*
X455350D01*
X450650D02*
X455350D01*
X450650Y76976D02*
X455350D01*
X450650D02*
Y79576D01*
X455350Y71676D02*
Y79576D01*
X450650Y71676D02*
Y79576D01*
Y71676D02*
X455350D01*
X450650D02*
Y74276D01*
Y71676D02*
X455350D01*
X448045Y110463D02*
X449884Y112302D01*
X451793Y114211D02*
X455116Y110887D01*
X451793Y114211D02*
X453631Y116049D01*
X448045Y110463D02*
X451369Y107140D01*
X448045Y110463D02*
X451369Y107140D01*
X449884Y112302D02*
X453207Y108978D01*
X451369Y107140D02*
X453207Y108978D01*
X448045Y110463D02*
X453631Y116049D01*
X451369Y107140D02*
X456955Y112726D01*
X453631Y116049D02*
X456955Y112726D01*
X455116Y110887D02*
X456955Y112726D01*
X453631Y116049D02*
X456955Y112726D01*
X425950Y90276D02*
Y94976D01*
X418050D02*
X425950D01*
X418050Y90276D02*
Y94976D01*
Y90276D02*
X425950D01*
X418050Y94976D02*
X420650D01*
X418050Y90276D02*
Y94976D01*
Y90276D02*
X420650D01*
Y94976D01*
X423350Y90276D02*
X425950D01*
Y94976D01*
X423350D02*
X425950D01*
X423350Y90276D02*
Y94976D01*
X443150Y76976D02*
X447850D01*
X443150D02*
Y79576D01*
X447850D01*
Y76976D02*
Y79576D01*
X443150Y74276D02*
X447850D01*
Y71676D02*
Y74276D01*
X443150Y71676D02*
X447850D01*
X443150D02*
Y74276D01*
X447850Y71676D02*
Y79576D01*
X443150Y71676D02*
X447850D01*
X443150D02*
Y79576D01*
X447850D01*
X444550Y83776D02*
Y88476D01*
Y83776D02*
X452450D01*
Y88476D01*
X444550D02*
X452450D01*
X449850Y83776D02*
X452450D01*
Y88476D01*
X449850D02*
X452450D01*
X449850Y83776D02*
Y88476D01*
X444550D02*
X447150D01*
X444550Y83776D02*
Y88476D01*
Y83776D02*
X447150D01*
Y88476D01*
X458400Y83776D02*
Y88476D01*
Y83776D02*
X466300D01*
Y88476D01*
X458400D02*
X466300D01*
X463700Y83776D02*
X466300D01*
Y88476D01*
X463700D02*
X466300D01*
X463700Y83776D02*
Y88476D01*
X458400D02*
X461000D01*
X458400Y83776D02*
Y88476D01*
Y83776D02*
X461000D01*
Y88476D01*
X412150Y320992D02*
X416850D01*
X412150Y318392D02*
Y320992D01*
Y318392D02*
X416850D01*
Y320992D01*
X412150Y323692D02*
X416850D01*
Y326292D01*
X412150D02*
X416850D01*
X412150Y323692D02*
Y326292D01*
X416850Y318392D02*
Y326292D01*
X412150D02*
X416850D01*
X412150Y318392D02*
Y326292D01*
Y318392D02*
X416850D01*
X236700Y133245D02*
Y137944D01*
Y133245D02*
X239300D01*
Y137944D01*
X236700D02*
X239300D01*
X234000Y133245D02*
Y137944D01*
X231400D02*
X234000D01*
X231400Y133245D02*
Y137944D01*
Y133245D02*
X234000D01*
X231400Y137944D02*
X239300D01*
X231400Y133245D02*
Y137944D01*
Y133245D02*
X239300D01*
Y137944D01*
X441650Y233244D02*
Y237945D01*
X439050D02*
X441650D01*
X439050Y233244D02*
Y237945D01*
Y233244D02*
X441650D01*
X444350D02*
Y237945D01*
Y233244D02*
X446950D01*
Y237945D01*
X444350D02*
X446950D01*
X439050Y233244D02*
X446950D01*
Y237945D01*
X439050D02*
X446950D01*
X439050Y233244D02*
Y237945D01*
X406850Y232976D02*
X409450D01*
X404150Y228276D02*
Y232976D01*
X401550D02*
X404150D01*
X409450Y228276D02*
Y232976D01*
Y228276D02*
Y232976D01*
X406850Y228276D02*
Y232976D01*
Y228276D02*
X409450D01*
X401550Y232976D02*
X409450D01*
X401550Y228276D02*
X409450D01*
X401550D02*
Y232976D01*
Y228276D02*
X404150D01*
X401550D02*
Y232976D01*
X586676Y262126D02*
X590000Y265450D01*
X595586Y259863D01*
X592263Y256540D02*
X595586Y259863D01*
X586676Y262126D02*
X592263Y256540D01*
X593748Y261702D02*
X595586Y259863D01*
X592263Y256540D02*
X595586Y259863D01*
X590424Y258379D02*
X592263Y256540D01*
X590424Y258379D02*
X593748Y261702D01*
X586676Y262126D02*
X588515Y260288D01*
X586676Y262126D02*
X590000Y265450D01*
X591838Y263611D01*
X588515Y260288D02*
X591838Y263611D01*
X581045Y256257D02*
X584369Y259581D01*
X589955Y253995D01*
X586631Y250671D02*
X589955Y253995D01*
X581045Y256257D02*
X586631Y250671D01*
X588116Y255833D02*
X589955Y253995D01*
X586631Y250671D02*
X589955Y253995D01*
X584793Y252510D02*
X586631Y250671D01*
X584793Y252510D02*
X588116Y255833D01*
X581045Y256257D02*
X582884Y254419D01*
X581045Y256257D02*
X584369Y259581D01*
X586207Y257742D01*
X582884Y254419D02*
X586207Y257742D01*
M02*
