G04*
G04 #@! TF.GenerationSoftware,Altium Limited,Altium Designer,25.8.1 (18)*
G04*
G04 Layer_Color=16711935*
%FSLAX25Y25*%
%MOIN*%
G70*
G04*
G04 #@! TF.SameCoordinates,E1838567-EF02-44A7-8A02-23B903FEE0B8*
G04*
G04*
G04 #@! TF.FilePolarity,Negative*
G04*
G01*
G75*
%ADD26R,0.04000X0.04700*%
%ADD28R,0.04700X0.04000*%
%ADD43R,0.06587X0.03241*%
%ADD44C,0.07296*%
%ADD45C,0.06200*%
%ADD46C,0.14383*%
%ADD47C,0.10209*%
%ADD48C,0.13280*%
%ADD49C,0.06737*%
%ADD50R,0.06737X0.06737*%
%ADD51C,0.08477*%
%ADD52C,0.20000*%
%ADD53C,0.13000*%
%ADD54C,0.26000*%
G04:AMPARAMS|DCode=84|XSize=40mil|YSize=47mil|CornerRadius=0mil|HoleSize=0mil|Usage=FLASHONLY|Rotation=225.000|XOffset=0mil|YOffset=0mil|HoleType=Round|Shape=Rectangle|*
%AMROTATEDRECTD84*
4,1,4,-0.00248,0.03076,0.03076,-0.00248,0.00248,-0.03076,-0.03076,0.00248,-0.00248,0.03076,0.0*
%
%ADD84ROTATEDRECTD84*%

%ADD88R,0.25800X0.29698*%
G36*
X431319Y87465D02*
X431343D01*
X431362Y87461D01*
X431382Y87457D01*
X431402Y87449D01*
X431421Y87441D01*
X431441Y87433D01*
X431457Y87425D01*
X431476Y87417D01*
X431492Y87406D01*
X431512Y87394D01*
X431528Y87382D01*
X431543Y87366D01*
X431559Y87354D01*
X431571Y87339D01*
X431587Y87323D01*
X431598Y87307D01*
X431610Y87287D01*
X431622Y87272D01*
X431630Y87252D01*
X431638Y87236D01*
X431646Y87217D01*
X431653Y87197D01*
X431661Y87177D01*
X431665Y87157D01*
X431669Y87138D01*
Y87114D01*
X431673Y87094D01*
Y87075D01*
Y85303D01*
Y85283D01*
X431669Y85264D01*
Y85240D01*
X431665Y85220D01*
X431661Y85201D01*
X431653Y85181D01*
X431646Y85161D01*
X431638Y85142D01*
X431630Y85126D01*
X431622Y85106D01*
X431610Y85091D01*
X431598Y85071D01*
X431587Y85055D01*
X431571Y85039D01*
X431559Y85024D01*
X431543Y85012D01*
X431528Y84996D01*
X431512Y84984D01*
X431492Y84972D01*
X431476Y84961D01*
X431457Y84953D01*
X431441Y84945D01*
X431421Y84937D01*
X431402Y84929D01*
X431382Y84921D01*
X431362Y84917D01*
X431343Y84913D01*
X431319D01*
X431299Y84909D01*
X430472D01*
X430453Y84913D01*
X430429D01*
X430409Y84917D01*
X430390Y84921D01*
X430370Y84929D01*
X430350Y84937D01*
X430331Y84945D01*
X430315Y84953D01*
X430295Y84961D01*
X430279Y84972D01*
X430260Y84984D01*
X430244Y84996D01*
X430228Y85012D01*
X430213Y85024D01*
X430201Y85039D01*
X430185Y85055D01*
X430173Y85071D01*
X430161Y85091D01*
X430150Y85106D01*
X430142Y85126D01*
X430134Y85142D01*
X430126Y85161D01*
X430118Y85181D01*
X430110Y85201D01*
X430106Y85220D01*
X430102Y85240D01*
Y85264D01*
X430098Y85283D01*
Y85303D01*
Y87075D01*
Y87094D01*
X430102Y87114D01*
Y87138D01*
X430106Y87157D01*
X430110Y87177D01*
X430118Y87197D01*
X430126Y87217D01*
X430134Y87236D01*
X430142Y87252D01*
X430150Y87272D01*
X430161Y87287D01*
X430173Y87307D01*
X430185Y87323D01*
X430201Y87339D01*
X430213Y87354D01*
X430228Y87366D01*
X430244Y87382D01*
X430260Y87394D01*
X430279Y87406D01*
X430295Y87417D01*
X430315Y87425D01*
X430331Y87433D01*
X430350Y87441D01*
X430370Y87449D01*
X430390Y87457D01*
X430409Y87461D01*
X430429Y87465D01*
X430453D01*
X430472Y87468D01*
X431299D01*
X431319Y87465D01*
D02*
G37*
G36*
X433681D02*
X433705D01*
X433724Y87461D01*
X433744Y87457D01*
X433764Y87449D01*
X433783Y87441D01*
X433803Y87433D01*
X433819Y87425D01*
X433839Y87417D01*
X433854Y87406D01*
X433874Y87394D01*
X433890Y87382D01*
X433906Y87366D01*
X433921Y87354D01*
X433933Y87339D01*
X433949Y87323D01*
X433961Y87307D01*
X433972Y87287D01*
X433984Y87272D01*
X433992Y87252D01*
X434000Y87236D01*
X434008Y87217D01*
X434016Y87197D01*
X434024Y87177D01*
X434028Y87157D01*
X434031Y87138D01*
Y87114D01*
X434035Y87094D01*
Y87075D01*
Y86287D01*
Y86276D01*
Y86268D01*
X434039Y86256D01*
Y86248D01*
X434043Y86236D01*
Y86228D01*
X434047Y86216D01*
X434051Y86209D01*
X434055Y86197D01*
X434063Y86189D01*
X434067Y86181D01*
X434075Y86173D01*
X434079Y86165D01*
X434087Y86158D01*
X434094Y86150D01*
X434102Y86142D01*
X434110Y86134D01*
X434118Y86130D01*
X434126Y86122D01*
X434134Y86118D01*
X434142Y86110D01*
X434154Y86106D01*
X434161Y86102D01*
X434173Y86098D01*
X434181D01*
X434193Y86094D01*
X434201D01*
X434213Y86090D01*
X437106D01*
X437126Y86087D01*
X437150D01*
X437169Y86083D01*
X437189Y86079D01*
X437209Y86071D01*
X437228Y86063D01*
X437248Y86055D01*
X437264Y86047D01*
X437284Y86039D01*
X437299Y86027D01*
X437319Y86016D01*
X437335Y86004D01*
X437350Y85988D01*
X437366Y85976D01*
X437378Y85961D01*
X437394Y85945D01*
X437405Y85929D01*
X437417Y85909D01*
X437429Y85894D01*
X437437Y85874D01*
X437445Y85858D01*
X437453Y85839D01*
X437461Y85819D01*
X437468Y85799D01*
X437472Y85780D01*
X437476Y85760D01*
Y85736D01*
X437480Y85716D01*
Y85697D01*
Y85106D01*
Y85087D01*
X437476Y85067D01*
Y85043D01*
X437472Y85024D01*
X437468Y85004D01*
X437461Y84984D01*
X437453Y84965D01*
X437445Y84945D01*
X437437Y84929D01*
X437429Y84909D01*
X437417Y84894D01*
X437405Y84874D01*
X437394Y84858D01*
X437378Y84842D01*
X437366Y84827D01*
X437350Y84815D01*
X437335Y84799D01*
X437319Y84787D01*
X437299Y84776D01*
X437284Y84764D01*
X437264Y84756D01*
X437248Y84748D01*
X437228Y84740D01*
X437209Y84732D01*
X437189Y84724D01*
X437169Y84720D01*
X437150Y84716D01*
X437126D01*
X437106Y84713D01*
X432638D01*
X432618Y84716D01*
X432594D01*
X432575Y84720D01*
X432555Y84724D01*
X432535Y84732D01*
X432516Y84740D01*
X432496Y84748D01*
X432480Y84756D01*
X432461Y84764D01*
X432445Y84776D01*
X432425Y84787D01*
X432409Y84799D01*
X432394Y84815D01*
X432378Y84827D01*
X432366Y84842D01*
X432350Y84858D01*
X432339Y84874D01*
X432327Y84894D01*
X432315Y84909D01*
X432307Y84929D01*
X432299Y84945D01*
X432291Y84965D01*
X432283Y84984D01*
X432276Y85004D01*
X432272Y85024D01*
X432268Y85043D01*
Y85067D01*
X432264Y85087D01*
Y85106D01*
Y87075D01*
Y87094D01*
X432268Y87114D01*
Y87138D01*
X432272Y87157D01*
X432276Y87177D01*
X432283Y87197D01*
X432291Y87217D01*
X432299Y87236D01*
X432307Y87252D01*
X432315Y87272D01*
X432327Y87287D01*
X432339Y87307D01*
X432350Y87323D01*
X432366Y87339D01*
X432378Y87354D01*
X432394Y87366D01*
X432409Y87382D01*
X432425Y87394D01*
X432445Y87406D01*
X432461Y87417D01*
X432480Y87425D01*
X432496Y87433D01*
X432516Y87441D01*
X432535Y87449D01*
X432555Y87457D01*
X432575Y87461D01*
X432594Y87465D01*
X432618D01*
X432638Y87468D01*
X433661D01*
X433681Y87465D01*
D02*
G37*
G36*
X427382D02*
X427406D01*
X427425Y87461D01*
X427445Y87457D01*
X427465Y87449D01*
X427484Y87441D01*
X427504Y87433D01*
X427520Y87425D01*
X427539Y87417D01*
X427555Y87406D01*
X427575Y87394D01*
X427591Y87382D01*
X427606Y87366D01*
X427622Y87354D01*
X427634Y87339D01*
X427650Y87323D01*
X427661Y87307D01*
X427673Y87287D01*
X427685Y87272D01*
X427693Y87252D01*
X427701Y87236D01*
X427709Y87217D01*
X427716Y87197D01*
X427724Y87177D01*
X427728Y87157D01*
X427732Y87138D01*
Y87114D01*
X427736Y87094D01*
Y87075D01*
Y85106D01*
Y85087D01*
X427732Y85067D01*
Y85043D01*
X427728Y85024D01*
X427724Y85004D01*
X427716Y84984D01*
X427709Y84965D01*
X427701Y84945D01*
X427693Y84929D01*
X427685Y84909D01*
X427673Y84894D01*
X427661Y84874D01*
X427650Y84858D01*
X427634Y84842D01*
X427622Y84827D01*
X427606Y84815D01*
X427591Y84799D01*
X427575Y84787D01*
X427555Y84776D01*
X427539Y84764D01*
X427520Y84756D01*
X427504Y84748D01*
X427484Y84740D01*
X427465Y84732D01*
X427445Y84724D01*
X427425Y84720D01*
X427406Y84716D01*
X427382D01*
X427362Y84713D01*
X422894D01*
X422874Y84716D01*
X422850D01*
X422831Y84720D01*
X422811Y84724D01*
X422791Y84732D01*
X422772Y84740D01*
X422752Y84748D01*
X422736Y84756D01*
X422717Y84764D01*
X422701Y84776D01*
X422681Y84787D01*
X422665Y84799D01*
X422650Y84815D01*
X422634Y84827D01*
X422622Y84842D01*
X422606Y84858D01*
X422594Y84874D01*
X422583Y84894D01*
X422571Y84909D01*
X422563Y84929D01*
X422555Y84945D01*
X422547Y84965D01*
X422539Y84984D01*
X422532Y85004D01*
X422528Y85024D01*
X422524Y85043D01*
Y85067D01*
X422520Y85087D01*
Y85106D01*
Y85697D01*
Y85716D01*
X422524Y85736D01*
Y85760D01*
X422528Y85780D01*
X422532Y85799D01*
X422539Y85819D01*
X422547Y85839D01*
X422555Y85858D01*
X422563Y85874D01*
X422571Y85894D01*
X422583Y85909D01*
X422594Y85929D01*
X422606Y85945D01*
X422622Y85961D01*
X422634Y85976D01*
X422650Y85988D01*
X422665Y86004D01*
X422681Y86016D01*
X422701Y86027D01*
X422717Y86039D01*
X422736Y86047D01*
X422752Y86055D01*
X422772Y86063D01*
X422791Y86071D01*
X422811Y86079D01*
X422831Y86083D01*
X422850Y86087D01*
X422874D01*
X422894Y86090D01*
X425787D01*
X425799Y86094D01*
X425807D01*
X425819Y86098D01*
X425827D01*
X425839Y86102D01*
X425846Y86106D01*
X425858Y86110D01*
X425866Y86118D01*
X425874Y86122D01*
X425882Y86130D01*
X425890Y86134D01*
X425898Y86142D01*
X425906Y86150D01*
X425913Y86158D01*
X425921Y86165D01*
X425925Y86173D01*
X425933Y86181D01*
X425937Y86189D01*
X425945Y86197D01*
X425949Y86209D01*
X425953Y86216D01*
X425957Y86228D01*
Y86236D01*
X425961Y86248D01*
Y86256D01*
X425965Y86268D01*
Y86276D01*
Y86287D01*
Y87075D01*
Y87094D01*
X425969Y87114D01*
Y87138D01*
X425972Y87157D01*
X425976Y87177D01*
X425984Y87197D01*
X425992Y87217D01*
X426000Y87236D01*
X426008Y87252D01*
X426016Y87272D01*
X426028Y87287D01*
X426039Y87307D01*
X426051Y87323D01*
X426067Y87339D01*
X426079Y87354D01*
X426094Y87366D01*
X426110Y87382D01*
X426126Y87394D01*
X426146Y87406D01*
X426161Y87417D01*
X426181Y87425D01*
X426197Y87433D01*
X426217Y87441D01*
X426236Y87449D01*
X426256Y87457D01*
X426276Y87461D01*
X426295Y87465D01*
X426319D01*
X426339Y87468D01*
X427362D01*
X427382Y87465D01*
D02*
G37*
G36*
X437126Y84118D02*
X437150D01*
X437169Y84114D01*
X437189Y84110D01*
X437209Y84102D01*
X437228Y84095D01*
X437248Y84087D01*
X437264Y84079D01*
X437284Y84071D01*
X437299Y84059D01*
X437319Y84047D01*
X437335Y84035D01*
X437350Y84020D01*
X437366Y84008D01*
X437378Y83992D01*
X437394Y83976D01*
X437405Y83961D01*
X437417Y83941D01*
X437429Y83925D01*
X437437Y83906D01*
X437445Y83890D01*
X437453Y83870D01*
X437461Y83850D01*
X437468Y83831D01*
X437472Y83811D01*
X437476Y83791D01*
Y83768D01*
X437480Y83748D01*
Y83728D01*
Y83138D01*
Y83118D01*
X437476Y83098D01*
Y83075D01*
X437472Y83055D01*
X437468Y83035D01*
X437461Y83016D01*
X437453Y82996D01*
X437445Y82976D01*
X437437Y82961D01*
X437429Y82941D01*
X437417Y82925D01*
X437405Y82906D01*
X437394Y82890D01*
X437378Y82874D01*
X437366Y82858D01*
X437350Y82846D01*
X437335Y82831D01*
X437319Y82819D01*
X437299Y82807D01*
X437284Y82795D01*
X437264Y82787D01*
X437248Y82780D01*
X437228Y82772D01*
X437209Y82764D01*
X437189Y82756D01*
X437169Y82752D01*
X437150Y82748D01*
X437126D01*
X437106Y82744D01*
X434311D01*
X434291Y82748D01*
X434268D01*
X434248Y82752D01*
X434228Y82756D01*
X434209Y82764D01*
X434189Y82772D01*
X434169Y82780D01*
X434154Y82787D01*
X434134Y82795D01*
X434118Y82807D01*
X434098Y82819D01*
X434083Y82831D01*
X434067Y82846D01*
X434051Y82858D01*
X434039Y82874D01*
X434024Y82890D01*
X434012Y82906D01*
X434000Y82925D01*
X433988Y82941D01*
X433980Y82961D01*
X433972Y82976D01*
X433965Y82996D01*
X433957Y83016D01*
X433949Y83035D01*
X433945Y83055D01*
X433941Y83075D01*
Y83098D01*
X433937Y83118D01*
Y83138D01*
Y83728D01*
Y83748D01*
X433941Y83768D01*
Y83791D01*
X433945Y83811D01*
X433949Y83831D01*
X433957Y83850D01*
X433965Y83870D01*
X433972Y83890D01*
X433980Y83906D01*
X433988Y83925D01*
X434000Y83941D01*
X434012Y83961D01*
X434024Y83976D01*
X434039Y83992D01*
X434051Y84008D01*
X434067Y84020D01*
X434083Y84035D01*
X434098Y84047D01*
X434118Y84059D01*
X434134Y84071D01*
X434154Y84079D01*
X434169Y84087D01*
X434189Y84095D01*
X434209Y84102D01*
X434228Y84110D01*
X434248Y84114D01*
X434268Y84118D01*
X434291D01*
X434311Y84122D01*
X437106D01*
X437126Y84118D01*
D02*
G37*
G36*
X427276Y83921D02*
X427283D01*
X427295Y83917D01*
X427303D01*
X427315Y83913D01*
X427323Y83909D01*
X427335Y83906D01*
X427343Y83898D01*
X427350Y83894D01*
X427358Y83886D01*
X427366Y83882D01*
X427374Y83874D01*
X427382Y83866D01*
X427390Y83858D01*
X427398Y83850D01*
X427402Y83842D01*
X427410Y83835D01*
X427413Y83827D01*
X427421Y83819D01*
X427425Y83807D01*
X427429Y83799D01*
X427433Y83787D01*
Y83780D01*
X427437Y83768D01*
Y83760D01*
X427441Y83748D01*
Y83740D01*
Y83728D01*
Y81169D01*
Y81157D01*
Y81150D01*
X427437Y81138D01*
Y81130D01*
X427433Y81118D01*
Y81110D01*
X427429Y81098D01*
X427425Y81090D01*
X427421Y81079D01*
X427413Y81071D01*
X427410Y81063D01*
X427402Y81055D01*
X427398Y81047D01*
X427390Y81039D01*
X427382Y81032D01*
X427374Y81024D01*
X427366Y81016D01*
X427358Y81012D01*
X427350Y81004D01*
X427343Y81000D01*
X427335Y80992D01*
X427323Y80988D01*
X427315Y80984D01*
X427303Y80980D01*
X427295D01*
X427283Y80976D01*
X427276D01*
X427264Y80972D01*
X422894D01*
X422882Y80976D01*
X422874D01*
X422862Y80980D01*
X422854D01*
X422843Y80984D01*
X422835Y80988D01*
X422823Y80992D01*
X422815Y81000D01*
X422807Y81004D01*
X422799Y81012D01*
X422791Y81016D01*
X422784Y81024D01*
X422776Y81032D01*
X422768Y81039D01*
X422760Y81047D01*
X422756Y81055D01*
X422748Y81063D01*
X422744Y81071D01*
X422736Y81079D01*
X422732Y81090D01*
X422728Y81098D01*
X422724Y81110D01*
Y81118D01*
X422720Y81130D01*
Y81138D01*
X422717Y81150D01*
Y81157D01*
Y81169D01*
Y81760D01*
Y81772D01*
Y81779D01*
X422720Y81791D01*
Y81799D01*
X422724Y81811D01*
Y81819D01*
X422728Y81831D01*
X422732Y81839D01*
X422736Y81850D01*
X422744Y81858D01*
X422748Y81866D01*
X422756Y81874D01*
X422760Y81882D01*
X422768Y81890D01*
X422776Y81898D01*
X422784Y81906D01*
X422791Y81913D01*
X422799Y81917D01*
X422807Y81925D01*
X422815Y81929D01*
X422823Y81937D01*
X422835Y81941D01*
X422843Y81945D01*
X422854Y81949D01*
X422862D01*
X422874Y81953D01*
X422882D01*
X422894Y81957D01*
X424114D01*
X424126Y81961D01*
X424134D01*
X424146Y81965D01*
X424154D01*
X424165Y81968D01*
X424173Y81972D01*
X424185Y81976D01*
X424193Y81984D01*
X424201Y81988D01*
X424209Y81996D01*
X424217Y82000D01*
X424224Y82008D01*
X424232Y82016D01*
X424240Y82024D01*
X424248Y82032D01*
X424252Y82039D01*
X424260Y82047D01*
X424264Y82055D01*
X424272Y82063D01*
X424276Y82075D01*
X424279Y82083D01*
X424284Y82095D01*
Y82102D01*
X424287Y82114D01*
Y82122D01*
X424291Y82134D01*
Y82142D01*
Y82153D01*
Y82744D01*
Y82756D01*
Y82764D01*
X424287Y82776D01*
Y82784D01*
X424284Y82795D01*
Y82803D01*
X424279Y82815D01*
X424276Y82823D01*
X424272Y82835D01*
X424264Y82842D01*
X424260Y82850D01*
X424252Y82858D01*
X424248Y82866D01*
X424240Y82874D01*
X424232Y82882D01*
X424224Y82890D01*
X424217Y82898D01*
X424209Y82902D01*
X424201Y82909D01*
X424193Y82913D01*
X424185Y82921D01*
X424173Y82925D01*
X424165Y82929D01*
X424154Y82933D01*
X424146D01*
X424134Y82937D01*
X424126D01*
X424114Y82941D01*
X422894D01*
X422882Y82945D01*
X422874D01*
X422862Y82949D01*
X422854D01*
X422843Y82953D01*
X422835Y82957D01*
X422823Y82961D01*
X422815Y82968D01*
X422807Y82972D01*
X422799Y82980D01*
X422791Y82984D01*
X422784Y82992D01*
X422776Y83000D01*
X422768Y83008D01*
X422760Y83016D01*
X422756Y83024D01*
X422748Y83031D01*
X422744Y83039D01*
X422736Y83047D01*
X422732Y83059D01*
X422728Y83067D01*
X422724Y83079D01*
Y83087D01*
X422720Y83098D01*
Y83106D01*
X422717Y83118D01*
Y83126D01*
Y83138D01*
Y83728D01*
Y83740D01*
Y83748D01*
X422720Y83760D01*
Y83768D01*
X422724Y83780D01*
Y83787D01*
X422728Y83799D01*
X422732Y83807D01*
X422736Y83819D01*
X422744Y83827D01*
X422748Y83835D01*
X422756Y83842D01*
X422760Y83850D01*
X422768Y83858D01*
X422776Y83866D01*
X422784Y83874D01*
X422791Y83882D01*
X422799Y83886D01*
X422807Y83894D01*
X422815Y83898D01*
X422823Y83906D01*
X422835Y83909D01*
X422843Y83913D01*
X422854Y83917D01*
X422862D01*
X422874Y83921D01*
X422882D01*
X422894Y83925D01*
X427264D01*
X427276Y83921D01*
D02*
G37*
G36*
X437126Y82150D02*
X437150D01*
X437169Y82146D01*
X437189Y82142D01*
X437209Y82134D01*
X437228Y82126D01*
X437248Y82118D01*
X437264Y82110D01*
X437284Y82102D01*
X437299Y82091D01*
X437319Y82079D01*
X437335Y82067D01*
X437350Y82051D01*
X437366Y82039D01*
X437378Y82024D01*
X437394Y82008D01*
X437405Y81992D01*
X437417Y81972D01*
X437429Y81957D01*
X437437Y81937D01*
X437445Y81921D01*
X437453Y81902D01*
X437461Y81882D01*
X437468Y81862D01*
X437472Y81842D01*
X437476Y81823D01*
Y81799D01*
X437480Y81779D01*
Y81760D01*
Y81169D01*
Y81150D01*
X437476Y81130D01*
Y81106D01*
X437472Y81087D01*
X437468Y81067D01*
X437461Y81047D01*
X437453Y81028D01*
X437445Y81008D01*
X437437Y80992D01*
X437429Y80972D01*
X437417Y80957D01*
X437405Y80937D01*
X437394Y80921D01*
X437378Y80905D01*
X437366Y80890D01*
X437350Y80878D01*
X437335Y80862D01*
X437319Y80850D01*
X437299Y80839D01*
X437284Y80827D01*
X437264Y80819D01*
X437248Y80811D01*
X437228Y80803D01*
X437209Y80795D01*
X437189Y80787D01*
X437169Y80783D01*
X437150Y80779D01*
X437126D01*
X437106Y80776D01*
X434311D01*
X434291Y80779D01*
X434268D01*
X434248Y80783D01*
X434228Y80787D01*
X434209Y80795D01*
X434189Y80803D01*
X434169Y80811D01*
X434154Y80819D01*
X434134Y80827D01*
X434118Y80839D01*
X434098Y80850D01*
X434083Y80862D01*
X434067Y80878D01*
X434051Y80890D01*
X434039Y80905D01*
X434024Y80921D01*
X434012Y80937D01*
X434000Y80957D01*
X433988Y80972D01*
X433980Y80992D01*
X433972Y81008D01*
X433965Y81028D01*
X433957Y81047D01*
X433949Y81067D01*
X433945Y81087D01*
X433941Y81106D01*
Y81130D01*
X433937Y81150D01*
Y81169D01*
Y81760D01*
Y81779D01*
X433941Y81799D01*
Y81823D01*
X433945Y81842D01*
X433949Y81862D01*
X433957Y81882D01*
X433965Y81902D01*
X433972Y81921D01*
X433980Y81937D01*
X433988Y81957D01*
X434000Y81972D01*
X434012Y81992D01*
X434024Y82008D01*
X434039Y82024D01*
X434051Y82039D01*
X434067Y82051D01*
X434083Y82067D01*
X434098Y82079D01*
X434118Y82091D01*
X434134Y82102D01*
X434154Y82110D01*
X434169Y82118D01*
X434189Y82126D01*
X434209Y82134D01*
X434228Y82142D01*
X434248Y82146D01*
X434268Y82150D01*
X434291D01*
X434311Y82153D01*
X437106D01*
X437126Y82150D01*
D02*
G37*
G36*
X431319Y84315D02*
X431343D01*
X431362Y84311D01*
X431382Y84307D01*
X431402Y84299D01*
X431421Y84291D01*
X431441Y84284D01*
X431457Y84276D01*
X431476Y84268D01*
X431492Y84256D01*
X431512Y84244D01*
X431528Y84232D01*
X431543Y84216D01*
X431559Y84205D01*
X431571Y84189D01*
X431587Y84173D01*
X431598Y84158D01*
X431610Y84138D01*
X431622Y84122D01*
X431630Y84102D01*
X431638Y84087D01*
X431646Y84067D01*
X431653Y84047D01*
X431661Y84027D01*
X431665Y84008D01*
X431669Y83988D01*
Y83965D01*
X431673Y83945D01*
Y83925D01*
Y80984D01*
Y80972D01*
Y80961D01*
Y80953D01*
X431677Y80941D01*
Y80933D01*
Y80921D01*
X431681Y80909D01*
Y80902D01*
X431685Y80890D01*
Y80882D01*
X431689Y80870D01*
X431693Y80862D01*
X431697Y80850D01*
X431701Y80843D01*
X431705Y80831D01*
X431709Y80823D01*
X431713Y80815D01*
X431716Y80803D01*
X431720Y80795D01*
X431724Y80787D01*
X431732Y80776D01*
X431736Y80768D01*
X431744Y80760D01*
X431748Y80752D01*
X431756Y80744D01*
X431760Y80736D01*
X431768Y80728D01*
X431776Y80721D01*
X431779Y80713D01*
X431787Y80705D01*
X432189Y80303D01*
X432197Y80295D01*
X432205Y80287D01*
X432213Y80279D01*
X432221Y80276D01*
X432228Y80268D01*
X432236Y80264D01*
X432244Y80256D01*
X432256Y80252D01*
X432264Y80244D01*
X432272Y80240D01*
X432279Y80236D01*
X432291Y80228D01*
X432299Y80224D01*
X432307Y80221D01*
X432319Y80216D01*
X432327Y80213D01*
X432339Y80209D01*
X432346Y80205D01*
X432358D01*
X432366Y80201D01*
X432378Y80197D01*
X432386D01*
X432398Y80193D01*
X432406D01*
X432417Y80189D01*
X432461D01*
X432469Y80185D01*
X437126D01*
X437150Y80181D01*
X437169Y80177D01*
X437189Y80173D01*
X437209Y80169D01*
X437228Y80161D01*
X437248Y80154D01*
X437264Y80146D01*
X437284Y80134D01*
X437299Y80122D01*
X437319Y80110D01*
X437335Y80098D01*
X437350Y80087D01*
X437366Y80071D01*
X437378Y80055D01*
X437394Y80039D01*
X437405Y80024D01*
X437417Y80008D01*
X437429Y79992D01*
X437437Y79972D01*
X437445Y79953D01*
X437453Y79933D01*
X437461Y79913D01*
X437468Y79894D01*
X437472Y79874D01*
X437476Y79854D01*
Y79835D01*
X437480Y79815D01*
Y79791D01*
Y79106D01*
Y79083D01*
X437476Y79063D01*
Y79043D01*
X437472Y79024D01*
X437468Y79004D01*
X437461Y78984D01*
X437453Y78965D01*
X437445Y78945D01*
X437437Y78925D01*
X437429Y78905D01*
X437417Y78890D01*
X437405Y78874D01*
X437394Y78858D01*
X437378Y78843D01*
X437366Y78827D01*
X437350Y78811D01*
X437335Y78799D01*
X437319Y78787D01*
X437299Y78776D01*
X437284Y78764D01*
X437264Y78752D01*
X437248Y78744D01*
X437228Y78736D01*
X437209Y78728D01*
X437189Y78724D01*
X437169Y78720D01*
X437150Y78716D01*
X437126Y78713D01*
X430650D01*
X430626Y78716D01*
X430606Y78720D01*
X430587Y78724D01*
X430567Y78728D01*
X430547Y78736D01*
X430528Y78744D01*
X430512Y78752D01*
X430492Y78764D01*
X430476Y78776D01*
X430457Y78787D01*
X430441Y78799D01*
X430425Y78811D01*
X430409Y78827D01*
X430398Y78843D01*
X430382Y78858D01*
X430370Y78874D01*
X430358Y78890D01*
X430346Y78909D01*
X430339Y78925D01*
X430331Y78945D01*
X430323Y78965D01*
X430315Y78984D01*
X430307Y79004D01*
X430303Y79024D01*
X430299Y79043D01*
Y79063D01*
X430295Y79083D01*
Y79106D01*
Y83925D01*
Y83945D01*
X430299Y83965D01*
Y83988D01*
X430303Y84008D01*
X430307Y84027D01*
X430315Y84047D01*
X430323Y84067D01*
X430331Y84087D01*
X430339Y84102D01*
X430346Y84122D01*
X430358Y84138D01*
X430370Y84158D01*
X430382Y84173D01*
X430398Y84189D01*
X430409Y84205D01*
X430425Y84216D01*
X430441Y84232D01*
X430457Y84244D01*
X430476Y84256D01*
X430492Y84268D01*
X430512Y84276D01*
X430528Y84284D01*
X430547Y84291D01*
X430567Y84299D01*
X430587Y84307D01*
X430606Y84311D01*
X430626Y84315D01*
X430650D01*
X430669Y84319D01*
X431299D01*
X431319Y84315D01*
D02*
G37*
G36*
X435543Y77130D02*
X435551D01*
X435563Y77126D01*
X435571D01*
X435583Y77122D01*
X435591Y77118D01*
X435602Y77114D01*
X435610Y77106D01*
X435618Y77102D01*
X435626Y77095D01*
X435634Y77091D01*
X435642Y77083D01*
X435650Y77075D01*
X435658Y77067D01*
X435665Y77059D01*
X435669Y77051D01*
X435677Y77043D01*
X435681Y77035D01*
X435689Y77027D01*
X435693Y77016D01*
X435697Y77008D01*
X435701Y76996D01*
Y76988D01*
X435705Y76976D01*
Y76968D01*
X435709Y76957D01*
Y76949D01*
Y76937D01*
Y75697D01*
Y75685D01*
Y75677D01*
X435713Y75665D01*
Y75657D01*
X435716Y75646D01*
Y75638D01*
X435720Y75626D01*
X435724Y75618D01*
X435728Y75606D01*
X435736Y75598D01*
X435740Y75590D01*
X435748Y75583D01*
X435752Y75575D01*
X435760Y75567D01*
X435768Y75559D01*
X435776Y75551D01*
X435783Y75543D01*
X435791Y75539D01*
X435799Y75532D01*
X435807Y75528D01*
X435815Y75520D01*
X435827Y75516D01*
X435835Y75512D01*
X435847Y75508D01*
X435854D01*
X435866Y75504D01*
X435874D01*
X435886Y75500D01*
X437106D01*
X437118Y75496D01*
X437126D01*
X437138Y75492D01*
X437146D01*
X437157Y75488D01*
X437165Y75484D01*
X437177Y75480D01*
X437185Y75472D01*
X437193Y75468D01*
X437201Y75461D01*
X437209Y75457D01*
X437217Y75449D01*
X437224Y75441D01*
X437232Y75433D01*
X437240Y75425D01*
X437244Y75417D01*
X437252Y75409D01*
X437256Y75402D01*
X437264Y75394D01*
X437268Y75382D01*
X437272Y75374D01*
X437276Y75362D01*
Y75354D01*
X437280Y75343D01*
Y75335D01*
X437284Y75323D01*
Y75315D01*
Y75303D01*
Y74713D01*
Y74701D01*
Y74693D01*
X437280Y74681D01*
Y74673D01*
X437276Y74661D01*
Y74654D01*
X437272Y74642D01*
X437268Y74634D01*
X437264Y74622D01*
X437256Y74614D01*
X437252Y74606D01*
X437244Y74598D01*
X437240Y74590D01*
X437232Y74583D01*
X437224Y74575D01*
X437217Y74567D01*
X437209Y74559D01*
X437201Y74555D01*
X437193Y74547D01*
X437185Y74543D01*
X437177Y74535D01*
X437165Y74532D01*
X437157Y74528D01*
X437146Y74524D01*
X437138D01*
X437126Y74520D01*
X437118D01*
X437106Y74516D01*
X435886D01*
X435874Y74512D01*
X435866D01*
X435854Y74508D01*
X435847D01*
X435835Y74504D01*
X435827Y74500D01*
X435815Y74496D01*
X435807Y74488D01*
X435799Y74484D01*
X435791Y74476D01*
X435783Y74472D01*
X435776Y74465D01*
X435768Y74457D01*
X435760Y74449D01*
X435752Y74441D01*
X435748Y74433D01*
X435740Y74425D01*
X435736Y74417D01*
X435728Y74409D01*
X435724Y74398D01*
X435720Y74390D01*
X435716Y74378D01*
Y74370D01*
X435713Y74358D01*
Y74350D01*
X435709Y74339D01*
Y74331D01*
Y74319D01*
Y73728D01*
Y73716D01*
Y73709D01*
X435713Y73697D01*
Y73689D01*
X435716Y73677D01*
Y73669D01*
X435720Y73658D01*
X435724Y73650D01*
X435728Y73638D01*
X435736Y73630D01*
X435740Y73622D01*
X435748Y73614D01*
X435752Y73606D01*
X435760Y73598D01*
X435768Y73590D01*
X435776Y73583D01*
X435783Y73575D01*
X435791Y73571D01*
X435799Y73563D01*
X435807Y73559D01*
X435815Y73551D01*
X435827Y73547D01*
X435835Y73543D01*
X435847Y73539D01*
X435854D01*
X435866Y73535D01*
X435874D01*
X435886Y73532D01*
X437106D01*
X437118Y73527D01*
X437126D01*
X437138Y73524D01*
X437146D01*
X437157Y73520D01*
X437165Y73516D01*
X437177Y73512D01*
X437185Y73504D01*
X437193Y73500D01*
X437201Y73492D01*
X437209Y73488D01*
X437217Y73480D01*
X437224Y73472D01*
X437232Y73465D01*
X437240Y73457D01*
X437244Y73449D01*
X437252Y73441D01*
X437256Y73433D01*
X437264Y73425D01*
X437268Y73413D01*
X437272Y73405D01*
X437276Y73394D01*
Y73386D01*
X437280Y73374D01*
Y73366D01*
X437284Y73354D01*
Y73347D01*
Y73335D01*
Y72744D01*
Y72732D01*
Y72724D01*
X437280Y72713D01*
Y72705D01*
X437276Y72693D01*
Y72685D01*
X437272Y72673D01*
X437268Y72665D01*
X437264Y72654D01*
X437256Y72646D01*
X437252Y72638D01*
X437244Y72630D01*
X437240Y72622D01*
X437232Y72614D01*
X437224Y72606D01*
X437217Y72598D01*
X437209Y72591D01*
X437201Y72587D01*
X437193Y72579D01*
X437185Y72575D01*
X437177Y72567D01*
X437165Y72563D01*
X437157Y72559D01*
X437146Y72555D01*
X437138D01*
X437126Y72551D01*
X437118D01*
X437106Y72547D01*
X435886D01*
X435874Y72543D01*
X435866D01*
X435854Y72539D01*
X435847D01*
X435835Y72535D01*
X435827Y72531D01*
X435815Y72527D01*
X435807Y72520D01*
X435799Y72516D01*
X435791Y72508D01*
X435783Y72504D01*
X435776Y72496D01*
X435768Y72488D01*
X435760Y72480D01*
X435752Y72472D01*
X435748Y72465D01*
X435740Y72457D01*
X435736Y72449D01*
X435728Y72441D01*
X435724Y72429D01*
X435720Y72421D01*
X435716Y72409D01*
Y72402D01*
X435713Y72390D01*
Y72382D01*
X435709Y72370D01*
Y72362D01*
Y72350D01*
Y71760D01*
Y71748D01*
Y71740D01*
X435713Y71728D01*
Y71720D01*
X435716Y71709D01*
Y71701D01*
X435720Y71689D01*
X435724Y71681D01*
X435728Y71669D01*
X435736Y71661D01*
X435740Y71653D01*
X435748Y71646D01*
X435752Y71638D01*
X435760Y71630D01*
X435768Y71622D01*
X435776Y71614D01*
X435783Y71606D01*
X435791Y71602D01*
X435799Y71595D01*
X435807Y71591D01*
X435815Y71583D01*
X435827Y71579D01*
X435835Y71575D01*
X435847Y71571D01*
X435854D01*
X435866Y71567D01*
X435874D01*
X435886Y71563D01*
X437106D01*
X437118Y71559D01*
X437126D01*
X437138Y71555D01*
X437146D01*
X437157Y71551D01*
X437165Y71547D01*
X437177Y71543D01*
X437185Y71535D01*
X437193Y71531D01*
X437201Y71524D01*
X437209Y71520D01*
X437217Y71512D01*
X437224Y71504D01*
X437232Y71496D01*
X437240Y71488D01*
X437244Y71480D01*
X437252Y71472D01*
X437256Y71465D01*
X437264Y71457D01*
X437268Y71445D01*
X437272Y71437D01*
X437276Y71425D01*
Y71417D01*
X437280Y71406D01*
Y71398D01*
X437284Y71386D01*
Y71378D01*
Y71366D01*
Y70776D01*
Y70764D01*
Y70756D01*
X437280Y70744D01*
Y70736D01*
X437276Y70724D01*
Y70717D01*
X437272Y70705D01*
X437268Y70697D01*
X437264Y70685D01*
X437256Y70677D01*
X437252Y70669D01*
X437244Y70661D01*
X437240Y70653D01*
X437232Y70646D01*
X437224Y70638D01*
X437217Y70630D01*
X437209Y70622D01*
X437201Y70618D01*
X437193Y70610D01*
X437185Y70606D01*
X437177Y70598D01*
X437165Y70595D01*
X437157Y70591D01*
X437146Y70587D01*
X437138D01*
X437126Y70583D01*
X437118D01*
X437106Y70579D01*
X435886D01*
X435874Y70575D01*
X435866D01*
X435854Y70571D01*
X435847D01*
X435835Y70567D01*
X435827Y70563D01*
X435815Y70559D01*
X435807Y70551D01*
X435799Y70547D01*
X435791Y70539D01*
X435783Y70535D01*
X435776Y70527D01*
X435768Y70520D01*
X435760Y70512D01*
X435752Y70504D01*
X435748Y70496D01*
X435740Y70488D01*
X435736Y70480D01*
X435728Y70472D01*
X435724Y70461D01*
X435720Y70453D01*
X435716Y70441D01*
Y70433D01*
X435713Y70421D01*
Y70413D01*
X435709Y70402D01*
Y70394D01*
Y70382D01*
Y69752D01*
Y69740D01*
Y69732D01*
X435705Y69721D01*
Y69713D01*
X435701Y69701D01*
Y69693D01*
X435697Y69681D01*
X435693Y69673D01*
X435689Y69661D01*
X435681Y69653D01*
X435677Y69646D01*
X435669Y69638D01*
X435665Y69630D01*
X435658Y69622D01*
X435650Y69614D01*
X435642Y69606D01*
X435634Y69598D01*
X435626Y69595D01*
X435618Y69587D01*
X435610Y69583D01*
X435602Y69575D01*
X435591Y69571D01*
X435583Y69567D01*
X435571Y69563D01*
X435563D01*
X435551Y69559D01*
X435543D01*
X435532Y69555D01*
X431949D01*
X431937Y69559D01*
X431929D01*
X431917Y69563D01*
X431910D01*
X431898Y69567D01*
X431890Y69571D01*
X431878Y69575D01*
X431870Y69583D01*
X431862Y69587D01*
X431854Y69595D01*
X431847Y69598D01*
X431839Y69606D01*
X431831Y69614D01*
X431823Y69622D01*
X431815Y69630D01*
X431811Y69638D01*
X431803Y69646D01*
X431799Y69653D01*
X431791Y69661D01*
X431787Y69673D01*
X431783Y69681D01*
X431779Y69693D01*
Y69701D01*
X431776Y69713D01*
Y69721D01*
X431772Y69732D01*
Y69740D01*
Y69752D01*
Y76937D01*
Y76949D01*
Y76957D01*
X431776Y76968D01*
Y76976D01*
X431779Y76988D01*
Y76996D01*
X431783Y77008D01*
X431787Y77016D01*
X431791Y77027D01*
X431799Y77035D01*
X431803Y77043D01*
X431811Y77051D01*
X431815Y77059D01*
X431823Y77067D01*
X431831Y77075D01*
X431839Y77083D01*
X431847Y77091D01*
X431854Y77095D01*
X431862Y77102D01*
X431870Y77106D01*
X431878Y77114D01*
X431890Y77118D01*
X431898Y77122D01*
X431910Y77126D01*
X431917D01*
X431929Y77130D01*
X431937D01*
X431949Y77134D01*
X435532D01*
X435543Y77130D01*
D02*
G37*
G36*
X428063D02*
X428071D01*
X428083Y77126D01*
X428090D01*
X428102Y77122D01*
X428110Y77118D01*
X428122Y77114D01*
X428130Y77106D01*
X428138Y77102D01*
X428146Y77095D01*
X428154Y77091D01*
X428161Y77083D01*
X428169Y77075D01*
X428177Y77067D01*
X428185Y77059D01*
X428189Y77051D01*
X428197Y77043D01*
X428201Y77035D01*
X428209Y77027D01*
X428213Y77016D01*
X428217Y77008D01*
X428221Y76996D01*
Y76988D01*
X428224Y76976D01*
Y76968D01*
X428228Y76957D01*
Y76949D01*
Y76937D01*
Y69752D01*
Y69740D01*
Y69732D01*
X428224Y69721D01*
Y69713D01*
X428221Y69701D01*
Y69693D01*
X428217Y69681D01*
X428213Y69673D01*
X428209Y69661D01*
X428201Y69653D01*
X428197Y69646D01*
X428189Y69638D01*
X428185Y69630D01*
X428177Y69622D01*
X428169Y69614D01*
X428161Y69606D01*
X428154Y69598D01*
X428146Y69595D01*
X428138Y69587D01*
X428130Y69583D01*
X428122Y69575D01*
X428110Y69571D01*
X428102Y69567D01*
X428090Y69563D01*
X428083D01*
X428071Y69559D01*
X428063D01*
X428051Y69555D01*
X424469D01*
X424457Y69559D01*
X424449D01*
X424437Y69563D01*
X424429D01*
X424417Y69567D01*
X424409Y69571D01*
X424398Y69575D01*
X424390Y69583D01*
X424382Y69587D01*
X424374Y69595D01*
X424366Y69598D01*
X424358Y69606D01*
X424350Y69614D01*
X424342Y69622D01*
X424335Y69630D01*
X424331Y69638D01*
X424323Y69646D01*
X424319Y69653D01*
X424311Y69661D01*
X424307Y69673D01*
X424303Y69681D01*
X424299Y69693D01*
Y69701D01*
X424295Y69713D01*
Y69721D01*
X424291Y69732D01*
Y69740D01*
Y69752D01*
Y70382D01*
Y70394D01*
Y70402D01*
X424287Y70413D01*
Y70421D01*
X424284Y70433D01*
Y70441D01*
X424279Y70453D01*
X424276Y70461D01*
X424272Y70472D01*
X424264Y70480D01*
X424260Y70488D01*
X424252Y70496D01*
X424248Y70504D01*
X424240Y70512D01*
X424232Y70520D01*
X424224Y70527D01*
X424217Y70535D01*
X424209Y70539D01*
X424201Y70547D01*
X424193Y70551D01*
X424185Y70559D01*
X424173Y70563D01*
X424165Y70567D01*
X424154Y70571D01*
X424146D01*
X424134Y70575D01*
X424126D01*
X424114Y70579D01*
X422894D01*
X422882Y70583D01*
X422874D01*
X422862Y70587D01*
X422854D01*
X422843Y70591D01*
X422835Y70595D01*
X422823Y70598D01*
X422815Y70606D01*
X422807Y70610D01*
X422799Y70618D01*
X422791Y70622D01*
X422784Y70630D01*
X422776Y70638D01*
X422768Y70646D01*
X422760Y70653D01*
X422756Y70661D01*
X422748Y70669D01*
X422744Y70677D01*
X422736Y70685D01*
X422732Y70697D01*
X422728Y70705D01*
X422724Y70717D01*
Y70724D01*
X422720Y70736D01*
Y70744D01*
X422717Y70756D01*
Y70764D01*
Y70776D01*
Y71366D01*
Y71378D01*
Y71386D01*
X422720Y71398D01*
Y71406D01*
X422724Y71417D01*
Y71425D01*
X422728Y71437D01*
X422732Y71445D01*
X422736Y71457D01*
X422744Y71465D01*
X422748Y71472D01*
X422756Y71480D01*
X422760Y71488D01*
X422768Y71496D01*
X422776Y71504D01*
X422784Y71512D01*
X422791Y71520D01*
X422799Y71524D01*
X422807Y71531D01*
X422815Y71535D01*
X422823Y71543D01*
X422835Y71547D01*
X422843Y71551D01*
X422854Y71555D01*
X422862D01*
X422874Y71559D01*
X422882D01*
X422894Y71563D01*
X424114D01*
X424126Y71567D01*
X424134D01*
X424146Y71571D01*
X424154D01*
X424165Y71575D01*
X424173Y71579D01*
X424185Y71583D01*
X424193Y71591D01*
X424201Y71595D01*
X424209Y71602D01*
X424217Y71606D01*
X424224Y71614D01*
X424232Y71622D01*
X424240Y71630D01*
X424248Y71638D01*
X424252Y71646D01*
X424260Y71653D01*
X424264Y71661D01*
X424272Y71669D01*
X424276Y71681D01*
X424279Y71689D01*
X424284Y71701D01*
Y71709D01*
X424287Y71720D01*
Y71728D01*
X424291Y71740D01*
Y71748D01*
Y71760D01*
Y72350D01*
Y72362D01*
Y72370D01*
X424287Y72382D01*
Y72390D01*
X424284Y72402D01*
Y72409D01*
X424279Y72421D01*
X424276Y72429D01*
X424272Y72441D01*
X424264Y72449D01*
X424260Y72457D01*
X424252Y72465D01*
X424248Y72472D01*
X424240Y72480D01*
X424232Y72488D01*
X424224Y72496D01*
X424217Y72504D01*
X424209Y72508D01*
X424201Y72516D01*
X424193Y72520D01*
X424185Y72527D01*
X424173Y72531D01*
X424165Y72535D01*
X424154Y72539D01*
X424146D01*
X424134Y72543D01*
X424126D01*
X424114Y72547D01*
X422894D01*
X422882Y72551D01*
X422874D01*
X422862Y72555D01*
X422854D01*
X422843Y72559D01*
X422835Y72563D01*
X422823Y72567D01*
X422815Y72575D01*
X422807Y72579D01*
X422799Y72587D01*
X422791Y72591D01*
X422784Y72598D01*
X422776Y72606D01*
X422768Y72614D01*
X422760Y72622D01*
X422756Y72630D01*
X422748Y72638D01*
X422744Y72646D01*
X422736Y72654D01*
X422732Y72665D01*
X422728Y72673D01*
X422724Y72685D01*
Y72693D01*
X422720Y72705D01*
Y72713D01*
X422717Y72724D01*
Y72732D01*
Y72744D01*
Y73335D01*
Y73347D01*
Y73354D01*
X422720Y73366D01*
Y73374D01*
X422724Y73386D01*
Y73394D01*
X422728Y73405D01*
X422732Y73413D01*
X422736Y73425D01*
X422744Y73433D01*
X422748Y73441D01*
X422756Y73449D01*
X422760Y73457D01*
X422768Y73465D01*
X422776Y73472D01*
X422784Y73480D01*
X422791Y73488D01*
X422799Y73492D01*
X422807Y73500D01*
X422815Y73504D01*
X422823Y73512D01*
X422835Y73516D01*
X422843Y73520D01*
X422854Y73524D01*
X422862D01*
X422874Y73527D01*
X422882D01*
X422894Y73532D01*
X424114D01*
X424126Y73535D01*
X424134D01*
X424146Y73539D01*
X424154D01*
X424165Y73543D01*
X424173Y73547D01*
X424185Y73551D01*
X424193Y73559D01*
X424201Y73563D01*
X424209Y73571D01*
X424217Y73575D01*
X424224Y73583D01*
X424232Y73590D01*
X424240Y73598D01*
X424248Y73606D01*
X424252Y73614D01*
X424260Y73622D01*
X424264Y73630D01*
X424272Y73638D01*
X424276Y73650D01*
X424279Y73658D01*
X424284Y73669D01*
Y73677D01*
X424287Y73689D01*
Y73697D01*
X424291Y73709D01*
Y73716D01*
Y73728D01*
Y74319D01*
Y74331D01*
Y74339D01*
X424287Y74350D01*
Y74358D01*
X424284Y74370D01*
Y74378D01*
X424279Y74390D01*
X424276Y74398D01*
X424272Y74409D01*
X424264Y74417D01*
X424260Y74425D01*
X424252Y74433D01*
X424248Y74441D01*
X424240Y74449D01*
X424232Y74457D01*
X424224Y74465D01*
X424217Y74472D01*
X424209Y74476D01*
X424201Y74484D01*
X424193Y74488D01*
X424185Y74496D01*
X424173Y74500D01*
X424165Y74504D01*
X424154Y74508D01*
X424146D01*
X424134Y74512D01*
X424126D01*
X424114Y74516D01*
X422894D01*
X422882Y74520D01*
X422874D01*
X422862Y74524D01*
X422854D01*
X422843Y74528D01*
X422835Y74532D01*
X422823Y74535D01*
X422815Y74543D01*
X422807Y74547D01*
X422799Y74555D01*
X422791Y74559D01*
X422784Y74567D01*
X422776Y74575D01*
X422768Y74583D01*
X422760Y74590D01*
X422756Y74598D01*
X422748Y74606D01*
X422744Y74614D01*
X422736Y74622D01*
X422732Y74634D01*
X422728Y74642D01*
X422724Y74654D01*
Y74661D01*
X422720Y74673D01*
Y74681D01*
X422717Y74693D01*
Y74701D01*
Y74713D01*
Y75303D01*
Y75315D01*
Y75323D01*
X422720Y75335D01*
Y75343D01*
X422724Y75354D01*
Y75362D01*
X422728Y75374D01*
X422732Y75382D01*
X422736Y75394D01*
X422744Y75402D01*
X422748Y75409D01*
X422756Y75417D01*
X422760Y75425D01*
X422768Y75433D01*
X422776Y75441D01*
X422784Y75449D01*
X422791Y75457D01*
X422799Y75461D01*
X422807Y75468D01*
X422815Y75472D01*
X422823Y75480D01*
X422835Y75484D01*
X422843Y75488D01*
X422854Y75492D01*
X422862D01*
X422874Y75496D01*
X422882D01*
X422894Y75500D01*
X424114D01*
X424126Y75504D01*
X424134D01*
X424146Y75508D01*
X424154D01*
X424165Y75512D01*
X424173Y75516D01*
X424185Y75520D01*
X424193Y75528D01*
X424201Y75532D01*
X424209Y75539D01*
X424217Y75543D01*
X424224Y75551D01*
X424232Y75559D01*
X424240Y75567D01*
X424248Y75575D01*
X424252Y75583D01*
X424260Y75590D01*
X424264Y75598D01*
X424272Y75606D01*
X424276Y75618D01*
X424279Y75626D01*
X424284Y75638D01*
Y75646D01*
X424287Y75657D01*
Y75665D01*
X424291Y75677D01*
Y75685D01*
Y75697D01*
Y76937D01*
Y76949D01*
Y76957D01*
X424295Y76968D01*
Y76976D01*
X424299Y76988D01*
Y76996D01*
X424303Y77008D01*
X424307Y77016D01*
X424311Y77027D01*
X424319Y77035D01*
X424323Y77043D01*
X424331Y77051D01*
X424335Y77059D01*
X424342Y77067D01*
X424350Y77075D01*
X424358Y77083D01*
X424366Y77091D01*
X424374Y77095D01*
X424382Y77102D01*
X424390Y77106D01*
X424398Y77114D01*
X424409Y77118D01*
X424417Y77122D01*
X424429Y77126D01*
X424437D01*
X424449Y77130D01*
X424457D01*
X424469Y77134D01*
X428051D01*
X428063Y77130D01*
D02*
G37*
D26*
X418650Y92626D02*
D03*
X425350D02*
D03*
X451850Y86126D02*
D03*
X445150D02*
D03*
X465700D02*
D03*
X459000D02*
D03*
D28*
X453000Y78976D02*
D03*
Y72276D02*
D03*
X445500Y78976D02*
D03*
Y72276D02*
D03*
D43*
X407469Y137531D02*
D03*
X418000Y82563D02*
D03*
Y74689D02*
D03*
X410500Y82563D02*
D03*
Y74689D02*
D03*
X407469Y129657D02*
D03*
X443469Y137531D02*
D03*
Y129657D02*
D03*
D44*
X152500Y274095D02*
D03*
X162500D02*
D03*
Y264094D02*
D03*
X152500D02*
D03*
X162500Y254095D02*
D03*
X152500D02*
D03*
Y244094D02*
D03*
X162500D02*
D03*
X152500Y234095D02*
D03*
X162500D02*
D03*
X152500Y224095D02*
D03*
X162500D02*
D03*
X152500Y214094D02*
D03*
X162500D02*
D03*
X152500Y204095D02*
D03*
X162500D02*
D03*
X152500Y194095D02*
D03*
X162500D02*
D03*
X152500Y184095D02*
D03*
X162500D02*
D03*
D45*
X454000Y285595D02*
D03*
X224000Y245595D02*
D03*
X214000Y295595D02*
D03*
Y155595D02*
D03*
X215500Y350886D02*
D03*
X225500D02*
D03*
X235500D02*
D03*
X214000Y175594D02*
D03*
Y195595D02*
D03*
Y185594D02*
D03*
Y165594D02*
D03*
Y145595D02*
D03*
Y135594D02*
D03*
Y315595D02*
D03*
Y305594D02*
D03*
Y285595D02*
D03*
Y275594D02*
D03*
Y265595D02*
D03*
Y255594D02*
D03*
Y235595D02*
D03*
Y245595D02*
D03*
Y225594D02*
D03*
Y215595D02*
D03*
Y205594D02*
D03*
X224000Y175594D02*
D03*
Y165594D02*
D03*
Y155595D02*
D03*
Y145595D02*
D03*
Y315595D02*
D03*
Y305594D02*
D03*
Y295595D02*
D03*
Y285595D02*
D03*
Y275594D02*
D03*
Y265595D02*
D03*
Y255594D02*
D03*
Y235595D02*
D03*
Y225594D02*
D03*
Y215595D02*
D03*
Y205594D02*
D03*
Y195595D02*
D03*
Y185594D02*
D03*
Y135594D02*
D03*
X454000Y175594D02*
D03*
Y195595D02*
D03*
Y185594D02*
D03*
Y165594D02*
D03*
Y155595D02*
D03*
Y145595D02*
D03*
Y135594D02*
D03*
Y315595D02*
D03*
Y305594D02*
D03*
Y295595D02*
D03*
Y275594D02*
D03*
Y265595D02*
D03*
Y255594D02*
D03*
Y235595D02*
D03*
Y245595D02*
D03*
Y225594D02*
D03*
Y215595D02*
D03*
Y205594D02*
D03*
X464000Y175594D02*
D03*
Y165594D02*
D03*
Y155595D02*
D03*
Y145595D02*
D03*
Y315595D02*
D03*
Y305594D02*
D03*
Y295595D02*
D03*
Y285595D02*
D03*
Y275594D02*
D03*
Y265595D02*
D03*
Y255594D02*
D03*
Y245595D02*
D03*
Y235595D02*
D03*
Y225594D02*
D03*
Y215595D02*
D03*
Y205594D02*
D03*
Y195595D02*
D03*
Y185594D02*
D03*
Y135594D02*
D03*
X222000Y115594D02*
D03*
X212000D02*
D03*
X202000D02*
D03*
D46*
X483083Y120772D02*
D03*
X620917Y338094D02*
D03*
X389917Y338787D02*
D03*
X252083Y121465D02*
D03*
D47*
X483083Y370457D02*
D03*
X252083Y371150D02*
D03*
D48*
X552000Y120772D02*
D03*
Y338094D02*
D03*
X321000Y338787D02*
D03*
Y121465D02*
D03*
D49*
X126705Y150453D02*
D03*
X152295D02*
D03*
X126705Y132736D02*
D03*
D50*
X152295D02*
D03*
D51*
X441000Y384095D02*
D03*
X431000D02*
D03*
D52*
X199500Y150594D02*
D03*
Y375594D02*
D03*
D53*
X177000Y350594D02*
D03*
X122000Y173345D02*
D03*
Y283345D02*
D03*
X177000Y135594D02*
D03*
X654500Y270595D02*
D03*
Y205594D02*
D03*
D54*
X644500Y375594D02*
D03*
Y95595D02*
D03*
D84*
X450131Y109226D02*
D03*
X454869Y113963D02*
D03*
D88*
X514382Y74590D02*
D03*
X589618D02*
D03*
X514382Y384276D02*
D03*
X589618D02*
D03*
X358618Y384968D02*
D03*
X283382D02*
D03*
X358618Y75283D02*
D03*
X283382D02*
D03*
M02*
