G04*
G04 #@! TF.GenerationSoftware,Altium Limited,Altium Designer,25.8.1 (18)*
G04*
G04 Layer_Physical_Order=1*
G04 Layer_Color=255*
%FSLAX25Y25*%
%MOIN*%
G70*
G04*
G04 #@! TF.SameCoordinates,E1838567-EF02-44A7-8A02-23B903FEE0B8*
G04*
G04*
G04 #@! TF.FilePolarity,Positive*
G04*
G01*
G75*
%ADD11C,0.02000*%
%ADD16C,0.01000*%
%ADD22R,0.03762X0.05709*%
%ADD23R,0.01200X0.01800*%
%ADD24R,0.01800X0.01200*%
%ADD25R,0.02441X0.05787*%
%ADD26R,0.04000X0.04700*%
G04:AMPARAMS|DCode=27|XSize=47.64mil|YSize=23.23mil|CornerRadius=5.81mil|HoleSize=0mil|Usage=FLASHONLY|Rotation=270.000|XOffset=0mil|YOffset=0mil|HoleType=Round|Shape=RoundedRectangle|*
%AMROUNDEDRECTD27*
21,1,0.04764,0.01161,0,0,270.0*
21,1,0.03602,0.02323,0,0,270.0*
1,1,0.01161,-0.00581,-0.01801*
1,1,0.01161,-0.00581,0.01801*
1,1,0.01161,0.00581,0.01801*
1,1,0.01161,0.00581,-0.01801*
%
%ADD27ROUNDEDRECTD27*%
%ADD28R,0.04700X0.04000*%
%ADD29C,0.03937*%
%ADD30R,0.07700X0.04700*%
%ADD31R,0.03150X0.03150*%
%ADD32R,0.01200X0.03200*%
%ADD33R,0.03200X0.01200*%
%ADD34R,0.05787X0.02441*%
G04:AMPARAMS|DCode=35|XSize=40mil|YSize=47mil|CornerRadius=0mil|HoleSize=0mil|Usage=FLASHONLY|Rotation=315.000|XOffset=0mil|YOffset=0mil|HoleType=Round|Shape=Rectangle|*
%AMROTATEDRECTD35*
4,1,4,-0.03076,-0.00248,0.00248,0.03076,0.03076,0.00248,-0.00248,-0.03076,-0.03076,-0.00248,0.0*
%
%ADD35ROTATEDRECTD35*%

%ADD42R,0.08500X0.12400*%
%ADD45C,0.06200*%
%ADD53C,0.13000*%
%ADD54C,0.26000*%
%ADD55R,0.01870X0.00984*%
%ADD56R,0.00984X0.01870*%
%ADD57C,0.03500*%
%ADD58C,0.03600*%
%ADD59C,0.01200*%
%ADD60C,0.01500*%
%ADD61C,0.00800*%
%ADD62C,0.02500*%
%ADD63C,0.01300*%
%ADD64C,0.06496*%
%ADD65C,0.13583*%
%ADD66C,0.09409*%
%ADD67C,0.12480*%
%ADD68C,0.05937*%
%ADD69R,0.05937X0.05937*%
%ADD70C,0.07677*%
%ADD71C,0.02000*%
%ADD72C,0.03500*%
%ADD73C,0.18000*%
G36*
X665493Y59547D02*
X179007D01*
Y60594D01*
X179003Y60614D01*
X179007Y60634D01*
X178961Y62970D01*
X178948Y63028D01*
X178955Y63088D01*
X178588Y67745D01*
X178567Y67822D01*
X178570Y67902D01*
X177839Y72516D01*
X177811Y72591D01*
X177808Y72671D01*
X176718Y77214D01*
X176684Y77286D01*
X176675Y77365D01*
X175231Y81809D01*
X175192Y81878D01*
X175177Y81956D01*
X173389Y86273D01*
X173344Y86339D01*
X173323Y86416D01*
X171202Y90579D01*
X171152Y90641D01*
X171125Y90716D01*
X168684Y94700D01*
X168630Y94758D01*
X168596Y94831D01*
X165850Y98610D01*
X165791Y98664D01*
X165752Y98734D01*
X162718Y102287D01*
X162656Y102336D01*
X162611Y102402D01*
X159308Y105706D01*
X159241Y105750D01*
X159192Y105813D01*
X155640Y108847D01*
X155570Y108886D01*
X155516Y108944D01*
X151736Y111691D01*
X151664Y111724D01*
X151605Y111778D01*
X147622Y114219D01*
X147547Y114247D01*
X147484Y114296D01*
X143321Y116417D01*
X143245Y116439D01*
X143178Y116483D01*
X138862Y118271D01*
X138784Y118287D01*
X138714Y118326D01*
X134271Y119769D01*
X134192Y119779D01*
X134119Y119812D01*
X129576Y120903D01*
X129497Y120906D01*
X129422Y120933D01*
X124807Y121664D01*
X124728Y121661D01*
X124651Y121683D01*
X119993Y122049D01*
X119934Y122042D01*
X119875Y122055D01*
X117539Y122101D01*
X117520Y122098D01*
X117500Y122101D01*
X106000D01*
X105804D01*
X105419Y122178D01*
X105056Y122328D01*
X104729Y122546D01*
X104452Y122824D01*
X104234Y123151D01*
X104084Y123513D01*
X104007Y123898D01*
Y124094D01*
X104007Y332594D01*
Y332791D01*
X104084Y333176D01*
X104234Y333539D01*
X104452Y333865D01*
X104729Y334142D01*
X105056Y334361D01*
X105419Y334511D01*
X105804Y334588D01*
X117000D01*
X117020Y334591D01*
X117039Y334588D01*
X119395Y334634D01*
X119454Y334647D01*
X119513Y334640D01*
X124210Y335010D01*
X124286Y335031D01*
X124366Y335028D01*
X129019Y335765D01*
X129094Y335793D01*
X129174Y335796D01*
X133755Y336896D01*
X133827Y336929D01*
X133907Y336938D01*
X138387Y338394D01*
X138457Y338433D01*
X138535Y338449D01*
X142888Y340252D01*
X142954Y340296D01*
X143031Y340318D01*
X147228Y342456D01*
X147291Y342506D01*
X147366Y342533D01*
X151383Y344995D01*
X151442Y345049D01*
X151514Y345083D01*
X155325Y347852D01*
X155379Y347910D01*
X155449Y347949D01*
X159031Y351009D01*
X159081Y351072D01*
X159147Y351116D01*
X162478Y354447D01*
X162523Y354514D01*
X162585Y354563D01*
X165645Y358145D01*
X165684Y358215D01*
X165743Y358269D01*
X168512Y362081D01*
X168545Y362153D01*
X168599Y362212D01*
X171061Y366229D01*
X171089Y366303D01*
X171138Y366366D01*
X173277Y370564D01*
X173299Y370640D01*
X173343Y370707D01*
X175146Y375059D01*
X175161Y375138D01*
X175200Y375207D01*
X176656Y379688D01*
X176665Y379767D01*
X176699Y379839D01*
X177799Y384420D01*
X177802Y384500D01*
X177829Y384575D01*
X178566Y389228D01*
X178563Y389308D01*
X178585Y389385D01*
X178955Y394081D01*
X178947Y394141D01*
X178960Y394199D01*
X179007Y396555D01*
X179003Y396575D01*
X179007Y396595D01*
Y400591D01*
X665493D01*
X665493Y59547D01*
D02*
G37*
%LPC*%
G36*
X441571Y388433D02*
X440429D01*
X439325Y388137D01*
X438336Y387566D01*
X437528Y386758D01*
X436957Y385769D01*
X436661Y384666D01*
Y383523D01*
X436957Y382420D01*
X437528Y381431D01*
X438336Y380623D01*
X439325Y380052D01*
X440429Y379756D01*
X441571D01*
X442675Y380052D01*
X443664Y380623D01*
X444017Y380975D01*
X444106Y381008D01*
X444279Y381166D01*
X444451Y381292D01*
X444646Y381405D01*
X444864Y381506D01*
X445108Y381594D01*
X445378Y381667D01*
X445667Y381724D01*
X446353Y381795D01*
X446603Y381800D01*
X448499D01*
X449206Y381094D01*
Y365124D01*
X446585Y362503D01*
X445112D01*
X445112Y362503D01*
X444800Y363239D01*
Y363616D01*
X442700D01*
Y362016D01*
X441700D01*
Y363616D01*
X440053D01*
Y366376D01*
X438953D01*
Y363776D01*
X438453D01*
Y363276D01*
X437000D01*
Y361326D01*
X436000D01*
Y355126D01*
Y348926D01*
X437000D01*
Y347926D01*
X437353D01*
Y345022D01*
X437334Y344994D01*
X437336Y344919D01*
X437324Y344888D01*
X437353Y344376D01*
X437452Y343981D01*
X437534Y343582D01*
X437533Y343565D01*
X437527Y343505D01*
X437519Y343451D01*
X437507Y343403D01*
X437494Y343361D01*
X437479Y343323D01*
X437461Y343289D01*
X437442Y343258D01*
X437420Y343229D01*
X437380Y343184D01*
X437349Y343096D01*
X437228Y342976D01*
X437000Y342424D01*
Y341828D01*
X437228Y341276D01*
X437650Y340854D01*
X438202Y340626D01*
X438798D01*
X439350Y340854D01*
X439772Y341276D01*
X440000Y341828D01*
Y342424D01*
X439772Y342976D01*
X439608Y343139D01*
X439570Y343235D01*
X439529Y343277D01*
X439508Y343302D01*
X439490Y343330D01*
X439473Y343360D01*
X439458Y343394D01*
X439445Y343433D01*
X439434Y343477D01*
X439426Y343529D01*
X439420Y343587D01*
X439553Y344376D01*
X439582Y344888D01*
X439563Y344933D01*
X439565Y345022D01*
X439553Y345039D01*
Y346563D01*
X440100Y347136D01*
X441395D01*
X441398Y347134D01*
X441406Y347115D01*
X441426Y347043D01*
X441443Y346940D01*
X441454Y346807D01*
X441459Y346634D01*
X441480Y346586D01*
Y344627D01*
X441459Y344581D01*
X441452Y344392D01*
X441445Y344332D01*
X441437Y344277D01*
X441427Y344235D01*
X441418Y344204D01*
X441410Y344186D01*
X441408Y344183D01*
X441395Y344168D01*
X441392Y344158D01*
X441391Y344156D01*
X441390Y344152D01*
X441365Y344081D01*
X441228Y343944D01*
X441000Y343393D01*
Y342796D01*
X441228Y342245D01*
X441650Y341823D01*
X442202Y341595D01*
X442798D01*
X443350Y341823D01*
X443772Y342245D01*
X444000Y342796D01*
Y343393D01*
X443772Y343944D01*
X443635Y344081D01*
X443610Y344152D01*
X443610Y344156D01*
X443608Y344158D01*
X443605Y344168D01*
X443592Y344183D01*
X443590Y344186D01*
X443582Y344204D01*
X443573Y344234D01*
X443563Y344277D01*
X443556Y344325D01*
X443543Y344480D01*
X443541Y344571D01*
X443520Y344620D01*
Y346586D01*
X443541Y346634D01*
X443546Y346807D01*
X443557Y346940D01*
X443574Y347043D01*
X443594Y347115D01*
X443602Y347134D01*
X443605Y347136D01*
X444300D01*
Y349105D01*
Y352542D01*
X444800D01*
Y353554D01*
X445404Y354079D01*
X447425Y353795D01*
X447463Y353805D01*
X447500Y353789D01*
X449000D01*
X449000Y353789D01*
X449026Y353800D01*
X449342D01*
X449500Y353769D01*
X449658Y353800D01*
X462550D01*
X464206Y352144D01*
Y339045D01*
X442878Y317717D01*
X442381Y316972D01*
X442206Y316094D01*
Y314555D01*
X441406Y314050D01*
X441298Y314094D01*
X440702D01*
X440267Y313914D01*
X434946D01*
X434909Y313931D01*
X434641Y313938D01*
X434423Y313957D01*
X434244Y313987D01*
X434108Y314023D01*
X434015Y314062D01*
X433963Y314093D01*
X433944Y314110D01*
X433942Y314114D01*
X433941Y314117D01*
X433933Y314196D01*
X433923Y314215D01*
Y314486D01*
X433839Y314908D01*
X433600Y315265D01*
X433243Y315504D01*
X432821Y315588D01*
X431660D01*
X431238Y315504D01*
X430880Y315265D01*
X430641Y314908D01*
X430558Y314486D01*
Y310884D01*
X430641Y310462D01*
X430880Y310105D01*
X431238Y309866D01*
X431660Y309782D01*
X432821D01*
X433243Y309866D01*
X433600Y310105D01*
X433839Y310462D01*
X433923Y310884D01*
Y311065D01*
X433933Y311083D01*
X433941Y311162D01*
X433942Y311166D01*
X433944Y311169D01*
X433963Y311186D01*
X434015Y311218D01*
X434108Y311256D01*
X434244Y311293D01*
X434423Y311322D01*
X434641Y311342D01*
X434909Y311349D01*
X434946Y311365D01*
X440108D01*
X440150Y311323D01*
X440702Y311094D01*
X441298D01*
X441406Y311139D01*
X442206Y310634D01*
Y305545D01*
X434050Y297389D01*
X432654D01*
X432075Y297409D01*
X431447Y297479D01*
X430840Y297595D01*
X430254Y297756D01*
X429689Y297964D01*
X429142Y298217D01*
X428613Y298517D01*
X428103Y298864D01*
X427609Y299259D01*
X427185Y299654D01*
X414670Y312169D01*
X414724Y312505D01*
X414942Y313028D01*
X415350Y313197D01*
X415772Y313619D01*
X416000Y314170D01*
Y314767D01*
X415772Y315318D01*
X415646Y315444D01*
X415744Y316213D01*
X416030Y316493D01*
X417350D01*
Y321409D01*
X417975Y321916D01*
X423740Y316150D01*
Y316124D01*
X423719Y316077D01*
X423715Y315940D01*
X423704Y315833D01*
X423687Y315737D01*
X423665Y315653D01*
X423638Y315579D01*
X423608Y315515D01*
X423574Y315459D01*
X423536Y315409D01*
X423493Y315364D01*
X423422Y315303D01*
X423412Y315283D01*
X423391Y315275D01*
X423366Y315214D01*
X423161Y314908D01*
X423077Y314486D01*
Y310884D01*
X423161Y310462D01*
X423400Y310105D01*
X423758Y309866D01*
X424179Y309782D01*
X425341D01*
X425762Y309866D01*
X426120Y310105D01*
X426359Y310462D01*
X426442Y310884D01*
Y314486D01*
X426359Y314908D01*
X426154Y315214D01*
X426129Y315275D01*
X426108Y315283D01*
X426097Y315303D01*
X426027Y315364D01*
X425984Y315409D01*
X425946Y315459D01*
X425912Y315515D01*
X425881Y315579D01*
X425855Y315653D01*
X425833Y315737D01*
X425816Y315833D01*
X425805Y315940D01*
X425801Y316077D01*
X425779Y316124D01*
Y316573D01*
X425702Y316963D01*
X425481Y317294D01*
X424420Y318354D01*
X424752Y319154D01*
X425341D01*
X425957Y319277D01*
X426480Y319626D01*
X426499Y319637D01*
X427498Y319748D01*
X427919Y319664D01*
X429081D01*
X429502Y319748D01*
X429860Y319987D01*
X429926Y320085D01*
X429970Y320101D01*
X430771D01*
X430815Y320085D01*
X430880Y319987D01*
X431238Y319748D01*
X431660Y319664D01*
X432821D01*
X433243Y319748D01*
X433600Y319987D01*
X433839Y320344D01*
X433923Y320766D01*
Y324368D01*
X433839Y324790D01*
X433600Y325147D01*
X433243Y325386D01*
X432821Y325470D01*
X431660D01*
X431238Y325386D01*
X430880Y325147D01*
X430084Y325395D01*
X430041Y326282D01*
X430024Y326316D01*
Y346097D01*
X430041Y346134D01*
X430048Y346402D01*
X430067Y346620D01*
X430097Y346798D01*
X430134Y346935D01*
X430160Y347000D01*
X430442Y347047D01*
X430633Y347060D01*
X430989Y347043D01*
X431447Y346563D01*
Y345176D01*
X431447Y345039D01*
X431435Y345022D01*
X431437Y344933D01*
X431418Y344888D01*
X431447Y344376D01*
X431606Y343591D01*
Y342689D01*
X431583Y342638D01*
X431580Y342556D01*
X431574Y342497D01*
X431566Y342446D01*
X431555Y342401D01*
X431542Y342362D01*
X431527Y342328D01*
X431510Y342298D01*
X431492Y342271D01*
X431471Y342245D01*
X431430Y342203D01*
X431392Y342108D01*
X431228Y341944D01*
X431000Y341393D01*
Y340796D01*
X431228Y340245D01*
X431650Y339823D01*
X432202Y339595D01*
X432798D01*
X433350Y339823D01*
X433772Y340245D01*
X434000Y340796D01*
Y341393D01*
X433772Y341944D01*
X433651Y342065D01*
X433620Y342153D01*
X433580Y342198D01*
X433558Y342227D01*
X433539Y342258D01*
X433521Y342292D01*
X433506Y342329D01*
X433493Y342372D01*
X433481Y342420D01*
X433473Y342474D01*
X433467Y342534D01*
X433465Y342616D01*
X433441Y342668D01*
Y344020D01*
X433465Y344072D01*
X433473Y344344D01*
X433475Y344376D01*
X433647Y344376D01*
X433676Y344888D01*
X433664Y344919D01*
X433666Y344994D01*
X433647Y345022D01*
Y347926D01*
X434000D01*
Y348926D01*
X435000D01*
Y355126D01*
Y361326D01*
X434000D01*
Y363276D01*
X432547D01*
Y363776D01*
X432047D01*
Y366376D01*
X430947D01*
Y363616D01*
X429300D01*
Y362016D01*
X428300D01*
Y363616D01*
X426200D01*
Y361682D01*
X423506D01*
X423504Y361681D01*
X423502Y361682D01*
X423313Y361601D01*
X423303Y361597D01*
X422580D01*
X421845Y362332D01*
Y381014D01*
X422580Y381749D01*
X425477D01*
X425686Y381745D01*
X426039Y381720D01*
X426364Y381680D01*
X426661Y381624D01*
X426930Y381554D01*
X427170Y381471D01*
X427384Y381376D01*
X427570Y381270D01*
X427732Y381154D01*
X427895Y381006D01*
X427984Y380975D01*
X428336Y380623D01*
X429325Y380052D01*
X430429Y379756D01*
X431571D01*
X432675Y380052D01*
X433664Y380623D01*
X434472Y381431D01*
X435043Y382420D01*
X435339Y383523D01*
Y384666D01*
X435043Y385769D01*
X434472Y386758D01*
X433664Y387566D01*
X432675Y388137D01*
X431571Y388433D01*
X430429D01*
X429325Y388137D01*
X428336Y387566D01*
X427984Y387214D01*
X427895Y387183D01*
X427732Y387035D01*
X427570Y386919D01*
X427384Y386813D01*
X427170Y386718D01*
X426930Y386635D01*
X426661Y386565D01*
X426371Y386511D01*
X425679Y386444D01*
X425477Y386439D01*
X421609D01*
X420711Y386261D01*
X419951Y385753D01*
X417842Y383644D01*
X417333Y382883D01*
X417155Y381986D01*
Y361361D01*
X417333Y360463D01*
X417842Y359703D01*
X419951Y357594D01*
X420545Y357196D01*
X420387Y356396D01*
X410508D01*
X409630Y356222D01*
X408886Y355725D01*
X402878Y349717D01*
X402381Y348972D01*
X402206Y348095D01*
Y319094D01*
X402381Y318217D01*
X402878Y317472D01*
X412517Y307834D01*
X412293Y306925D01*
X412150Y306866D01*
X411728Y306444D01*
X411500Y305893D01*
Y305296D01*
X411728Y304745D01*
X412150Y304323D01*
X412702Y304095D01*
X413298D01*
X413850Y304323D01*
X414272Y304745D01*
X414331Y304888D01*
X415239Y305111D01*
X423194Y297156D01*
X423571Y296737D01*
X423876Y296302D01*
X424085Y295884D01*
X424205Y295484D01*
X424244Y295094D01*
X424205Y294705D01*
X424085Y294305D01*
X423876Y293887D01*
X423571Y293452D01*
X423194Y293033D01*
X360378Y230217D01*
X359880Y229472D01*
X359706Y228594D01*
Y136749D01*
X359685Y136169D01*
X359615Y135541D01*
X359500Y134934D01*
X359338Y134349D01*
X359131Y133783D01*
X358877Y133236D01*
X358577Y132708D01*
X358230Y132197D01*
X357835Y131704D01*
X357440Y131279D01*
X337050Y110889D01*
X223369D01*
X223264Y111689D01*
X223583Y111774D01*
X224517Y112314D01*
X225281Y113077D01*
X225821Y114012D01*
X226100Y115055D01*
Y115094D01*
X222000D01*
Y115594D01*
X221500D01*
Y119694D01*
X221460D01*
X220417Y119415D01*
X219894Y119113D01*
X219403Y119753D01*
X224928Y125278D01*
X243354D01*
X244232Y125453D01*
X244976Y125950D01*
X247026Y128000D01*
X247523Y128745D01*
X247698Y129623D01*
Y336155D01*
X247523Y337033D01*
X247026Y337777D01*
X243122Y341681D01*
X242378Y342179D01*
X241500Y342353D01*
X237277D01*
X230171Y349459D01*
X229810Y349839D01*
X229479Y350236D01*
X229361Y350400D01*
X229267Y350548D01*
X229201Y350672D01*
X229162Y350766D01*
X229146Y350826D01*
X229139Y350905D01*
X229100Y350978D01*
Y351360D01*
X228855Y352275D01*
X228381Y353096D01*
X227710Y353766D01*
X226890Y354240D01*
X225974Y354486D01*
X225026D01*
X224110Y354240D01*
X223290Y353766D01*
X222619Y353096D01*
X222145Y352275D01*
X221900Y351360D01*
Y350412D01*
X222145Y349496D01*
X222619Y348675D01*
X223290Y348005D01*
X224110Y347531D01*
X225026Y347286D01*
X225408D01*
X225481Y347247D01*
X225559Y347240D01*
X225619Y347224D01*
X225714Y347185D01*
X225838Y347119D01*
X225985Y347025D01*
X226145Y346910D01*
X226774Y346366D01*
X226838Y346304D01*
X234705Y338437D01*
X235449Y337940D01*
X236327Y337765D01*
X240550D01*
X243110Y335205D01*
Y130573D01*
X242404Y129866D01*
X223978D01*
X223100Y129692D01*
X222356Y129194D01*
X213427Y120266D01*
X213047Y119905D01*
X212649Y119574D01*
X212485Y119455D01*
X212338Y119361D01*
X212214Y119296D01*
X212119Y119257D01*
X212060Y119240D01*
X211981Y119233D01*
X211908Y119194D01*
X211526D01*
X210610Y118949D01*
X209790Y118475D01*
X209119Y117805D01*
X208645Y116984D01*
X208400Y116068D01*
Y115120D01*
X208645Y114205D01*
X209119Y113384D01*
X209790Y112714D01*
X210610Y112240D01*
X211526Y111995D01*
X211908D01*
X211981Y111956D01*
X212059Y111949D01*
X212119Y111932D01*
X212214Y111893D01*
X212338Y111828D01*
X212485Y111734D01*
X212645Y111618D01*
X213274Y111075D01*
X213338Y111012D01*
X217378Y106972D01*
X218122Y106475D01*
X219000Y106300D01*
X338000D01*
X338878Y106475D01*
X339622Y106972D01*
X359938Y127289D01*
X360358Y127666D01*
X360793Y127971D01*
X361210Y128179D01*
X361611Y128299D01*
X362000Y128338D01*
X362389Y128299D01*
X362790Y128179D01*
X363207Y127971D01*
X363642Y127666D01*
X364062Y127289D01*
X377378Y113972D01*
X378122Y113475D01*
X379000Y113300D01*
X426050D01*
X431706Y107644D01*
Y105911D01*
X431643Y105595D01*
Y98126D01*
Y73158D01*
X431818Y72280D01*
X432315Y71535D01*
X437878Y65972D01*
X439378Y64472D01*
X440122Y63975D01*
X441000Y63800D01*
X449500D01*
X450378Y63975D01*
X451122Y64472D01*
X451619Y65217D01*
X451794Y66094D01*
X451619Y66972D01*
X451122Y67717D01*
X450378Y68214D01*
X449500Y68389D01*
X441950D01*
X441122Y69217D01*
X436231Y74108D01*
Y98126D01*
Y105341D01*
X436294Y105657D01*
Y108595D01*
X436119Y109472D01*
X435622Y110217D01*
X428622Y117217D01*
X427878Y117714D01*
X427000Y117889D01*
X379950D01*
X366560Y131279D01*
X366165Y131704D01*
X365770Y132197D01*
X365423Y132708D01*
X365123Y133236D01*
X364869Y133783D01*
X364662Y134349D01*
X364500Y134934D01*
X364385Y135541D01*
X364315Y136169D01*
X364294Y136749D01*
Y227644D01*
X427185Y290535D01*
X427609Y290930D01*
X428103Y291325D01*
X428613Y291672D01*
X429142Y291972D01*
X429689Y292225D01*
X430254Y292433D01*
X430840Y292594D01*
X431447Y292710D01*
X432075Y292780D01*
X432654Y292800D01*
X435000D01*
X435878Y292975D01*
X436622Y293472D01*
X446122Y302972D01*
X446619Y303717D01*
X446794Y304594D01*
Y315144D01*
X468122Y336472D01*
X468619Y337217D01*
X468794Y338094D01*
Y353095D01*
X468619Y353972D01*
X468122Y354717D01*
X465122Y357717D01*
X464378Y358214D01*
X463500Y358389D01*
X459669D01*
X459606Y358520D01*
X460109Y359320D01*
X491004D01*
X585358Y264965D01*
X585373Y264927D01*
X585558Y264733D01*
X585698Y264565D01*
X585803Y264418D01*
X585874Y264295D01*
X585913Y264202D01*
X585927Y264144D01*
X585928Y264118D01*
X585927Y264114D01*
X585925Y264111D01*
X585875Y264049D01*
X585860Y263997D01*
X584979Y263116D01*
X585672Y262424D01*
X585687Y262371D01*
X585737Y262309D01*
X585739Y262306D01*
X585740Y262302D01*
X585739Y262277D01*
X585725Y262218D01*
X585686Y262125D01*
X585615Y262002D01*
X585510Y261855D01*
X585370Y261688D01*
X585185Y261493D01*
X585170Y261455D01*
X584921Y261206D01*
X584883Y261191D01*
X584688Y261006D01*
X584521Y260866D01*
X584374Y260761D01*
X584251Y260690D01*
X584158Y260651D01*
X584099Y260637D01*
X584074Y260636D01*
X584070Y260637D01*
X584067Y260639D01*
X584005Y260689D01*
X583952Y260704D01*
X583379Y261278D01*
X579348Y257247D01*
X582884Y253712D01*
X583084Y253912D01*
X584286Y252710D01*
X584086Y252510D01*
X587621Y248974D01*
X591652Y253005D01*
X590547Y254110D01*
X590546Y254113D01*
X590554Y254133D01*
X590591Y254197D01*
X590652Y254282D01*
X590737Y254384D01*
X590857Y254510D01*
X590875Y254559D01*
X591817Y255501D01*
X591866Y255520D01*
X591992Y255639D01*
X592094Y255724D01*
X592179Y255785D01*
X592243Y255822D01*
X592263Y255830D01*
X592266Y255829D01*
X593253Y254843D01*
X595569Y257159D01*
X595591Y257163D01*
X595619Y257201D01*
X595665Y257216D01*
X595748Y257288D01*
X595821Y257336D01*
X595920Y257385D01*
X596044Y257432D01*
X596194Y257476D01*
X596369Y257513D01*
X596563Y257543D01*
X597047Y257580D01*
X597321Y257585D01*
X597370Y257606D01*
X598727D01*
X601819Y254515D01*
X601838Y254466D01*
X601962Y254335D01*
X602062Y254218D01*
X602147Y254104D01*
X602218Y253994D01*
X602276Y253889D01*
X602321Y253789D01*
X602354Y253693D01*
X602378Y253601D01*
X602391Y253512D01*
X602397Y253397D01*
X602425Y253337D01*
Y251201D01*
X606575D01*
Y255350D01*
X604439D01*
X604378Y255379D01*
X604264Y255385D01*
X604175Y255398D01*
X604082Y255421D01*
X603987Y255455D01*
X603886Y255500D01*
X603781Y255557D01*
X603672Y255629D01*
X603558Y255714D01*
X603441Y255814D01*
X603310Y255938D01*
X603261Y255957D01*
X599871Y259347D01*
X599540Y259568D01*
X599150Y259646D01*
X597368D01*
X597320Y259667D01*
X597140Y259672D01*
X596987Y259684D01*
X596846Y259704D01*
X596718Y259731D01*
X596603Y259765D01*
X596500Y259804D01*
X596409Y259848D01*
X596327Y259897D01*
X596255Y259950D01*
X596170Y260027D01*
X596107Y260050D01*
X593748Y262409D01*
X593547Y262209D01*
X592345Y263411D01*
X592545Y263611D01*
X589010Y267147D01*
X588130Y266266D01*
X588077Y266251D01*
X588015Y266201D01*
X588012Y266199D01*
X588008Y266198D01*
X587982Y266199D01*
X587924Y266213D01*
X587831Y266252D01*
X587708Y266323D01*
X587561Y266428D01*
X587394Y266568D01*
X587199Y266753D01*
X587161Y266768D01*
X492433Y361496D01*
X492019Y361772D01*
X491532Y361869D01*
X458379D01*
X457891Y361772D01*
X457478Y361496D01*
X456599Y360617D01*
X456322Y360204D01*
X456225Y359716D01*
Y358886D01*
X456209Y358849D01*
X456202Y358580D01*
X456185Y358389D01*
X450091D01*
X449760Y359189D01*
X453122Y362551D01*
X453619Y363295D01*
X453794Y364173D01*
Y382044D01*
X453619Y382922D01*
X453122Y383666D01*
X451072Y385717D01*
X450328Y386214D01*
X449450Y386389D01*
X446603D01*
X446346Y386395D01*
X445997Y386420D01*
X445674Y386463D01*
X445378Y386522D01*
X445108Y386595D01*
X444864Y386683D01*
X444646Y386784D01*
X444451Y386897D01*
X444279Y387023D01*
X444106Y387181D01*
X444017Y387214D01*
X443664Y387566D01*
X442675Y388137D01*
X441571Y388433D01*
D02*
G37*
G36*
X252768Y376354D02*
X251397D01*
X250074Y376000D01*
X248887Y375314D01*
X247918Y374345D01*
X247233Y373159D01*
X246878Y371835D01*
Y370464D01*
X247233Y369141D01*
X247918Y367954D01*
X248887Y366985D01*
X250074Y366300D01*
X251397Y365945D01*
X252768D01*
X254092Y366300D01*
X255278Y366985D01*
X256247Y367954D01*
X256933Y369141D01*
X257287Y370464D01*
Y371835D01*
X256933Y373159D01*
X256247Y374345D01*
X255278Y375314D01*
X254092Y376000D01*
X252768Y376354D01*
D02*
G37*
G36*
X483768Y375661D02*
X482398D01*
X481074Y375307D01*
X479887Y374622D01*
X478918Y373652D01*
X478233Y372466D01*
X477878Y371142D01*
Y369772D01*
X478233Y368448D01*
X478918Y367261D01*
X479887Y366292D01*
X481074Y365607D01*
X482398Y365252D01*
X483768D01*
X485092Y365607D01*
X486278Y366292D01*
X487248Y367261D01*
X487933Y368448D01*
X488287Y369772D01*
Y371142D01*
X487933Y372466D01*
X487248Y373652D01*
X486278Y374622D01*
X485092Y375307D01*
X483768Y375661D01*
D02*
G37*
G36*
X437953Y366376D02*
X436853D01*
Y364276D01*
X437953D01*
Y366376D01*
D02*
G37*
G36*
X434147D02*
X433047D01*
Y364276D01*
X434147D01*
Y366376D01*
D02*
G37*
G36*
X216040Y354986D02*
X216000D01*
Y351386D01*
X219600D01*
Y351426D01*
X219321Y352468D01*
X218781Y353403D01*
X218018Y354167D01*
X217083Y354706D01*
X216040Y354986D01*
D02*
G37*
G36*
X215000D02*
X214960D01*
X213917Y354706D01*
X212983Y354167D01*
X212219Y353403D01*
X211679Y352468D01*
X211400Y351426D01*
Y351386D01*
X215000D01*
Y354986D01*
D02*
G37*
G36*
X458000Y350472D02*
Y348752D01*
X461394D01*
Y350472D01*
X458000D01*
D02*
G37*
G36*
X449000Y350409D02*
X445606D01*
Y348689D01*
X449000D01*
Y350409D01*
D02*
G37*
G36*
X235974Y354486D02*
X235026D01*
X234110Y354240D01*
X233290Y353766D01*
X232619Y353096D01*
X232145Y352275D01*
X231900Y351360D01*
Y350412D01*
X232145Y349496D01*
X232619Y348675D01*
X233290Y348005D01*
X234110Y347531D01*
X235026Y347286D01*
X235974D01*
X236890Y347531D01*
X237710Y348005D01*
X238381Y348675D01*
X238855Y349496D01*
X239100Y350412D01*
Y351360D01*
X238855Y352275D01*
X238381Y353096D01*
X237710Y353766D01*
X236890Y354240D01*
X235974Y354486D01*
D02*
G37*
G36*
X219600Y350386D02*
X216000D01*
Y346786D01*
X216040D01*
X217083Y347065D01*
X218018Y347605D01*
X218781Y348368D01*
X219321Y349303D01*
X219600Y350346D01*
Y350386D01*
D02*
G37*
G36*
X215000D02*
X211400D01*
Y350346D01*
X211679Y349303D01*
X212219Y348368D01*
X212983Y347605D01*
X213917Y347065D01*
X214960Y346786D01*
X215000D01*
Y350386D01*
D02*
G37*
G36*
X461394Y347752D02*
X458000D01*
Y346031D01*
X461394D01*
Y347752D01*
D02*
G37*
G36*
X449000Y347689D02*
X445606D01*
Y345969D01*
X449000D01*
Y347689D01*
D02*
G37*
G36*
X453606Y350472D02*
X452832Y350409D01*
X450000D01*
Y348189D01*
Y345969D01*
X452832D01*
X453394Y345969D01*
X454168Y346031D01*
X457000D01*
Y348252D01*
Y350472D01*
X454168D01*
X453622Y350472D01*
X453606D01*
D02*
G37*
G36*
X321664Y345528D02*
X320336D01*
X319034Y345269D01*
X317807Y344760D01*
X316703Y344023D01*
X315765Y343084D01*
X315027Y341980D01*
X314519Y340753D01*
X314260Y339451D01*
Y338123D01*
X314519Y336821D01*
X315027Y335595D01*
X315765Y334491D01*
X316703Y333552D01*
X317807Y332814D01*
X319034Y332306D01*
X320336Y332047D01*
X321664D01*
X322966Y332306D01*
X324193Y332814D01*
X325297Y333552D01*
X326235Y334491D01*
X326973Y335595D01*
X327481Y336821D01*
X327740Y338123D01*
Y339451D01*
X327481Y340753D01*
X326973Y341980D01*
X326235Y343084D01*
X325297Y344023D01*
X324193Y344760D01*
X322966Y345269D01*
X321664Y345528D01*
D02*
G37*
G36*
X390635Y346079D02*
X389199D01*
X387790Y345798D01*
X386464Y345249D01*
X385269Y344451D01*
X384254Y343435D01*
X383456Y342241D01*
X382906Y340914D01*
X382626Y339506D01*
Y338069D01*
X382906Y336661D01*
X383456Y335334D01*
X384254Y334139D01*
X385269Y333124D01*
X386464Y332326D01*
X387790Y331776D01*
X389199Y331496D01*
X390635D01*
X392044Y331776D01*
X393371Y332326D01*
X394565Y333124D01*
X395581Y334139D01*
X396379Y335334D01*
X396929Y336661D01*
X397209Y338069D01*
Y339506D01*
X396929Y340914D01*
X396379Y342241D01*
X395581Y343435D01*
X394565Y344451D01*
X393371Y345249D01*
X392044Y345798D01*
X390635Y346079D01*
D02*
G37*
G36*
X552664Y344835D02*
X551336D01*
X550034Y344576D01*
X548807Y344068D01*
X547703Y343330D01*
X546765Y342391D01*
X546027Y341287D01*
X545519Y340060D01*
X545260Y338758D01*
Y337431D01*
X545519Y336128D01*
X546027Y334902D01*
X546765Y333798D01*
X547703Y332859D01*
X548807Y332121D01*
X550034Y331613D01*
X551336Y331354D01*
X552664D01*
X553966Y331613D01*
X555193Y332121D01*
X556297Y332859D01*
X557235Y333798D01*
X557973Y334902D01*
X558481Y336128D01*
X558740Y337431D01*
Y338758D01*
X558481Y340060D01*
X557973Y341287D01*
X557235Y342391D01*
X556297Y343330D01*
X555193Y344068D01*
X553966Y344576D01*
X552664Y344835D01*
D02*
G37*
G36*
X621635Y345386D02*
X620199D01*
X618790Y345106D01*
X617464Y344556D01*
X616269Y343758D01*
X615254Y342742D01*
X614456Y341548D01*
X613906Y340221D01*
X613626Y338813D01*
Y337376D01*
X613906Y335968D01*
X614456Y334641D01*
X615254Y333447D01*
X616269Y332431D01*
X617464Y331633D01*
X618790Y331083D01*
X620199Y330803D01*
X621635D01*
X623044Y331083D01*
X624371Y331633D01*
X625565Y332431D01*
X626581Y333447D01*
X627379Y334641D01*
X627928Y335968D01*
X628209Y337376D01*
Y338813D01*
X627928Y340221D01*
X627379Y341548D01*
X626581Y342742D01*
X625565Y343758D01*
X624371Y344556D01*
X623044Y345106D01*
X621635Y345386D01*
D02*
G37*
G36*
X464474Y319195D02*
X463526D01*
X462610Y318949D01*
X461790Y318475D01*
X461119Y317805D01*
X460645Y316984D01*
X460400Y316068D01*
Y315121D01*
X460645Y314205D01*
X461119Y313384D01*
X461790Y312714D01*
X462610Y312240D01*
X463526Y311995D01*
X464474D01*
X465389Y312240D01*
X466211Y312714D01*
X466881Y313384D01*
X467355Y314205D01*
X467600Y315121D01*
Y316068D01*
X467355Y316984D01*
X466881Y317805D01*
X466211Y318475D01*
X465389Y318949D01*
X464474Y319195D01*
D02*
G37*
G36*
X454474D02*
X453526D01*
X452610Y318949D01*
X451790Y318475D01*
X451119Y317805D01*
X450645Y316984D01*
X450400Y316068D01*
Y315121D01*
X450645Y314205D01*
X451119Y313384D01*
X451790Y312714D01*
X452610Y312240D01*
X453526Y311995D01*
X454474D01*
X455389Y312240D01*
X456211Y312714D01*
X456881Y313384D01*
X457355Y314205D01*
X457600Y315121D01*
Y316068D01*
X457355Y316984D01*
X456881Y317805D01*
X456211Y318475D01*
X455389Y318949D01*
X454474Y319195D01*
D02*
G37*
G36*
X224474D02*
X223526D01*
X222610Y318949D01*
X221790Y318475D01*
X221119Y317805D01*
X220645Y316984D01*
X220400Y316068D01*
Y315121D01*
X220645Y314205D01*
X221119Y313384D01*
X221790Y312714D01*
X222610Y312240D01*
X223526Y311995D01*
X224474D01*
X225390Y312240D01*
X226210Y312714D01*
X226881Y313384D01*
X227355Y314205D01*
X227600Y315121D01*
Y316068D01*
X227355Y316984D01*
X226881Y317805D01*
X226210Y318475D01*
X225390Y318949D01*
X224474Y319195D01*
D02*
G37*
G36*
X214474D02*
X213526D01*
X212610Y318949D01*
X211790Y318475D01*
X211119Y317805D01*
X210645Y316984D01*
X210400Y316068D01*
Y315121D01*
X210645Y314205D01*
X211119Y313384D01*
X211790Y312714D01*
X212610Y312240D01*
X213526Y311995D01*
X214474D01*
X215390Y312240D01*
X216210Y312714D01*
X216881Y313384D01*
X217355Y314205D01*
X217600Y315121D01*
Y316068D01*
X217355Y316984D01*
X216881Y317805D01*
X216210Y318475D01*
X215390Y318949D01*
X214474Y319195D01*
D02*
G37*
G36*
X464474Y309194D02*
X463526D01*
X462610Y308949D01*
X461790Y308475D01*
X461119Y307805D01*
X460645Y306984D01*
X460400Y306068D01*
Y305120D01*
X460645Y304205D01*
X461119Y303384D01*
X461790Y302714D01*
X462610Y302240D01*
X463526Y301994D01*
X464474D01*
X465389Y302240D01*
X466211Y302714D01*
X466881Y303384D01*
X467355Y304205D01*
X467600Y305120D01*
Y306068D01*
X467355Y306984D01*
X466881Y307805D01*
X466211Y308475D01*
X465389Y308949D01*
X464474Y309194D01*
D02*
G37*
G36*
X454474D02*
X453526D01*
X452610Y308949D01*
X451790Y308475D01*
X451119Y307805D01*
X450645Y306984D01*
X450400Y306068D01*
Y305120D01*
X450645Y304205D01*
X451119Y303384D01*
X451790Y302714D01*
X452610Y302240D01*
X453526Y301994D01*
X454474D01*
X455389Y302240D01*
X456211Y302714D01*
X456881Y303384D01*
X457355Y304205D01*
X457600Y305120D01*
Y306068D01*
X457355Y306984D01*
X456881Y307805D01*
X456211Y308475D01*
X455389Y308949D01*
X454474Y309194D01*
D02*
G37*
G36*
X224474D02*
X223526D01*
X222610Y308949D01*
X221790Y308475D01*
X221119Y307805D01*
X220645Y306984D01*
X220400Y306068D01*
Y305120D01*
X220645Y304205D01*
X221119Y303384D01*
X221790Y302714D01*
X222610Y302240D01*
X223526Y301994D01*
X224474D01*
X225390Y302240D01*
X226210Y302714D01*
X226881Y303384D01*
X227355Y304205D01*
X227600Y305120D01*
Y306068D01*
X227355Y306984D01*
X226881Y307805D01*
X226210Y308475D01*
X225390Y308949D01*
X224474Y309194D01*
D02*
G37*
G36*
X214474D02*
X213526D01*
X212610Y308949D01*
X211790Y308475D01*
X211119Y307805D01*
X210645Y306984D01*
X210400Y306068D01*
Y305120D01*
X210645Y304205D01*
X211119Y303384D01*
X211790Y302714D01*
X212610Y302240D01*
X213526Y301994D01*
X214474D01*
X215390Y302240D01*
X216210Y302714D01*
X216881Y303384D01*
X217355Y304205D01*
X217600Y305120D01*
Y306068D01*
X217355Y306984D01*
X216881Y307805D01*
X216210Y308475D01*
X215390Y308949D01*
X214474Y309194D01*
D02*
G37*
G36*
X464474Y299195D02*
X463526D01*
X462610Y298949D01*
X461790Y298475D01*
X461119Y297805D01*
X460645Y296984D01*
X460400Y296068D01*
Y295121D01*
X460645Y294205D01*
X461119Y293384D01*
X461790Y292714D01*
X462610Y292240D01*
X463526Y291995D01*
X464474D01*
X465389Y292240D01*
X466211Y292714D01*
X466881Y293384D01*
X467355Y294205D01*
X467600Y295121D01*
Y296068D01*
X467355Y296984D01*
X466881Y297805D01*
X466211Y298475D01*
X465389Y298949D01*
X464474Y299195D01*
D02*
G37*
G36*
X454474D02*
X453526D01*
X452610Y298949D01*
X451790Y298475D01*
X451119Y297805D01*
X450645Y296984D01*
X450400Y296068D01*
Y295121D01*
X450645Y294205D01*
X451119Y293384D01*
X451790Y292714D01*
X452610Y292240D01*
X453526Y291995D01*
X454474D01*
X455389Y292240D01*
X456211Y292714D01*
X456881Y293384D01*
X457355Y294205D01*
X457600Y295121D01*
Y296068D01*
X457355Y296984D01*
X456881Y297805D01*
X456211Y298475D01*
X455389Y298949D01*
X454474Y299195D01*
D02*
G37*
G36*
X224474D02*
X223526D01*
X222610Y298949D01*
X221790Y298475D01*
X221119Y297805D01*
X220645Y296984D01*
X220400Y296068D01*
Y295121D01*
X220645Y294205D01*
X221119Y293384D01*
X221790Y292714D01*
X222610Y292240D01*
X223526Y291995D01*
X224474D01*
X225390Y292240D01*
X226210Y292714D01*
X226881Y293384D01*
X227355Y294205D01*
X227600Y295121D01*
Y296068D01*
X227355Y296984D01*
X226881Y297805D01*
X226210Y298475D01*
X225390Y298949D01*
X224474Y299195D01*
D02*
G37*
G36*
X224540Y289694D02*
X224500D01*
Y286094D01*
X228100D01*
Y286134D01*
X227821Y287177D01*
X227281Y288112D01*
X226518Y288875D01*
X225583Y289415D01*
X224540Y289694D01*
D02*
G37*
G36*
X223500D02*
X223460D01*
X222417Y289415D01*
X221482Y288875D01*
X220719Y288112D01*
X220179Y287177D01*
X219900Y286134D01*
Y286094D01*
X223500D01*
Y289694D01*
D02*
G37*
G36*
X464474Y289194D02*
X463526D01*
X462610Y288949D01*
X461790Y288475D01*
X461119Y287805D01*
X460645Y286984D01*
X460400Y286068D01*
Y285121D01*
X460645Y284205D01*
X461119Y283384D01*
X461790Y282714D01*
X462610Y282240D01*
X463526Y281995D01*
X464474D01*
X465389Y282240D01*
X466211Y282714D01*
X466881Y283384D01*
X467355Y284205D01*
X467600Y285121D01*
Y286068D01*
X467355Y286984D01*
X466881Y287805D01*
X466211Y288475D01*
X465389Y288949D01*
X464474Y289194D01*
D02*
G37*
G36*
X454474D02*
X453526D01*
X452610Y288949D01*
X451790Y288475D01*
X451418Y288104D01*
X451328Y288067D01*
X451187Y287928D01*
X451053Y287821D01*
X450902Y287725D01*
X450734Y287640D01*
X450547Y287565D01*
X450340Y287503D01*
X450112Y287453D01*
X449863Y287416D01*
X449593Y287393D01*
X449289Y287386D01*
X449274Y287379D01*
X449111D01*
X448428Y287243D01*
X447849Y286856D01*
X447849Y286856D01*
X374738Y213745D01*
X374352Y213166D01*
X374216Y212484D01*
Y161094D01*
X374352Y160412D01*
X374738Y159833D01*
X384400Y150171D01*
Y149997D01*
X384742Y149170D01*
X385375Y148537D01*
X386202Y148195D01*
X387098D01*
X387925Y148537D01*
X388558Y149170D01*
X388900Y149997D01*
Y150171D01*
X425262Y186533D01*
X425262Y186533D01*
X425648Y187112D01*
X425784Y187794D01*
X425784Y187794D01*
Y209372D01*
X425847Y209689D01*
Y217126D01*
X425783Y217447D01*
Y220520D01*
X424925D01*
X424922Y220521D01*
X424914Y220541D01*
X424894Y220613D01*
X424877Y220716D01*
X424865Y220849D01*
X424861Y221022D01*
X424839Y221070D01*
Y223041D01*
X424861Y223090D01*
X424868Y223434D01*
X424880Y223589D01*
X425012Y223589D01*
X425041Y224101D01*
X425018Y224156D01*
X425019Y224253D01*
X425012Y224262D01*
Y225530D01*
X426123D01*
X426980Y224672D01*
Y175796D01*
X427058Y175406D01*
X427279Y175075D01*
X452525Y149830D01*
X452523Y149817D01*
X452476Y149630D01*
X452409Y149443D01*
X452322Y149254D01*
X452213Y149063D01*
X452081Y148870D01*
X451926Y148676D01*
X451747Y148479D01*
X451532Y148272D01*
X451516Y148234D01*
X451480Y148213D01*
X451462Y148148D01*
X451119Y147805D01*
X450645Y146984D01*
X450400Y146068D01*
Y145121D01*
X450645Y144205D01*
X451119Y143384D01*
X451790Y142714D01*
X452610Y142240D01*
X453526Y141995D01*
X454474D01*
X455389Y142240D01*
X456211Y142714D01*
X456881Y143384D01*
X457180Y143903D01*
X457980Y143689D01*
Y141017D01*
X456815Y139851D01*
X456773Y139837D01*
X456634Y139718D01*
X456494Y139628D01*
X456317Y139542D01*
X456101Y139462D01*
X455848Y139392D01*
X455557Y139334D01*
X455236Y139289D01*
X454463Y139239D01*
X454027Y139235D01*
X453930Y139195D01*
X453526D01*
X452610Y138949D01*
X451790Y138475D01*
X451119Y137805D01*
X450645Y136984D01*
X450400Y136068D01*
Y135120D01*
X450645Y134205D01*
X451119Y133384D01*
X451405Y133098D01*
X451445Y133001D01*
X451751Y132690D01*
X452262Y132108D01*
X452457Y131849D01*
X452621Y131602D01*
X452751Y131374D01*
X452847Y131165D01*
X452911Y130979D01*
X452947Y130816D01*
X452954Y130720D01*
X452857Y130435D01*
X452603Y129945D01*
X451150D01*
Y124944D01*
X451434D01*
Y123245D01*
X451150D01*
Y121699D01*
X451148Y121696D01*
X451128Y121688D01*
X451057Y121669D01*
X450954Y121652D01*
X450821Y121640D01*
X450648Y121635D01*
X450600Y121614D01*
X418033D01*
X417987Y121635D01*
X417797Y121643D01*
X417737Y121649D01*
X417683Y121658D01*
X417640Y121668D01*
X417610Y121677D01*
X417592Y121684D01*
X417588Y121686D01*
X417573Y121699D01*
X417563Y121703D01*
X417561Y121704D01*
X417557Y121705D01*
X417486Y121729D01*
X417350Y121866D01*
X416798Y122095D01*
X416202D01*
X415650Y121866D01*
X415228Y121444D01*
X415000Y120893D01*
Y120296D01*
X415228Y119745D01*
X415650Y119323D01*
X416202Y119095D01*
X416798D01*
X417350Y119323D01*
X417486Y119460D01*
X417557Y119484D01*
X417561Y119485D01*
X417563Y119486D01*
X417573Y119490D01*
X417588Y119503D01*
X417592Y119505D01*
X417610Y119512D01*
X417640Y119521D01*
X417683Y119531D01*
X417731Y119539D01*
X417886Y119552D01*
X417976Y119553D01*
X418025Y119575D01*
X450600D01*
X450648Y119553D01*
X450821Y119549D01*
X450954Y119537D01*
X451057Y119520D01*
X451128Y119501D01*
X451148Y119493D01*
X451150Y119490D01*
Y118245D01*
X456850D01*
Y123245D01*
X456566D01*
Y124944D01*
X456850D01*
Y129945D01*
X455397D01*
X455143Y130435D01*
X455046Y130720D01*
X455054Y130816D01*
X455089Y130979D01*
X455153Y131165D01*
X455249Y131374D01*
X455379Y131602D01*
X455543Y131849D01*
X455738Y132108D01*
X456249Y132690D01*
X456555Y133001D01*
X456595Y133098D01*
X456881Y133384D01*
X457355Y134205D01*
X457600Y135120D01*
Y135525D01*
X457641Y135622D01*
X457644Y136058D01*
X457695Y136831D01*
X457739Y137152D01*
X457798Y137443D01*
X457868Y137696D01*
X457947Y137911D01*
X458034Y138088D01*
X458124Y138228D01*
X458243Y138367D01*
X458256Y138409D01*
X459721Y139874D01*
X459942Y140204D01*
X460020Y140594D01*
Y143689D01*
X460820Y143903D01*
X461119Y143384D01*
X461790Y142714D01*
X462610Y142240D01*
X463526Y141995D01*
X464474D01*
X465389Y142240D01*
X466211Y142714D01*
X466881Y143384D01*
X467355Y144205D01*
X467600Y145121D01*
Y146068D01*
X467355Y146984D01*
X466881Y147805D01*
X466211Y148475D01*
X465389Y148949D01*
X464474Y149195D01*
X463526D01*
X462610Y148949D01*
X461790Y148475D01*
X461119Y147805D01*
X460820Y147286D01*
X460020Y147500D01*
Y153689D01*
X460820Y153903D01*
X461119Y153384D01*
X461790Y152714D01*
X462610Y152240D01*
X463526Y151995D01*
X464474D01*
X465389Y152240D01*
X466211Y152714D01*
X466881Y153384D01*
X467355Y154205D01*
X467600Y155121D01*
Y156068D01*
X467355Y156984D01*
X466881Y157805D01*
X466211Y158475D01*
X465389Y158949D01*
X464474Y159195D01*
X463526D01*
X462610Y158949D01*
X461790Y158475D01*
X461119Y157805D01*
X460820Y157286D01*
X460020Y157500D01*
Y158095D01*
X459942Y158485D01*
X459721Y158815D01*
X457721Y160815D01*
X457390Y161037D01*
X457000Y161114D01*
X450922D01*
X440533Y171503D01*
Y220081D01*
X440456Y220471D01*
X440235Y220802D01*
X426753Y234284D01*
X426422Y234505D01*
X426031Y234583D01*
X421554D01*
X421164Y234505D01*
X420833Y234284D01*
X420718Y234168D01*
X419918Y234500D01*
Y238510D01*
X419941Y238562D01*
X419943Y238644D01*
X419949Y238703D01*
X419958Y238756D01*
X419969Y238802D01*
X419982Y238843D01*
X419997Y238879D01*
X420014Y238911D01*
X420033Y238940D01*
X420055Y238967D01*
X420095Y239011D01*
X420130Y239103D01*
X420272Y239245D01*
X420500Y239796D01*
Y240393D01*
X420272Y240944D01*
X420130Y241086D01*
X420095Y241178D01*
X420055Y241222D01*
X420033Y241249D01*
X420014Y241278D01*
X419997Y241310D01*
X419982Y241346D01*
X419969Y241387D01*
X419958Y241433D01*
X419949Y241486D01*
X419943Y241545D01*
X419941Y241627D01*
X419918Y241679D01*
Y250674D01*
X433921Y264677D01*
X436445D01*
X436498Y264653D01*
X436633Y264650D01*
X436732Y264641D01*
X436800Y264630D01*
Y262744D01*
X441800D01*
Y263028D01*
X443500D01*
Y262744D01*
X448500D01*
Y264000D01*
X449176Y264507D01*
X449284Y264527D01*
X449385Y264506D01*
X449571Y264441D01*
X449779Y264345D01*
X450008Y264216D01*
X450254Y264052D01*
X450513Y263856D01*
X451096Y263345D01*
X451406Y263039D01*
X451504Y263000D01*
X451790Y262714D01*
X452610Y262240D01*
X453526Y261995D01*
X454474D01*
X455389Y262240D01*
X456211Y262714D01*
X456881Y263384D01*
X457355Y264205D01*
X457600Y265121D01*
Y266068D01*
X457355Y266984D01*
X456881Y267805D01*
X456211Y268475D01*
X455389Y268949D01*
X454474Y269195D01*
X453526D01*
X452610Y268949D01*
X451790Y268475D01*
X451504Y268190D01*
X451406Y268150D01*
X451096Y267844D01*
X450513Y267333D01*
X450254Y267137D01*
X450008Y266973D01*
X449779Y266844D01*
X449571Y266748D01*
X449385Y266683D01*
X449284Y266662D01*
X449176Y266682D01*
X448500Y267189D01*
Y268444D01*
X443500D01*
Y268161D01*
X441800D01*
Y268444D01*
X436800D01*
Y266559D01*
X436732Y266548D01*
X436633Y266539D01*
X436498Y266535D01*
X436445Y266512D01*
X433683D01*
X433445Y266854D01*
X433325Y267285D01*
X449817Y283777D01*
X449863Y283773D01*
X450112Y283736D01*
X450340Y283686D01*
X450547Y283624D01*
X450734Y283549D01*
X450902Y283464D01*
X451053Y283368D01*
X451187Y283261D01*
X451328Y283122D01*
X451418Y283085D01*
X451790Y282714D01*
X452610Y282240D01*
X453526Y281995D01*
X454474D01*
X455389Y282240D01*
X456211Y282714D01*
X456881Y283384D01*
X457355Y284205D01*
X457600Y285121D01*
Y286068D01*
X457355Y286984D01*
X456881Y287805D01*
X456211Y288475D01*
X455389Y288949D01*
X454474Y289194D01*
D02*
G37*
G36*
X214474D02*
X213526D01*
X212610Y288949D01*
X211790Y288475D01*
X211119Y287805D01*
X210645Y286984D01*
X210400Y286068D01*
Y285121D01*
X210645Y284205D01*
X211119Y283384D01*
X211790Y282714D01*
X212610Y282240D01*
X213526Y281995D01*
X214474D01*
X215390Y282240D01*
X216210Y282714D01*
X216881Y283384D01*
X217355Y284205D01*
X217600Y285121D01*
Y286068D01*
X217355Y286984D01*
X216881Y287805D01*
X216210Y288475D01*
X215390Y288949D01*
X214474Y289194D01*
D02*
G37*
G36*
X228100Y285094D02*
X224500D01*
Y281494D01*
X224540D01*
X225583Y281774D01*
X226518Y282314D01*
X227281Y283077D01*
X227821Y284012D01*
X228100Y285055D01*
Y285094D01*
D02*
G37*
G36*
X223500D02*
X219900D01*
Y285055D01*
X220179Y284012D01*
X220719Y283077D01*
X221482Y282314D01*
X222417Y281774D01*
X223460Y281494D01*
X223500D01*
Y285094D01*
D02*
G37*
G36*
X454540Y279695D02*
X454500D01*
Y276095D01*
X458100D01*
Y276134D01*
X457821Y277177D01*
X457281Y278112D01*
X456518Y278875D01*
X455583Y279415D01*
X454540Y279695D01*
D02*
G37*
G36*
X453500D02*
X453460D01*
X452418Y279415D01*
X451482Y278875D01*
X450719Y278112D01*
X450179Y277177D01*
X449900Y276134D01*
Y276095D01*
X453500D01*
Y279695D01*
D02*
G37*
G36*
X214474Y299195D02*
X213526D01*
X212610Y298949D01*
X211790Y298475D01*
X211119Y297805D01*
X210645Y296984D01*
X210400Y296068D01*
Y295668D01*
X210359Y295575D01*
X210352Y295272D01*
X210328Y295001D01*
X210286Y294744D01*
X210228Y294501D01*
X210152Y294272D01*
X210060Y294055D01*
X209951Y293850D01*
X209825Y293655D01*
X209682Y293470D01*
X209505Y293278D01*
X209495Y293253D01*
X191867Y275624D01*
X167587D01*
X167563Y275635D01*
X167295Y275647D01*
X167055Y275679D01*
X166819Y275732D01*
X166585Y275807D01*
X166353Y275904D01*
X166122Y276023D01*
X165892Y276167D01*
X165663Y276335D01*
X165434Y276528D01*
X165194Y276758D01*
X165100Y276796D01*
X164801Y277094D01*
X163947Y277587D01*
X162993Y277842D01*
X162007D01*
X161053Y277587D01*
X160199Y277094D01*
X159900Y276796D01*
X159806Y276758D01*
X159566Y276528D01*
X159337Y276335D01*
X159108Y276167D01*
X158878Y276023D01*
X158647Y275904D01*
X158415Y275807D01*
X158181Y275732D01*
X157945Y275679D01*
X157705Y275647D01*
X157500Y275638D01*
X157295Y275647D01*
X157055Y275679D01*
X156819Y275732D01*
X156585Y275807D01*
X156353Y275904D01*
X156122Y276023D01*
X155892Y276167D01*
X155663Y276335D01*
X155434Y276528D01*
X155194Y276758D01*
X155099Y276796D01*
X154801Y277094D01*
X153947Y277587D01*
X152993Y277842D01*
X152007D01*
X151053Y277587D01*
X150199Y277094D01*
X149900Y276796D01*
X149805Y276758D01*
X149566Y276528D01*
X149337Y276335D01*
X149108Y276167D01*
X148878Y276023D01*
X148647Y275904D01*
X148415Y275807D01*
X148181Y275732D01*
X147945Y275679D01*
X147705Y275647D01*
X147437Y275635D01*
X147413Y275624D01*
X143213D01*
X142627Y275507D01*
X142131Y275176D01*
X125481Y258526D01*
X125150Y258030D01*
X125034Y257445D01*
Y256887D01*
X125022Y256860D01*
X125003Y255854D01*
X124972Y255403D01*
X124967Y255362D01*
X124843D01*
X124813Y254850D01*
X124843Y254780D01*
Y249375D01*
X124843Y249256D01*
X124839Y249253D01*
X124840Y249151D01*
X124813Y249087D01*
X124843Y248575D01*
X125050D01*
X125063Y248515D01*
X125114Y247787D01*
X125113Y247776D01*
X125080Y247512D01*
X125037Y247298D01*
X124987Y247138D01*
X124940Y247034D01*
X124908Y246988D01*
X124856Y246981D01*
X124856Y246981D01*
X124816Y246957D01*
X124420D01*
X124390Y246445D01*
X124398Y246426D01*
X124396Y246370D01*
X124420Y246329D01*
Y245207D01*
X124393Y245159D01*
X124385Y245080D01*
X124384Y245076D01*
X124382Y245073D01*
X124363Y245056D01*
X124311Y245024D01*
X124218Y244986D01*
X124082Y244949D01*
X123903Y244920D01*
X123686Y244900D01*
X123417Y244893D01*
X123380Y244877D01*
X114826D01*
X114338Y244780D01*
X113925Y244504D01*
X108599Y239178D01*
X108323Y238764D01*
X108226Y238277D01*
Y232670D01*
X108323Y232182D01*
X108599Y231769D01*
X109924Y230443D01*
X110338Y230167D01*
X110826Y230070D01*
X114275D01*
X114763Y230167D01*
X115176Y230443D01*
X115280Y230547D01*
X116080Y230351D01*
Y227842D01*
X116080Y227624D01*
X116051Y227554D01*
X116080Y227042D01*
X116145Y226255D01*
Y224335D01*
X114851Y223041D01*
X114652Y222743D01*
X114582Y222392D01*
Y205594D01*
X114652Y205243D01*
X114851Y204946D01*
X116231Y203566D01*
X116251Y203513D01*
X116307Y203453D01*
X116345Y203407D01*
X116376Y203364D01*
X116401Y203323D01*
X116420Y203285D01*
X116435Y203249D01*
X116446Y203214D01*
X116453Y203180D01*
X116457Y203146D01*
X116459Y203086D01*
X116500Y202996D01*
Y202796D01*
X116728Y202245D01*
X117150Y201823D01*
X117702Y201594D01*
X118298D01*
X118850Y201823D01*
X119272Y202245D01*
X119500Y202796D01*
Y203393D01*
X119272Y203944D01*
X118850Y204366D01*
X118298Y204594D01*
X118098D01*
X118008Y204635D01*
X117949Y204637D01*
X117914Y204642D01*
X117880Y204649D01*
X117845Y204660D01*
X117809Y204674D01*
X117771Y204694D01*
X117731Y204718D01*
X117687Y204749D01*
X117641Y204787D01*
X117581Y204844D01*
X117528Y204864D01*
X116418Y205975D01*
Y207081D01*
X117150Y207244D01*
Y207244D01*
X122850D01*
Y208197D01*
X123479Y208605D01*
X123609Y208645D01*
X123661Y208637D01*
X123708Y208626D01*
X123748Y208612D01*
X123784Y208597D01*
X123816Y208580D01*
X123845Y208561D01*
X123873Y208540D01*
X123916Y208499D01*
X124009Y208464D01*
X124150Y208323D01*
X124702Y208095D01*
X125298D01*
X125850Y208323D01*
X126272Y208745D01*
X126500Y209296D01*
Y209893D01*
X126272Y210444D01*
X125850Y210866D01*
X125298Y211094D01*
X124702D01*
X124150Y210866D01*
X124009Y210724D01*
X123916Y210690D01*
X123873Y210649D01*
X123845Y210628D01*
X123816Y210609D01*
X123784Y210592D01*
X123748Y210577D01*
X123708Y210563D01*
X123661Y210552D01*
X123609Y210543D01*
X123479Y210584D01*
X122850Y210992D01*
Y212245D01*
X122566D01*
Y213945D01*
X122850D01*
Y218945D01*
X120512D01*
X120501Y219013D01*
X120492Y219111D01*
X120488Y219247D01*
X120465Y219299D01*
Y224325D01*
X120488Y224380D01*
X120490Y224520D01*
X120499Y224675D01*
X126553D01*
Y226542D01*
X127020D01*
Y227642D01*
X125620D01*
Y227475D01*
X118880D01*
Y229010D01*
Y233959D01*
X118898Y234047D01*
X119383Y234714D01*
X126016D01*
X126120Y234694D01*
Y233679D01*
X125620D01*
Y232579D01*
X127520D01*
X129420D01*
Y233679D01*
X128920D01*
Y234618D01*
X129515D01*
X130100Y234734D01*
X130597Y235066D01*
X134700Y239170D01*
X135032Y239666D01*
X135148Y240248D01*
X136881D01*
Y246957D01*
X132119D01*
Y246673D01*
X129182D01*
Y246957D01*
X128775D01*
X128727Y246983D01*
X128604Y246996D01*
X128560Y247011D01*
X128522Y247038D01*
X128473Y247091D01*
X128414Y247187D01*
X128354Y247336D01*
X128301Y247538D01*
X128259Y247792D01*
X128284Y248575D01*
X128313Y249087D01*
X128309Y249095D01*
X128311Y249130D01*
X128284Y249184D01*
Y254562D01*
X128284Y254780D01*
X128313Y254850D01*
X128284Y255362D01*
X128185D01*
X128106Y256490D01*
X128104Y256823D01*
X143846Y272565D01*
X147413D01*
X147437Y272554D01*
X147705Y272542D01*
X147945Y272510D01*
X148181Y272457D01*
X148415Y272382D01*
X148647Y272285D01*
X148878Y272165D01*
X149108Y272022D01*
X149337Y271854D01*
X149566Y271661D01*
X149805Y271431D01*
X149900Y271393D01*
X150199Y271095D01*
X151053Y270602D01*
X152007Y270346D01*
X152993D01*
X153947Y270602D01*
X154801Y271095D01*
X155099Y271393D01*
X155194Y271431D01*
X155434Y271661D01*
X155663Y271854D01*
X155892Y272022D01*
X156122Y272165D01*
X156353Y272285D01*
X156585Y272382D01*
X156819Y272457D01*
X157055Y272510D01*
X157295Y272542D01*
X157500Y272551D01*
X157705Y272542D01*
X157945Y272510D01*
X158181Y272457D01*
X158415Y272382D01*
X158647Y272285D01*
X158878Y272165D01*
X159108Y272022D01*
X159337Y271854D01*
X159566Y271661D01*
X159806Y271431D01*
X159900Y271393D01*
X160199Y271095D01*
X161053Y270602D01*
X162007Y270346D01*
X162993D01*
X163947Y270602D01*
X164801Y271095D01*
X165100Y271393D01*
X165194Y271431D01*
X165434Y271661D01*
X165663Y271854D01*
X165892Y272022D01*
X166122Y272165D01*
X166353Y272285D01*
X166585Y272382D01*
X166819Y272457D01*
X167055Y272510D01*
X167295Y272542D01*
X167563Y272554D01*
X167587Y272565D01*
X192500D01*
X193085Y272681D01*
X193581Y273013D01*
X211658Y291090D01*
X211684Y291099D01*
X211876Y291276D01*
X212061Y291420D01*
X212256Y291546D01*
X212461Y291654D01*
X212678Y291746D01*
X212907Y291822D01*
X213150Y291881D01*
X213406Y291923D01*
X213678Y291947D01*
X213981Y291954D01*
X214074Y291995D01*
X214474D01*
X215390Y292240D01*
X216210Y292714D01*
X216881Y293384D01*
X217355Y294205D01*
X217600Y295121D01*
Y296068D01*
X217355Y296984D01*
X216881Y297805D01*
X216210Y298475D01*
X215390Y298949D01*
X214474Y299195D01*
D02*
G37*
G36*
X464474Y279194D02*
X463526D01*
X462610Y278949D01*
X461790Y278475D01*
X461119Y277805D01*
X460645Y276984D01*
X460400Y276068D01*
Y275120D01*
X460645Y274205D01*
X461119Y273384D01*
X461790Y272714D01*
X462610Y272240D01*
X463526Y271994D01*
X464474D01*
X465389Y272240D01*
X466211Y272714D01*
X466881Y273384D01*
X467355Y274205D01*
X467600Y275120D01*
Y276068D01*
X467355Y276984D01*
X466881Y277805D01*
X466211Y278475D01*
X465389Y278949D01*
X464474Y279194D01*
D02*
G37*
G36*
X224474D02*
X223526D01*
X222610Y278949D01*
X221790Y278475D01*
X221119Y277805D01*
X220645Y276984D01*
X220400Y276068D01*
Y275120D01*
X220645Y274205D01*
X221119Y273384D01*
X221790Y272714D01*
X222610Y272240D01*
X223526Y271994D01*
X224474D01*
X225390Y272240D01*
X226210Y272714D01*
X226881Y273384D01*
X227355Y274205D01*
X227600Y275120D01*
Y276068D01*
X227355Y276984D01*
X226881Y277805D01*
X226210Y278475D01*
X225390Y278949D01*
X224474Y279194D01*
D02*
G37*
G36*
X214474D02*
X213526D01*
X212610Y278949D01*
X211790Y278475D01*
X211119Y277805D01*
X210645Y276984D01*
X210400Y276068D01*
Y275120D01*
X210645Y274205D01*
X211119Y273384D01*
X211790Y272714D01*
X212610Y272240D01*
X213526Y271994D01*
X214474D01*
X215390Y272240D01*
X216210Y272714D01*
X216881Y273384D01*
X217355Y274205D01*
X217600Y275120D01*
Y276068D01*
X217355Y276984D01*
X216881Y277805D01*
X216210Y278475D01*
X215390Y278949D01*
X214474Y279194D01*
D02*
G37*
G36*
X458100Y275095D02*
X454500D01*
Y271495D01*
X454540D01*
X455583Y271774D01*
X456518Y272314D01*
X457281Y273077D01*
X457821Y274012D01*
X458100Y275055D01*
Y275095D01*
D02*
G37*
G36*
X453500D02*
X449900D01*
Y275055D01*
X450179Y274012D01*
X450719Y273077D01*
X451482Y272314D01*
X452418Y271774D01*
X453460Y271495D01*
X453500D01*
Y275095D01*
D02*
G37*
G36*
X163059Y268342D02*
X163000D01*
Y264595D01*
X166748D01*
Y264654D01*
X166458Y265734D01*
X165899Y266703D01*
X165108Y267494D01*
X164140Y268053D01*
X163059Y268342D01*
D02*
G37*
G36*
X162000D02*
X161941D01*
X160860Y268053D01*
X159892Y267494D01*
X159101Y266703D01*
X158542Y265734D01*
X158252Y264654D01*
Y264595D01*
X162000D01*
Y268342D01*
D02*
G37*
G36*
X464474Y269195D02*
X463526D01*
X462610Y268949D01*
X461790Y268475D01*
X461119Y267805D01*
X460645Y266984D01*
X460400Y266068D01*
Y265121D01*
X460645Y264205D01*
X461119Y263384D01*
X461790Y262714D01*
X462610Y262240D01*
X463526Y261995D01*
X464474D01*
X465389Y262240D01*
X466211Y262714D01*
X466881Y263384D01*
X467355Y264205D01*
X467600Y265121D01*
Y266068D01*
X467355Y266984D01*
X466881Y267805D01*
X466211Y268475D01*
X465389Y268949D01*
X464474Y269195D01*
D02*
G37*
G36*
X224474D02*
X223526D01*
X222610Y268949D01*
X221790Y268475D01*
X221119Y267805D01*
X220645Y266984D01*
X220400Y266068D01*
Y265121D01*
X220645Y264205D01*
X221119Y263384D01*
X221790Y262714D01*
X222610Y262240D01*
X223526Y261995D01*
X224474D01*
X225390Y262240D01*
X226210Y262714D01*
X226881Y263384D01*
X227355Y264205D01*
X227600Y265121D01*
Y266068D01*
X227355Y266984D01*
X226881Y267805D01*
X226210Y268475D01*
X225390Y268949D01*
X224474Y269195D01*
D02*
G37*
G36*
X214474D02*
X213526D01*
X212610Y268949D01*
X211790Y268475D01*
X211119Y267805D01*
X210645Y266984D01*
X210400Y266068D01*
Y265121D01*
X210645Y264205D01*
X211119Y263384D01*
X211790Y262714D01*
X212610Y262240D01*
X213526Y261995D01*
X214474D01*
X215390Y262240D01*
X216210Y262714D01*
X216881Y263384D01*
X217355Y264205D01*
X217600Y265121D01*
Y266068D01*
X217355Y266984D01*
X216881Y267805D01*
X216210Y268475D01*
X215390Y268949D01*
X214474Y269195D01*
D02*
G37*
G36*
X152993Y267843D02*
X152007D01*
X151053Y267587D01*
X150199Y267094D01*
X149501Y266396D01*
X149007Y265541D01*
X148752Y264588D01*
Y263601D01*
X149007Y262648D01*
X149501Y261793D01*
X150199Y261095D01*
X151053Y260602D01*
X152007Y260347D01*
X152993D01*
X153947Y260602D01*
X154801Y261095D01*
X155499Y261793D01*
X155993Y262648D01*
X156248Y263601D01*
Y264588D01*
X155993Y265541D01*
X155499Y266396D01*
X154801Y267094D01*
X153947Y267587D01*
X152993Y267843D01*
D02*
G37*
G36*
X166748Y263595D02*
X163000D01*
Y259846D01*
X163059D01*
X164140Y260136D01*
X165108Y260695D01*
X165899Y261486D01*
X166458Y262455D01*
X166748Y263535D01*
Y263595D01*
D02*
G37*
G36*
X162000D02*
X158252D01*
Y263535D01*
X158542Y262455D01*
X159101Y261486D01*
X159892Y260695D01*
X160860Y260136D01*
X161941Y259846D01*
X162000D01*
Y263595D01*
D02*
G37*
G36*
X163059Y258343D02*
X163000D01*
Y254594D01*
X166748D01*
Y254654D01*
X166458Y255734D01*
X165899Y256703D01*
X165108Y257494D01*
X164140Y258053D01*
X163059Y258343D01*
D02*
G37*
G36*
X162000D02*
X161941D01*
X160860Y258053D01*
X159892Y257494D01*
X159101Y256703D01*
X158542Y255734D01*
X158252Y254654D01*
Y254594D01*
X162000D01*
Y258343D01*
D02*
G37*
G36*
X136658Y255862D02*
X134937D01*
Y252468D01*
X136658D01*
Y255862D01*
D02*
G37*
G36*
X133937D02*
X132217D01*
Y252468D01*
X133937D01*
Y255862D01*
D02*
G37*
G36*
X464474Y259194D02*
X463526D01*
X462610Y258949D01*
X461790Y258475D01*
X461119Y257805D01*
X460645Y256984D01*
X460400Y256068D01*
Y255120D01*
X460645Y254205D01*
X461119Y253384D01*
X461790Y252714D01*
X462610Y252240D01*
X463526Y251994D01*
X464474D01*
X465389Y252240D01*
X466211Y252714D01*
X466881Y253384D01*
X467355Y254205D01*
X467600Y255120D01*
Y256068D01*
X467355Y256984D01*
X466881Y257805D01*
X466211Y258475D01*
X465389Y258949D01*
X464474Y259194D01*
D02*
G37*
G36*
X454474D02*
X453526D01*
X452610Y258949D01*
X451790Y258475D01*
X451119Y257805D01*
X450645Y256984D01*
X450400Y256068D01*
Y255120D01*
X450645Y254205D01*
X451119Y253384D01*
X451790Y252714D01*
X452610Y252240D01*
X453526Y251994D01*
X454474D01*
X455389Y252240D01*
X456211Y252714D01*
X456881Y253384D01*
X457355Y254205D01*
X457600Y255120D01*
Y256068D01*
X457355Y256984D01*
X456881Y257805D01*
X456211Y258475D01*
X455389Y258949D01*
X454474Y259194D01*
D02*
G37*
G36*
X224474D02*
X223526D01*
X222610Y258949D01*
X221790Y258475D01*
X221119Y257805D01*
X220645Y256984D01*
X220400Y256068D01*
Y255120D01*
X220645Y254205D01*
X221119Y253384D01*
X221790Y252714D01*
X222610Y252240D01*
X223526Y251994D01*
X224474D01*
X225390Y252240D01*
X226210Y252714D01*
X226881Y253384D01*
X227355Y254205D01*
X227600Y255120D01*
Y256068D01*
X227355Y256984D01*
X226881Y257805D01*
X226210Y258475D01*
X225390Y258949D01*
X224474Y259194D01*
D02*
G37*
G36*
X152993Y257842D02*
X152007D01*
X151053Y257587D01*
X150199Y257094D01*
X149501Y256396D01*
X149007Y255541D01*
X148752Y254588D01*
Y253601D01*
X149007Y252648D01*
X149501Y251793D01*
X150199Y251095D01*
X151053Y250602D01*
X152007Y250346D01*
X152993D01*
X153947Y250602D01*
X154801Y251095D01*
X155499Y251793D01*
X155993Y252648D01*
X156248Y253601D01*
Y254588D01*
X155993Y255541D01*
X155499Y256396D01*
X154801Y257094D01*
X153947Y257587D01*
X152993Y257842D01*
D02*
G37*
G36*
X214474Y259194D02*
X213526D01*
X212610Y258949D01*
X211790Y258475D01*
X211119Y257805D01*
X210645Y256984D01*
X210400Y256068D01*
Y255664D01*
X210359Y255567D01*
X210356Y255131D01*
X210305Y254358D01*
X210261Y254037D01*
X210202Y253746D01*
X210132Y253493D01*
X210053Y253278D01*
X209966Y253101D01*
X209876Y252961D01*
X209757Y252822D01*
X209743Y252780D01*
X207078Y250114D01*
X165637D01*
X165327Y250914D01*
X165899Y251486D01*
X166458Y252455D01*
X166748Y253535D01*
Y253594D01*
X162500D01*
X158252D01*
Y253535D01*
X158542Y252455D01*
X159101Y251486D01*
X159673Y250914D01*
X159363Y250114D01*
X157500D01*
X157110Y250037D01*
X156779Y249815D01*
X155484Y248520D01*
X155442Y248507D01*
X155299Y248384D01*
X155151Y248290D01*
X154964Y248201D01*
X154736Y248118D01*
X154467Y248046D01*
X154158Y247985D01*
X153815Y247939D01*
X152993Y247886D01*
X152529Y247884D01*
X152432Y247843D01*
X152007D01*
X151053Y247587D01*
X150199Y247094D01*
X149501Y246396D01*
X149007Y245541D01*
X148752Y244588D01*
Y243601D01*
X149007Y242648D01*
X149501Y241793D01*
X150199Y241095D01*
X151053Y240602D01*
X152007Y240347D01*
X152993D01*
X153947Y240602D01*
X154801Y241095D01*
X155499Y241793D01*
X155993Y242648D01*
X156248Y243601D01*
Y244026D01*
X156289Y244124D01*
X156292Y244588D01*
X156344Y245410D01*
X156391Y245752D01*
X156451Y246061D01*
X156524Y246330D01*
X156606Y246559D01*
X156696Y246746D01*
X156790Y246893D01*
X156912Y247037D01*
X156926Y247078D01*
X157922Y248075D01*
X159363D01*
X159673Y247275D01*
X159101Y246703D01*
X158542Y245734D01*
X158252Y244654D01*
Y244595D01*
X162500D01*
X166748D01*
Y244654D01*
X166458Y245734D01*
X165899Y246703D01*
X165327Y247275D01*
X165637Y248075D01*
X207500D01*
X207890Y248152D01*
X208221Y248374D01*
X211185Y251338D01*
X211227Y251352D01*
X211366Y251471D01*
X211506Y251561D01*
X211684Y251647D01*
X211899Y251727D01*
X212152Y251797D01*
X212442Y251855D01*
X212764Y251900D01*
X213537Y251950D01*
X213973Y251954D01*
X214070Y251994D01*
X214474D01*
X215390Y252240D01*
X216210Y252714D01*
X216881Y253384D01*
X217355Y254205D01*
X217600Y255120D01*
Y256068D01*
X217355Y256984D01*
X216881Y257805D01*
X216210Y258475D01*
X215390Y258949D01*
X214474Y259194D01*
D02*
G37*
G36*
X136658Y251468D02*
X134937D01*
Y248075D01*
X136658D01*
Y251468D01*
D02*
G37*
G36*
X133937D02*
X132217D01*
Y248075D01*
X133937D01*
Y251468D01*
D02*
G37*
G36*
X607075Y249551D02*
X605000D01*
Y247476D01*
X607075D01*
Y249551D01*
D02*
G37*
G36*
X604000D02*
X601925D01*
Y247476D01*
X604000D01*
Y249551D01*
D02*
G37*
G36*
X454474Y249195D02*
X453526D01*
X452610Y248949D01*
X451790Y248475D01*
X451504Y248189D01*
X451406Y248150D01*
X451096Y247844D01*
X450513Y247333D01*
X450254Y247137D01*
X450008Y246973D01*
X449779Y246844D01*
X449650Y246784D01*
X449347Y246887D01*
X449031Y247084D01*
X448893Y247240D01*
X448850Y247319D01*
Y248445D01*
X443850D01*
Y248161D01*
X442150D01*
Y248445D01*
X437150D01*
Y246492D01*
X436521Y246084D01*
X436391Y246043D01*
X436339Y246052D01*
X436292Y246063D01*
X436252Y246077D01*
X436216Y246092D01*
X436184Y246109D01*
X436155Y246128D01*
X436127Y246149D01*
X436084Y246190D01*
X435991Y246224D01*
X435850Y246366D01*
X435298Y246595D01*
X434702D01*
X434150Y246366D01*
X433728Y245944D01*
X433500Y245393D01*
Y244796D01*
X433728Y244245D01*
X434150Y243823D01*
X434702Y243595D01*
X435298D01*
X435850Y243823D01*
X435991Y243964D01*
X436084Y243999D01*
X436127Y244040D01*
X436155Y244061D01*
X436184Y244080D01*
X436216Y244097D01*
X436252Y244112D01*
X436292Y244126D01*
X436339Y244137D01*
X436391Y244145D01*
X436521Y244105D01*
X437150Y243697D01*
Y242744D01*
X442150D01*
Y243028D01*
X443850D01*
Y242744D01*
X448850D01*
Y243870D01*
X448893Y243949D01*
X449031Y244105D01*
X449347Y244302D01*
X449650Y244405D01*
X449779Y244345D01*
X450008Y244216D01*
X450254Y244052D01*
X450513Y243856D01*
X451096Y243345D01*
X451406Y243039D01*
X451504Y243000D01*
X451790Y242714D01*
X452610Y242240D01*
X453526Y241995D01*
X454474D01*
X455389Y242240D01*
X456211Y242714D01*
X456881Y243384D01*
X457355Y244205D01*
X457600Y245121D01*
Y246068D01*
X457355Y246984D01*
X456881Y247805D01*
X456211Y248475D01*
X455389Y248949D01*
X454474Y249195D01*
D02*
G37*
G36*
X607075Y246476D02*
X605000D01*
Y244402D01*
X607075D01*
Y246476D01*
D02*
G37*
G36*
X604000D02*
X601925D01*
Y244402D01*
X604000D01*
Y246476D01*
D02*
G37*
G36*
X464474Y249195D02*
X463526D01*
X462610Y248949D01*
X461790Y248475D01*
X461119Y247805D01*
X460645Y246984D01*
X460400Y246068D01*
Y245121D01*
X460645Y244205D01*
X461119Y243384D01*
X461790Y242714D01*
X462610Y242240D01*
X463526Y241995D01*
X464474D01*
X465389Y242240D01*
X466211Y242714D01*
X466881Y243384D01*
X467355Y244205D01*
X467600Y245121D01*
Y246068D01*
X467355Y246984D01*
X466881Y247805D01*
X466211Y248475D01*
X465389Y248949D01*
X464474Y249195D01*
D02*
G37*
G36*
X224474D02*
X223526D01*
X222610Y248949D01*
X221790Y248475D01*
X221119Y247805D01*
X220645Y246984D01*
X220400Y246068D01*
Y245121D01*
X220645Y244205D01*
X221119Y243384D01*
X221790Y242714D01*
X222610Y242240D01*
X223526Y241995D01*
X224474D01*
X225390Y242240D01*
X226210Y242714D01*
X226881Y243384D01*
X227355Y244205D01*
X227600Y245121D01*
Y246068D01*
X227355Y246984D01*
X226881Y247805D01*
X226210Y248475D01*
X225390Y248949D01*
X224474Y249195D01*
D02*
G37*
G36*
X214474D02*
X213526D01*
X212610Y248949D01*
X211790Y248475D01*
X211119Y247805D01*
X210645Y246984D01*
X210400Y246068D01*
Y245664D01*
X210359Y245567D01*
X210356Y245131D01*
X210305Y244358D01*
X210261Y244037D01*
X210202Y243746D01*
X210132Y243493D01*
X210053Y243278D01*
X209966Y243101D01*
X209876Y242961D01*
X209757Y242822D01*
X209743Y242780D01*
X206578Y239614D01*
X164836D01*
X164621Y240414D01*
X165108Y240695D01*
X165899Y241486D01*
X166458Y242455D01*
X166748Y243535D01*
Y243595D01*
X162500D01*
X158252D01*
Y243535D01*
X158542Y242455D01*
X159101Y241486D01*
X159892Y240695D01*
X160379Y240414D01*
X160164Y239614D01*
X157000D01*
X156610Y239536D01*
X156279Y239315D01*
X155484Y238520D01*
X155442Y238507D01*
X155299Y238384D01*
X155151Y238290D01*
X154964Y238201D01*
X154736Y238118D01*
X154467Y238046D01*
X154158Y237985D01*
X153815Y237939D01*
X152993Y237887D01*
X152529Y237883D01*
X152432Y237842D01*
X152007D01*
X151053Y237587D01*
X150199Y237094D01*
X149501Y236396D01*
X149007Y235541D01*
X148752Y234588D01*
Y233601D01*
X149007Y232648D01*
X149501Y231793D01*
X150199Y231095D01*
X151053Y230602D01*
X152007Y230346D01*
X152993D01*
X153947Y230602D01*
X154801Y231095D01*
X155499Y231793D01*
X155993Y232648D01*
X156248Y233601D01*
Y234026D01*
X156289Y234123D01*
X156292Y234588D01*
X156344Y235410D01*
X156391Y235752D01*
X156451Y236061D01*
X156524Y236330D01*
X156606Y236559D01*
X156696Y236746D01*
X156790Y236893D01*
X156912Y237037D01*
X156926Y237078D01*
X157422Y237575D01*
X158841D01*
X159173Y236775D01*
X159101Y236703D01*
X158542Y235734D01*
X158252Y234654D01*
Y234594D01*
X162500D01*
X166748D01*
Y234654D01*
X166458Y235734D01*
X165899Y236703D01*
X165827Y236775D01*
X166159Y237575D01*
X207000D01*
X207390Y237652D01*
X207721Y237874D01*
X211185Y241338D01*
X211227Y241352D01*
X211366Y241471D01*
X211506Y241561D01*
X211684Y241647D01*
X211899Y241727D01*
X212152Y241796D01*
X212442Y241855D01*
X212764Y241900D01*
X213537Y241950D01*
X213973Y241953D01*
X214070Y241995D01*
X214474D01*
X215390Y242240D01*
X216210Y242714D01*
X216881Y243384D01*
X217355Y244205D01*
X217600Y245121D01*
Y246068D01*
X217355Y246984D01*
X216881Y247805D01*
X216210Y248475D01*
X215390Y248949D01*
X214474Y249195D01*
D02*
G37*
G36*
X454474Y239194D02*
X453526D01*
X452610Y238949D01*
X451790Y238475D01*
X451504Y238190D01*
X451406Y238150D01*
X451096Y237844D01*
X450513Y237333D01*
X450254Y237137D01*
X450008Y236973D01*
X449779Y236844D01*
X449650Y236784D01*
X449347Y236887D01*
X449031Y237084D01*
X448893Y237240D01*
X448850Y237319D01*
Y238444D01*
X443850D01*
Y238161D01*
X442150D01*
Y238444D01*
X437150D01*
Y237035D01*
X436789Y236818D01*
X436375Y236640D01*
X436297Y236643D01*
X436237Y236649D01*
X436183Y236658D01*
X436140Y236668D01*
X436110Y236677D01*
X436092Y236684D01*
X436088Y236686D01*
X436073Y236699D01*
X436063Y236703D01*
X436061Y236704D01*
X436057Y236705D01*
X435987Y236729D01*
X435850Y236866D01*
X435298Y237094D01*
X434702D01*
X434150Y236866D01*
X433728Y236444D01*
X433500Y235893D01*
Y235296D01*
X433728Y234745D01*
X434150Y234323D01*
X434702Y234095D01*
X435298D01*
X435850Y234323D01*
X435987Y234460D01*
X436057Y234484D01*
X436061Y234485D01*
X436063Y234486D01*
X436073Y234490D01*
X436088Y234503D01*
X436092Y234505D01*
X436110Y234512D01*
X436140Y234521D01*
X436183Y234531D01*
X436231Y234539D01*
X436386Y234552D01*
X436676Y234436D01*
X437150Y234158D01*
Y232745D01*
X442150D01*
Y233028D01*
X443850D01*
Y232745D01*
X448850D01*
Y233870D01*
X448893Y233949D01*
X449031Y234105D01*
X449347Y234301D01*
X449650Y234405D01*
X449779Y234345D01*
X450008Y234216D01*
X450254Y234052D01*
X450513Y233856D01*
X451096Y233345D01*
X451406Y233039D01*
X451504Y232999D01*
X451790Y232714D01*
X452610Y232240D01*
X453526Y231995D01*
X454474D01*
X455389Y232240D01*
X456211Y232714D01*
X456881Y233384D01*
X457355Y234205D01*
X457600Y235121D01*
Y236068D01*
X457355Y236984D01*
X456881Y237805D01*
X456211Y238475D01*
X455389Y238949D01*
X454474Y239194D01*
D02*
G37*
G36*
X464474D02*
X463526D01*
X462610Y238949D01*
X461790Y238475D01*
X461119Y237805D01*
X460645Y236984D01*
X460400Y236068D01*
Y235121D01*
X460645Y234205D01*
X461119Y233384D01*
X461790Y232714D01*
X462610Y232240D01*
X463526Y231995D01*
X464474D01*
X465389Y232240D01*
X466211Y232714D01*
X466881Y233384D01*
X467355Y234205D01*
X467600Y235121D01*
Y236068D01*
X467355Y236984D01*
X466881Y237805D01*
X466211Y238475D01*
X465389Y238949D01*
X464474Y239194D01*
D02*
G37*
G36*
X224474D02*
X223526D01*
X222610Y238949D01*
X221790Y238475D01*
X221119Y237805D01*
X220645Y236984D01*
X220400Y236068D01*
Y235121D01*
X220645Y234205D01*
X221119Y233384D01*
X221790Y232714D01*
X222610Y232240D01*
X223526Y231995D01*
X224474D01*
X225390Y232240D01*
X226210Y232714D01*
X226881Y233384D01*
X227355Y234205D01*
X227600Y235121D01*
Y236068D01*
X227355Y236984D01*
X226881Y237805D01*
X226210Y238475D01*
X225390Y238949D01*
X224474Y239194D01*
D02*
G37*
G36*
X214474D02*
X213526D01*
X212610Y238949D01*
X211790Y238475D01*
X211119Y237805D01*
X210645Y236984D01*
X210400Y236068D01*
Y235121D01*
X210645Y234205D01*
X211119Y233384D01*
X211790Y232714D01*
X212610Y232240D01*
X213526Y231995D01*
X214474D01*
X215390Y232240D01*
X216210Y232714D01*
X216881Y233384D01*
X217355Y234205D01*
X217600Y235121D01*
Y236068D01*
X217355Y236984D01*
X216881Y237805D01*
X216210Y238475D01*
X215390Y238949D01*
X214474Y239194D01*
D02*
G37*
G36*
X137894Y231685D02*
X131107D01*
Y231176D01*
X131105Y231173D01*
X131085Y231165D01*
X131014Y231145D01*
X130910Y231128D01*
X130778Y231116D01*
X130605Y231112D01*
X130556Y231090D01*
X129463D01*
X129420Y231108D01*
Y231579D01*
X127520D01*
X125620D01*
Y230479D01*
X125620D01*
Y229742D01*
X125620D01*
Y228642D01*
X127520D01*
X129420D01*
Y229030D01*
X129434Y229030D01*
X129478Y229051D01*
X130556D01*
X130605Y229030D01*
X130778Y229025D01*
X130910Y229014D01*
X131014Y228996D01*
X131085Y228977D01*
X131105Y228969D01*
X131107Y228966D01*
Y228244D01*
X137894D01*
Y231685D01*
D02*
G37*
G36*
X166748Y233594D02*
X163000D01*
Y229847D01*
X163059D01*
X164140Y230136D01*
X165108Y230695D01*
X165899Y231486D01*
X166458Y232455D01*
X166748Y233535D01*
Y233594D01*
D02*
G37*
G36*
X162000D02*
X158252D01*
Y233535D01*
X158542Y232455D01*
X159101Y231486D01*
X159892Y230695D01*
X160860Y230136D01*
X161941Y229847D01*
X162000D01*
Y233594D01*
D02*
G37*
G36*
X129420Y227642D02*
X128020D01*
Y226542D01*
X129420D01*
Y227642D01*
D02*
G37*
G36*
X464540Y229695D02*
X464500D01*
Y226095D01*
X468100D01*
Y226134D01*
X467821Y227177D01*
X467281Y228112D01*
X466517Y228875D01*
X465583Y229415D01*
X464540Y229695D01*
D02*
G37*
G36*
X224540D02*
X224500D01*
Y226095D01*
X228100D01*
Y226134D01*
X227821Y227177D01*
X227281Y228112D01*
X226518Y228875D01*
X225583Y229415D01*
X224540Y229695D01*
D02*
G37*
G36*
X214540D02*
X214500D01*
Y226095D01*
X218100D01*
Y226134D01*
X217821Y227177D01*
X217281Y228112D01*
X216517Y228875D01*
X215582Y229415D01*
X214540Y229695D01*
D02*
G37*
G36*
X463500D02*
X463460D01*
X462418Y229415D01*
X461482Y228875D01*
X460719Y228112D01*
X460179Y227177D01*
X459900Y226134D01*
Y226095D01*
X463500D01*
Y229695D01*
D02*
G37*
G36*
X223500D02*
X223460D01*
X222417Y229415D01*
X221482Y228875D01*
X220719Y228112D01*
X220179Y227177D01*
X219900Y226134D01*
Y226095D01*
X223500D01*
Y229695D01*
D02*
G37*
G36*
X213500D02*
X213460D01*
X212418Y229415D01*
X211483Y228875D01*
X210719Y228112D01*
X210179Y227177D01*
X209900Y226134D01*
Y226095D01*
X213500D01*
Y229695D01*
D02*
G37*
G36*
X163059Y228343D02*
X163000D01*
Y224594D01*
X166748D01*
Y224654D01*
X166458Y225734D01*
X165899Y226703D01*
X165108Y227494D01*
X164140Y228053D01*
X163059Y228343D01*
D02*
G37*
G36*
X162000D02*
X161941D01*
X160860Y228053D01*
X159892Y227494D01*
X159101Y226703D01*
X158542Y225734D01*
X158252Y224654D01*
Y224594D01*
X162000D01*
Y228343D01*
D02*
G37*
G36*
X138394Y224311D02*
X135001D01*
Y222591D01*
X138394D01*
Y224311D01*
D02*
G37*
G36*
X134001D02*
X130607D01*
Y222591D01*
X134001D01*
Y224311D01*
D02*
G37*
G36*
X454474Y229194D02*
X453526D01*
X452610Y228949D01*
X451790Y228475D01*
X451119Y227805D01*
X450645Y226984D01*
X450400Y226068D01*
Y225120D01*
X450645Y224205D01*
X451119Y223384D01*
X451790Y222714D01*
X452610Y222240D01*
X453526Y221994D01*
X454474D01*
X455389Y222240D01*
X456211Y222714D01*
X456881Y223384D01*
X457355Y224205D01*
X457600Y225120D01*
Y226068D01*
X457355Y226984D01*
X456881Y227805D01*
X456211Y228475D01*
X455389Y228949D01*
X454474Y229194D01*
D02*
G37*
G36*
X468100Y225095D02*
X464500D01*
Y221495D01*
X464540D01*
X465583Y221774D01*
X466517Y222314D01*
X467281Y223077D01*
X467821Y224012D01*
X468100Y225055D01*
Y225095D01*
D02*
G37*
G36*
X463500D02*
X459900D01*
Y225055D01*
X460179Y224012D01*
X460719Y223077D01*
X461482Y222314D01*
X462418Y221774D01*
X463460Y221495D01*
X463500D01*
Y225095D01*
D02*
G37*
G36*
X228100D02*
X224500D01*
Y221495D01*
X224540D01*
X225583Y221774D01*
X226518Y222314D01*
X227281Y223077D01*
X227821Y224012D01*
X228100Y225055D01*
Y225095D01*
D02*
G37*
G36*
X223500D02*
X219900D01*
Y225055D01*
X220179Y224012D01*
X220719Y223077D01*
X221482Y222314D01*
X222417Y221774D01*
X223460Y221495D01*
X223500D01*
Y225095D01*
D02*
G37*
G36*
X218100D02*
X214500D01*
Y221495D01*
X214540D01*
X215582Y221774D01*
X216517Y222314D01*
X217281Y223077D01*
X217821Y224012D01*
X218100Y225055D01*
Y225095D01*
D02*
G37*
G36*
X213500D02*
X209900D01*
Y225055D01*
X210179Y224012D01*
X210719Y223077D01*
X211483Y222314D01*
X212418Y221774D01*
X213460Y221495D01*
X213500D01*
Y225095D01*
D02*
G37*
G36*
X594850Y223287D02*
X590500D01*
Y220437D01*
X594850D01*
Y223287D01*
D02*
G37*
G36*
X589500D02*
X585150D01*
Y220437D01*
X589500D01*
Y223287D01*
D02*
G37*
G36*
X152993Y227842D02*
X152007D01*
X151053Y227587D01*
X150199Y227094D01*
X149501Y226396D01*
X149007Y225541D01*
X148752Y224588D01*
Y223601D01*
X149007Y222648D01*
X149501Y221793D01*
X150199Y221095D01*
X151053Y220602D01*
X152007Y220346D01*
X152993D01*
X153947Y220602D01*
X154801Y221095D01*
X155499Y221793D01*
X155993Y222648D01*
X156248Y223601D01*
Y224588D01*
X155993Y225541D01*
X155499Y226396D01*
X154801Y227094D01*
X153947Y227587D01*
X152993Y227842D01*
D02*
G37*
G36*
X138394Y221591D02*
X135001D01*
Y219870D01*
X138394D01*
Y221591D01*
D02*
G37*
G36*
X134001D02*
X130607D01*
Y219870D01*
X134001D01*
Y221591D01*
D02*
G37*
G36*
X166748Y223594D02*
X163000D01*
Y219847D01*
X163059D01*
X164140Y220136D01*
X165108Y220695D01*
X165899Y221486D01*
X166458Y222455D01*
X166748Y223535D01*
Y223594D01*
D02*
G37*
G36*
X162000D02*
X158252D01*
Y223535D01*
X158542Y222455D01*
X159101Y221486D01*
X159892Y220695D01*
X160860Y220136D01*
X161941Y219847D01*
X162000D01*
Y223594D01*
D02*
G37*
G36*
X616594Y222787D02*
X607894D01*
Y217087D01*
X616594D01*
Y222787D01*
D02*
G37*
G36*
X594850Y219437D02*
X590500D01*
Y216587D01*
X594850D01*
Y219437D01*
D02*
G37*
G36*
X589500D02*
X585150D01*
Y216587D01*
X589500D01*
Y219437D01*
D02*
G37*
G36*
X163059Y218342D02*
X163000D01*
Y214595D01*
X166748D01*
Y214654D01*
X166458Y215734D01*
X165899Y216703D01*
X165108Y217494D01*
X164140Y218053D01*
X163059Y218342D01*
D02*
G37*
G36*
X162000D02*
X161941D01*
X160860Y218053D01*
X159892Y217494D01*
X159101Y216703D01*
X158542Y215734D01*
X158252Y214654D01*
Y214595D01*
X162000D01*
Y218342D01*
D02*
G37*
G36*
X464474Y219195D02*
X463526D01*
X462610Y218949D01*
X461790Y218475D01*
X461119Y217805D01*
X460645Y216984D01*
X460400Y216068D01*
Y215121D01*
X460645Y214205D01*
X461119Y213384D01*
X461790Y212714D01*
X462610Y212240D01*
X463526Y211995D01*
X464474D01*
X465389Y212240D01*
X466211Y212714D01*
X466881Y213384D01*
X467355Y214205D01*
X467600Y215121D01*
Y216068D01*
X467355Y216984D01*
X466881Y217805D01*
X466211Y218475D01*
X465389Y218949D01*
X464474Y219195D01*
D02*
G37*
G36*
X454474D02*
X453526D01*
X452610Y218949D01*
X451790Y218475D01*
X451119Y217805D01*
X450645Y216984D01*
X450400Y216068D01*
Y215121D01*
X450645Y214205D01*
X451119Y213384D01*
X451790Y212714D01*
X452610Y212240D01*
X453526Y211995D01*
X454474D01*
X455389Y212240D01*
X456211Y212714D01*
X456881Y213384D01*
X457355Y214205D01*
X457600Y215121D01*
Y216068D01*
X457355Y216984D01*
X456881Y217805D01*
X456211Y218475D01*
X455389Y218949D01*
X454474Y219195D01*
D02*
G37*
G36*
X224474D02*
X223526D01*
X222610Y218949D01*
X221790Y218475D01*
X221119Y217805D01*
X220645Y216984D01*
X220400Y216068D01*
Y215121D01*
X220645Y214205D01*
X221119Y213384D01*
X221790Y212714D01*
X222610Y212240D01*
X223526Y211995D01*
X224474D01*
X225390Y212240D01*
X226210Y212714D01*
X226881Y213384D01*
X227355Y214205D01*
X227600Y215121D01*
Y216068D01*
X227355Y216984D01*
X226881Y217805D01*
X226210Y218475D01*
X225390Y218949D01*
X224474Y219195D01*
D02*
G37*
G36*
X214474D02*
X213526D01*
X212610Y218949D01*
X211790Y218475D01*
X211119Y217805D01*
X210645Y216984D01*
X210400Y216068D01*
Y215121D01*
X210645Y214205D01*
X211119Y213384D01*
X211790Y212714D01*
X212610Y212240D01*
X213526Y211995D01*
X214474D01*
X215390Y212240D01*
X216210Y212714D01*
X216881Y213384D01*
X217355Y214205D01*
X217600Y215121D01*
Y216068D01*
X217355Y216984D01*
X216881Y217805D01*
X216210Y218475D01*
X215390Y218949D01*
X214474Y219195D01*
D02*
G37*
G36*
X152993Y217843D02*
X152007D01*
X151053Y217587D01*
X150199Y217094D01*
X149501Y216396D01*
X149007Y215541D01*
X148752Y214588D01*
Y213601D01*
X149007Y212648D01*
X149501Y211793D01*
X150199Y211095D01*
X151053Y210602D01*
X152007Y210347D01*
X152993D01*
X153947Y210602D01*
X154801Y211095D01*
X155499Y211793D01*
X155993Y212648D01*
X156248Y213601D01*
Y214588D01*
X155993Y215541D01*
X155499Y216396D01*
X154801Y217094D01*
X153947Y217587D01*
X152993Y217843D01*
D02*
G37*
G36*
X166748Y213595D02*
X163000D01*
Y209846D01*
X163059D01*
X164140Y210136D01*
X165108Y210695D01*
X165899Y211486D01*
X166458Y212455D01*
X166748Y213535D01*
Y213595D01*
D02*
G37*
G36*
X162000D02*
X158252D01*
Y213535D01*
X158542Y212455D01*
X159101Y211486D01*
X159892Y210695D01*
X160860Y210136D01*
X161941Y209846D01*
X162000D01*
Y213595D01*
D02*
G37*
G36*
X578350Y210913D02*
X575500D01*
Y208413D01*
X578350D01*
Y210913D01*
D02*
G37*
G36*
X574500D02*
X571650D01*
Y208413D01*
X574500D01*
Y210913D01*
D02*
G37*
G36*
X616594Y212945D02*
X607894D01*
Y207244D01*
X616594D01*
Y212945D01*
D02*
G37*
G36*
X585236Y214378D02*
X569764D01*
X569374Y214301D01*
X569043Y214080D01*
X565279Y210315D01*
X565058Y209985D01*
X564980Y209594D01*
Y184017D01*
X465109Y84146D01*
X442533D01*
X442487Y84167D01*
X442297Y84174D01*
X442237Y84180D01*
X442183Y84189D01*
X442140Y84199D01*
X442110Y84209D01*
X442092Y84216D01*
X442088Y84218D01*
X442073Y84231D01*
X442063Y84234D01*
X442061Y84236D01*
X442057Y84236D01*
X441987Y84261D01*
X441850Y84398D01*
X441298Y84626D01*
X440702D01*
X440150Y84398D01*
X439728Y83976D01*
X439500Y83424D01*
Y82828D01*
X439728Y82276D01*
X440150Y81854D01*
X440702Y81626D01*
X441298D01*
X441850Y81854D01*
X441987Y81991D01*
X442057Y82016D01*
X442061Y82016D01*
X442063Y82018D01*
X442073Y82021D01*
X442088Y82034D01*
X442092Y82036D01*
X442110Y82043D01*
X442140Y82053D01*
X442183Y82063D01*
X442231Y82070D01*
X442386Y82083D01*
X442476Y82085D01*
X442525Y82106D01*
X465531D01*
X465922Y82184D01*
X466253Y82405D01*
X566721Y182873D01*
X566942Y183204D01*
X567020Y183595D01*
Y209172D01*
X570187Y212339D01*
X584813D01*
X585044Y212109D01*
X585063Y212060D01*
X585187Y211929D01*
X585286Y211812D01*
X585372Y211698D01*
X585443Y211589D01*
X585501Y211484D01*
X585546Y211383D01*
X585579Y211287D01*
X585602Y211195D01*
X585616Y211106D01*
X585622Y210991D01*
X585650Y210931D01*
Y207244D01*
X594350D01*
Y212945D01*
X587663D01*
X587603Y212973D01*
X587489Y212979D01*
X587399Y212992D01*
X587307Y213015D01*
X587211Y213049D01*
X587111Y213094D01*
X587006Y213152D01*
X586896Y213223D01*
X586783Y213308D01*
X586665Y213408D01*
X586535Y213532D01*
X586485Y213551D01*
X585957Y214080D01*
X585626Y214301D01*
X585236Y214378D01*
D02*
G37*
G36*
X163059Y208343D02*
X163000D01*
Y204594D01*
X166748D01*
Y204654D01*
X166458Y205734D01*
X165899Y206703D01*
X165108Y207494D01*
X164140Y208053D01*
X163059Y208343D01*
D02*
G37*
G36*
X162000D02*
X161941D01*
X160860Y208053D01*
X159892Y207494D01*
X159101Y206703D01*
X158542Y205734D01*
X158252Y204654D01*
Y204594D01*
X162000D01*
Y208343D01*
D02*
G37*
G36*
X464474Y209194D02*
X463526D01*
X462610Y208949D01*
X461790Y208475D01*
X461119Y207805D01*
X460645Y206984D01*
X460400Y206068D01*
Y205120D01*
X460645Y204205D01*
X461119Y203384D01*
X461790Y202714D01*
X462610Y202240D01*
X463526Y201994D01*
X464474D01*
X465389Y202240D01*
X466211Y202714D01*
X466881Y203384D01*
X467355Y204205D01*
X467600Y205120D01*
Y206068D01*
X467355Y206984D01*
X466881Y207805D01*
X466211Y208475D01*
X465389Y208949D01*
X464474Y209194D01*
D02*
G37*
G36*
X454474D02*
X453526D01*
X452610Y208949D01*
X451790Y208475D01*
X451119Y207805D01*
X450645Y206984D01*
X450400Y206068D01*
Y205120D01*
X450645Y204205D01*
X451119Y203384D01*
X451790Y202714D01*
X452610Y202240D01*
X453526Y201994D01*
X454474D01*
X455389Y202240D01*
X456211Y202714D01*
X456881Y203384D01*
X457355Y204205D01*
X457600Y205120D01*
Y206068D01*
X457355Y206984D01*
X456881Y207805D01*
X456211Y208475D01*
X455389Y208949D01*
X454474Y209194D01*
D02*
G37*
G36*
X224474D02*
X223526D01*
X222610Y208949D01*
X221790Y208475D01*
X221119Y207805D01*
X220645Y206984D01*
X220400Y206068D01*
Y205120D01*
X220645Y204205D01*
X221119Y203384D01*
X221790Y202714D01*
X222610Y202240D01*
X223526Y201994D01*
X224474D01*
X225390Y202240D01*
X226210Y202714D01*
X226881Y203384D01*
X227355Y204205D01*
X227600Y205120D01*
Y206068D01*
X227355Y206984D01*
X226881Y207805D01*
X226210Y208475D01*
X225390Y208949D01*
X224474Y209194D01*
D02*
G37*
G36*
X214474D02*
X213526D01*
X212610Y208949D01*
X211790Y208475D01*
X211119Y207805D01*
X210645Y206984D01*
X210400Y206068D01*
Y205120D01*
X210645Y204205D01*
X211119Y203384D01*
X211790Y202714D01*
X212610Y202240D01*
X213526Y201994D01*
X214474D01*
X215390Y202240D01*
X216210Y202714D01*
X216881Y203384D01*
X217355Y204205D01*
X217600Y205120D01*
Y206068D01*
X217355Y206984D01*
X216881Y207805D01*
X216210Y208475D01*
X215390Y208949D01*
X214474Y209194D01*
D02*
G37*
G36*
X166748Y203594D02*
X163000D01*
Y199846D01*
X163059D01*
X164140Y200136D01*
X165108Y200695D01*
X165899Y201486D01*
X166458Y202455D01*
X166748Y203535D01*
Y203594D01*
D02*
G37*
G36*
X162000D02*
X158252D01*
Y203535D01*
X158542Y202455D01*
X159101Y201486D01*
X159892Y200695D01*
X160860Y200136D01*
X161941Y199846D01*
X162000D01*
Y203594D01*
D02*
G37*
G36*
X616594Y203102D02*
X607894D01*
Y197402D01*
X616594D01*
Y203102D01*
D02*
G37*
G36*
X575000Y207913D02*
D01*
Y207413D01*
X571650D01*
Y204913D01*
X572434D01*
Y203713D01*
X572150D01*
Y198713D01*
X573895D01*
X573898Y198711D01*
X573906Y198691D01*
X573925Y198620D01*
X573943Y198517D01*
X573954Y198384D01*
X573959Y198211D01*
X573980Y198163D01*
Y196613D01*
X573959Y196565D01*
X573954Y196392D01*
X573943Y196259D01*
X573925Y196156D01*
X573906Y196084D01*
X573898Y196065D01*
X573895Y196063D01*
X572150D01*
Y191063D01*
X572434D01*
Y189363D01*
X572150D01*
Y184363D01*
X572895D01*
X572943Y184337D01*
X573070Y184323D01*
X573116Y184307D01*
X573157Y184280D01*
X573207Y184227D01*
X573266Y184130D01*
X573326Y183981D01*
X573381Y183780D01*
X573423Y183527D01*
X573449Y183224D01*
X573459Y182861D01*
X573471Y182835D01*
Y170595D01*
X573500Y170447D01*
Y170296D01*
X573558Y170157D01*
X573587Y170009D01*
X573671Y169884D01*
X573728Y169745D01*
X573835Y169638D01*
X573919Y169513D01*
X574044Y169429D01*
X574150Y169323D01*
X574290Y169265D01*
X574415Y169182D01*
X574563Y169152D01*
X574702Y169095D01*
X574852D01*
X575000Y169065D01*
X575148Y169095D01*
X575298D01*
X575437Y169152D01*
X575585Y169182D01*
X575710Y169265D01*
X575850Y169323D01*
X575956Y169429D01*
X576081Y169513D01*
X576165Y169638D01*
X576272Y169745D01*
X576329Y169884D01*
X576413Y170009D01*
X576442Y170157D01*
X576500Y170296D01*
Y170447D01*
X576529Y170595D01*
Y182835D01*
X576541Y182861D01*
X576551Y183224D01*
X576577Y183527D01*
X576619Y183780D01*
X576674Y183982D01*
X576734Y184130D01*
X576793Y184227D01*
X576843Y184280D01*
X576884Y184307D01*
X576930Y184323D01*
X577057Y184337D01*
X577105Y184363D01*
X577850D01*
Y189363D01*
X577566D01*
Y191063D01*
X577850D01*
Y196063D01*
X576105D01*
X576102Y196065D01*
X576094Y196084D01*
X576075Y196156D01*
X576057Y196259D01*
X576046Y196392D01*
X576041Y196565D01*
X576020Y196613D01*
Y198163D01*
X576041Y198211D01*
X576046Y198384D01*
X576057Y198517D01*
X576075Y198620D01*
X576094Y198691D01*
X576102Y198711D01*
X576105Y198713D01*
X577850D01*
Y200108D01*
X577852Y200111D01*
X577872Y200119D01*
X577943Y200138D01*
X578046Y200156D01*
X578179Y200167D01*
X578352Y200172D01*
X578400Y200193D01*
X585100D01*
X585148Y200172D01*
X585321Y200167D01*
X585454Y200156D01*
X585557Y200138D01*
X585629Y200119D01*
X585648Y200111D01*
X585650Y200108D01*
Y197402D01*
X594350D01*
Y203102D01*
X585650D01*
Y202318D01*
X585648Y202315D01*
X585629Y202307D01*
X585557Y202288D01*
X585454Y202270D01*
X585321Y202258D01*
X585148Y202254D01*
X585100Y202233D01*
X578400D01*
X578352Y202254D01*
X578179Y202258D01*
X578046Y202270D01*
X577943Y202288D01*
X577872Y202307D01*
X577852Y202315D01*
X577850Y202318D01*
Y203713D01*
X577566D01*
Y204913D01*
X578350D01*
Y207413D01*
X575000D01*
Y207913D01*
D02*
G37*
G36*
X163059Y198343D02*
X163000D01*
Y194595D01*
X166748D01*
Y194654D01*
X166458Y195734D01*
X165899Y196703D01*
X165108Y197494D01*
X164140Y198053D01*
X163059Y198343D01*
D02*
G37*
G36*
X162000D02*
X161941D01*
X160860Y198053D01*
X159892Y197494D01*
X159101Y196703D01*
X158542Y195734D01*
X158252Y194654D01*
Y194595D01*
X162000D01*
Y198343D01*
D02*
G37*
G36*
X464474Y199195D02*
X463526D01*
X462610Y198949D01*
X461790Y198475D01*
X461119Y197805D01*
X460645Y196984D01*
X460400Y196068D01*
Y195121D01*
X460645Y194205D01*
X461119Y193384D01*
X461790Y192714D01*
X462610Y192240D01*
X463526Y191995D01*
X464474D01*
X465389Y192240D01*
X466211Y192714D01*
X466881Y193384D01*
X467355Y194205D01*
X467600Y195121D01*
Y196068D01*
X467355Y196984D01*
X466881Y197805D01*
X466211Y198475D01*
X465389Y198949D01*
X464474Y199195D01*
D02*
G37*
G36*
X454474D02*
X453526D01*
X452610Y198949D01*
X451790Y198475D01*
X451119Y197805D01*
X450645Y196984D01*
X450400Y196068D01*
Y195121D01*
X450645Y194205D01*
X451119Y193384D01*
X451790Y192714D01*
X452610Y192240D01*
X453526Y191995D01*
X454474D01*
X455389Y192240D01*
X456211Y192714D01*
X456881Y193384D01*
X457355Y194205D01*
X457600Y195121D01*
Y196068D01*
X457355Y196984D01*
X456881Y197805D01*
X456211Y198475D01*
X455389Y198949D01*
X454474Y199195D01*
D02*
G37*
G36*
X224474D02*
X223526D01*
X222610Y198949D01*
X221790Y198475D01*
X221119Y197805D01*
X220645Y196984D01*
X220400Y196068D01*
Y195121D01*
X220645Y194205D01*
X221119Y193384D01*
X221790Y192714D01*
X222610Y192240D01*
X223526Y191995D01*
X224474D01*
X225390Y192240D01*
X226210Y192714D01*
X226881Y193384D01*
X227355Y194205D01*
X227600Y195121D01*
Y196068D01*
X227355Y196984D01*
X226881Y197805D01*
X226210Y198475D01*
X225390Y198949D01*
X224474Y199195D01*
D02*
G37*
G36*
X214474D02*
X213526D01*
X212610Y198949D01*
X211790Y198475D01*
X211119Y197805D01*
X210645Y196984D01*
X210400Y196068D01*
Y195121D01*
X210645Y194205D01*
X211119Y193384D01*
X211790Y192714D01*
X212610Y192240D01*
X213526Y191995D01*
X214474D01*
X215390Y192240D01*
X216210Y192714D01*
X216881Y193384D01*
X217355Y194205D01*
X217600Y195121D01*
Y196068D01*
X217355Y196984D01*
X216881Y197805D01*
X216210Y198475D01*
X215390Y198949D01*
X214474Y199195D01*
D02*
G37*
G36*
X152993Y197843D02*
X152007D01*
X151053Y197587D01*
X150199Y197094D01*
X149501Y196396D01*
X149007Y195541D01*
X148752Y194588D01*
Y193601D01*
X149007Y192648D01*
X149501Y191793D01*
X150199Y191095D01*
X151053Y190602D01*
X152007Y190347D01*
X152993D01*
X153947Y190602D01*
X154801Y191095D01*
X155499Y191793D01*
X155993Y192648D01*
X156248Y193601D01*
Y194588D01*
X155993Y195541D01*
X155499Y196396D01*
X154801Y197094D01*
X153947Y197587D01*
X152993Y197843D01*
D02*
G37*
G36*
X166748Y193595D02*
X163000D01*
Y189847D01*
X163059D01*
X164140Y190136D01*
X165108Y190695D01*
X165899Y191486D01*
X166458Y192455D01*
X166748Y193535D01*
Y193595D01*
D02*
G37*
G36*
X162000D02*
X158252D01*
Y193535D01*
X158542Y192455D01*
X159101Y191486D01*
X159892Y190695D01*
X160860Y190136D01*
X161941Y189847D01*
X162000D01*
Y193595D01*
D02*
G37*
G36*
X163059Y188342D02*
X163000D01*
Y184595D01*
X166748D01*
Y184654D01*
X166458Y185734D01*
X165899Y186703D01*
X165108Y187494D01*
X164140Y188053D01*
X163059Y188342D01*
D02*
G37*
G36*
X162000D02*
X161941D01*
X160860Y188053D01*
X159892Y187494D01*
X159101Y186703D01*
X158542Y185734D01*
X158252Y184654D01*
Y184595D01*
X162000D01*
Y188342D01*
D02*
G37*
G36*
X464474Y189195D02*
X463526D01*
X462610Y188949D01*
X461790Y188475D01*
X461119Y187805D01*
X460645Y186984D01*
X460400Y186068D01*
Y185120D01*
X460645Y184205D01*
X461119Y183384D01*
X461790Y182714D01*
X462610Y182240D01*
X463526Y181994D01*
X464474D01*
X465389Y182240D01*
X466211Y182714D01*
X466881Y183384D01*
X467355Y184205D01*
X467600Y185120D01*
Y186068D01*
X467355Y186984D01*
X466881Y187805D01*
X466211Y188475D01*
X465389Y188949D01*
X464474Y189195D01*
D02*
G37*
G36*
X454474D02*
X453526D01*
X452610Y188949D01*
X451790Y188475D01*
X451119Y187805D01*
X450645Y186984D01*
X450400Y186068D01*
Y185120D01*
X450645Y184205D01*
X451119Y183384D01*
X451790Y182714D01*
X452610Y182240D01*
X453526Y181994D01*
X454474D01*
X455389Y182240D01*
X456211Y182714D01*
X456881Y183384D01*
X457355Y184205D01*
X457600Y185120D01*
Y186068D01*
X457355Y186984D01*
X456881Y187805D01*
X456211Y188475D01*
X455389Y188949D01*
X454474Y189195D01*
D02*
G37*
G36*
X224474D02*
X223526D01*
X222610Y188949D01*
X221790Y188475D01*
X221119Y187805D01*
X220645Y186984D01*
X220400Y186068D01*
Y185120D01*
X220645Y184205D01*
X221119Y183384D01*
X221790Y182714D01*
X222610Y182240D01*
X223526Y181994D01*
X224474D01*
X225390Y182240D01*
X226210Y182714D01*
X226881Y183384D01*
X227355Y184205D01*
X227600Y185120D01*
Y186068D01*
X227355Y186984D01*
X226881Y187805D01*
X226210Y188475D01*
X225390Y188949D01*
X224474Y189195D01*
D02*
G37*
G36*
X214474D02*
X213526D01*
X212610Y188949D01*
X211790Y188475D01*
X211119Y187805D01*
X210645Y186984D01*
X210400Y186068D01*
Y185120D01*
X210645Y184205D01*
X211119Y183384D01*
X211790Y182714D01*
X212610Y182240D01*
X213526Y181994D01*
X214474D01*
X215390Y182240D01*
X216210Y182714D01*
X216881Y183384D01*
X217355Y184205D01*
X217600Y185120D01*
Y186068D01*
X217355Y186984D01*
X216881Y187805D01*
X216210Y188475D01*
X215390Y188949D01*
X214474Y189195D01*
D02*
G37*
G36*
X152993Y187843D02*
X152007D01*
X151053Y187587D01*
X150199Y187094D01*
X149501Y186396D01*
X149007Y185541D01*
X148752Y184588D01*
Y183601D01*
X149007Y182648D01*
X149501Y181793D01*
X150199Y181095D01*
X151053Y180602D01*
X152007Y180347D01*
X152993D01*
X153947Y180602D01*
X154801Y181095D01*
X155499Y181793D01*
X155993Y182648D01*
X156248Y183601D01*
Y184588D01*
X155993Y185541D01*
X155499Y186396D01*
X154801Y187094D01*
X153947Y187587D01*
X152993Y187843D01*
D02*
G37*
G36*
X166748Y183595D02*
X163000D01*
Y179847D01*
X163059D01*
X164140Y180136D01*
X165108Y180695D01*
X165899Y181486D01*
X166458Y182455D01*
X166748Y183535D01*
Y183595D01*
D02*
G37*
G36*
X162000D02*
X158252D01*
Y183535D01*
X158542Y182455D01*
X159101Y181486D01*
X159892Y180695D01*
X160860Y180136D01*
X161941Y179847D01*
X162000D01*
Y183595D01*
D02*
G37*
G36*
X464474Y179194D02*
X463526D01*
X462610Y178949D01*
X461790Y178475D01*
X461119Y177805D01*
X460645Y176984D01*
X460400Y176068D01*
Y175120D01*
X460645Y174205D01*
X461119Y173384D01*
X461790Y172714D01*
X462610Y172240D01*
X463526Y171994D01*
X464474D01*
X465389Y172240D01*
X466211Y172714D01*
X466881Y173384D01*
X467355Y174205D01*
X467600Y175120D01*
Y176068D01*
X467355Y176984D01*
X466881Y177805D01*
X466211Y178475D01*
X465389Y178949D01*
X464474Y179194D01*
D02*
G37*
G36*
X454474D02*
X453526D01*
X452610Y178949D01*
X451790Y178475D01*
X451119Y177805D01*
X450645Y176984D01*
X450400Y176068D01*
Y175120D01*
X450645Y174205D01*
X451119Y173384D01*
X451790Y172714D01*
X452610Y172240D01*
X453526Y171994D01*
X454474D01*
X455389Y172240D01*
X456211Y172714D01*
X456881Y173384D01*
X457355Y174205D01*
X457600Y175120D01*
Y176068D01*
X457355Y176984D01*
X456881Y177805D01*
X456211Y178475D01*
X455389Y178949D01*
X454474Y179194D01*
D02*
G37*
G36*
X224474D02*
X223526D01*
X222610Y178949D01*
X221790Y178475D01*
X221119Y177805D01*
X220645Y176984D01*
X220400Y176068D01*
Y175664D01*
X220359Y175567D01*
X220356Y175131D01*
X220305Y174358D01*
X220261Y174037D01*
X220202Y173746D01*
X220132Y173493D01*
X220053Y173278D01*
X219967Y173101D01*
X219876Y172961D01*
X219757Y172822D01*
X219743Y172780D01*
X218729Y171766D01*
X216168D01*
X215954Y172566D01*
X216210Y172714D01*
X216881Y173384D01*
X217355Y174205D01*
X217600Y175120D01*
Y176068D01*
X217355Y176984D01*
X216881Y177805D01*
X216210Y178475D01*
X215390Y178949D01*
X214474Y179194D01*
X213526D01*
X212610Y178949D01*
X211790Y178475D01*
X211119Y177805D01*
X210645Y176984D01*
X210400Y176068D01*
Y175120D01*
X210645Y174205D01*
X211119Y173384D01*
X211790Y172714D01*
X212046Y172566D01*
X211832Y171766D01*
X200152D01*
X199761Y171688D01*
X199431Y171467D01*
X184779Y156815D01*
X184558Y156485D01*
X184480Y156095D01*
Y132095D01*
X184558Y131704D01*
X184779Y131374D01*
X195779Y120374D01*
X195779Y120373D01*
X197743Y118409D01*
X197757Y118367D01*
X197876Y118228D01*
X197967Y118088D01*
X198053Y117911D01*
X198132Y117696D01*
X198202Y117443D01*
X198260Y117152D01*
X198305Y116831D01*
X198356Y116058D01*
X198359Y115622D01*
X198400Y115525D01*
Y115120D01*
X198645Y114205D01*
X199119Y113384D01*
X199790Y112714D01*
X200610Y112240D01*
X201526Y111995D01*
X202474D01*
X203390Y112240D01*
X204210Y112714D01*
X204881Y113384D01*
X205355Y114205D01*
X205600Y115120D01*
Y116068D01*
X205355Y116984D01*
X204881Y117805D01*
X204210Y118475D01*
X203390Y118949D01*
X202474Y119194D01*
X202070D01*
X201973Y119236D01*
X201537Y119238D01*
X200764Y119289D01*
X200443Y119334D01*
X200152Y119393D01*
X199899Y119462D01*
X199683Y119542D01*
X199506Y119628D01*
X199366Y119718D01*
X199227Y119837D01*
X199185Y119851D01*
X197221Y121815D01*
X197221Y121816D01*
X186520Y132517D01*
Y155672D01*
X200574Y169727D01*
X212421D01*
X212610Y168949D01*
X211790Y168475D01*
X211119Y167805D01*
X210645Y166984D01*
X210400Y166068D01*
Y165120D01*
X210645Y164205D01*
X211119Y163384D01*
X211790Y162714D01*
X212610Y162240D01*
X213526Y161995D01*
X214474D01*
X215390Y162240D01*
X216210Y162714D01*
X216881Y163384D01*
X217355Y164205D01*
X217600Y165120D01*
Y166068D01*
X217355Y166984D01*
X216881Y167805D01*
X216210Y168475D01*
X215390Y168949D01*
X215579Y169727D01*
X219152D01*
X219542Y169804D01*
X219873Y170025D01*
X221185Y171338D01*
X221228Y171352D01*
X221366Y171471D01*
X221506Y171561D01*
X221684Y171647D01*
X221899Y171727D01*
X222152Y171797D01*
X222443Y171855D01*
X222764Y171900D01*
X223537Y171950D01*
X223973Y171953D01*
X224070Y171994D01*
X224474D01*
X225390Y172240D01*
X226210Y172714D01*
X226881Y173384D01*
X227355Y174205D01*
X227600Y175120D01*
Y176068D01*
X227355Y176984D01*
X226881Y177805D01*
X226210Y178475D01*
X225390Y178949D01*
X224474Y179194D01*
D02*
G37*
G36*
X464540Y169694D02*
X464500D01*
Y166095D01*
X468100D01*
Y166134D01*
X467821Y167177D01*
X467281Y168112D01*
X466517Y168875D01*
X465583Y169415D01*
X464540Y169694D01*
D02*
G37*
G36*
X463500D02*
X463460D01*
X462418Y169415D01*
X461482Y168875D01*
X460719Y168112D01*
X460179Y167177D01*
X459900Y166134D01*
Y166095D01*
X463500D01*
Y169694D01*
D02*
G37*
G36*
X454474Y169194D02*
X453526D01*
X452610Y168949D01*
X451790Y168475D01*
X451119Y167805D01*
X450645Y166984D01*
X450400Y166068D01*
Y165120D01*
X450645Y164205D01*
X451119Y163384D01*
X451790Y162714D01*
X452610Y162240D01*
X453526Y161995D01*
X454474D01*
X455389Y162240D01*
X456211Y162714D01*
X456881Y163384D01*
X457355Y164205D01*
X457600Y165120D01*
Y166068D01*
X457355Y166984D01*
X456881Y167805D01*
X456211Y168475D01*
X455389Y168949D01*
X454474Y169194D01*
D02*
G37*
G36*
X224474D02*
X223526D01*
X222610Y168949D01*
X221790Y168475D01*
X221119Y167805D01*
X220645Y166984D01*
X220400Y166068D01*
Y165120D01*
X220645Y164205D01*
X221119Y163384D01*
X221790Y162714D01*
X222610Y162240D01*
X223526Y161995D01*
X224474D01*
X225390Y162240D01*
X226210Y162714D01*
X226881Y163384D01*
X227355Y164205D01*
X227600Y165120D01*
Y166068D01*
X227355Y166984D01*
X226881Y167805D01*
X226210Y168475D01*
X225390Y168949D01*
X224474Y169194D01*
D02*
G37*
G36*
X468100Y165094D02*
X464500D01*
Y161495D01*
X464540D01*
X465583Y161774D01*
X466517Y162314D01*
X467281Y163077D01*
X467821Y164012D01*
X468100Y165055D01*
Y165094D01*
D02*
G37*
G36*
X463500D02*
X459900D01*
Y165055D01*
X460179Y164012D01*
X460719Y163077D01*
X461482Y162314D01*
X462418Y161774D01*
X463460Y161495D01*
X463500D01*
Y165094D01*
D02*
G37*
G36*
X235798Y334669D02*
X235202D01*
X234650Y334441D01*
X234228Y334019D01*
X234000Y333468D01*
Y332871D01*
X234228Y332320D01*
X234365Y332183D01*
X234390Y332112D01*
X234390Y332108D01*
X234392Y332106D01*
X234395Y332096D01*
X234408Y332081D01*
X234410Y332078D01*
X234418Y332060D01*
X234427Y332029D01*
X234437Y331986D01*
X234444Y331939D01*
X234457Y331784D01*
X234459Y331693D01*
X234480Y331644D01*
Y157911D01*
X233184Y156614D01*
X229000D01*
X228960Y156634D01*
X228778Y156648D01*
X228615Y156683D01*
X228429Y156748D01*
X228221Y156844D01*
X227992Y156973D01*
X227746Y157137D01*
X227487Y157333D01*
X226904Y157844D01*
X226594Y158150D01*
X226496Y158189D01*
X226210Y158475D01*
X225390Y158949D01*
X224474Y159195D01*
X223526D01*
X222610Y158949D01*
X221790Y158475D01*
X221119Y157805D01*
X220645Y156984D01*
X220400Y156068D01*
Y155121D01*
X220645Y154205D01*
X221119Y153384D01*
X221790Y152714D01*
X222309Y152414D01*
X222094Y151614D01*
X219422D01*
X218257Y152780D01*
X218243Y152822D01*
X218124Y152961D01*
X218034Y153101D01*
X217947Y153278D01*
X217868Y153493D01*
X217798Y153746D01*
X217740Y154037D01*
X217695Y154358D01*
X217644Y155131D01*
X217641Y155567D01*
X217600Y155664D01*
Y156068D01*
X217355Y156984D01*
X216881Y157805D01*
X216210Y158475D01*
X215390Y158949D01*
X214474Y159195D01*
X213526D01*
X212610Y158949D01*
X211790Y158475D01*
X211119Y157805D01*
X210645Y156984D01*
X210400Y156068D01*
Y155121D01*
X210645Y154205D01*
X211119Y153384D01*
X211790Y152714D01*
X212610Y152240D01*
X213526Y151995D01*
X213930D01*
X214027Y151953D01*
X214463Y151950D01*
X215236Y151900D01*
X215558Y151855D01*
X215848Y151796D01*
X216101Y151727D01*
X216317Y151647D01*
X216494Y151561D01*
X216634Y151471D01*
X216773Y151352D01*
X216815Y151338D01*
X218279Y149873D01*
X218610Y149653D01*
X219000Y149575D01*
X222094D01*
X222309Y148775D01*
X221790Y148475D01*
X221119Y147805D01*
X220645Y146984D01*
X220400Y146068D01*
Y145121D01*
X220645Y144205D01*
X221119Y143384D01*
X221790Y142714D01*
X222610Y142240D01*
X223526Y141995D01*
X224474D01*
X225390Y142240D01*
X226210Y142714D01*
X226881Y143384D01*
X227355Y144205D01*
X227600Y145121D01*
Y146068D01*
X227355Y146984D01*
X226881Y147805D01*
X226210Y148475D01*
X225691Y148775D01*
X225906Y149575D01*
X231078D01*
X237680Y142972D01*
Y138995D01*
X237659Y138947D01*
X237654Y138774D01*
X237643Y138641D01*
X237626Y138538D01*
X237606Y138466D01*
X237598Y138446D01*
X237595Y138444D01*
X236200D01*
Y138161D01*
X234500D01*
Y138444D01*
X229500D01*
Y137097D01*
X229082Y136761D01*
X228700Y136576D01*
X228670Y136583D01*
X228492Y136651D01*
X228286Y136753D01*
X228056Y136891D01*
X227814Y137060D01*
X226920Y137826D01*
X226595Y138149D01*
X226497Y138189D01*
X226210Y138475D01*
X225390Y138949D01*
X224474Y139195D01*
X223526D01*
X222610Y138949D01*
X221790Y138475D01*
X221119Y137805D01*
X220645Y136984D01*
X220400Y136068D01*
Y135120D01*
X220645Y134205D01*
X221119Y133384D01*
X221790Y132714D01*
X222610Y132240D01*
X223526Y131994D01*
X224474D01*
X225390Y132240D01*
X226210Y132714D01*
X226497Y133000D01*
X226595Y133040D01*
X226924Y133367D01*
X227535Y133912D01*
X227803Y134122D01*
X228056Y134298D01*
X228286Y134436D01*
X228492Y134538D01*
X228670Y134606D01*
X228700Y134613D01*
X229082Y134428D01*
X229500Y134092D01*
Y132745D01*
X234500D01*
Y133028D01*
X236200D01*
Y132745D01*
X241200D01*
Y138444D01*
X239805D01*
X239802Y138446D01*
X239794Y138466D01*
X239774Y138538D01*
X239757Y138641D01*
X239746Y138774D01*
X239741Y138947D01*
X239720Y138995D01*
Y143394D01*
X239642Y143785D01*
X239421Y144115D01*
X232221Y151315D01*
X231890Y151537D01*
X231500Y151614D01*
X225906D01*
X225691Y152414D01*
X226210Y152714D01*
X226496Y152999D01*
X226594Y153039D01*
X226904Y153345D01*
X227487Y153856D01*
X227746Y154051D01*
X227992Y154216D01*
X228221Y154345D01*
X228429Y154441D01*
X228615Y154506D01*
X228778Y154541D01*
X228960Y154555D01*
X229000Y154575D01*
X233606D01*
X233997Y154653D01*
X234327Y154874D01*
X236221Y156767D01*
X236442Y157098D01*
X236520Y157488D01*
Y331636D01*
X236541Y331682D01*
X236548Y331872D01*
X236555Y331932D01*
X236563Y331987D01*
X236573Y332029D01*
X236582Y332060D01*
X236590Y332078D01*
X236592Y332081D01*
X236605Y332096D01*
X236608Y332106D01*
X236610Y332108D01*
X236610Y332112D01*
X236635Y332183D01*
X236772Y332320D01*
X237000Y332871D01*
Y333468D01*
X236772Y334019D01*
X236350Y334441D01*
X235798Y334669D01*
D02*
G37*
G36*
X127161Y153921D02*
X126248D01*
X125366Y153685D01*
X124575Y153228D01*
X123929Y152583D01*
X123473Y151792D01*
X123236Y150909D01*
Y149996D01*
X123473Y149114D01*
X123929Y148323D01*
X124575Y147677D01*
X125366Y147221D01*
X126248Y146984D01*
X127161D01*
X128043Y147221D01*
X128834Y147677D01*
X129480Y148323D01*
X129937Y149114D01*
X130173Y149996D01*
Y150909D01*
X129937Y151792D01*
X129480Y152583D01*
X128834Y153228D01*
X128043Y153685D01*
X127161Y153921D01*
D02*
G37*
G36*
X152993Y207842D02*
X152007D01*
X151053Y207587D01*
X150199Y207094D01*
X149501Y206396D01*
X149007Y205541D01*
X148752Y204588D01*
Y204163D01*
X148711Y204065D01*
X148708Y203601D01*
X148656Y202779D01*
X148609Y202437D01*
X148549Y202128D01*
X148476Y201858D01*
X148394Y201630D01*
X148304Y201443D01*
X148210Y201296D01*
X148088Y201152D01*
X148074Y201111D01*
X145279Y198315D01*
X145058Y197985D01*
X144980Y197594D01*
Y168095D01*
X145058Y167704D01*
X145279Y167374D01*
X151276Y161377D01*
Y155240D01*
X151256Y155200D01*
X151242Y155023D01*
X151209Y154867D01*
X151149Y154689D01*
X151059Y154491D01*
X150938Y154274D01*
X150784Y154040D01*
X150601Y153796D01*
X150120Y153245D01*
X149832Y152953D01*
X149792Y152855D01*
X149520Y152583D01*
X149063Y151792D01*
X148827Y150909D01*
Y149996D01*
X149063Y149114D01*
X149520Y148323D01*
X150166Y147677D01*
X150956Y147221D01*
X151839Y146984D01*
X152224D01*
X152321Y146943D01*
X152732Y146940D01*
X153461Y146891D01*
X153764Y146847D01*
X154038Y146791D01*
X154277Y146723D01*
X154480Y146647D01*
X154648Y146564D01*
X154783Y146476D01*
X154917Y146361D01*
X154959Y146347D01*
X156996Y144310D01*
X157326Y144089D01*
X157717Y144012D01*
X158056D01*
X158104Y143991D01*
X158277Y143986D01*
X158410Y143974D01*
X158513Y143957D01*
X158585Y143938D01*
X158605Y143930D01*
X158606Y143927D01*
Y143311D01*
X165394D01*
Y146752D01*
X158606D01*
Y146715D01*
X157806Y146384D01*
X156401Y147789D01*
X156387Y147831D01*
X156272Y147965D01*
X156184Y148100D01*
X156101Y148268D01*
X156025Y148471D01*
X155957Y148710D01*
X155901Y148984D01*
X155857Y149287D01*
X155808Y150016D01*
X155805Y150427D01*
X155764Y150524D01*
Y150909D01*
X155527Y151792D01*
X155071Y152583D01*
X154798Y152855D01*
X154759Y152953D01*
X154470Y153245D01*
X153990Y153796D01*
X153806Y154040D01*
X153653Y154274D01*
X153531Y154491D01*
X153441Y154689D01*
X153381Y154867D01*
X153348Y155023D01*
X153335Y155200D01*
X153315Y155240D01*
Y161799D01*
X153237Y162189D01*
X153016Y162520D01*
X147020Y168517D01*
Y197172D01*
X149516Y199669D01*
X149558Y199682D01*
X149701Y199805D01*
X149849Y199899D01*
X150036Y199988D01*
X150264Y200071D01*
X150533Y200143D01*
X150842Y200204D01*
X151184Y200250D01*
X152007Y200303D01*
X152471Y200305D01*
X152568Y200346D01*
X152993D01*
X153947Y200602D01*
X154801Y201095D01*
X155499Y201793D01*
X155993Y202648D01*
X156248Y203601D01*
Y204588D01*
X155993Y205541D01*
X155499Y206396D01*
X154801Y207094D01*
X153947Y207587D01*
X152993Y207842D01*
D02*
G37*
G36*
X214474Y149195D02*
X213526D01*
X212610Y148949D01*
X211790Y148475D01*
X211119Y147805D01*
X210645Y146984D01*
X210400Y146068D01*
Y145121D01*
X210645Y144205D01*
X211119Y143384D01*
X211790Y142714D01*
X212610Y142240D01*
X213526Y141995D01*
X214474D01*
X215390Y142240D01*
X216210Y142714D01*
X216881Y143384D01*
X217355Y144205D01*
X217600Y145121D01*
Y146068D01*
X217355Y146984D01*
X216881Y147805D01*
X216210Y148475D01*
X215390Y148949D01*
X214474Y149195D01*
D02*
G37*
G36*
X165894Y139378D02*
X162500D01*
Y137657D01*
X165894D01*
Y139378D01*
D02*
G37*
G36*
X161500D02*
X158106D01*
Y137657D01*
X161500D01*
Y139378D01*
D02*
G37*
G36*
X165894Y136658D02*
X162500D01*
Y134937D01*
X165894D01*
Y136658D01*
D02*
G37*
G36*
X161500D02*
X158106D01*
Y134937D01*
X161500D01*
Y136658D01*
D02*
G37*
G36*
X156264Y136705D02*
X152795D01*
Y133236D01*
X156264D01*
Y136705D01*
D02*
G37*
G36*
X151795D02*
X148327D01*
Y133236D01*
X151795D01*
Y136705D01*
D02*
G37*
G36*
X464474Y139195D02*
X463526D01*
X462610Y138949D01*
X461790Y138475D01*
X461119Y137805D01*
X460645Y136984D01*
X460400Y136068D01*
Y135120D01*
X460645Y134205D01*
X461119Y133384D01*
X461790Y132714D01*
X462610Y132240D01*
X463526Y131994D01*
X464474D01*
X465389Y132240D01*
X466211Y132714D01*
X466881Y133384D01*
X467355Y134205D01*
X467600Y135120D01*
Y136068D01*
X467355Y136984D01*
X466881Y137805D01*
X466211Y138475D01*
X465389Y138949D01*
X464474Y139195D01*
D02*
G37*
G36*
X214474D02*
X213526D01*
X212610Y138949D01*
X211790Y138475D01*
X211119Y137805D01*
X210645Y136984D01*
X210400Y136068D01*
Y135120D01*
X210645Y134205D01*
X211119Y133384D01*
X211790Y132714D01*
X212610Y132240D01*
X213526Y131994D01*
X214474D01*
X215390Y132240D01*
X216210Y132714D01*
X216881Y133384D01*
X217355Y134205D01*
X217600Y135120D01*
Y136068D01*
X217355Y136984D01*
X216881Y137805D01*
X216210Y138475D01*
X215390Y138949D01*
X214474Y139195D01*
D02*
G37*
G36*
X127161Y136205D02*
X126248D01*
X125366Y135968D01*
X124575Y135512D01*
X123929Y134866D01*
X123473Y134075D01*
X123236Y133193D01*
Y132280D01*
X123473Y131397D01*
X123929Y130606D01*
X124575Y129961D01*
X125366Y129504D01*
X126248Y129268D01*
X127161D01*
X128043Y129504D01*
X128834Y129961D01*
X129480Y130606D01*
X129937Y131397D01*
X130173Y132280D01*
Y133193D01*
X129937Y134075D01*
X129480Y134866D01*
X128834Y135512D01*
X128043Y135968D01*
X127161Y136205D01*
D02*
G37*
G36*
X156264Y132236D02*
X152795D01*
Y128768D01*
X156264D01*
Y132236D01*
D02*
G37*
G36*
X151795D02*
X148327D01*
Y128768D01*
X151795D01*
Y132236D01*
D02*
G37*
G36*
X222540Y119694D02*
X222500D01*
Y116095D01*
X226100D01*
Y116134D01*
X225821Y117177D01*
X225281Y118112D01*
X224517Y118875D01*
X223583Y119415D01*
X222540Y119694D01*
D02*
G37*
G36*
X321664Y128205D02*
X320336D01*
X319034Y127946D01*
X317807Y127438D01*
X316703Y126700D01*
X315765Y125761D01*
X315027Y124657D01*
X314519Y123431D01*
X314260Y122128D01*
Y120801D01*
X314519Y119499D01*
X315027Y118272D01*
X315765Y117168D01*
X316703Y116229D01*
X317807Y115491D01*
X319034Y114983D01*
X320336Y114724D01*
X321664D01*
X322966Y114983D01*
X324193Y115491D01*
X325297Y116229D01*
X326235Y117168D01*
X326973Y118272D01*
X327481Y119499D01*
X327740Y120801D01*
Y122128D01*
X327481Y123431D01*
X326973Y124657D01*
X326235Y125761D01*
X325297Y126700D01*
X324193Y127438D01*
X322966Y127946D01*
X321664Y128205D01*
D02*
G37*
G36*
X252801Y128756D02*
X251365D01*
X249956Y128476D01*
X248629Y127926D01*
X247435Y127128D01*
X246419Y126112D01*
X245621Y124918D01*
X245072Y123591D01*
X244791Y122183D01*
Y120746D01*
X245072Y119338D01*
X245621Y118011D01*
X246419Y116817D01*
X247435Y115801D01*
X248629Y115003D01*
X249956Y114453D01*
X251365Y114173D01*
X252801D01*
X254209Y114453D01*
X255536Y115003D01*
X256731Y115801D01*
X257746Y116817D01*
X258544Y118011D01*
X259094Y119338D01*
X259374Y120746D01*
Y122183D01*
X259094Y123591D01*
X258544Y124918D01*
X257746Y126112D01*
X256731Y127128D01*
X255536Y127926D01*
X254209Y128476D01*
X252801Y128756D01*
D02*
G37*
G36*
X552664Y127512D02*
X551336D01*
X550034Y127253D01*
X548807Y126745D01*
X547703Y126007D01*
X546765Y125068D01*
X546027Y123964D01*
X545519Y122738D01*
X545260Y121435D01*
Y120108D01*
X545519Y118806D01*
X546027Y117579D01*
X546765Y116475D01*
X547703Y115536D01*
X548807Y114799D01*
X550034Y114290D01*
X551336Y114032D01*
X552664D01*
X553966Y114290D01*
X555193Y114799D01*
X556297Y115536D01*
X557235Y116475D01*
X557973Y117579D01*
X558481Y118806D01*
X558740Y120108D01*
Y121435D01*
X558481Y122738D01*
X557973Y123964D01*
X557235Y125068D01*
X556297Y126007D01*
X555193Y126745D01*
X553966Y127253D01*
X552664Y127512D01*
D02*
G37*
G36*
X483801Y128063D02*
X482365D01*
X480956Y127783D01*
X479629Y127233D01*
X478435Y126435D01*
X477419Y125420D01*
X476621Y124225D01*
X476072Y122898D01*
X475791Y121490D01*
Y120054D01*
X476072Y118645D01*
X476621Y117318D01*
X477419Y116124D01*
X478435Y115108D01*
X479629Y114310D01*
X480956Y113760D01*
X482365Y113480D01*
X483801D01*
X485210Y113760D01*
X486536Y114310D01*
X487731Y115108D01*
X488746Y116124D01*
X489544Y117318D01*
X490094Y118645D01*
X490374Y120054D01*
Y121490D01*
X490094Y122898D01*
X489544Y124225D01*
X488746Y125420D01*
X487731Y126435D01*
X486536Y127233D01*
X485210Y127783D01*
X483801Y128063D01*
D02*
G37*
G36*
X428284Y109488D02*
X426563D01*
Y106095D01*
X428284D01*
Y109488D01*
D02*
G37*
G36*
X425563D02*
X423842D01*
Y106095D01*
X425563D01*
Y109488D01*
D02*
G37*
G36*
X428284Y105095D02*
X426063D01*
X423842D01*
Y101701D01*
Y98626D01*
X426063D01*
X428284D01*
Y101701D01*
Y105095D01*
D02*
G37*
G36*
Y97626D02*
X426563D01*
Y94232D01*
X428284D01*
Y97626D01*
D02*
G37*
G36*
X425563D02*
X423842D01*
Y94232D01*
X425563D01*
Y97626D01*
D02*
G37*
%LPD*%
G36*
X443936Y386603D02*
X444154Y386444D01*
X444395Y386304D01*
X444659Y386182D01*
X444945Y386079D01*
X445254Y385994D01*
X445586Y385929D01*
X445941Y385882D01*
X446319Y385854D01*
X446720Y385844D01*
Y382345D01*
X446319Y382335D01*
X445586Y382260D01*
X445254Y382195D01*
X444945Y382110D01*
X444659Y382007D01*
X444395Y381885D01*
X444154Y381745D01*
X443936Y381586D01*
X443741Y381407D01*
Y386782D01*
X443936Y386603D01*
D02*
G37*
G36*
X428259Y381407D02*
X428073Y381576D01*
X427862Y381727D01*
X427628Y381860D01*
X427369Y381975D01*
X427086Y382073D01*
X426779Y382153D01*
X426447Y382215D01*
X426091Y382259D01*
X425711Y382286D01*
X425307Y382295D01*
Y385894D01*
X425711Y385903D01*
X426447Y385974D01*
X426779Y386036D01*
X427086Y386116D01*
X427369Y386214D01*
X427628Y386329D01*
X427862Y386462D01*
X428073Y386613D01*
X428259Y386782D01*
Y381407D01*
D02*
G37*
G36*
X433051Y362188D02*
X433135D01*
X433118Y362178D01*
X433104Y362148D01*
X433090Y362098D01*
X433079Y362028D01*
X433070Y361940D01*
X433092Y361804D01*
X433127Y361674D01*
X433172Y361564D01*
X433227Y361474D01*
X433292Y361404D01*
X433367Y361354D01*
X433452Y361324D01*
X433547Y361314D01*
X433048D01*
X433047Y361188D01*
X432339D01*
X431262Y360110D01*
X431255Y360212D01*
X431234Y360317D01*
X431198Y360427D01*
X431149Y360541D01*
X431085Y360660D01*
X431007Y360782D01*
X430915Y360909D01*
X430809Y361040D01*
X430555Y361314D01*
X431262Y362021D01*
X431401Y361887D01*
X431667Y361661D01*
X431794Y361568D01*
X431888Y361509D01*
X431922Y361564D01*
X431967Y361674D01*
X432002Y361804D01*
X432016Y361889D01*
X432004Y362098D01*
X431991Y362148D01*
X431976Y362178D01*
X431959Y362188D01*
X432044D01*
X432047Y362314D01*
X433047D01*
X433051Y362188D01*
D02*
G37*
G36*
X438956D02*
X439041D01*
X439024Y362178D01*
X439009Y362148D01*
X438996Y362098D01*
X438984Y362028D01*
X438975Y361940D01*
X438998Y361804D01*
X439033Y361674D01*
X439078Y361564D01*
X439112Y361509D01*
X439206Y361568D01*
X439333Y361661D01*
X439464Y361767D01*
X439738Y362021D01*
X440445Y361314D01*
X440311Y361175D01*
X440085Y360909D01*
X439993Y360782D01*
X439915Y360660D01*
X439851Y360541D01*
X439802Y360427D01*
X439766Y360317D01*
X439745Y360212D01*
X439738Y360110D01*
X438660Y361188D01*
X437953D01*
X437952Y361314D01*
X437453D01*
X437548Y361324D01*
X437633Y361354D01*
X437708Y361404D01*
X437773Y361474D01*
X437828Y361564D01*
X437873Y361674D01*
X437908Y361804D01*
X437922Y361889D01*
X437910Y362098D01*
X437896Y362148D01*
X437882Y362178D01*
X437865Y362188D01*
X437949D01*
X437953Y362314D01*
X438953D01*
X438956Y362188D01*
D02*
G37*
G36*
X446802Y360353D02*
X447936Y359218D01*
X447605Y358418D01*
X444949D01*
X443931Y357400D01*
X440490D01*
X440442Y360026D01*
X441121Y360740D01*
X443890D01*
X444066Y360916D01*
X444300D01*
Y361149D01*
X445112Y361961D01*
X446802D01*
Y360353D01*
D02*
G37*
G36*
X458257Y358549D02*
X458280Y358295D01*
X458318Y358069D01*
X458370Y357874D01*
X458437Y357710D01*
X458520Y357574D01*
X458617Y357470D01*
X458730Y357395D01*
X458857Y357349D01*
X459000Y357334D01*
X456000D01*
X456143Y357349D01*
X456270Y357395D01*
X456383Y357470D01*
X456480Y357574D01*
X456563Y357710D01*
X456630Y357874D01*
X456682Y358069D01*
X456720Y358295D01*
X456742Y358549D01*
X456750Y358835D01*
X458250D01*
X458257Y358549D01*
D02*
G37*
G36*
X426700Y360916D02*
X427023D01*
X427130Y360809D01*
X430286D01*
X430400Y360685D01*
X430486Y360579D01*
X430560Y360478D01*
X430618Y360386D01*
X430661Y360305D01*
X430691Y360236D01*
X430709Y360181D01*
X430718Y360139D01*
X430722Y360073D01*
X430750Y360017D01*
Y357415D01*
X430619Y357283D01*
X423000D01*
X422946Y360570D01*
X423506Y361140D01*
X426700D01*
Y360916D01*
D02*
G37*
G36*
X449500Y354831D02*
X449000Y354331D01*
X447500D01*
X444706Y354724D01*
X444667Y354763D01*
X444336Y354984D01*
X444300Y354991D01*
Y355242D01*
X441021D01*
X440500Y355315D01*
Y356791D01*
X444016D01*
X444191Y356967D01*
X444220Y356979D01*
X444300D01*
Y357012D01*
X444313Y357017D01*
X445072Y357776D01*
X449500D01*
Y354831D01*
D02*
G37*
G36*
X439748Y355047D02*
X439778Y354962D01*
X439828Y354887D01*
X439898Y354822D01*
X439988Y354767D01*
X440098Y354722D01*
X440228Y354687D01*
X440313Y354673D01*
X440522Y354685D01*
X440572Y354698D01*
X440602Y354713D01*
X440612Y354730D01*
Y354645D01*
X440738Y354642D01*
Y353642D01*
X440612Y353638D01*
Y353554D01*
X440602Y353570D01*
X440572Y353585D01*
X440522Y353599D01*
X440452Y353610D01*
X440364Y353620D01*
X440228Y353597D01*
X440098Y353562D01*
X439988Y353517D01*
X439898Y353462D01*
X439828Y353397D01*
X439778Y353322D01*
X439748Y353237D01*
X439738Y353142D01*
Y353641D01*
X439612Y353642D01*
Y354642D01*
X439738Y354642D01*
Y355142D01*
X439748Y355047D01*
D02*
G37*
G36*
X431262Y352674D02*
X431388Y352673D01*
Y351673D01*
X431262Y351673D01*
Y351173D01*
X431252Y351268D01*
X431222Y351353D01*
X431172Y351428D01*
X431102Y351493D01*
X431012Y351548D01*
X430902Y351593D01*
X430772Y351628D01*
X430687Y351642D01*
X430478Y351630D01*
X430428Y351617D01*
X430398Y351602D01*
X430388Y351585D01*
Y351670D01*
X430262Y351673D01*
Y352673D01*
X430388Y352677D01*
Y352761D01*
X430398Y352745D01*
X430428Y352730D01*
X430478Y352716D01*
X430548Y352705D01*
X430636Y352695D01*
X430772Y352718D01*
X430902Y352753D01*
X431012Y352798D01*
X431102Y352853D01*
X431172Y352918D01*
X431222Y352993D01*
X431252Y353078D01*
X431262Y353173D01*
Y352674D01*
D02*
G37*
G36*
X430500Y353346D02*
X426984D01*
X426911Y353273D01*
X426700D01*
Y353062D01*
X426677Y353039D01*
X426557Y353015D01*
X426226Y352794D01*
X425794Y352362D01*
X423000D01*
Y355807D01*
X426989Y356742D01*
X430500D01*
Y353346D01*
D02*
G37*
G36*
X443405Y347638D02*
X443320Y347608D01*
X443245Y347558D01*
X443180Y347488D01*
X443125Y347398D01*
X443080Y347288D01*
X443045Y347158D01*
X443020Y347008D01*
X443005Y346838D01*
X443000Y346648D01*
X442000D01*
X441995Y346838D01*
X441980Y347008D01*
X441955Y347158D01*
X441920Y347288D01*
X441875Y347398D01*
X441820Y347488D01*
X441755Y347558D01*
X441680Y347608D01*
X441595Y347638D01*
X441500Y347648D01*
X443500D01*
X443405Y347638D01*
D02*
G37*
G36*
X228611Y350730D02*
X228648Y350592D01*
X228711Y350441D01*
X228799Y350276D01*
X228912Y350097D01*
X229051Y349904D01*
X229406Y349479D01*
X229862Y348999D01*
X227387Y346524D01*
X227140Y346765D01*
X226482Y347334D01*
X226289Y347473D01*
X226110Y347587D01*
X225945Y347675D01*
X225793Y347737D01*
X225655Y347774D01*
X225531Y347786D01*
X228600Y350855D01*
X228611Y350730D01*
D02*
G37*
G36*
X430107Y347633D02*
X429980Y347588D01*
X429868Y347513D01*
X429770Y347408D01*
X429688Y347273D01*
X429620Y347108D01*
X429567Y346913D01*
X429530Y346688D01*
X429507Y346433D01*
X429500Y346148D01*
X428000D01*
X427992Y346433D01*
X427970Y346688D01*
X427933Y346913D01*
X427880Y347108D01*
X427812Y347273D01*
X427730Y347408D01*
X427633Y347513D01*
X427520Y347588D01*
X427392Y347633D01*
X427250Y347648D01*
X430250D01*
X430107Y347633D01*
D02*
G37*
G36*
X439010Y344880D02*
X438982Y344856D01*
X438957Y344816D01*
X438936Y344760D01*
X438917Y344688D01*
X438903Y344600D01*
X438891Y344496D01*
X438878Y344240D01*
X438876Y344088D01*
X438076D01*
X438074Y344240D01*
X438042Y344600D01*
X438024Y344688D01*
X438000Y344760D01*
X437973Y344816D01*
X437941Y344856D01*
X437905Y344880D01*
X437865Y344888D01*
X439041D01*
X439010Y344880D01*
D02*
G37*
G36*
X433095D02*
X433059Y344856D01*
X433027Y344816D01*
X433000Y344760D01*
X432976Y344688D01*
X432958Y344600D01*
X432943Y344496D01*
X432932Y344376D01*
X432924Y344088D01*
X432124D01*
X432122Y344240D01*
X432097Y344600D01*
X432083Y344688D01*
X432064Y344760D01*
X432043Y344816D01*
X432018Y344856D01*
X431990Y344880D01*
X431959Y344888D01*
X433135D01*
X433095Y344880D01*
D02*
G37*
G36*
X443002Y344453D02*
X443018Y344259D01*
X443032Y344173D01*
X443050Y344095D01*
X443072Y344023D01*
X443098Y343959D01*
X443128Y343901D01*
X443162Y343851D01*
X443200Y343809D01*
X441800D01*
X441838Y343851D01*
X441872Y343901D01*
X441902Y343959D01*
X441928Y344023D01*
X441950Y344095D01*
X441968Y344173D01*
X441982Y344259D01*
X441992Y344353D01*
X442000Y344561D01*
X443000D01*
X443002Y344453D01*
D02*
G37*
G36*
X438879Y343553D02*
X438889Y343458D01*
X438904Y343367D01*
X438925Y343281D01*
X438953Y343199D01*
X438987Y343121D01*
X439027Y343049D01*
X439073Y342980D01*
X439125Y342916D01*
X439183Y342857D01*
X437783Y342823D01*
X437839Y342886D01*
X437889Y342952D01*
X437933Y343023D01*
X437971Y343097D01*
X438003Y343176D01*
X438029Y343259D01*
X438050Y343346D01*
X438065Y343437D01*
X438073Y343532D01*
X438076Y343632D01*
X438876Y343652D01*
X438879Y343553D01*
D02*
G37*
G36*
X432924Y342600D02*
X432927Y342501D01*
X432935Y342406D01*
X432950Y342315D01*
X432971Y342228D01*
X432997Y342145D01*
X433029Y342066D01*
X433067Y341991D01*
X433111Y341921D01*
X433161Y341854D01*
X433217Y341792D01*
X431817Y341825D01*
X431875Y341884D01*
X431927Y341949D01*
X431973Y342017D01*
X432013Y342090D01*
X432047Y342167D01*
X432075Y342249D01*
X432096Y342335D01*
X432111Y342426D01*
X432121Y342521D01*
X432124Y342621D01*
X432924Y342600D01*
D02*
G37*
G36*
X426200Y351123D02*
Y350999D01*
X426390Y350809D01*
X426315Y350732D01*
X426200Y350595D01*
Y350573D01*
X426700D01*
Y347136D01*
X427145D01*
X427193Y347110D01*
X427273Y347102D01*
X427276Y347100D01*
X427279Y347098D01*
X427296Y347080D01*
X427328Y347028D01*
X427366Y346935D01*
X427403Y346798D01*
X427433Y346620D01*
X427452Y346402D01*
X427459Y346134D01*
X427476Y346097D01*
Y326531D01*
X427463Y326508D01*
X427470Y326482D01*
X427459Y326457D01*
X427454Y326269D01*
X427439Y326103D01*
X427415Y325944D01*
X427382Y325791D01*
X427344Y325656D01*
X427300Y325632D01*
X426869Y325496D01*
X426575Y325490D01*
X426514Y325509D01*
X426415Y325551D01*
X425957Y325857D01*
X425341Y325980D01*
X425260D01*
Y322567D01*
X424760D01*
Y322067D01*
X422568D01*
Y321338D01*
X421768Y321007D01*
X417861Y324914D01*
X417530Y325134D01*
X417350Y325170D01*
Y328192D01*
X411650D01*
Y323193D01*
X411934D01*
Y321493D01*
X411650D01*
Y316493D01*
X412970D01*
X413256Y316213D01*
X413354Y315444D01*
X413228Y315318D01*
X413060Y314911D01*
X412536Y314693D01*
X412200Y314639D01*
X406794Y320045D01*
Y347144D01*
X411458Y351808D01*
X423961D01*
X424025Y351821D01*
X425794D01*
X426200Y351123D01*
D02*
G37*
G36*
X429500Y326256D02*
X429577Y324655D01*
X427423D01*
X427532Y324808D01*
X427630Y324967D01*
X427717Y325132D01*
X427792Y325302D01*
X427856Y325478D01*
X427908Y325659D01*
X427948Y325847D01*
X427977Y326039D01*
X427994Y326238D01*
X428000Y326442D01*
X429500Y326256D01*
D02*
G37*
G36*
X415224Y316997D02*
X415156Y316972D01*
X415096Y316933D01*
X415044Y316877D01*
X415000Y316805D01*
X414964Y316717D01*
X414936Y316613D01*
X414916Y316493D01*
X414904Y316356D01*
X414900Y316205D01*
X414100D01*
X414096Y316356D01*
X414084Y316493D01*
X414064Y316613D01*
X414036Y316717D01*
X414000Y316805D01*
X413956Y316877D01*
X413904Y316933D01*
X413844Y316972D01*
X413776Y316997D01*
X413700Y317004D01*
X415300D01*
X415224Y316997D01*
D02*
G37*
G36*
X414903Y315885D02*
X414912Y315790D01*
X414927Y315699D01*
X414948Y315613D01*
X414975Y315530D01*
X415008Y315452D01*
X415047Y315378D01*
X415092Y315309D01*
X415143Y315244D01*
X415200Y315183D01*
X413800D01*
X413857Y315244D01*
X413908Y315309D01*
X413953Y315378D01*
X413992Y315452D01*
X414025Y315530D01*
X414052Y315613D01*
X414073Y315699D01*
X414088Y315790D01*
X414097Y315885D01*
X414100Y315985D01*
X414900D01*
X414903Y315885D01*
D02*
G37*
G36*
X425265Y315905D02*
X425279Y315759D01*
X425304Y315621D01*
X425338Y315491D01*
X425381Y315370D01*
X425435Y315258D01*
X425498Y315154D01*
X425571Y315058D01*
X425654Y314971D01*
X425746Y314892D01*
X423773D01*
X423866Y314971D01*
X423949Y315058D01*
X424022Y315154D01*
X424085Y315258D01*
X424138Y315370D01*
X424182Y315491D01*
X424216Y315621D01*
X424240Y315759D01*
X424255Y315905D01*
X424260Y316060D01*
X425260D01*
X425265Y315905D01*
D02*
G37*
G36*
X433410Y313997D02*
X433455Y313870D01*
X433530Y313757D01*
X433635Y313660D01*
X433770Y313577D01*
X433934Y313510D01*
X434129Y313457D01*
X434354Y313420D01*
X434610Y313397D01*
X434895Y313390D01*
Y311890D01*
X434610Y311882D01*
X434354Y311860D01*
X434129Y311822D01*
X433934Y311770D01*
X433770Y311702D01*
X433635Y311620D01*
X433530Y311522D01*
X433455Y311410D01*
X433410Y311282D01*
X433394Y311140D01*
Y314140D01*
X433410Y313997D01*
D02*
G37*
G36*
X427255Y298849D02*
X427781Y298428D01*
X428327Y298057D01*
X428894Y297735D01*
X429481Y297463D01*
X430089Y297240D01*
X430717Y297067D01*
X431366Y296943D01*
X432035Y296869D01*
X432725Y296845D01*
Y293344D01*
X432035Y293320D01*
X431366Y293246D01*
X430717Y293122D01*
X430089Y292949D01*
X429481Y292726D01*
X428894Y292454D01*
X428327Y292132D01*
X427781Y291761D01*
X427255Y291340D01*
X426750Y290870D01*
X423550Y292620D01*
X423996Y293115D01*
X424342Y293610D01*
X424590Y294105D01*
X424738Y294600D01*
X424788Y295094D01*
X424738Y295589D01*
X424590Y296084D01*
X424342Y296579D01*
X423996Y297074D01*
X423550Y297569D01*
X426750Y299319D01*
X427255Y298849D01*
D02*
G37*
G36*
X587033Y266164D02*
X587229Y266000D01*
X587415Y265867D01*
X587590Y265766D01*
X587754Y265697D01*
X587908Y265660D01*
X588051Y265655D01*
X588184Y265682D01*
X588306Y265740D01*
X588417Y265830D01*
X586296Y263709D01*
X586386Y263820D01*
X586445Y263942D01*
X586471Y264075D01*
X586466Y264218D01*
X586429Y264372D01*
X586360Y264536D01*
X586259Y264711D01*
X586126Y264897D01*
X585962Y265093D01*
X585766Y265300D01*
X586826Y266360D01*
X587033Y266164D01*
D02*
G37*
G36*
X588229Y260590D02*
X588118Y260681D01*
X587996Y260739D01*
X587863Y260765D01*
X587720Y260760D01*
X587566Y260723D01*
X587402Y260654D01*
X587227Y260553D01*
X587041Y260421D01*
X586845Y260256D01*
X586638Y260060D01*
X585578Y261121D01*
X585774Y261328D01*
X585938Y261524D01*
X586071Y261709D01*
X586171Y261884D01*
X586240Y262049D01*
X586278Y262203D01*
X586283Y262346D01*
X586256Y262478D01*
X586198Y262600D01*
X586108Y262712D01*
X588229Y260590D01*
D02*
G37*
G36*
X586316Y259738D02*
X586120Y259531D01*
X585955Y259335D01*
X585823Y259149D01*
X585722Y258974D01*
X585653Y258810D01*
X585616Y258656D01*
X585611Y258513D01*
X585637Y258380D01*
X585696Y258258D01*
X585786Y258147D01*
X583664Y260268D01*
X583776Y260178D01*
X583898Y260120D01*
X584030Y260093D01*
X584173Y260098D01*
X584327Y260136D01*
X584492Y260204D01*
X584667Y260305D01*
X584852Y260438D01*
X585048Y260602D01*
X585255Y260798D01*
X586316Y259738D01*
D02*
G37*
G36*
X595911Y259531D02*
X596026Y259446D01*
X596151Y259371D01*
X596286Y259306D01*
X596431Y259251D01*
X596586Y259206D01*
X596751Y259171D01*
X596926Y259146D01*
X597111Y259131D01*
X597306Y259126D01*
X597311Y258126D01*
X597021Y258121D01*
X596501Y258081D01*
X596272Y258046D01*
X596061Y258001D01*
X595871Y257946D01*
X595702Y257881D01*
X595551Y257806D01*
X595422Y257721D01*
X595311Y257626D01*
X595806Y259626D01*
X595911Y259531D01*
D02*
G37*
G36*
X592554Y256266D02*
X592480Y256326D01*
X592398Y256365D01*
X592310Y256382D01*
X592214Y256379D01*
X592112Y256354D01*
X592002Y256308D01*
X591886Y256241D01*
X591762Y256153D01*
X591631Y256043D01*
X591493Y255912D01*
X590786Y256619D01*
X590917Y256757D01*
X591026Y256888D01*
X591115Y257012D01*
X591182Y257128D01*
X591228Y257238D01*
X591253Y257341D01*
X591256Y257436D01*
X591239Y257524D01*
X591200Y257606D01*
X591140Y257680D01*
X592554Y256266D01*
D02*
G37*
G36*
X590464Y254883D02*
X590333Y254745D01*
X590224Y254614D01*
X590135Y254490D01*
X590068Y254374D01*
X590022Y254264D01*
X589997Y254162D01*
X589994Y254066D01*
X590011Y253978D01*
X590050Y253896D01*
X590110Y253822D01*
X588696Y255236D01*
X588770Y255176D01*
X588852Y255137D01*
X588940Y255120D01*
X589036Y255123D01*
X589138Y255148D01*
X589248Y255194D01*
X589364Y255261D01*
X589488Y255349D01*
X589619Y255459D01*
X589757Y255590D01*
X590464Y254883D01*
D02*
G37*
G36*
X603079Y255411D02*
X603220Y255291D01*
X603362Y255185D01*
X603503Y255093D01*
X603644Y255015D01*
X603786Y254952D01*
X603927Y254902D01*
X604069Y254867D01*
X604210Y254845D01*
X604351Y254838D01*
X602937Y253424D01*
X602930Y253566D01*
X602909Y253707D01*
X602874Y253848D01*
X602824Y253990D01*
X602760Y254131D01*
X602683Y254273D01*
X602591Y254414D01*
X602485Y254556D01*
X602364Y254697D01*
X602230Y254838D01*
X602937Y255545D01*
X603079Y255411D01*
D02*
G37*
G36*
X363775Y136130D02*
X363849Y135460D01*
X363973Y134812D01*
X364146Y134183D01*
X364369Y133576D01*
X364641Y132988D01*
X364963Y132422D01*
X365334Y131875D01*
X365755Y131350D01*
X366225Y130844D01*
X364475Y127645D01*
X363980Y128090D01*
X363485Y128437D01*
X362990Y128684D01*
X362495Y128833D01*
X362000Y128882D01*
X361505Y128833D01*
X361010Y128684D01*
X360515Y128437D01*
X360020Y128090D01*
X359525Y127645D01*
X357775Y130844D01*
X358245Y131350D01*
X358666Y131875D01*
X359037Y132422D01*
X359359Y132988D01*
X359631Y133576D01*
X359854Y134183D01*
X360027Y134812D01*
X360151Y135460D01*
X360225Y136130D01*
X360250Y136819D01*
X363750D01*
X363775Y136130D01*
D02*
G37*
G36*
X216362Y117482D02*
X216121Y117235D01*
X215551Y116576D01*
X215412Y116384D01*
X215299Y116205D01*
X215211Y116040D01*
X215148Y115888D01*
X215111Y115750D01*
X215100Y115626D01*
X212031Y118694D01*
X212155Y118706D01*
X212293Y118743D01*
X212445Y118805D01*
X212610Y118894D01*
X212789Y119007D01*
X212982Y119146D01*
X213407Y119500D01*
X213887Y119957D01*
X216362Y117482D01*
D02*
G37*
G36*
X215111Y115439D02*
X215148Y115301D01*
X215211Y115149D01*
X215299Y114984D01*
X215412Y114805D01*
X215551Y114613D01*
X215906Y114187D01*
X216362Y113707D01*
X213887Y111232D01*
X213640Y111473D01*
X212982Y112043D01*
X212789Y112182D01*
X212610Y112295D01*
X212445Y112383D01*
X212293Y112446D01*
X212155Y112483D01*
X212031Y112495D01*
X215100Y115563D01*
X215111Y115439D01*
D02*
G37*
%LPC*%
G36*
X424894Y348409D02*
X421500D01*
Y346689D01*
X424894D01*
Y348409D01*
D02*
G37*
G36*
X420500D02*
X417106D01*
Y346689D01*
X420500D01*
Y348409D01*
D02*
G37*
G36*
X424894Y345689D02*
X421500D01*
Y343969D01*
X424894D01*
Y345689D01*
D02*
G37*
G36*
X420500D02*
X417106D01*
Y343969D01*
X420500D01*
Y345689D01*
D02*
G37*
G36*
X424260Y325980D02*
X424179D01*
X423562Y325857D01*
X423039Y325508D01*
X422690Y324985D01*
X422568Y324368D01*
Y323067D01*
X424260D01*
Y325980D01*
D02*
G37*
%LPD*%
G36*
X451708Y283507D02*
X451547Y283666D01*
X451368Y283809D01*
X451171Y283934D01*
X450957Y284043D01*
X450726Y284135D01*
X450476Y284210D01*
X450209Y284269D01*
X449925Y284311D01*
X449623Y284336D01*
X449303Y284345D01*
Y286844D01*
X449623Y286853D01*
X449925Y286878D01*
X450209Y286920D01*
X450476Y286978D01*
X450726Y287054D01*
X450957Y287146D01*
X451171Y287255D01*
X451368Y287380D01*
X451547Y287523D01*
X451708Y287682D01*
Y283507D01*
D02*
G37*
G36*
X437312Y264794D02*
X437304Y264871D01*
X437280Y264938D01*
X437240Y264999D01*
X437184Y265051D01*
X437112Y265094D01*
X437024Y265130D01*
X436920Y265159D01*
X436800Y265178D01*
X436664Y265191D01*
X436512Y265195D01*
Y265995D01*
X436664Y265999D01*
X436800Y266010D01*
X436920Y266031D01*
X437024Y266058D01*
X437112Y266094D01*
X437184Y266139D01*
X437240Y266191D01*
X437280Y266250D01*
X437304Y266318D01*
X437312Y266394D01*
Y264794D01*
D02*
G37*
G36*
X447998Y266499D02*
X448028Y266414D01*
X448078Y266339D01*
X448148Y266274D01*
X448238Y266219D01*
X448348Y266175D01*
X448478Y266140D01*
X448628Y266114D01*
X448798Y266100D01*
X448988Y266094D01*
Y265094D01*
X448798Y265090D01*
X448628Y265074D01*
X448478Y265050D01*
X448348Y265015D01*
X448238Y264969D01*
X448148Y264914D01*
X448078Y264849D01*
X448028Y264774D01*
X447998Y264689D01*
X447988Y264595D01*
Y266595D01*
X447998Y266499D01*
D02*
G37*
G36*
X451786Y263424D02*
X451465Y263742D01*
X450855Y264276D01*
X450567Y264493D01*
X450291Y264677D01*
X450026Y264827D01*
X449773Y264944D01*
X449531Y265028D01*
X449300Y265078D01*
X449081Y265094D01*
Y266094D01*
X449300Y266111D01*
X449531Y266161D01*
X449773Y266245D01*
X450026Y266362D01*
X450291Y266512D01*
X450567Y266696D01*
X450855Y266913D01*
X451465Y267447D01*
X451786Y267764D01*
Y263424D01*
D02*
G37*
G36*
X419403Y241512D02*
X419412Y241416D01*
X419427Y241325D01*
X419448Y241239D01*
X419475Y241156D01*
X419508Y241078D01*
X419547Y241004D01*
X419592Y240935D01*
X419643Y240870D01*
X419700Y240809D01*
X418300D01*
X418357Y240870D01*
X418408Y240935D01*
X418453Y241004D01*
X418492Y241078D01*
X418525Y241156D01*
X418552Y241239D01*
X418573Y241325D01*
X418588Y241416D01*
X418597Y241512D01*
X418600Y241611D01*
X419400D01*
X419403Y241512D01*
D02*
G37*
G36*
X419643Y239319D02*
X419592Y239254D01*
X419547Y239185D01*
X419508Y239111D01*
X419475Y239033D01*
X419448Y238950D01*
X419427Y238864D01*
X419412Y238773D01*
X419403Y238678D01*
X419400Y238578D01*
X418600D01*
X418597Y238678D01*
X418588Y238773D01*
X418573Y238864D01*
X418552Y238950D01*
X418525Y239033D01*
X418492Y239111D01*
X418453Y239185D01*
X418408Y239254D01*
X418357Y239319D01*
X418300Y239380D01*
X419700D01*
X419643Y239319D01*
D02*
G37*
G36*
X417655Y233830D02*
X417605Y233764D01*
X417560Y233693D01*
X417522Y233619D01*
X417490Y233540D01*
X417463Y233458D01*
X417442Y233371D01*
X417428Y233280D01*
X417419Y233184D01*
X417416Y233085D01*
X416616Y233071D01*
X416613Y233171D01*
X416604Y233266D01*
X416588Y233357D01*
X416567Y233443D01*
X416540Y233525D01*
X416506Y233603D01*
X416467Y233676D01*
X416421Y233745D01*
X416369Y233809D01*
X416311Y233869D01*
X417711Y233891D01*
X417655Y233830D01*
D02*
G37*
G36*
X403143Y234319D02*
X403092Y234254D01*
X403047Y234185D01*
X403008Y234111D01*
X402975Y234033D01*
X402948Y233950D01*
X402927Y233864D01*
X402912Y233773D01*
X402903Y233678D01*
X402903Y233665D01*
X402904Y233612D01*
X402916Y233476D01*
X402936Y233356D01*
X402964Y233252D01*
X403000Y233164D01*
X403044Y233092D01*
X403096Y233036D01*
X403156Y232996D01*
X403224Y232972D01*
X403300Y232964D01*
X401700D01*
X401776Y232972D01*
X401844Y232996D01*
X401904Y233036D01*
X401956Y233092D01*
X402000Y233164D01*
X402036Y233252D01*
X402064Y233356D01*
X402084Y233476D01*
X402096Y233612D01*
X402097Y233665D01*
X402097Y233678D01*
X402088Y233773D01*
X402073Y233864D01*
X402052Y233950D01*
X402025Y234033D01*
X401992Y234111D01*
X401953Y234185D01*
X401908Y234254D01*
X401857Y234319D01*
X401800Y234380D01*
X403200D01*
X403143Y234319D01*
D02*
G37*
G36*
X419401Y232697D02*
X419439Y232121D01*
X419451Y232081D01*
X419465Y232057D01*
X419480Y232049D01*
X418520D01*
X418535Y232057D01*
X418549Y232081D01*
X418561Y232121D01*
X418571Y232177D01*
X418580Y232249D01*
X418593Y232441D01*
X418600Y232849D01*
X419400D01*
X419401Y232697D01*
D02*
G37*
G36*
X417417D02*
X417450Y232177D01*
X417463Y232121D01*
X417477Y232081D01*
X417493Y232057D01*
X417512Y232049D01*
X416551D01*
X416564Y232057D01*
X416574Y232081D01*
X416584Y232121D01*
X416593Y232177D01*
X416606Y232337D01*
X416615Y232697D01*
X416616Y232849D01*
X417416D01*
X417417Y232697D01*
D02*
G37*
G36*
X410848Y231391D02*
X410878Y231306D01*
X410928Y231231D01*
X410998Y231166D01*
X411088Y231111D01*
X411198Y231066D01*
X411328Y231031D01*
X411478Y231006D01*
X411648Y230991D01*
X411838Y230986D01*
Y229986D01*
X411648Y229981D01*
X411478Y229966D01*
X411328Y229941D01*
X411198Y229906D01*
X411088Y229861D01*
X410998Y229806D01*
X410928Y229741D01*
X410878Y229666D01*
X410848Y229581D01*
X410838Y229486D01*
Y231486D01*
X410848Y231391D01*
D02*
G37*
G36*
X424466Y224091D02*
X424435Y224061D01*
X424408Y224011D01*
X424385Y223941D01*
X424365Y223851D01*
X424349Y223741D01*
X424327Y223461D01*
X424320Y223101D01*
X423320D01*
X423315Y223291D01*
X423300Y223461D01*
X423275Y223611D01*
X423240Y223741D01*
X423195Y223851D01*
X423140Y223941D01*
X423075Y224011D01*
X423000Y224061D01*
X422915Y224091D01*
X422820Y224101D01*
X424500D01*
X424466Y224091D01*
D02*
G37*
G36*
X406924Y221541D02*
X406848Y221463D01*
X406662Y221249D01*
X406615Y221185D01*
X406541Y221066D01*
X406515Y221011D01*
X406495Y220961D01*
X406483Y220913D01*
X405701Y222074D01*
X405759Y222067D01*
X405819Y222069D01*
X405881Y222080D01*
X405946Y222100D01*
X406012Y222129D01*
X406081Y222167D01*
X406152Y222214D01*
X406225Y222270D01*
X406301Y222335D01*
X406379Y222410D01*
X406924Y221541D01*
D02*
G37*
G36*
X421468Y222006D02*
X422461D01*
X422800Y221347D01*
Y221069D01*
X422779Y221021D01*
X422775Y220846D01*
X422763Y220711D01*
X422747Y220605D01*
X422728Y220530D01*
X422724Y220520D01*
X422342D01*
X422313Y220008D01*
X422319Y219994D01*
X422317Y219947D01*
X422342Y219900D01*
Y218962D01*
X422278Y218884D01*
X421543Y218493D01*
X421298Y218595D01*
X420702D01*
X420150Y218366D01*
X420031Y218247D01*
X419231Y218578D01*
Y218905D01*
X414468D01*
Y218622D01*
X411531D01*
Y218905D01*
X411256D01*
X411187Y218967D01*
X411172Y219138D01*
X411382Y219558D01*
X411700Y219792D01*
X414182D01*
X414631Y219881D01*
X415011Y220135D01*
X416759Y221883D01*
X417508Y222006D01*
Y222006D01*
X418500D01*
Y223941D01*
X419500D01*
Y222006D01*
X420469D01*
Y223941D01*
X421468D01*
Y222006D01*
D02*
G37*
G36*
X424325Y220818D02*
X424340Y220648D01*
X424365Y220498D01*
X424400Y220368D01*
X424445Y220258D01*
X424500Y220168D01*
X424565Y220098D01*
X424640Y220048D01*
X424725Y220018D01*
X424820Y220008D01*
X422855D01*
X422943Y220018D01*
X423022Y220048D01*
X423092Y220098D01*
X423152Y220168D01*
X423204Y220258D01*
X423245Y220368D01*
X423278Y220498D01*
X423301Y220648D01*
X423315Y220818D01*
X423320Y221008D01*
X424320D01*
X424325Y220818D01*
D02*
G37*
G36*
X409807Y219446D02*
X409826Y219226D01*
X409859Y219030D01*
X409904Y218862D01*
X409963Y218719D01*
X410034Y218601D01*
X410119Y218511D01*
X410216Y218445D01*
X410327Y218407D01*
X410450Y218393D01*
X407850D01*
X407974Y218407D01*
X408084Y218445D01*
X408182Y218511D01*
X408266Y218601D01*
X408338Y218719D01*
X408396Y218862D01*
X408442Y219030D01*
X408474Y219226D01*
X408494Y219446D01*
X408500Y219693D01*
X409800D01*
X409807Y219446D01*
D02*
G37*
G36*
X422855Y217860D02*
X422996Y217919D01*
X423139Y217997D01*
X423260Y218084D01*
Y216168D01*
X423139Y216255D01*
X422996Y216333D01*
X422855Y216392D01*
Y216126D01*
X422845Y216221D01*
X422815Y216306D01*
X422764Y216381D01*
X422697Y216444D01*
X422641Y216461D01*
X422430Y216512D01*
X422196Y216553D01*
X422012Y216572D01*
X421948Y216551D01*
X421884Y216524D01*
X421827Y216492D01*
X421778Y216457D01*
X421736Y216417D01*
X421730Y216600D01*
X421659Y216608D01*
X421357Y216621D01*
X421032Y216626D01*
Y217626D01*
X421357Y217631D01*
X421697Y217658D01*
X421692Y217817D01*
X421735Y217780D01*
X421786Y217748D01*
X421843Y217719D01*
X421908Y217695D01*
X421959Y217680D01*
X422196Y217699D01*
X422430Y217740D01*
X422641Y217791D01*
X422697Y217808D01*
X422764Y217871D01*
X422815Y217946D01*
X422845Y218031D01*
X422855Y218126D01*
Y217860D01*
D02*
G37*
G36*
X418601Y212684D02*
X418496Y212609D01*
X418403Y212484D01*
X418323Y212309D01*
X418254Y212084D01*
X418199Y211809D01*
X418155Y211484D01*
X418106Y210684D01*
X418100Y210209D01*
X415600D01*
X415593Y210684D01*
X415501Y211809D01*
X415445Y212084D01*
X415377Y212309D01*
X415296Y212484D01*
X415203Y212609D01*
X415098Y212684D01*
X414981Y212709D01*
X418719D01*
X418601Y212684D01*
D02*
G37*
G36*
X418170Y209940D02*
X418246Y209727D01*
X418370Y209540D01*
X418545Y209377D01*
X418771Y209240D01*
X419045Y209127D01*
X419371Y209040D01*
X419745Y208977D01*
X420170Y208940D01*
X420646Y208927D01*
Y206427D01*
X420170Y206415D01*
X419745Y206377D01*
X419371Y206315D01*
X419045Y206227D01*
X418771Y206115D01*
X418545Y205977D01*
X418370Y205815D01*
X418246Y205627D01*
X418170Y205415D01*
X418146Y205177D01*
Y210177D01*
X418170Y209940D01*
D02*
G37*
G36*
X438494Y219658D02*
Y171081D01*
X438572Y170690D01*
X438793Y170360D01*
X449779Y159373D01*
X450110Y159152D01*
X450500Y159075D01*
X451306D01*
X451589Y158275D01*
X451119Y157805D01*
X450645Y156984D01*
X450400Y156068D01*
Y155970D01*
X449600Y155638D01*
X429020Y176218D01*
Y205331D01*
X429654Y205732D01*
X429820Y205732D01*
X431374D01*
Y209626D01*
X431874D01*
Y210126D01*
X434094D01*
Y213232D01*
X434158D01*
Y216626D01*
X431937D01*
Y217126D01*
X431437D01*
Y221020D01*
X429820D01*
X429716Y221020D01*
X429020Y221269D01*
Y225095D01*
X428942Y225485D01*
X428721Y225815D01*
X427266Y227270D01*
X426935Y227491D01*
X426545Y227569D01*
X425512D01*
Y228018D01*
X423577D01*
Y229018D01*
X425512D01*
Y229986D01*
X423577D01*
Y230986D01*
X425512D01*
Y231509D01*
X426312Y231841D01*
X438494Y219658D01*
D02*
G37*
G36*
X399650Y232479D02*
Y227776D01*
X404650D01*
Y228060D01*
X406350D01*
Y227776D01*
X411350D01*
Y228715D01*
X411688Y228924D01*
X412488Y228478D01*
Y227049D01*
X414423D01*
Y226049D01*
X412488D01*
Y225600D01*
X412486D01*
X412096Y225523D01*
X411765Y225302D01*
X410098Y223634D01*
X408317D01*
X408216Y223614D01*
X407271D01*
X406880Y223536D01*
X406550Y223315D01*
X406104Y222870D01*
X406091Y222868D01*
X406063Y222829D01*
X406054Y222820D01*
X406005Y222801D01*
X405937Y222736D01*
X405884Y222690D01*
X405838Y222655D01*
X405800Y222630D01*
X405773Y222615D01*
X405760Y222609D01*
X405757Y222608D01*
X405742Y222608D01*
X405730Y222603D01*
X405725Y222602D01*
X405719Y222598D01*
X405707Y222594D01*
X405202D01*
X404650Y222366D01*
X404228Y221944D01*
X404000Y221393D01*
Y220796D01*
X404228Y220245D01*
X404650Y219823D01*
X405202Y219595D01*
X405798D01*
X406350Y219823D01*
X406772Y220245D01*
X406975Y220736D01*
X406995Y220762D01*
X407002Y220770D01*
X407508Y220951D01*
X407979Y220435D01*
X408011Y220370D01*
X407978Y220203D01*
Y219749D01*
X407959Y219708D01*
X407953Y219478D01*
X407937Y219294D01*
X407912Y219146D01*
X407883Y219035D01*
X407853Y218964D01*
X407837Y218936D01*
X407794Y218932D01*
X407745Y218905D01*
X406769D01*
Y212340D01*
X406769Y212197D01*
X406843Y211427D01*
Y208177D01*
X409063D01*
X411283D01*
X411283Y211500D01*
X411531Y212197D01*
X412244Y212480D01*
X414468D01*
Y212197D01*
X414832D01*
X414869Y212117D01*
X414920Y211951D01*
X414964Y211733D01*
X415053Y210658D01*
X415059Y210202D01*
X415065Y210186D01*
Y209379D01*
X415153Y208939D01*
Y207677D01*
X415216Y207356D01*
Y204283D01*
X418657D01*
Y205072D01*
X418684Y205120D01*
X418702Y205295D01*
X418733Y205383D01*
X418785Y205461D01*
X418874Y205544D01*
X419016Y205630D01*
X419219Y205713D01*
X419486Y205785D01*
X419814Y205840D01*
X420201Y205874D01*
X420660Y205886D01*
X420675Y205893D01*
X422051D01*
X422216Y205758D01*
Y188533D01*
X386650Y152968D01*
X377784Y161834D01*
Y211744D01*
X398850Y232810D01*
X399650Y232479D01*
D02*
G37*
G36*
X454115Y149968D02*
X454155Y149751D01*
X454222Y149543D01*
X454316Y149344D01*
X454436Y149154D01*
X454583Y148973D01*
X454757Y148802D01*
X454958Y148639D01*
X455185Y148485D01*
X455439Y148340D01*
X451909Y147883D01*
X452135Y148102D01*
X452338Y148324D01*
X452517Y148549D01*
X452672Y148776D01*
X452804Y149006D01*
X452911Y149238D01*
X452994Y149474D01*
X453054Y149711D01*
X453090Y149952D01*
X453102Y150195D01*
X454102D01*
X454115Y149968D01*
D02*
G37*
G36*
X457832Y138719D02*
X457689Y138552D01*
X457561Y138354D01*
X457449Y138124D01*
X457352Y137862D01*
X457271Y137568D01*
X457206Y137243D01*
X457156Y136886D01*
X457103Y136077D01*
X457100Y135626D01*
X454031Y138694D01*
X454483Y138697D01*
X455292Y138750D01*
X455648Y138800D01*
X455974Y138866D01*
X456267Y138947D01*
X456529Y139043D01*
X456759Y139155D01*
X456958Y139283D01*
X457125Y139427D01*
X457832Y138719D01*
D02*
G37*
G36*
X455853Y133059D02*
X455318Y132450D01*
X455101Y132162D01*
X454917Y131886D01*
X454767Y131621D01*
X454650Y131367D01*
X454567Y131125D01*
X454517Y130894D01*
X454500Y130675D01*
X453500D01*
X453483Y130894D01*
X453433Y131125D01*
X453350Y131367D01*
X453233Y131621D01*
X453083Y131886D01*
X452899Y132162D01*
X452682Y132450D01*
X452147Y133059D01*
X451830Y133381D01*
X456170D01*
X455853Y133059D01*
D02*
G37*
G36*
X454505Y130243D02*
X454520Y130072D01*
X454545Y129922D01*
X454580Y129792D01*
X454625Y129683D01*
X454680Y129593D01*
X454745Y129523D01*
X454820Y129472D01*
X454905Y129443D01*
X455000Y129432D01*
X453000D01*
X453095Y129443D01*
X453180Y129472D01*
X453255Y129523D01*
X453320Y129593D01*
X453375Y129683D01*
X453420Y129792D01*
X453455Y129922D01*
X453480Y130072D01*
X453495Y130243D01*
X453500Y130432D01*
X454500D01*
X454505Y130243D01*
D02*
G37*
G36*
X417257Y121256D02*
X417307Y121222D01*
X417364Y121193D01*
X417428Y121167D01*
X417500Y121144D01*
X417579Y121126D01*
X417665Y121113D01*
X417758Y121102D01*
X417966Y121095D01*
Y120095D01*
X417858Y120092D01*
X417665Y120077D01*
X417579Y120062D01*
X417500Y120045D01*
X417428Y120022D01*
X417364Y119997D01*
X417307Y119966D01*
X417257Y119932D01*
X417214Y119895D01*
Y121294D01*
X417257Y121256D01*
D02*
G37*
G36*
X451662Y119595D02*
X451652Y119690D01*
X451622Y119774D01*
X451572Y119850D01*
X451502Y119914D01*
X451412Y119969D01*
X451302Y120015D01*
X451172Y120050D01*
X451022Y120074D01*
X450852Y120089D01*
X450662Y120095D01*
Y121095D01*
X450852Y121099D01*
X451022Y121115D01*
X451172Y121140D01*
X451302Y121175D01*
X451412Y121220D01*
X451502Y121274D01*
X451572Y121339D01*
X451622Y121414D01*
X451652Y121500D01*
X451662Y121595D01*
Y119595D01*
D02*
G37*
%LPC*%
G36*
X432437Y221020D02*
Y217626D01*
X434158D01*
Y221020D01*
X432437D01*
D02*
G37*
G36*
X434094Y209126D02*
X432374D01*
Y205732D01*
X434094D01*
Y209126D01*
D02*
G37*
G36*
X411283Y207177D02*
X409563D01*
Y203783D01*
X411283D01*
Y207177D01*
D02*
G37*
G36*
X408563D02*
X406843D01*
Y203783D01*
X408563D01*
Y207177D01*
D02*
G37*
%LPD*%
G36*
X213969Y292495D02*
X213648Y292488D01*
X213339Y292460D01*
X213042Y292412D01*
X212758Y292343D01*
X212487Y292253D01*
X212228Y292144D01*
X211982Y292013D01*
X211748Y291862D01*
X211526Y291690D01*
X211317Y291497D01*
X209903Y292912D01*
X210095Y293121D01*
X210267Y293342D01*
X210418Y293576D01*
X210549Y293822D01*
X210659Y294081D01*
X210749Y294353D01*
X210817Y294637D01*
X210865Y294933D01*
X210893Y295242D01*
X210900Y295564D01*
X213969Y292495D01*
D02*
G37*
G36*
X160180Y271821D02*
X159929Y272063D01*
X159672Y272279D01*
X159411Y272470D01*
X159146Y272636D01*
X158876Y272776D01*
X158602Y272891D01*
X158324Y272980D01*
X158040Y273043D01*
X157753Y273082D01*
X157500Y273093D01*
X157247Y273082D01*
X156959Y273043D01*
X156676Y272980D01*
X156398Y272891D01*
X156124Y272776D01*
X155854Y272636D01*
X155589Y272470D01*
X155328Y272279D01*
X155071Y272063D01*
X154820Y271821D01*
Y276368D01*
X155071Y276126D01*
X155328Y275910D01*
X155589Y275719D01*
X155854Y275553D01*
X156124Y275413D01*
X156398Y275298D01*
X156676Y275209D01*
X156959Y275145D01*
X157247Y275107D01*
X157500Y275096D01*
X157753Y275107D01*
X158040Y275145D01*
X158324Y275209D01*
X158602Y275298D01*
X158876Y275413D01*
X159146Y275553D01*
X159411Y275719D01*
X159672Y275910D01*
X159929Y276126D01*
X160180Y276368D01*
Y271821D01*
D02*
G37*
G36*
X165071Y276126D02*
X165328Y275910D01*
X165589Y275719D01*
X165854Y275553D01*
X166124Y275413D01*
X166398Y275298D01*
X166676Y275209D01*
X166960Y275145D01*
X167247Y275107D01*
X167539Y275095D01*
Y273095D01*
X167247Y273082D01*
X166960Y273043D01*
X166676Y272980D01*
X166398Y272891D01*
X166124Y272776D01*
X165854Y272636D01*
X165589Y272470D01*
X165328Y272279D01*
X165071Y272063D01*
X164820Y271821D01*
Y276368D01*
X165071Y276126D01*
D02*
G37*
G36*
X150180Y271821D02*
X149928Y272063D01*
X149672Y272279D01*
X149411Y272470D01*
X149146Y272636D01*
X148876Y272776D01*
X148602Y272891D01*
X148324Y272980D01*
X148040Y273043D01*
X147753Y273082D01*
X147461Y273095D01*
Y275095D01*
X147753Y275107D01*
X148040Y275145D01*
X148324Y275209D01*
X148602Y275298D01*
X148876Y275413D01*
X149146Y275553D01*
X149411Y275719D01*
X149672Y275910D01*
X149928Y276126D01*
X150180Y276368D01*
Y271821D01*
D02*
G37*
G36*
X127565Y256470D02*
X127665Y255030D01*
X127696Y254930D01*
X127732Y254870D01*
X127771Y254850D01*
X125355D01*
X125394Y254870D01*
X125430Y254930D01*
X125461Y255030D01*
X125488Y255170D01*
X125511Y255350D01*
X125544Y255830D01*
X125563Y256850D01*
X127563D01*
X127565Y256470D01*
D02*
G37*
G36*
X127754Y249067D02*
X127739Y249007D01*
X127726Y248907D01*
X127704Y248587D01*
X127696Y248019D01*
X127721Y247725D01*
X127771Y247425D01*
X127840Y247165D01*
X127929Y246945D01*
X128038Y246765D01*
X128166Y246625D01*
X128314Y246525D01*
X128482Y246465D01*
X128670Y246445D01*
X124932D01*
X125074Y246465D01*
X125202Y246525D01*
X125314Y246625D01*
X125412Y246765D01*
X125494Y246945D01*
X125562Y247165D01*
X125614Y247425D01*
X125652Y247725D01*
X125656Y247788D01*
X125600Y248587D01*
X125564Y248767D01*
X125522Y248907D01*
X125472Y249007D01*
X125417Y249067D01*
X125355Y249087D01*
X127771D01*
X127754Y249067D01*
D02*
G37*
G36*
X124932Y242102D02*
X124917Y242245D01*
X124872Y242372D01*
X124797Y242485D01*
X124692Y242582D01*
X124557Y242665D01*
X124392Y242732D01*
X124197Y242785D01*
X123972Y242822D01*
X123717Y242845D01*
X123432Y242852D01*
Y244352D01*
X123717Y244360D01*
X123972Y244382D01*
X124197Y244420D01*
X124392Y244472D01*
X124557Y244540D01*
X124692Y244622D01*
X124797Y244720D01*
X124872Y244832D01*
X124917Y244960D01*
X124932Y245102D01*
Y242102D01*
D02*
G37*
G36*
X115275Y240738D02*
X115340Y240686D01*
X115410Y240641D01*
X115484Y240602D01*
X115562Y240569D01*
X115644Y240543D01*
X115731Y240522D01*
X115822Y240507D01*
X115917Y240497D01*
X116016Y240494D01*
Y239694D01*
X115917Y239691D01*
X115822Y239683D01*
X115731Y239668D01*
X115644Y239647D01*
X115562Y239619D01*
X115484Y239586D01*
X115410Y239547D01*
X115340Y239503D01*
X115275Y239452D01*
X115214Y239394D01*
Y240794D01*
X115275Y240738D01*
D02*
G37*
G36*
X119902Y237650D02*
X119921Y237394D01*
X119938Y237290D01*
X119959Y237202D01*
X119985Y237130D01*
X120015Y237074D01*
X120051Y237034D01*
X120090Y237010D01*
X120135Y237002D01*
X118959D01*
X118986Y237010D01*
X119010Y237034D01*
X119031Y237074D01*
X119049Y237130D01*
X119065Y237202D01*
X119078Y237290D01*
X119094Y237514D01*
X119100Y237802D01*
X119900D01*
X119902Y237650D01*
D02*
G37*
G36*
X116592Y233459D02*
X115792Y233447D01*
Y234247D01*
X115944Y234251D01*
X116080Y234263D01*
X116200Y234282D01*
X116304Y234309D01*
X116392Y234344D01*
X116464Y234387D01*
X116520Y234437D01*
X116560Y234496D01*
X116584Y234561D01*
X116592Y234635D01*
Y233459D01*
D02*
G37*
G36*
X113947Y234399D02*
X114021Y234362D01*
X114097Y234330D01*
X114176Y234302D01*
X114259Y234278D01*
X114345Y234259D01*
X114434Y234243D01*
X114622Y234226D01*
X114720Y234224D01*
X114929Y233424D01*
X114828Y233421D01*
X114733Y233410D01*
X114645Y233393D01*
X114562Y233369D01*
X114486Y233337D01*
X114417Y233299D01*
X114353Y233254D01*
X114295Y233202D01*
X114244Y233143D01*
X114199Y233077D01*
X113878Y234440D01*
X113947Y234399D01*
D02*
G37*
G36*
X117787Y227546D02*
X117719Y227522D01*
X117659Y227482D01*
X117607Y227426D01*
X117563Y227354D01*
X117527Y227266D01*
X117499Y227162D01*
X117479Y227042D01*
X117467Y226906D01*
X117463Y226754D01*
X116663D01*
X116662Y226906D01*
X116628Y227482D01*
X116618Y227522D01*
X116606Y227546D01*
X116592Y227554D01*
X117863D01*
X117787Y227546D01*
D02*
G37*
G36*
X120099Y225179D02*
X120068Y225155D01*
X120039Y225115D01*
X120015Y225059D01*
X119994Y224987D01*
X119977Y224899D01*
X119964Y224795D01*
X119949Y224539D01*
X119947Y224387D01*
X119147D01*
X119145Y224539D01*
X119117Y224899D01*
X119100Y224987D01*
X119080Y225059D01*
X119055Y225115D01*
X119027Y225155D01*
X118995Y225179D01*
X118959Y225187D01*
X120135D01*
X120099Y225179D01*
D02*
G37*
G36*
X119951Y219080D02*
X119963Y218945D01*
X119983Y218825D01*
X120011Y218721D01*
X120047Y218633D01*
X120091Y218561D01*
X120143Y218505D01*
X120203Y218464D01*
X120271Y218441D01*
X120347Y218432D01*
X118747D01*
X118823Y218441D01*
X118891Y218464D01*
X118951Y218505D01*
X119003Y218561D01*
X119047Y218633D01*
X119083Y218721D01*
X119111Y218825D01*
X119131Y218945D01*
X119143Y219080D01*
X119147Y219233D01*
X119947D01*
X119951Y219080D01*
D02*
G37*
G36*
X124286Y208894D02*
X124225Y208951D01*
X124160Y209002D01*
X124090Y209048D01*
X124016Y209086D01*
X123938Y209120D01*
X123856Y209146D01*
X123769Y209168D01*
X123678Y209183D01*
X123583Y209191D01*
X123484Y209194D01*
Y209995D01*
X123583Y209998D01*
X123678Y210006D01*
X123769Y210021D01*
X123856Y210043D01*
X123938Y210069D01*
X124016Y210103D01*
X124090Y210141D01*
X124160Y210187D01*
X124225Y210238D01*
X124286Y210295D01*
Y208894D01*
D02*
G37*
G36*
X122346Y210318D02*
X122370Y210250D01*
X122410Y210191D01*
X122466Y210139D01*
X122538Y210094D01*
X122626Y210058D01*
X122730Y210031D01*
X122850Y210011D01*
X122986Y209998D01*
X123138Y209995D01*
Y209194D01*
X122986Y209191D01*
X122850Y209178D01*
X122730Y209158D01*
X122626Y209131D01*
X122538Y209095D01*
X122466Y209050D01*
X122410Y208998D01*
X122370Y208939D01*
X122346Y208871D01*
X122338Y208794D01*
Y210395D01*
X122346Y210318D01*
D02*
G37*
G36*
X117283Y204381D02*
X117357Y204320D01*
X117432Y204267D01*
X117508Y204220D01*
X117585Y204181D01*
X117664Y204149D01*
X117743Y204125D01*
X117824Y204107D01*
X117907Y204097D01*
X117990Y204094D01*
X117000Y203104D01*
X116997Y203188D01*
X116987Y203270D01*
X116970Y203351D01*
X116945Y203431D01*
X116913Y203509D01*
X116874Y203587D01*
X116828Y203663D01*
X116774Y203738D01*
X116713Y203812D01*
X116645Y203884D01*
X117210Y204450D01*
X117283Y204381D01*
D02*
G37*
G36*
X213969Y252495D02*
X213517Y252491D01*
X212708Y252438D01*
X212351Y252389D01*
X212026Y252323D01*
X211733Y252242D01*
X211471Y252146D01*
X211241Y252033D01*
X211042Y251906D01*
X210875Y251762D01*
X210168Y252469D01*
X210311Y252636D01*
X210439Y252835D01*
X210551Y253065D01*
X210648Y253327D01*
X210729Y253621D01*
X210794Y253946D01*
X210844Y254303D01*
X210897Y255112D01*
X210900Y255563D01*
X213969Y252495D01*
D02*
G37*
G36*
X156501Y247388D02*
X156353Y247216D01*
X156222Y247009D01*
X156106Y246768D01*
X156007Y246493D01*
X155924Y246184D01*
X155856Y245841D01*
X155805Y245463D01*
X155751Y244607D01*
X155748Y244127D01*
X152532Y247342D01*
X153012Y247345D01*
X153869Y247400D01*
X154246Y247451D01*
X154589Y247518D01*
X154899Y247602D01*
X155174Y247701D01*
X155414Y247816D01*
X155621Y247948D01*
X155794Y248095D01*
X156501Y247388D01*
D02*
G37*
G36*
X451786Y243425D02*
X451465Y243742D01*
X450855Y244276D01*
X450567Y244493D01*
X450291Y244677D01*
X450026Y244827D01*
X449773Y244944D01*
X449531Y245028D01*
X449300Y245078D01*
X449147Y245089D01*
X448978Y245075D01*
X448828Y245050D01*
X448698Y245015D01*
X448588Y244970D01*
X448498Y244915D01*
X448428Y244849D01*
X448378Y244775D01*
X448348Y244689D01*
X448338Y244595D01*
Y246595D01*
X448348Y246499D01*
X448378Y246414D01*
X448428Y246340D01*
X448498Y246274D01*
X448588Y246219D01*
X448698Y246175D01*
X448828Y246140D01*
X448978Y246114D01*
X449147Y246099D01*
X449300Y246111D01*
X449531Y246161D01*
X449773Y246245D01*
X450026Y246362D01*
X450291Y246512D01*
X450567Y246696D01*
X450855Y246913D01*
X451465Y247447D01*
X451786Y247764D01*
Y243425D01*
D02*
G37*
G36*
X435775Y245738D02*
X435840Y245687D01*
X435910Y245641D01*
X435984Y245602D01*
X436062Y245569D01*
X436144Y245543D01*
X436231Y245521D01*
X436322Y245507D01*
X436417Y245497D01*
X436517Y245495D01*
Y244694D01*
X436417Y244691D01*
X436322Y244683D01*
X436231Y244668D01*
X436144Y244647D01*
X436062Y244619D01*
X435984Y244586D01*
X435910Y244548D01*
X435840Y244502D01*
X435775Y244451D01*
X435714Y244394D01*
Y245795D01*
X435775Y245738D01*
D02*
G37*
G36*
X437662Y244295D02*
X437654Y244371D01*
X437630Y244439D01*
X437590Y244498D01*
X437534Y244550D01*
X437462Y244595D01*
X437374Y244631D01*
X437270Y244658D01*
X437150Y244678D01*
X437014Y244690D01*
X436862Y244694D01*
Y245495D01*
X437014Y245498D01*
X437150Y245511D01*
X437270Y245531D01*
X437374Y245559D01*
X437462Y245595D01*
X437534Y245638D01*
X437590Y245690D01*
X437630Y245750D01*
X437654Y245818D01*
X437662Y245895D01*
Y244295D01*
D02*
G37*
G36*
X213969Y242495D02*
X213517Y242492D01*
X212708Y242439D01*
X212351Y242389D01*
X212026Y242323D01*
X211733Y242242D01*
X211471Y242146D01*
X211241Y242034D01*
X211042Y241906D01*
X210875Y241762D01*
X210168Y242470D01*
X210311Y242636D01*
X210439Y242835D01*
X210551Y243065D01*
X210648Y243327D01*
X210729Y243621D01*
X210794Y243946D01*
X210844Y244303D01*
X210897Y245112D01*
X210900Y245564D01*
X213969Y242495D01*
D02*
G37*
G36*
X156501Y237388D02*
X156353Y237216D01*
X156222Y237009D01*
X156106Y236768D01*
X156007Y236493D01*
X155924Y236184D01*
X155856Y235841D01*
X155805Y235464D01*
X155751Y234607D01*
X155748Y234127D01*
X152532Y237342D01*
X153012Y237345D01*
X153869Y237400D01*
X154246Y237451D01*
X154589Y237518D01*
X154899Y237601D01*
X155174Y237701D01*
X155414Y237816D01*
X155621Y237948D01*
X155794Y238095D01*
X156501Y237388D01*
D02*
G37*
G36*
X451786Y233424D02*
X451465Y233742D01*
X450855Y234276D01*
X450567Y234493D01*
X450291Y234677D01*
X450026Y234827D01*
X449773Y234944D01*
X449531Y235028D01*
X449300Y235078D01*
X449147Y235089D01*
X448978Y235074D01*
X448828Y235050D01*
X448698Y235015D01*
X448588Y234969D01*
X448498Y234914D01*
X448428Y234850D01*
X448378Y234774D01*
X448348Y234689D01*
X448338Y234594D01*
Y236595D01*
X448348Y236500D01*
X448378Y236415D01*
X448428Y236339D01*
X448498Y236275D01*
X448588Y236220D01*
X448698Y236175D01*
X448828Y236139D01*
X448978Y236115D01*
X449147Y236100D01*
X449300Y236111D01*
X449531Y236161D01*
X449773Y236245D01*
X450026Y236362D01*
X450291Y236512D01*
X450567Y236696D01*
X450855Y236913D01*
X451465Y237447D01*
X451786Y237765D01*
Y233424D01*
D02*
G37*
G36*
X435757Y236257D02*
X435807Y236223D01*
X435864Y236192D01*
X435928Y236167D01*
X436000Y236144D01*
X436079Y236126D01*
X436165Y236112D01*
X436258Y236103D01*
X436466Y236094D01*
Y235094D01*
X436358Y235092D01*
X436165Y235076D01*
X436079Y235063D01*
X436000Y235045D01*
X435928Y235022D01*
X435864Y234997D01*
X435807Y234966D01*
X435757Y234932D01*
X435714Y234894D01*
Y236295D01*
X435757Y236257D01*
D02*
G37*
G36*
X437662Y234594D02*
X437652Y234689D01*
X437622Y234774D01*
X437572Y234850D01*
X437502Y234914D01*
X437412Y234969D01*
X437302Y235015D01*
X437172Y235050D01*
X437022Y235074D01*
X436852Y235089D01*
X436662Y235094D01*
Y236094D01*
X436852Y236100D01*
X437022Y236115D01*
X437172Y236139D01*
X437302Y236175D01*
X437412Y236220D01*
X437502Y236275D01*
X437572Y236339D01*
X437622Y236415D01*
X437652Y236500D01*
X437662Y236595D01*
Y234594D01*
D02*
G37*
G36*
X128418Y230674D02*
X128448Y230652D01*
X128498Y230633D01*
X128568Y230617D01*
X128658Y230603D01*
X128898Y230582D01*
X129218Y230572D01*
X129408Y230571D01*
Y229571D01*
X128408Y229522D01*
Y230698D01*
X128418Y230674D01*
D02*
G37*
G36*
X131619Y229071D02*
X131609Y229166D01*
X131579Y229251D01*
X131529Y229326D01*
X131459Y229391D01*
X131369Y229446D01*
X131259Y229491D01*
X131129Y229526D01*
X130979Y229551D01*
X130809Y229566D01*
X130619Y229571D01*
Y230571D01*
X130809Y230576D01*
X130979Y230591D01*
X131129Y230616D01*
X131259Y230651D01*
X131369Y230696D01*
X131459Y230751D01*
X131529Y230816D01*
X131579Y230891D01*
X131609Y230976D01*
X131619Y231071D01*
Y229071D01*
D02*
G37*
G36*
X586303Y213005D02*
X586445Y212885D01*
X586586Y212779D01*
X586728Y212687D01*
X586869Y212609D01*
X587010Y212546D01*
X587152Y212496D01*
X587293Y212461D01*
X587435Y212440D01*
X587576Y212433D01*
X586162Y211018D01*
X586155Y211160D01*
X586134Y211301D01*
X586098Y211442D01*
X586049Y211584D01*
X585985Y211725D01*
X585907Y211867D01*
X585815Y212008D01*
X585709Y212150D01*
X585589Y212291D01*
X585455Y212433D01*
X586162Y213140D01*
X586303Y213005D01*
D02*
G37*
G36*
X441757Y83788D02*
X441807Y83754D01*
X441864Y83724D01*
X441928Y83698D01*
X442000Y83676D01*
X442079Y83658D01*
X442165Y83644D01*
X442258Y83634D01*
X442466Y83626D01*
Y82626D01*
X442358Y82624D01*
X442165Y82608D01*
X442079Y82594D01*
X442000Y82576D01*
X441928Y82554D01*
X441864Y82528D01*
X441807Y82498D01*
X441757Y82464D01*
X441714Y82426D01*
Y83826D01*
X441757Y83788D01*
D02*
G37*
G36*
X586162Y200213D02*
X586152Y200308D01*
X586122Y200393D01*
X586072Y200468D01*
X586002Y200533D01*
X585912Y200588D01*
X585802Y200633D01*
X585672Y200668D01*
X585522Y200693D01*
X585352Y200708D01*
X585162Y200713D01*
Y201713D01*
X585352Y201718D01*
X585522Y201733D01*
X585672Y201758D01*
X585802Y201793D01*
X585912Y201838D01*
X586002Y201893D01*
X586072Y201958D01*
X586122Y202033D01*
X586152Y202118D01*
X586162Y202213D01*
Y200213D01*
D02*
G37*
G36*
X577348Y202118D02*
X577378Y202033D01*
X577428Y201958D01*
X577498Y201893D01*
X577588Y201838D01*
X577698Y201793D01*
X577828Y201758D01*
X577978Y201733D01*
X578148Y201718D01*
X578338Y201713D01*
Y200713D01*
X578148Y200708D01*
X577978Y200693D01*
X577828Y200668D01*
X577698Y200633D01*
X577588Y200588D01*
X577498Y200533D01*
X577428Y200468D01*
X577378Y200393D01*
X577348Y200308D01*
X577338Y200213D01*
Y202213D01*
X577348Y202118D01*
D02*
G37*
G36*
X575905Y199215D02*
X575820Y199185D01*
X575745Y199135D01*
X575680Y199065D01*
X575625Y198975D01*
X575580Y198865D01*
X575545Y198735D01*
X575520Y198585D01*
X575505Y198415D01*
X575500Y198225D01*
X574500D01*
X574495Y198415D01*
X574480Y198585D01*
X574455Y198735D01*
X574420Y198865D01*
X574375Y198975D01*
X574320Y199065D01*
X574255Y199135D01*
X574180Y199185D01*
X574095Y199215D01*
X574000Y199225D01*
X576000D01*
X575905Y199215D01*
D02*
G37*
G36*
X575505Y196361D02*
X575520Y196191D01*
X575545Y196041D01*
X575580Y195911D01*
X575625Y195801D01*
X575680Y195711D01*
X575745Y195641D01*
X575820Y195591D01*
X575905Y195561D01*
X576000Y195551D01*
X574000D01*
X574095Y195561D01*
X574180Y195591D01*
X574255Y195641D01*
X574320Y195711D01*
X574375Y195801D01*
X574420Y195911D01*
X574455Y196041D01*
X574480Y196191D01*
X574495Y196361D01*
X574500Y196551D01*
X575500D01*
X575505Y196361D01*
D02*
G37*
G36*
X576810Y184855D02*
X576640Y184795D01*
X576490Y184695D01*
X576360Y184555D01*
X576250Y184375D01*
X576160Y184155D01*
X576090Y183895D01*
X576040Y183595D01*
X576010Y183255D01*
X576000Y182875D01*
X574000D01*
X573990Y183255D01*
X573960Y183595D01*
X573910Y183895D01*
X573840Y184155D01*
X573750Y184375D01*
X573640Y184555D01*
X573510Y184695D01*
X573360Y184795D01*
X573190Y184855D01*
X573000Y184875D01*
X577000D01*
X576810Y184855D01*
D02*
G37*
G36*
X223969Y172495D02*
X223517Y172492D01*
X222708Y172439D01*
X222352Y172389D01*
X222026Y172323D01*
X221733Y172242D01*
X221471Y172146D01*
X221241Y172034D01*
X221042Y171906D01*
X220875Y171762D01*
X220168Y172469D01*
X220311Y172636D01*
X220439Y172835D01*
X220551Y173065D01*
X220648Y173327D01*
X220729Y173621D01*
X220794Y173946D01*
X220844Y174303D01*
X220897Y175112D01*
X220900Y175564D01*
X223969Y172495D01*
D02*
G37*
G36*
X199042Y119283D02*
X199241Y119156D01*
X199471Y119043D01*
X199733Y118947D01*
X200026Y118866D01*
X200352Y118800D01*
X200708Y118750D01*
X201517Y118697D01*
X201969Y118694D01*
X198900Y115626D01*
X198897Y116077D01*
X198844Y116886D01*
X198794Y117243D01*
X198729Y117568D01*
X198648Y117862D01*
X198551Y118124D01*
X198439Y118354D01*
X198311Y118552D01*
X198168Y118719D01*
X198875Y119427D01*
X199042Y119283D01*
D02*
G37*
G36*
X236162Y332412D02*
X236128Y332362D01*
X236098Y332305D01*
X236072Y332241D01*
X236050Y332169D01*
X236032Y332090D01*
X236018Y332004D01*
X236008Y331911D01*
X236000Y331703D01*
X235000D01*
X234998Y331811D01*
X234982Y332004D01*
X234968Y332090D01*
X234950Y332169D01*
X234928Y332241D01*
X234902Y332305D01*
X234872Y332362D01*
X234838Y332412D01*
X234800Y332455D01*
X236200D01*
X236162Y332412D01*
D02*
G37*
G36*
X226536Y157447D02*
X227145Y156913D01*
X227432Y156696D01*
X227709Y156512D01*
X227974Y156362D01*
X228227Y156245D01*
X228469Y156161D01*
X228700Y156111D01*
X228919Y156095D01*
Y155095D01*
X228700Y155078D01*
X228469Y155028D01*
X228227Y154944D01*
X227974Y154827D01*
X227709Y154677D01*
X227432Y154493D01*
X227145Y154276D01*
X226536Y153742D01*
X226214Y153425D01*
Y157764D01*
X226536Y157447D01*
D02*
G37*
G36*
X217103Y155112D02*
X217156Y154303D01*
X217206Y153946D01*
X217271Y153621D01*
X217352Y153327D01*
X217449Y153065D01*
X217561Y152835D01*
X217689Y152636D01*
X217832Y152470D01*
X217125Y151762D01*
X216958Y151906D01*
X216759Y152033D01*
X216529Y152146D01*
X216267Y152242D01*
X215974Y152323D01*
X215649Y152389D01*
X215292Y152439D01*
X214483Y152491D01*
X214031Y152495D01*
X217100Y155563D01*
X217103Y155112D01*
D02*
G37*
G36*
X239205Y138742D02*
X239220Y138573D01*
X239245Y138423D01*
X239280Y138293D01*
X239325Y138182D01*
X239380Y138093D01*
X239445Y138022D01*
X239520Y137972D01*
X239605Y137943D01*
X239700Y137933D01*
X237700D01*
X237795Y137943D01*
X237880Y137972D01*
X237955Y138022D01*
X238020Y138093D01*
X238075Y138182D01*
X238120Y138293D01*
X238155Y138423D01*
X238180Y138573D01*
X238195Y138742D01*
X238200Y138933D01*
X239200D01*
X239205Y138742D01*
D02*
G37*
G36*
X230012Y134794D02*
X230004Y134871D01*
X229980Y134939D01*
X229940Y134999D01*
X229884Y135050D01*
X229812Y135094D01*
X229724Y135131D01*
X229620Y135159D01*
X229500Y135178D01*
X229364Y135190D01*
X229212Y135195D01*
Y135995D01*
X229364Y135998D01*
X229500Y136011D01*
X229620Y136030D01*
X229724Y136058D01*
X229812Y136094D01*
X229884Y136138D01*
X229940Y136190D01*
X229980Y136250D01*
X230004Y136319D01*
X230012Y136395D01*
Y134794D01*
D02*
G37*
G36*
X226553Y137428D02*
X227482Y136632D01*
X227761Y136437D01*
X228026Y136278D01*
X228275Y136154D01*
X228510Y136065D01*
X228730Y136012D01*
X228934Y135995D01*
Y135195D01*
X228730Y135177D01*
X228510Y135124D01*
X228275Y135035D01*
X228026Y134911D01*
X227761Y134752D01*
X227482Y134557D01*
X227187Y134327D01*
X226553Y133761D01*
X226214Y133424D01*
Y137765D01*
X226553Y137428D01*
D02*
G37*
G36*
X152468Y200847D02*
X151988Y200844D01*
X151131Y200789D01*
X150754Y200738D01*
X150410Y200671D01*
X150101Y200587D01*
X149826Y200488D01*
X149586Y200373D01*
X149379Y200241D01*
X149206Y200094D01*
X148499Y200801D01*
X148647Y200973D01*
X148778Y201180D01*
X148894Y201421D01*
X148993Y201696D01*
X149076Y202005D01*
X149144Y202348D01*
X149195Y202725D01*
X149249Y203582D01*
X149252Y204062D01*
X152468Y200847D01*
D02*
G37*
G36*
X152811Y154947D02*
X152858Y154724D01*
X152937Y154490D01*
X153048Y154246D01*
X153190Y153993D01*
X153363Y153729D01*
X153568Y153455D01*
X154073Y152877D01*
X154373Y152573D01*
X150217D01*
X150517Y152877D01*
X151022Y153455D01*
X151227Y153729D01*
X151401Y153993D01*
X151543Y154246D01*
X151653Y154490D01*
X151732Y154724D01*
X151779Y154947D01*
X151795Y155160D01*
X152795D01*
X152811Y154947D01*
D02*
G37*
G36*
X155267Y149996D02*
X155319Y149230D01*
X155367Y148891D01*
X155431Y148582D01*
X155510Y148302D01*
X155604Y148052D01*
X155713Y147831D01*
X155838Y147640D01*
X155977Y147478D01*
X155270Y146771D01*
X155108Y146910D01*
X154917Y147035D01*
X154696Y147144D01*
X154446Y147238D01*
X154166Y147317D01*
X153857Y147381D01*
X153518Y147429D01*
X152752Y147481D01*
X152325Y147484D01*
X155264Y150423D01*
X155267Y149996D01*
D02*
G37*
G36*
X159118Y144032D02*
X159108Y144126D01*
X159078Y144211D01*
X159028Y144287D01*
X158958Y144351D01*
X158868Y144406D01*
X158758Y144451D01*
X158628Y144486D01*
X158478Y144511D01*
X158308Y144527D01*
X158118Y144532D01*
Y145531D01*
X158308Y145536D01*
X158478Y145552D01*
X158628Y145577D01*
X158758Y145612D01*
X158868Y145657D01*
X158958Y145712D01*
X159028Y145776D01*
X159078Y145852D01*
X159108Y145937D01*
X159118Y146031D01*
Y144032D01*
D02*
G37*
D11*
X126500Y236147D02*
X129515D01*
X133619Y240251D01*
Y242721D01*
X134500Y243602D01*
X126682Y243721D02*
X126801Y243602D01*
X126682Y243721D02*
Y251850D01*
X126563Y251969D02*
X126682Y251850D01*
X126563Y251969D02*
Y257445D01*
X143213Y274095D01*
X152500D01*
X162500D01*
X192500D01*
X214000Y295595D01*
X575000Y170595D02*
Y186863D01*
D16*
X424760Y312685D02*
Y316573D01*
X417140Y324193D02*
X424760Y316573D01*
X416000Y324193D02*
X417140D01*
X414500Y325693D02*
X416000Y324193D01*
X408296Y222594D02*
X408317Y222615D01*
X410520D01*
X407271Y222594D02*
X408296D01*
X410520Y222615D02*
X412486Y224581D01*
X214000Y155595D02*
X219000Y150594D01*
X231500D01*
X238700Y143394D01*
Y135594D02*
Y143394D01*
X423577Y224581D02*
X423812D01*
X423820Y224573D01*
Y217369D02*
Y224573D01*
Y217369D02*
X424063Y217126D01*
X453850Y120595D02*
X454000Y120745D01*
X416500Y120595D02*
X453850D01*
X421032Y217126D02*
X424063D01*
X421000Y217094D02*
X421032Y217126D01*
X435000Y235595D02*
X439650D01*
X235500Y157488D02*
Y333169D01*
X233606Y155595D02*
X235500Y157488D01*
X224000Y155595D02*
X233606D01*
X414423Y226549D02*
Y228518D01*
X419000Y223941D02*
X420968D01*
X420976Y220496D02*
X421000Y220472D01*
X420976Y220496D02*
Y223933D01*
X420968Y223941D02*
X420976Y223933D01*
X425000Y350126D02*
X426947Y352073D01*
X445309Y351817D02*
X445500Y351626D01*
X426947Y352073D02*
X428700D01*
X445309Y351817D02*
Y352679D01*
X405500Y221094D02*
X405771D01*
X407271Y222594D01*
X412486Y224581D02*
X414423D01*
X428000Y175796D02*
Y225095D01*
X442500Y343094D02*
Y348136D01*
X442400Y348236D02*
X442500Y348136D01*
X442200Y348236D02*
X442400D01*
X454000Y127445D02*
Y135594D01*
X146000Y197594D02*
X152500Y204095D01*
X146000Y168095D02*
Y197594D01*
Y168095D02*
X152295Y161799D01*
Y150453D02*
Y161799D01*
Y150453D02*
X157717Y145031D01*
X162000D01*
X196500Y121095D02*
Y121095D01*
X185500Y132095D02*
Y156095D01*
Y132095D02*
X196500Y121095D01*
Y121095D02*
X202000Y115594D01*
X185500Y156095D02*
X200152Y170746D01*
X219152D01*
X224000Y175594D01*
X207000Y238595D02*
X214000Y245595D01*
X157000Y238595D02*
X207000D01*
X207500Y249095D02*
X214000Y255594D01*
X157500Y249095D02*
X207500D01*
X420968Y231126D02*
Y232977D01*
X421554Y233563D01*
X426031D01*
X439514Y220081D01*
Y171081D02*
Y220081D01*
X457000Y160094D02*
X459000Y158095D01*
Y140594D02*
Y158095D01*
X450500Y160094D02*
X457000D01*
X439514Y171081D02*
X450500Y160094D01*
X454000Y135594D02*
X459000Y140594D01*
X446000Y265595D02*
X454000D01*
X446350Y235595D02*
X454000D01*
X446350Y245595D02*
X454000D01*
X408850Y230626D02*
X408990Y230486D01*
X414423D01*
X423577Y226549D02*
X426545D01*
X428000Y225095D01*
Y175796D02*
X453602Y150195D01*
Y145993D02*
Y150195D01*
Y145993D02*
X454000Y145595D01*
X589039Y201213D02*
X590000Y200252D01*
X575000Y201213D02*
X589039D01*
X575000Y193563D02*
Y201213D01*
X566000Y209594D02*
X569764Y213359D01*
X585236D01*
X588500Y210094D02*
X590000D01*
X585236Y213359D02*
X588500Y210094D01*
X566000Y183595D02*
Y209594D01*
X465531Y83126D02*
X566000Y183595D01*
X441000Y83126D02*
X465531D01*
X432547Y352173D02*
X435500Y355126D01*
X428800Y352173D02*
X432547D01*
X438453Y360029D02*
X440340Y361916D01*
X435500Y355126D02*
X436484Y354142D01*
X442200D01*
X438453Y360029D02*
Y363776D01*
X432547Y360029D02*
Y363776D01*
X430660Y361916D02*
X432547Y360029D01*
X428900Y361916D02*
X430660D01*
X428800Y362016D02*
X428900Y361916D01*
X440340D02*
X442100D01*
X442200Y362016D01*
X134461Y230071D02*
X134500Y230031D01*
X128059Y230071D02*
X134461D01*
X128020Y230110D02*
X128059Y230071D01*
X152500Y234095D02*
X157000Y238595D01*
X152500Y244094D02*
X157500Y249095D01*
X599150Y258626D02*
X604500Y253276D01*
X596116Y258626D02*
X599150D01*
X595869Y258874D02*
X596116Y258626D01*
X593748Y258874D02*
X595869D01*
X593500Y258626D02*
X593748Y258874D01*
X587869Y252995D02*
X593500Y258626D01*
X587869Y252757D02*
Y252995D01*
X443946Y354042D02*
X445309Y352679D01*
X442300Y354042D02*
X443946D01*
X442200Y354142D02*
X442300Y354042D01*
X428700Y352073D02*
X428800Y352173D01*
X444850Y234095D02*
X446350Y235595D01*
D22*
X416850Y215551D02*
D03*
X409150D02*
D03*
X134500Y243602D02*
D03*
X126801D02*
D03*
D23*
X119547Y236114D02*
D03*
X121516D02*
D03*
X123484D02*
D03*
X125453D02*
D03*
Y226075D02*
D03*
X123484D02*
D03*
X121516D02*
D03*
X119547D02*
D03*
D24*
X127520Y234047D02*
D03*
Y232079D02*
D03*
Y230110D02*
D03*
Y228142D02*
D03*
X117480D02*
D03*
Y230110D02*
D03*
Y232079D02*
D03*
Y234047D02*
D03*
D25*
X126563Y251969D02*
D03*
X424063Y217126D02*
D03*
X424000Y209626D02*
D03*
X416937Y207677D02*
D03*
X426063Y98126D02*
D03*
X433937D02*
D03*
X426063Y105595D02*
D03*
X433937D02*
D03*
X409063Y207677D02*
D03*
X431874Y209626D02*
D03*
X431937Y217126D02*
D03*
X134437Y251969D02*
D03*
D26*
X439650Y235595D02*
D03*
X238700Y135594D02*
D03*
X446000Y265595D02*
D03*
X439300D02*
D03*
X439650Y245595D02*
D03*
X446350D02*
D03*
X232000Y135594D02*
D03*
X446350Y235595D02*
D03*
X408850Y230626D02*
D03*
X402150D02*
D03*
D27*
X432240Y312685D02*
D03*
Y322567D02*
D03*
X428500D02*
D03*
X424760D02*
D03*
Y312685D02*
D03*
D28*
X454000Y120745D02*
D03*
Y127445D02*
D03*
X575000Y201213D02*
D03*
Y207913D02*
D03*
Y186863D02*
D03*
Y193563D02*
D03*
X120000Y209745D02*
D03*
Y216444D02*
D03*
X414500Y318992D02*
D03*
Y325693D02*
D03*
D29*
X188000Y405118D02*
D03*
Y55020D02*
D03*
X645500Y405118D02*
D03*
Y55020D02*
D03*
D30*
X590000Y219937D02*
D03*
Y210094D02*
D03*
Y200252D02*
D03*
X612244D02*
D03*
Y210094D02*
D03*
Y219937D02*
D03*
D31*
X604500Y246976D02*
D03*
Y253276D02*
D03*
D32*
X438453Y346476D02*
D03*
Y363776D02*
D03*
X432547D02*
D03*
Y346476D02*
D03*
D33*
X442200Y348236D02*
D03*
Y350205D02*
D03*
Y352173D02*
D03*
Y354142D02*
D03*
Y356110D02*
D03*
Y358079D02*
D03*
Y360047D02*
D03*
Y362016D02*
D03*
X428800D02*
D03*
Y360047D02*
D03*
Y358079D02*
D03*
Y356110D02*
D03*
Y354142D02*
D03*
Y352173D02*
D03*
Y350205D02*
D03*
Y348236D02*
D03*
D34*
X134501Y222091D02*
D03*
Y229965D02*
D03*
X421000Y346189D02*
D03*
Y354063D02*
D03*
X449500Y348189D02*
D03*
Y356063D02*
D03*
X457500Y348252D02*
D03*
Y356126D02*
D03*
X162000Y137157D02*
D03*
Y145031D02*
D03*
D35*
X593500Y258626D02*
D03*
X588762Y263364D02*
D03*
X587869Y252757D02*
D03*
X583131Y257495D02*
D03*
D42*
X435500Y355126D02*
D03*
D45*
X454000Y285595D02*
D03*
X224000Y245595D02*
D03*
X214000Y295595D02*
D03*
Y155595D02*
D03*
X215500Y350886D02*
D03*
X225500D02*
D03*
X235500D02*
D03*
X214000Y175594D02*
D03*
Y195595D02*
D03*
Y185594D02*
D03*
Y165594D02*
D03*
Y145595D02*
D03*
Y135594D02*
D03*
Y315595D02*
D03*
Y305594D02*
D03*
Y285595D02*
D03*
Y275594D02*
D03*
Y265595D02*
D03*
Y255594D02*
D03*
Y235595D02*
D03*
Y245595D02*
D03*
Y225594D02*
D03*
Y215595D02*
D03*
Y205594D02*
D03*
X224000Y175594D02*
D03*
Y165594D02*
D03*
Y155595D02*
D03*
Y145595D02*
D03*
Y315595D02*
D03*
Y305594D02*
D03*
Y295595D02*
D03*
Y285595D02*
D03*
Y275594D02*
D03*
Y265595D02*
D03*
Y255594D02*
D03*
Y235595D02*
D03*
Y225594D02*
D03*
Y215595D02*
D03*
Y205594D02*
D03*
Y195595D02*
D03*
Y185594D02*
D03*
Y135594D02*
D03*
X454000Y175594D02*
D03*
Y195595D02*
D03*
Y185594D02*
D03*
Y165594D02*
D03*
Y155595D02*
D03*
Y145595D02*
D03*
Y135594D02*
D03*
Y315595D02*
D03*
Y305594D02*
D03*
Y295595D02*
D03*
Y275594D02*
D03*
Y265595D02*
D03*
Y255594D02*
D03*
Y235595D02*
D03*
Y245595D02*
D03*
Y225594D02*
D03*
Y215595D02*
D03*
Y205594D02*
D03*
X464000Y175594D02*
D03*
Y165594D02*
D03*
Y155595D02*
D03*
Y145595D02*
D03*
Y315595D02*
D03*
Y305594D02*
D03*
Y295595D02*
D03*
Y285595D02*
D03*
Y275594D02*
D03*
Y265595D02*
D03*
Y255594D02*
D03*
Y245595D02*
D03*
Y235595D02*
D03*
Y225594D02*
D03*
Y215595D02*
D03*
Y205594D02*
D03*
Y195595D02*
D03*
Y185594D02*
D03*
Y135594D02*
D03*
X222000Y115594D02*
D03*
X212000D02*
D03*
X202000D02*
D03*
D53*
X177000Y350594D02*
D03*
X122000Y173345D02*
D03*
Y283345D02*
D03*
X177000Y135594D02*
D03*
X654500Y270595D02*
D03*
Y205594D02*
D03*
D54*
X644500Y375594D02*
D03*
Y95595D02*
D03*
D55*
X423577Y224581D02*
D03*
X414423Y230486D02*
D03*
Y228518D02*
D03*
Y226549D02*
D03*
Y224581D02*
D03*
X423577Y226549D02*
D03*
Y228518D02*
D03*
Y230486D02*
D03*
D56*
X417031Y223941D02*
D03*
X419000D02*
D03*
X420968D02*
D03*
Y231126D02*
D03*
X419000D02*
D03*
X417031D02*
D03*
D57*
X447000Y360236D02*
X447563D01*
X451500Y364173D01*
Y382044D01*
X449450Y384095D02*
X451500Y382044D01*
X441000Y384095D02*
X449450D01*
X449532Y356095D02*
X463500D01*
X449469D02*
X449532D01*
X448000D02*
X449469D01*
X410508Y354102D02*
X423961D01*
X225500Y350886D02*
X236327Y340059D01*
X241500D01*
X245404Y336155D01*
Y129623D02*
Y336155D01*
X243354Y127572D02*
X245404Y129623D01*
X223978Y127572D02*
X243354D01*
X212000Y115594D02*
X223978Y127572D01*
X212000Y115594D02*
X219000Y108595D01*
X338000D01*
X362000Y132595D01*
X379000Y115594D01*
X427000D01*
X362000Y132595D02*
Y228594D01*
X428500Y295094D01*
X427000Y115594D02*
X434000Y108595D01*
Y105657D02*
Y108595D01*
X433937Y105595D02*
X434000Y105657D01*
X444500Y66094D02*
X447000D01*
X442000D02*
X444500D01*
X447000D02*
X449500D01*
X444500Y316094D02*
X466500Y338094D01*
Y353095D01*
X444500Y304594D02*
Y316094D01*
X428500Y295094D02*
X435000D01*
X444500Y304594D01*
X423961Y354102D02*
X424000Y354142D01*
X404500Y348095D02*
X410508Y354102D01*
X404500Y319094D02*
Y348095D01*
Y319094D02*
X428500Y295094D01*
X449500Y356063D02*
X449532Y356095D01*
X463500D02*
X466500Y353095D01*
X441000Y66094D02*
X442000D01*
X433937Y98126D02*
Y105595D01*
Y73158D02*
Y98126D01*
Y73158D02*
X439500Y67594D01*
X441000Y66094D01*
D58*
X421609Y359252D02*
X424000D01*
X419500Y361361D02*
X421609Y359252D01*
X419500Y361361D02*
Y381986D01*
X421609Y384095D01*
X431000D01*
D59*
X449469Y356095D02*
X449500Y356063D01*
X449453Y356110D02*
X449469Y356095D01*
D60*
X428500Y322567D02*
X428750Y322817D01*
Y348186D01*
X428800Y348236D01*
X117362Y231960D02*
X117480Y232079D01*
X114891Y231960D02*
X117362D01*
X114275Y231345D02*
X114891Y231960D01*
X110826Y231345D02*
X114275D01*
X109500Y232670D02*
X110826Y231345D01*
X109500Y232670D02*
Y238277D01*
X114826Y243602D01*
X126801D01*
X432240Y312685D02*
X432331Y312595D01*
X432240Y312685D02*
X432285Y312640D01*
X440955D01*
X441000Y312595D01*
X583131Y257495D02*
Y257614D01*
X588762Y263245D01*
Y263364D01*
X588762D02*
X588762D01*
X491532Y360595D02*
X588762Y263364D01*
X458379Y360595D02*
X491532D01*
X457500Y359716D02*
X458379Y360595D01*
X457500Y356126D02*
Y359716D01*
D61*
X414500Y314469D02*
Y318992D01*
X115380Y233847D02*
X117780D01*
X113573Y233824D02*
X115357D01*
X113343Y233594D02*
X113573Y233824D01*
X117780Y233847D02*
X117980Y234047D01*
X115357Y233824D02*
X115380Y233847D01*
X438476Y342150D02*
X438500Y342126D01*
X438476Y342150D02*
Y346452D01*
X419000Y251054D02*
X433540Y265595D01*
X439300D01*
X419000Y240094D02*
Y251054D01*
X402500Y230976D02*
Y235094D01*
X432500Y341094D02*
X432524Y341118D01*
Y346452D01*
X432547Y346476D01*
X419000Y231126D02*
Y240094D01*
X417016Y231173D02*
Y234579D01*
X417000Y234594D02*
X417016Y234579D01*
X417000Y231157D02*
X417016Y231173D01*
X402150Y230626D02*
X402500Y230976D01*
X439150Y245094D02*
X439650Y245595D01*
X435000Y245094D02*
X439150D01*
X224000Y135594D02*
X232000D01*
X117263Y228142D02*
X117480D01*
X117063Y227942D02*
X117263Y228142D01*
X117063Y223955D02*
Y227942D01*
X115500Y222392D02*
X117063Y223955D01*
X115500Y205594D02*
Y222392D01*
X119547Y216897D02*
X120000Y216444D01*
X119547Y216897D02*
Y226075D01*
X119500Y236161D02*
X119547Y236114D01*
X119500Y236161D02*
Y239094D01*
X118500Y240094D02*
X119500Y239094D01*
X114500Y240094D02*
X118500D01*
X115500Y205594D02*
X118000Y203095D01*
X120150Y209594D02*
X125000D01*
X120000Y209745D02*
X120150Y209594D01*
X120000Y216444D02*
X120047Y216492D01*
X438453Y346476D02*
X438476Y346452D01*
D62*
X416937Y207677D02*
Y209291D01*
X416850Y209379D02*
X416937Y209291D01*
X416850Y209379D02*
Y215551D01*
X424000Y187794D02*
Y209626D01*
X416937Y207677D02*
X422051D01*
X422356Y207982D01*
X423971D01*
X424000Y208012D01*
Y209626D01*
X424063Y209689D02*
Y217126D01*
X424000Y209626D02*
Y210065D01*
X423971Y210094D02*
X424000Y210065D01*
X449111Y285595D02*
X454000D01*
X376000Y212484D02*
X449111Y285595D01*
X376000Y161094D02*
Y212484D01*
Y161094D02*
X386650Y150444D01*
X424000Y187794D01*
D63*
X409150Y215551D02*
Y220203D01*
X409912Y220965D01*
X414182D01*
X417031Y223814D01*
Y223941D01*
D64*
X152500Y274095D02*
D03*
X162500D02*
D03*
Y264094D02*
D03*
X152500D02*
D03*
X162500Y254095D02*
D03*
X152500D02*
D03*
Y244094D02*
D03*
X162500D02*
D03*
X152500Y234095D02*
D03*
X162500D02*
D03*
X152500Y224095D02*
D03*
X162500D02*
D03*
X152500Y214094D02*
D03*
X162500D02*
D03*
X152500Y204095D02*
D03*
X162500D02*
D03*
X152500Y194095D02*
D03*
X162500D02*
D03*
X152500Y184095D02*
D03*
X162500D02*
D03*
D65*
X483083Y120772D02*
D03*
X620917Y338094D02*
D03*
X389917Y338787D02*
D03*
X252083Y121465D02*
D03*
D66*
X483083Y370457D02*
D03*
X252083Y371150D02*
D03*
D67*
X552000Y120772D02*
D03*
Y338094D02*
D03*
X321000Y338787D02*
D03*
Y121465D02*
D03*
D68*
X126705Y150453D02*
D03*
X152295D02*
D03*
X126705Y132736D02*
D03*
D69*
X152295D02*
D03*
D70*
X441000Y384095D02*
D03*
X431000D02*
D03*
D71*
X426500Y345626D02*
D03*
X420500Y324311D02*
D03*
X414500Y314469D02*
D03*
X113343Y233594D02*
D03*
X441000Y312595D02*
D03*
X416500Y120595D02*
D03*
X421000Y217094D02*
D03*
X435000Y235595D02*
D03*
X235500Y333169D02*
D03*
X403500Y223425D02*
D03*
X405500Y224902D02*
D03*
X407500Y225886D02*
D03*
X410000D02*
D03*
X532000Y91000D02*
D03*
Y84000D02*
D03*
Y77000D02*
D03*
Y70000D02*
D03*
Y63000D02*
D03*
X530250Y94500D02*
D03*
X528500Y91000D02*
D03*
X530250Y87500D02*
D03*
Y80500D02*
D03*
Y73500D02*
D03*
Y66500D02*
D03*
X526750Y94500D02*
D03*
X523250D02*
D03*
X519750D02*
D03*
X516250D02*
D03*
X514500Y91000D02*
D03*
X512750Y94500D02*
D03*
X509250D02*
D03*
X505750D02*
D03*
X498750Y87500D02*
D03*
X497000Y84000D02*
D03*
X498750Y80500D02*
D03*
X497000Y77000D02*
D03*
X498750Y73500D02*
D03*
X497000Y70000D02*
D03*
X498750Y66500D02*
D03*
X497000Y63000D02*
D03*
X302000Y92000D02*
D03*
X300000Y88000D02*
D03*
X302000Y84000D02*
D03*
X300000Y80000D02*
D03*
X302000Y76000D02*
D03*
X300000Y72000D02*
D03*
X302000Y68000D02*
D03*
X300000Y64000D02*
D03*
X298000Y92000D02*
D03*
Y84000D02*
D03*
Y76000D02*
D03*
Y68000D02*
D03*
X294000Y92000D02*
D03*
X290000D02*
D03*
X286000D02*
D03*
X282000D02*
D03*
X278000D02*
D03*
X274000D02*
D03*
X270000D02*
D03*
X268000Y88000D02*
D03*
Y80000D02*
D03*
Y72000D02*
D03*
Y64000D02*
D03*
X266000Y92000D02*
D03*
X264000Y88000D02*
D03*
X266000Y84000D02*
D03*
X264000Y80000D02*
D03*
X266000Y76000D02*
D03*
X264000Y72000D02*
D03*
X266000Y68000D02*
D03*
X264000Y64000D02*
D03*
X470750Y73500D02*
D03*
X465500Y98000D02*
D03*
X467250Y94500D02*
D03*
X465500Y91000D02*
D03*
X467250Y80500D02*
D03*
X462000Y98000D02*
D03*
X463750Y94500D02*
D03*
X462000Y91000D02*
D03*
X463750Y80500D02*
D03*
X462000Y77000D02*
D03*
X463750Y66500D02*
D03*
X458500Y105000D02*
D03*
X460250Y101500D02*
D03*
X458500Y98000D02*
D03*
X460250Y94500D02*
D03*
X458500Y91000D02*
D03*
X460250Y80500D02*
D03*
X458500Y77000D02*
D03*
X460250Y66500D02*
D03*
X455000Y105000D02*
D03*
X456750Y101500D02*
D03*
X455000Y98000D02*
D03*
X456750Y94500D02*
D03*
X455000Y91000D02*
D03*
X456750Y66500D02*
D03*
X451500Y105000D02*
D03*
X453250Y101500D02*
D03*
X451500Y98000D02*
D03*
X453250Y94500D02*
D03*
X451500Y91000D02*
D03*
X449750Y101500D02*
D03*
X448000Y98000D02*
D03*
X449750Y94500D02*
D03*
X448000Y91000D02*
D03*
X446250Y101500D02*
D03*
X444500Y98000D02*
D03*
X446250Y94500D02*
D03*
X444500Y91000D02*
D03*
X442750Y108500D02*
D03*
X441000Y105000D02*
D03*
X442750Y94500D02*
D03*
X441000Y91000D02*
D03*
Y77000D02*
D03*
X439250Y108500D02*
D03*
X437500Y105000D02*
D03*
X439250Y101500D02*
D03*
Y94500D02*
D03*
X437500Y91000D02*
D03*
X439250Y87500D02*
D03*
Y73500D02*
D03*
X435750Y66500D02*
D03*
X430500Y105000D02*
D03*
Y98000D02*
D03*
X432250Y66500D02*
D03*
X428750D02*
D03*
X425250D02*
D03*
X421750Y108500D02*
D03*
X420000Y105000D02*
D03*
X421750Y101500D02*
D03*
X420000Y98000D02*
D03*
X421750Y87500D02*
D03*
X420000Y70000D02*
D03*
X421750Y66500D02*
D03*
X418250Y108500D02*
D03*
X416500Y105000D02*
D03*
X418250Y101500D02*
D03*
X416500Y98000D02*
D03*
X418250Y87500D02*
D03*
X416500Y70000D02*
D03*
X418250Y66500D02*
D03*
X414750Y108500D02*
D03*
X413000Y105000D02*
D03*
X414750Y101500D02*
D03*
X413000Y98000D02*
D03*
Y91000D02*
D03*
X414750Y87500D02*
D03*
X413000Y70000D02*
D03*
X414750Y66500D02*
D03*
X411250Y108500D02*
D03*
X409500Y105000D02*
D03*
X411250Y101500D02*
D03*
X409500Y98000D02*
D03*
X411250Y94500D02*
D03*
X409500Y91000D02*
D03*
X411250Y87500D02*
D03*
X409500Y70000D02*
D03*
X411250Y66500D02*
D03*
X407750Y108500D02*
D03*
X406000Y105000D02*
D03*
X407750Y101500D02*
D03*
X406000Y98000D02*
D03*
X407750Y94500D02*
D03*
X406000Y91000D02*
D03*
X407750Y87500D02*
D03*
X406000Y70000D02*
D03*
X407750Y66500D02*
D03*
X432000Y204232D02*
D03*
X435500Y209646D02*
D03*
X437000Y217028D02*
D03*
X427500Y228839D02*
D03*
X429263Y227095D02*
D03*
X430835Y225339D02*
D03*
X421000Y220472D02*
D03*
X445500Y351626D02*
D03*
X432500Y368126D02*
D03*
X435500D02*
D03*
X438500D02*
D03*
X442000Y366126D02*
D03*
X425000Y350126D02*
D03*
X429000Y366126D02*
D03*
X438500Y342126D02*
D03*
X405500Y221094D02*
D03*
X118000Y203095D02*
D03*
X444500Y66094D02*
D03*
X447000D02*
D03*
X402500Y235094D02*
D03*
X442500Y343094D02*
D03*
X575000Y170595D02*
D03*
X423500Y338126D02*
D03*
X432500Y341094D02*
D03*
X419000Y240094D02*
D03*
X417000Y234594D02*
D03*
X413000Y305594D02*
D03*
X435000Y245094D02*
D03*
X424500Y327626D02*
D03*
X442000Y66094D02*
D03*
X449500D02*
D03*
X439500Y67594D02*
D03*
X114500Y240094D02*
D03*
X125000Y209594D02*
D03*
X460000Y344126D02*
D03*
X455500D02*
D03*
X451500D02*
D03*
X447000D02*
D03*
X419500Y338126D02*
D03*
X441000Y83126D02*
D03*
D72*
X386650Y150444D02*
D03*
D73*
X199500Y150594D02*
D03*
Y375594D02*
D03*
M02*
