G04*
G04 #@! TF.GenerationSoftware,Altium Limited,Altium Designer,25.8.1 (18)*
G04*
G04 Layer_Physical_Order=4*
G04 Layer_Color=16711680*
%FSLAX25Y25*%
%MOIN*%
G70*
G04*
G04 #@! TF.SameCoordinates,E1838567-EF02-44A7-8A02-23B903FEE0B8*
G04*
G04*
G04 #@! TF.FilePolarity,Positive*
G04*
G01*
G75*
%ADD11C,0.02000*%
%ADD16C,0.01000*%
%ADD26R,0.04000X0.04700*%
%ADD28R,0.04700X0.04000*%
%ADD34R,0.05787X0.02441*%
%ADD45C,0.06200*%
%ADD53C,0.13000*%
%ADD54C,0.26000*%
%ADD57C,0.03500*%
%ADD60C,0.01500*%
%ADD61C,0.00800*%
%ADD62C,0.02500*%
%ADD64C,0.06496*%
%ADD65C,0.13583*%
%ADD66C,0.09409*%
%ADD67C,0.12480*%
%ADD68C,0.05937*%
%ADD69R,0.05937X0.05937*%
%ADD70C,0.07677*%
%ADD71C,0.02000*%
%ADD72C,0.03500*%
%ADD73C,0.18000*%
%ADD75R,0.04000X0.10600*%
%ADD76R,0.25000X0.28898*%
%ADD77R,0.41000X0.41200*%
G04:AMPARAMS|DCode=78|XSize=31.5mil|YSize=9.84mil|CornerRadius=1.97mil|HoleSize=0mil|Usage=FLASHONLY|Rotation=180.000|XOffset=0mil|YOffset=0mil|HoleType=Round|Shape=RoundedRectangle|*
%AMROUNDEDRECTD78*
21,1,0.03150,0.00591,0,0,180.0*
21,1,0.02756,0.00984,0,0,180.0*
1,1,0.00394,-0.01378,0.00295*
1,1,0.00394,0.01378,0.00295*
1,1,0.00394,0.01378,-0.00295*
1,1,0.00394,-0.01378,-0.00295*
%
%ADD78ROUNDEDRECTD78*%
G04:AMPARAMS|DCode=79|XSize=11.81mil|YSize=21.65mil|CornerRadius=1.95mil|HoleSize=0mil|Usage=FLASHONLY|Rotation=180.000|XOffset=0mil|YOffset=0mil|HoleType=Round|Shape=RoundedRectangle|*
%AMROUNDEDRECTD79*
21,1,0.01181,0.01776,0,0,180.0*
21,1,0.00791,0.02165,0,0,180.0*
1,1,0.00390,-0.00396,0.00888*
1,1,0.00390,0.00396,0.00888*
1,1,0.00390,0.00396,-0.00888*
1,1,0.00390,-0.00396,-0.00888*
%
%ADD79ROUNDEDRECTD79*%
%ADD80R,0.03150X0.00984*%
%ADD81R,0.00984X0.01968*%
%ADD82R,0.02953X0.05906*%
%ADD83R,0.01968X0.01968*%
G04:AMPARAMS|DCode=84|XSize=40mil|YSize=47mil|CornerRadius=0mil|HoleSize=0mil|Usage=FLASHONLY|Rotation=225.000|XOffset=0mil|YOffset=0mil|HoleType=Round|Shape=Rectangle|*
%AMROTATEDRECTD84*
4,1,4,-0.00248,0.03076,0.03076,-0.00248,0.00248,-0.03076,-0.03076,0.00248,-0.00248,0.03076,0.0*
%
%ADD84ROTATEDRECTD84*%

%ADD85C,0.03000*%
%ADD86C,0.05000*%
%ADD87C,0.04000*%
G36*
X501894Y385933D02*
X501844Y386408D01*
X501694Y386833D01*
X501444Y387208D01*
X501094Y387533D01*
X500644Y387808D01*
X500094Y388033D01*
X499444Y388208D01*
X498694Y388333D01*
X497844Y388408D01*
X496894Y388433D01*
Y393433D01*
X497844Y393458D01*
X498694Y393533D01*
X499444Y393658D01*
X500094Y393833D01*
X500644Y394058D01*
X501094Y394333D01*
X501444Y394658D01*
X501694Y395033D01*
X501844Y395458D01*
X501894Y395933D01*
Y385933D01*
D02*
G37*
G36*
X371156Y395458D02*
X371306Y395033D01*
X371556Y394658D01*
X371906Y394333D01*
X372356Y394058D01*
X372906Y393833D01*
X373556Y393658D01*
X374306Y393533D01*
X375156Y393458D01*
X376106Y393433D01*
Y388433D01*
X375156Y388408D01*
X374306Y388333D01*
X373556Y388208D01*
X372906Y388033D01*
X372356Y387808D01*
X371906Y387533D01*
X371556Y387208D01*
X371306Y386833D01*
X371156Y386408D01*
X371106Y385933D01*
Y395933D01*
X371156Y395458D01*
D02*
G37*
G36*
X346130Y379969D02*
X346080Y380444D01*
X345930Y380869D01*
X345680Y381243D01*
X345330Y381569D01*
X344880Y381843D01*
X344330Y382068D01*
X343680Y382243D01*
X342930Y382368D01*
X342080Y382443D01*
X341130Y382469D01*
Y387469D01*
X342080Y387493D01*
X342930Y387568D01*
X343680Y387694D01*
X344330Y387868D01*
X344880Y388093D01*
X345330Y388369D01*
X345680Y388693D01*
X345930Y389069D01*
X346080Y389493D01*
X346130Y389968D01*
Y379969D01*
D02*
G37*
G36*
X295920Y389493D02*
X296070Y389069D01*
X296320Y388693D01*
X296670Y388369D01*
X297120Y388093D01*
X297670Y387868D01*
X298320Y387694D01*
X299070Y387568D01*
X299920Y387493D01*
X300870Y387469D01*
Y382469D01*
X299920Y382443D01*
X299070Y382368D01*
X298320Y382243D01*
X297670Y382068D01*
X297120Y381843D01*
X296670Y381569D01*
X296320Y381243D01*
X296070Y380869D01*
X295920Y380444D01*
X295870Y379969D01*
Y389968D01*
X295920Y389493D01*
D02*
G37*
G36*
X577130Y379276D02*
X577080Y379751D01*
X576930Y380176D01*
X576680Y380551D01*
X576330Y380876D01*
X575880Y381151D01*
X575330Y381376D01*
X574680Y381551D01*
X573930Y381676D01*
X573080Y381751D01*
X572130Y381776D01*
Y386776D01*
X573080Y386801D01*
X573930Y386876D01*
X574680Y387001D01*
X575330Y387176D01*
X575880Y387401D01*
X576330Y387676D01*
X576680Y388001D01*
X576930Y388376D01*
X577080Y388801D01*
X577130Y389276D01*
Y379276D01*
D02*
G37*
G36*
X526920Y388801D02*
X527070Y388376D01*
X527320Y388001D01*
X527670Y387676D01*
X528120Y387401D01*
X528670Y387176D01*
X529320Y387001D01*
X530070Y386876D01*
X530920Y386801D01*
X531870Y386776D01*
Y381776D01*
X530920Y381751D01*
X530070Y381676D01*
X529320Y381551D01*
X528670Y381376D01*
X528120Y381151D01*
X527670Y380876D01*
X527320Y380551D01*
X527070Y380176D01*
X526920Y379751D01*
X526870Y379276D01*
Y389276D01*
X526920Y388801D01*
D02*
G37*
G36*
X665493Y59547D02*
X603379D01*
X602618Y59642D01*
Y89539D01*
X591723D01*
X591675Y89566D01*
X591548Y89579D01*
X591502Y89595D01*
X591461Y89622D01*
X591412Y89676D01*
X591353Y89772D01*
X591292Y89921D01*
X591238Y90122D01*
X591195Y90376D01*
X591169Y90678D01*
X591159Y91042D01*
X591148Y91068D01*
Y155976D01*
X591031Y156562D01*
X590699Y157058D01*
X576081Y171676D01*
X575956Y171760D01*
X575850Y171866D01*
X575710Y171924D01*
X575585Y172007D01*
X575437Y172037D01*
X575298Y172095D01*
X575148D01*
X575000Y172124D01*
X574852Y172095D01*
X574702D01*
X574563Y172037D01*
X574415Y172007D01*
X574290Y171924D01*
X574150Y171866D01*
X574044Y171760D01*
X573919Y171676D01*
X573835Y171551D01*
X573728Y171444D01*
X573671Y171305D01*
X573587Y171180D01*
X573558Y171032D01*
X573500Y170893D01*
Y170742D01*
X573471Y170595D01*
X573500Y170447D01*
Y170296D01*
X573558Y170157D01*
X573587Y170009D01*
X573671Y169884D01*
X573728Y169745D01*
X573835Y169638D01*
X573919Y169513D01*
X588089Y155343D01*
Y91068D01*
X588077Y91042D01*
X588067Y90678D01*
X588041Y90376D01*
X587999Y90122D01*
X587944Y89921D01*
X587884Y89772D01*
X587825Y89676D01*
X587775Y89622D01*
X587734Y89595D01*
X587688Y89579D01*
X587561Y89566D01*
X587513Y89539D01*
X576618D01*
Y79695D01*
X576592Y79647D01*
X576548Y79236D01*
X576442Y78935D01*
X576265Y78669D01*
X576002Y78424D01*
X575635Y78200D01*
X575157Y78004D01*
X574565Y77845D01*
X573862Y77728D01*
X573049Y77656D01*
X572116Y77632D01*
X572082Y77616D01*
X560257D01*
X534640Y103234D01*
X534013Y103715D01*
X533283Y104017D01*
X532500Y104120D01*
X505500D01*
X504717Y104017D01*
X503987Y103715D01*
X503360Y103234D01*
X464497Y64370D01*
X452152D01*
X451820Y65170D01*
X454022Y67372D01*
X454519Y68117D01*
X454694Y68994D01*
Y69304D01*
X455064Y69559D01*
X455406Y69751D01*
X455850Y69776D01*
Y69823D01*
X458184Y69982D01*
X464650D01*
X465528Y70157D01*
X466272Y70654D01*
X473122Y77504D01*
X473619Y78248D01*
X473794Y79126D01*
Y97626D01*
X473619Y98504D01*
X473122Y99248D01*
X460413Y111957D01*
X458412Y113981D01*
X458370Y114028D01*
X458367Y114032D01*
X458366Y114033D01*
X458349Y114050D01*
X458326Y114062D01*
X458310Y114099D01*
X458245Y114126D01*
X456638Y115732D01*
X456630Y115738D01*
X455187Y117181D01*
X455033Y117334D01*
X455004Y117405D01*
X454621Y117746D01*
X454588Y117713D01*
X452825Y119251D01*
X452360Y119717D01*
X451615Y120214D01*
X450738Y120389D01*
X444450D01*
X439044Y125795D01*
Y126857D01*
X439575Y127437D01*
X439844Y127437D01*
X442969D01*
Y129657D01*
Y131878D01*
X439844D01*
X439575Y131878D01*
X439044Y132458D01*
Y134144D01*
X439055Y134244D01*
X439116Y134418D01*
X439218Y134571D01*
X439376Y134718D01*
X439608Y134860D01*
X439922Y134988D01*
X440318Y135094D01*
X440796Y135174D01*
X441354Y135223D01*
X441886Y135237D01*
X443469D01*
X444346Y135412D01*
X444944Y135811D01*
X446862D01*
Y139252D01*
X444944D01*
X444346Y139651D01*
X443469Y139826D01*
X441886D01*
X441354Y139840D01*
X440796Y139889D01*
X440318Y139969D01*
X439922Y140075D01*
X439608Y140203D01*
X439376Y140345D01*
X439218Y140492D01*
X439116Y140645D01*
X439055Y140819D01*
X439026Y141088D01*
X439000Y141136D01*
Y141795D01*
X434000D01*
Y130994D01*
X434000Y130777D01*
X433971Y130707D01*
X434000Y130194D01*
X434253D01*
X434288Y130058D01*
X434454Y127849D01*
X434456Y127596D01*
Y124845D01*
X434631Y123967D01*
X435128Y123222D01*
X441878Y116472D01*
X442622Y115975D01*
X443500Y115800D01*
X449769D01*
X450662Y114877D01*
X451104Y114370D01*
X451165Y114290D01*
X451086Y114211D01*
X451286Y114010D01*
X450084Y112808D01*
X449884Y113009D01*
X446348Y109473D01*
X447238Y108583D01*
X447102Y107638D01*
X430165Y90701D01*
X429944Y90371D01*
X429866Y89980D01*
Y88282D01*
X429845Y88231D01*
X429842Y87883D01*
X429829Y87502D01*
X429815Y87355D01*
X429811Y87332D01*
X429806Y87307D01*
X429815Y87244D01*
X429814Y87237D01*
X429777Y87148D01*
X429790Y87117D01*
X429782Y87077D01*
Y85301D01*
X429836Y85030D01*
X429989Y84800D01*
X430219Y84647D01*
X430490Y84593D01*
X431272D01*
X431282Y84593D01*
X431282Y84593D01*
X431553Y84647D01*
X432155Y84557D01*
X432309Y84457D01*
X432317Y84453D01*
X432317Y84453D01*
X432319Y84453D01*
X432337Y84441D01*
X432345Y84437D01*
X432345Y84437D01*
X432364Y84436D01*
X432396Y84416D01*
X432407Y84412D01*
X432408Y84412D01*
X432409Y84412D01*
X432415Y84408D01*
X432427Y84404D01*
X432427Y84404D01*
X432434Y84404D01*
X432435Y84404D01*
X432447Y84400D01*
X432447Y84400D01*
X432454Y84400D01*
X432455Y84400D01*
X432467Y84396D01*
X432467Y84396D01*
X432536Y84401D01*
X432566Y84388D01*
X432567Y84388D01*
X432568Y84389D01*
X432598Y84376D01*
X432606D01*
X432606Y84376D01*
X432608Y84377D01*
X432618Y84372D01*
X432626D01*
X432626Y84372D01*
X432627Y84373D01*
X432638Y84368D01*
X432994D01*
X433068Y84328D01*
X433620Y83728D01*
Y83138D01*
X433674Y82866D01*
X433828Y82635D01*
Y82262D01*
X433674Y82032D01*
X433620Y81760D01*
Y81169D01*
X433433Y80941D01*
X432740D01*
Y79992D01*
X437087D01*
X437098Y79988D01*
X437118D01*
X437126Y79984D01*
X437138D01*
X437146Y79980D01*
X437157Y79976D01*
X437165Y79972D01*
X437177Y79969D01*
X437185Y79965D01*
X437193Y79957D01*
X437201Y79953D01*
X437205Y79949D01*
X437890D01*
Y80445D01*
X439239D01*
X441279Y78405D01*
X441610Y78184D01*
X442000Y78106D01*
X442100D01*
X442148Y78085D01*
X442321Y78080D01*
X442454Y78069D01*
X442557Y78052D01*
X442628Y78032D01*
X442648Y78024D01*
X442650Y78021D01*
Y76476D01*
X442934D01*
Y75276D01*
X442150D01*
Y72776D01*
X445500D01*
Y71776D01*
X442150D01*
Y69310D01*
X441560Y68769D01*
X438109Y72219D01*
X438022Y72376D01*
Y76957D01*
X438016Y76971D01*
X438018Y76976D01*
X438018Y76976D01*
Y77000D01*
X438005Y77031D01*
X438011Y77063D01*
X438007Y77082D01*
X438003Y77088D01*
X438007Y77106D01*
X438007Y77106D01*
X437999Y77146D01*
X437970Y77189D01*
X437971Y77240D01*
X437971D01*
X437890Y77957D01*
X437890Y78417D01*
Y78949D01*
X437205D01*
X437201Y78945D01*
X437193Y78941D01*
X437185Y78933D01*
X437177Y78929D01*
X437165Y78925D01*
X437157Y78921D01*
X437146Y78917D01*
X437138Y78913D01*
X437126D01*
X437118Y78909D01*
X432740D01*
Y77957D01*
X431975Y77872D01*
X431949D01*
X431934Y77866D01*
X431929Y77868D01*
X431929Y77868D01*
X431906D01*
X431875Y77855D01*
X431843Y77861D01*
X431823Y77858D01*
X431818Y77854D01*
X431799Y77858D01*
X431799Y77857D01*
X431760Y77850D01*
X431717Y77821D01*
X431665Y77821D01*
X431665Y77821D01*
X431626Y77806D01*
X431626Y77806D01*
X431626Y77806D01*
X431626Y77806D01*
X431606Y77798D01*
X431598Y77790D01*
X431590Y77790D01*
X431590Y77790D01*
X431571Y77782D01*
X431568Y77780D01*
X431565Y77779D01*
X431549Y77772D01*
X431521Y77738D01*
X431477Y77732D01*
X431477Y77732D01*
X431458Y77720D01*
X431454Y77714D01*
X431447Y77712D01*
X431431Y77701D01*
X431426Y77693D01*
X431412Y77689D01*
X431396Y77677D01*
X431388Y77663D01*
X431380Y77661D01*
X431380Y77661D01*
X431364Y77649D01*
X431355Y77634D01*
X431338Y77627D01*
X431338Y77627D01*
X431322Y77611D01*
X431322Y77611D01*
X431314Y77592D01*
X431295Y77584D01*
X431295Y77583D01*
X431279Y77568D01*
X431279Y77568D01*
X431272Y77551D01*
X431256Y77541D01*
X431244Y77526D01*
X431244Y77526D01*
X431242Y77518D01*
X431228Y77510D01*
X431217Y77494D01*
X431213Y77479D01*
X431205Y77474D01*
X431193Y77459D01*
X431191Y77452D01*
X431185Y77448D01*
X431174Y77428D01*
X431174Y77428D01*
X431167Y77385D01*
X431134Y77356D01*
X431126Y77340D01*
X431126Y77337D01*
X431123Y77335D01*
X431116Y77315D01*
X431116Y77315D01*
X431116Y77308D01*
X431108Y77300D01*
X431100Y77280D01*
X431100Y77280D01*
X431100Y77280D01*
X431100Y77280D01*
X431092Y77260D01*
X431084Y77241D01*
X431084Y77241D01*
X431085Y77188D01*
X431056Y77145D01*
X431048Y77106D01*
X431048Y77106D01*
X431052Y77088D01*
X431048Y77083D01*
X431044Y77063D01*
X431050Y77031D01*
X431038Y77000D01*
Y76976D01*
X431038Y76976D01*
X431040Y76971D01*
X431034Y76957D01*
Y69732D01*
X431040Y69718D01*
X431038Y69713D01*
X431038Y69713D01*
Y69689D01*
X431050Y69658D01*
X431044Y69626D01*
X431048Y69606D01*
X431052Y69601D01*
X431048Y69583D01*
X431048Y69583D01*
X431052Y69563D01*
X431056Y69544D01*
X431085Y69500D01*
X431084Y69448D01*
X431084Y69448D01*
X431100Y69409D01*
X431100Y69409D01*
X431100Y69409D01*
X431100Y69409D01*
X431108Y69389D01*
X431116Y69381D01*
X431115Y69374D01*
X431116Y69374D01*
X431123Y69354D01*
X431126Y69352D01*
X431126Y69349D01*
X431134Y69333D01*
X431167Y69304D01*
X431174Y69261D01*
X431174Y69261D01*
X431185Y69241D01*
X431191Y69237D01*
X431193Y69230D01*
X431205Y69214D01*
X431213Y69210D01*
X431217Y69195D01*
X431228Y69179D01*
X431242Y69171D01*
X431244Y69163D01*
X431244Y69163D01*
X431256Y69148D01*
X431272Y69138D01*
X431279Y69121D01*
X431279Y69121D01*
X431294Y69105D01*
X431294Y69105D01*
X431314Y69097D01*
X431322Y69078D01*
X431322Y69078D01*
X431338Y69062D01*
X431338Y69062D01*
X431355Y69055D01*
X431364Y69039D01*
X431380Y69028D01*
X431380Y69028D01*
X431388Y69026D01*
X431396Y69012D01*
X431412Y69000D01*
X431426Y68996D01*
X431431Y68989D01*
X431447Y68977D01*
X431453Y68975D01*
X431458Y68969D01*
X431477Y68957D01*
X431477Y68957D01*
X431521Y68951D01*
X431549Y68917D01*
X431565Y68910D01*
X431568Y68909D01*
X431571Y68907D01*
X431590Y68899D01*
X431591Y68899D01*
X431598Y68899D01*
X431606Y68891D01*
X431626Y68883D01*
X431626Y68883D01*
X431626Y68883D01*
X431626Y68883D01*
X431645Y68875D01*
X431665Y68868D01*
X431665Y68868D01*
X431717Y68868D01*
X431760Y68839D01*
X431799Y68831D01*
X431799Y68831D01*
X431818Y68835D01*
X431823Y68831D01*
X431843Y68828D01*
X431874Y68834D01*
X431906Y68821D01*
X431929D01*
X431929Y68821D01*
X431934Y68823D01*
X431949Y68817D01*
X434836D01*
X434915Y68761D01*
X435830Y67996D01*
X436199Y67642D01*
X438670Y65170D01*
X438339Y64370D01*
X400503D01*
X392640Y72234D01*
X392013Y72715D01*
X391283Y73017D01*
X390500Y73120D01*
X376154D01*
X376120Y73136D01*
X375187Y73160D01*
X374375Y73232D01*
X373671Y73349D01*
X373080Y73508D01*
X372601Y73704D01*
X372235Y73928D01*
X371971Y74173D01*
X371794Y74438D01*
X371688Y74739D01*
X371644Y75151D01*
X371618Y75199D01*
Y77458D01*
X371644Y77506D01*
X371688Y77918D01*
X371794Y78219D01*
X371971Y78485D01*
X372235Y78729D01*
X372601Y78954D01*
X373080Y79149D01*
X373671Y79308D01*
X374375Y79426D01*
X375187Y79497D01*
X376120Y79522D01*
X376154Y79537D01*
X418000D01*
X418783Y79640D01*
X419513Y79943D01*
X419790Y80155D01*
X425866D01*
X426267Y80234D01*
X427264D01*
X427278Y80240D01*
X427283Y80238D01*
X427283Y80238D01*
X427307D01*
X427338Y80251D01*
X427370Y80245D01*
X427389Y80249D01*
X427395Y80252D01*
X427413Y80249D01*
X427413Y80249D01*
X427453Y80257D01*
X427496Y80286D01*
X427547Y80285D01*
X427548Y80285D01*
X427567Y80293D01*
X427567Y80293D01*
X427567Y80293D01*
X427567Y80293D01*
X427606Y80309D01*
X427615Y80317D01*
X427623Y80316D01*
X427623Y80317D01*
X427642Y80324D01*
X427644Y80327D01*
X427647Y80327D01*
X427663Y80335D01*
X427692Y80368D01*
X427735Y80374D01*
X427735Y80374D01*
X427755Y80386D01*
X427759Y80392D01*
X427766Y80394D01*
X427781Y80406D01*
X427786Y80414D01*
X427801Y80417D01*
X427817Y80429D01*
X427825Y80443D01*
X427833Y80445D01*
X427833Y80445D01*
X427848Y80457D01*
X427858Y80472D01*
X427875Y80480D01*
X427875Y80480D01*
X427891Y80495D01*
X427891Y80495D01*
X427899Y80515D01*
X427918Y80523D01*
X427918Y80523D01*
X427934Y80538D01*
X427934Y80539D01*
X427941Y80556D01*
X427957Y80565D01*
X427968Y80581D01*
X427968Y80581D01*
X427970Y80588D01*
X427984Y80597D01*
X427996Y80612D01*
X428000Y80627D01*
X428008Y80632D01*
X428020Y80648D01*
X428021Y80654D01*
X428027Y80659D01*
X428039Y80678D01*
X428039Y80678D01*
X428045Y80721D01*
X428079Y80750D01*
X428087Y80766D01*
X428087Y80766D01*
X428087Y80769D01*
X428089Y80771D01*
X428097Y80791D01*
X428097Y80791D01*
X428097Y80799D01*
X428105Y80807D01*
X428113Y80826D01*
X428113Y80826D01*
X428113Y80827D01*
X428113Y80827D01*
X428121Y80846D01*
X428121Y80846D01*
X428128Y80866D01*
X428128Y80866D01*
X428128Y80918D01*
X428157Y80961D01*
X428164Y81000D01*
X428165Y81000D01*
X428161Y81018D01*
X428164Y81024D01*
X428168Y81043D01*
X428162Y81075D01*
X428175Y81106D01*
Y81130D01*
X428175Y81130D01*
X428173Y81135D01*
X428179Y81150D01*
Y83748D01*
X428173Y83763D01*
X428175Y83768D01*
X428175Y83768D01*
Y83791D01*
X428162Y83822D01*
X428168Y83854D01*
X428164Y83874D01*
X428161Y83881D01*
X428164Y83898D01*
X428161Y83917D01*
X428161Y83917D01*
Y83917D01*
X428157Y83937D01*
X428128Y84011D01*
X428128Y84032D01*
X428121Y84051D01*
X428038Y84586D01*
X428049Y84895D01*
X428049Y84896D01*
X428049Y84900D01*
X428049Y84904D01*
X428053Y84915D01*
X428049Y84964D01*
X428061Y85015D01*
X428061Y85015D01*
X428060Y85017D01*
X428073Y85047D01*
Y85055D01*
X428073Y85055D01*
X428072Y85056D01*
X428077Y85067D01*
Y85075D01*
X428077Y85075D01*
X428076Y85076D01*
X428081Y85087D01*
Y87094D01*
X428076Y87105D01*
X428077Y87106D01*
X428077Y87106D01*
Y87114D01*
X428072Y87125D01*
X428073Y87126D01*
X428073Y87126D01*
Y87134D01*
X428060Y87164D01*
X428061Y87166D01*
X428060Y87167D01*
X428048Y87197D01*
X428053Y87266D01*
X428049Y87278D01*
X428048Y87278D01*
X428049Y87285D01*
X428045Y87297D01*
X428044Y87298D01*
X428045Y87305D01*
X428041Y87317D01*
X428037Y87322D01*
X428037Y87324D01*
X428033Y87336D01*
X428014Y87359D01*
X428012Y87388D01*
X428008Y87396D01*
X427997Y87405D01*
X427996Y87415D01*
X427992Y87423D01*
X427984Y87430D01*
X427984Y87431D01*
X427980Y87439D01*
X427929Y87483D01*
X427902Y87548D01*
X427894Y87556D01*
X427894Y87556D01*
X427894Y87556D01*
X427891Y87564D01*
X427883Y87572D01*
X427883Y87572D01*
X427882Y87572D01*
X427879Y87580D01*
X427871Y87587D01*
X427871Y87587D01*
X427871Y87587D01*
X427871Y87588D01*
X427870Y87588D01*
Y89236D01*
X427892Y89288D01*
X427890Y89291D01*
X427892Y89295D01*
X427879Y90295D01*
X427870Y90316D01*
Y92626D01*
X427850Y92726D01*
Y95476D01*
X422850D01*
Y95192D01*
X421650D01*
Y95976D01*
X419150D01*
Y92626D01*
Y89276D01*
X421650D01*
Y90060D01*
X422850D01*
Y89776D01*
X425745D01*
X425748Y89774D01*
X425757Y89754D01*
X425776Y89683D01*
X425793Y89580D01*
X425805Y89447D01*
X425809Y89274D01*
X425831Y89226D01*
Y87588D01*
X425830Y87587D01*
X425830Y87587D01*
X425822Y87580D01*
X425819Y87572D01*
X425818Y87572D01*
X425818Y87572D01*
X425810Y87564D01*
X425807Y87556D01*
X425807Y87556D01*
X425807Y87556D01*
X425799Y87548D01*
X425772Y87483D01*
X425720Y87438D01*
X425716Y87431D01*
X425716Y87429D01*
X425709Y87423D01*
X425705Y87415D01*
X425704Y87405D01*
X425693Y87396D01*
X425689Y87388D01*
X425687Y87359D01*
X425668Y87336D01*
X425664Y87324D01*
X425664Y87322D01*
X425660Y87317D01*
X425656Y87305D01*
X425656Y87298D01*
X425656Y87297D01*
X425652Y87285D01*
X425653Y87278D01*
X425652Y87277D01*
X425648Y87265D01*
X425651Y87222D01*
X425649Y87187D01*
X425641Y87168D01*
X425640Y87166D01*
X425640Y87166D01*
X425594Y87060D01*
X425547Y86967D01*
X425250Y86435D01*
X422894D01*
X422883Y86431D01*
X422882Y86431D01*
X422882Y86431D01*
X422874D01*
X422863Y86427D01*
X422862Y86427D01*
X422862Y86427D01*
X422854D01*
X422824Y86415D01*
X422823Y86415D01*
X422820Y86414D01*
X422791Y86402D01*
X422722Y86407D01*
X422722Y86407D01*
X422711Y86403D01*
X422710Y86403D01*
X422703Y86403D01*
X422703Y86403D01*
X422691Y86399D01*
X422691Y86399D01*
X422683Y86399D01*
X422683Y86399D01*
X422672Y86395D01*
X422667Y86391D01*
X422663Y86391D01*
X422663Y86391D01*
X422652Y86387D01*
X422629Y86368D01*
X422600Y86366D01*
X422600Y86366D01*
X422592Y86362D01*
X422583Y86351D01*
X422573Y86350D01*
X422573Y86350D01*
X422565Y86346D01*
X422558Y86338D01*
X422557Y86338D01*
X422557Y86338D01*
X422549Y86334D01*
X422505Y86284D01*
X422440Y86257D01*
X422440Y86257D01*
X422432Y86249D01*
X422432Y86249D01*
X422432Y86248D01*
X422425Y86245D01*
X422425Y86245D01*
X422417Y86237D01*
X422417Y86237D01*
X422416Y86236D01*
X422409Y86233D01*
X422409Y86233D01*
X422401Y86225D01*
X422401Y86225D01*
X422401Y86225D01*
X422401Y86225D01*
X422401Y86225D01*
X422393Y86217D01*
X422393Y86217D01*
X422393Y86217D01*
X422385Y86209D01*
X422385Y86209D01*
X422385Y86209D01*
X422377Y86202D01*
X422377Y86202D01*
X422374Y86194D01*
X422373Y86194D01*
X422373Y86194D01*
X422366Y86186D01*
X422366Y86186D01*
X422362Y86178D01*
X422361Y86178D01*
X422361Y86178D01*
X422354Y86170D01*
X422354Y86170D01*
X422327Y86105D01*
X422276Y86061D01*
X422272Y86053D01*
X422272Y86053D01*
X422272Y86052D01*
X422264Y86045D01*
X422260Y86037D01*
X422260Y86037D01*
X422259Y86027D01*
X422248Y86017D01*
X422244Y86009D01*
X422244Y86009D01*
X422242Y85981D01*
X422223Y85959D01*
X422219Y85947D01*
X422219Y85947D01*
X422219Y85944D01*
X422215Y85939D01*
X422211Y85927D01*
X422211Y85927D01*
X422212Y85920D01*
X422211Y85919D01*
X422207Y85908D01*
X422207Y85908D01*
X422208Y85900D01*
X422207Y85899D01*
X422203Y85887D01*
X422203Y85887D01*
X422208Y85819D01*
X422196Y85790D01*
X422195Y85787D01*
X422196Y85786D01*
X422183Y85756D01*
Y85748D01*
X422183Y85748D01*
X422184Y85747D01*
X422179Y85736D01*
Y85728D01*
X422179Y85728D01*
X422180Y85727D01*
X422175Y85716D01*
Y85087D01*
X421642Y84828D01*
X421546Y84785D01*
X421444Y84743D01*
X420087D01*
X419513Y85184D01*
X418783Y85486D01*
X418000Y85589D01*
X376154D01*
X376120Y85604D01*
X375187Y85629D01*
X374375Y85700D01*
X373671Y85817D01*
X373080Y85977D01*
X372601Y86172D01*
X372235Y86396D01*
X371971Y86641D01*
X371794Y86907D01*
X371688Y87208D01*
X371644Y87620D01*
X371618Y87668D01*
Y90232D01*
X345618D01*
Y60335D01*
X345618D01*
X345588Y59547D01*
X297563D01*
X296882Y59835D01*
X296882Y60347D01*
Y74783D01*
X283382D01*
X269882D01*
Y60347D01*
X269882Y59835D01*
X269201Y59547D01*
X179007D01*
Y60594D01*
X179003Y60614D01*
X179007Y60634D01*
X178961Y62970D01*
X178948Y63028D01*
X178955Y63088D01*
X178588Y67745D01*
X178567Y67822D01*
X178570Y67902D01*
X177839Y72516D01*
X177811Y72591D01*
X177808Y72671D01*
X176718Y77214D01*
X176684Y77286D01*
X176675Y77365D01*
X175231Y81809D01*
X175192Y81878D01*
X175177Y81956D01*
X173389Y86273D01*
X173344Y86339D01*
X173323Y86416D01*
X171202Y90579D01*
X171152Y90641D01*
X171125Y90716D01*
X168684Y94700D01*
X168630Y94758D01*
X168596Y94831D01*
X165850Y98610D01*
X165791Y98664D01*
X165752Y98734D01*
X162718Y102287D01*
X162656Y102336D01*
X162611Y102402D01*
X159308Y105706D01*
X159241Y105750D01*
X159192Y105813D01*
X155640Y108847D01*
X155570Y108886D01*
X155516Y108944D01*
X151736Y111691D01*
X151664Y111724D01*
X151605Y111778D01*
X147622Y114219D01*
X147547Y114247D01*
X147484Y114296D01*
X143321Y116417D01*
X143245Y116439D01*
X143178Y116483D01*
X138862Y118271D01*
X138784Y118287D01*
X138714Y118326D01*
X134271Y119769D01*
X134192Y119779D01*
X134119Y119812D01*
X129576Y120903D01*
X129497Y120906D01*
X129422Y120933D01*
X124807Y121664D01*
X124728Y121661D01*
X124651Y121683D01*
X119993Y122049D01*
X119934Y122042D01*
X119875Y122055D01*
X117539Y122101D01*
X117520Y122098D01*
X117500Y122101D01*
X106000D01*
X105804D01*
X105419Y122178D01*
X105056Y122328D01*
X104729Y122546D01*
X104452Y122824D01*
X104234Y123151D01*
X104084Y123513D01*
X104007Y123898D01*
Y124094D01*
X104007Y332594D01*
Y332791D01*
X104084Y333176D01*
X104234Y333539D01*
X104452Y333865D01*
X104729Y334142D01*
X105056Y334361D01*
X105419Y334511D01*
X105804Y334588D01*
X117000D01*
X117020Y334591D01*
X117039Y334588D01*
X119395Y334634D01*
X119454Y334647D01*
X119513Y334640D01*
X124210Y335010D01*
X124286Y335031D01*
X124366Y335028D01*
X129019Y335765D01*
X129094Y335793D01*
X129174Y335796D01*
X133755Y336896D01*
X133827Y336929D01*
X133907Y336938D01*
X138387Y338394D01*
X138457Y338433D01*
X138535Y338449D01*
X142888Y340252D01*
X142954Y340296D01*
X143031Y340318D01*
X147228Y342456D01*
X147291Y342506D01*
X147366Y342533D01*
X151383Y344995D01*
X151442Y345049D01*
X151514Y345083D01*
X155325Y347852D01*
X155379Y347910D01*
X155449Y347949D01*
X159031Y351009D01*
X159081Y351072D01*
X159147Y351116D01*
X162478Y354447D01*
X162523Y354514D01*
X162585Y354563D01*
X165645Y358145D01*
X165684Y358215D01*
X165743Y358269D01*
X168512Y362081D01*
X168545Y362153D01*
X168599Y362212D01*
X171061Y366229D01*
X171089Y366303D01*
X171138Y366366D01*
X173277Y370564D01*
X173299Y370640D01*
X173343Y370707D01*
X175146Y375059D01*
X175161Y375138D01*
X175200Y375207D01*
X176656Y379688D01*
X176665Y379767D01*
X176699Y379839D01*
X177799Y384420D01*
X177802Y384500D01*
X177829Y384575D01*
X178566Y389228D01*
X178563Y389308D01*
X178585Y389385D01*
X178955Y394081D01*
X178947Y394141D01*
X178960Y394199D01*
X179007Y396555D01*
X179003Y396575D01*
X179007Y396595D01*
Y400591D01*
X270076D01*
X270382Y399917D01*
X270382Y399791D01*
Y370020D01*
X296382D01*
Y379864D01*
X296408Y379912D01*
X296451Y380324D01*
X296558Y380625D01*
X296735Y380890D01*
X296998Y381135D01*
X297365Y381359D01*
X297843Y381555D01*
X298435Y381714D01*
X299138Y381831D01*
X299951Y381903D01*
X300884Y381927D01*
X300918Y381943D01*
X341082D01*
X341116Y381927D01*
X342049Y381903D01*
X342862Y381831D01*
X343565Y381714D01*
X344157Y381555D01*
X344635Y381359D01*
X345002Y381135D01*
X345265Y380890D01*
X345442Y380625D01*
X345549Y380324D01*
X345592Y379912D01*
X345618Y379864D01*
Y370020D01*
X371618D01*
Y385828D01*
X371644Y385876D01*
X371688Y386288D01*
X371794Y386589D01*
X371971Y386855D01*
X372235Y387100D01*
X372601Y387324D01*
X373080Y387519D01*
X373671Y387679D01*
X374375Y387796D01*
X375187Y387867D01*
X376120Y387892D01*
X376154Y387907D01*
X427546D01*
X427877Y387107D01*
X427528Y386758D01*
X426957Y385769D01*
X426661Y384666D01*
Y383523D01*
X426957Y382420D01*
X427528Y381431D01*
X428336Y380623D01*
X429325Y380052D01*
X430429Y379756D01*
X431571D01*
X432675Y380052D01*
X433664Y380623D01*
X434472Y381431D01*
X435043Y382420D01*
X435339Y383523D01*
Y384666D01*
X435043Y385769D01*
X434472Y386758D01*
X434123Y387107D01*
X434454Y387907D01*
X437546D01*
X437877Y387107D01*
X437528Y386758D01*
X436957Y385769D01*
X436661Y384666D01*
Y383523D01*
X436957Y382420D01*
X437528Y381431D01*
X438336Y380623D01*
X439325Y380052D01*
X440429Y379756D01*
X441571D01*
X442675Y380052D01*
X443664Y380623D01*
X444472Y381431D01*
X445043Y382420D01*
X445339Y383523D01*
Y384666D01*
X445043Y385769D01*
X444472Y386758D01*
X444123Y387107D01*
X444454Y387907D01*
X496846D01*
X496880Y387892D01*
X497813Y387867D01*
X498626Y387796D01*
X499329Y387679D01*
X499920Y387519D01*
X500399Y387324D01*
X500765Y387100D01*
X501029Y386855D01*
X501206Y386589D01*
X501312Y386288D01*
X501356Y385876D01*
X501382Y385828D01*
Y369327D01*
X527382D01*
Y379171D01*
X527408Y379219D01*
X527452Y379630D01*
X527558Y379932D01*
X527735Y380197D01*
X527998Y380442D01*
X528365Y380666D01*
X528843Y380862D01*
X529435Y381021D01*
X530138Y381138D01*
X530951Y381210D01*
X531884Y381235D01*
X531918Y381250D01*
X572082D01*
X572116Y381235D01*
X573049Y381210D01*
X573862Y381138D01*
X574565Y381021D01*
X575157Y380862D01*
X575635Y380666D01*
X576002Y380442D01*
X576265Y380197D01*
X576442Y379932D01*
X576548Y379630D01*
X576592Y379219D01*
X576618Y379171D01*
Y369327D01*
X602618D01*
Y399224D01*
X576618D01*
Y389381D01*
X576592Y389332D01*
X576548Y388921D01*
X576442Y388619D01*
X576265Y388354D01*
X576002Y388109D01*
X575635Y387885D01*
X575157Y387689D01*
X574565Y387530D01*
X573862Y387413D01*
X573049Y387341D01*
X572116Y387317D01*
X572082Y387301D01*
X531918D01*
X531884Y387317D01*
X530951Y387341D01*
X530138Y387413D01*
X529435Y387530D01*
X528843Y387689D01*
X528365Y387885D01*
X527998Y388109D01*
X527735Y388354D01*
X527558Y388619D01*
X527452Y388921D01*
X527408Y389332D01*
X527382Y389381D01*
Y399224D01*
X501382D01*
Y396038D01*
X501356Y395990D01*
X501312Y395578D01*
X501206Y395277D01*
X501029Y395011D01*
X500765Y394767D01*
X500399Y394543D01*
X499920Y394347D01*
X499329Y394188D01*
X498626Y394070D01*
X497813Y393999D01*
X496880Y393974D01*
X496846Y393959D01*
X376154D01*
X376120Y393974D01*
X375187Y393999D01*
X374375Y394070D01*
X373671Y394188D01*
X373080Y394347D01*
X372601Y394543D01*
X372235Y394767D01*
X371971Y395011D01*
X371794Y395277D01*
X371688Y395578D01*
X371644Y395990D01*
X371618Y396038D01*
Y399791D01*
X371618Y399917D01*
X371924Y400591D01*
X665493D01*
X665493Y59547D01*
D02*
G37*
G36*
X438523Y140699D02*
X438628Y140401D01*
X438803Y140139D01*
X439048Y139911D01*
X439363Y139719D01*
X439748Y139561D01*
X440203Y139439D01*
X440728Y139351D01*
X441323Y139299D01*
X441988Y139281D01*
Y135782D01*
X441323Y135764D01*
X440728Y135712D01*
X440203Y135624D01*
X439748Y135502D01*
X439363Y135344D01*
X439048Y135152D01*
X438803Y134924D01*
X438628Y134661D01*
X438523Y134364D01*
X438488Y134031D01*
Y141032D01*
X438523Y140699D01*
D02*
G37*
G36*
X438500Y127207D02*
X435000D01*
X434995Y127872D01*
X434824Y130147D01*
X434761Y130392D01*
X434688Y130567D01*
X434605Y130672D01*
X434512Y130707D01*
X438488D01*
X438500Y127207D01*
D02*
G37*
G36*
X452450Y118860D02*
X454565Y117015D01*
X454621Y117022D01*
X451810Y114211D01*
X451817Y114268D01*
X451771Y114370D01*
X451673Y114519D01*
X451522Y114715D01*
X451060Y115243D01*
X449503Y116854D01*
X451978Y119329D01*
X452450Y118860D01*
D02*
G37*
G36*
X457948Y113687D02*
X458019Y113609D01*
X460381Y111220D01*
X457906Y108745D01*
X457433Y109212D01*
X455714Y110710D01*
X455500Y110842D01*
X455329Y110919D01*
X455201Y110940D01*
X455116Y110904D01*
X457928Y113716D01*
X457948Y113687D01*
D02*
G37*
G36*
X449433Y107113D02*
X449358Y107173D01*
X449277Y107212D01*
X449189Y107229D01*
X449093Y107226D01*
X448991Y107201D01*
X448881Y107155D01*
X448764Y107088D01*
X448641Y107000D01*
X448510Y106890D01*
X448372Y106759D01*
X447665Y107466D01*
X447796Y107604D01*
X447905Y107735D01*
X447994Y107859D01*
X448061Y107975D01*
X448107Y108085D01*
X448132Y108188D01*
X448135Y108283D01*
X448117Y108371D01*
X448078Y108453D01*
X448018Y108527D01*
X449433Y107113D01*
D02*
G37*
G36*
X455116Y110180D02*
X455279Y110343D01*
X455392Y110273D01*
X457065Y108815D01*
X457219Y108663D01*
X469206Y96676D01*
Y90066D01*
X468700Y89476D01*
X466200D01*
Y86126D01*
Y82776D01*
X468700D01*
X469206Y82186D01*
Y80076D01*
X463700Y74570D01*
X458673D01*
X456621Y74605D01*
X455950Y74651D01*
X455850Y74663D01*
Y74776D01*
X455567D01*
Y76476D01*
X455850D01*
Y81476D01*
X450150D01*
Y80081D01*
X450148Y80078D01*
X450129Y80070D01*
X450057Y80050D01*
X449954Y80033D01*
X449821Y80022D01*
X449648Y80017D01*
X449600Y79996D01*
X448900D01*
X448852Y80017D01*
X448679Y80022D01*
X448546Y80033D01*
X448443Y80050D01*
X448372Y80070D01*
X448352Y80078D01*
X448350Y80081D01*
Y81476D01*
X442650D01*
Y81476D01*
X442212Y81489D01*
X442201Y82205D01*
X442272Y82276D01*
X442500Y82828D01*
X442650Y83276D01*
X443239Y83276D01*
X447650D01*
Y83560D01*
X449350D01*
Y83276D01*
X454350D01*
Y85021D01*
X454352Y85024D01*
X454372Y85032D01*
X454443Y85052D01*
X454546Y85069D01*
X454679Y85080D01*
X454852Y85085D01*
X454900Y85106D01*
X455950D01*
X455998Y85085D01*
X456171Y85080D01*
X456304Y85069D01*
X456407Y85052D01*
X456479Y85032D01*
X456498Y85024D01*
X456500Y85021D01*
Y83276D01*
X461500D01*
Y83560D01*
X462700D01*
Y82776D01*
X465200D01*
Y86126D01*
Y89476D01*
X462700D01*
Y88692D01*
X461500D01*
Y88976D01*
X456500D01*
Y87231D01*
X456498Y87228D01*
X456479Y87220D01*
X456407Y87200D01*
X456304Y87183D01*
X456171Y87172D01*
X455998Y87167D01*
X455950Y87146D01*
X454900D01*
X454852Y87167D01*
X454679Y87172D01*
X454546Y87183D01*
X454443Y87200D01*
X454372Y87220D01*
X454352Y87228D01*
X454350Y87231D01*
Y88976D01*
X449350D01*
Y88692D01*
X447650D01*
Y88976D01*
X442650D01*
Y86506D01*
X442648Y86503D01*
X442628Y86495D01*
X442557Y86476D01*
X442454Y86459D01*
X442321Y86447D01*
X442148Y86443D01*
X442100Y86421D01*
X437284D01*
X437202Y86405D01*
X437177Y86415D01*
X437176Y86415D01*
X437146Y86427D01*
X437138D01*
X437137Y86427D01*
X437126Y86431D01*
X437118D01*
X437117Y86431D01*
X437106Y86435D01*
X434750D01*
X434453Y86967D01*
X434406Y87060D01*
X434360Y87166D01*
X434360Y87166D01*
X434360Y87166D01*
X434351Y87187D01*
X434349Y87222D01*
X434352Y87265D01*
X434352Y87265D01*
X434348Y87277D01*
X434347Y87278D01*
X434348Y87286D01*
X434348Y87286D01*
X434344Y87297D01*
X434344Y87298D01*
X434344Y87305D01*
X434344Y87305D01*
X434340Y87317D01*
X434336Y87322D01*
X434336Y87324D01*
X434336Y87325D01*
X434332Y87336D01*
X434313Y87359D01*
X434311Y87388D01*
X434311Y87388D01*
X434307Y87396D01*
X434296Y87405D01*
X434295Y87415D01*
X434295Y87415D01*
X434291Y87423D01*
X434284Y87429D01*
X434283Y87431D01*
X434283Y87431D01*
X434280Y87438D01*
X434229Y87483D01*
X434201Y87548D01*
X434201Y87548D01*
X434194Y87556D01*
X434194Y87556D01*
X434193Y87557D01*
X434190Y87564D01*
X434190Y87564D01*
X434182Y87572D01*
X434182Y87572D01*
X434181Y87572D01*
X434178Y87580D01*
X434178Y87580D01*
X434170Y87587D01*
X434170Y87587D01*
X434170Y87587D01*
X434162Y87595D01*
X434162Y87595D01*
X434146Y87611D01*
X434139Y87614D01*
X434138Y87615D01*
X434138Y87615D01*
X434130Y87623D01*
X434130Y87623D01*
X434123Y87626D01*
X434123Y87627D01*
X434123Y87627D01*
X434115Y87635D01*
X434115Y87635D01*
X434050Y87662D01*
X434006Y87712D01*
X433998Y87716D01*
X433998Y87716D01*
X433997Y87716D01*
X433990Y87724D01*
X433983Y87728D01*
X433982Y87728D01*
X433972Y87729D01*
X433963Y87740D01*
X433955Y87744D01*
X433955Y87744D01*
X433926Y87746D01*
X433904Y87765D01*
X433892Y87769D01*
X433892Y87769D01*
X433889Y87769D01*
X433884Y87773D01*
X433872Y87777D01*
X433872Y87777D01*
X433864Y87777D01*
X433864Y87777D01*
X433852Y87781D01*
X433852Y87781D01*
X433845Y87781D01*
X433845Y87781D01*
X433833Y87785D01*
X433833Y87785D01*
X433764Y87780D01*
X433735Y87792D01*
X433732Y87793D01*
X433731Y87793D01*
X433701Y87805D01*
X433693D01*
X433693Y87805D01*
X433692Y87805D01*
X433681Y87809D01*
X433673D01*
X433673Y87809D01*
X433672Y87808D01*
X433661Y87813D01*
X432638D01*
X432557Y87841D01*
X432367Y87940D01*
X432206Y88034D01*
X432064Y88193D01*
X431926Y88357D01*
X431905Y88393D01*
Y89558D01*
X448544Y106196D01*
X449489Y106332D01*
X450379Y105443D01*
X453914Y108978D01*
X453714Y109179D01*
X454916Y110381D01*
X455116Y110180D01*
D02*
G37*
G36*
X427350Y89288D02*
X426350D01*
X426345Y89478D01*
X426330Y89648D01*
X426305Y89798D01*
X426270Y89928D01*
X426225Y90038D01*
X426170Y90128D01*
X426105Y90198D01*
X426030Y90248D01*
X425945Y90278D01*
X425850Y90288D01*
X427338D01*
X427350Y89288D01*
D02*
G37*
G36*
X590628Y90647D02*
X590658Y90307D01*
X590708Y90007D01*
X590778Y89747D01*
X590868Y89527D01*
X590978Y89347D01*
X591108Y89207D01*
X591258Y89107D01*
X591428Y89047D01*
X591618Y89027D01*
X587618D01*
X587808Y89047D01*
X587978Y89107D01*
X588128Y89207D01*
X588258Y89347D01*
X588368Y89527D01*
X588458Y89747D01*
X588528Y90007D01*
X588578Y90307D01*
X588608Y90647D01*
X588618Y91027D01*
X590618D01*
X590628Y90647D01*
D02*
G37*
G36*
X431387Y88040D02*
X431441Y87177D01*
X431454Y87148D01*
X430318D01*
X430331Y87177D01*
X430342Y87224D01*
X430352Y87288D01*
X430369Y87469D01*
X430383Y87871D01*
X430386Y88227D01*
X431386D01*
X431387Y88040D01*
D02*
G37*
G36*
X457012Y85126D02*
X457002Y85221D01*
X456972Y85306D01*
X456922Y85381D01*
X456852Y85446D01*
X456762Y85501D01*
X456652Y85546D01*
X456522Y85581D01*
X456372Y85606D01*
X456202Y85621D01*
X456012Y85626D01*
Y86626D01*
X456202Y86631D01*
X456372Y86646D01*
X456522Y86671D01*
X456652Y86706D01*
X456762Y86751D01*
X456852Y86806D01*
X456922Y86871D01*
X456972Y86946D01*
X457002Y87031D01*
X457012Y87126D01*
Y85126D01*
D02*
G37*
G36*
X453848Y87031D02*
X453878Y86946D01*
X453928Y86871D01*
X453998Y86806D01*
X454088Y86751D01*
X454198Y86706D01*
X454328Y86671D01*
X454478Y86646D01*
X454648Y86631D01*
X454838Y86626D01*
Y85626D01*
X454648Y85621D01*
X454478Y85606D01*
X454328Y85581D01*
X454198Y85546D01*
X454088Y85501D01*
X453998Y85446D01*
X453928Y85381D01*
X453878Y85306D01*
X453848Y85221D01*
X453838Y85126D01*
Y87126D01*
X453848Y87031D01*
D02*
G37*
G36*
X433673Y87268D02*
X433681D01*
X433693Y87264D01*
X433701D01*
X433713Y87260D01*
X433720Y87256D01*
X433732Y87252D01*
X433740Y87244D01*
X433748Y87240D01*
X433756Y87232D01*
X433764Y87228D01*
X433772Y87221D01*
X433779Y87213D01*
X433787Y87205D01*
X433795Y87197D01*
X433799Y87189D01*
X433807Y87181D01*
X433811Y87173D01*
X433819Y87165D01*
X433823Y87154D01*
X433827Y87146D01*
X433831Y87134D01*
Y87126D01*
X433835Y87114D01*
Y87106D01*
X433839Y87094D01*
Y87087D01*
Y87075D01*
Y86287D01*
Y86268D01*
X433843Y86248D01*
Y86224D01*
X433847Y86205D01*
X433850Y86185D01*
X433858Y86165D01*
X433866Y86146D01*
X433874Y86126D01*
X433882Y86110D01*
X433890Y86090D01*
X433902Y86075D01*
X433913Y86055D01*
X433925Y86039D01*
X433941Y86024D01*
X433953Y86008D01*
X433968Y85996D01*
X433984Y85980D01*
X434000Y85969D01*
X434020Y85957D01*
X434035Y85945D01*
X434055Y85937D01*
X434071Y85929D01*
X434091Y85921D01*
X434110Y85913D01*
X434130Y85905D01*
X434150Y85902D01*
X434169Y85898D01*
X434193D01*
X434213Y85894D01*
X437106D01*
X437118Y85890D01*
X437126D01*
X437138Y85886D01*
X437146D01*
X437157Y85882D01*
X437165Y85878D01*
X437177Y85874D01*
X437185Y85866D01*
X437193Y85862D01*
X437201Y85854D01*
X437209Y85850D01*
X437217Y85843D01*
X437224Y85835D01*
X437232Y85827D01*
X437240Y85819D01*
X437244Y85811D01*
X437252Y85803D01*
X437256Y85795D01*
X437264Y85787D01*
X437268Y85776D01*
X437272Y85768D01*
X437276Y85756D01*
Y85748D01*
X437280Y85736D01*
Y85728D01*
X437284Y85716D01*
Y85709D01*
Y85697D01*
Y85106D01*
Y85094D01*
Y85087D01*
X437280Y85075D01*
Y85067D01*
X437276Y85055D01*
Y85047D01*
X437272Y85035D01*
X437268Y85027D01*
X437264Y85016D01*
X437256Y85008D01*
X437252Y85000D01*
X437244Y84992D01*
X437240Y84984D01*
X437232Y84976D01*
X437224Y84969D01*
X437217Y84961D01*
X437209Y84953D01*
X437201Y84949D01*
X437193Y84941D01*
X437185Y84937D01*
X437177Y84929D01*
X437165Y84925D01*
X437157Y84921D01*
X437146Y84917D01*
X437138D01*
X437126Y84913D01*
X437118D01*
X437106Y84909D01*
X432638D01*
X432626Y84913D01*
X432618D01*
X432606Y84917D01*
X432598D01*
X432587Y84921D01*
X432579Y84925D01*
X432567Y84929D01*
X432559Y84937D01*
X432551Y84941D01*
X432543Y84949D01*
X432535Y84953D01*
X432528Y84961D01*
X432520Y84969D01*
X432512Y84976D01*
X432504Y84984D01*
X432500Y84992D01*
X432492Y85000D01*
X432488Y85008D01*
X432480Y85016D01*
X432476Y85027D01*
X432472Y85035D01*
X432469Y85047D01*
Y85055D01*
X432465Y85067D01*
Y85075D01*
X432461Y85087D01*
Y85094D01*
Y85106D01*
Y87075D01*
Y87087D01*
Y87094D01*
X432465Y87106D01*
Y87114D01*
X432469Y87126D01*
Y87134D01*
X432472Y87146D01*
X432476Y87154D01*
X432480Y87165D01*
X432488Y87173D01*
X432492Y87181D01*
X432500Y87189D01*
X432504Y87197D01*
X432512Y87205D01*
X432520Y87213D01*
X432528Y87221D01*
X432535Y87228D01*
X432543Y87232D01*
X432551Y87240D01*
X432559Y87244D01*
X432567Y87252D01*
X432579Y87256D01*
X432587Y87260D01*
X432598Y87264D01*
X432606D01*
X432618Y87268D01*
X432626D01*
X432638Y87272D01*
X433661D01*
X433673Y87268D01*
D02*
G37*
G36*
X427374D02*
X427382D01*
X427394Y87264D01*
X427402D01*
X427413Y87260D01*
X427421Y87256D01*
X427433Y87252D01*
X427441Y87244D01*
X427449Y87240D01*
X427457Y87232D01*
X427465Y87228D01*
X427472Y87221D01*
X427480Y87213D01*
X427488Y87205D01*
X427496Y87197D01*
X427500Y87189D01*
X427508Y87181D01*
X427512Y87173D01*
X427520Y87165D01*
X427524Y87154D01*
X427528Y87146D01*
X427531Y87134D01*
Y87126D01*
X427535Y87114D01*
Y87106D01*
X427539Y87094D01*
Y87087D01*
Y87075D01*
Y85106D01*
Y85094D01*
Y85087D01*
X427535Y85075D01*
Y85067D01*
X427531Y85055D01*
Y85047D01*
X427528Y85035D01*
X427524Y85027D01*
X427520Y85016D01*
X427512Y85008D01*
X427508Y85000D01*
X427500Y84992D01*
X427496Y84984D01*
X427488Y84976D01*
X427480Y84969D01*
X427472Y84961D01*
X427465Y84953D01*
X427457Y84949D01*
X427449Y84941D01*
X427441Y84937D01*
X427433Y84929D01*
X427421Y84925D01*
X427413Y84921D01*
X427402Y84917D01*
X427394D01*
X427382Y84913D01*
X427374D01*
X427362Y84909D01*
X422894D01*
X422882Y84913D01*
X422874D01*
X422862Y84917D01*
X422854D01*
X422843Y84921D01*
X422835Y84925D01*
X422823Y84929D01*
X422815Y84937D01*
X422807Y84941D01*
X422799Y84949D01*
X422791Y84953D01*
X422784Y84961D01*
X422776Y84969D01*
X422768Y84976D01*
X422760Y84984D01*
X422756Y84992D01*
X422748Y85000D01*
X422744Y85008D01*
X422736Y85016D01*
X422732Y85027D01*
X422728Y85035D01*
X422724Y85047D01*
Y85055D01*
X422720Y85067D01*
Y85075D01*
X422717Y85087D01*
Y85094D01*
Y85106D01*
Y85697D01*
Y85709D01*
Y85716D01*
X422720Y85728D01*
Y85736D01*
X422724Y85748D01*
Y85756D01*
X422728Y85768D01*
X422732Y85776D01*
X422736Y85787D01*
X422744Y85795D01*
X422748Y85803D01*
X422756Y85811D01*
X422760Y85819D01*
X422768Y85827D01*
X422776Y85835D01*
X422784Y85843D01*
X422791Y85850D01*
X422799Y85854D01*
X422807Y85862D01*
X422815Y85866D01*
X422823Y85874D01*
X422835Y85878D01*
X422843Y85882D01*
X422854Y85886D01*
X422862D01*
X422874Y85890D01*
X422882D01*
X422894Y85894D01*
X425787D01*
X425807Y85898D01*
X425831D01*
X425850Y85902D01*
X425870Y85905D01*
X425890Y85913D01*
X425910Y85921D01*
X425929Y85929D01*
X425945Y85937D01*
X425965Y85945D01*
X425980Y85957D01*
X426000Y85969D01*
X426016Y85980D01*
X426031Y85996D01*
X426047Y86008D01*
X426059Y86024D01*
X426075Y86039D01*
X426087Y86055D01*
X426098Y86075D01*
X426110Y86090D01*
X426118Y86110D01*
X426126Y86126D01*
X426134Y86146D01*
X426142Y86165D01*
X426150Y86185D01*
X426154Y86205D01*
X426158Y86224D01*
Y86248D01*
X426161Y86268D01*
Y86287D01*
Y87075D01*
Y87087D01*
Y87094D01*
X426165Y87106D01*
Y87114D01*
X426169Y87126D01*
Y87134D01*
X426173Y87146D01*
X426177Y87154D01*
X426181Y87165D01*
X426189Y87173D01*
X426193Y87181D01*
X426201Y87189D01*
X426205Y87197D01*
X426213Y87205D01*
X426221Y87213D01*
X426228Y87221D01*
X426236Y87228D01*
X426244Y87232D01*
X426252Y87240D01*
X426260Y87244D01*
X426268Y87252D01*
X426279Y87256D01*
X426287Y87260D01*
X426299Y87264D01*
X426307D01*
X426319Y87268D01*
X426327D01*
X426339Y87272D01*
X427362D01*
X427374Y87268D01*
D02*
G37*
G36*
X443162Y84402D02*
X443152Y84497D01*
X443122Y84582D01*
X443072Y84657D01*
X443002Y84722D01*
X442912Y84777D01*
X442802Y84822D01*
X442672Y84857D01*
X442522Y84882D01*
X442352Y84897D01*
X442162Y84902D01*
Y85902D01*
X442352Y85907D01*
X442522Y85922D01*
X442672Y85947D01*
X442802Y85982D01*
X442912Y86027D01*
X443002Y86082D01*
X443072Y86147D01*
X443122Y86222D01*
X443152Y86307D01*
X443162Y86402D01*
Y84402D01*
D02*
G37*
G36*
X440105Y82679D02*
X440076Y82727D01*
X440037Y82771D01*
X439990Y82809D01*
X439935Y82842D01*
X439870Y82870D01*
X439797Y82892D01*
X439716Y82910D01*
X439625Y82923D01*
X439526Y82930D01*
X439419Y82933D01*
X439810Y83933D01*
X439921Y83934D01*
X440347Y83961D01*
X440407Y83972D01*
X440458Y83983D01*
X440501Y83997D01*
X440535Y84012D01*
X440105Y82679D01*
D02*
G37*
G36*
X427283Y84118D02*
X427307D01*
X427327Y84114D01*
X427347Y84110D01*
X427366Y84102D01*
X427386Y84095D01*
X427406Y84087D01*
X427421Y84079D01*
X427441Y84071D01*
X427457Y84059D01*
X427476Y84047D01*
X427492Y84035D01*
X427508Y84020D01*
X427524Y84008D01*
X427535Y83992D01*
X427551Y83976D01*
X427563Y83961D01*
X427575Y83941D01*
X427587Y83925D01*
X427595Y83906D01*
X427602Y83890D01*
X427610Y83870D01*
X427618Y83850D01*
X427626Y83831D01*
X427630Y83811D01*
X427634Y83791D01*
Y83768D01*
X427638Y83748D01*
Y83728D01*
Y81169D01*
Y81150D01*
X427634Y81130D01*
Y81106D01*
X427630Y81087D01*
X427626Y81067D01*
X427618Y81047D01*
X427610Y81028D01*
X427602Y81008D01*
X427595Y80992D01*
X427587Y80972D01*
X427575Y80957D01*
X427563Y80937D01*
X427551Y80921D01*
X427535Y80905D01*
X427524Y80890D01*
X427508Y80878D01*
X427492Y80862D01*
X427476Y80850D01*
X427457Y80839D01*
X427441Y80827D01*
X427421Y80819D01*
X427406Y80811D01*
X427386Y80803D01*
X427366Y80795D01*
X427347Y80787D01*
X427327Y80783D01*
X427307Y80779D01*
X427283D01*
X427264Y80776D01*
X422894D01*
X422874Y80779D01*
X422850D01*
X422831Y80783D01*
X422811Y80787D01*
X422791Y80795D01*
X422772Y80803D01*
X422752Y80811D01*
X422736Y80819D01*
X422717Y80827D01*
X422701Y80839D01*
X422681Y80850D01*
X422665Y80862D01*
X422650Y80878D01*
X422634Y80890D01*
X422622Y80905D01*
X422606Y80921D01*
X422594Y80937D01*
X422583Y80957D01*
X422571Y80972D01*
X422563Y80992D01*
X422555Y81008D01*
X422547Y81028D01*
X422539Y81047D01*
X422532Y81067D01*
X422528Y81087D01*
X422524Y81106D01*
Y81130D01*
X422520Y81150D01*
Y81169D01*
Y83728D01*
Y83748D01*
X422524Y83768D01*
Y83791D01*
X422528Y83811D01*
X422532Y83831D01*
X422539Y83850D01*
X422547Y83870D01*
X422555Y83890D01*
X422563Y83906D01*
X422571Y83925D01*
X422583Y83941D01*
X422594Y83961D01*
X422606Y83976D01*
X422622Y83992D01*
X422634Y84008D01*
X422650Y84020D01*
X422665Y84035D01*
X422681Y84047D01*
X422701Y84059D01*
X422717Y84071D01*
X422736Y84079D01*
X422752Y84087D01*
X422772Y84095D01*
X422791Y84102D01*
X422811Y84110D01*
X422831Y84114D01*
X422850Y84118D01*
X422874D01*
X422894Y84122D01*
X427264D01*
X427283Y84118D01*
D02*
G37*
G36*
X443162Y78126D02*
X443152Y78221D01*
X443122Y78306D01*
X443072Y78381D01*
X443002Y78446D01*
X442912Y78501D01*
X442802Y78546D01*
X442672Y78581D01*
X442522Y78606D01*
X442352Y78621D01*
X442162Y78626D01*
Y79626D01*
X442352Y79631D01*
X442522Y79646D01*
X442672Y79671D01*
X442802Y79706D01*
X442912Y79751D01*
X443002Y79806D01*
X443072Y79871D01*
X443122Y79946D01*
X443152Y80031D01*
X443162Y80126D01*
Y78126D01*
D02*
G37*
G36*
X450662Y77976D02*
X450652Y78071D01*
X450622Y78156D01*
X450572Y78231D01*
X450502Y78296D01*
X450412Y78351D01*
X450302Y78396D01*
X450172Y78431D01*
X450022Y78456D01*
X449852Y78471D01*
X449662Y78476D01*
Y79476D01*
X449852Y79481D01*
X450022Y79496D01*
X450172Y79521D01*
X450302Y79556D01*
X450412Y79601D01*
X450502Y79656D01*
X450572Y79721D01*
X450622Y79796D01*
X450652Y79881D01*
X450662Y79976D01*
Y77976D01*
D02*
G37*
G36*
X447848Y79881D02*
X447878Y79796D01*
X447928Y79721D01*
X447998Y79656D01*
X448088Y79601D01*
X448198Y79556D01*
X448328Y79521D01*
X448478Y79496D01*
X448648Y79481D01*
X448838Y79476D01*
Y78476D01*
X448648Y78471D01*
X448478Y78456D01*
X448328Y78431D01*
X448198Y78396D01*
X448088Y78351D01*
X447998Y78296D01*
X447928Y78231D01*
X447878Y78156D01*
X447848Y78071D01*
X447838Y77976D01*
Y79976D01*
X447848Y79881D01*
D02*
G37*
G36*
X371156Y87088D02*
X371306Y86663D01*
X371556Y86288D01*
X371906Y85963D01*
X372356Y85688D01*
X372906Y85463D01*
X373556Y85288D01*
X374306Y85163D01*
X375156Y85088D01*
X376106Y85063D01*
Y80063D01*
X375156Y80038D01*
X374306Y79963D01*
X373556Y79838D01*
X372906Y79663D01*
X372356Y79438D01*
X371906Y79163D01*
X371556Y78838D01*
X371306Y78463D01*
X371156Y78038D01*
X371106Y77563D01*
Y87563D01*
X371156Y87088D01*
D02*
G37*
G36*
X590626Y80971D02*
X590810Y78123D01*
X590895Y77611D01*
X590995Y77178D01*
X591110Y76824D01*
X591241Y76551D01*
X591387Y76357D01*
X587849D01*
X587995Y76551D01*
X588126Y76824D01*
X588241Y77178D01*
X588341Y77611D01*
X588426Y78123D01*
X588549Y79388D01*
X588610Y80971D01*
X588618Y81882D01*
X590618D01*
X590626Y80971D01*
D02*
G37*
G36*
X455373Y74219D02*
X455478Y74178D01*
X455653Y74143D01*
X455898Y74112D01*
X456598Y74064D01*
X458838Y74026D01*
Y70526D01*
X458173Y70524D01*
X455373Y70333D01*
X455338Y70288D01*
Y74264D01*
X455373Y74219D01*
D02*
G37*
G36*
X577130Y69591D02*
X577080Y70065D01*
X576930Y70490D01*
X576680Y70865D01*
X576330Y71191D01*
X575880Y71465D01*
X575330Y71690D01*
X574680Y71865D01*
X573930Y71991D01*
X573080Y72066D01*
X572130Y72091D01*
Y77091D01*
X573080Y77115D01*
X573930Y77191D01*
X574680Y77315D01*
X575330Y77491D01*
X575880Y77715D01*
X576330Y77991D01*
X576680Y78316D01*
X576930Y78690D01*
X577080Y79115D01*
X577130Y79590D01*
Y69591D01*
D02*
G37*
G36*
X437126Y77327D02*
X437150D01*
X437169Y77323D01*
X437189Y77319D01*
X437209Y77311D01*
X437228Y77303D01*
X437248Y77295D01*
X437264Y77287D01*
X437284Y77280D01*
X437299Y77268D01*
X437319Y77256D01*
X437335Y77244D01*
X437350Y77228D01*
X437366Y77217D01*
X437378Y77201D01*
X437394Y77185D01*
X437405Y77169D01*
X437417Y77150D01*
X437429Y77134D01*
X437437Y77114D01*
X437445Y77098D01*
X437453Y77079D01*
X437461Y77059D01*
X437468Y77039D01*
X437472Y77020D01*
X437476Y77000D01*
Y76976D01*
X437480Y76957D01*
Y76937D01*
Y72234D01*
X437679Y71880D01*
X437480Y71092D01*
Y69752D01*
Y69732D01*
X437476Y69713D01*
Y69689D01*
X437472Y69669D01*
X437468Y69650D01*
X437461Y69630D01*
X437453Y69610D01*
X437445Y69591D01*
X437437Y69575D01*
X437429Y69555D01*
X437417Y69539D01*
X437405Y69520D01*
X437394Y69504D01*
X437378Y69488D01*
X437366Y69472D01*
X437350Y69461D01*
X437335Y69445D01*
X437319Y69433D01*
X437299Y69421D01*
X437284Y69409D01*
X437264Y69402D01*
X437248Y69394D01*
X437228Y69386D01*
X437209Y69378D01*
X437189Y69370D01*
X437169Y69366D01*
X437150Y69362D01*
X437126D01*
X437106Y69358D01*
X437042D01*
X436681Y67929D01*
X436191Y68399D01*
X435245Y69191D01*
X435008Y69358D01*
X431949D01*
X431929Y69362D01*
X431906D01*
X431886Y69366D01*
X431866Y69370D01*
X431847Y69378D01*
X431827Y69386D01*
X431807Y69394D01*
X431791Y69402D01*
X431772Y69409D01*
X431756Y69421D01*
X431736Y69433D01*
X431720Y69445D01*
X431705Y69461D01*
X431689Y69472D01*
X431677Y69488D01*
X431661Y69504D01*
X431650Y69520D01*
X431638Y69539D01*
X431626Y69555D01*
X431618Y69575D01*
X431610Y69591D01*
X431602Y69610D01*
X431595Y69630D01*
X431587Y69650D01*
X431583Y69669D01*
X431579Y69689D01*
Y69713D01*
X431575Y69732D01*
Y69752D01*
Y76937D01*
Y76957D01*
X431579Y76976D01*
Y77000D01*
X431583Y77020D01*
X431587Y77039D01*
X431595Y77059D01*
X431602Y77079D01*
X431610Y77098D01*
X431618Y77114D01*
X431626Y77134D01*
X431638Y77150D01*
X431650Y77169D01*
X431661Y77185D01*
X431677Y77201D01*
X431689Y77217D01*
X431705Y77228D01*
X431720Y77244D01*
X431736Y77256D01*
X431756Y77268D01*
X431772Y77280D01*
X431791Y77287D01*
X431807Y77295D01*
X431827Y77303D01*
X431847Y77311D01*
X431866Y77319D01*
X431886Y77323D01*
X431906Y77327D01*
X431929D01*
X431949Y77331D01*
X437106D01*
X437126Y77327D01*
D02*
G37*
G36*
X371156Y74620D02*
X371306Y74195D01*
X371556Y73820D01*
X371906Y73494D01*
X372356Y73220D01*
X372906Y72995D01*
X373556Y72820D01*
X374306Y72694D01*
X375156Y72619D01*
X376106Y72594D01*
Y67594D01*
X375156Y67570D01*
X374306Y67494D01*
X373556Y67370D01*
X372906Y67194D01*
X372356Y66970D01*
X371906Y66694D01*
X371556Y66369D01*
X371306Y65995D01*
X371156Y65570D01*
X371106Y65095D01*
Y75094D01*
X371156Y74620D01*
D02*
G37*
G36*
X556864Y72451D02*
X557491Y71970D01*
X558221Y71668D01*
X559004Y71565D01*
X572082D01*
X572116Y71549D01*
X573049Y71525D01*
X573862Y71453D01*
X574565Y71336D01*
X575157Y71177D01*
X575635Y70981D01*
X576002Y70757D01*
X576265Y70512D01*
X576442Y70247D01*
X576548Y69946D01*
X576592Y69534D01*
X576618Y69486D01*
Y59642D01*
X575857Y59547D01*
X527882D01*
Y74090D01*
X514382D01*
X500882D01*
Y59547D01*
X469277D01*
X468971Y60286D01*
X506753Y98069D01*
X531247D01*
X556864Y72451D01*
D02*
G37*
%LPC*%
G36*
X252768Y376354D02*
X251397D01*
X250074Y376000D01*
X248887Y375314D01*
X247918Y374345D01*
X247233Y373159D01*
X246878Y371835D01*
Y370464D01*
X247233Y369141D01*
X247918Y367954D01*
X248887Y366985D01*
X250074Y366300D01*
X251397Y365945D01*
X252768D01*
X254092Y366300D01*
X255278Y366985D01*
X256247Y367954D01*
X256933Y369141D01*
X257287Y370464D01*
Y371835D01*
X256933Y373159D01*
X256247Y374345D01*
X255278Y375314D01*
X254092Y376000D01*
X252768Y376354D01*
D02*
G37*
G36*
X483768Y375661D02*
X482398D01*
X481074Y375307D01*
X479887Y374622D01*
X478918Y373652D01*
X478233Y372466D01*
X477878Y371142D01*
Y369772D01*
X478233Y368448D01*
X478918Y367261D01*
X479887Y366292D01*
X481074Y365607D01*
X482398Y365252D01*
X483768D01*
X485092Y365607D01*
X486278Y366292D01*
X487248Y367261D01*
X487933Y368448D01*
X488287Y369772D01*
Y371142D01*
X487933Y372466D01*
X487248Y373652D01*
X486278Y374622D01*
X485092Y375307D01*
X483768Y375661D01*
D02*
G37*
G36*
X216040Y354986D02*
X216000D01*
Y351386D01*
X219600D01*
Y351426D01*
X219321Y352468D01*
X218781Y353403D01*
X218018Y354167D01*
X217083Y354706D01*
X216040Y354986D01*
D02*
G37*
G36*
X215000D02*
X214960D01*
X213917Y354706D01*
X212983Y354167D01*
X212219Y353403D01*
X211679Y352468D01*
X211400Y351426D01*
Y351386D01*
X215000D01*
Y354986D01*
D02*
G37*
G36*
X235974Y354486D02*
X235026D01*
X234110Y354240D01*
X233290Y353766D01*
X232619Y353096D01*
X232145Y352275D01*
X231900Y351360D01*
Y350412D01*
X232145Y349496D01*
X232619Y348675D01*
X233098Y348196D01*
X232830Y347403D01*
X232825Y347396D01*
X228175D01*
X228170Y347403D01*
X227902Y348196D01*
X228381Y348675D01*
X228855Y349496D01*
X229100Y350412D01*
Y351360D01*
X228855Y352275D01*
X228381Y353096D01*
X227710Y353766D01*
X226890Y354240D01*
X225974Y354486D01*
X225026D01*
X224110Y354240D01*
X223290Y353766D01*
X222619Y353096D01*
X222145Y352275D01*
X221900Y351360D01*
Y350412D01*
X222145Y349496D01*
X222619Y348675D01*
X223098Y348196D01*
X222830Y347403D01*
X222825Y347396D01*
X218940D01*
X218609Y348196D01*
X218781Y348368D01*
X219321Y349303D01*
X219600Y350346D01*
Y350386D01*
X215500D01*
X211400D01*
Y350346D01*
X211679Y349303D01*
X212219Y348368D01*
X212983Y347605D01*
X213652Y347219D01*
X213888Y346324D01*
X111351Y243787D01*
X111152Y243489D01*
X111082Y243138D01*
Y233625D01*
X111152Y233274D01*
X111351Y232976D01*
X111649Y232778D01*
X111888Y232730D01*
X111997Y232684D01*
X112133Y232683D01*
X112494Y232323D01*
X113045Y232095D01*
X113642D01*
X114193Y232323D01*
X114615Y232745D01*
X114843Y233296D01*
Y233893D01*
X114615Y234444D01*
X114193Y234866D01*
X113642Y235094D01*
X113045D01*
X112918Y235180D01*
Y238424D01*
X113375Y238673D01*
X113718Y238795D01*
X114202Y238595D01*
X114798D01*
X115350Y238823D01*
X115772Y239245D01*
X116000Y239796D01*
Y240393D01*
X115772Y240944D01*
X115630Y241086D01*
X115595Y241178D01*
X115555Y241222D01*
X115533Y241249D01*
X115514Y241278D01*
X115497Y241310D01*
X115482Y241346D01*
X115469Y241387D01*
X115458Y241433D01*
X115449Y241486D01*
X115443Y241545D01*
X115441Y241627D01*
X115418Y241679D01*
Y243419D01*
X123343Y251345D01*
X124082Y251039D01*
Y211179D01*
X124059Y211127D01*
X124057Y211045D01*
X124051Y210986D01*
X124042Y210933D01*
X124031Y210887D01*
X124018Y210846D01*
X124003Y210810D01*
X123986Y210778D01*
X123967Y210749D01*
X123945Y210722D01*
X123905Y210678D01*
X123870Y210586D01*
X123728Y210444D01*
X123500Y209893D01*
Y209296D01*
X123728Y208745D01*
X124150Y208323D01*
X124702Y208095D01*
X125298D01*
X125850Y208323D01*
X126272Y208745D01*
X126500Y209296D01*
Y209893D01*
X126272Y210444D01*
X126130Y210586D01*
X126095Y210678D01*
X126055Y210722D01*
X126033Y210749D01*
X126014Y210778D01*
X125997Y210810D01*
X125982Y210846D01*
X125969Y210887D01*
X125958Y210933D01*
X125949Y210986D01*
X125943Y211045D01*
X125941Y211127D01*
X125918Y211179D01*
Y252081D01*
X147952Y274115D01*
X148752Y273784D01*
Y273601D01*
X149007Y272648D01*
X149501Y271793D01*
X150199Y271095D01*
X151053Y270602D01*
X152007Y270346D01*
X152993D01*
X153947Y270602D01*
X154801Y271095D01*
X155499Y271793D01*
X155993Y272648D01*
X156248Y273601D01*
Y274588D01*
X155993Y275541D01*
X155499Y276396D01*
X154801Y277094D01*
X153947Y277587D01*
X152993Y277842D01*
X152811D01*
X152480Y278643D01*
X183430Y309593D01*
X212126D01*
X212341Y308793D01*
X211790Y308475D01*
X211119Y307805D01*
X210645Y306984D01*
X210400Y306068D01*
Y305120D01*
X210645Y304205D01*
X211119Y303384D01*
X211790Y302714D01*
X212610Y302240D01*
X213526Y301994D01*
X214474D01*
X215390Y302240D01*
X216210Y302714D01*
X216881Y303384D01*
X217355Y304205D01*
X217600Y305120D01*
Y306068D01*
X217355Y306984D01*
X216881Y307805D01*
X216210Y308475D01*
X215659Y308793D01*
X215874Y309593D01*
X222126D01*
X222341Y308793D01*
X221790Y308475D01*
X221119Y307805D01*
X220645Y306984D01*
X220400Y306068D01*
Y305120D01*
X220645Y304205D01*
X221119Y303384D01*
X221790Y302714D01*
X222610Y302240D01*
X223526Y301994D01*
X224474D01*
X225390Y302240D01*
X226210Y302714D01*
X226881Y303384D01*
X227355Y304205D01*
X227600Y305120D01*
Y306068D01*
X227355Y306984D01*
X226881Y307805D01*
X226210Y308475D01*
X225659Y308793D01*
X225874Y309593D01*
X407703D01*
X411231Y306066D01*
X411251Y306013D01*
X411307Y305953D01*
X411345Y305907D01*
X411376Y305864D01*
X411401Y305823D01*
X411420Y305785D01*
X411435Y305749D01*
X411446Y305714D01*
X411453Y305680D01*
X411457Y305646D01*
X411459Y305586D01*
X411500Y305496D01*
Y305296D01*
X411728Y304745D01*
X412150Y304323D01*
X412702Y304095D01*
X413298D01*
X413850Y304323D01*
X414272Y304745D01*
X414459Y305198D01*
X414504Y305258D01*
X414519Y305320D01*
X414533Y305364D01*
X414551Y305409D01*
X414572Y305455D01*
X414598Y305502D01*
X414628Y305550D01*
X414659Y305594D01*
X414753Y305708D01*
X414808Y305766D01*
X414829Y305820D01*
X415149Y306140D01*
X415348Y306437D01*
X415418Y306788D01*
Y312884D01*
X415441Y312936D01*
X415443Y313018D01*
X415449Y313077D01*
X415458Y313130D01*
X415469Y313176D01*
X415482Y313217D01*
X415497Y313253D01*
X415514Y313285D01*
X415533Y313314D01*
X415555Y313341D01*
X415595Y313385D01*
X415630Y313477D01*
X415772Y313619D01*
X416000Y314170D01*
Y314767D01*
X415772Y315318D01*
X415350Y315740D01*
X414798Y315968D01*
X414202D01*
X413650Y315740D01*
X413228Y315318D01*
X413000Y314767D01*
Y314170D01*
X413228Y313619D01*
X413370Y313477D01*
X413405Y313385D01*
X413445Y313341D01*
X413467Y313314D01*
X413486Y313285D01*
X413503Y313253D01*
X413518Y313217D01*
X413531Y313176D01*
X413542Y313130D01*
X413551Y313077D01*
X413557Y313018D01*
X413559Y312936D01*
X413582Y312884D01*
Y307833D01*
X413506Y307620D01*
X413158Y307319D01*
X413127Y307300D01*
X413094Y307284D01*
X412810Y307174D01*
X412771Y307193D01*
X412731Y307218D01*
X412687Y307249D01*
X412641Y307287D01*
X412581Y307344D01*
X412528Y307364D01*
X408732Y311160D01*
X408435Y311359D01*
X408083Y311429D01*
X225453D01*
X225348Y312229D01*
X225390Y312240D01*
X226210Y312714D01*
X226881Y313384D01*
X227355Y314205D01*
X227600Y315121D01*
Y316068D01*
X227355Y316984D01*
X226881Y317805D01*
X226210Y318475D01*
X225390Y318949D01*
X224474Y319195D01*
X223526D01*
X222610Y318949D01*
X221790Y318475D01*
X221119Y317805D01*
X220645Y316984D01*
X220400Y316068D01*
Y315121D01*
X220645Y314205D01*
X221119Y313384D01*
X221790Y312714D01*
X222610Y312240D01*
X222652Y312229D01*
X222547Y311429D01*
X215453D01*
X215348Y312229D01*
X215390Y312240D01*
X216210Y312714D01*
X216881Y313384D01*
X217355Y314205D01*
X217600Y315121D01*
Y316068D01*
X217355Y316984D01*
X216881Y317805D01*
X216210Y318475D01*
X215390Y318949D01*
X214474Y319195D01*
X213526D01*
X212610Y318949D01*
X211790Y318475D01*
X211119Y317805D01*
X210645Y316984D01*
X210400Y316068D01*
Y315121D01*
X210645Y314205D01*
X211119Y313384D01*
X211790Y312714D01*
X212610Y312240D01*
X212652Y312229D01*
X212547Y311429D01*
X184473D01*
X184166Y312168D01*
X197326Y325328D01*
X388252D01*
X388604Y325398D01*
X388901Y325597D01*
X403482Y340177D01*
X430915D01*
X430967Y340154D01*
X431049Y340151D01*
X431109Y340145D01*
X431161Y340137D01*
X431208Y340125D01*
X431248Y340112D01*
X431284Y340097D01*
X431316Y340080D01*
X431345Y340061D01*
X431373Y340040D01*
X431416Y339999D01*
X431509Y339964D01*
X431650Y339823D01*
X432202Y339595D01*
X432402D01*
X432492Y339554D01*
X432551Y339552D01*
X432586Y339547D01*
X432620Y339540D01*
X432654Y339529D01*
X432690Y339515D01*
X432729Y339495D01*
X432769Y339471D01*
X432813Y339440D01*
X432859Y339402D01*
X432919Y339345D01*
X432972Y339325D01*
X435082Y337214D01*
Y283475D01*
X395351Y243743D01*
X395152Y243446D01*
X395082Y243094D01*
Y228594D01*
X395152Y228243D01*
X395351Y227946D01*
X398351Y224946D01*
X398649Y224747D01*
X399000Y224677D01*
X402500D01*
X402851Y224747D01*
X403149Y224946D01*
X411880Y233677D01*
X415415D01*
X415467Y233653D01*
X415549Y233651D01*
X415609Y233645D01*
X415661Y233637D01*
X415708Y233626D01*
X415748Y233612D01*
X415784Y233597D01*
X415816Y233580D01*
X415845Y233561D01*
X415873Y233540D01*
X415916Y233499D01*
X416009Y233464D01*
X416150Y233323D01*
X416702Y233095D01*
X417298D01*
X417850Y233323D01*
X418272Y233745D01*
X418500Y234296D01*
Y234496D01*
X418541Y234586D01*
X418543Y234646D01*
X418547Y234680D01*
X418554Y234714D01*
X418565Y234749D01*
X418580Y234785D01*
X418599Y234823D01*
X418624Y234864D01*
X418655Y234907D01*
X418693Y234953D01*
X418749Y235013D01*
X418769Y235066D01*
X427880Y244177D01*
X433415D01*
X433467Y244153D01*
X433549Y244151D01*
X433609Y244145D01*
X433661Y244137D01*
X433708Y244126D01*
X433748Y244112D01*
X433784Y244097D01*
X433816Y244080D01*
X433845Y244061D01*
X433873Y244040D01*
X433916Y243999D01*
X434009Y243964D01*
X434150Y243823D01*
X434702Y243595D01*
X435298D01*
X435850Y243823D01*
X436272Y244245D01*
X436500Y244796D01*
Y245393D01*
X436272Y245944D01*
X435850Y246366D01*
X435298Y246595D01*
X434702D01*
X434150Y246366D01*
X434009Y246224D01*
X433916Y246190D01*
X433873Y246149D01*
X433845Y246128D01*
X433816Y246109D01*
X433784Y246092D01*
X433748Y246077D01*
X433708Y246063D01*
X433661Y246052D01*
X433609Y246043D01*
X433549Y246038D01*
X433467Y246035D01*
X433415Y246012D01*
X427500D01*
X427149Y245942D01*
X426851Y245743D01*
X421300Y240192D01*
X420867Y240301D01*
X420462Y240485D01*
X420272Y240944D01*
X419850Y241366D01*
X419298Y241595D01*
X418702D01*
X418150Y241366D01*
X418009Y241225D01*
X417916Y241190D01*
X417873Y241149D01*
X417845Y241128D01*
X417816Y241109D01*
X417784Y241092D01*
X417748Y241077D01*
X417708Y241063D01*
X417661Y241052D01*
X417609Y241043D01*
X417549Y241038D01*
X417467Y241035D01*
X417415Y241012D01*
X413500D01*
X413149Y240942D01*
X412851Y240743D01*
X401120Y229012D01*
X399880D01*
X398918Y229975D01*
Y238714D01*
X439149Y278946D01*
X439348Y279243D01*
X439418Y279594D01*
Y297273D01*
X439746Y297475D01*
X440218Y297574D01*
X449612Y288180D01*
X449624Y288146D01*
X449774Y287978D01*
X449892Y287813D01*
X449998Y287627D01*
X450092Y287417D01*
X450174Y287182D01*
X450242Y286923D01*
X450293Y286645D01*
X450354Y285984D01*
X450359Y285618D01*
X450400Y285523D01*
Y285121D01*
X450645Y284205D01*
X451119Y283384D01*
X451790Y282714D01*
X452610Y282240D01*
X453526Y281995D01*
X454474D01*
X455389Y282240D01*
X456211Y282714D01*
X456680Y283184D01*
X457480Y282901D01*
Y279044D01*
X456680Y278712D01*
X456518Y278875D01*
X455583Y279415D01*
X454540Y279695D01*
X454500D01*
Y275594D01*
Y271495D01*
X454540D01*
X455583Y271774D01*
X456518Y272314D01*
X456680Y272477D01*
X457480Y272145D01*
Y268288D01*
X456680Y268005D01*
X456211Y268475D01*
X455389Y268949D01*
X454474Y269195D01*
X453526D01*
X452610Y268949D01*
X451790Y268475D01*
X451119Y267805D01*
X450645Y266984D01*
X450400Y266068D01*
Y265121D01*
X450645Y264205D01*
X451119Y263384D01*
X451790Y262714D01*
X452610Y262240D01*
X453526Y261995D01*
X454474D01*
X455389Y262240D01*
X456211Y262714D01*
X456680Y263184D01*
X457480Y262900D01*
Y258289D01*
X456680Y258005D01*
X456211Y258475D01*
X455389Y258949D01*
X454474Y259194D01*
X453526D01*
X452610Y258949D01*
X451790Y258475D01*
X451504Y258189D01*
X451405Y258149D01*
X451076Y257822D01*
X450465Y257277D01*
X450197Y257067D01*
X449944Y256891D01*
X449714Y256753D01*
X449508Y256651D01*
X449330Y256583D01*
X449183Y256548D01*
X449019Y256534D01*
X448978Y256512D01*
X423000D01*
X422649Y256442D01*
X422351Y256243D01*
X402972Y236864D01*
X402918Y236844D01*
X402859Y236787D01*
X402813Y236749D01*
X402769Y236718D01*
X402729Y236694D01*
X402691Y236674D01*
X402655Y236660D01*
X402620Y236649D01*
X402586Y236642D01*
X402551Y236637D01*
X402492Y236635D01*
X402402Y236595D01*
X402202D01*
X401650Y236366D01*
X401228Y235944D01*
X401000Y235393D01*
Y234796D01*
X401228Y234245D01*
X401650Y233823D01*
X402202Y233594D01*
X402798D01*
X403350Y233823D01*
X403772Y234245D01*
X404000Y234796D01*
Y234996D01*
X404041Y235086D01*
X404043Y235146D01*
X404047Y235180D01*
X404054Y235214D01*
X404065Y235249D01*
X404080Y235285D01*
X404099Y235323D01*
X404124Y235364D01*
X404155Y235407D01*
X404193Y235453D01*
X404249Y235513D01*
X404269Y235566D01*
X423380Y254677D01*
X448978D01*
X449019Y254655D01*
X449183Y254641D01*
X449330Y254606D01*
X449508Y254538D01*
X449714Y254436D01*
X449944Y254298D01*
X450186Y254129D01*
X451080Y253363D01*
X451405Y253040D01*
X451503Y253000D01*
X451790Y252714D01*
X452610Y252240D01*
X453526Y251994D01*
X454474D01*
X455389Y252240D01*
X456211Y252714D01*
X456680Y253184D01*
X457480Y252901D01*
Y248288D01*
X456680Y248005D01*
X456211Y248475D01*
X455389Y248949D01*
X454474Y249195D01*
X453526D01*
X452610Y248949D01*
X451790Y248475D01*
X451119Y247805D01*
X450645Y246984D01*
X450400Y246068D01*
Y245121D01*
X450645Y244205D01*
X451119Y243384D01*
X451790Y242714D01*
X452610Y242240D01*
X453526Y241995D01*
X454474D01*
X455389Y242240D01*
X456211Y242714D01*
X456680Y243184D01*
X457480Y242900D01*
Y240517D01*
X456815Y239851D01*
X456773Y239837D01*
X456634Y239718D01*
X456494Y239628D01*
X456317Y239542D01*
X456101Y239462D01*
X455848Y239392D01*
X455557Y239334D01*
X455236Y239289D01*
X454463Y239239D01*
X454027Y239235D01*
X453930Y239194D01*
X453526D01*
X452610Y238949D01*
X451790Y238475D01*
X451119Y237805D01*
X450645Y236984D01*
X450400Y236068D01*
Y235121D01*
X450645Y234205D01*
X451119Y233384D01*
X451790Y232714D01*
X452610Y232240D01*
X453526Y231995D01*
X454474D01*
X455389Y232240D01*
X456211Y232714D01*
X456881Y233384D01*
X457355Y234205D01*
X457600Y235121D01*
Y235525D01*
X457641Y235622D01*
X457644Y236058D01*
X457695Y236831D01*
X457739Y237152D01*
X457798Y237443D01*
X457868Y237696D01*
X457947Y237911D01*
X458034Y238088D01*
X458124Y238228D01*
X458243Y238367D01*
X458256Y238409D01*
X459221Y239373D01*
X459442Y239704D01*
X459520Y240094D01*
Y327095D01*
X459442Y327485D01*
X459221Y327815D01*
X444305Y342731D01*
X444287Y342779D01*
X444159Y342918D01*
X444121Y342965D01*
X444088Y343010D01*
X444065Y343047D01*
X444050Y343075D01*
X444042Y343093D01*
X444041Y343097D01*
X444040Y343117D01*
X444035Y343127D01*
X444035Y343129D01*
X444033Y343132D01*
X444000Y343199D01*
Y343393D01*
X443772Y343944D01*
X443350Y344366D01*
X442798Y344595D01*
X442202D01*
X441650Y344366D01*
X441228Y343944D01*
X441000Y343393D01*
Y342796D01*
X441228Y342245D01*
X441650Y341823D01*
X442202Y341595D01*
X442395D01*
X442462Y341562D01*
X442466Y341560D01*
X442468Y341559D01*
X442478Y341554D01*
X442498Y341553D01*
X442501Y341552D01*
X442519Y341544D01*
X442547Y341529D01*
X442585Y341506D01*
X442624Y341478D01*
X442742Y341377D01*
X442808Y341315D01*
X442858Y341295D01*
X457480Y326672D01*
Y318288D01*
X456680Y318005D01*
X456211Y318475D01*
X455389Y318949D01*
X454474Y319195D01*
X453526D01*
X452610Y318949D01*
X451790Y318475D01*
X451119Y317805D01*
X450645Y316984D01*
X450400Y316068D01*
Y315121D01*
X450645Y314205D01*
X451119Y313384D01*
X451790Y312714D01*
X452610Y312240D01*
X453526Y311995D01*
X454474D01*
X455389Y312240D01*
X456211Y312714D01*
X456680Y313184D01*
X457480Y312900D01*
Y308289D01*
X456680Y308005D01*
X456211Y308475D01*
X455389Y308949D01*
X454474Y309194D01*
X453526D01*
X452610Y308949D01*
X451790Y308475D01*
X451119Y307805D01*
X450645Y306984D01*
X450400Y306068D01*
Y305120D01*
X450645Y304205D01*
X451119Y303384D01*
X451790Y302714D01*
X452610Y302240D01*
X453526Y301994D01*
X454474D01*
X455389Y302240D01*
X456211Y302714D01*
X456680Y303184D01*
X457480Y302901D01*
Y298288D01*
X456680Y298005D01*
X456211Y298475D01*
X455389Y298949D01*
X454474Y299195D01*
X453526D01*
X452610Y298949D01*
X451790Y298475D01*
X451119Y297805D01*
X450645Y296984D01*
X450400Y296068D01*
Y295121D01*
X450645Y294205D01*
X451119Y293384D01*
X451790Y292714D01*
X452610Y292240D01*
X453526Y291995D01*
X454474D01*
X455389Y292240D01*
X456211Y292714D01*
X456680Y293184D01*
X457480Y292900D01*
Y288288D01*
X456680Y288005D01*
X456211Y288475D01*
X455389Y288949D01*
X454474Y289194D01*
X454072D01*
X453976Y289235D01*
X453603Y289240D01*
X453267Y289262D01*
X452957Y289300D01*
X452672Y289353D01*
X452412Y289421D01*
X452178Y289502D01*
X451968Y289597D01*
X451781Y289703D01*
X451616Y289821D01*
X451449Y289970D01*
X451414Y289983D01*
X442275Y299122D01*
Y311752D01*
X442500Y312296D01*
Y312893D01*
X442272Y313444D01*
X441850Y313866D01*
X441298Y314094D01*
X440702D01*
X440218Y313894D01*
X439875Y314016D01*
X439418Y314265D01*
Y340541D01*
X439441Y340593D01*
X439443Y340675D01*
X439449Y340735D01*
X439458Y340787D01*
X439469Y340834D01*
X439482Y340874D01*
X439497Y340910D01*
X439514Y340942D01*
X439533Y340971D01*
X439555Y340999D01*
X439595Y341042D01*
X439630Y341135D01*
X439772Y341276D01*
X440000Y341828D01*
Y342424D01*
X439772Y342976D01*
X439350Y343398D01*
X438798Y343626D01*
X438202D01*
X437650Y343398D01*
X437509Y343256D01*
X437416Y343221D01*
X437373Y343181D01*
X437345Y343159D01*
X437316Y343140D01*
X437284Y343123D01*
X437248Y343108D01*
X437208Y343095D01*
X437161Y343084D01*
X437109Y343075D01*
X437049Y343069D01*
X436967Y343067D01*
X436915Y343044D01*
X434536D01*
X433204Y344375D01*
X432907Y344574D01*
X432555Y344644D01*
X410249D01*
X407765Y347128D01*
X407467Y347326D01*
X407116Y347396D01*
X238175D01*
X238170Y347403D01*
X237902Y348196D01*
X238381Y348675D01*
X238855Y349496D01*
X239100Y350412D01*
Y351360D01*
X238855Y352275D01*
X238381Y353096D01*
X237710Y353766D01*
X236890Y354240D01*
X235974Y354486D01*
D02*
G37*
G36*
X552664Y344835D02*
X551336D01*
X550034Y344576D01*
X548807Y344068D01*
X547703Y343330D01*
X546765Y342391D01*
X546027Y341287D01*
X545519Y340060D01*
X545260Y338758D01*
Y337431D01*
X545519Y336128D01*
X546027Y334902D01*
X546765Y333798D01*
X547703Y332859D01*
X548807Y332121D01*
X550034Y331613D01*
X551336Y331354D01*
X552664D01*
X553966Y331613D01*
X555193Y332121D01*
X556297Y332859D01*
X557235Y333798D01*
X557973Y334902D01*
X558481Y336128D01*
X558740Y337431D01*
Y338758D01*
X558481Y340060D01*
X557973Y341287D01*
X557235Y342391D01*
X556297Y343330D01*
X555193Y344068D01*
X553966Y344576D01*
X552664Y344835D01*
D02*
G37*
G36*
X621635Y345386D02*
X620199D01*
X618790Y345106D01*
X617464Y344556D01*
X616269Y343758D01*
X615254Y342742D01*
X614456Y341548D01*
X613906Y340221D01*
X613626Y338813D01*
Y337376D01*
X613906Y335968D01*
X614456Y334641D01*
X615254Y333447D01*
X616269Y332431D01*
X617464Y331633D01*
X618790Y331083D01*
X620199Y330803D01*
X621635D01*
X623044Y331083D01*
X624371Y331633D01*
X625565Y332431D01*
X626581Y333447D01*
X627379Y334641D01*
X627928Y335968D01*
X628209Y337376D01*
Y338813D01*
X627928Y340221D01*
X627379Y341548D01*
X626581Y342742D01*
X625565Y343758D01*
X624371Y344556D01*
X623044Y345106D01*
X621635Y345386D01*
D02*
G37*
G36*
X464474Y319195D02*
X463526D01*
X462610Y318949D01*
X461790Y318475D01*
X461119Y317805D01*
X460645Y316984D01*
X460400Y316068D01*
Y315121D01*
X460645Y314205D01*
X461119Y313384D01*
X461790Y312714D01*
X462610Y312240D01*
X463526Y311995D01*
X464474D01*
X465389Y312240D01*
X466211Y312714D01*
X466881Y313384D01*
X467355Y314205D01*
X467600Y315121D01*
Y316068D01*
X467355Y316984D01*
X466881Y317805D01*
X466211Y318475D01*
X465389Y318949D01*
X464474Y319195D01*
D02*
G37*
G36*
Y309194D02*
X463526D01*
X462610Y308949D01*
X461790Y308475D01*
X461119Y307805D01*
X460645Y306984D01*
X460400Y306068D01*
Y305120D01*
X460645Y304205D01*
X461119Y303384D01*
X461790Y302714D01*
X462610Y302240D01*
X463526Y301994D01*
X464474D01*
X465389Y302240D01*
X466211Y302714D01*
X466881Y303384D01*
X467355Y304205D01*
X467600Y305120D01*
Y306068D01*
X467355Y306984D01*
X466881Y307805D01*
X466211Y308475D01*
X465389Y308949D01*
X464474Y309194D01*
D02*
G37*
G36*
X224474Y299195D02*
X223526D01*
X222610Y298949D01*
X221790Y298475D01*
X221119Y297805D01*
X220645Y296984D01*
X220400Y296068D01*
Y295121D01*
X220645Y294205D01*
X221119Y293384D01*
X221325Y293179D01*
X220993Y292379D01*
X219739D01*
X218605Y293513D01*
X218599Y293528D01*
X218398Y293741D01*
X218231Y293942D01*
X218087Y294143D01*
X217964Y294344D01*
X217862Y294544D01*
X217780Y294744D01*
X217718Y294944D01*
X217674Y295146D01*
X217649Y295350D01*
X217641Y295582D01*
X217600Y295672D01*
Y296068D01*
X217355Y296984D01*
X216881Y297805D01*
X216210Y298475D01*
X215390Y298949D01*
X214474Y299195D01*
X213526D01*
X212610Y298949D01*
X211790Y298475D01*
X211119Y297805D01*
X210645Y296984D01*
X210400Y296068D01*
Y295121D01*
X210645Y294205D01*
X211119Y293384D01*
X211790Y292714D01*
X212610Y292240D01*
X213526Y291995D01*
X213923D01*
X214013Y291954D01*
X214244Y291946D01*
X214449Y291920D01*
X214651Y291877D01*
X214851Y291814D01*
X215051Y291732D01*
X215251Y291631D01*
X215451Y291508D01*
X215652Y291363D01*
X215853Y291196D01*
X216066Y290996D01*
X216081Y290990D01*
X217738Y289333D01*
X217738Y289333D01*
X218317Y288946D01*
X219000Y288810D01*
X219000Y288810D01*
X220415D01*
X220660Y288010D01*
X220179Y287177D01*
X219900Y286134D01*
Y286094D01*
X224000D01*
X228100D01*
Y286134D01*
X228025Y286415D01*
X228742Y286829D01*
X231716Y283855D01*
Y255834D01*
X226081Y250199D01*
X226066Y250193D01*
X225853Y249993D01*
X225652Y249826D01*
X225451Y249681D01*
X225251Y249558D01*
X225051Y249457D01*
X224851Y249375D01*
X224651Y249312D01*
X224449Y249269D01*
X224244Y249243D01*
X224012Y249235D01*
X223923Y249195D01*
X223526D01*
X222610Y248949D01*
X221790Y248475D01*
X221119Y247805D01*
X220721Y247115D01*
X220244Y247134D01*
X219921Y247254D01*
Y250074D01*
X221185Y251338D01*
X221228Y251352D01*
X221366Y251471D01*
X221506Y251561D01*
X221684Y251647D01*
X221899Y251727D01*
X222152Y251797D01*
X222443Y251855D01*
X222764Y251900D01*
X223537Y251950D01*
X223973Y251954D01*
X224070Y251994D01*
X224474D01*
X225390Y252240D01*
X226210Y252714D01*
X226881Y253384D01*
X227355Y254205D01*
X227600Y255120D01*
Y256068D01*
X227355Y256984D01*
X226881Y257805D01*
X226210Y258475D01*
X225390Y258949D01*
X224474Y259194D01*
X223526D01*
X222610Y258949D01*
X221790Y258475D01*
X221119Y257805D01*
X220645Y256984D01*
X220400Y256068D01*
Y255664D01*
X220359Y255567D01*
X220356Y255131D01*
X220305Y254358D01*
X220261Y254037D01*
X220202Y253746D01*
X220132Y253493D01*
X220053Y253278D01*
X219967Y253101D01*
X219876Y252961D01*
X219757Y252822D01*
X219743Y252780D01*
X218181Y251217D01*
X217960Y250886D01*
X217882Y250496D01*
Y247671D01*
X217082Y247456D01*
X216881Y247805D01*
X216210Y248475D01*
X215390Y248949D01*
X214474Y249195D01*
X213526D01*
X212610Y248949D01*
X211790Y248475D01*
X211119Y247805D01*
X210645Y246984D01*
X210400Y246068D01*
Y245121D01*
X210645Y244205D01*
X211119Y243384D01*
X211790Y242714D01*
X212610Y242240D01*
X213526Y241995D01*
X214474D01*
X215390Y242240D01*
X216210Y242714D01*
X216881Y243384D01*
X217082Y243733D01*
X217882Y243518D01*
Y237671D01*
X217082Y237456D01*
X216881Y237805D01*
X216210Y238475D01*
X215390Y238949D01*
X214474Y239194D01*
X213526D01*
X212610Y238949D01*
X211790Y238475D01*
X211119Y237805D01*
X210645Y236984D01*
X210400Y236068D01*
Y235121D01*
X210645Y234205D01*
X211119Y233384D01*
X211790Y232714D01*
X212309Y232414D01*
X212094Y231614D01*
X208500D01*
X208110Y231537D01*
X207779Y231315D01*
X186578Y210114D01*
X165637D01*
X165327Y210914D01*
X165899Y211486D01*
X166458Y212455D01*
X166748Y213535D01*
Y213595D01*
X162500D01*
X158252D01*
Y213535D01*
X158542Y212455D01*
X159101Y211486D01*
X159673Y210914D01*
X159363Y210114D01*
X157500D01*
X157110Y210036D01*
X156779Y209815D01*
X155484Y208520D01*
X155442Y208507D01*
X155299Y208384D01*
X155151Y208290D01*
X154964Y208201D01*
X154736Y208118D01*
X154467Y208046D01*
X154158Y207985D01*
X153815Y207939D01*
X152993Y207887D01*
X152529Y207884D01*
X152432Y207842D01*
X152007D01*
X151053Y207587D01*
X150199Y207094D01*
X149501Y206396D01*
X149007Y205541D01*
X148752Y204588D01*
Y203601D01*
X149007Y202648D01*
X149501Y201793D01*
X150199Y201095D01*
X151053Y200602D01*
X152007Y200346D01*
X152993D01*
X153947Y200602D01*
X154801Y201095D01*
X155499Y201793D01*
X155993Y202648D01*
X156248Y203601D01*
Y204026D01*
X156289Y204123D01*
X156292Y204588D01*
X156344Y205410D01*
X156391Y205752D01*
X156451Y206061D01*
X156524Y206330D01*
X156606Y206559D01*
X156696Y206746D01*
X156790Y206893D01*
X156912Y207037D01*
X156926Y207079D01*
X157922Y208075D01*
X159363D01*
X159673Y207275D01*
X159101Y206703D01*
X158542Y205734D01*
X158252Y204654D01*
Y204594D01*
X162500D01*
X166748D01*
Y204654D01*
X166458Y205734D01*
X165899Y206703D01*
X165327Y207275D01*
X165637Y208075D01*
X187000D01*
X187390Y208153D01*
X187721Y208373D01*
X208922Y229575D01*
X211094D01*
X211309Y229188D01*
X211382Y228775D01*
X210719Y228112D01*
X210179Y227177D01*
X209900Y226134D01*
Y226095D01*
X214000D01*
X218100D01*
Y226134D01*
X217821Y227177D01*
X217281Y228112D01*
X216589Y228804D01*
X216629Y229173D01*
X216802Y229635D01*
X216890Y229653D01*
X217221Y229873D01*
X219623Y232275D01*
X219844Y232606D01*
X219921Y232996D01*
Y233934D01*
X220244Y234055D01*
X220721Y234073D01*
X221119Y233384D01*
X221790Y232714D01*
X222610Y232240D01*
X223526Y231995D01*
X224474D01*
X225390Y232240D01*
X226210Y232714D01*
X226881Y233384D01*
X227355Y234205D01*
X227600Y235121D01*
Y236068D01*
X227355Y236984D01*
X226881Y237805D01*
X226210Y238475D01*
X225390Y238949D01*
X224474Y239194D01*
X223526D01*
X222610Y238949D01*
X221790Y238475D01*
X221119Y237805D01*
X220721Y237116D01*
X220244Y237134D01*
X219921Y237255D01*
Y243934D01*
X220244Y244055D01*
X220721Y244074D01*
X221119Y243384D01*
X221790Y242714D01*
X222610Y242240D01*
X223526Y241995D01*
X223923D01*
X224012Y241954D01*
X224244Y241946D01*
X224449Y241920D01*
X224651Y241877D01*
X224851Y241814D01*
X225051Y241732D01*
X225251Y241631D01*
X225451Y241508D01*
X225652Y241363D01*
X225853Y241196D01*
X226066Y240996D01*
X226081Y240990D01*
X233216Y233855D01*
Y184834D01*
X230761Y182379D01*
X227007D01*
X226676Y183179D01*
X226881Y183384D01*
X227355Y184205D01*
X227600Y185120D01*
Y186068D01*
X227355Y186984D01*
X226881Y187805D01*
X226210Y188475D01*
X225390Y188949D01*
X224474Y189195D01*
X223526D01*
X222610Y188949D01*
X221790Y188475D01*
X221119Y187805D01*
X220645Y186984D01*
X220400Y186068D01*
Y185120D01*
X220645Y184205D01*
X221119Y183384D01*
X221324Y183179D01*
X220993Y182379D01*
X217007D01*
X216675Y183179D01*
X216881Y183384D01*
X217355Y184205D01*
X217600Y185120D01*
Y186068D01*
X217355Y186984D01*
X216881Y187805D01*
X216210Y188475D01*
X215390Y188949D01*
X214474Y189195D01*
X213526D01*
X212610Y188949D01*
X211790Y188475D01*
X211119Y187805D01*
X210645Y186984D01*
X210400Y186068D01*
Y185120D01*
X210645Y184205D01*
X211119Y183384D01*
X211325Y183179D01*
X210993Y182379D01*
X209500D01*
X209500Y182379D01*
X208817Y182243D01*
X208238Y181856D01*
X205738Y179356D01*
X205351Y178777D01*
X205216Y178094D01*
Y162594D01*
X205351Y161912D01*
X205738Y161333D01*
X209395Y157676D01*
X209401Y157661D01*
X209602Y157448D01*
X209769Y157246D01*
X209913Y157046D01*
X210036Y156845D01*
X210138Y156645D01*
X210220Y156445D01*
X210282Y156245D01*
X210326Y156043D01*
X210351Y155839D01*
X210359Y155607D01*
X210400Y155517D01*
Y155121D01*
X210645Y154205D01*
X211119Y153384D01*
X211790Y152714D01*
X212610Y152240D01*
X213526Y151995D01*
X214474D01*
X214752Y152069D01*
X214836Y152051D01*
X215046Y152090D01*
X215222Y152102D01*
X215396Y152093D01*
X215570Y152062D01*
X215747Y152010D01*
X215929Y151933D01*
X216116Y151831D01*
X216308Y151701D01*
X216506Y151542D01*
X216720Y151342D01*
X216735Y151336D01*
X218888Y149183D01*
X219467Y148796D01*
X220150Y148660D01*
X220150Y148660D01*
X220843D01*
X221175Y147860D01*
X221119Y147805D01*
X220645Y146984D01*
X220400Y146068D01*
Y145121D01*
X220645Y144205D01*
X221119Y143384D01*
X221790Y142714D01*
X222610Y142240D01*
X223526Y141995D01*
X224474D01*
X225390Y142240D01*
X226210Y142714D01*
X226881Y143384D01*
X227355Y144205D01*
X227600Y145121D01*
Y146068D01*
X227355Y146984D01*
X226881Y147805D01*
X226825Y147860D01*
X227157Y148660D01*
X385252D01*
X385375Y148537D01*
X386202Y148195D01*
X386377D01*
X398331Y136240D01*
X398331Y136240D01*
X398910Y135854D01*
X399592Y135718D01*
X399593Y135718D01*
X406583D01*
X406688Y135647D01*
X407469Y135492D01*
X411494D01*
X411498Y135491D01*
X412051Y135476D01*
X412524Y135434D01*
X412927Y135367D01*
X413259Y135278D01*
X413517Y135172D01*
X413703Y135058D01*
X413827Y134943D01*
X413904Y134828D01*
X413950Y134696D01*
X413974Y134475D01*
X414000Y134426D01*
Y130194D01*
X415395D01*
X415398Y130193D01*
X415406Y130173D01*
X415425Y130101D01*
X415443Y129998D01*
X415454Y129865D01*
X415459Y129692D01*
X415480Y129644D01*
Y122127D01*
X415459Y122081D01*
X415452Y121892D01*
X415446Y121832D01*
X415437Y121777D01*
X415427Y121735D01*
X415417Y121704D01*
X415410Y121686D01*
X415408Y121683D01*
X415395Y121668D01*
X415392Y121658D01*
X415390Y121656D01*
X415390Y121652D01*
X415365Y121581D01*
X415228Y121444D01*
X415000Y120893D01*
Y120296D01*
X415228Y119745D01*
X415650Y119323D01*
X416202Y119095D01*
X416798D01*
X417350Y119323D01*
X417772Y119745D01*
X418000Y120296D01*
Y120893D01*
X417772Y121444D01*
X417635Y121581D01*
X417610Y121652D01*
X417610Y121656D01*
X417608Y121658D01*
X417605Y121668D01*
X417592Y121683D01*
X417590Y121686D01*
X417583Y121704D01*
X417573Y121734D01*
X417563Y121777D01*
X417556Y121825D01*
X417543Y121980D01*
X417541Y122071D01*
X417520Y122120D01*
Y129644D01*
X417541Y129692D01*
X417546Y129865D01*
X417557Y129998D01*
X417575Y130101D01*
X417594Y130173D01*
X417602Y130193D01*
X417605Y130194D01*
X419000D01*
Y141795D01*
X414000D01*
Y140636D01*
X413974Y140588D01*
X413950Y140366D01*
X413904Y140235D01*
X413827Y140120D01*
X413703Y140005D01*
X413517Y139891D01*
X413259Y139785D01*
X412927Y139696D01*
X412524Y139629D01*
X412051Y139587D01*
X411498Y139573D01*
X411494Y139571D01*
X407469D01*
X406688Y139416D01*
X406495Y139286D01*
X400332D01*
X388900Y150718D01*
Y150892D01*
X388558Y151719D01*
X387925Y152352D01*
X387098Y152694D01*
X386202D01*
X385375Y152352D01*
X385252Y152229D01*
X226857D01*
X226525Y153029D01*
X226881Y153384D01*
X227355Y154205D01*
X227600Y155121D01*
Y156068D01*
X227355Y156984D01*
X226881Y157805D01*
X226210Y158475D01*
X225390Y158949D01*
X224474Y159195D01*
X223526D01*
X222610Y158949D01*
X221790Y158475D01*
X221119Y157805D01*
X220645Y156984D01*
X220400Y156068D01*
Y155121D01*
X220645Y154205D01*
X221003Y153586D01*
X220827Y152942D01*
X220668Y152703D01*
X220457Y152661D01*
X218796Y154322D01*
X218790Y154338D01*
X218590Y154546D01*
X218240Y154966D01*
X218098Y155165D01*
X217969Y155369D01*
X217855Y155573D01*
X217757Y155777D01*
X217674Y155981D01*
X217607Y156185D01*
X217549Y156407D01*
X217487Y156489D01*
X217355Y156984D01*
X216881Y157805D01*
X216210Y158475D01*
X215390Y158949D01*
X214474Y159195D01*
X214077D01*
X213987Y159235D01*
X213756Y159243D01*
X213551Y159268D01*
X213349Y159312D01*
X213149Y159375D01*
X212949Y159457D01*
X212749Y159558D01*
X212549Y159681D01*
X212348Y159826D01*
X212147Y159993D01*
X211934Y160193D01*
X211919Y160199D01*
X208784Y163334D01*
Y177355D01*
X210239Y178810D01*
X210993D01*
X211325Y178010D01*
X211119Y177805D01*
X210645Y176984D01*
X210400Y176068D01*
Y175120D01*
X210645Y174205D01*
X211119Y173384D01*
X211790Y172714D01*
X212610Y172240D01*
X213526Y171994D01*
X214474D01*
X215390Y172240D01*
X216210Y172714D01*
X216881Y173384D01*
X217355Y174205D01*
X217600Y175120D01*
Y176068D01*
X217355Y176984D01*
X216881Y177805D01*
X216675Y178010D01*
X217007Y178810D01*
X220993D01*
X221325Y178010D01*
X221119Y177805D01*
X220645Y176984D01*
X220400Y176068D01*
Y175120D01*
X220645Y174205D01*
X221119Y173384D01*
X221790Y172714D01*
X222610Y172240D01*
X223526Y171994D01*
X224474D01*
X225390Y172240D01*
X226210Y172714D01*
X226881Y173384D01*
X227355Y174205D01*
X227600Y175120D01*
Y176068D01*
X227355Y176984D01*
X226881Y177805D01*
X226675Y178010D01*
X227007Y178810D01*
X231500D01*
X232183Y178946D01*
X232762Y179333D01*
X236262Y182833D01*
X236262Y182833D01*
X236649Y183412D01*
X236784Y184095D01*
Y234594D01*
X236784Y234594D01*
X236649Y235277D01*
X236262Y235856D01*
X228605Y243513D01*
X228599Y243528D01*
X228398Y243741D01*
X228231Y243942D01*
X228087Y244143D01*
X227964Y244344D01*
X227862Y244544D01*
X227780Y244744D01*
X227718Y244944D01*
X227674Y245146D01*
X227649Y245350D01*
X227641Y245582D01*
X227635Y245595D01*
X227641Y245607D01*
X227649Y245839D01*
X227674Y246043D01*
X227718Y246245D01*
X227780Y246445D01*
X227862Y246645D01*
X227964Y246845D01*
X228087Y247046D01*
X228231Y247247D01*
X228398Y247448D01*
X228599Y247661D01*
X228605Y247676D01*
X234762Y253833D01*
X235149Y254412D01*
X235284Y255095D01*
X235284Y255095D01*
Y284594D01*
X235284Y284594D01*
X235149Y285277D01*
X234762Y285856D01*
X234762Y285856D01*
X228762Y291856D01*
X228183Y292243D01*
X227500Y292379D01*
X227007D01*
X226675Y293179D01*
X226881Y293384D01*
X227355Y294205D01*
X227600Y295121D01*
Y296068D01*
X227355Y296984D01*
X226881Y297805D01*
X226210Y298475D01*
X225390Y298949D01*
X224474Y299195D01*
D02*
G37*
G36*
X464474D02*
X463526D01*
X462610Y298949D01*
X461790Y298475D01*
X461119Y297805D01*
X460645Y296984D01*
X460400Y296068D01*
Y295121D01*
X460645Y294205D01*
X461119Y293384D01*
X461790Y292714D01*
X462610Y292240D01*
X463526Y291995D01*
X464474D01*
X465389Y292240D01*
X466211Y292714D01*
X466881Y293384D01*
X467355Y294205D01*
X467600Y295121D01*
Y296068D01*
X467355Y296984D01*
X466881Y297805D01*
X466211Y298475D01*
X465389Y298949D01*
X464474Y299195D01*
D02*
G37*
G36*
Y289194D02*
X463526D01*
X462610Y288949D01*
X461790Y288475D01*
X461119Y287805D01*
X460645Y286984D01*
X460400Y286068D01*
Y285121D01*
X460645Y284205D01*
X461119Y283384D01*
X461790Y282714D01*
X462610Y282240D01*
X463526Y281995D01*
X464474D01*
X465389Y282240D01*
X466211Y282714D01*
X466881Y283384D01*
X467355Y284205D01*
X467600Y285121D01*
Y286068D01*
X467355Y286984D01*
X466881Y287805D01*
X466211Y288475D01*
X465389Y288949D01*
X464474Y289194D01*
D02*
G37*
G36*
X214474D02*
X213526D01*
X212610Y288949D01*
X211790Y288475D01*
X211119Y287805D01*
X210645Y286984D01*
X210400Y286068D01*
Y285121D01*
X210645Y284205D01*
X211119Y283384D01*
X211790Y282714D01*
X212610Y282240D01*
X213526Y281995D01*
X214474D01*
X215390Y282240D01*
X216210Y282714D01*
X216881Y283384D01*
X217355Y284205D01*
X217600Y285121D01*
Y286068D01*
X217355Y286984D01*
X216881Y287805D01*
X216210Y288475D01*
X215390Y288949D01*
X214474Y289194D01*
D02*
G37*
G36*
X228100Y285094D02*
X224500D01*
Y281494D01*
X224540D01*
X225583Y281774D01*
X226518Y282314D01*
X227281Y283077D01*
X227821Y284012D01*
X228100Y285055D01*
Y285094D01*
D02*
G37*
G36*
X223500D02*
X219900D01*
Y285055D01*
X220179Y284012D01*
X220719Y283077D01*
X221482Y282314D01*
X222417Y281774D01*
X223460Y281494D01*
X223500D01*
Y285094D01*
D02*
G37*
G36*
X453500Y279695D02*
X453460D01*
X452418Y279415D01*
X451482Y278875D01*
X450719Y278112D01*
X450179Y277177D01*
X449900Y276134D01*
Y276095D01*
X453500D01*
Y279695D01*
D02*
G37*
G36*
X464474Y279194D02*
X463526D01*
X462610Y278949D01*
X461790Y278475D01*
X461119Y277805D01*
X460645Y276984D01*
X460400Y276068D01*
Y275120D01*
X460645Y274205D01*
X461119Y273384D01*
X461790Y272714D01*
X462610Y272240D01*
X463526Y271994D01*
X464474D01*
X465389Y272240D01*
X466211Y272714D01*
X466881Y273384D01*
X467355Y274205D01*
X467600Y275120D01*
Y276068D01*
X467355Y276984D01*
X466881Y277805D01*
X466211Y278475D01*
X465389Y278949D01*
X464474Y279194D01*
D02*
G37*
G36*
X224474D02*
X223526D01*
X222610Y278949D01*
X221790Y278475D01*
X221119Y277805D01*
X220645Y276984D01*
X220400Y276068D01*
Y275120D01*
X220645Y274205D01*
X221119Y273384D01*
X221790Y272714D01*
X222610Y272240D01*
X223526Y271994D01*
X224474D01*
X225390Y272240D01*
X226210Y272714D01*
X226881Y273384D01*
X227355Y274205D01*
X227600Y275120D01*
Y276068D01*
X227355Y276984D01*
X226881Y277805D01*
X226210Y278475D01*
X225390Y278949D01*
X224474Y279194D01*
D02*
G37*
G36*
X214474D02*
X213526D01*
X212610Y278949D01*
X211790Y278475D01*
X211119Y277805D01*
X210645Y276984D01*
X210400Y276068D01*
Y275120D01*
X210645Y274205D01*
X211119Y273384D01*
X211790Y272714D01*
X212610Y272240D01*
X213526Y271994D01*
X214474D01*
X215390Y272240D01*
X216210Y272714D01*
X216881Y273384D01*
X217355Y274205D01*
X217600Y275120D01*
Y276068D01*
X217355Y276984D01*
X216881Y277805D01*
X216210Y278475D01*
X215390Y278949D01*
X214474Y279194D01*
D02*
G37*
G36*
X453500Y275095D02*
X449900D01*
Y275055D01*
X450179Y274012D01*
X450719Y273077D01*
X451482Y272314D01*
X452418Y271774D01*
X453460Y271495D01*
X453500D01*
Y275095D01*
D02*
G37*
G36*
X162993Y277842D02*
X162007D01*
X161053Y277587D01*
X160199Y277094D01*
X159501Y276396D01*
X159007Y275541D01*
X158752Y274588D01*
Y273601D01*
X159007Y272648D01*
X159501Y271793D01*
X160199Y271095D01*
X161053Y270602D01*
X162007Y270346D01*
X162993D01*
X163947Y270602D01*
X164801Y271095D01*
X165499Y271793D01*
X165993Y272648D01*
X166248Y273601D01*
Y274588D01*
X165993Y275541D01*
X165499Y276396D01*
X164801Y277094D01*
X163947Y277587D01*
X162993Y277842D01*
D02*
G37*
G36*
X163059Y268342D02*
X163000D01*
Y264595D01*
X166748D01*
Y264654D01*
X166458Y265734D01*
X165899Y266703D01*
X165108Y267494D01*
X164140Y268053D01*
X163059Y268342D01*
D02*
G37*
G36*
X162000D02*
X161941D01*
X160860Y268053D01*
X159892Y267494D01*
X159101Y266703D01*
X158542Y265734D01*
X158252Y264654D01*
Y264595D01*
X162000D01*
Y268342D01*
D02*
G37*
G36*
X464474Y269195D02*
X463526D01*
X462610Y268949D01*
X461790Y268475D01*
X461119Y267805D01*
X460645Y266984D01*
X460400Y266068D01*
Y265121D01*
X460645Y264205D01*
X461119Y263384D01*
X461790Y262714D01*
X462610Y262240D01*
X463526Y261995D01*
X464474D01*
X465389Y262240D01*
X466211Y262714D01*
X466881Y263384D01*
X467355Y264205D01*
X467600Y265121D01*
Y266068D01*
X467355Y266984D01*
X466881Y267805D01*
X466211Y268475D01*
X465389Y268949D01*
X464474Y269195D01*
D02*
G37*
G36*
X224474D02*
X223526D01*
X222610Y268949D01*
X221790Y268475D01*
X221119Y267805D01*
X220645Y266984D01*
X220400Y266068D01*
Y265121D01*
X220645Y264205D01*
X221119Y263384D01*
X221790Y262714D01*
X222610Y262240D01*
X223526Y261995D01*
X224474D01*
X225390Y262240D01*
X226210Y262714D01*
X226881Y263384D01*
X227355Y264205D01*
X227600Y265121D01*
Y266068D01*
X227355Y266984D01*
X226881Y267805D01*
X226210Y268475D01*
X225390Y268949D01*
X224474Y269195D01*
D02*
G37*
G36*
X214474D02*
X213526D01*
X212610Y268949D01*
X211790Y268475D01*
X211119Y267805D01*
X210645Y266984D01*
X210400Y266068D01*
Y265121D01*
X210645Y264205D01*
X211119Y263384D01*
X211790Y262714D01*
X212610Y262240D01*
X213526Y261995D01*
X214474D01*
X215390Y262240D01*
X216210Y262714D01*
X216881Y263384D01*
X217355Y264205D01*
X217600Y265121D01*
Y266068D01*
X217355Y266984D01*
X216881Y267805D01*
X216210Y268475D01*
X215390Y268949D01*
X214474Y269195D01*
D02*
G37*
G36*
X152993Y267843D02*
X152007D01*
X151053Y267587D01*
X150199Y267094D01*
X149501Y266396D01*
X149007Y265541D01*
X148752Y264588D01*
Y263601D01*
X149007Y262648D01*
X149501Y261793D01*
X150199Y261095D01*
X151053Y260602D01*
X152007Y260347D01*
X152993D01*
X153947Y260602D01*
X154801Y261095D01*
X155499Y261793D01*
X155993Y262648D01*
X156248Y263601D01*
Y264588D01*
X155993Y265541D01*
X155499Y266396D01*
X154801Y267094D01*
X153947Y267587D01*
X152993Y267843D01*
D02*
G37*
G36*
X166748Y263595D02*
X163000D01*
Y259846D01*
X163059D01*
X164140Y260136D01*
X165108Y260695D01*
X165899Y261486D01*
X166458Y262455D01*
X166748Y263535D01*
Y263595D01*
D02*
G37*
G36*
X162000D02*
X158252D01*
Y263535D01*
X158542Y262455D01*
X159101Y261486D01*
X159892Y260695D01*
X160860Y260136D01*
X161941Y259846D01*
X162000D01*
Y263595D01*
D02*
G37*
G36*
X163059Y258343D02*
X163000D01*
Y254594D01*
X166748D01*
Y254654D01*
X166458Y255734D01*
X165899Y256703D01*
X165108Y257494D01*
X164140Y258053D01*
X163059Y258343D01*
D02*
G37*
G36*
X162000D02*
X161941D01*
X160860Y258053D01*
X159892Y257494D01*
X159101Y256703D01*
X158542Y255734D01*
X158252Y254654D01*
Y254594D01*
X162000D01*
Y258343D01*
D02*
G37*
G36*
X464474Y259194D02*
X463526D01*
X462610Y258949D01*
X461790Y258475D01*
X461119Y257805D01*
X460645Y256984D01*
X460400Y256068D01*
Y255120D01*
X460645Y254205D01*
X461119Y253384D01*
X461790Y252714D01*
X462610Y252240D01*
X463526Y251994D01*
X464474D01*
X465389Y252240D01*
X466211Y252714D01*
X466881Y253384D01*
X467355Y254205D01*
X467600Y255120D01*
Y256068D01*
X467355Y256984D01*
X466881Y257805D01*
X466211Y258475D01*
X465389Y258949D01*
X464474Y259194D01*
D02*
G37*
G36*
X214474D02*
X213526D01*
X212610Y258949D01*
X211790Y258475D01*
X211119Y257805D01*
X210645Y256984D01*
X210400Y256068D01*
Y255120D01*
X210645Y254205D01*
X211119Y253384D01*
X211790Y252714D01*
X212610Y252240D01*
X213526Y251994D01*
X214474D01*
X215390Y252240D01*
X216210Y252714D01*
X216881Y253384D01*
X217355Y254205D01*
X217600Y255120D01*
Y256068D01*
X217355Y256984D01*
X216881Y257805D01*
X216210Y258475D01*
X215390Y258949D01*
X214474Y259194D01*
D02*
G37*
G36*
X152993Y257842D02*
X152007D01*
X151053Y257587D01*
X150199Y257094D01*
X149501Y256396D01*
X149007Y255541D01*
X148752Y254588D01*
Y253601D01*
X149007Y252648D01*
X149501Y251793D01*
X150199Y251095D01*
X151053Y250602D01*
X152007Y250346D01*
X152993D01*
X153947Y250602D01*
X154801Y251095D01*
X155499Y251793D01*
X155993Y252648D01*
X156248Y253601D01*
Y254588D01*
X155993Y255541D01*
X155499Y256396D01*
X154801Y257094D01*
X153947Y257587D01*
X152993Y257842D01*
D02*
G37*
G36*
X166748Y253594D02*
X163000D01*
Y249847D01*
X163059D01*
X164140Y250136D01*
X165108Y250695D01*
X165899Y251486D01*
X166458Y252455D01*
X166748Y253535D01*
Y253594D01*
D02*
G37*
G36*
X162000D02*
X158252D01*
Y253535D01*
X158542Y252455D01*
X159101Y251486D01*
X159892Y250695D01*
X160860Y250136D01*
X161941Y249847D01*
X162000D01*
Y253594D01*
D02*
G37*
G36*
X163059Y248342D02*
X163000D01*
Y244595D01*
X166748D01*
Y244654D01*
X166458Y245734D01*
X165899Y246703D01*
X165108Y247494D01*
X164140Y248053D01*
X163059Y248342D01*
D02*
G37*
G36*
X162000D02*
X161941D01*
X160860Y248053D01*
X159892Y247494D01*
X159101Y246703D01*
X158542Y245734D01*
X158252Y244654D01*
Y244595D01*
X162000D01*
Y248342D01*
D02*
G37*
G36*
X464474Y249195D02*
X463526D01*
X462610Y248949D01*
X461790Y248475D01*
X461119Y247805D01*
X460645Y246984D01*
X460400Y246068D01*
Y245121D01*
X460645Y244205D01*
X461119Y243384D01*
X461790Y242714D01*
X462610Y242240D01*
X463526Y241995D01*
X464474D01*
X465389Y242240D01*
X466211Y242714D01*
X466881Y243384D01*
X467355Y244205D01*
X467600Y245121D01*
Y246068D01*
X467355Y246984D01*
X466881Y247805D01*
X466211Y248475D01*
X465389Y248949D01*
X464474Y249195D01*
D02*
G37*
G36*
X132419Y246673D02*
X128882D01*
X128729Y246610D01*
X128665Y246457D01*
Y240748D01*
X128729Y240595D01*
X128882Y240532D01*
X132419D01*
X132572Y240595D01*
X132635Y240748D01*
Y246457D01*
X132572Y246610D01*
X132419Y246673D01*
D02*
G37*
G36*
X152993Y247843D02*
X152007D01*
X151053Y247587D01*
X150199Y247094D01*
X149501Y246396D01*
X149007Y245541D01*
X148752Y244588D01*
Y243601D01*
X149007Y242648D01*
X149501Y241793D01*
X150199Y241095D01*
X151053Y240602D01*
X152007Y240347D01*
X152993D01*
X153947Y240602D01*
X154801Y241095D01*
X155499Y241793D01*
X155993Y242648D01*
X156248Y243601D01*
Y244588D01*
X155993Y245541D01*
X155499Y246396D01*
X154801Y247094D01*
X153947Y247587D01*
X152993Y247843D01*
D02*
G37*
G36*
X166748Y243595D02*
X163000D01*
Y239846D01*
X163059D01*
X164140Y240136D01*
X165108Y240695D01*
X165899Y241486D01*
X166458Y242455D01*
X166748Y243535D01*
Y243595D01*
D02*
G37*
G36*
X162000D02*
X158252D01*
Y243535D01*
X158542Y242455D01*
X159101Y241486D01*
X159892Y240695D01*
X160860Y240136D01*
X161941Y239846D01*
X162000D01*
Y243595D01*
D02*
G37*
G36*
X163059Y238342D02*
X163000D01*
Y234594D01*
X166748D01*
Y234654D01*
X166458Y235734D01*
X165899Y236703D01*
X165108Y237494D01*
X164140Y238053D01*
X163059Y238342D01*
D02*
G37*
G36*
X162000D02*
X161941D01*
X160860Y238053D01*
X159892Y237494D01*
X159101Y236703D01*
X158542Y235734D01*
X158252Y234654D01*
Y234594D01*
X162000D01*
Y238342D01*
D02*
G37*
G36*
X464474Y239194D02*
X463526D01*
X462610Y238949D01*
X461790Y238475D01*
X461119Y237805D01*
X460645Y236984D01*
X460400Y236068D01*
Y235121D01*
X460645Y234205D01*
X461119Y233384D01*
X461790Y232714D01*
X462610Y232240D01*
X463526Y231995D01*
X464474D01*
X465389Y232240D01*
X466211Y232714D01*
X466881Y233384D01*
X467355Y234205D01*
X467600Y235121D01*
Y236068D01*
X467355Y236984D01*
X466881Y237805D01*
X466211Y238475D01*
X465389Y238949D01*
X464474Y239194D01*
D02*
G37*
G36*
X152993Y237842D02*
X152007D01*
X151053Y237587D01*
X150199Y237094D01*
X149501Y236396D01*
X149007Y235541D01*
X148752Y234588D01*
Y233601D01*
X149007Y232648D01*
X149501Y231793D01*
X150199Y231095D01*
X151053Y230602D01*
X152007Y230346D01*
X152993D01*
X153947Y230602D01*
X154801Y231095D01*
X155499Y231793D01*
X155993Y232648D01*
X156248Y233601D01*
Y234588D01*
X155993Y235541D01*
X155499Y236396D01*
X154801Y237094D01*
X153947Y237587D01*
X152993Y237842D01*
D02*
G37*
G36*
X166748Y233594D02*
X163000D01*
Y229847D01*
X163059D01*
X164140Y230136D01*
X165108Y230695D01*
X165899Y231486D01*
X166458Y232455D01*
X166748Y233535D01*
Y233594D01*
D02*
G37*
G36*
X162000D02*
X158252D01*
Y233535D01*
X158542Y232455D01*
X159101Y231486D01*
X159892Y230695D01*
X160860Y230136D01*
X161941Y229847D01*
X162000D01*
Y233594D01*
D02*
G37*
G36*
X464540Y229695D02*
X464500D01*
Y226095D01*
X468100D01*
Y226134D01*
X467821Y227177D01*
X467281Y228112D01*
X466517Y228875D01*
X465583Y229415D01*
X464540Y229695D01*
D02*
G37*
G36*
X224540D02*
X224500D01*
Y226095D01*
X228100D01*
Y226134D01*
X227821Y227177D01*
X227281Y228112D01*
X226518Y228875D01*
X225583Y229415D01*
X224540Y229695D01*
D02*
G37*
G36*
X463500D02*
X463460D01*
X462418Y229415D01*
X461482Y228875D01*
X460719Y228112D01*
X460179Y227177D01*
X459900Y226134D01*
Y226095D01*
X463500D01*
Y229695D01*
D02*
G37*
G36*
X223500D02*
X223460D01*
X222417Y229415D01*
X221482Y228875D01*
X220719Y228112D01*
X220179Y227177D01*
X219900Y226134D01*
Y226095D01*
X223500D01*
Y229695D01*
D02*
G37*
G36*
X422642Y230407D02*
X415358D01*
X415205Y230344D01*
X415142Y230191D01*
Y224876D01*
X415205Y224723D01*
X415358Y224659D01*
X422642D01*
X422795Y224723D01*
X422858Y224876D01*
Y230191D01*
X422795Y230344D01*
X422642Y230407D01*
D02*
G37*
G36*
X163059Y228343D02*
X163000D01*
Y224594D01*
X166748D01*
Y224654D01*
X166458Y225734D01*
X165899Y226703D01*
X165108Y227494D01*
X164140Y228053D01*
X163059Y228343D01*
D02*
G37*
G36*
X162000D02*
X161941D01*
X160860Y228053D01*
X159892Y227494D01*
X159101Y226703D01*
X158542Y225734D01*
X158252Y224654D01*
Y224594D01*
X162000D01*
Y228343D01*
D02*
G37*
G36*
X454474Y229194D02*
X453526D01*
X452610Y228949D01*
X451790Y228475D01*
X451119Y227805D01*
X450645Y226984D01*
X450400Y226068D01*
Y225120D01*
X450645Y224205D01*
X451119Y223384D01*
X451790Y222714D01*
X452610Y222240D01*
X453526Y221994D01*
X454474D01*
X455389Y222240D01*
X456211Y222714D01*
X456881Y223384D01*
X457355Y224205D01*
X457600Y225120D01*
Y226068D01*
X457355Y226984D01*
X456881Y227805D01*
X456211Y228475D01*
X455389Y228949D01*
X454474Y229194D01*
D02*
G37*
G36*
X468100Y225095D02*
X464500D01*
Y221495D01*
X464540D01*
X465583Y221774D01*
X466517Y222314D01*
X467281Y223077D01*
X467821Y224012D01*
X468100Y225055D01*
Y225095D01*
D02*
G37*
G36*
X463500D02*
X459900D01*
Y225055D01*
X460179Y224012D01*
X460719Y223077D01*
X461482Y222314D01*
X462418Y221774D01*
X463460Y221495D01*
X463500D01*
Y225095D01*
D02*
G37*
G36*
X228100D02*
X224500D01*
Y221495D01*
X224540D01*
X225583Y221774D01*
X226518Y222314D01*
X227281Y223077D01*
X227821Y224012D01*
X228100Y225055D01*
Y225095D01*
D02*
G37*
G36*
X223500D02*
X219900D01*
Y225055D01*
X220179Y224012D01*
X220719Y223077D01*
X221482Y222314D01*
X222417Y221774D01*
X223460Y221495D01*
X223500D01*
Y225095D01*
D02*
G37*
G36*
X218100D02*
X214500D01*
Y221495D01*
X214540D01*
X215582Y221774D01*
X216517Y222314D01*
X217281Y223077D01*
X217821Y224012D01*
X218100Y225055D01*
Y225095D01*
D02*
G37*
G36*
X213500D02*
X209900D01*
Y225055D01*
X210179Y224012D01*
X210719Y223077D01*
X211483Y222314D01*
X212418Y221774D01*
X213460Y221495D01*
X213500D01*
Y225095D01*
D02*
G37*
G36*
X152993Y227842D02*
X152007D01*
X151053Y227587D01*
X150199Y227094D01*
X149501Y226396D01*
X149007Y225541D01*
X148752Y224588D01*
Y223601D01*
X149007Y222648D01*
X149501Y221793D01*
X150199Y221095D01*
X151053Y220602D01*
X152007Y220346D01*
X152993D01*
X153947Y220602D01*
X154801Y221095D01*
X155499Y221793D01*
X155993Y222648D01*
X156248Y223601D01*
Y224588D01*
X155993Y225541D01*
X155499Y226396D01*
X154801Y227094D01*
X153947Y227587D01*
X152993Y227842D01*
D02*
G37*
G36*
X166748Y223594D02*
X163000D01*
Y219847D01*
X163059D01*
X164140Y220136D01*
X165108Y220695D01*
X165899Y221486D01*
X166458Y222455D01*
X166748Y223535D01*
Y223594D01*
D02*
G37*
G36*
X162000D02*
X158252D01*
Y223535D01*
X158542Y222455D01*
X159101Y221486D01*
X159892Y220695D01*
X160860Y220136D01*
X161941Y219847D01*
X162000D01*
Y223594D01*
D02*
G37*
G36*
X435298Y237094D02*
X434702D01*
X434150Y236866D01*
X433728Y236444D01*
X433500Y235893D01*
Y235296D01*
X433728Y234745D01*
X433865Y234608D01*
X433890Y234537D01*
X433890Y234533D01*
X433892Y234531D01*
X433895Y234521D01*
X433908Y234506D01*
X433910Y234503D01*
X433918Y234485D01*
X433927Y234454D01*
X433937Y234412D01*
X433944Y234364D01*
X433957Y234209D01*
X433959Y234118D01*
X433980Y234069D01*
Y218114D01*
X422533D01*
X422487Y218135D01*
X422297Y218143D01*
X422237Y218149D01*
X422183Y218158D01*
X422140Y218168D01*
X422110Y218177D01*
X422092Y218184D01*
X422088Y218186D01*
X422073Y218199D01*
X422063Y218203D01*
X422061Y218204D01*
X422057Y218205D01*
X421986Y218229D01*
X421850Y218366D01*
X421298Y218595D01*
X420702D01*
X420150Y218366D01*
X419728Y217944D01*
X419500Y217393D01*
Y216796D01*
X419728Y216245D01*
X420150Y215823D01*
X420702Y215595D01*
X421298D01*
X421850Y215823D01*
X421986Y215960D01*
X422057Y215984D01*
X422061Y215985D01*
X422063Y215986D01*
X422073Y215990D01*
X422088Y216003D01*
X422092Y216005D01*
X422110Y216012D01*
X422140Y216021D01*
X422183Y216031D01*
X422231Y216039D01*
X422386Y216052D01*
X422476Y216053D01*
X422525Y216075D01*
X434414D01*
X434804Y216153D01*
X435135Y216373D01*
X435721Y216959D01*
X435942Y217290D01*
X436020Y217680D01*
Y234062D01*
X436041Y234108D01*
X436048Y234297D01*
X436055Y234357D01*
X436063Y234412D01*
X436073Y234454D01*
X436083Y234485D01*
X436090Y234503D01*
X436092Y234506D01*
X436105Y234521D01*
X436108Y234531D01*
X436109Y234533D01*
X436110Y234537D01*
X436135Y234608D01*
X436272Y234745D01*
X436500Y235296D01*
Y235893D01*
X436272Y236444D01*
X435850Y236866D01*
X435298Y237094D01*
D02*
G37*
G36*
X163059Y218342D02*
X163000D01*
Y214595D01*
X166748D01*
Y214654D01*
X166458Y215734D01*
X165899Y216703D01*
X165108Y217494D01*
X164140Y218053D01*
X163059Y218342D01*
D02*
G37*
G36*
X162000D02*
X161941D01*
X160860Y218053D01*
X159892Y217494D01*
X159101Y216703D01*
X158542Y215734D01*
X158252Y214654D01*
Y214595D01*
X162000D01*
Y218342D01*
D02*
G37*
G36*
X414769Y218622D02*
X411232D01*
X411078Y218559D01*
X411015Y218406D01*
Y212697D01*
X411078Y212544D01*
X411232Y212480D01*
X414769D01*
X414922Y212544D01*
X414985Y212697D01*
Y218406D01*
X414922Y218559D01*
X414769Y218622D01*
D02*
G37*
G36*
X464474Y219195D02*
X463526D01*
X462610Y218949D01*
X461790Y218475D01*
X461119Y217805D01*
X460645Y216984D01*
X460400Y216068D01*
Y215121D01*
X460645Y214205D01*
X461119Y213384D01*
X461790Y212714D01*
X462610Y212240D01*
X463526Y211995D01*
X464474D01*
X465389Y212240D01*
X466211Y212714D01*
X466881Y213384D01*
X467355Y214205D01*
X467600Y215121D01*
Y216068D01*
X467355Y216984D01*
X466881Y217805D01*
X466211Y218475D01*
X465389Y218949D01*
X464474Y219195D01*
D02*
G37*
G36*
X454474D02*
X453526D01*
X452610Y218949D01*
X451790Y218475D01*
X451119Y217805D01*
X450645Y216984D01*
X450400Y216068D01*
Y215121D01*
X450645Y214205D01*
X451119Y213384D01*
X451790Y212714D01*
X452610Y212240D01*
X453526Y211995D01*
X454474D01*
X455389Y212240D01*
X456211Y212714D01*
X456881Y213384D01*
X457355Y214205D01*
X457600Y215121D01*
Y216068D01*
X457355Y216984D01*
X456881Y217805D01*
X456211Y218475D01*
X455389Y218949D01*
X454474Y219195D01*
D02*
G37*
G36*
X224474D02*
X223526D01*
X222610Y218949D01*
X221790Y218475D01*
X221119Y217805D01*
X220645Y216984D01*
X220400Y216068D01*
Y215121D01*
X220645Y214205D01*
X221119Y213384D01*
X221790Y212714D01*
X222610Y212240D01*
X223526Y211995D01*
X224474D01*
X225390Y212240D01*
X226210Y212714D01*
X226881Y213384D01*
X227355Y214205D01*
X227600Y215121D01*
Y216068D01*
X227355Y216984D01*
X226881Y217805D01*
X226210Y218475D01*
X225390Y218949D01*
X224474Y219195D01*
D02*
G37*
G36*
X214474D02*
X213526D01*
X212610Y218949D01*
X211790Y218475D01*
X211119Y217805D01*
X210645Y216984D01*
X210400Y216068D01*
Y215121D01*
X210645Y214205D01*
X211119Y213384D01*
X211790Y212714D01*
X212610Y212240D01*
X213526Y211995D01*
X214474D01*
X215390Y212240D01*
X216210Y212714D01*
X216881Y213384D01*
X217355Y214205D01*
X217600Y215121D01*
Y216068D01*
X217355Y216984D01*
X216881Y217805D01*
X216210Y218475D01*
X215390Y218949D01*
X214474Y219195D01*
D02*
G37*
G36*
X152993Y217843D02*
X152007D01*
X151053Y217587D01*
X150199Y217094D01*
X149501Y216396D01*
X149007Y215541D01*
X148752Y214588D01*
Y213601D01*
X149007Y212648D01*
X149501Y211793D01*
X150199Y211095D01*
X151053Y210602D01*
X152007Y210347D01*
X152993D01*
X153947Y210602D01*
X154801Y211095D01*
X155499Y211793D01*
X155993Y212648D01*
X156248Y213601D01*
Y214588D01*
X155993Y215541D01*
X155499Y216396D01*
X154801Y217094D01*
X153947Y217587D01*
X152993Y217843D01*
D02*
G37*
G36*
X464474Y209194D02*
X463526D01*
X462610Y208949D01*
X461790Y208475D01*
X461119Y207805D01*
X460645Y206984D01*
X460400Y206068D01*
Y205120D01*
X460645Y204205D01*
X461119Y203384D01*
X461790Y202714D01*
X462610Y202240D01*
X463526Y201994D01*
X464474D01*
X465389Y202240D01*
X466211Y202714D01*
X466881Y203384D01*
X467355Y204205D01*
X467600Y205120D01*
Y206068D01*
X467355Y206984D01*
X466881Y207805D01*
X466211Y208475D01*
X465389Y208949D01*
X464474Y209194D01*
D02*
G37*
G36*
X454474D02*
X453526D01*
X452610Y208949D01*
X451790Y208475D01*
X451119Y207805D01*
X450645Y206984D01*
X450400Y206068D01*
Y205120D01*
X450645Y204205D01*
X451119Y203384D01*
X451790Y202714D01*
X452610Y202240D01*
X453526Y201994D01*
X454474D01*
X455389Y202240D01*
X456211Y202714D01*
X456881Y203384D01*
X457355Y204205D01*
X457600Y205120D01*
Y206068D01*
X457355Y206984D01*
X456881Y207805D01*
X456211Y208475D01*
X455389Y208949D01*
X454474Y209194D01*
D02*
G37*
G36*
X224474D02*
X223526D01*
X222610Y208949D01*
X221790Y208475D01*
X221119Y207805D01*
X220645Y206984D01*
X220400Y206068D01*
Y205120D01*
X220645Y204205D01*
X221119Y203384D01*
X221790Y202714D01*
X222610Y202240D01*
X223526Y201994D01*
X224474D01*
X225390Y202240D01*
X226210Y202714D01*
X226881Y203384D01*
X227355Y204205D01*
X227600Y205120D01*
Y206068D01*
X227355Y206984D01*
X226881Y207805D01*
X226210Y208475D01*
X225390Y208949D01*
X224474Y209194D01*
D02*
G37*
G36*
X214474D02*
X213526D01*
X212610Y208949D01*
X211790Y208475D01*
X211119Y207805D01*
X210645Y206984D01*
X210400Y206068D01*
Y205120D01*
X210645Y204205D01*
X211119Y203384D01*
X211790Y202714D01*
X212610Y202240D01*
X213526Y201994D01*
X214474D01*
X215390Y202240D01*
X216210Y202714D01*
X216881Y203384D01*
X217355Y204205D01*
X217600Y205120D01*
Y206068D01*
X217355Y206984D01*
X216881Y207805D01*
X216210Y208475D01*
X215390Y208949D01*
X214474Y209194D01*
D02*
G37*
G36*
X166748Y203594D02*
X163000D01*
Y199846D01*
X163059D01*
X164140Y200136D01*
X165108Y200695D01*
X165899Y201486D01*
X166458Y202455D01*
X166748Y203535D01*
Y203594D01*
D02*
G37*
G36*
X162000D02*
X158252D01*
Y203535D01*
X158542Y202455D01*
X159101Y201486D01*
X159892Y200695D01*
X160860Y200136D01*
X161941Y199846D01*
X162000D01*
Y203594D01*
D02*
G37*
G36*
X163059Y198343D02*
X163000D01*
Y194595D01*
X166748D01*
Y194654D01*
X166458Y195734D01*
X165899Y196703D01*
X165108Y197494D01*
X164140Y198053D01*
X163059Y198343D01*
D02*
G37*
G36*
X162000D02*
X161941D01*
X160860Y198053D01*
X159892Y197494D01*
X159101Y196703D01*
X158542Y195734D01*
X158252Y194654D01*
Y194595D01*
X162000D01*
Y198343D01*
D02*
G37*
G36*
X464474Y199195D02*
X463526D01*
X462610Y198949D01*
X461790Y198475D01*
X461119Y197805D01*
X460645Y196984D01*
X460400Y196068D01*
Y195121D01*
X460645Y194205D01*
X461119Y193384D01*
X461790Y192714D01*
X462610Y192240D01*
X463526Y191995D01*
X464474D01*
X465389Y192240D01*
X466211Y192714D01*
X466881Y193384D01*
X467355Y194205D01*
X467600Y195121D01*
Y196068D01*
X467355Y196984D01*
X466881Y197805D01*
X466211Y198475D01*
X465389Y198949D01*
X464474Y199195D01*
D02*
G37*
G36*
X454474D02*
X453526D01*
X452610Y198949D01*
X451790Y198475D01*
X451119Y197805D01*
X450645Y196984D01*
X450400Y196068D01*
Y195121D01*
X450645Y194205D01*
X451119Y193384D01*
X451790Y192714D01*
X452610Y192240D01*
X453526Y191995D01*
X454474D01*
X455389Y192240D01*
X456211Y192714D01*
X456881Y193384D01*
X457355Y194205D01*
X457600Y195121D01*
Y196068D01*
X457355Y196984D01*
X456881Y197805D01*
X456211Y198475D01*
X455389Y198949D01*
X454474Y199195D01*
D02*
G37*
G36*
X224474D02*
X223526D01*
X222610Y198949D01*
X221790Y198475D01*
X221119Y197805D01*
X220645Y196984D01*
X220400Y196068D01*
Y195121D01*
X220645Y194205D01*
X221119Y193384D01*
X221790Y192714D01*
X222610Y192240D01*
X223526Y191995D01*
X224474D01*
X225390Y192240D01*
X226210Y192714D01*
X226881Y193384D01*
X227355Y194205D01*
X227600Y195121D01*
Y196068D01*
X227355Y196984D01*
X226881Y197805D01*
X226210Y198475D01*
X225390Y198949D01*
X224474Y199195D01*
D02*
G37*
G36*
X214474D02*
X213526D01*
X212610Y198949D01*
X211790Y198475D01*
X211119Y197805D01*
X210645Y196984D01*
X210400Y196068D01*
Y195121D01*
X210645Y194205D01*
X211119Y193384D01*
X211790Y192714D01*
X212610Y192240D01*
X213526Y191995D01*
X214474D01*
X215390Y192240D01*
X216210Y192714D01*
X216881Y193384D01*
X217355Y194205D01*
X217600Y195121D01*
Y196068D01*
X217355Y196984D01*
X216881Y197805D01*
X216210Y198475D01*
X215390Y198949D01*
X214474Y199195D01*
D02*
G37*
G36*
X152993Y197843D02*
X152007D01*
X151053Y197587D01*
X150199Y197094D01*
X149501Y196396D01*
X149007Y195541D01*
X148752Y194588D01*
Y193601D01*
X149007Y192648D01*
X149501Y191793D01*
X150199Y191095D01*
X151053Y190602D01*
X152007Y190347D01*
X152993D01*
X153947Y190602D01*
X154801Y191095D01*
X155499Y191793D01*
X155993Y192648D01*
X156248Y193601D01*
Y194588D01*
X155993Y195541D01*
X155499Y196396D01*
X154801Y197094D01*
X153947Y197587D01*
X152993Y197843D01*
D02*
G37*
G36*
X166748Y193595D02*
X163000D01*
Y189847D01*
X163059D01*
X164140Y190136D01*
X165108Y190695D01*
X165899Y191486D01*
X166458Y192455D01*
X166748Y193535D01*
Y193595D01*
D02*
G37*
G36*
X162000D02*
X158252D01*
Y193535D01*
X158542Y192455D01*
X159101Y191486D01*
X159892Y190695D01*
X160860Y190136D01*
X161941Y189847D01*
X162000D01*
Y193595D01*
D02*
G37*
G36*
X163059Y188342D02*
X163000D01*
Y184595D01*
X166748D01*
Y184654D01*
X166458Y185734D01*
X165899Y186703D01*
X165108Y187494D01*
X164140Y188053D01*
X163059Y188342D01*
D02*
G37*
G36*
X162000D02*
X161941D01*
X160860Y188053D01*
X159892Y187494D01*
X159101Y186703D01*
X158542Y185734D01*
X158252Y184654D01*
Y184595D01*
X162000D01*
Y188342D01*
D02*
G37*
G36*
X464474Y189195D02*
X463526D01*
X462610Y188949D01*
X461790Y188475D01*
X461119Y187805D01*
X460645Y186984D01*
X460400Y186068D01*
Y185120D01*
X460645Y184205D01*
X461119Y183384D01*
X461790Y182714D01*
X462610Y182240D01*
X463526Y181994D01*
X464474D01*
X465389Y182240D01*
X466211Y182714D01*
X466881Y183384D01*
X467355Y184205D01*
X467600Y185120D01*
Y186068D01*
X467355Y186984D01*
X466881Y187805D01*
X466211Y188475D01*
X465389Y188949D01*
X464474Y189195D01*
D02*
G37*
G36*
X454474D02*
X453526D01*
X452610Y188949D01*
X451790Y188475D01*
X451119Y187805D01*
X450645Y186984D01*
X450400Y186068D01*
Y185120D01*
X450645Y184205D01*
X451119Y183384D01*
X451790Y182714D01*
X452610Y182240D01*
X453526Y181994D01*
X454474D01*
X455389Y182240D01*
X456211Y182714D01*
X456881Y183384D01*
X457355Y184205D01*
X457600Y185120D01*
Y186068D01*
X457355Y186984D01*
X456881Y187805D01*
X456211Y188475D01*
X455389Y188949D01*
X454474Y189195D01*
D02*
G37*
G36*
X152993Y187843D02*
X152007D01*
X151053Y187587D01*
X150199Y187094D01*
X149501Y186396D01*
X149007Y185541D01*
X148752Y184588D01*
Y183601D01*
X149007Y182648D01*
X149501Y181793D01*
X150199Y181095D01*
X151053Y180602D01*
X152007Y180347D01*
X152993D01*
X153947Y180602D01*
X154801Y181095D01*
X155499Y181793D01*
X155993Y182648D01*
X156248Y183601D01*
Y184588D01*
X155993Y185541D01*
X155499Y186396D01*
X154801Y187094D01*
X153947Y187587D01*
X152993Y187843D01*
D02*
G37*
G36*
X166748Y183595D02*
X163000D01*
Y179847D01*
X163059D01*
X164140Y180136D01*
X165108Y180695D01*
X165899Y181486D01*
X166458Y182455D01*
X166748Y183535D01*
Y183595D01*
D02*
G37*
G36*
X162000D02*
X158252D01*
Y183535D01*
X158542Y182455D01*
X159101Y181486D01*
X159892Y180695D01*
X160860Y180136D01*
X161941Y179847D01*
X162000D01*
Y183595D01*
D02*
G37*
G36*
X464474Y179194D02*
X463526D01*
X462610Y178949D01*
X461790Y178475D01*
X461119Y177805D01*
X460645Y176984D01*
X460400Y176068D01*
Y175120D01*
X460645Y174205D01*
X461119Y173384D01*
X461790Y172714D01*
X462610Y172240D01*
X463526Y171994D01*
X464474D01*
X465389Y172240D01*
X466211Y172714D01*
X466881Y173384D01*
X467355Y174205D01*
X467600Y175120D01*
Y176068D01*
X467355Y176984D01*
X466881Y177805D01*
X466211Y178475D01*
X465389Y178949D01*
X464474Y179194D01*
D02*
G37*
G36*
X454474D02*
X453526D01*
X452610Y178949D01*
X451790Y178475D01*
X451119Y177805D01*
X450645Y176984D01*
X450400Y176068D01*
Y175120D01*
X450645Y174205D01*
X451119Y173384D01*
X451790Y172714D01*
X452610Y172240D01*
X453526Y171994D01*
X454474D01*
X455389Y172240D01*
X456211Y172714D01*
X456881Y173384D01*
X457355Y174205D01*
X457600Y175120D01*
Y176068D01*
X457355Y176984D01*
X456881Y177805D01*
X456211Y178475D01*
X455389Y178949D01*
X454474Y179194D01*
D02*
G37*
G36*
X448000Y190795D02*
X427000D01*
Y169694D01*
X448000D01*
Y190795D01*
D02*
G37*
G36*
X426000D02*
X405000D01*
Y169694D01*
X426000D01*
Y190795D01*
D02*
G37*
G36*
X405798Y222594D02*
X405202D01*
X404650Y222366D01*
X404228Y221944D01*
X404000Y221393D01*
Y221199D01*
X403967Y221132D01*
X403965Y221129D01*
X403965Y221127D01*
X403960Y221117D01*
X403959Y221097D01*
X403958Y221093D01*
X403950Y221075D01*
X403935Y221047D01*
X403912Y221010D01*
X403883Y220971D01*
X403783Y220852D01*
X403720Y220787D01*
X403700Y220737D01*
X349578Y166614D01*
X229000D01*
X228960Y166634D01*
X228778Y166648D01*
X228615Y166683D01*
X228429Y166748D01*
X228221Y166844D01*
X227992Y166973D01*
X227746Y167137D01*
X227487Y167333D01*
X226904Y167844D01*
X226594Y168150D01*
X226496Y168190D01*
X226210Y168475D01*
X225390Y168949D01*
X224474Y169194D01*
X223526D01*
X222610Y168949D01*
X221790Y168475D01*
X221119Y167805D01*
X220645Y166984D01*
X220400Y166068D01*
Y165120D01*
X220645Y164205D01*
X221119Y163384D01*
X221790Y162714D01*
X222610Y162240D01*
X223526Y161995D01*
X224474D01*
X225390Y162240D01*
X226210Y162714D01*
X226496Y162999D01*
X226594Y163039D01*
X226904Y163345D01*
X227487Y163856D01*
X227746Y164051D01*
X227992Y164216D01*
X228221Y164345D01*
X228429Y164441D01*
X228615Y164506D01*
X228778Y164541D01*
X228960Y164555D01*
X229000Y164575D01*
X350000D01*
X350390Y164653D01*
X350721Y164874D01*
X405137Y219290D01*
X405185Y219307D01*
X405324Y219436D01*
X405371Y219474D01*
X405416Y219506D01*
X405453Y219529D01*
X405481Y219544D01*
X405499Y219552D01*
X405502Y219553D01*
X405522Y219554D01*
X405532Y219559D01*
X405534Y219560D01*
X405538Y219562D01*
X405605Y219595D01*
X405798D01*
X406350Y219823D01*
X406772Y220245D01*
X407000Y220796D01*
Y221393D01*
X406772Y221944D01*
X406350Y222366D01*
X405798Y222594D01*
D02*
G37*
G36*
X464540Y169694D02*
X464500D01*
Y166095D01*
X468100D01*
Y166134D01*
X467821Y167177D01*
X467281Y168112D01*
X466517Y168875D01*
X465583Y169415D01*
X464540Y169694D01*
D02*
G37*
G36*
X463500D02*
X463460D01*
X462418Y169415D01*
X461482Y168875D01*
X460719Y168112D01*
X460179Y167177D01*
X459900Y166134D01*
Y166095D01*
X463500D01*
Y169694D01*
D02*
G37*
G36*
X454474Y169194D02*
X453526D01*
X452610Y168949D01*
X451790Y168475D01*
X451119Y167805D01*
X450645Y166984D01*
X450400Y166068D01*
Y165120D01*
X450645Y164205D01*
X451119Y163384D01*
X451790Y162714D01*
X452610Y162240D01*
X453526Y161995D01*
X454474D01*
X455389Y162240D01*
X456211Y162714D01*
X456881Y163384D01*
X457355Y164205D01*
X457600Y165120D01*
Y166068D01*
X457355Y166984D01*
X456881Y167805D01*
X456211Y168475D01*
X455389Y168949D01*
X454474Y169194D01*
D02*
G37*
G36*
X214474D02*
X213526D01*
X212610Y168949D01*
X211790Y168475D01*
X211119Y167805D01*
X210645Y166984D01*
X210400Y166068D01*
Y165120D01*
X210645Y164205D01*
X211119Y163384D01*
X211790Y162714D01*
X212610Y162240D01*
X213526Y161995D01*
X214474D01*
X215390Y162240D01*
X216210Y162714D01*
X216881Y163384D01*
X217355Y164205D01*
X217600Y165120D01*
Y166068D01*
X217355Y166984D01*
X216881Y167805D01*
X216210Y168475D01*
X215390Y168949D01*
X214474Y169194D01*
D02*
G37*
G36*
X468100Y165094D02*
X464500D01*
Y161495D01*
X464540D01*
X465583Y161774D01*
X466517Y162314D01*
X467281Y163077D01*
X467821Y164012D01*
X468100Y165055D01*
Y165094D01*
D02*
G37*
G36*
X463500D02*
X459900D01*
Y165055D01*
X460179Y164012D01*
X460719Y163077D01*
X461482Y162314D01*
X462418Y161774D01*
X463460Y161495D01*
X463500D01*
Y165094D01*
D02*
G37*
G36*
X464474Y159195D02*
X463526D01*
X462610Y158949D01*
X461790Y158475D01*
X461119Y157805D01*
X460645Y156984D01*
X460400Y156068D01*
Y155121D01*
X460645Y154205D01*
X461119Y153384D01*
X461790Y152714D01*
X462610Y152240D01*
X463526Y151995D01*
X464474D01*
X465389Y152240D01*
X466211Y152714D01*
X466881Y153384D01*
X467355Y154205D01*
X467600Y155121D01*
Y156068D01*
X467355Y156984D01*
X466881Y157805D01*
X466211Y158475D01*
X465389Y158949D01*
X464474Y159195D01*
D02*
G37*
G36*
X454474D02*
X453526D01*
X452610Y158949D01*
X451790Y158475D01*
X451119Y157805D01*
X450645Y156984D01*
X450400Y156068D01*
Y155121D01*
X450645Y154205D01*
X451119Y153384D01*
X451790Y152714D01*
X452610Y152240D01*
X453526Y151995D01*
X454474D01*
X455389Y152240D01*
X456211Y152714D01*
X456881Y153384D01*
X457355Y154205D01*
X457600Y155121D01*
Y156068D01*
X457355Y156984D01*
X456881Y157805D01*
X456211Y158475D01*
X455389Y158949D01*
X454474Y159195D01*
D02*
G37*
G36*
X448000Y168694D02*
X427000D01*
Y147594D01*
X448000D01*
Y168694D01*
D02*
G37*
G36*
X426000D02*
X405000D01*
Y147594D01*
X426000D01*
Y168694D01*
D02*
G37*
G36*
X152752Y153921D02*
X151839D01*
X150956Y153685D01*
X150166Y153228D01*
X149520Y152583D01*
X149063Y151792D01*
X148827Y150909D01*
Y149996D01*
X149063Y149114D01*
X149520Y148323D01*
X150166Y147677D01*
X150956Y147221D01*
X151839Y146984D01*
X152752D01*
X153634Y147221D01*
X154425Y147677D01*
X155071Y148323D01*
X155527Y149114D01*
X155764Y149996D01*
Y150909D01*
X155527Y151792D01*
X155071Y152583D01*
X154425Y153228D01*
X153634Y153685D01*
X152752Y153921D01*
D02*
G37*
G36*
X127161D02*
X126248D01*
X125366Y153685D01*
X124575Y153228D01*
X123929Y152583D01*
X123473Y151792D01*
X123236Y150909D01*
Y149996D01*
X123473Y149114D01*
X123929Y148323D01*
X124575Y147677D01*
X125366Y147221D01*
X126248Y146984D01*
X127161D01*
X128043Y147221D01*
X128834Y147677D01*
X129480Y148323D01*
X129937Y149114D01*
X130173Y149996D01*
Y150909D01*
X129937Y151792D01*
X129480Y152583D01*
X128834Y153228D01*
X128043Y153685D01*
X127161Y153921D01*
D02*
G37*
G36*
X464474Y149195D02*
X463526D01*
X462610Y148949D01*
X461790Y148475D01*
X461119Y147805D01*
X460645Y146984D01*
X460400Y146068D01*
Y145121D01*
X460645Y144205D01*
X461119Y143384D01*
X461790Y142714D01*
X462610Y142240D01*
X463526Y141995D01*
X464474D01*
X465389Y142240D01*
X466211Y142714D01*
X466881Y143384D01*
X467355Y144205D01*
X467600Y145121D01*
Y146068D01*
X467355Y146984D01*
X466881Y147805D01*
X466211Y148475D01*
X465389Y148949D01*
X464474Y149195D01*
D02*
G37*
G36*
X454474D02*
X453526D01*
X452610Y148949D01*
X451790Y148475D01*
X451119Y147805D01*
X450645Y146984D01*
X450400Y146068D01*
Y145121D01*
X450645Y144205D01*
X451119Y143384D01*
X451790Y142714D01*
X452610Y142240D01*
X453526Y141995D01*
X454474D01*
X455389Y142240D01*
X456211Y142714D01*
X456881Y143384D01*
X457355Y144205D01*
X457600Y145121D01*
Y146068D01*
X457355Y146984D01*
X456881Y147805D01*
X456211Y148475D01*
X455389Y148949D01*
X454474Y149195D01*
D02*
G37*
G36*
X214474D02*
X213526D01*
X212610Y148949D01*
X211790Y148475D01*
X211119Y147805D01*
X210645Y146984D01*
X210400Y146068D01*
Y145121D01*
X210645Y144205D01*
X211119Y143384D01*
X211790Y142714D01*
X212610Y142240D01*
X213526Y141995D01*
X214474D01*
X215390Y142240D01*
X216210Y142714D01*
X216881Y143384D01*
X217355Y144205D01*
X217600Y145121D01*
Y146068D01*
X217355Y146984D01*
X216881Y147805D01*
X216210Y148475D01*
X215390Y148949D01*
X214474Y149195D01*
D02*
G37*
G36*
X429500Y142295D02*
X427000D01*
Y136495D01*
X429500D01*
Y142295D01*
D02*
G37*
G36*
X426000D02*
X423500D01*
Y136495D01*
X426000D01*
Y142295D01*
D02*
G37*
G36*
X156264Y136705D02*
X152795D01*
Y133236D01*
X156264D01*
Y136705D01*
D02*
G37*
G36*
X151795D02*
X148327D01*
Y133236D01*
X151795D01*
Y136705D01*
D02*
G37*
G36*
X464474Y139195D02*
X463526D01*
X462610Y138949D01*
X461790Y138475D01*
X461119Y137805D01*
X460645Y136984D01*
X460400Y136068D01*
Y135120D01*
X460645Y134205D01*
X461119Y133384D01*
X461790Y132714D01*
X462610Y132240D01*
X463526Y131994D01*
X464474D01*
X465389Y132240D01*
X466211Y132714D01*
X466881Y133384D01*
X467355Y134205D01*
X467600Y135120D01*
Y136068D01*
X467355Y136984D01*
X466881Y137805D01*
X466211Y138475D01*
X465389Y138949D01*
X464474Y139195D01*
D02*
G37*
G36*
X454474D02*
X453526D01*
X452610Y138949D01*
X451790Y138475D01*
X451119Y137805D01*
X450645Y136984D01*
X450400Y136068D01*
Y135120D01*
X450645Y134205D01*
X451119Y133384D01*
X451790Y132714D01*
X452610Y132240D01*
X453526Y131994D01*
X454474D01*
X455389Y132240D01*
X456211Y132714D01*
X456881Y133384D01*
X457355Y134205D01*
X457600Y135120D01*
Y136068D01*
X457355Y136984D01*
X456881Y137805D01*
X456211Y138475D01*
X455389Y138949D01*
X454474Y139195D01*
D02*
G37*
G36*
X214474D02*
X213526D01*
X212610Y138949D01*
X211790Y138475D01*
X211119Y137805D01*
X210645Y136984D01*
X210400Y136068D01*
Y135120D01*
X210645Y134205D01*
X211119Y133384D01*
X211790Y132714D01*
X212610Y132240D01*
X213526Y131994D01*
X214474D01*
X215390Y132240D01*
X216210Y132714D01*
X216881Y133384D01*
X217355Y134205D01*
X217600Y135120D01*
Y136068D01*
X217355Y136984D01*
X216881Y137805D01*
X216210Y138475D01*
X215390Y138949D01*
X214474Y139195D01*
D02*
G37*
G36*
X118298Y204594D02*
X117702D01*
X117150Y204366D01*
X116728Y203944D01*
X116500Y203393D01*
Y202796D01*
X116728Y202245D01*
X117150Y201823D01*
X117702Y201594D01*
X117902D01*
X117992Y201554D01*
X118051Y201552D01*
X118086Y201547D01*
X118120Y201540D01*
X118155Y201529D01*
X118191Y201515D01*
X118229Y201496D01*
X118269Y201471D01*
X118313Y201440D01*
X118359Y201402D01*
X118419Y201345D01*
X118472Y201325D01*
X133082Y186714D01*
Y138094D01*
X133152Y137743D01*
X133351Y137446D01*
X148851Y121946D01*
X149149Y121747D01*
X149500Y121677D01*
X211000D01*
X211351Y121747D01*
X211649Y121946D01*
X221098Y131394D01*
X221142Y131409D01*
X221268Y131514D01*
X221397Y131593D01*
X221570Y131672D01*
X221788Y131745D01*
X222049Y131809D01*
X222340Y131861D01*
X223513Y131951D01*
X223969Y131953D01*
X223969Y131953D01*
X223969Y131953D01*
X223972Y131953D01*
X224069Y131994D01*
X224474D01*
X225390Y132240D01*
X226210Y132714D01*
X226881Y133384D01*
X227355Y134205D01*
X227600Y135120D01*
Y136068D01*
X227355Y136984D01*
X226881Y137805D01*
X226210Y138475D01*
X225390Y138949D01*
X224474Y139195D01*
X223526D01*
X222610Y138949D01*
X221790Y138475D01*
X221119Y137805D01*
X220645Y136984D01*
X220400Y136068D01*
Y135664D01*
X220359Y135566D01*
X220359Y135564D01*
X220359Y135564D01*
X220359Y135564D01*
X220357Y135102D01*
X220311Y134285D01*
X220269Y133947D01*
X220215Y133643D01*
X220150Y133383D01*
X220077Y133165D01*
X219999Y132992D01*
X219920Y132862D01*
X219814Y132737D01*
X219800Y132692D01*
X210620Y123512D01*
X149880D01*
X134918Y138475D01*
Y187094D01*
X134848Y187446D01*
X134649Y187743D01*
X119769Y202623D01*
X119749Y202676D01*
X119693Y202736D01*
X119655Y202782D01*
X119624Y202825D01*
X119599Y202866D01*
X119580Y202904D01*
X119565Y202940D01*
X119554Y202975D01*
X119547Y203009D01*
X119543Y203043D01*
X119541Y203103D01*
X119500Y203193D01*
Y203393D01*
X119272Y203944D01*
X118850Y204366D01*
X118298Y204594D01*
D02*
G37*
G36*
X443968Y131878D02*
Y130157D01*
X447362D01*
Y131878D01*
X443968D01*
D02*
G37*
G36*
X411362D02*
X407969D01*
Y130157D01*
X411362D01*
Y131878D01*
D02*
G37*
G36*
X406968D02*
X403575D01*
Y130157D01*
X406968D01*
Y131878D01*
D02*
G37*
G36*
X429500Y135494D02*
X427000D01*
Y129694D01*
X429500D01*
Y135494D01*
D02*
G37*
G36*
X426000D02*
X423500D01*
Y129694D01*
X426000D01*
Y135494D01*
D02*
G37*
G36*
X127161Y136205D02*
X126248D01*
X125366Y135968D01*
X124575Y135512D01*
X123929Y134866D01*
X123473Y134075D01*
X123236Y133193D01*
Y132280D01*
X123473Y131397D01*
X123929Y130606D01*
X124575Y129961D01*
X125366Y129504D01*
X126248Y129268D01*
X127161D01*
X128043Y129504D01*
X128834Y129961D01*
X129480Y130606D01*
X129937Y131397D01*
X130173Y132280D01*
Y133193D01*
X129937Y134075D01*
X129480Y134866D01*
X128834Y135512D01*
X128043Y135968D01*
X127161Y136205D01*
D02*
G37*
G36*
X156264Y132236D02*
X152795D01*
Y128768D01*
X156264D01*
Y132236D01*
D02*
G37*
G36*
X151795D02*
X148327D01*
Y128768D01*
X151795D01*
Y132236D01*
D02*
G37*
G36*
X447362Y129157D02*
X443968D01*
Y127437D01*
X447362D01*
Y129157D01*
D02*
G37*
G36*
X411362D02*
X407969D01*
Y127437D01*
X411362D01*
Y129157D01*
D02*
G37*
G36*
X406968D02*
X403575D01*
Y127437D01*
X406968D01*
Y129157D01*
D02*
G37*
G36*
X222540Y119694D02*
X222500D01*
Y116095D01*
X226100D01*
Y116134D01*
X225821Y117177D01*
X225281Y118112D01*
X224517Y118875D01*
X223583Y119415D01*
X222540Y119694D01*
D02*
G37*
G36*
X221500D02*
X221460D01*
X220417Y119415D01*
X219482Y118875D01*
X218719Y118112D01*
X218179Y117177D01*
X217900Y116134D01*
Y116095D01*
X221500D01*
Y119694D01*
D02*
G37*
G36*
X321664Y128205D02*
X320336D01*
X319034Y127946D01*
X317807Y127438D01*
X316703Y126700D01*
X315765Y125761D01*
X315027Y124657D01*
X314519Y123431D01*
X314260Y122128D01*
Y120801D01*
X314519Y119499D01*
X315027Y118272D01*
X315765Y117168D01*
X316703Y116229D01*
X317807Y115491D01*
X319034Y114983D01*
X320336Y114724D01*
X321664D01*
X322966Y114983D01*
X324193Y115491D01*
X325297Y116229D01*
X326235Y117168D01*
X326973Y118272D01*
X327481Y119499D01*
X327740Y120801D01*
Y122128D01*
X327481Y123431D01*
X326973Y124657D01*
X326235Y125761D01*
X325297Y126700D01*
X324193Y127438D01*
X322966Y127946D01*
X321664Y128205D01*
D02*
G37*
G36*
X252801Y128756D02*
X251365D01*
X249956Y128476D01*
X248629Y127926D01*
X247435Y127128D01*
X246419Y126112D01*
X245621Y124918D01*
X245072Y123591D01*
X244791Y122183D01*
Y120746D01*
X245072Y119338D01*
X245621Y118011D01*
X246419Y116817D01*
X247435Y115801D01*
X248629Y115003D01*
X249956Y114453D01*
X251365Y114173D01*
X252801D01*
X254209Y114453D01*
X255536Y115003D01*
X256731Y115801D01*
X257746Y116817D01*
X258544Y118011D01*
X259094Y119338D01*
X259374Y120746D01*
Y122183D01*
X259094Y123591D01*
X258544Y124918D01*
X257746Y126112D01*
X256731Y127128D01*
X255536Y127926D01*
X254209Y128476D01*
X252801Y128756D01*
D02*
G37*
G36*
X552664Y127512D02*
X551336D01*
X550034Y127253D01*
X548807Y126745D01*
X547703Y126007D01*
X546765Y125068D01*
X546027Y123964D01*
X545519Y122738D01*
X545260Y121435D01*
Y120108D01*
X545519Y118806D01*
X546027Y117579D01*
X546765Y116475D01*
X547703Y115536D01*
X548807Y114799D01*
X550034Y114290D01*
X551336Y114032D01*
X552664D01*
X553966Y114290D01*
X555193Y114799D01*
X556297Y115536D01*
X557235Y116475D01*
X557973Y117579D01*
X558481Y118806D01*
X558740Y120108D01*
Y121435D01*
X558481Y122738D01*
X557973Y123964D01*
X557235Y125068D01*
X556297Y126007D01*
X555193Y126745D01*
X553966Y127253D01*
X552664Y127512D01*
D02*
G37*
G36*
X483801Y128063D02*
X482365D01*
X480956Y127783D01*
X479629Y127233D01*
X478435Y126435D01*
X477419Y125420D01*
X476621Y124225D01*
X476072Y122898D01*
X475791Y121490D01*
Y120054D01*
X476072Y118645D01*
X476621Y117318D01*
X477419Y116124D01*
X478435Y115108D01*
X479629Y114310D01*
X480956Y113760D01*
X482365Y113480D01*
X483801D01*
X485210Y113760D01*
X486536Y114310D01*
X487731Y115108D01*
X488746Y116124D01*
X489544Y117318D01*
X490094Y118645D01*
X490374Y120054D01*
Y121490D01*
X490094Y122898D01*
X489544Y124225D01*
X488746Y125420D01*
X487731Y126435D01*
X486536Y127233D01*
X485210Y127783D01*
X483801Y128063D01*
D02*
G37*
G36*
X212474Y119194D02*
X211526D01*
X210610Y118949D01*
X209790Y118475D01*
X209119Y117805D01*
X208645Y116984D01*
X208400Y116068D01*
Y115120D01*
X208645Y114205D01*
X209119Y113384D01*
X209790Y112714D01*
X210610Y112240D01*
X211526Y111995D01*
X212474D01*
X213390Y112240D01*
X214210Y112714D01*
X214881Y113384D01*
X215355Y114205D01*
X215600Y115120D01*
Y116068D01*
X215355Y116984D01*
X214881Y117805D01*
X214210Y118475D01*
X213390Y118949D01*
X212474Y119194D01*
D02*
G37*
G36*
X202474D02*
X201526D01*
X200610Y118949D01*
X199790Y118475D01*
X199119Y117805D01*
X198645Y116984D01*
X198400Y116068D01*
Y115120D01*
X198645Y114205D01*
X199119Y113384D01*
X199790Y112714D01*
X200610Y112240D01*
X201526Y111995D01*
X202474D01*
X203390Y112240D01*
X204210Y112714D01*
X204881Y113384D01*
X205355Y114205D01*
X205600Y115120D01*
Y116068D01*
X205355Y116984D01*
X204881Y117805D01*
X204210Y118475D01*
X203390Y118949D01*
X202474Y119194D01*
D02*
G37*
G36*
X226100Y115094D02*
X222500D01*
Y111495D01*
X222540D01*
X223583Y111774D01*
X224517Y112314D01*
X225281Y113077D01*
X225821Y114012D01*
X226100Y115055D01*
Y115094D01*
D02*
G37*
G36*
X221500D02*
X217900D01*
Y115055D01*
X218179Y114012D01*
X218719Y113077D01*
X219482Y112314D01*
X220417Y111774D01*
X221460Y111495D01*
X221500D01*
Y115094D01*
D02*
G37*
G36*
X418150Y95976D02*
X415650D01*
Y93126D01*
X418150D01*
Y95976D01*
D02*
G37*
G36*
Y92126D02*
X415650D01*
Y89276D01*
X418150D01*
Y92126D01*
D02*
G37*
G36*
X428051Y77872D02*
X422894D01*
X422879Y77866D01*
X422874Y77868D01*
X422874Y77868D01*
X422850D01*
X422819Y77855D01*
X422788Y77861D01*
X422768Y77858D01*
X422762Y77854D01*
X422744Y77857D01*
X422744Y77857D01*
X422705Y77850D01*
X422662Y77821D01*
X422610Y77821D01*
X422610Y77821D01*
X422571Y77806D01*
X422571Y77806D01*
X422571Y77806D01*
X422571Y77806D01*
X422551Y77798D01*
X422543Y77790D01*
X422535Y77790D01*
X422535Y77790D01*
X422515Y77782D01*
X422513Y77780D01*
X422510Y77779D01*
X422494Y77772D01*
X422465Y77738D01*
X422422Y77732D01*
X422422Y77732D01*
X422403Y77720D01*
X422398Y77714D01*
X422392Y77713D01*
X422376Y77701D01*
X422371Y77693D01*
X422356Y77689D01*
X422341Y77677D01*
X422332Y77663D01*
X422325Y77661D01*
X422325Y77661D01*
X422309Y77649D01*
X422300Y77634D01*
X422283Y77627D01*
X422267Y77611D01*
X422267Y77611D01*
X422259Y77592D01*
X422239Y77584D01*
X422239Y77584D01*
X422227Y77571D01*
X422224Y77568D01*
X422214Y77549D01*
X422201Y77541D01*
X422201Y77541D01*
X422189Y77526D01*
X422179Y77513D01*
X422173Y77510D01*
X422173Y77509D01*
X422161Y77494D01*
X422061Y77380D01*
X422030Y77347D01*
X421940Y77257D01*
X421725Y77105D01*
X421689Y77085D01*
X421648Y77065D01*
X421414Y76957D01*
X421299Y76928D01*
X421208Y76910D01*
X421190Y76909D01*
X418500D01*
Y74689D01*
Y72469D01*
X421178D01*
X421894Y72469D01*
X421979Y71704D01*
Y69732D01*
X421984Y69718D01*
X421982Y69713D01*
X421982Y69713D01*
Y69689D01*
X421995Y69658D01*
X421989Y69626D01*
X421993Y69607D01*
X421997Y69601D01*
X421993Y69583D01*
X421993Y69583D01*
X422001Y69543D01*
X422030Y69500D01*
X422029Y69449D01*
X422029Y69449D01*
X422045Y69409D01*
X422045Y69409D01*
X422045Y69409D01*
X422045Y69409D01*
X422053Y69389D01*
X422061Y69381D01*
X422060Y69374D01*
X422061Y69374D01*
X422068Y69354D01*
X422071Y69352D01*
X422071Y69349D01*
X422079Y69333D01*
X422112Y69304D01*
X422119Y69261D01*
X422119Y69261D01*
X422130Y69241D01*
X422136Y69237D01*
X422138Y69230D01*
X422150Y69215D01*
X422158Y69210D01*
X422161Y69195D01*
X422173Y69179D01*
X422187Y69171D01*
X422189Y69163D01*
X422189Y69163D01*
X422201Y69148D01*
X422217Y69138D01*
X422224Y69121D01*
X422224Y69121D01*
X422239Y69105D01*
X422239Y69105D01*
X422259Y69097D01*
X422267Y69078D01*
X422267Y69078D01*
X422283Y69062D01*
X422283Y69062D01*
X422300Y69055D01*
X422309Y69039D01*
X422325Y69028D01*
X422325Y69028D01*
X422332Y69026D01*
X422341Y69012D01*
X422356Y69000D01*
X422371Y68996D01*
X422376Y68988D01*
X422392Y68977D01*
X422398Y68975D01*
X422403Y68969D01*
X422422Y68957D01*
X422422Y68957D01*
X422465Y68951D01*
X422494Y68917D01*
X422510Y68910D01*
X422513Y68909D01*
X422516Y68907D01*
X422535Y68899D01*
X422535Y68899D01*
X422543Y68899D01*
X422551Y68891D01*
X422570Y68883D01*
X422571Y68883D01*
X422571Y68883D01*
X422571Y68883D01*
X422590Y68875D01*
X422610Y68868D01*
X422610Y68868D01*
X422662Y68868D01*
X422705Y68839D01*
X422744Y68831D01*
X422744Y68831D01*
X422762Y68835D01*
X422768Y68831D01*
X422788Y68828D01*
X422819Y68834D01*
X422850Y68821D01*
X422874D01*
X422874Y68821D01*
X422879Y68823D01*
X422894Y68817D01*
X428051D01*
X428066Y68823D01*
X428071Y68821D01*
X428071Y68821D01*
X428094D01*
X428126Y68834D01*
X428157Y68828D01*
X428177Y68831D01*
X428182Y68835D01*
X428201Y68831D01*
X428201Y68831D01*
X428220Y68836D01*
X428240Y68839D01*
X428283Y68868D01*
X428335Y68868D01*
X428335Y68868D01*
X428374Y68883D01*
X428374Y68883D01*
X428374Y68883D01*
X428374Y68883D01*
X428394Y68891D01*
X428402Y68899D01*
X428410Y68899D01*
X428410Y68899D01*
X428429Y68907D01*
X428432Y68909D01*
X428435Y68910D01*
X428451Y68917D01*
X428479Y68951D01*
X428522Y68957D01*
X428522Y68957D01*
X428542Y68969D01*
X428547Y68975D01*
X428553Y68977D01*
X428569Y68989D01*
X428574Y68996D01*
X428588Y69000D01*
X428604Y69012D01*
X428612Y69026D01*
X428620Y69028D01*
X428620Y69028D01*
X428636Y69039D01*
X428645Y69055D01*
X428662Y69062D01*
X428662Y69062D01*
X428678Y69078D01*
X428678Y69078D01*
X428686Y69097D01*
X428706Y69105D01*
X428706Y69105D01*
X428721Y69121D01*
X428721Y69121D01*
X428728Y69138D01*
X428744Y69148D01*
X428756Y69163D01*
X428756Y69163D01*
X428758Y69171D01*
X428772Y69179D01*
X428783Y69195D01*
X428787Y69210D01*
X428795Y69214D01*
X428807Y69230D01*
X428808Y69237D01*
X428815Y69241D01*
X428826Y69261D01*
X428826Y69261D01*
X428833Y69304D01*
X428866Y69333D01*
X428874Y69349D01*
X428874Y69352D01*
X428877Y69354D01*
X428884Y69374D01*
X428885Y69374D01*
X428884Y69381D01*
X428892Y69389D01*
X428900Y69409D01*
X428900Y69409D01*
X428900Y69409D01*
X428900Y69409D01*
X428908Y69429D01*
X428916Y69448D01*
X428916Y69448D01*
X428915Y69500D01*
X428944Y69544D01*
X428952Y69583D01*
X428952Y69583D01*
X428948Y69601D01*
X428952Y69606D01*
X428956Y69626D01*
X428950Y69658D01*
X428963Y69689D01*
Y69713D01*
X428963Y69713D01*
X428960Y69718D01*
X428966Y69732D01*
Y76957D01*
X428960Y76971D01*
X428963Y76976D01*
X428963Y76976D01*
Y77000D01*
X428950Y77031D01*
X428956Y77063D01*
X428952Y77083D01*
X428948Y77088D01*
X428952Y77106D01*
X428952Y77106D01*
X428948Y77126D01*
X428944Y77145D01*
X428915Y77188D01*
X428916Y77241D01*
X428916Y77241D01*
X428900Y77280D01*
X428900Y77280D01*
X428900Y77280D01*
X428900Y77280D01*
X428892Y77300D01*
X428884Y77308D01*
X428884Y77315D01*
X428884Y77315D01*
X428876Y77335D01*
X428874Y77337D01*
X428874Y77340D01*
X428866Y77356D01*
X428833Y77385D01*
X428826Y77428D01*
X428826Y77428D01*
X428815Y77448D01*
X428809Y77452D01*
X428807Y77459D01*
X428795Y77474D01*
X428787Y77479D01*
X428783Y77494D01*
X428772Y77510D01*
X428758Y77518D01*
X428756Y77526D01*
X428756Y77526D01*
X428744Y77541D01*
X428728Y77551D01*
X428721Y77568D01*
X428721Y77568D01*
X428705Y77583D01*
X428705Y77584D01*
X428686Y77592D01*
X428678Y77611D01*
X428678Y77611D01*
X428662Y77627D01*
X428662Y77627D01*
X428645Y77634D01*
X428636Y77649D01*
X428620Y77661D01*
X428620Y77661D01*
X428612Y77663D01*
X428604Y77677D01*
X428588Y77689D01*
X428574Y77693D01*
X428569Y77701D01*
X428553Y77712D01*
X428546Y77714D01*
X428542Y77720D01*
X428522Y77732D01*
X428522Y77732D01*
X428479Y77738D01*
X428451Y77772D01*
X428435Y77779D01*
X428432Y77780D01*
X428429Y77782D01*
X428410Y77790D01*
X428410Y77790D01*
X428402Y77790D01*
X428394Y77798D01*
X428374Y77806D01*
X428374Y77806D01*
X428374Y77806D01*
X428374Y77806D01*
X428355Y77814D01*
X428355Y77814D01*
X428335Y77821D01*
X428335Y77821D01*
X428283Y77821D01*
X428240Y77850D01*
X428201Y77857D01*
X428201Y77858D01*
X428182Y77854D01*
X428177Y77858D01*
X428157Y77861D01*
X428125Y77855D01*
X428094Y77868D01*
X428071D01*
X428071Y77868D01*
X428066Y77866D01*
X428051Y77872D01*
D02*
G37*
G36*
X296882Y90732D02*
X283882D01*
Y75783D01*
X296882D01*
Y90732D01*
D02*
G37*
G36*
X282882D02*
X269882D01*
Y75783D01*
X282882D01*
Y90732D01*
D02*
G37*
G36*
X410000Y76909D02*
X406606D01*
Y75189D01*
X410000D01*
Y76909D01*
D02*
G37*
G36*
Y74189D02*
X406606D01*
Y72469D01*
X410000D01*
Y74189D01*
D02*
G37*
G36*
X417500Y76909D02*
X411000D01*
Y74689D01*
Y72469D01*
X417500D01*
Y74689D01*
Y76909D01*
D02*
G37*
%LPD*%
G36*
X443503Y343027D02*
X443515Y342968D01*
X443534Y342906D01*
X443561Y342842D01*
X443596Y342776D01*
X443639Y342708D01*
X443690Y342637D01*
X443749Y342564D01*
X443890Y342411D01*
X443183Y341704D01*
X443106Y341779D01*
X442957Y341904D01*
X442887Y341955D01*
X442818Y341998D01*
X442752Y342033D01*
X442688Y342061D01*
X442626Y342080D01*
X442567Y342091D01*
X442510Y342094D01*
X443500Y343085D01*
X443503Y343027D01*
D02*
G37*
G36*
X437786Y341426D02*
X437725Y341483D01*
X437660Y341534D01*
X437590Y341579D01*
X437516Y341618D01*
X437438Y341651D01*
X437356Y341678D01*
X437269Y341699D01*
X437178Y341714D01*
X437083Y341723D01*
X436983Y341726D01*
Y342526D01*
X437083Y342529D01*
X437178Y342538D01*
X437269Y342553D01*
X437356Y342574D01*
X437438Y342601D01*
X437516Y342634D01*
X437590Y342673D01*
X437660Y342718D01*
X437725Y342769D01*
X437786Y342826D01*
Y341426D01*
D02*
G37*
G36*
X439143Y341351D02*
X439092Y341286D01*
X439047Y341216D01*
X439008Y341142D01*
X438975Y341064D01*
X438948Y340982D01*
X438927Y340895D01*
X438912Y340804D01*
X438903Y340709D01*
X438900Y340610D01*
X438100D01*
X438097Y340709D01*
X438088Y340804D01*
X438073Y340895D01*
X438052Y340982D01*
X438025Y341064D01*
X437992Y341142D01*
X437953Y341216D01*
X437908Y341286D01*
X437857Y341351D01*
X437800Y341412D01*
X439200D01*
X439143Y341351D01*
D02*
G37*
G36*
X431786Y340394D02*
X431725Y340452D01*
X431660Y340503D01*
X431590Y340547D01*
X431516Y340586D01*
X431438Y340619D01*
X431356Y340647D01*
X431269Y340668D01*
X431178Y340683D01*
X431083Y340691D01*
X430983Y340694D01*
Y341494D01*
X431083Y341497D01*
X431178Y341507D01*
X431269Y341522D01*
X431356Y341543D01*
X431438Y341569D01*
X431516Y341602D01*
X431590Y341641D01*
X431660Y341687D01*
X431725Y341738D01*
X431786Y341794D01*
Y340394D01*
D02*
G37*
G36*
X433503Y341001D02*
X433513Y340919D01*
X433530Y340838D01*
X433555Y340758D01*
X433587Y340680D01*
X433626Y340602D01*
X433672Y340526D01*
X433726Y340451D01*
X433787Y340377D01*
X433855Y340305D01*
X433289Y339739D01*
X433217Y339808D01*
X433143Y339868D01*
X433068Y339922D01*
X432992Y339969D01*
X432915Y340008D01*
X432836Y340040D01*
X432757Y340064D01*
X432676Y340082D01*
X432593Y340092D01*
X432510Y340094D01*
X433500Y341085D01*
X433503Y341001D01*
D02*
G37*
G36*
X415143Y313693D02*
X415092Y313628D01*
X415047Y313559D01*
X415008Y313485D01*
X414975Y313407D01*
X414948Y313324D01*
X414927Y313238D01*
X414912Y313147D01*
X414903Y313052D01*
X414900Y312952D01*
X414100D01*
X414097Y313052D01*
X414088Y313147D01*
X414073Y313238D01*
X414052Y313324D01*
X414025Y313407D01*
X413992Y313485D01*
X413953Y313559D01*
X413908Y313628D01*
X413857Y313693D01*
X413800Y313754D01*
X415200D01*
X415143Y313693D01*
D02*
G37*
G36*
X414417Y306140D02*
X414349Y306068D01*
X414228Y305923D01*
X414177Y305849D01*
X414130Y305774D01*
X414089Y305699D01*
X414053Y305622D01*
X414023Y305545D01*
X413998Y305467D01*
X413978Y305388D01*
X413226Y306569D01*
X413305Y306555D01*
X413383Y306550D01*
X413461Y306555D01*
X413538Y306569D01*
X413615Y306591D01*
X413691Y306624D01*
X413767Y306665D01*
X413841Y306715D01*
X413916Y306775D01*
X413989Y306844D01*
X414417Y306140D01*
D02*
G37*
G36*
X412283Y306881D02*
X412357Y306820D01*
X412432Y306767D01*
X412508Y306720D01*
X412585Y306681D01*
X412664Y306649D01*
X412743Y306625D01*
X412824Y306607D01*
X412907Y306597D01*
X412990Y306594D01*
X412000Y305605D01*
X411997Y305688D01*
X411987Y305770D01*
X411970Y305851D01*
X411945Y305931D01*
X411913Y306009D01*
X411874Y306087D01*
X411828Y306163D01*
X411774Y306238D01*
X411713Y306311D01*
X411645Y306384D01*
X412211Y306950D01*
X412283Y306881D01*
D02*
G37*
G36*
X451278Y289398D02*
X451489Y289246D01*
X451722Y289113D01*
X451977Y288999D01*
X452255Y288902D01*
X452554Y288824D01*
X452875Y288765D01*
X453218Y288723D01*
X453582Y288700D01*
X453969Y288694D01*
X450900Y285626D01*
X450895Y286012D01*
X450830Y286720D01*
X450770Y287041D01*
X450692Y287340D01*
X450596Y287617D01*
X450481Y287872D01*
X450348Y288106D01*
X450197Y288317D01*
X450028Y288506D01*
X451088Y289567D01*
X451278Y289398D01*
D02*
G37*
G36*
X451786Y253425D02*
X451447Y253761D01*
X450518Y254557D01*
X450239Y254752D01*
X449974Y254911D01*
X449725Y255035D01*
X449490Y255124D01*
X449270Y255177D01*
X449066Y255194D01*
Y255995D01*
X449270Y256012D01*
X449490Y256065D01*
X449725Y256154D01*
X449974Y256278D01*
X450239Y256437D01*
X450518Y256632D01*
X450813Y256862D01*
X451447Y257428D01*
X451786Y257765D01*
Y253425D01*
D02*
G37*
G36*
X434286Y244394D02*
X434225Y244451D01*
X434160Y244502D01*
X434090Y244548D01*
X434016Y244586D01*
X433938Y244619D01*
X433856Y244647D01*
X433769Y244668D01*
X433678Y244683D01*
X433583Y244691D01*
X433484Y244694D01*
Y245495D01*
X433583Y245497D01*
X433678Y245507D01*
X433769Y245521D01*
X433856Y245543D01*
X433938Y245569D01*
X434016Y245602D01*
X434090Y245641D01*
X434160Y245687D01*
X434225Y245738D01*
X434286Y245795D01*
Y244394D01*
D02*
G37*
G36*
X114903Y241512D02*
X114912Y241416D01*
X114927Y241325D01*
X114948Y241239D01*
X114975Y241156D01*
X115008Y241078D01*
X115047Y241004D01*
X115092Y240935D01*
X115143Y240870D01*
X115200Y240809D01*
X113800D01*
X113857Y240870D01*
X113908Y240935D01*
X113953Y241004D01*
X113992Y241078D01*
X114025Y241156D01*
X114052Y241239D01*
X114073Y241325D01*
X114088Y241416D01*
X114097Y241512D01*
X114100Y241611D01*
X114900D01*
X114903Y241512D01*
D02*
G37*
G36*
X418286Y239394D02*
X418225Y239452D01*
X418160Y239503D01*
X418090Y239547D01*
X418016Y239586D01*
X417938Y239619D01*
X417856Y239647D01*
X417769Y239668D01*
X417678Y239683D01*
X417583Y239691D01*
X417484Y239694D01*
Y240494D01*
X417583Y240497D01*
X417678Y240507D01*
X417769Y240522D01*
X417856Y240543D01*
X417938Y240569D01*
X418016Y240602D01*
X418090Y240641D01*
X418160Y240686D01*
X418225Y240738D01*
X418286Y240794D01*
Y239394D01*
D02*
G37*
G36*
X457832Y238720D02*
X457689Y238552D01*
X457561Y238354D01*
X457449Y238124D01*
X457352Y237862D01*
X457271Y237568D01*
X457206Y237243D01*
X457156Y236886D01*
X457103Y236077D01*
X457100Y235626D01*
X454031Y238694D01*
X454483Y238697D01*
X455292Y238750D01*
X455648Y238800D01*
X455974Y238866D01*
X456267Y238947D01*
X456529Y239043D01*
X456759Y239156D01*
X456958Y239283D01*
X457125Y239427D01*
X457832Y238720D01*
D02*
G37*
G36*
X403855Y235884D02*
X403787Y235811D01*
X403726Y235738D01*
X403672Y235663D01*
X403626Y235587D01*
X403587Y235509D01*
X403555Y235431D01*
X403530Y235351D01*
X403513Y235270D01*
X403503Y235188D01*
X403500Y235104D01*
X402510Y236094D01*
X402593Y236097D01*
X402676Y236107D01*
X402757Y236125D01*
X402836Y236149D01*
X402915Y236181D01*
X402992Y236220D01*
X403068Y236267D01*
X403143Y236320D01*
X403217Y236381D01*
X403290Y236450D01*
X403855Y235884D01*
D02*
G37*
G36*
X418355Y235384D02*
X418287Y235312D01*
X418226Y235238D01*
X418172Y235163D01*
X418126Y235087D01*
X418087Y235009D01*
X418055Y234931D01*
X418030Y234851D01*
X418013Y234770D01*
X418003Y234688D01*
X418000Y234605D01*
X417010Y235594D01*
X417093Y235597D01*
X417176Y235607D01*
X417257Y235625D01*
X417336Y235649D01*
X417415Y235681D01*
X417492Y235720D01*
X417568Y235767D01*
X417643Y235820D01*
X417717Y235881D01*
X417790Y235950D01*
X418355Y235384D01*
D02*
G37*
G36*
X416286Y233894D02*
X416225Y233951D01*
X416160Y234002D01*
X416090Y234048D01*
X416016Y234086D01*
X415938Y234120D01*
X415856Y234146D01*
X415769Y234168D01*
X415678Y234183D01*
X415583Y234191D01*
X415484Y234194D01*
Y234995D01*
X415583Y234998D01*
X415678Y235006D01*
X415769Y235021D01*
X415856Y235043D01*
X415938Y235069D01*
X416016Y235103D01*
X416090Y235141D01*
X416160Y235187D01*
X416225Y235238D01*
X416286Y235295D01*
Y233894D01*
D02*
G37*
G36*
X112440Y234024D02*
X112415Y233222D01*
X112411Y233222D01*
X112398Y233223D01*
X112000Y233225D01*
Y234025D01*
X112440Y234024D01*
D02*
G37*
G36*
X125403Y211012D02*
X125412Y210916D01*
X125427Y210825D01*
X125448Y210739D01*
X125475Y210656D01*
X125508Y210578D01*
X125547Y210504D01*
X125592Y210435D01*
X125643Y210370D01*
X125700Y210309D01*
X124300D01*
X124357Y210370D01*
X124408Y210435D01*
X124453Y210504D01*
X124492Y210578D01*
X124525Y210656D01*
X124552Y210739D01*
X124573Y210825D01*
X124588Y210916D01*
X124597Y211012D01*
X124600Y211111D01*
X125400D01*
X125403Y211012D01*
D02*
G37*
G36*
X217109Y295307D02*
X217140Y295055D01*
X217194Y294806D01*
X217270Y294560D01*
X217370Y294318D01*
X217492Y294079D01*
X217636Y293843D01*
X217803Y293611D01*
X217993Y293383D01*
X218205Y293157D01*
X216437Y291389D01*
X216212Y291602D01*
X215983Y291791D01*
X215751Y291958D01*
X215516Y292103D01*
X215277Y292225D01*
X215034Y292324D01*
X214789Y292401D01*
X214540Y292455D01*
X214287Y292486D01*
X214031Y292495D01*
X217100Y295564D01*
X217109Y295307D01*
D02*
G37*
G36*
X223969Y252495D02*
X223517Y252491D01*
X222708Y252438D01*
X222352Y252389D01*
X222026Y252323D01*
X221733Y252242D01*
X221471Y252146D01*
X221241Y252033D01*
X221042Y251906D01*
X220875Y251762D01*
X220168Y252469D01*
X220311Y252636D01*
X220439Y252835D01*
X220551Y253065D01*
X220648Y253327D01*
X220729Y253621D01*
X220794Y253946D01*
X220844Y254303D01*
X220897Y255112D01*
X220900Y255563D01*
X223969Y252495D01*
D02*
G37*
G36*
X228205Y248032D02*
X227993Y247806D01*
X227803Y247578D01*
X227636Y247346D01*
X227491Y247110D01*
X227370Y246871D01*
X227271Y246629D01*
X227194Y246383D01*
X227140Y246134D01*
X227109Y245881D01*
X227100Y245625D01*
X224031Y248694D01*
X224287Y248703D01*
X224539Y248734D01*
X224789Y248788D01*
X225034Y248865D01*
X225277Y248964D01*
X225516Y249086D01*
X225751Y249231D01*
X225983Y249397D01*
X226212Y249587D01*
X226437Y249799D01*
X228205Y248032D01*
D02*
G37*
G36*
X227109Y245307D02*
X227140Y245055D01*
X227194Y244806D01*
X227271Y244560D01*
X227370Y244318D01*
X227491Y244079D01*
X227636Y243843D01*
X227803Y243611D01*
X227993Y243383D01*
X228205Y243157D01*
X226437Y241389D01*
X226212Y241602D01*
X225983Y241791D01*
X225751Y241958D01*
X225516Y242103D01*
X225277Y242225D01*
X225034Y242324D01*
X224789Y242401D01*
X224539Y242455D01*
X224287Y242486D01*
X224031Y242495D01*
X227100Y245564D01*
X227109Y245307D01*
D02*
G37*
G36*
X156501Y207388D02*
X156353Y207216D01*
X156222Y207009D01*
X156106Y206768D01*
X156007Y206493D01*
X155924Y206184D01*
X155856Y205841D01*
X155805Y205464D01*
X155751Y204607D01*
X155748Y204127D01*
X152532Y207342D01*
X153012Y207345D01*
X153869Y207400D01*
X154246Y207451D01*
X154589Y207518D01*
X154899Y207601D01*
X155174Y207701D01*
X155414Y207816D01*
X155621Y207948D01*
X155794Y208095D01*
X156501Y207388D01*
D02*
G37*
G36*
X211788Y159587D02*
X212017Y159397D01*
X212249Y159230D01*
X212484Y159086D01*
X212723Y158964D01*
X212966Y158865D01*
X213211Y158788D01*
X213460Y158734D01*
X213713Y158703D01*
X213969Y158694D01*
X210900Y155625D01*
X210891Y155881D01*
X210860Y156134D01*
X210806Y156383D01*
X210730Y156629D01*
X210630Y156871D01*
X210508Y157110D01*
X210364Y157346D01*
X210197Y157578D01*
X210007Y157806D01*
X209795Y158032D01*
X211563Y159800D01*
X211788Y159587D01*
D02*
G37*
G36*
X217087Y156032D02*
X217166Y155794D01*
X217262Y155558D01*
X217374Y155324D01*
X217503Y155093D01*
X217649Y154863D01*
X217811Y154635D01*
X218186Y154185D01*
X218399Y153963D01*
X217090Y151737D01*
X216860Y151951D01*
X216630Y152137D01*
X216398Y152293D01*
X216165Y152421D01*
X215930Y152520D01*
X215694Y152590D01*
X215457Y152632D01*
X215218Y152644D01*
X214979Y152628D01*
X214737Y152583D01*
X217025Y156271D01*
X217087Y156032D01*
D02*
G37*
G36*
X414512Y134531D02*
X414482Y134817D01*
X414392Y135072D01*
X414242Y135296D01*
X414032Y135492D01*
X413762Y135656D01*
X413432Y135792D01*
X413042Y135897D01*
X412592Y135971D01*
X412082Y136016D01*
X411512Y136031D01*
Y139032D01*
X412082Y139047D01*
X412592Y139092D01*
X413042Y139166D01*
X413432Y139271D01*
X413762Y139407D01*
X414032Y139571D01*
X414242Y139767D01*
X414392Y139991D01*
X414482Y140246D01*
X414512Y140532D01*
Y134531D01*
D02*
G37*
G36*
X417455Y134800D02*
X417359Y134620D01*
X417275Y134397D01*
X417202Y134128D01*
X417140Y133815D01*
X417090Y133457D01*
X417023Y132608D01*
X417000Y131580D01*
X416000D01*
X415994Y132116D01*
X415860Y133815D01*
X415798Y134128D01*
X415725Y134397D01*
X415641Y134620D01*
X415545Y134800D01*
X415439Y134934D01*
X417561D01*
X417455Y134800D01*
D02*
G37*
G36*
X417405Y130696D02*
X417320Y130666D01*
X417245Y130616D01*
X417180Y130546D01*
X417125Y130456D01*
X417080Y130347D01*
X417045Y130217D01*
X417020Y130067D01*
X417005Y129896D01*
X417000Y129707D01*
X416000D01*
X415995Y129896D01*
X415980Y130067D01*
X415955Y130217D01*
X415920Y130347D01*
X415875Y130456D01*
X415820Y130546D01*
X415755Y130616D01*
X415680Y130666D01*
X415595Y130696D01*
X415500Y130707D01*
X417500D01*
X417405Y130696D01*
D02*
G37*
G36*
X417002Y121953D02*
X417018Y121759D01*
X417032Y121673D01*
X417050Y121595D01*
X417072Y121523D01*
X417098Y121459D01*
X417128Y121401D01*
X417162Y121351D01*
X417200Y121309D01*
X415800D01*
X415838Y121351D01*
X415872Y121401D01*
X415902Y121459D01*
X415928Y121523D01*
X415950Y121595D01*
X415968Y121673D01*
X415982Y121759D01*
X415992Y121853D01*
X416000Y122061D01*
X417000D01*
X417002Y121953D01*
D02*
G37*
G36*
X435662Y234838D02*
X435628Y234788D01*
X435598Y234730D01*
X435572Y234666D01*
X435550Y234594D01*
X435532Y234516D01*
X435518Y234430D01*
X435508Y234336D01*
X435500Y234128D01*
X434500D01*
X434498Y234236D01*
X434482Y234430D01*
X434468Y234516D01*
X434450Y234594D01*
X434428Y234666D01*
X434402Y234730D01*
X434372Y234788D01*
X434338Y234838D01*
X434300Y234880D01*
X435700D01*
X435662Y234838D01*
D02*
G37*
G36*
X421757Y217757D02*
X421807Y217723D01*
X421864Y217692D01*
X421929Y217667D01*
X422000Y217645D01*
X422079Y217627D01*
X422165Y217613D01*
X422258Y217602D01*
X422466Y217595D01*
Y216595D01*
X422358Y216593D01*
X422165Y216577D01*
X422079Y216563D01*
X422000Y216545D01*
X421929Y216523D01*
X421864Y216496D01*
X421807Y216466D01*
X421757Y216432D01*
X421714Y216394D01*
Y217794D01*
X421757Y217757D01*
D02*
G37*
G36*
X405490Y220094D02*
X405433Y220091D01*
X405373Y220080D01*
X405312Y220061D01*
X405248Y220033D01*
X405182Y219998D01*
X405113Y219955D01*
X405043Y219904D01*
X404970Y219846D01*
X404817Y219704D01*
X404110Y220411D01*
X404184Y220489D01*
X404310Y220637D01*
X404361Y220708D01*
X404404Y220776D01*
X404439Y220842D01*
X404466Y220906D01*
X404485Y220968D01*
X404497Y221027D01*
X404500Y221084D01*
X405490Y220094D01*
D02*
G37*
G36*
X226536Y167447D02*
X227145Y166913D01*
X227432Y166696D01*
X227709Y166512D01*
X227974Y166362D01*
X228227Y166245D01*
X228469Y166161D01*
X228700Y166111D01*
X228919Y166095D01*
Y165094D01*
X228700Y165078D01*
X228469Y165028D01*
X228227Y164944D01*
X227974Y164827D01*
X227709Y164677D01*
X227432Y164493D01*
X227145Y164276D01*
X226536Y163742D01*
X226214Y163425D01*
Y167764D01*
X226536Y167447D01*
D02*
G37*
G36*
X119003Y203001D02*
X119013Y202919D01*
X119030Y202838D01*
X119055Y202758D01*
X119087Y202680D01*
X119126Y202602D01*
X119172Y202526D01*
X119226Y202451D01*
X119287Y202378D01*
X119355Y202305D01*
X118790Y201739D01*
X118717Y201807D01*
X118643Y201869D01*
X118568Y201922D01*
X118492Y201969D01*
X118415Y202008D01*
X118336Y202040D01*
X118257Y202064D01*
X118176Y202082D01*
X118093Y202092D01*
X118010Y202095D01*
X119000Y203084D01*
X119003Y203001D01*
D02*
G37*
G36*
X223969Y132495D02*
X223491Y132492D01*
X222271Y132399D01*
X221936Y132339D01*
X221636Y132265D01*
X221372Y132176D01*
X221144Y132072D01*
X220951Y131955D01*
X220794Y131823D01*
X220228Y132388D01*
X220360Y132546D01*
X220478Y132738D01*
X220581Y132967D01*
X220670Y133231D01*
X220745Y133530D01*
X220805Y133866D01*
X220850Y134237D01*
X220898Y135086D01*
X220900Y135564D01*
X223969Y132495D01*
D02*
G37*
G36*
X428071Y77327D02*
X428094D01*
X428114Y77323D01*
X428134Y77319D01*
X428154Y77311D01*
X428173Y77303D01*
X428193Y77295D01*
X428209Y77287D01*
X428228Y77280D01*
X428244Y77268D01*
X428264Y77256D01*
X428279Y77244D01*
X428295Y77228D01*
X428311Y77217D01*
X428323Y77201D01*
X428339Y77185D01*
X428350Y77169D01*
X428362Y77150D01*
X428374Y77134D01*
X428382Y77114D01*
X428390Y77098D01*
X428398Y77079D01*
X428406Y77059D01*
X428413Y77039D01*
X428417Y77020D01*
X428421Y77000D01*
Y76976D01*
X428425Y76957D01*
Y76937D01*
Y69752D01*
Y69732D01*
X428421Y69713D01*
Y69689D01*
X428417Y69669D01*
X428413Y69650D01*
X428406Y69630D01*
X428398Y69610D01*
X428390Y69591D01*
X428382Y69575D01*
X428374Y69555D01*
X428362Y69539D01*
X428350Y69520D01*
X428339Y69504D01*
X428323Y69488D01*
X428311Y69472D01*
X428295Y69461D01*
X428279Y69445D01*
X428264Y69433D01*
X428244Y69421D01*
X428228Y69409D01*
X428209Y69402D01*
X428193Y69394D01*
X428173Y69386D01*
X428154Y69378D01*
X428134Y69370D01*
X428114Y69366D01*
X428094Y69362D01*
X428071D01*
X428051Y69358D01*
X422894D01*
X422874Y69362D01*
X422850D01*
X422831Y69366D01*
X422811Y69370D01*
X422791Y69378D01*
X422772Y69386D01*
X422752Y69394D01*
X422736Y69402D01*
X422717Y69409D01*
X422701Y69421D01*
X422681Y69433D01*
X422665Y69445D01*
X422650Y69461D01*
X422634Y69472D01*
X422622Y69488D01*
X422606Y69504D01*
X422594Y69520D01*
X422583Y69539D01*
X422571Y69555D01*
X422563Y69575D01*
X422555Y69591D01*
X422547Y69610D01*
X422539Y69630D01*
X422532Y69650D01*
X422528Y69669D01*
X422524Y69689D01*
Y69713D01*
X422520Y69732D01*
Y69752D01*
Y76937D01*
Y76957D01*
X422524Y76976D01*
Y77000D01*
X422528Y77020D01*
X422532Y77039D01*
X422539Y77059D01*
X422547Y77079D01*
X422555Y77098D01*
X422563Y77114D01*
X422571Y77134D01*
X422583Y77150D01*
X422594Y77169D01*
X422606Y77185D01*
X422622Y77201D01*
X422634Y77217D01*
X422650Y77228D01*
X422665Y77244D01*
X422681Y77256D01*
X422701Y77268D01*
X422717Y77280D01*
X422736Y77287D01*
X422752Y77295D01*
X422772Y77303D01*
X422791Y77311D01*
X422811Y77319D01*
X422831Y77323D01*
X422850Y77327D01*
X422874D01*
X422894Y77331D01*
X428051D01*
X428071Y77327D01*
D02*
G37*
G36*
X415118Y75694D02*
X415382Y75689D01*
Y73689D01*
X415118Y73687D01*
Y73480D01*
X415098Y73520D01*
X415038Y73556D01*
X414938Y73587D01*
X414798Y73614D01*
X414618Y73637D01*
X414450Y73649D01*
X413562Y73587D01*
X413462Y73556D01*
X413402Y73520D01*
X413382Y73480D01*
Y73684D01*
X413118Y73689D01*
Y75689D01*
X413382Y75690D01*
Y75897D01*
X413402Y75858D01*
X413462Y75822D01*
X413562Y75791D01*
X413702Y75764D01*
X413882Y75741D01*
X414050Y75729D01*
X414938Y75791D01*
X415038Y75822D01*
X415098Y75858D01*
X415118Y75897D01*
Y75694D01*
D02*
G37*
%LPC*%
G36*
X527882Y90039D02*
X514882D01*
Y75090D01*
X527882D01*
Y90039D01*
D02*
G37*
G36*
X513882D02*
X500882D01*
Y75090D01*
X513882D01*
Y90039D01*
D02*
G37*
%LPD*%
D11*
X575000Y170595D02*
X589618Y155976D01*
Y74590D02*
Y155976D01*
X410500Y74689D02*
X418000D01*
D16*
X416500Y120595D02*
Y135995D01*
X434414Y217094D02*
X435000Y217680D01*
Y235595D01*
X421000Y217094D02*
X434414D01*
X350000Y165594D02*
X405500Y221094D01*
X224000Y165594D02*
X350000D01*
X442500Y343094D02*
X458500Y327095D01*
Y240094D02*
Y327095D01*
X454000Y235595D02*
X458500Y240094D01*
X187000Y209095D02*
X208500Y230594D01*
X157500Y209095D02*
X187000D01*
X152500Y204095D02*
X157500Y209095D01*
X218902Y232996D02*
Y250496D01*
X216500Y230594D02*
X218902Y232996D01*
X208500Y230594D02*
X216500D01*
X218902Y250496D02*
X224000Y255594D01*
X450131Y109226D02*
Y109226D01*
X430886Y89980D02*
X450131Y109226D01*
X430886Y86189D02*
Y89980D01*
X425866Y82449D02*
X425878Y82461D01*
X426850Y86090D02*
Y92626D01*
X425850Y93626D02*
X426850Y92626D01*
X440729Y83126D02*
X441000D01*
X440422Y83433D02*
X440729Y83126D01*
X435709Y83433D02*
X440422D01*
X444426Y85402D02*
X445150Y86126D01*
X437284Y85402D02*
X444426D01*
X435709Y81465D02*
X439661D01*
X442000Y79126D01*
X445500Y78976D02*
X453000D01*
X451850Y86126D02*
X459000D01*
X445350Y79126D02*
X445500Y78976D01*
X442000Y79126D02*
X445350D01*
D26*
X418650Y92626D02*
D03*
X425350D02*
D03*
X451850Y86126D02*
D03*
X445150D02*
D03*
X465700D02*
D03*
X459000D02*
D03*
D28*
X453000Y78976D02*
D03*
Y72276D02*
D03*
X445500Y78976D02*
D03*
Y72276D02*
D03*
D34*
X407469Y137531D02*
D03*
X418000Y82563D02*
D03*
Y74689D02*
D03*
X410500Y82563D02*
D03*
Y74689D02*
D03*
X407469Y129657D02*
D03*
X443469Y137531D02*
D03*
Y129657D02*
D03*
D45*
X454000Y285595D02*
D03*
X224000Y245595D02*
D03*
X214000Y295595D02*
D03*
Y155595D02*
D03*
X215500Y350886D02*
D03*
X225500D02*
D03*
X235500D02*
D03*
X214000Y175594D02*
D03*
Y195595D02*
D03*
Y185594D02*
D03*
Y165594D02*
D03*
Y145595D02*
D03*
Y135594D02*
D03*
Y315595D02*
D03*
Y305594D02*
D03*
Y285595D02*
D03*
Y275594D02*
D03*
Y265595D02*
D03*
Y255594D02*
D03*
Y235595D02*
D03*
Y245595D02*
D03*
Y225594D02*
D03*
Y215595D02*
D03*
Y205594D02*
D03*
X224000Y175594D02*
D03*
Y165594D02*
D03*
Y155595D02*
D03*
Y145595D02*
D03*
Y315595D02*
D03*
Y305594D02*
D03*
Y295595D02*
D03*
Y285595D02*
D03*
Y275594D02*
D03*
Y265595D02*
D03*
Y255594D02*
D03*
Y235595D02*
D03*
Y225594D02*
D03*
Y215595D02*
D03*
Y205594D02*
D03*
Y195595D02*
D03*
Y185594D02*
D03*
Y135594D02*
D03*
X454000Y175594D02*
D03*
Y195595D02*
D03*
Y185594D02*
D03*
Y165594D02*
D03*
Y155595D02*
D03*
Y145595D02*
D03*
Y135594D02*
D03*
Y315595D02*
D03*
Y305594D02*
D03*
Y295595D02*
D03*
Y275594D02*
D03*
Y265595D02*
D03*
Y255594D02*
D03*
Y235595D02*
D03*
Y245595D02*
D03*
Y225594D02*
D03*
Y215595D02*
D03*
Y205594D02*
D03*
X464000Y175594D02*
D03*
Y165594D02*
D03*
Y155595D02*
D03*
Y145595D02*
D03*
Y315595D02*
D03*
Y305594D02*
D03*
Y295595D02*
D03*
Y285595D02*
D03*
Y275594D02*
D03*
Y265595D02*
D03*
Y255594D02*
D03*
Y245595D02*
D03*
Y235595D02*
D03*
Y225594D02*
D03*
Y215595D02*
D03*
Y205594D02*
D03*
Y195595D02*
D03*
Y185594D02*
D03*
Y135594D02*
D03*
X222000Y115594D02*
D03*
X212000D02*
D03*
X202000D02*
D03*
D53*
X177000Y350594D02*
D03*
X122000Y173345D02*
D03*
Y283345D02*
D03*
X177000Y135594D02*
D03*
X654500Y270595D02*
D03*
Y205594D02*
D03*
D54*
X644500Y375594D02*
D03*
Y95595D02*
D03*
D57*
X455016Y114110D02*
X471500Y97626D01*
X453000Y72276D02*
X464650D01*
X452650D02*
X453000D01*
X440959Y66126D02*
X442000D01*
X436500Y137282D02*
Y139295D01*
Y135995D02*
Y137282D01*
X433740Y73344D02*
X440959Y66126D01*
X436750Y124845D02*
X443500Y118095D01*
X436750Y124845D02*
Y135745D01*
X443500Y118095D02*
X450738D01*
X436500Y137282D02*
X436750Y137531D01*
X443469D01*
X450738Y118095D02*
X454869Y113963D01*
X436500Y135995D02*
X436750Y135745D01*
X418114Y82449D02*
X425866D01*
X452400Y68994D02*
Y72026D01*
X449500Y66094D02*
X452400Y68994D01*
X471500Y79126D02*
Y97626D01*
X464650Y72276D02*
X471500Y79126D01*
X452400Y72026D02*
X452650Y72276D01*
D60*
X441000Y298594D02*
Y312595D01*
Y298594D02*
X454000Y285595D01*
D61*
X413000Y305594D02*
X413306D01*
X414500Y306788D02*
Y314469D01*
X413306Y305594D02*
X414500Y306788D01*
X112000Y233625D02*
X113312D01*
X113343Y233594D01*
X112000Y233625D02*
Y243138D01*
X434156Y342126D02*
X438500D01*
Y279594D02*
Y342126D01*
X118000Y203095D02*
X134000Y187094D01*
Y138094D02*
Y187094D01*
Y138094D02*
X149500Y122594D01*
X211000D01*
X224000Y135594D01*
X436000Y283095D02*
Y337595D01*
X402500Y235094D02*
X423000Y255594D01*
X215341Y346479D02*
X407116D01*
X409868Y343726D02*
X432555D01*
X407116Y346479D02*
X409868Y343726D01*
X112000Y243138D02*
X215341Y346479D01*
X432555Y343726D02*
X434156Y342126D01*
X403102Y341094D02*
X432500D01*
X388252Y326245D02*
X403102Y341094D01*
X196946Y326245D02*
X388252D01*
X114500Y243799D02*
X196946Y326245D01*
X396000Y228594D02*
X399000Y225594D01*
X402500D01*
X411500Y234594D01*
X396000Y228594D02*
Y243094D01*
X398000Y229594D02*
X399500Y228095D01*
X401500D01*
X398000Y229594D02*
Y239094D01*
X396000Y243094D02*
X436000Y283095D01*
X432500Y341094D02*
X436000Y337595D01*
X411500Y234594D02*
X417000D01*
X398000Y239094D02*
X438500Y279594D01*
X401500Y228095D02*
X413500Y240094D01*
X419000D01*
X423000Y255594D02*
X454000D01*
X427500Y245094D02*
X435000D01*
X417000Y234594D02*
X427500Y245094D01*
X408083Y310511D02*
X413000Y305594D01*
X183050Y310511D02*
X408083D01*
X125000Y252461D02*
X183050Y310511D01*
X114500Y240094D02*
Y243799D01*
X125000Y209594D02*
Y252461D01*
D62*
X214000Y155595D02*
X215000D01*
X220150Y150444D02*
X386650D01*
X215000Y155595D02*
X220150Y150444D01*
X407439Y137502D02*
X407469Y137531D01*
X399592Y137502D02*
X407439D01*
X386650Y150444D02*
X399592Y137502D01*
X224000Y245595D02*
X235000Y234594D01*
X224000Y245595D02*
X233500Y255095D01*
Y284594D01*
X219000Y290595D02*
X227500D01*
X233500Y284594D01*
X214000Y295595D02*
X219000Y290595D01*
X207000Y162594D02*
X214000Y155595D01*
X207000Y178094D02*
X209500Y180595D01*
X207000Y162594D02*
Y178094D01*
X209500Y180595D02*
X231500D01*
X235000Y184095D01*
Y234594D01*
D64*
X152500Y274095D02*
D03*
X162500D02*
D03*
Y264094D02*
D03*
X152500D02*
D03*
X162500Y254095D02*
D03*
X152500D02*
D03*
Y244094D02*
D03*
X162500D02*
D03*
X152500Y234095D02*
D03*
X162500D02*
D03*
X152500Y224095D02*
D03*
X162500D02*
D03*
X152500Y214094D02*
D03*
X162500D02*
D03*
X152500Y204095D02*
D03*
X162500D02*
D03*
X152500Y194095D02*
D03*
X162500D02*
D03*
X152500Y184095D02*
D03*
X162500D02*
D03*
D65*
X483083Y120772D02*
D03*
X620917Y338094D02*
D03*
X389917Y338787D02*
D03*
X252083Y121465D02*
D03*
D66*
X483083Y370457D02*
D03*
X252083Y371150D02*
D03*
D67*
X552000Y120772D02*
D03*
Y338094D02*
D03*
X321000Y338787D02*
D03*
Y121465D02*
D03*
D68*
X126705Y150453D02*
D03*
X152295D02*
D03*
X126705Y132736D02*
D03*
D69*
X152295D02*
D03*
D70*
X441000Y384095D02*
D03*
X431000D02*
D03*
D71*
X426500Y345626D02*
D03*
X420500Y324311D02*
D03*
X414500Y314469D02*
D03*
X113343Y233594D02*
D03*
X441000Y312595D02*
D03*
X416500Y120595D02*
D03*
X421000Y217094D02*
D03*
X435000Y235595D02*
D03*
X235500Y333169D02*
D03*
X403500Y223425D02*
D03*
X405500Y224902D02*
D03*
X407500Y225886D02*
D03*
X410000D02*
D03*
X532000Y91000D02*
D03*
Y84000D02*
D03*
Y77000D02*
D03*
Y70000D02*
D03*
Y63000D02*
D03*
X530250Y94500D02*
D03*
X528500Y91000D02*
D03*
X530250Y87500D02*
D03*
Y80500D02*
D03*
Y73500D02*
D03*
Y66500D02*
D03*
X526750Y94500D02*
D03*
X523250D02*
D03*
X519750D02*
D03*
X516250D02*
D03*
X514500Y91000D02*
D03*
X512750Y94500D02*
D03*
X509250D02*
D03*
X505750D02*
D03*
X498750Y87500D02*
D03*
X497000Y84000D02*
D03*
X498750Y80500D02*
D03*
X497000Y77000D02*
D03*
X498750Y73500D02*
D03*
X497000Y70000D02*
D03*
X498750Y66500D02*
D03*
X497000Y63000D02*
D03*
X302000Y92000D02*
D03*
X300000Y88000D02*
D03*
X302000Y84000D02*
D03*
X300000Y80000D02*
D03*
X302000Y76000D02*
D03*
X300000Y72000D02*
D03*
X302000Y68000D02*
D03*
X300000Y64000D02*
D03*
X298000Y92000D02*
D03*
Y84000D02*
D03*
Y76000D02*
D03*
Y68000D02*
D03*
X294000Y92000D02*
D03*
X290000D02*
D03*
X286000D02*
D03*
X282000D02*
D03*
X278000D02*
D03*
X274000D02*
D03*
X270000D02*
D03*
X268000Y88000D02*
D03*
Y80000D02*
D03*
Y72000D02*
D03*
Y64000D02*
D03*
X266000Y92000D02*
D03*
X264000Y88000D02*
D03*
X266000Y84000D02*
D03*
X264000Y80000D02*
D03*
X266000Y76000D02*
D03*
X264000Y72000D02*
D03*
X266000Y68000D02*
D03*
X264000Y64000D02*
D03*
X470750Y73500D02*
D03*
X465500Y98000D02*
D03*
X467250Y94500D02*
D03*
X465500Y91000D02*
D03*
X467250Y80500D02*
D03*
X462000Y98000D02*
D03*
X463750Y94500D02*
D03*
X462000Y91000D02*
D03*
X463750Y80500D02*
D03*
X462000Y77000D02*
D03*
X463750Y66500D02*
D03*
X458500Y105000D02*
D03*
X460250Y101500D02*
D03*
X458500Y98000D02*
D03*
X460250Y94500D02*
D03*
X458500Y91000D02*
D03*
X460250Y80500D02*
D03*
X458500Y77000D02*
D03*
X460250Y66500D02*
D03*
X455000Y105000D02*
D03*
X456750Y101500D02*
D03*
X455000Y98000D02*
D03*
X456750Y94500D02*
D03*
X455000Y91000D02*
D03*
X456750Y66500D02*
D03*
X451500Y105000D02*
D03*
X453250Y101500D02*
D03*
X451500Y98000D02*
D03*
X453250Y94500D02*
D03*
X451500Y91000D02*
D03*
X449750Y101500D02*
D03*
X448000Y98000D02*
D03*
X449750Y94500D02*
D03*
X448000Y91000D02*
D03*
X446250Y101500D02*
D03*
X444500Y98000D02*
D03*
X446250Y94500D02*
D03*
X444500Y91000D02*
D03*
X442750Y108500D02*
D03*
X441000Y105000D02*
D03*
X442750Y94500D02*
D03*
X441000Y91000D02*
D03*
Y77000D02*
D03*
X439250Y108500D02*
D03*
X437500Y105000D02*
D03*
X439250Y101500D02*
D03*
Y94500D02*
D03*
X437500Y91000D02*
D03*
X439250Y87500D02*
D03*
Y73500D02*
D03*
X435750Y66500D02*
D03*
X430500Y105000D02*
D03*
Y98000D02*
D03*
X432250Y66500D02*
D03*
X428750D02*
D03*
X425250D02*
D03*
X421750Y108500D02*
D03*
X420000Y105000D02*
D03*
X421750Y101500D02*
D03*
X420000Y98000D02*
D03*
X421750Y87500D02*
D03*
X420000Y70000D02*
D03*
X421750Y66500D02*
D03*
X418250Y108500D02*
D03*
X416500Y105000D02*
D03*
X418250Y101500D02*
D03*
X416500Y98000D02*
D03*
X418250Y87500D02*
D03*
X416500Y70000D02*
D03*
X418250Y66500D02*
D03*
X414750Y108500D02*
D03*
X413000Y105000D02*
D03*
X414750Y101500D02*
D03*
X413000Y98000D02*
D03*
Y91000D02*
D03*
X414750Y87500D02*
D03*
X413000Y70000D02*
D03*
X414750Y66500D02*
D03*
X411250Y108500D02*
D03*
X409500Y105000D02*
D03*
X411250Y101500D02*
D03*
X409500Y98000D02*
D03*
X411250Y94500D02*
D03*
X409500Y91000D02*
D03*
X411250Y87500D02*
D03*
X409500Y70000D02*
D03*
X411250Y66500D02*
D03*
X407750Y108500D02*
D03*
X406000Y105000D02*
D03*
X407750Y101500D02*
D03*
X406000Y98000D02*
D03*
X407750Y94500D02*
D03*
X406000Y91000D02*
D03*
X407750Y87500D02*
D03*
X406000Y70000D02*
D03*
X407750Y66500D02*
D03*
X432000Y204232D02*
D03*
X435500Y209646D02*
D03*
X437000Y217028D02*
D03*
X427500Y228839D02*
D03*
X429263Y227095D02*
D03*
X430835Y225339D02*
D03*
X421000Y220472D02*
D03*
X445500Y351626D02*
D03*
X432500Y368126D02*
D03*
X435500D02*
D03*
X438500D02*
D03*
X442000Y366126D02*
D03*
X425000Y350126D02*
D03*
X429000Y366126D02*
D03*
X438500Y342126D02*
D03*
X405500Y221094D02*
D03*
X118000Y203095D02*
D03*
X444500Y66094D02*
D03*
X447000D02*
D03*
X402500Y235094D02*
D03*
X442500Y343094D02*
D03*
X575000Y170595D02*
D03*
X423500Y338126D02*
D03*
X432500Y341094D02*
D03*
X419000Y240094D02*
D03*
X417000Y234594D02*
D03*
X413000Y305594D02*
D03*
X435000Y245094D02*
D03*
X424500Y327626D02*
D03*
X442000Y66094D02*
D03*
X449500D02*
D03*
X439500Y67594D02*
D03*
X114500Y240094D02*
D03*
X125000Y209594D02*
D03*
X460000Y344126D02*
D03*
X455500D02*
D03*
X451500D02*
D03*
X447000D02*
D03*
X419500Y338126D02*
D03*
X441000Y83126D02*
D03*
D72*
X386650Y150444D02*
D03*
D73*
X199500Y150594D02*
D03*
Y375594D02*
D03*
D75*
X416500Y135995D02*
D03*
X436500D02*
D03*
X426500D02*
D03*
D76*
X514382Y74590D02*
D03*
X589618D02*
D03*
X514382Y384276D02*
D03*
X589618D02*
D03*
X358618Y384968D02*
D03*
X283382D02*
D03*
X358618Y75283D02*
D03*
X283382D02*
D03*
D77*
X426500Y169194D02*
D03*
D78*
X435709Y81465D02*
D03*
Y83433D02*
D03*
D79*
X430886Y86189D02*
D03*
D80*
X435315Y79449D02*
D03*
D81*
X433150Y86090D02*
D03*
X426850D02*
D03*
D82*
X433740Y73344D02*
D03*
X426260D02*
D03*
D83*
X425866Y82449D02*
D03*
D84*
X450131Y109226D02*
D03*
X454869Y113963D02*
D03*
D85*
X407469Y137531D02*
X416000D01*
X416500Y137031D01*
Y135995D02*
Y137031D01*
D86*
X358618Y384968D02*
X364583Y390933D01*
X507724D01*
X514382Y384276D02*
X589618D01*
X507724Y390933D02*
X514382Y384276D01*
X399250Y61344D02*
X465750D01*
X505500Y101094D01*
X532500D01*
X559004Y74590D01*
X589618D01*
X358618Y75283D02*
X363807Y70095D01*
X390500D01*
X399250Y61344D01*
X410500Y82563D02*
X418000D01*
X365898D02*
X410500D01*
X283382Y384968D02*
X358618D01*
D87*
X418000Y82563D02*
X418114Y82449D01*
M02*
