G04*
G04 #@! TF.GenerationSoftware,Altium Limited,Altium Designer,25.8.1 (18)*
G04*
G04 Layer_Color=32768*
%FSLAX25Y25*%
%MOIN*%
G70*
G04*
G04 #@! TF.SameCoordinates,E1838567-EF02-44A7-8A02-23B903FEE0B8*
G04*
G04*
G04 #@! TF.FilePolarity,Positive*
G04*
G01*
G75*
%ADD10C,0.00600*%
%ADD90C,0.00394*%
%ADD92C,0.00197*%
G36*
X447968Y370118D02*
X424031D01*
Y398071D01*
X447968D01*
Y370118D01*
D02*
G37*
G36*
X241500Y346786D02*
X209500D01*
Y400294D01*
X241500D01*
Y346786D01*
D02*
G37*
G36*
X440603Y365176D02*
X443600D01*
Y363516D01*
X444800D01*
Y346736D01*
X443600D01*
Y345076D01*
X440603D01*
Y343476D01*
X430397D01*
Y345076D01*
X427400D01*
Y346736D01*
X426200D01*
Y363516D01*
X427400D01*
Y365176D01*
X430397D01*
Y366776D01*
X440603D01*
Y365176D01*
D02*
G37*
G36*
X417850Y315992D02*
X411150D01*
Y328693D01*
X417850D01*
Y315992D01*
D02*
G37*
G36*
X449000Y262245D02*
X436300D01*
Y268945D01*
X449000D01*
Y262245D01*
D02*
G37*
G36*
X597990Y258874D02*
X593253Y254136D01*
X584272Y263116D01*
X589010Y267854D01*
X597990Y258874D01*
D02*
G37*
G36*
X592359Y253005D02*
X587621Y248267D01*
X578641Y257247D01*
X583379Y261985D01*
X592359Y253005D01*
D02*
G37*
G36*
X607256Y244614D02*
X601744D01*
Y255638D01*
X607256D01*
Y244614D01*
D02*
G37*
G36*
X449350Y242245D02*
X436650D01*
Y248944D01*
X449350D01*
Y242245D01*
D02*
G37*
G36*
X137381Y239748D02*
X123920D01*
Y247457D01*
X137381D01*
Y239748D01*
D02*
G37*
G36*
X449350Y232244D02*
X436650D01*
Y238945D01*
X449350D01*
Y232244D01*
D02*
G37*
G36*
X411850Y227276D02*
X399150D01*
Y233976D01*
X411850D01*
Y227276D01*
D02*
G37*
G36*
X127053Y237995D02*
X129400D01*
Y235647D01*
X129420D01*
Y226542D01*
X129400D01*
Y224195D01*
X127053D01*
Y224175D01*
X117947D01*
Y224195D01*
X115600D01*
Y226542D01*
X115580D01*
Y235647D01*
X115600D01*
Y237995D01*
X117947D01*
Y238014D01*
X127053D01*
Y237995D01*
D02*
G37*
G36*
X419731Y211697D02*
X406269D01*
Y219406D01*
X419731D01*
Y211697D01*
D02*
G37*
G36*
X123350Y206745D02*
X116650D01*
Y219444D01*
X123350D01*
Y206745D01*
D02*
G37*
G36*
X578350Y198213D02*
X571650D01*
Y210913D01*
X578350D01*
Y198213D01*
D02*
G37*
G36*
X609422Y223287D02*
X617094D01*
Y196902D01*
X609422D01*
Y190594D01*
X592822D01*
Y196902D01*
X585150D01*
Y223287D01*
X592822D01*
Y229594D01*
X609422D01*
Y223287D01*
D02*
G37*
G36*
X578350Y183863D02*
X571650D01*
Y196563D01*
X578350D01*
Y183863D01*
D02*
G37*
G36*
X176693Y162835D02*
X138898D01*
Y295354D01*
X176693D01*
Y162835D01*
D02*
G37*
G36*
X241700Y132245D02*
X229000D01*
Y138944D01*
X241700D01*
Y132245D01*
D02*
G37*
G36*
X448000Y129694D02*
X405000D01*
Y190795D01*
X448000D01*
Y129694D01*
D02*
G37*
G36*
X457350Y117745D02*
X455330D01*
X459359Y113716D01*
X450379Y104736D01*
X445641Y109473D01*
X453912Y117745D01*
X450650D01*
Y130445D01*
X457350D01*
Y117745D01*
D02*
G37*
G36*
X428350Y89276D02*
X415650D01*
Y95976D01*
X428350D01*
Y89276D01*
D02*
G37*
G36*
X468700Y82776D02*
X456000D01*
Y89476D01*
X468700D01*
Y82776D01*
D02*
G37*
G36*
X454850D02*
X442150D01*
Y89476D01*
X454850D01*
Y82776D01*
D02*
G37*
G36*
X456350Y69276D02*
X449650D01*
Y81976D01*
X456350D01*
Y69276D01*
D02*
G37*
G36*
X448850D02*
X442150D01*
Y81976D01*
X448850D01*
Y69276D01*
D02*
G37*
G36*
X228000Y66186D02*
X196000D01*
Y119694D01*
X228000D01*
Y66186D01*
D02*
G37*
D10*
X406269Y211697D02*
X419731D01*
Y219406D01*
X406269D02*
X419731D01*
X406269Y211697D02*
Y219406D01*
X115600Y224195D02*
X117947D01*
Y224175D02*
Y224195D01*
Y224175D02*
X127053D01*
Y224195D01*
X129400D01*
Y226542D01*
X129420D01*
Y235647D01*
X129400D02*
X129420D01*
X129400D02*
Y237995D01*
X127053D02*
X129400D01*
X127053D02*
Y238014D01*
X117947D02*
X127053D01*
X117947Y237995D02*
Y238014D01*
X115600Y237995D02*
X117947D01*
X115600Y235647D02*
Y237995D01*
X115580Y235647D02*
X115600D01*
X115580Y226542D02*
Y235647D01*
Y226542D02*
X115600D01*
Y224195D02*
Y226542D01*
X123920Y247457D02*
X137381D01*
X123920Y239748D02*
Y247457D01*
Y239748D02*
X137381D01*
Y247457D01*
X241500Y346786D02*
Y400294D01*
X209500D02*
X241500D01*
X209500Y346786D02*
Y400294D01*
Y346786D02*
X241500D01*
X449000Y262245D02*
Y268945D01*
X436300Y262245D02*
X449000D01*
X436300D02*
Y268945D01*
X449000D01*
X436650Y242245D02*
Y248944D01*
Y242245D02*
X449350D01*
X436650Y248944D02*
X449350D01*
Y242245D02*
Y248944D01*
X585150Y196902D02*
Y223287D01*
X592822D01*
X609422D02*
X617094D01*
Y196902D02*
Y223287D01*
X609422Y196902D02*
X617094D01*
X585150D02*
X592822D01*
Y223287D02*
Y229594D01*
X609422D01*
Y223287D02*
Y229594D01*
Y190594D02*
Y196902D01*
X592822Y190594D02*
X609422D01*
X592822D02*
Y196902D01*
X450650Y130445D02*
X457350D01*
Y117745D02*
Y130445D01*
X450650Y117745D02*
X457350D01*
X450650D02*
Y130445D01*
X571650Y198213D02*
X578350D01*
X571650D02*
Y210913D01*
X578350D01*
Y198213D02*
Y210913D01*
X571650Y183863D02*
X578350D01*
X571650D02*
Y196563D01*
X578350D01*
Y183863D02*
Y196563D01*
X444800Y346736D02*
Y363516D01*
X443600Y346736D02*
X444800D01*
X426200D02*
X427400D01*
X426200D02*
Y363516D01*
X427400D01*
X443600D02*
X444800D01*
X443600D02*
Y365176D01*
Y345076D02*
Y346736D01*
X430397Y343476D02*
X440603D01*
X430397Y366776D02*
X440603D01*
Y343476D02*
Y345076D01*
X430397Y365176D02*
Y366776D01*
Y343476D02*
Y345076D01*
X440603Y365176D02*
Y366776D01*
X427400Y345076D02*
Y346736D01*
Y363516D02*
Y365176D01*
X440603Y345076D02*
X443600D01*
X427400D02*
X430397D01*
X440603Y365176D02*
X443600D01*
X427400D02*
X430397D01*
X448000Y129694D02*
Y190795D01*
X405000D02*
X448000D01*
X405000Y129694D02*
Y190795D01*
Y129694D02*
X448000D01*
X116650Y206745D02*
X123350D01*
X116650D02*
Y219444D01*
X123350D01*
Y206745D02*
Y219444D01*
X196000Y66186D02*
Y119694D01*
Y66186D02*
X228000D01*
Y119694D01*
X196000D02*
X228000D01*
X449650Y81976D02*
X456350D01*
Y69276D02*
Y81976D01*
X449650Y69276D02*
Y81976D01*
Y69276D02*
X456350D01*
X445641Y109473D02*
X450379Y104736D01*
X445641Y109473D02*
X454621Y118453D01*
X450379Y104736D02*
X459359Y113716D01*
X454621Y118453D02*
X459359Y113716D01*
X415650Y89276D02*
X428350D01*
X415650D02*
Y95976D01*
X428350D01*
Y89276D02*
Y95976D01*
X442150Y81976D02*
X448850D01*
X442150Y69276D02*
Y81976D01*
Y69276D02*
X448850D01*
Y81976D01*
X442150Y89476D02*
X454850D01*
Y82776D02*
Y89476D01*
X442150Y82776D02*
X454850D01*
X442150D02*
Y89476D01*
X456000D02*
X468700D01*
Y82776D02*
Y89476D01*
X456000Y82776D02*
X468700D01*
X456000D02*
Y89476D01*
X411150Y315992D02*
X417850D01*
X411150D02*
Y328693D01*
X417850D01*
Y315992D02*
Y328693D01*
X241700Y132245D02*
Y138944D01*
X229000Y132245D02*
X241700D01*
X229000D02*
Y138944D01*
X241700D01*
X436650Y232244D02*
Y238945D01*
X449350D01*
Y232244D02*
Y238945D01*
X436650Y232244D02*
X449350D01*
X411850Y227276D02*
Y233976D01*
X399150D02*
X411850D01*
X399150Y227276D02*
X411850D01*
X399150D02*
Y233976D01*
X584272Y263116D02*
X593253Y254136D01*
X597990Y258874D01*
X589010Y267854D02*
X597990Y258874D01*
X584272Y263116D02*
X589010Y267854D01*
X578641Y257247D02*
X587621Y248267D01*
X592359Y253005D01*
X583379Y261985D02*
X592359Y253005D01*
X578641Y257247D02*
X583379Y261985D01*
D90*
X132040Y222091D02*
Y229965D01*
X136961D01*
Y222091D02*
Y229965D01*
X132040Y222091D02*
X136961D01*
X420461Y74689D02*
Y82563D01*
X415539Y74689D02*
Y82563D01*
X420461D01*
X415539Y74689D02*
X420461D01*
X412961D02*
Y82563D01*
X408039Y74689D02*
Y82563D01*
X412961D01*
X408039Y74689D02*
X412961D01*
X426063Y100587D02*
X433937D01*
Y95665D02*
Y100587D01*
X426063Y95665D02*
X433937D01*
X426063D02*
Y100587D01*
Y108055D02*
X433937D01*
Y103134D02*
Y108055D01*
X426063Y103134D02*
X433937D01*
X426063D02*
Y108055D01*
X409929Y129657D02*
Y137531D01*
X405008Y129657D02*
Y137531D01*
X409929D01*
X405008Y129657D02*
X409929D01*
X445929D02*
Y137531D01*
X441008Y129657D02*
Y137531D01*
X445929D01*
X441008Y129657D02*
X445929D01*
X418539Y346189D02*
Y354063D01*
X423461D01*
Y346189D02*
Y354063D01*
X418539Y346189D02*
X423461D01*
X447039Y348189D02*
Y356063D01*
X451961D01*
Y348189D02*
Y356063D01*
X447039Y348189D02*
X451961D01*
X455039Y348252D02*
Y356126D01*
X459961D01*
Y348252D02*
Y356126D01*
X455039Y348252D02*
X459961D01*
X159539Y145031D02*
X164461D01*
X159539Y137157D02*
Y145031D01*
Y137157D02*
X164461D01*
Y145031D01*
X409063Y210138D02*
X416937D01*
Y205217D02*
Y210138D01*
X409063Y205217D02*
X416937D01*
X409063D02*
Y210138D01*
X424000Y207165D02*
X431874D01*
X424000D02*
Y212087D01*
X431874D01*
Y207165D02*
Y212087D01*
X424063Y214665D02*
X431937D01*
X424063D02*
Y219587D01*
X431937D01*
Y214665D02*
Y219587D01*
X126563Y249508D02*
X134437D01*
X126563D02*
Y254429D01*
X134437D01*
Y249508D02*
Y254429D01*
D92*
X472709Y76756D02*
Y382110D01*
Y76756D02*
X500819D01*
Y59158D02*
X603181D01*
X500819D02*
Y76756D01*
X472709Y382110D02*
X500819D01*
Y399709D01*
X603181D01*
Y59158D02*
Y76756D01*
X631291D01*
Y382110D01*
X603181D02*
X631291D01*
X603181D02*
Y399709D01*
X372181Y382803D02*
Y400402D01*
Y382803D02*
X400291D01*
Y77449D02*
Y382803D01*
X372181Y77449D02*
X400291D01*
X372181Y59850D02*
Y77449D01*
X269819Y400402D02*
X372181D01*
X269819Y382803D02*
Y400402D01*
X241709Y382803D02*
X269819D01*
Y59850D02*
Y77449D01*
Y59850D02*
X372181D01*
X241709Y77449D02*
X269819D01*
X241709D02*
Y382803D01*
X412110Y221628D02*
Y233439D01*
Y221628D02*
X425890D01*
Y233439D01*
X412110D02*
X425890D01*
X122752Y128784D02*
X156248D01*
X122752D02*
Y154405D01*
X156248D01*
Y128784D02*
Y154405D01*
X435193Y309319D02*
Y325933D01*
X421807Y309319D02*
X435193D01*
X421807D02*
Y325933D01*
X435193D01*
X438465Y67783D02*
Y88256D01*
X421535D02*
X438465D01*
X421535Y67783D02*
X438465D01*
X421535D02*
Y88256D01*
M02*
