G04*
G04 #@! TF.GenerationSoftware,Altium Limited,Altium Designer,25.8.1 (18)*
G04*
G04 Layer_Color=2752767*
%FSLAX25Y25*%
%MOIN*%
G70*
G04*
G04 #@! TF.SameCoordinates,E1838567-EF02-44A7-8A02-23B903FEE0B8*
G04*
G04*
G04 #@! TF.FilePolarity,Positive*
G04*
G01*
G75*
%ADD15C,0.00500*%
%ADD93C,0.00667*%
D15*
X155832Y279093D02*
X152500D01*
Y276594D01*
X154166D01*
X152500D01*
Y274095D01*
X165832Y279093D02*
X162500D01*
Y276594D01*
X164166D01*
X162500D01*
Y274095D01*
X454000Y290593D02*
Y285595D01*
X456499D01*
X457332Y286427D01*
Y287261D01*
X456499Y288094D01*
X454000D01*
X456499D01*
X457332Y288927D01*
Y289760D01*
X456499Y290593D01*
X454000D01*
X224000Y250593D02*
Y245595D01*
X226499D01*
X227332Y246427D01*
Y247261D01*
X226499Y248094D01*
X224000D01*
X226499D01*
X227332Y248927D01*
Y249760D01*
X226499Y250593D01*
X224000D01*
X214000Y300593D02*
Y295595D01*
X216499D01*
X217332Y296427D01*
Y297261D01*
X216499Y298094D01*
X214000D01*
X216499D01*
X217332Y298927D01*
Y299760D01*
X216499Y300593D01*
X214000D01*
Y160593D02*
Y155595D01*
X216499D01*
X217332Y156428D01*
Y157261D01*
X216499Y158094D01*
X214000D01*
X216499D01*
X217332Y158927D01*
Y159760D01*
X216499Y160593D01*
X214000D01*
Y180593D02*
Y175594D01*
X216499D01*
X217332Y176427D01*
Y177261D01*
X216499Y178094D01*
X214000D01*
X216499D01*
X217332Y178927D01*
Y179760D01*
X216499Y180593D01*
X214000D01*
Y200593D02*
Y195595D01*
X216499D01*
X217332Y196428D01*
Y197261D01*
X216499Y198094D01*
X214000D01*
X216499D01*
X217332Y198927D01*
Y199760D01*
X216499Y200593D01*
X214000D01*
Y190593D02*
Y185594D01*
X216499D01*
X217332Y186427D01*
Y187261D01*
X216499Y188094D01*
X214000D01*
X216499D01*
X217332Y188927D01*
Y189760D01*
X216499Y190593D01*
X214000D01*
Y170593D02*
Y165594D01*
X216499D01*
X217332Y166428D01*
Y167261D01*
X216499Y168094D01*
X214000D01*
X216499D01*
X217332Y168927D01*
Y169760D01*
X216499Y170593D01*
X214000D01*
Y150593D02*
Y145595D01*
X216499D01*
X217332Y146428D01*
Y147261D01*
X216499Y148094D01*
X214000D01*
X216499D01*
X217332Y148927D01*
Y149760D01*
X216499Y150593D01*
X214000D01*
Y140593D02*
Y135594D01*
X216499D01*
X217332Y136427D01*
Y137261D01*
X216499Y138094D01*
X214000D01*
X216499D01*
X217332Y138927D01*
Y139760D01*
X216499Y140593D01*
X214000D01*
Y320593D02*
Y315595D01*
X216499D01*
X217332Y316427D01*
Y317261D01*
X216499Y318094D01*
X214000D01*
X216499D01*
X217332Y318927D01*
Y319760D01*
X216499Y320593D01*
X214000D01*
Y310593D02*
Y305594D01*
X216499D01*
X217332Y306428D01*
Y307261D01*
X216499Y308094D01*
X214000D01*
X216499D01*
X217332Y308927D01*
Y309760D01*
X216499Y310593D01*
X214000D01*
Y290593D02*
Y285595D01*
X216499D01*
X217332Y286427D01*
Y287261D01*
X216499Y288094D01*
X214000D01*
X216499D01*
X217332Y288927D01*
Y289760D01*
X216499Y290593D01*
X214000D01*
Y280593D02*
Y275594D01*
X216499D01*
X217332Y276428D01*
Y277261D01*
X216499Y278094D01*
X214000D01*
X216499D01*
X217332Y278927D01*
Y279760D01*
X216499Y280593D01*
X214000D01*
Y270593D02*
Y265595D01*
X216499D01*
X217332Y266427D01*
Y267261D01*
X216499Y268094D01*
X214000D01*
X216499D01*
X217332Y268927D01*
Y269760D01*
X216499Y270593D01*
X214000D01*
Y260593D02*
Y255594D01*
X216499D01*
X217332Y256428D01*
Y257261D01*
X216499Y258094D01*
X214000D01*
X216499D01*
X217332Y258927D01*
Y259760D01*
X216499Y260593D01*
X214000D01*
Y240593D02*
Y235595D01*
X216499D01*
X217332Y236427D01*
Y237261D01*
X216499Y238094D01*
X214000D01*
X216499D01*
X217332Y238927D01*
Y239760D01*
X216499Y240593D01*
X214000D01*
Y250593D02*
Y245595D01*
X216499D01*
X217332Y246427D01*
Y247261D01*
X216499Y248094D01*
X214000D01*
X216499D01*
X217332Y248927D01*
Y249760D01*
X216499Y250593D01*
X214000D01*
Y230593D02*
Y225594D01*
X216499D01*
X217332Y226428D01*
Y227261D01*
X216499Y228094D01*
X214000D01*
X216499D01*
X217332Y228927D01*
Y229760D01*
X216499Y230593D01*
X214000D01*
Y220593D02*
Y215595D01*
X216499D01*
X217332Y216427D01*
Y217261D01*
X216499Y218094D01*
X214000D01*
X216499D01*
X217332Y218927D01*
Y219760D01*
X216499Y220593D01*
X214000D01*
Y210593D02*
Y205594D01*
X216499D01*
X217332Y206428D01*
Y207261D01*
X216499Y208094D01*
X214000D01*
X216499D01*
X217332Y208927D01*
Y209760D01*
X216499Y210593D01*
X214000D01*
X224000Y180593D02*
Y175594D01*
X226499D01*
X227332Y176427D01*
Y177261D01*
X226499Y178094D01*
X224000D01*
X226499D01*
X227332Y178927D01*
Y179760D01*
X226499Y180593D01*
X224000D01*
Y170593D02*
Y165594D01*
X226499D01*
X227332Y166428D01*
Y167261D01*
X226499Y168094D01*
X224000D01*
X226499D01*
X227332Y168927D01*
Y169760D01*
X226499Y170593D01*
X224000D01*
Y160593D02*
Y155595D01*
X226499D01*
X227332Y156428D01*
Y157261D01*
X226499Y158094D01*
X224000D01*
X226499D01*
X227332Y158927D01*
Y159760D01*
X226499Y160593D01*
X224000D01*
Y150593D02*
Y145595D01*
X226499D01*
X227332Y146428D01*
Y147261D01*
X226499Y148094D01*
X224000D01*
X226499D01*
X227332Y148927D01*
Y149760D01*
X226499Y150593D01*
X224000D01*
Y320593D02*
Y315595D01*
X226499D01*
X227332Y316427D01*
Y317261D01*
X226499Y318094D01*
X224000D01*
X226499D01*
X227332Y318927D01*
Y319760D01*
X226499Y320593D01*
X224000D01*
Y310593D02*
Y305594D01*
X226499D01*
X227332Y306428D01*
Y307261D01*
X226499Y308094D01*
X224000D01*
X226499D01*
X227332Y308927D01*
Y309760D01*
X226499Y310593D01*
X224000D01*
Y300593D02*
Y295595D01*
X226499D01*
X227332Y296427D01*
Y297261D01*
X226499Y298094D01*
X224000D01*
X226499D01*
X227332Y298927D01*
Y299760D01*
X226499Y300593D01*
X224000D01*
Y290593D02*
Y285595D01*
X226499D01*
X227332Y286427D01*
Y287261D01*
X226499Y288094D01*
X224000D01*
X226499D01*
X227332Y288927D01*
Y289760D01*
X226499Y290593D01*
X224000D01*
Y280593D02*
Y275594D01*
X226499D01*
X227332Y276428D01*
Y277261D01*
X226499Y278094D01*
X224000D01*
X226499D01*
X227332Y278927D01*
Y279760D01*
X226499Y280593D01*
X224000D01*
Y270593D02*
Y265595D01*
X226499D01*
X227332Y266427D01*
Y267261D01*
X226499Y268094D01*
X224000D01*
X226499D01*
X227332Y268927D01*
Y269760D01*
X226499Y270593D01*
X224000D01*
Y260593D02*
Y255594D01*
X226499D01*
X227332Y256428D01*
Y257261D01*
X226499Y258094D01*
X224000D01*
X226499D01*
X227332Y258927D01*
Y259760D01*
X226499Y260593D01*
X224000D01*
Y240593D02*
Y235595D01*
X226499D01*
X227332Y236427D01*
Y237261D01*
X226499Y238094D01*
X224000D01*
X226499D01*
X227332Y238927D01*
Y239760D01*
X226499Y240593D01*
X224000D01*
Y230593D02*
Y225594D01*
X226499D01*
X227332Y226428D01*
Y227261D01*
X226499Y228094D01*
X224000D01*
X226499D01*
X227332Y228927D01*
Y229760D01*
X226499Y230593D01*
X224000D01*
Y220593D02*
Y215595D01*
X226499D01*
X227332Y216427D01*
Y217261D01*
X226499Y218094D01*
X224000D01*
X226499D01*
X227332Y218927D01*
Y219760D01*
X226499Y220593D01*
X224000D01*
Y210593D02*
Y205594D01*
X226499D01*
X227332Y206428D01*
Y207261D01*
X226499Y208094D01*
X224000D01*
X226499D01*
X227332Y208927D01*
Y209760D01*
X226499Y210593D01*
X224000D01*
Y200593D02*
Y195595D01*
X226499D01*
X227332Y196428D01*
Y197261D01*
X226499Y198094D01*
X224000D01*
X226499D01*
X227332Y198927D01*
Y199760D01*
X226499Y200593D01*
X224000D01*
Y190593D02*
Y185594D01*
X226499D01*
X227332Y186427D01*
Y187261D01*
X226499Y188094D01*
X224000D01*
X226499D01*
X227332Y188927D01*
Y189760D01*
X226499Y190593D01*
X224000D01*
Y140593D02*
Y135594D01*
X226499D01*
X227332Y136427D01*
Y137261D01*
X226499Y138094D01*
X224000D01*
X226499D01*
X227332Y138927D01*
Y139760D01*
X226499Y140593D01*
X224000D01*
X454000Y180593D02*
Y175594D01*
X456499D01*
X457332Y176427D01*
Y177261D01*
X456499Y178094D01*
X454000D01*
X456499D01*
X457332Y178927D01*
Y179760D01*
X456499Y180593D01*
X454000D01*
Y200593D02*
Y195595D01*
X456499D01*
X457332Y196428D01*
Y197261D01*
X456499Y198094D01*
X454000D01*
X456499D01*
X457332Y198927D01*
Y199760D01*
X456499Y200593D01*
X454000D01*
Y190593D02*
Y185594D01*
X456499D01*
X457332Y186427D01*
Y187261D01*
X456499Y188094D01*
X454000D01*
X456499D01*
X457332Y188927D01*
Y189760D01*
X456499Y190593D01*
X454000D01*
Y170593D02*
Y165594D01*
X456499D01*
X457332Y166428D01*
Y167261D01*
X456499Y168094D01*
X454000D01*
X456499D01*
X457332Y168927D01*
Y169760D01*
X456499Y170593D01*
X454000D01*
Y160593D02*
Y155595D01*
X456499D01*
X457332Y156428D01*
Y157261D01*
X456499Y158094D01*
X454000D01*
X456499D01*
X457332Y158927D01*
Y159760D01*
X456499Y160593D01*
X454000D01*
Y150593D02*
Y145595D01*
X456499D01*
X457332Y146428D01*
Y147261D01*
X456499Y148094D01*
X454000D01*
X456499D01*
X457332Y148927D01*
Y149760D01*
X456499Y150593D01*
X454000D01*
Y140593D02*
Y135594D01*
X456499D01*
X457332Y136427D01*
Y137261D01*
X456499Y138094D01*
X454000D01*
X456499D01*
X457332Y138927D01*
Y139760D01*
X456499Y140593D01*
X454000D01*
Y320593D02*
Y315595D01*
X456499D01*
X457332Y316427D01*
Y317261D01*
X456499Y318094D01*
X454000D01*
X456499D01*
X457332Y318927D01*
Y319760D01*
X456499Y320593D01*
X454000D01*
Y310593D02*
Y305594D01*
X456499D01*
X457332Y306428D01*
Y307261D01*
X456499Y308094D01*
X454000D01*
X456499D01*
X457332Y308927D01*
Y309760D01*
X456499Y310593D01*
X454000D01*
Y300593D02*
Y295595D01*
X456499D01*
X457332Y296427D01*
Y297261D01*
X456499Y298094D01*
X454000D01*
X456499D01*
X457332Y298927D01*
Y299760D01*
X456499Y300593D01*
X454000D01*
Y280593D02*
Y275594D01*
X456499D01*
X457332Y276428D01*
Y277261D01*
X456499Y278094D01*
X454000D01*
X456499D01*
X457332Y278927D01*
Y279760D01*
X456499Y280593D01*
X454000D01*
Y270593D02*
Y265595D01*
X456499D01*
X457332Y266427D01*
Y267261D01*
X456499Y268094D01*
X454000D01*
X456499D01*
X457332Y268927D01*
Y269760D01*
X456499Y270593D01*
X454000D01*
Y260593D02*
Y255594D01*
X456499D01*
X457332Y256428D01*
Y257261D01*
X456499Y258094D01*
X454000D01*
X456499D01*
X457332Y258927D01*
Y259760D01*
X456499Y260593D01*
X454000D01*
Y240593D02*
Y235595D01*
X456499D01*
X457332Y236427D01*
Y237261D01*
X456499Y238094D01*
X454000D01*
X456499D01*
X457332Y238927D01*
Y239760D01*
X456499Y240593D01*
X454000D01*
Y250593D02*
Y245595D01*
X456499D01*
X457332Y246427D01*
Y247261D01*
X456499Y248094D01*
X454000D01*
X456499D01*
X457332Y248927D01*
Y249760D01*
X456499Y250593D01*
X454000D01*
Y230593D02*
Y225594D01*
X456499D01*
X457332Y226428D01*
Y227261D01*
X456499Y228094D01*
X454000D01*
X456499D01*
X457332Y228927D01*
Y229760D01*
X456499Y230593D01*
X454000D01*
Y220593D02*
Y215595D01*
X456499D01*
X457332Y216427D01*
Y217261D01*
X456499Y218094D01*
X454000D01*
X456499D01*
X457332Y218927D01*
Y219760D01*
X456499Y220593D01*
X454000D01*
Y210593D02*
Y205594D01*
X456499D01*
X457332Y206428D01*
Y207261D01*
X456499Y208094D01*
X454000D01*
X456499D01*
X457332Y208927D01*
Y209760D01*
X456499Y210593D01*
X454000D01*
X464000Y180593D02*
Y175594D01*
X466499D01*
X467332Y176427D01*
Y177261D01*
X466499Y178094D01*
X464000D01*
X466499D01*
X467332Y178927D01*
Y179760D01*
X466499Y180593D01*
X464000D01*
Y170593D02*
Y165594D01*
X466499D01*
X467332Y166428D01*
Y167261D01*
X466499Y168094D01*
X464000D01*
X466499D01*
X467332Y168927D01*
Y169760D01*
X466499Y170593D01*
X464000D01*
Y160593D02*
Y155595D01*
X466499D01*
X467332Y156428D01*
Y157261D01*
X466499Y158094D01*
X464000D01*
X466499D01*
X467332Y158927D01*
Y159760D01*
X466499Y160593D01*
X464000D01*
Y150593D02*
Y145595D01*
X466499D01*
X467332Y146428D01*
Y147261D01*
X466499Y148094D01*
X464000D01*
X466499D01*
X467332Y148927D01*
Y149760D01*
X466499Y150593D01*
X464000D01*
Y320593D02*
Y315595D01*
X466499D01*
X467332Y316427D01*
Y317261D01*
X466499Y318094D01*
X464000D01*
X466499D01*
X467332Y318927D01*
Y319760D01*
X466499Y320593D01*
X464000D01*
Y310593D02*
Y305594D01*
X466499D01*
X467332Y306428D01*
Y307261D01*
X466499Y308094D01*
X464000D01*
X466499D01*
X467332Y308927D01*
Y309760D01*
X466499Y310593D01*
X464000D01*
Y300593D02*
Y295595D01*
X466499D01*
X467332Y296427D01*
Y297261D01*
X466499Y298094D01*
X464000D01*
X466499D01*
X467332Y298927D01*
Y299760D01*
X466499Y300593D01*
X464000D01*
Y290593D02*
Y285595D01*
X466499D01*
X467332Y286427D01*
Y287261D01*
X466499Y288094D01*
X464000D01*
X466499D01*
X467332Y288927D01*
Y289760D01*
X466499Y290593D01*
X464000D01*
Y280593D02*
Y275594D01*
X466499D01*
X467332Y276428D01*
Y277261D01*
X466499Y278094D01*
X464000D01*
X466499D01*
X467332Y278927D01*
Y279760D01*
X466499Y280593D01*
X464000D01*
Y270593D02*
Y265595D01*
X466499D01*
X467332Y266427D01*
Y267261D01*
X466499Y268094D01*
X464000D01*
X466499D01*
X467332Y268927D01*
Y269760D01*
X466499Y270593D01*
X464000D01*
Y260593D02*
Y255594D01*
X466499D01*
X467332Y256428D01*
Y257261D01*
X466499Y258094D01*
X464000D01*
X466499D01*
X467332Y258927D01*
Y259760D01*
X466499Y260593D01*
X464000D01*
Y250593D02*
Y245595D01*
X466499D01*
X467332Y246427D01*
Y247261D01*
X466499Y248094D01*
X464000D01*
X466499D01*
X467332Y248927D01*
Y249760D01*
X466499Y250593D01*
X464000D01*
Y240593D02*
Y235595D01*
X466499D01*
X467332Y236427D01*
Y237261D01*
X466499Y238094D01*
X464000D01*
X466499D01*
X467332Y238927D01*
Y239760D01*
X466499Y240593D01*
X464000D01*
Y230593D02*
Y225594D01*
X466499D01*
X467332Y226428D01*
Y227261D01*
X466499Y228094D01*
X464000D01*
X466499D01*
X467332Y228927D01*
Y229760D01*
X466499Y230593D01*
X464000D01*
Y220593D02*
Y215595D01*
X466499D01*
X467332Y216427D01*
Y217261D01*
X466499Y218094D01*
X464000D01*
X466499D01*
X467332Y218927D01*
Y219760D01*
X466499Y220593D01*
X464000D01*
Y210593D02*
Y205594D01*
X466499D01*
X467332Y206428D01*
Y207261D01*
X466499Y208094D01*
X464000D01*
X466499D01*
X467332Y208927D01*
Y209760D01*
X466499Y210593D01*
X464000D01*
Y200593D02*
Y195595D01*
X466499D01*
X467332Y196428D01*
Y197261D01*
X466499Y198094D01*
X464000D01*
X466499D01*
X467332Y198927D01*
Y199760D01*
X466499Y200593D01*
X464000D01*
Y190593D02*
Y185594D01*
X466499D01*
X467332Y186427D01*
Y187261D01*
X466499Y188094D01*
X464000D01*
X466499D01*
X467332Y188927D01*
Y189760D01*
X466499Y190593D01*
X464000D01*
Y140593D02*
Y135594D01*
X466499D01*
X467332Y136427D01*
Y137261D01*
X466499Y138094D01*
X464000D01*
X466499D01*
X467332Y138927D01*
Y139760D01*
X466499Y140593D01*
X464000D01*
X486415Y124937D02*
X485582Y125770D01*
X483916D01*
X483083Y124937D01*
Y121605D01*
X483916Y120772D01*
X485582D01*
X486415Y121605D01*
Y375455D02*
X483083D01*
Y370457D01*
X486415D01*
X483083Y372956D02*
X484749D01*
X552000Y125770D02*
Y120772D01*
X554499D01*
X555332Y121605D01*
Y124937D01*
X554499Y125770D01*
X552000D01*
Y343093D02*
Y338094D01*
X554499D01*
X555332Y338928D01*
Y342260D01*
X554499Y343093D01*
X552000D01*
X624250Y342260D02*
X623417Y343093D01*
X621750D01*
X620917Y342260D01*
Y338928D01*
X621750Y338094D01*
X623417D01*
X624250Y338928D01*
X393250Y342953D02*
X392417Y343786D01*
X390750D01*
X389917Y342953D01*
Y339620D01*
X390750Y338787D01*
X392417D01*
X393250Y339620D01*
X321000Y343786D02*
Y338787D01*
X323499D01*
X324332Y339620D01*
Y342953D01*
X323499Y343786D01*
X321000D01*
Y126463D02*
Y121465D01*
X323499D01*
X324332Y122298D01*
Y125630D01*
X323499Y126463D01*
X321000D01*
X255415Y376148D02*
X252083D01*
Y371150D01*
X255415D01*
X252083Y373649D02*
X253749D01*
X255415Y125630D02*
X254582Y126463D01*
X252916D01*
X252083Y125630D01*
Y122298D01*
X252916Y121465D01*
X254582D01*
X255415Y122298D01*
X124705Y148453D02*
X125705D01*
X126705Y149453D01*
X127705Y148453D01*
X128705D01*
Y149453D01*
X127705Y150453D01*
X128705Y151453D01*
Y152453D01*
X127705D01*
X126705Y151453D01*
X125705Y152453D01*
X124705D01*
Y151453D01*
X125705Y150453D01*
X124705Y149453D01*
Y148453D01*
X125505Y149253D02*
X126105D01*
X126705Y149853D01*
X127305Y149253D01*
X127905D01*
Y149853D01*
X127305Y150453D01*
X127905Y151053D01*
Y151653D01*
X127305D01*
X126705Y151053D01*
X126105Y151653D01*
X125505D01*
Y151053D01*
X126105Y150453D01*
X125505Y149853D01*
Y149253D01*
X150295Y148453D02*
X151295D01*
X152295Y149453D01*
X153295Y148453D01*
X154295D01*
Y149453D01*
X153295Y150453D01*
X154295Y151453D01*
Y152453D01*
X153295D01*
X152295Y151453D01*
X151295Y152453D01*
X150295D01*
Y151453D01*
X151295Y150453D01*
X150295Y149453D01*
Y148453D01*
X151095Y149253D02*
X151695D01*
X152295Y149853D01*
X152895Y149253D01*
X153495D01*
Y149853D01*
X152895Y150453D01*
X153495Y151053D01*
Y151653D01*
X152895D01*
X152295Y151053D01*
X151695Y151653D01*
X151095D01*
Y151053D01*
X151695Y150453D01*
X151095Y149853D01*
Y149253D01*
X124705Y130736D02*
X125705D01*
X126705Y131736D01*
X127705Y130736D01*
X128705D01*
Y131736D01*
X127705Y132736D01*
X128705Y133736D01*
Y134736D01*
X127705D01*
X126705Y133736D01*
X125705Y134736D01*
X124705D01*
Y133736D01*
X125705Y132736D01*
X124705Y131736D01*
Y130736D01*
X125505Y131536D02*
X126105D01*
X126705Y132136D01*
X127305Y131536D01*
X127905D01*
Y132136D01*
X127305Y132736D01*
X127905Y133336D01*
Y133936D01*
X127305D01*
X126705Y133336D01*
X126105Y133936D01*
X125505D01*
Y133336D01*
X126105Y132736D01*
X125505Y132136D01*
Y131536D01*
X150295Y130736D02*
X151295D01*
X152295Y131736D01*
X153295Y130736D01*
X154295D01*
Y131736D01*
X153295Y132736D01*
X154295Y133736D01*
Y134736D01*
X153295D01*
X152295Y133736D01*
X151295Y134736D01*
X150295D01*
Y133736D01*
X151295Y132736D01*
X150295Y131736D01*
Y130736D01*
X151095Y131536D02*
X151695D01*
X152295Y132136D01*
X152895Y131536D01*
X153495D01*
Y132136D01*
X152895Y132736D01*
X153495Y133336D01*
Y133936D01*
X152895D01*
X152295Y133336D01*
X151695Y133936D01*
X151095D01*
Y133336D01*
X151695Y132736D01*
X151095Y132136D01*
Y131536D01*
X222000Y120593D02*
Y115594D01*
X224499D01*
X225332Y116428D01*
Y117261D01*
X224499Y118094D01*
X222000D01*
X224499D01*
X225332Y118927D01*
Y119760D01*
X224499Y120593D01*
X222000D01*
X212000D02*
Y115594D01*
X214499D01*
X215332Y116428D01*
Y117261D01*
X214499Y118094D01*
X212000D01*
X214499D01*
X215332Y118927D01*
Y119760D01*
X214499Y120593D01*
X212000D01*
X202000D02*
Y115594D01*
X204499D01*
X205332Y116428D01*
Y117261D01*
X204499Y118094D01*
X202000D01*
X204499D01*
X205332Y118927D01*
Y119760D01*
X204499Y120593D01*
X202000D01*
X441000Y389093D02*
X442666D01*
X441833D01*
Y384095D01*
X441000D01*
X442666D01*
X431000Y389093D02*
X432666D01*
X431833D01*
Y384095D01*
X431000D01*
X432666D01*
X165832Y269093D02*
X162500D01*
Y266594D01*
X164166D01*
X162500D01*
Y264094D01*
X155832Y269093D02*
X152500D01*
Y266594D01*
X154166D01*
X152500D01*
Y264094D01*
X165832Y259093D02*
X162500D01*
Y256594D01*
X164166D01*
X162500D01*
Y254095D01*
X155832Y259093D02*
X152500D01*
Y256594D01*
X154166D01*
X152500D01*
Y254095D01*
X155832Y249093D02*
X152500D01*
Y246594D01*
X154166D01*
X152500D01*
Y244094D01*
X165832Y249093D02*
X162500D01*
Y246594D01*
X164166D01*
X162500D01*
Y244094D01*
X155832Y239093D02*
X152500D01*
Y236594D01*
X154166D01*
X152500D01*
Y234095D01*
X165832Y239093D02*
X162500D01*
Y236594D01*
X164166D01*
X162500D01*
Y234095D01*
X155832Y229093D02*
X152500D01*
Y226594D01*
X154166D01*
X152500D01*
Y224095D01*
X165832Y229093D02*
X162500D01*
Y226594D01*
X164166D01*
X162500D01*
Y224095D01*
X155832Y219093D02*
X152500D01*
Y216594D01*
X154166D01*
X152500D01*
Y214094D01*
X165832Y219093D02*
X162500D01*
Y216594D01*
X164166D01*
X162500D01*
Y214094D01*
X155832Y209093D02*
X152500D01*
Y206594D01*
X154166D01*
X152500D01*
Y204095D01*
X165832Y209093D02*
X162500D01*
Y206594D01*
X164166D01*
X162500D01*
Y204095D01*
X155832Y199093D02*
X152500D01*
Y196594D01*
X154166D01*
X152500D01*
Y194095D01*
X165832Y199093D02*
X162500D01*
Y196594D01*
X164166D01*
X162500D01*
Y194095D01*
X155832Y189093D02*
X152500D01*
Y186594D01*
X154166D01*
X152500D01*
Y184095D01*
X165832Y189093D02*
X162500D01*
Y186594D01*
X164166D01*
X162500D01*
Y184095D01*
X424500Y343626D02*
Y347626D01*
X428500D01*
Y343626D01*
X424500D01*
X418500Y322311D02*
Y326311D01*
X422500D01*
Y322311D01*
X418500D01*
X412500Y312469D02*
Y316469D01*
X416500D01*
Y312469D01*
X412500D01*
X111343Y231594D02*
Y235595D01*
X115343D01*
Y231594D01*
X111343D01*
X386650Y148444D02*
X387650Y149444D01*
X388650D01*
X387650Y150444D01*
X388650Y151444D01*
X387650D01*
X386650Y152445D01*
X385650Y151444D01*
X384650D01*
X385650Y150444D01*
X384650Y149444D01*
X385650D01*
X386650Y148444D01*
X439000Y310595D02*
Y314595D01*
X443000D01*
Y310595D01*
X439000D01*
X414500Y118595D02*
Y122594D01*
X418500D01*
Y118595D01*
X414500D01*
X419000Y215094D02*
Y219094D01*
X423000D01*
Y215094D01*
X419000D01*
X433000Y233594D02*
Y237595D01*
X437000D01*
Y233594D01*
X433000D01*
X233500Y331169D02*
Y335169D01*
X237500D01*
Y331169D01*
X233500D01*
X401500Y221425D02*
Y225425D01*
X405500D01*
Y221425D01*
X401500D01*
X403500Y222902D02*
Y226902D01*
X407500D01*
Y222902D01*
X403500D01*
X405500Y223886D02*
Y227886D01*
X409500D01*
Y223886D01*
X405500D01*
X408000D02*
Y227886D01*
X412000D01*
Y223886D01*
X408000D01*
X530000Y89000D02*
Y93000D01*
X534000D01*
Y89000D01*
X530000D01*
Y82000D02*
Y86000D01*
X534000D01*
Y82000D01*
X530000D01*
Y75000D02*
Y79000D01*
X534000D01*
Y75000D01*
X530000D01*
Y68000D02*
Y72000D01*
X534000D01*
Y68000D01*
X530000D01*
Y61000D02*
Y65000D01*
X534000D01*
Y61000D01*
X530000D01*
X528250Y92500D02*
Y96500D01*
X532250D01*
Y92500D01*
X528250D01*
X526500Y89000D02*
Y93000D01*
X530500D01*
Y89000D01*
X526500D01*
X528250Y85500D02*
Y89500D01*
X532250D01*
Y85500D01*
X528250D01*
Y78500D02*
Y82500D01*
X532250D01*
Y78500D01*
X528250D01*
Y71500D02*
Y75500D01*
X532250D01*
Y71500D01*
X528250D01*
Y64500D02*
Y68500D01*
X532250D01*
Y64500D01*
X528250D01*
X524750Y92500D02*
Y96500D01*
X528750D01*
Y92500D01*
X524750D01*
X521250D02*
Y96500D01*
X525250D01*
Y92500D01*
X521250D01*
X517750D02*
Y96500D01*
X521750D01*
Y92500D01*
X517750D01*
X514250D02*
Y96500D01*
X518250D01*
Y92500D01*
X514250D01*
X512500Y89000D02*
Y93000D01*
X516500D01*
Y89000D01*
X512500D01*
X510750Y92500D02*
Y96500D01*
X514750D01*
Y92500D01*
X510750D01*
X507250D02*
Y96500D01*
X511250D01*
Y92500D01*
X507250D01*
X503750D02*
Y96500D01*
X507750D01*
Y92500D01*
X503750D01*
X496750Y85500D02*
Y89500D01*
X500750D01*
Y85500D01*
X496750D01*
X495000Y82000D02*
Y86000D01*
X499000D01*
Y82000D01*
X495000D01*
X496750Y78500D02*
Y82500D01*
X500750D01*
Y78500D01*
X496750D01*
X495000Y75000D02*
Y79000D01*
X499000D01*
Y75000D01*
X495000D01*
X496750Y71500D02*
Y75500D01*
X500750D01*
Y71500D01*
X496750D01*
X495000Y68000D02*
Y72000D01*
X499000D01*
Y68000D01*
X495000D01*
X496750Y64500D02*
Y68500D01*
X500750D01*
Y64500D01*
X496750D01*
X495000Y61000D02*
Y65000D01*
X499000D01*
Y61000D01*
X495000D01*
X300000Y90000D02*
Y94000D01*
X304000D01*
Y90000D01*
X300000D01*
X298000Y86000D02*
Y90000D01*
X302000D01*
Y86000D01*
X298000D01*
X300000Y82000D02*
Y86000D01*
X304000D01*
Y82000D01*
X300000D01*
X298000Y78000D02*
Y82000D01*
X302000D01*
Y78000D01*
X298000D01*
X300000Y74000D02*
Y78000D01*
X304000D01*
Y74000D01*
X300000D01*
X298000Y70000D02*
Y74000D01*
X302000D01*
Y70000D01*
X298000D01*
X300000Y66000D02*
Y70000D01*
X304000D01*
Y66000D01*
X300000D01*
X298000Y62000D02*
Y66000D01*
X302000D01*
Y62000D01*
X298000D01*
X296000Y90000D02*
Y94000D01*
X300000D01*
Y90000D01*
X296000D01*
Y82000D02*
Y86000D01*
X300000D01*
Y82000D01*
X296000D01*
Y74000D02*
Y78000D01*
X300000D01*
Y74000D01*
X296000D01*
Y66000D02*
Y70000D01*
X300000D01*
Y66000D01*
X296000D01*
X292000Y90000D02*
Y94000D01*
X296000D01*
Y90000D01*
X292000D01*
X288000D02*
Y94000D01*
X292000D01*
Y90000D01*
X288000D01*
X284000D02*
Y94000D01*
X288000D01*
Y90000D01*
X284000D01*
X280000D02*
Y94000D01*
X284000D01*
Y90000D01*
X280000D01*
X276000D02*
Y94000D01*
X280000D01*
Y90000D01*
X276000D01*
X272000D02*
Y94000D01*
X276000D01*
Y90000D01*
X272000D01*
X268000D02*
Y94000D01*
X272000D01*
Y90000D01*
X268000D01*
X266000Y86000D02*
Y90000D01*
X270000D01*
Y86000D01*
X266000D01*
Y78000D02*
Y82000D01*
X270000D01*
Y78000D01*
X266000D01*
Y70000D02*
Y74000D01*
X270000D01*
Y70000D01*
X266000D01*
Y62000D02*
Y66000D01*
X270000D01*
Y62000D01*
X266000D01*
X264000Y90000D02*
Y94000D01*
X268000D01*
Y90000D01*
X264000D01*
X262000Y86000D02*
Y90000D01*
X266000D01*
Y86000D01*
X262000D01*
X264000Y82000D02*
Y86000D01*
X268000D01*
Y82000D01*
X264000D01*
X262000Y78000D02*
Y82000D01*
X266000D01*
Y78000D01*
X262000D01*
X264000Y74000D02*
Y78000D01*
X268000D01*
Y74000D01*
X264000D01*
X262000Y70000D02*
Y74000D01*
X266000D01*
Y70000D01*
X262000D01*
X264000Y66000D02*
Y70000D01*
X268000D01*
Y66000D01*
X264000D01*
X262000Y62000D02*
Y66000D01*
X266000D01*
Y62000D01*
X262000D01*
X468750Y71500D02*
Y75500D01*
X472750D01*
Y71500D01*
X468750D01*
X463500Y96000D02*
Y100000D01*
X467500D01*
Y96000D01*
X463500D01*
X465250Y92500D02*
Y96500D01*
X469250D01*
Y92500D01*
X465250D01*
X463500Y89000D02*
Y93000D01*
X467500D01*
Y89000D01*
X463500D01*
X465250Y78500D02*
Y82500D01*
X469250D01*
Y78500D01*
X465250D01*
X460000Y96000D02*
Y100000D01*
X464000D01*
Y96000D01*
X460000D01*
X461750Y92500D02*
Y96500D01*
X465750D01*
Y92500D01*
X461750D01*
X460000Y89000D02*
Y93000D01*
X464000D01*
Y89000D01*
X460000D01*
X461750Y78500D02*
Y82500D01*
X465750D01*
Y78500D01*
X461750D01*
X460000Y75000D02*
Y79000D01*
X464000D01*
Y75000D01*
X460000D01*
X461750Y64500D02*
Y68500D01*
X465750D01*
Y64500D01*
X461750D01*
X456500Y103000D02*
Y107000D01*
X460500D01*
Y103000D01*
X456500D01*
X458250Y99500D02*
Y103500D01*
X462250D01*
Y99500D01*
X458250D01*
X456500Y96000D02*
Y100000D01*
X460500D01*
Y96000D01*
X456500D01*
X458250Y92500D02*
Y96500D01*
X462250D01*
Y92500D01*
X458250D01*
X456500Y89000D02*
Y93000D01*
X460500D01*
Y89000D01*
X456500D01*
X458250Y78500D02*
Y82500D01*
X462250D01*
Y78500D01*
X458250D01*
X456500Y75000D02*
Y79000D01*
X460500D01*
Y75000D01*
X456500D01*
X458250Y64500D02*
Y68500D01*
X462250D01*
Y64500D01*
X458250D01*
X453000Y103000D02*
Y107000D01*
X457000D01*
Y103000D01*
X453000D01*
X454750Y99500D02*
Y103500D01*
X458750D01*
Y99500D01*
X454750D01*
X453000Y96000D02*
Y100000D01*
X457000D01*
Y96000D01*
X453000D01*
X454750Y92500D02*
Y96500D01*
X458750D01*
Y92500D01*
X454750D01*
X453000Y89000D02*
Y93000D01*
X457000D01*
Y89000D01*
X453000D01*
X454750Y64500D02*
Y68500D01*
X458750D01*
Y64500D01*
X454750D01*
X449500Y103000D02*
Y107000D01*
X453500D01*
Y103000D01*
X449500D01*
X451250Y99500D02*
Y103500D01*
X455250D01*
Y99500D01*
X451250D01*
X449500Y96000D02*
Y100000D01*
X453500D01*
Y96000D01*
X449500D01*
X451250Y92500D02*
Y96500D01*
X455250D01*
Y92500D01*
X451250D01*
X449500Y89000D02*
Y93000D01*
X453500D01*
Y89000D01*
X449500D01*
X447750Y99500D02*
Y103500D01*
X451750D01*
Y99500D01*
X447750D01*
X446000Y96000D02*
Y100000D01*
X450000D01*
Y96000D01*
X446000D01*
X447750Y92500D02*
Y96500D01*
X451750D01*
Y92500D01*
X447750D01*
X446000Y89000D02*
Y93000D01*
X450000D01*
Y89000D01*
X446000D01*
X444250Y99500D02*
Y103500D01*
X448250D01*
Y99500D01*
X444250D01*
X442500Y96000D02*
Y100000D01*
X446500D01*
Y96000D01*
X442500D01*
X444250Y92500D02*
Y96500D01*
X448250D01*
Y92500D01*
X444250D01*
X442500Y89000D02*
Y93000D01*
X446500D01*
Y89000D01*
X442500D01*
X440750Y106500D02*
Y110500D01*
X444750D01*
Y106500D01*
X440750D01*
X439000Y103000D02*
Y107000D01*
X443000D01*
Y103000D01*
X439000D01*
X440750Y92500D02*
Y96500D01*
X444750D01*
Y92500D01*
X440750D01*
X439000Y89000D02*
Y93000D01*
X443000D01*
Y89000D01*
X439000D01*
Y75000D02*
Y79000D01*
X443000D01*
Y75000D01*
X439000D01*
X437250Y106500D02*
Y110500D01*
X441250D01*
Y106500D01*
X437250D01*
X435500Y103000D02*
Y107000D01*
X439500D01*
Y103000D01*
X435500D01*
X437250Y99500D02*
Y103500D01*
X441250D01*
Y99500D01*
X437250D01*
Y92500D02*
Y96500D01*
X441250D01*
Y92500D01*
X437250D01*
X435500Y89000D02*
Y93000D01*
X439500D01*
Y89000D01*
X435500D01*
X437250Y85500D02*
Y89500D01*
X441250D01*
Y85500D01*
X437250D01*
Y71500D02*
Y75500D01*
X441250D01*
Y71500D01*
X437250D01*
X433750Y64500D02*
Y68500D01*
X437750D01*
Y64500D01*
X433750D01*
X428500Y103000D02*
Y107000D01*
X432500D01*
Y103000D01*
X428500D01*
Y96000D02*
Y100000D01*
X432500D01*
Y96000D01*
X428500D01*
X430250Y64500D02*
Y68500D01*
X434250D01*
Y64500D01*
X430250D01*
X426750D02*
Y68500D01*
X430750D01*
Y64500D01*
X426750D01*
X423250D02*
Y68500D01*
X427250D01*
Y64500D01*
X423250D01*
X419750Y106500D02*
Y110500D01*
X423750D01*
Y106500D01*
X419750D01*
X418000Y103000D02*
Y107000D01*
X422000D01*
Y103000D01*
X418000D01*
X419750Y99500D02*
Y103500D01*
X423750D01*
Y99500D01*
X419750D01*
X418000Y96000D02*
Y100000D01*
X422000D01*
Y96000D01*
X418000D01*
X419750Y85500D02*
Y89500D01*
X423750D01*
Y85500D01*
X419750D01*
X418000Y68000D02*
Y72000D01*
X422000D01*
Y68000D01*
X418000D01*
X419750Y64500D02*
Y68500D01*
X423750D01*
Y64500D01*
X419750D01*
X416250Y106500D02*
Y110500D01*
X420250D01*
Y106500D01*
X416250D01*
X414500Y103000D02*
Y107000D01*
X418500D01*
Y103000D01*
X414500D01*
X416250Y99500D02*
Y103500D01*
X420250D01*
Y99500D01*
X416250D01*
X414500Y96000D02*
Y100000D01*
X418500D01*
Y96000D01*
X414500D01*
X416250Y85500D02*
Y89500D01*
X420250D01*
Y85500D01*
X416250D01*
X414500Y68000D02*
Y72000D01*
X418500D01*
Y68000D01*
X414500D01*
X416250Y64500D02*
Y68500D01*
X420250D01*
Y64500D01*
X416250D01*
X412750Y106500D02*
Y110500D01*
X416750D01*
Y106500D01*
X412750D01*
X411000Y103000D02*
Y107000D01*
X415000D01*
Y103000D01*
X411000D01*
X412750Y99500D02*
Y103500D01*
X416750D01*
Y99500D01*
X412750D01*
X411000Y96000D02*
Y100000D01*
X415000D01*
Y96000D01*
X411000D01*
Y89000D02*
Y93000D01*
X415000D01*
Y89000D01*
X411000D01*
X412750Y85500D02*
Y89500D01*
X416750D01*
Y85500D01*
X412750D01*
X411000Y68000D02*
Y72000D01*
X415000D01*
Y68000D01*
X411000D01*
X412750Y64500D02*
Y68500D01*
X416750D01*
Y64500D01*
X412750D01*
X409250Y106500D02*
Y110500D01*
X413250D01*
Y106500D01*
X409250D01*
X407500Y103000D02*
Y107000D01*
X411500D01*
Y103000D01*
X407500D01*
X409250Y99500D02*
Y103500D01*
X413250D01*
Y99500D01*
X409250D01*
X407500Y96000D02*
Y100000D01*
X411500D01*
Y96000D01*
X407500D01*
X409250Y92500D02*
Y96500D01*
X413250D01*
Y92500D01*
X409250D01*
X407500Y89000D02*
Y93000D01*
X411500D01*
Y89000D01*
X407500D01*
X409250Y85500D02*
Y89500D01*
X413250D01*
Y85500D01*
X409250D01*
X407500Y68000D02*
Y72000D01*
X411500D01*
Y68000D01*
X407500D01*
X409250Y64500D02*
Y68500D01*
X413250D01*
Y64500D01*
X409250D01*
X405750Y106500D02*
Y110500D01*
X409750D01*
Y106500D01*
X405750D01*
X404000Y103000D02*
Y107000D01*
X408000D01*
Y103000D01*
X404000D01*
X405750Y99500D02*
Y103500D01*
X409750D01*
Y99500D01*
X405750D01*
X404000Y96000D02*
Y100000D01*
X408000D01*
Y96000D01*
X404000D01*
X405750Y92500D02*
Y96500D01*
X409750D01*
Y92500D01*
X405750D01*
X404000Y89000D02*
Y93000D01*
X408000D01*
Y89000D01*
X404000D01*
X405750Y85500D02*
Y89500D01*
X409750D01*
Y85500D01*
X405750D01*
X404000Y68000D02*
Y72000D01*
X408000D01*
Y68000D01*
X404000D01*
X405750Y64500D02*
Y68500D01*
X409750D01*
Y64500D01*
X405750D01*
X430000Y202232D02*
Y206232D01*
X434000D01*
Y202232D01*
X430000D01*
X433500Y207646D02*
Y211646D01*
X437500D01*
Y207646D01*
X433500D01*
X435000Y215028D02*
Y219028D01*
X439000D01*
Y215028D01*
X435000D01*
X425500Y226839D02*
Y230839D01*
X429500D01*
Y226839D01*
X425500D01*
X427263Y225095D02*
Y229095D01*
X431263D01*
Y225095D01*
X427263D01*
X428835Y223339D02*
Y227339D01*
X432835D01*
Y223339D01*
X428835D01*
X419000Y218472D02*
Y222472D01*
X423000D01*
Y218472D01*
X419000D01*
X443500Y349626D02*
Y353626D01*
X447500D01*
Y349626D01*
X443500D01*
X430500Y366126D02*
Y370126D01*
X434500D01*
Y366126D01*
X430500D01*
X433500D02*
Y370126D01*
X437500D01*
Y366126D01*
X433500D01*
X436500D02*
Y370126D01*
X440500D01*
Y366126D01*
X436500D01*
X440000Y364126D02*
Y368126D01*
X444000D01*
Y364126D01*
X440000D01*
X423000Y348126D02*
Y352126D01*
X427000D01*
Y348126D01*
X423000D01*
X427000Y364126D02*
Y368126D01*
X431000D01*
Y364126D01*
X427000D01*
X436500Y340126D02*
Y344126D01*
X440500D01*
Y340126D01*
X436500D01*
X403500Y219094D02*
Y223095D01*
X407500D01*
Y219094D01*
X403500D01*
X116000Y201095D02*
Y205095D01*
X120000D01*
Y201095D01*
X116000D01*
X442500Y64095D02*
Y68094D01*
X446500D01*
Y64095D01*
X442500D01*
X445000D02*
Y68094D01*
X449000D01*
Y64095D01*
X445000D01*
X400500Y233095D02*
Y237094D01*
X404500D01*
Y233095D01*
X400500D01*
X440500Y341094D02*
Y345094D01*
X444500D01*
Y341094D01*
X440500D01*
X573000Y168595D02*
Y172594D01*
X577000D01*
Y168595D01*
X573000D01*
X421500Y336126D02*
Y340126D01*
X425500D01*
Y336126D01*
X421500D01*
X430500Y339094D02*
Y343094D01*
X434500D01*
Y339094D01*
X430500D01*
X417000Y238094D02*
Y242094D01*
X421000D01*
Y238094D01*
X417000D01*
X415000Y232594D02*
Y236595D01*
X419000D01*
Y232594D01*
X415000D01*
X411000Y303594D02*
Y307594D01*
X415000D01*
Y303594D01*
X411000D01*
X433000Y243094D02*
Y247094D01*
X437000D01*
Y243094D01*
X433000D01*
X422500Y325626D02*
Y329626D01*
X426500D01*
Y325626D01*
X422500D01*
X199500Y148594D02*
X200500Y149594D01*
X201500D01*
X200500Y150594D01*
X201500Y151594D01*
X200500D01*
X199500Y152594D01*
X198500Y151594D01*
X197500D01*
X198500Y150594D01*
X197500Y149594D01*
X198500D01*
X199500Y148594D01*
Y149395D02*
X200100Y149995D01*
X200700D01*
X200100Y150594D01*
X200700Y151195D01*
X200100D01*
X199500Y151795D01*
X198900Y151195D01*
X198300D01*
X198900Y150594D01*
X198300Y149995D01*
X198900D01*
X199500Y149395D01*
X440000Y64095D02*
Y68094D01*
X444000D01*
Y64095D01*
X440000D01*
X447500D02*
Y68094D01*
X451500D01*
Y64095D01*
X447500D01*
X437500Y65595D02*
Y69595D01*
X441500D01*
Y65595D01*
X437500D01*
X112500Y238094D02*
Y242094D01*
X116500D01*
Y238094D01*
X112500D01*
X123000Y207594D02*
Y211595D01*
X127000D01*
Y207594D01*
X123000D01*
X175000Y350594D02*
X177000Y352594D01*
X179000Y350594D01*
X177000Y348594D01*
X175000Y350594D01*
X120000Y173345D02*
X122000Y175345D01*
X124000Y173345D01*
X122000Y171344D01*
X120000Y173345D01*
Y283345D02*
X122000Y285345D01*
X124000Y283345D01*
X122000Y281345D01*
X120000Y283345D01*
X199500Y373594D02*
X200500Y374594D01*
X201500D01*
X200500Y375594D01*
X201500Y376594D01*
X200500D01*
X199500Y377594D01*
X198500Y376594D01*
X197500D01*
X198500Y375594D01*
X197500Y374594D01*
X198500D01*
X199500Y373594D01*
Y374394D02*
X200100Y374994D01*
X200700D01*
X200100Y375594D01*
X200700Y376195D01*
X200100D01*
X199500Y376795D01*
X198900Y376195D01*
X198300D01*
X198900Y375594D01*
X198300Y374994D01*
X198900D01*
X199500Y374394D01*
X175000Y135594D02*
X177000Y137594D01*
X179000Y135594D01*
X177000Y133595D01*
X175000Y135594D01*
X643500Y374594D02*
Y373594D01*
X645500D01*
Y374594D01*
X646500D01*
Y376594D01*
X645500D01*
Y377594D01*
X643500D01*
Y376594D01*
X642500D01*
Y374594D01*
X643500D01*
X643900Y374994D02*
Y374394D01*
X645100D01*
Y374994D01*
X645700D01*
Y376195D01*
X645100D01*
Y376795D01*
X643900D01*
Y376195D01*
X643300D01*
Y374994D01*
X643900D01*
X643500Y94595D02*
Y93594D01*
X645500D01*
Y94595D01*
X646500D01*
Y96595D01*
X645500D01*
Y97594D01*
X643500D01*
Y96595D01*
X642500D01*
Y94595D01*
X643500D01*
X643900Y94994D02*
Y94394D01*
X645100D01*
Y94994D01*
X645700D01*
Y96194D01*
X645100D01*
Y96794D01*
X643900D01*
Y96194D01*
X643300D01*
Y94994D01*
X643900D01*
X652500Y270595D02*
X654500Y272594D01*
X656500Y270595D01*
X654500Y268595D01*
X652500Y270595D01*
Y205594D02*
X654500Y207594D01*
X656500Y205594D01*
X654500Y203594D01*
X652500Y205594D01*
X458000Y342126D02*
Y346126D01*
X462000D01*
Y342126D01*
X458000D01*
X453500D02*
Y346126D01*
X457500D01*
Y342126D01*
X453500D01*
X449500D02*
Y346126D01*
X453500D01*
Y342126D01*
X449500D01*
X445000D02*
Y346126D01*
X449000D01*
Y342126D01*
X445000D01*
X417500Y336126D02*
Y340126D01*
X421500D01*
Y336126D01*
X417500D01*
X439000Y81126D02*
Y85126D01*
X443000D01*
Y81126D01*
X439000D01*
D93*
X217500Y350886D02*
G03*
X217500Y350886I-2000J0D01*
G01*
X227500D02*
G03*
X227500Y350886I-2000J0D01*
G01*
X237500D02*
G03*
X237500Y350886I-2000J0D01*
G01*
M02*
