G04*
G04 #@! TF.GenerationSoftware,Altium Limited,Altium Designer,25.8.1 (18)*
G04*
G04 Layer_Color=255*
%FSLAX25Y25*%
%MOIN*%
G70*
G04*
G04 #@! TF.SameCoordinates,E1838567-EF02-44A7-8A02-23B903FEE0B8*
G04*
G04*
G04 #@! TF.FilePolarity,Positive*
G04*
G01*
G75*
%ADD22R,0.03762X0.05709*%
%ADD23R,0.01200X0.01800*%
%ADD24R,0.01800X0.01200*%
%ADD25R,0.02441X0.05787*%
%ADD26R,0.04000X0.04700*%
G04:AMPARAMS|DCode=27|XSize=47.64mil|YSize=23.23mil|CornerRadius=5.81mil|HoleSize=0mil|Usage=FLASHONLY|Rotation=270.000|XOffset=0mil|YOffset=0mil|HoleType=Round|Shape=RoundedRectangle|*
%AMROUNDEDRECTD27*
21,1,0.04764,0.01161,0,0,270.0*
21,1,0.03602,0.02323,0,0,270.0*
1,1,0.01161,-0.00581,-0.01801*
1,1,0.01161,-0.00581,0.01801*
1,1,0.01161,0.00581,0.01801*
1,1,0.01161,0.00581,-0.01801*
%
%ADD27ROUNDEDRECTD27*%
%ADD28R,0.04700X0.04000*%
%ADD29C,0.03937*%
%ADD30R,0.07700X0.04700*%
%ADD31R,0.03150X0.03150*%
%ADD32R,0.01200X0.03200*%
%ADD33R,0.03200X0.01200*%
%ADD34R,0.05787X0.02441*%
G04:AMPARAMS|DCode=35|XSize=40mil|YSize=47mil|CornerRadius=0mil|HoleSize=0mil|Usage=FLASHONLY|Rotation=315.000|XOffset=0mil|YOffset=0mil|HoleType=Round|Shape=Rectangle|*
%AMROTATEDRECTD35*
4,1,4,-0.03076,-0.00248,0.00248,0.03076,0.03076,0.00248,-0.00248,-0.03076,-0.03076,-0.00248,0.0*
%
%ADD35ROTATEDRECTD35*%

%ADD42R,0.08500X0.12400*%
%ADD45C,0.06200*%
%ADD55R,0.01870X0.00984*%
%ADD56R,0.00984X0.01870*%
%ADD64C,0.06496*%
%ADD65C,0.13583*%
%ADD66C,0.09409*%
%ADD67C,0.12480*%
%ADD68C,0.05937*%
%ADD69R,0.05937X0.05937*%
%ADD70C,0.07677*%
D22*
X416850Y215551D02*
D03*
X409150D02*
D03*
X134500Y243602D02*
D03*
X126801D02*
D03*
D23*
X119547Y236114D02*
D03*
X121516D02*
D03*
X123484D02*
D03*
X125453D02*
D03*
Y226075D02*
D03*
X123484D02*
D03*
X121516D02*
D03*
X119547D02*
D03*
D24*
X127520Y234047D02*
D03*
Y232079D02*
D03*
Y230110D02*
D03*
Y228142D02*
D03*
X117480D02*
D03*
Y230110D02*
D03*
Y232079D02*
D03*
Y234047D02*
D03*
D25*
X126563Y251969D02*
D03*
X424063Y217126D02*
D03*
X424000Y209626D02*
D03*
X416937Y207677D02*
D03*
X426063Y98126D02*
D03*
X433937D02*
D03*
X426063Y105595D02*
D03*
X433937D02*
D03*
X409063Y207677D02*
D03*
X431874Y209626D02*
D03*
X431937Y217126D02*
D03*
X134437Y251969D02*
D03*
D26*
X439650Y235595D02*
D03*
X238700Y135594D02*
D03*
X446000Y265595D02*
D03*
X439300D02*
D03*
X439650Y245595D02*
D03*
X446350D02*
D03*
X232000Y135594D02*
D03*
X446350Y235595D02*
D03*
X408850Y230626D02*
D03*
X402150D02*
D03*
D27*
X432240Y312685D02*
D03*
Y322567D02*
D03*
X428500D02*
D03*
X424760D02*
D03*
Y312685D02*
D03*
D28*
X454000Y120745D02*
D03*
Y127445D02*
D03*
X575000Y201213D02*
D03*
Y207913D02*
D03*
Y186863D02*
D03*
Y193563D02*
D03*
X120000Y209745D02*
D03*
Y216444D02*
D03*
X414500Y318992D02*
D03*
Y325693D02*
D03*
D29*
X188000Y405118D02*
D03*
Y55020D02*
D03*
X645500Y405118D02*
D03*
Y55020D02*
D03*
D30*
X590000Y219937D02*
D03*
Y210094D02*
D03*
Y200252D02*
D03*
X612244D02*
D03*
Y210094D02*
D03*
Y219937D02*
D03*
D31*
X604500Y246976D02*
D03*
Y253276D02*
D03*
D32*
X438453Y346476D02*
D03*
Y363776D02*
D03*
X432547D02*
D03*
Y346476D02*
D03*
D33*
X442200Y348236D02*
D03*
Y350205D02*
D03*
Y352173D02*
D03*
Y354142D02*
D03*
Y356110D02*
D03*
Y358079D02*
D03*
Y360047D02*
D03*
Y362016D02*
D03*
X428800D02*
D03*
Y360047D02*
D03*
Y358079D02*
D03*
Y356110D02*
D03*
Y354142D02*
D03*
Y352173D02*
D03*
Y350205D02*
D03*
Y348236D02*
D03*
D34*
X134501Y222091D02*
D03*
Y229965D02*
D03*
X421000Y346189D02*
D03*
Y354063D02*
D03*
X449500Y348189D02*
D03*
Y356063D02*
D03*
X457500Y348252D02*
D03*
Y356126D02*
D03*
X162000Y137157D02*
D03*
Y145031D02*
D03*
D35*
X593500Y258626D02*
D03*
X588762Y263364D02*
D03*
X587869Y252757D02*
D03*
X583131Y257495D02*
D03*
D42*
X435500Y355126D02*
D03*
D45*
X454000Y285595D02*
D03*
X224000Y245595D02*
D03*
X214000Y295595D02*
D03*
Y155595D02*
D03*
X215500Y350886D02*
D03*
X225500D02*
D03*
X235500D02*
D03*
X214000Y175594D02*
D03*
Y195595D02*
D03*
Y185594D02*
D03*
Y165594D02*
D03*
Y145595D02*
D03*
Y135594D02*
D03*
Y315595D02*
D03*
Y305594D02*
D03*
Y285595D02*
D03*
Y275594D02*
D03*
Y265595D02*
D03*
Y255594D02*
D03*
Y235595D02*
D03*
Y245595D02*
D03*
Y225594D02*
D03*
Y215595D02*
D03*
Y205594D02*
D03*
X224000Y175594D02*
D03*
Y165594D02*
D03*
Y155595D02*
D03*
Y145595D02*
D03*
Y315595D02*
D03*
Y305594D02*
D03*
Y295595D02*
D03*
Y285595D02*
D03*
Y275594D02*
D03*
Y265595D02*
D03*
Y255594D02*
D03*
Y235595D02*
D03*
Y225594D02*
D03*
Y215595D02*
D03*
Y205594D02*
D03*
Y195595D02*
D03*
Y185594D02*
D03*
Y135594D02*
D03*
X454000Y175594D02*
D03*
Y195595D02*
D03*
Y185594D02*
D03*
Y165594D02*
D03*
Y155595D02*
D03*
Y145595D02*
D03*
Y135594D02*
D03*
Y315595D02*
D03*
Y305594D02*
D03*
Y295595D02*
D03*
Y275594D02*
D03*
Y265595D02*
D03*
Y255594D02*
D03*
Y235595D02*
D03*
Y245595D02*
D03*
Y225594D02*
D03*
Y215595D02*
D03*
Y205594D02*
D03*
X464000Y175594D02*
D03*
Y165594D02*
D03*
Y155595D02*
D03*
Y145595D02*
D03*
Y315595D02*
D03*
Y305594D02*
D03*
Y295595D02*
D03*
Y285595D02*
D03*
Y275594D02*
D03*
Y265595D02*
D03*
Y255594D02*
D03*
Y245595D02*
D03*
Y235595D02*
D03*
Y225594D02*
D03*
Y215595D02*
D03*
Y205594D02*
D03*
Y195595D02*
D03*
Y185594D02*
D03*
Y135594D02*
D03*
X222000Y115594D02*
D03*
X212000D02*
D03*
X202000D02*
D03*
D55*
X423577Y224581D02*
D03*
X414423Y230486D02*
D03*
Y228518D02*
D03*
Y226549D02*
D03*
Y224581D02*
D03*
X423577Y226549D02*
D03*
Y228518D02*
D03*
Y230486D02*
D03*
D56*
X417031Y223941D02*
D03*
X419000D02*
D03*
X420968D02*
D03*
Y231126D02*
D03*
X419000D02*
D03*
X417031D02*
D03*
D64*
X152500Y274095D02*
D03*
X162500D02*
D03*
Y264094D02*
D03*
X152500D02*
D03*
X162500Y254095D02*
D03*
X152500D02*
D03*
Y244094D02*
D03*
X162500D02*
D03*
X152500Y234095D02*
D03*
X162500D02*
D03*
X152500Y224095D02*
D03*
X162500D02*
D03*
X152500Y214094D02*
D03*
X162500D02*
D03*
X152500Y204095D02*
D03*
X162500D02*
D03*
X152500Y194095D02*
D03*
X162500D02*
D03*
X152500Y184095D02*
D03*
X162500D02*
D03*
D65*
X483083Y120772D02*
D03*
X620917Y338094D02*
D03*
X389917Y338787D02*
D03*
X252083Y121465D02*
D03*
D66*
X483083Y370457D02*
D03*
X252083Y371150D02*
D03*
D67*
X552000Y120772D02*
D03*
Y338094D02*
D03*
X321000Y338787D02*
D03*
Y121465D02*
D03*
D68*
X126705Y150453D02*
D03*
X152295D02*
D03*
X126705Y132736D02*
D03*
D69*
X152295D02*
D03*
D70*
X441000Y384095D02*
D03*
X431000D02*
D03*
M02*
