G04*
G04 #@! TF.GenerationSoftware,Altium Limited,Altium Designer,25.2.1 (25)*
G04*
G04 Layer_Color=32896*
%FSLAX25Y25*%
%MOIN*%
G70*
G04*
G04 #@! TF.SameCoordinates,2F33FC32-E69D-4905-AB7C-0DFD41B7419D*
G04*
G04*
G04 #@! TF.FilePolarity,Positive*
G04*
G01*
G75*
%ADD10C,0.00787*%
%ADD12C,0.00600*%
%ADD13C,0.02000*%
%ADD15C,0.00500*%
%ADD17C,0.00630*%
%ADD19C,0.00300*%
D10*
X493342Y26339D02*
G03*
X493342Y26339I-394J0D01*
G01*
X469433Y21531D02*
X473567D01*
X461933D02*
X466067D01*
X465500Y107465D02*
Y111598D01*
Y71465D02*
Y75598D01*
D12*
X475100Y79132D02*
X478600D01*
X475100Y89131D02*
X478600D01*
X475100Y99132D02*
X478600D01*
X475100Y82932D02*
X478600D01*
X475100Y92931D02*
X478600D01*
X475100Y102931D02*
X478600D01*
D13*
X130500Y59000D02*
G03*
X130500Y59000I-1500J0D01*
G01*
D15*
X488598Y30059D02*
X489996D01*
X477004D02*
X478402D01*
X477004Y21496D02*
Y22421D01*
Y11004D02*
X489996D01*
X163882Y13098D02*
Y17035D01*
X140693Y21839D02*
Y325224D01*
X161913Y331996D02*
X165850D01*
X163882Y330028D02*
Y333965D01*
X140693Y325224D02*
X167622D01*
X140693Y21839D02*
X167622D01*
X272150Y15067D02*
X276087D01*
X274118Y13098D02*
Y17035D01*
X270378Y21839D02*
X297307D01*
Y325224D01*
X195575Y21839D02*
X242425D01*
X195575Y325224D02*
X242425D01*
X270378D02*
X297307D01*
X274118Y330028D02*
Y333965D01*
X435736Y329870D02*
Y333807D01*
X431996Y325067D02*
X458925D01*
X357193D02*
X404043D01*
X357193Y21681D02*
X404043D01*
X458925D02*
Y325067D01*
X431996Y21681D02*
X458925D01*
X435736Y12941D02*
Y16878D01*
X433768Y14909D02*
X437705D01*
X302311Y325067D02*
X329240D01*
X325500Y329870D02*
Y333807D01*
X323532Y331839D02*
X327468D01*
X302311Y21681D02*
Y325067D01*
Y21681D02*
X329240D01*
X325500Y12941D02*
Y16878D01*
D17*
X518599Y66106D02*
Y63482D01*
X518074Y62957D01*
X517025D01*
X516500Y63482D01*
Y66106D01*
X515450Y62957D02*
X514401D01*
X514926D01*
Y66106D01*
X515450Y65581D01*
X487673Y6457D02*
Y9606D01*
X486099D01*
X485574Y9081D01*
Y8032D01*
X486099Y7507D01*
X487673D01*
X482426Y9081D02*
X482950Y9606D01*
X484000D01*
X484525Y9081D01*
Y8556D01*
X484000Y8032D01*
X482950D01*
X482426Y7507D01*
Y6982D01*
X482950Y6457D01*
X484000D01*
X484525Y6982D01*
X481376Y6457D02*
X480327D01*
X480851D01*
Y9606D01*
X481376Y9081D01*
X132426Y336705D02*
X135574D01*
Y335131D01*
X135049Y334606D01*
X134525D01*
X134000Y335131D01*
Y336705D01*
Y335131D01*
X133475Y334606D01*
X132950D01*
X132426Y335131D01*
Y336705D01*
Y333556D02*
Y331457D01*
Y332507D01*
X135574D01*
Y330408D02*
Y329358D01*
Y329883D01*
X132426D01*
X132950Y330408D01*
X462426Y338230D02*
X465574D01*
Y336655D01*
X465050Y336131D01*
X464525D01*
X464000Y336655D01*
Y338230D01*
Y336655D01*
X463475Y336131D01*
X462951D01*
X462426Y336655D01*
Y338230D01*
Y335081D02*
Y332982D01*
Y334032D01*
X465574D01*
Y329833D02*
Y331932D01*
X463475Y329833D01*
X462951D01*
X462426Y330358D01*
Y331408D01*
X462951Y331932D01*
X470450Y10531D02*
X469926Y11056D01*
Y12106D01*
X470450Y12631D01*
X472549D01*
X473074Y12106D01*
Y11056D01*
X472549Y10531D01*
X473074Y9482D02*
Y8432D01*
Y8957D01*
X469926D01*
X470450Y9482D01*
X462951Y34556D02*
X462426Y35081D01*
Y36130D01*
X462951Y36655D01*
X465050D01*
X465574Y36130D01*
Y35081D01*
X465050Y34556D01*
X465574Y31408D02*
Y33507D01*
X463475Y31408D01*
X462951D01*
X462426Y31932D01*
Y32982D01*
X462951Y33507D01*
X466025Y116581D02*
X466549Y117106D01*
X467599D01*
X468124Y116581D01*
Y114482D01*
X467599Y113957D01*
X466549D01*
X466025Y114482D01*
X462876Y117106D02*
X464975D01*
Y115532D01*
X463926Y116056D01*
X463401D01*
X462876Y115532D01*
Y114482D01*
X463401Y113957D01*
X464451D01*
X464975Y114482D01*
X465475Y63982D02*
X464951Y63457D01*
X463901D01*
X463376Y63982D01*
Y66081D01*
X463901Y66606D01*
X464951D01*
X465475Y66081D01*
X468624Y63457D02*
X467574Y63982D01*
X466525Y65031D01*
Y66081D01*
X467050Y66606D01*
X468099D01*
X468624Y66081D01*
Y65556D01*
X468099Y65031D01*
X466525D01*
X524574Y19131D02*
X521426D01*
Y17556D01*
X521950Y17031D01*
X523000D01*
X523525Y17556D01*
Y19131D01*
Y18081D02*
X524574Y17031D01*
Y15982D02*
Y14932D01*
Y15457D01*
X521426D01*
X521950Y15982D01*
X490074Y58655D02*
X486926D01*
Y57081D01*
X487451Y56556D01*
X488500D01*
X489025Y57081D01*
Y58655D01*
Y57606D02*
X490074Y56556D01*
Y53408D02*
Y55507D01*
X487975Y53408D01*
X487451D01*
X486926Y53932D01*
Y54982D01*
X487451Y55507D01*
X477624Y41957D02*
Y45106D01*
X476050D01*
X475525Y44581D01*
Y43532D01*
X476050Y43007D01*
X477624D01*
X476574D02*
X475525Y41957D01*
X474475Y44581D02*
X473950Y45106D01*
X472901D01*
X472376Y44581D01*
Y44056D01*
X472901Y43532D01*
X473426D01*
X472901D01*
X472376Y43007D01*
Y42482D01*
X472901Y41957D01*
X473950D01*
X474475Y42482D01*
X516574Y18655D02*
X513426D01*
Y17081D01*
X513950Y16556D01*
X515000D01*
X515525Y17081D01*
Y18655D01*
Y17606D02*
X516574Y16556D01*
Y13932D02*
X513426D01*
X515000Y15507D01*
Y13408D01*
X504624Y35457D02*
Y38606D01*
X503050D01*
X502525Y38081D01*
Y37031D01*
X503050Y36507D01*
X504624D01*
X503574D02*
X502525Y35457D01*
X499376Y38606D02*
X501475D01*
Y37031D01*
X500426Y37556D01*
X499901D01*
X499376Y37031D01*
Y35982D01*
X499901Y35457D01*
X500950D01*
X501475Y35982D01*
X518124Y35457D02*
Y38606D01*
X516549D01*
X516025Y38081D01*
Y37031D01*
X516549Y36507D01*
X518124D01*
X517074D02*
X516025Y35457D01*
X512876Y38606D02*
X513926Y38081D01*
X514975Y37031D01*
Y35982D01*
X514451Y35457D01*
X513401D01*
X512876Y35982D01*
Y36507D01*
X513401Y37031D01*
X514975D01*
X467074Y198467D02*
X463926D01*
Y196893D01*
X464451Y196368D01*
X465500D01*
X466025Y196893D01*
Y198467D01*
Y197418D02*
X467074Y196368D01*
Y195319D02*
Y194269D01*
Y194794D01*
X463926D01*
X464451Y195319D01*
Y192695D02*
X463926Y192170D01*
Y191121D01*
X464451Y190596D01*
X464975D01*
X465500Y191121D01*
Y191645D01*
Y191121D01*
X466025Y190596D01*
X466549D01*
X467074Y191121D01*
Y192170D01*
X466549Y192695D01*
X463926Y145596D02*
X467074D01*
Y147170D01*
X466549Y147695D01*
X465500D01*
X464975Y147170D01*
Y145596D01*
Y146645D02*
X463926Y147695D01*
Y148744D02*
Y149794D01*
Y149269D01*
X467074D01*
X466549Y148744D01*
X463926Y152943D02*
X467074D01*
X465500Y151368D01*
Y153467D01*
D19*
X476665Y72031D02*
X473333Y75364D01*
Y72031D02*
X476665Y75364D01*
X474999Y72031D02*
Y75364D01*
X473333Y73698D02*
X476665D01*
M02*
