G04*
G04 #@! TF.GenerationSoftware,Altium Limited,Altium Designer,25.2.1 (25)*
G04*
G04 Layer_Color=2752767*
%FSLAX25Y25*%
%MOIN*%
G70*
G04*
G04 #@! TF.SameCoordinates,2F33FC32-E69D-4905-AB7C-0DFD41B7419D*
G04*
G04*
G04 #@! TF.FilePolarity,Positive*
G04*
G01*
G75*
%ADD15C,0.00500*%
%ADD100C,0.00667*%
%ADD101C,0.00400*%
D15*
X97705Y128858D02*
X98705D01*
X99705Y129858D01*
X100705Y128858D01*
X101705D01*
Y129858D01*
X100705Y130858D01*
X101705Y131858D01*
Y132858D01*
X100705D01*
X99705Y131858D01*
X98705Y132858D01*
X97705D01*
Y131858D01*
X98705Y130858D01*
X97705Y129858D01*
Y128858D01*
X98505Y129658D02*
X99105D01*
X99705Y130258D01*
X100305Y129658D01*
X100905D01*
Y130258D01*
X100305Y130858D01*
X100905Y131458D01*
Y132058D01*
X100305D01*
X99705Y131458D01*
X99105Y132058D01*
X98505D01*
Y131458D01*
X99105Y130858D01*
X98505Y130258D01*
Y129658D01*
X123295Y128858D02*
X124295D01*
X125295Y129858D01*
X126295Y128858D01*
X127295D01*
Y129858D01*
X126295Y130858D01*
X127295Y131858D01*
Y132858D01*
X126295D01*
X125295Y131858D01*
X124295Y132858D01*
X123295D01*
Y131858D01*
X124295Y130858D01*
X123295Y129858D01*
Y128858D01*
X124095Y129658D02*
X124695D01*
X125295Y130258D01*
X125895Y129658D01*
X126495D01*
Y130258D01*
X125895Y130858D01*
X126495Y131458D01*
Y132058D01*
X125895D01*
X125295Y131458D01*
X124695Y132058D01*
X124095D01*
Y131458D01*
X124695Y130858D01*
X124095Y130258D01*
Y129658D01*
X97705Y111142D02*
X98705D01*
X99705Y112142D01*
X100705Y111142D01*
X101705D01*
Y112142D01*
X100705Y113142D01*
X101705Y114142D01*
Y115142D01*
X100705D01*
X99705Y114142D01*
X98705Y115142D01*
X97705D01*
Y114142D01*
X98705Y113142D01*
X97705Y112142D01*
Y111142D01*
X98505Y111942D02*
X99105D01*
X99705Y112542D01*
X100305Y111942D01*
X100905D01*
Y112542D01*
X100305Y113142D01*
X100905Y113742D01*
Y114342D01*
X100305D01*
X99705Y113742D01*
X99105Y114342D01*
X98505D01*
Y113742D01*
X99105Y113142D01*
X98505Y112542D01*
Y111942D01*
X123295Y111142D02*
X124295D01*
X125295Y112142D01*
X126295Y111142D01*
X127295D01*
Y112142D01*
X126295Y113142D01*
X127295Y114142D01*
Y115142D01*
X126295D01*
X125295Y114142D01*
X124295Y115142D01*
X123295D01*
Y114142D01*
X124295Y113142D01*
X123295Y112142D01*
Y111142D01*
X124095Y111942D02*
X124695D01*
X125295Y112542D01*
X125895Y111942D01*
X126495D01*
Y112542D01*
X125895Y113142D01*
X126495Y113742D01*
Y114342D01*
X125895D01*
X125295Y113742D01*
X124695Y114342D01*
X124095D01*
Y113742D01*
X124695Y113142D01*
X124095Y112542D01*
Y111942D01*
X504795Y156030D02*
Y151031D01*
Y153531D01*
X508127D01*
Y156030D01*
Y151031D01*
X479205Y156030D02*
Y151031D01*
Y153531D01*
X482537D01*
Y156030D01*
Y151031D01*
X504795Y173746D02*
Y168748D01*
Y171247D01*
X508127D01*
Y173746D01*
Y168748D01*
X504795Y138313D02*
Y133315D01*
Y135814D01*
X508127D01*
Y138313D01*
Y133315D01*
X479205Y138313D02*
Y133315D01*
Y135814D01*
X482537D01*
Y138313D01*
Y133315D01*
X479205Y173746D02*
Y168748D01*
Y171247D01*
X482537D01*
Y173746D01*
Y168748D01*
X120000Y63998D02*
Y59000D01*
X122499D01*
X123332Y59833D01*
Y60666D01*
X122499Y61499D01*
X120000D01*
X122499D01*
X123332Y62332D01*
Y63165D01*
X122499Y63998D01*
X120000D01*
X110000D02*
Y59000D01*
X112499D01*
X113332Y59833D01*
Y60666D01*
X112499Y61499D01*
X110000D01*
X112499D01*
X113332Y62332D01*
Y63165D01*
X112499Y63998D01*
X110000D01*
X100000D02*
Y59000D01*
X102499D01*
X103332Y59833D01*
Y60666D01*
X102499Y61499D01*
X100000D01*
X102499D01*
X103332Y62332D01*
Y63165D01*
X102499Y63998D01*
X100000D01*
X153415Y69035D02*
X152582Y69868D01*
X150916D01*
X150083Y69035D01*
Y65703D01*
X150916Y64870D01*
X152582D01*
X153415Y65703D01*
Y319553D02*
X150083D01*
Y314555D01*
X153415D01*
X150083Y317054D02*
X151749D01*
X219000Y69868D02*
Y64870D01*
X221499D01*
X222332Y65703D01*
Y69035D01*
X221499Y69868D01*
X219000D01*
Y287191D02*
Y282193D01*
X221499D01*
X222332Y283026D01*
Y286358D01*
X221499Y287191D01*
X219000D01*
X291250Y286358D02*
X290417Y287191D01*
X288750D01*
X287917Y286358D01*
Y283026D01*
X288750Y282193D01*
X290417D01*
X291250Y283026D01*
X452868Y286201D02*
X452035Y287034D01*
X450368D01*
X449535Y286201D01*
Y282869D01*
X450368Y282035D01*
X452035D01*
X452868Y282869D01*
X380618Y287034D02*
Y282035D01*
X383117D01*
X383950Y282869D01*
Y286201D01*
X383117Y287034D01*
X380618D01*
Y69711D02*
Y64713D01*
X383117D01*
X383950Y65546D01*
Y68878D01*
X383117Y69711D01*
X380618D01*
X315033Y319396D02*
X311701D01*
Y314398D01*
X315033D01*
X311701Y316897D02*
X313367D01*
X315033Y68878D02*
X314200Y69711D01*
X312534D01*
X311701Y68878D01*
Y65546D01*
X312534Y64713D01*
X314200D01*
X315033Y65546D01*
X494500Y333030D02*
X496166D01*
X495333D01*
Y328031D01*
X494500D01*
X496166D01*
X484500Y333030D02*
X486166D01*
X485333D01*
Y328031D01*
X484500D01*
X486166D01*
X63832Y222498D02*
X60500D01*
Y219999D01*
X62166D01*
X60500D01*
Y217500D01*
X53832Y222498D02*
X50500D01*
Y219999D01*
X52166D01*
X50500D01*
Y217500D01*
X63832Y212498D02*
X60500D01*
Y209999D01*
X62166D01*
X60500D01*
Y207500D01*
X53832Y212498D02*
X50500D01*
Y209999D01*
X52166D01*
X50500D01*
Y207500D01*
X63832Y202498D02*
X60500D01*
Y199999D01*
X62166D01*
X60500D01*
Y197500D01*
X53832Y202498D02*
X50500D01*
Y199999D01*
X52166D01*
X50500D01*
Y197500D01*
X53832Y192498D02*
X50500D01*
Y189999D01*
X52166D01*
X50500D01*
Y187500D01*
X63832Y192498D02*
X60500D01*
Y189999D01*
X62166D01*
X60500D01*
Y187500D01*
X53832Y182498D02*
X50500D01*
Y179999D01*
X52166D01*
X50500D01*
Y177500D01*
X63832Y182498D02*
X60500D01*
Y179999D01*
X62166D01*
X60500D01*
Y177500D01*
X53832Y172498D02*
X50500D01*
Y169999D01*
X52166D01*
X50500D01*
Y167500D01*
X63832Y172498D02*
X60500D01*
Y169999D01*
X62166D01*
X60500D01*
Y167500D01*
X53832Y162498D02*
X50500D01*
Y159999D01*
X52166D01*
X50500D01*
Y157500D01*
X63832Y162498D02*
X60500D01*
Y159999D01*
X62166D01*
X60500D01*
Y157500D01*
X53832Y152498D02*
X50500D01*
Y149999D01*
X52166D01*
X50500D01*
Y147500D01*
X63832Y152498D02*
X60500D01*
Y149999D01*
X62166D01*
X60500D01*
Y147500D01*
X53832Y142498D02*
X50500D01*
Y139999D01*
X52166D01*
X50500D01*
Y137500D01*
X63832Y142498D02*
X60500D01*
Y139999D01*
X62166D01*
X60500D01*
Y137500D01*
X53832Y132498D02*
X50500D01*
Y129999D01*
X52166D01*
X50500D01*
Y127500D01*
X63832Y132498D02*
X60500D01*
Y129999D01*
X62166D01*
X60500D01*
Y127500D01*
X518000Y22000D02*
Y26000D01*
X522000D01*
Y22000D01*
X518000D01*
X518800Y22800D02*
Y25200D01*
X521200D01*
Y22800D01*
X518800D01*
X520000Y10000D02*
Y14000D01*
X524000D01*
Y10000D01*
X520000D01*
X520800Y10800D02*
Y13200D01*
X523200D01*
Y10800D01*
X520800D01*
X518000Y6000D02*
Y10000D01*
X522000D01*
Y6000D01*
X518000D01*
X518800Y6800D02*
Y9200D01*
X521200D01*
Y6800D01*
X518800D01*
X514000Y22000D02*
Y26000D01*
X518000D01*
Y22000D01*
X514000D01*
X514800Y22800D02*
Y25200D01*
X517200D01*
Y22800D01*
X514800D01*
X516000Y18000D02*
Y22000D01*
X520000D01*
Y18000D01*
X516000D01*
X516800Y18800D02*
Y21200D01*
X519200D01*
Y18800D01*
X516800D01*
X514000Y6000D02*
Y10000D01*
X518000D01*
Y6000D01*
X514000D01*
X514800Y6800D02*
Y9200D01*
X517200D01*
Y6800D01*
X514800D01*
X512000Y34000D02*
Y38000D01*
X516000D01*
Y34000D01*
X512000D01*
X512800Y34800D02*
Y37200D01*
X515200D01*
Y34800D01*
X512800D01*
X510000Y22000D02*
Y26000D01*
X514000D01*
Y22000D01*
X510000D01*
X510800Y22800D02*
Y25200D01*
X513200D01*
Y22800D01*
X510800D01*
X512000Y18000D02*
Y22000D01*
X516000D01*
Y18000D01*
X512000D01*
X512800Y18800D02*
Y21200D01*
X515200D01*
Y18800D01*
X512800D01*
X510000Y6000D02*
Y10000D01*
X514000D01*
Y6000D01*
X510000D01*
X510800Y6800D02*
Y9200D01*
X513200D01*
Y6800D01*
X510800D01*
X508000Y34000D02*
Y38000D01*
X512000D01*
Y34000D01*
X508000D01*
X508800Y34800D02*
Y37200D01*
X511200D01*
Y34800D01*
X508800D01*
X504000Y34000D02*
Y38000D01*
X508000D01*
Y34000D01*
X504000D01*
X504800Y34800D02*
Y37200D01*
X507200D01*
Y34800D01*
X504800D01*
X500000Y34000D02*
Y38000D01*
X504000D01*
Y34000D01*
X500000D01*
X500800Y34800D02*
Y37200D01*
X503200D01*
Y34800D01*
X500800D01*
X496000Y34000D02*
Y38000D01*
X500000D01*
Y34000D01*
X496000D01*
X496800Y34800D02*
Y37200D01*
X499200D01*
Y34800D01*
X496800D01*
X490000Y30000D02*
Y34000D01*
X494000D01*
Y30000D01*
X490000D01*
X490800Y30800D02*
Y33200D01*
X493200D01*
Y30800D01*
X490800D01*
X492000Y18000D02*
Y22000D01*
X496000D01*
Y18000D01*
X492000D01*
X492800Y18800D02*
Y21200D01*
X495200D01*
Y18800D01*
X492800D01*
X486000Y6000D02*
Y10000D01*
X490000D01*
Y6000D01*
X486000D01*
X486800Y6800D02*
Y9200D01*
X489200D01*
Y6800D01*
X486800D01*
X482000Y6000D02*
Y10000D01*
X486000D01*
Y6000D01*
X482000D01*
X482800Y6800D02*
Y9200D01*
X485200D01*
Y6800D01*
X482800D01*
X478000Y6000D02*
Y10000D01*
X482000D01*
Y6000D01*
X478000D01*
X478800Y6800D02*
Y9200D01*
X481200D01*
Y6800D01*
X478800D01*
X474000Y6000D02*
Y10000D01*
X478000D01*
Y6000D01*
X474000D01*
X474800Y6800D02*
Y9200D01*
X477200D01*
Y6800D01*
X474800D01*
X472000Y10000D02*
Y14000D01*
X476000D01*
Y10000D01*
X472000D01*
X472800Y10800D02*
Y13200D01*
X475200D01*
Y10800D01*
X472800D01*
X470000Y6000D02*
Y10000D01*
X474000D01*
Y6000D01*
X470000D01*
X470800Y6800D02*
Y9200D01*
X473200D01*
Y6800D01*
X470800D01*
X466000Y30000D02*
Y34000D01*
X470000D01*
Y30000D01*
X466000D01*
X466800Y30800D02*
Y33200D01*
X469200D01*
Y30800D01*
X466800D01*
X468000Y10000D02*
Y14000D01*
X472000D01*
Y10000D01*
X468000D01*
X468800Y10800D02*
Y13200D01*
X471200D01*
Y10800D01*
X468800D01*
X466000Y6000D02*
Y10000D01*
X470000D01*
Y6000D01*
X466000D01*
X466800Y6800D02*
Y9200D01*
X469200D01*
Y6800D01*
X466800D01*
X462000Y30000D02*
Y34000D01*
X466000D01*
Y30000D01*
X462000D01*
X462800Y30800D02*
Y33200D01*
X465200D01*
Y30800D01*
X462800D01*
X464000Y10000D02*
Y14000D01*
X468000D01*
Y10000D01*
X464000D01*
X464800Y10800D02*
Y13200D01*
X467200D01*
Y10800D01*
X464800D01*
X462000Y6000D02*
Y10000D01*
X466000D01*
Y6000D01*
X462000D01*
X462800Y6800D02*
Y9200D01*
X465200D01*
Y6800D01*
X462800D01*
X490500Y9000D02*
Y13000D01*
X494500D01*
Y9000D01*
X490500D01*
X491300Y9800D02*
Y12200D01*
X493700D01*
Y9800D01*
X491300D01*
X502500Y7000D02*
Y11000D01*
X506500D01*
Y7000D01*
X502500D01*
X503300Y7800D02*
Y10200D01*
X505700D01*
Y7800D01*
X503300D01*
X500000Y7000D02*
Y11000D01*
X504000D01*
Y7000D01*
X500000D01*
X500800Y7800D02*
Y10200D01*
X503200D01*
Y7800D01*
X500800D01*
X495000Y7000D02*
Y11000D01*
X499000D01*
Y7000D01*
X495000D01*
X495800Y7800D02*
Y10200D01*
X498200D01*
Y7800D01*
X495800D01*
X492500Y7000D02*
Y11000D01*
X496500D01*
Y7000D01*
X492500D01*
X493300Y7800D02*
Y10200D01*
X495700D01*
Y7800D01*
X493300D01*
X324000Y150031D02*
Y154032D01*
X328000D01*
Y150031D01*
X324000D01*
X324800Y150831D02*
Y153232D01*
X327200D01*
Y150831D01*
X324800D01*
X312000Y156032D02*
Y160031D01*
X316000D01*
Y156032D01*
X312000D01*
X312800Y156832D02*
Y159231D01*
X315200D01*
Y156832D01*
X312800D01*
X318500Y180500D02*
Y184500D01*
X322500D01*
Y180500D01*
X318500D01*
X319300Y181300D02*
Y183700D01*
X321700D01*
Y181300D01*
X319300D01*
X278000Y192000D02*
Y196000D01*
X282000D01*
Y192000D01*
X278000D01*
X278800Y192800D02*
Y195200D01*
X281200D01*
Y192800D01*
X278800D01*
X278000Y189500D02*
Y193500D01*
X282000D01*
Y189500D01*
X278000D01*
X278800Y190300D02*
Y192700D01*
X281200D01*
Y190300D01*
X278800D01*
X200000Y34000D02*
Y38000D01*
X204000D01*
Y34000D01*
X200000D01*
X200800Y34800D02*
Y37200D01*
X203200D01*
Y34800D01*
X200800D01*
X198000Y30000D02*
Y34000D01*
X202000D01*
Y30000D01*
X198000D01*
X198800Y30800D02*
Y33200D01*
X201200D01*
Y30800D01*
X198800D01*
X200000Y26000D02*
Y30000D01*
X204000D01*
Y26000D01*
X200000D01*
X200800Y26800D02*
Y29200D01*
X203200D01*
Y26800D01*
X200800D01*
X198000Y22000D02*
Y26000D01*
X202000D01*
Y22000D01*
X198000D01*
X198800Y22800D02*
Y25200D01*
X201200D01*
Y22800D01*
X198800D01*
X200000Y18000D02*
Y22000D01*
X204000D01*
Y18000D01*
X200000D01*
X200800Y18800D02*
Y21200D01*
X203200D01*
Y18800D01*
X200800D01*
X198000Y14000D02*
Y18000D01*
X202000D01*
Y14000D01*
X198000D01*
X198800Y14800D02*
Y17200D01*
X201200D01*
Y14800D01*
X198800D01*
X200000Y10000D02*
Y14000D01*
X204000D01*
Y10000D01*
X200000D01*
X200800Y10800D02*
Y13200D01*
X203200D01*
Y10800D01*
X200800D01*
X198000Y6000D02*
Y10000D01*
X202000D01*
Y6000D01*
X198000D01*
X198800Y6800D02*
Y9200D01*
X201200D01*
Y6800D01*
X198800D01*
X196000Y34000D02*
Y38000D01*
X200000D01*
Y34000D01*
X196000D01*
X196800Y34800D02*
Y37200D01*
X199200D01*
Y34800D01*
X196800D01*
X194000Y30000D02*
Y34000D01*
X198000D01*
Y30000D01*
X194000D01*
X194800Y30800D02*
Y33200D01*
X197200D01*
Y30800D01*
X194800D01*
X196000Y26000D02*
Y30000D01*
X200000D01*
Y26000D01*
X196000D01*
X196800Y26800D02*
Y29200D01*
X199200D01*
Y26800D01*
X196800D01*
X194000Y22000D02*
Y26000D01*
X198000D01*
Y22000D01*
X194000D01*
X194800Y22800D02*
Y25200D01*
X197200D01*
Y22800D01*
X194800D01*
X196000Y18000D02*
Y22000D01*
X200000D01*
Y18000D01*
X196000D01*
X196800Y18800D02*
Y21200D01*
X199200D01*
Y18800D01*
X196800D01*
X194000Y14000D02*
Y18000D01*
X198000D01*
Y14000D01*
X194000D01*
X194800Y14800D02*
Y17200D01*
X197200D01*
Y14800D01*
X194800D01*
X196000Y10000D02*
Y14000D01*
X200000D01*
Y10000D01*
X196000D01*
X196800Y10800D02*
Y13200D01*
X199200D01*
Y10800D01*
X196800D01*
X194000Y6000D02*
Y10000D01*
X198000D01*
Y6000D01*
X194000D01*
X194800Y6800D02*
Y9200D01*
X197200D01*
Y6800D01*
X194800D01*
X192000Y34000D02*
Y38000D01*
X196000D01*
Y34000D01*
X192000D01*
X192800Y34800D02*
Y37200D01*
X195200D01*
Y34800D01*
X192800D01*
X188000Y34000D02*
Y38000D01*
X192000D01*
Y34000D01*
X188000D01*
X188800Y34800D02*
Y37200D01*
X191200D01*
Y34800D01*
X188800D01*
X184000Y34000D02*
Y38000D01*
X188000D01*
Y34000D01*
X184000D01*
X184800Y34800D02*
Y37200D01*
X187200D01*
Y34800D01*
X184800D01*
X180000Y34000D02*
Y38000D01*
X184000D01*
Y34000D01*
X180000D01*
X180800Y34800D02*
Y37200D01*
X183200D01*
Y34800D01*
X180800D01*
X176000Y34000D02*
Y38000D01*
X180000D01*
Y34000D01*
X176000D01*
X176800Y34800D02*
Y37200D01*
X179200D01*
Y34800D01*
X176800D01*
X172000Y34000D02*
Y38000D01*
X176000D01*
Y34000D01*
X172000D01*
X172800Y34800D02*
Y37200D01*
X175200D01*
Y34800D01*
X172800D01*
X168000Y34000D02*
Y38000D01*
X172000D01*
Y34000D01*
X168000D01*
X168800Y34800D02*
Y37200D01*
X171200D01*
Y34800D01*
X168800D01*
X164000Y34000D02*
Y38000D01*
X168000D01*
Y34000D01*
X164000D01*
X164800Y34800D02*
Y37200D01*
X167200D01*
Y34800D01*
X164800D01*
X162000Y30000D02*
Y34000D01*
X166000D01*
Y30000D01*
X162000D01*
X162800Y30800D02*
Y33200D01*
X165200D01*
Y30800D01*
X162800D01*
X164000Y26000D02*
Y30000D01*
X168000D01*
Y26000D01*
X164000D01*
X164800Y26800D02*
Y29200D01*
X167200D01*
Y26800D01*
X164800D01*
X162000Y22000D02*
Y26000D01*
X166000D01*
Y22000D01*
X162000D01*
X162800Y22800D02*
Y25200D01*
X165200D01*
Y22800D01*
X162800D01*
X164000Y18000D02*
Y22000D01*
X168000D01*
Y18000D01*
X164000D01*
X164800Y18800D02*
Y21200D01*
X167200D01*
Y18800D01*
X164800D01*
X162000Y14000D02*
Y18000D01*
X166000D01*
Y14000D01*
X162000D01*
X162800Y14800D02*
Y17200D01*
X165200D01*
Y14800D01*
X162800D01*
X164000Y10000D02*
Y14000D01*
X168000D01*
Y10000D01*
X164000D01*
X164800Y10800D02*
Y13200D01*
X167200D01*
Y10800D01*
X164800D01*
X162000Y6000D02*
Y10000D01*
X166000D01*
Y6000D01*
X162000D01*
X162800Y6800D02*
Y9200D01*
X165200D01*
Y6800D01*
X162800D01*
X160000Y34000D02*
Y38000D01*
X164000D01*
Y34000D01*
X160000D01*
X160800Y34800D02*
Y37200D01*
X163200D01*
Y34800D01*
X160800D01*
X158000Y30000D02*
Y34000D01*
X162000D01*
Y30000D01*
X158000D01*
X158800Y30800D02*
Y33200D01*
X161200D01*
Y30800D01*
X158800D01*
X160000Y26000D02*
Y30000D01*
X164000D01*
Y26000D01*
X160000D01*
X160800Y26800D02*
Y29200D01*
X163200D01*
Y26800D01*
X160800D01*
X158000Y22000D02*
Y26000D01*
X162000D01*
Y22000D01*
X158000D01*
X158800Y22800D02*
Y25200D01*
X161200D01*
Y22800D01*
X158800D01*
X160000Y18000D02*
Y22000D01*
X164000D01*
Y18000D01*
X160000D01*
X160800Y18800D02*
Y21200D01*
X163200D01*
Y18800D01*
X160800D01*
X158000Y14000D02*
Y18000D01*
X162000D01*
Y14000D01*
X158000D01*
X158800Y14800D02*
Y17200D01*
X161200D01*
Y14800D01*
X158800D01*
X160000Y10000D02*
Y14000D01*
X164000D01*
Y10000D01*
X160000D01*
X160800Y10800D02*
Y13200D01*
X163200D01*
Y10800D01*
X160800D01*
X158000Y6000D02*
Y10000D01*
X162000D01*
Y6000D01*
X158000D01*
X158800Y6800D02*
Y9200D01*
X161200D01*
Y6800D01*
X158800D01*
X394000Y78000D02*
Y82000D01*
X398000D01*
Y78000D01*
X394000D01*
X394800Y78800D02*
Y81200D01*
X397200D01*
Y78800D01*
X394800D01*
X390000Y70000D02*
Y74000D01*
X394000D01*
Y70000D01*
X390000D01*
X390800Y70800D02*
Y73200D01*
X393200D01*
Y70800D01*
X390800D01*
X394000Y62000D02*
Y66000D01*
X398000D01*
Y62000D01*
X394000D01*
X394800Y62800D02*
Y65200D01*
X397200D01*
Y62800D01*
X394800D01*
X390000Y54000D02*
Y58000D01*
X394000D01*
Y54000D01*
X390000D01*
X390800Y54800D02*
Y57200D01*
X393200D01*
Y54800D01*
X390800D01*
X394000Y46000D02*
Y50000D01*
X398000D01*
Y46000D01*
X394000D01*
X394800Y46800D02*
Y49200D01*
X397200D01*
Y46800D01*
X394800D01*
X390000Y38000D02*
Y42000D01*
X394000D01*
Y38000D01*
X390000D01*
X390800Y38800D02*
Y41200D01*
X393200D01*
Y38800D01*
X390800D01*
X394000Y30000D02*
Y34000D01*
X398000D01*
Y30000D01*
X394000D01*
X394800Y30800D02*
Y33200D01*
X397200D01*
Y30800D01*
X394800D01*
X394000Y14000D02*
Y18000D01*
X398000D01*
Y14000D01*
X394000D01*
X394800Y14800D02*
Y17200D01*
X397200D01*
Y14800D01*
X394800D01*
X390000Y6000D02*
Y10000D01*
X394000D01*
Y6000D01*
X390000D01*
X390800Y6800D02*
Y9200D01*
X393200D01*
Y6800D01*
X390800D01*
X386000Y78000D02*
Y82000D01*
X390000D01*
Y78000D01*
X386000D01*
X386800Y78800D02*
Y81200D01*
X389200D01*
Y78800D01*
X386800D01*
X382000Y70000D02*
Y74000D01*
X386000D01*
Y70000D01*
X382000D01*
X382800Y70800D02*
Y73200D01*
X385200D01*
Y70800D01*
X382800D01*
X382000Y54000D02*
Y58000D01*
X386000D01*
Y54000D01*
X382000D01*
X382800Y54800D02*
Y57200D01*
X385200D01*
Y54800D01*
X382800D01*
X386000Y46000D02*
Y50000D01*
X390000D01*
Y46000D01*
X386000D01*
X386800Y46800D02*
Y49200D01*
X389200D01*
Y46800D01*
X386800D01*
X382000Y22000D02*
Y26000D01*
X386000D01*
Y22000D01*
X382000D01*
X382800Y22800D02*
Y25200D01*
X385200D01*
Y22800D01*
X382800D01*
X386000Y14000D02*
Y18000D01*
X390000D01*
Y14000D01*
X386000D01*
X386800Y14800D02*
Y17200D01*
X389200D01*
Y14800D01*
X386800D01*
X382000Y6000D02*
Y10000D01*
X386000D01*
Y6000D01*
X382000D01*
X382800Y6800D02*
Y9200D01*
X385200D01*
Y6800D01*
X382800D01*
X378000Y78000D02*
Y82000D01*
X382000D01*
Y78000D01*
X378000D01*
X378800Y78800D02*
Y81200D01*
X381200D01*
Y78800D01*
X378800D01*
X374000Y70000D02*
Y74000D01*
X378000D01*
Y70000D01*
X374000D01*
X374800Y70800D02*
Y73200D01*
X377200D01*
Y70800D01*
X374800D01*
X374000Y54000D02*
Y58000D01*
X378000D01*
Y54000D01*
X374000D01*
X374800Y54800D02*
Y57200D01*
X377200D01*
Y54800D01*
X374800D01*
X378000Y46000D02*
Y50000D01*
X382000D01*
Y46000D01*
X378000D01*
X378800Y46800D02*
Y49200D01*
X381200D01*
Y46800D01*
X378800D01*
X378000Y30000D02*
Y34000D01*
X382000D01*
Y30000D01*
X378000D01*
X378800Y30800D02*
Y33200D01*
X381200D01*
Y30800D01*
X378800D01*
X374000Y22000D02*
Y26000D01*
X378000D01*
Y22000D01*
X374000D01*
X374800Y22800D02*
Y25200D01*
X377200D01*
Y22800D01*
X374800D01*
X378000Y14000D02*
Y18000D01*
X382000D01*
Y14000D01*
X378000D01*
X378800Y14800D02*
Y17200D01*
X381200D01*
Y14800D01*
X378800D01*
X374000Y6000D02*
Y10000D01*
X378000D01*
Y6000D01*
X374000D01*
X374800Y6800D02*
Y9200D01*
X377200D01*
Y6800D01*
X374800D01*
X370000Y78000D02*
Y82000D01*
X374000D01*
Y78000D01*
X370000D01*
X370800Y78800D02*
Y81200D01*
X373200D01*
Y78800D01*
X370800D01*
X366000Y70000D02*
Y74000D01*
X370000D01*
Y70000D01*
X366000D01*
X366800Y70800D02*
Y73200D01*
X369200D01*
Y70800D01*
X366800D01*
X370000Y62000D02*
Y66000D01*
X374000D01*
Y62000D01*
X370000D01*
X370800Y62800D02*
Y65200D01*
X373200D01*
Y62800D01*
X370800D01*
X366000Y54000D02*
Y58000D01*
X370000D01*
Y54000D01*
X366000D01*
X366800Y54800D02*
Y57200D01*
X369200D01*
Y54800D01*
X366800D01*
X366000Y38000D02*
Y42000D01*
X370000D01*
Y38000D01*
X366000D01*
X366800Y38800D02*
Y41200D01*
X369200D01*
Y38800D01*
X366800D01*
X370000Y30000D02*
Y34000D01*
X374000D01*
Y30000D01*
X370000D01*
X370800Y30800D02*
Y33200D01*
X373200D01*
Y30800D01*
X370800D01*
X366000Y22000D02*
Y26000D01*
X370000D01*
Y22000D01*
X366000D01*
X366800Y22800D02*
Y25200D01*
X369200D01*
Y22800D01*
X366800D01*
X370000Y14000D02*
Y18000D01*
X374000D01*
Y14000D01*
X370000D01*
X370800Y14800D02*
Y17200D01*
X373200D01*
Y14800D01*
X370800D01*
X366000Y6000D02*
Y10000D01*
X370000D01*
Y6000D01*
X366000D01*
X366800Y6800D02*
Y9200D01*
X369200D01*
Y6800D01*
X366800D01*
X362000Y78000D02*
Y82000D01*
X366000D01*
Y78000D01*
X362000D01*
X362800Y78800D02*
Y81200D01*
X365200D01*
Y78800D01*
X362800D01*
X358000Y70000D02*
Y74000D01*
X362000D01*
Y70000D01*
X358000D01*
X358800Y70800D02*
Y73200D01*
X361200D01*
Y70800D01*
X358800D01*
X362000Y62000D02*
Y66000D01*
X366000D01*
Y62000D01*
X362000D01*
X362800Y62800D02*
Y65200D01*
X365200D01*
Y62800D01*
X362800D01*
X358000Y54000D02*
Y58000D01*
X362000D01*
Y54000D01*
X358000D01*
X358800Y54800D02*
Y57200D01*
X361200D01*
Y54800D01*
X358800D01*
X358000Y38000D02*
Y42000D01*
X362000D01*
Y38000D01*
X358000D01*
X358800Y38800D02*
Y41200D01*
X361200D01*
Y38800D01*
X358800D01*
X362000Y30000D02*
Y34000D01*
X366000D01*
Y30000D01*
X362000D01*
X362800Y30800D02*
Y33200D01*
X365200D01*
Y30800D01*
X362800D01*
X358000Y22000D02*
Y26000D01*
X362000D01*
Y22000D01*
X358000D01*
X358800Y22800D02*
Y25200D01*
X361200D01*
Y22800D01*
X358800D01*
X362000Y14000D02*
Y18000D01*
X366000D01*
Y14000D01*
X362000D01*
X362800Y14800D02*
Y17200D01*
X365200D01*
Y14800D01*
X362800D01*
X358000Y6000D02*
Y10000D01*
X362000D01*
Y6000D01*
X358000D01*
X358800Y6800D02*
Y9200D01*
X361200D01*
Y6800D01*
X358800D01*
X354000Y78000D02*
Y82000D01*
X358000D01*
Y78000D01*
X354000D01*
X354800Y78800D02*
Y81200D01*
X357200D01*
Y78800D01*
X354800D01*
X350000Y70000D02*
Y74000D01*
X354000D01*
Y70000D01*
X350000D01*
X350800Y70800D02*
Y73200D01*
X353200D01*
Y70800D01*
X350800D01*
X354000Y62000D02*
Y66000D01*
X358000D01*
Y62000D01*
X354000D01*
X354800Y62800D02*
Y65200D01*
X357200D01*
Y62800D01*
X354800D01*
X350000Y54000D02*
Y58000D01*
X354000D01*
Y54000D01*
X350000D01*
X350800Y54800D02*
Y57200D01*
X353200D01*
Y54800D01*
X350800D01*
X350000Y38000D02*
Y42000D01*
X354000D01*
Y38000D01*
X350000D01*
X350800Y38800D02*
Y41200D01*
X353200D01*
Y38800D01*
X350800D01*
X346000Y78000D02*
Y82000D01*
X350000D01*
Y78000D01*
X346000D01*
X346800Y78800D02*
Y81200D01*
X349200D01*
Y78800D01*
X346800D01*
X342000Y70000D02*
Y74000D01*
X346000D01*
Y70000D01*
X342000D01*
X342800Y70800D02*
Y73200D01*
X345200D01*
Y70800D01*
X342800D01*
X346000Y62000D02*
Y66000D01*
X350000D01*
Y62000D01*
X346000D01*
X346800Y62800D02*
Y65200D01*
X349200D01*
Y62800D01*
X346800D01*
X342000Y54000D02*
Y58000D01*
X346000D01*
Y54000D01*
X342000D01*
X342800Y54800D02*
Y57200D01*
X345200D01*
Y54800D01*
X342800D01*
X342000Y38000D02*
Y42000D01*
X346000D01*
Y38000D01*
X342000D01*
X342800Y38800D02*
Y41200D01*
X345200D01*
Y38800D01*
X342800D01*
X338000Y78000D02*
Y82000D01*
X342000D01*
Y78000D01*
X338000D01*
X338800Y78800D02*
Y81200D01*
X341200D01*
Y78800D01*
X338800D01*
X334000Y70000D02*
Y74000D01*
X338000D01*
Y70000D01*
X334000D01*
X334800Y70800D02*
Y73200D01*
X337200D01*
Y70800D01*
X334800D01*
X338000Y62000D02*
Y66000D01*
X342000D01*
Y62000D01*
X338000D01*
X338800Y62800D02*
Y65200D01*
X341200D01*
Y62800D01*
X338800D01*
X334000Y54000D02*
Y58000D01*
X338000D01*
Y54000D01*
X334000D01*
X334800Y54800D02*
Y57200D01*
X337200D01*
Y54800D01*
X334800D01*
X334000Y38000D02*
Y42000D01*
X338000D01*
Y38000D01*
X334000D01*
X334800Y38800D02*
Y41200D01*
X337200D01*
Y38800D01*
X334800D01*
X330000Y78000D02*
Y82000D01*
X334000D01*
Y78000D01*
X330000D01*
X330800Y78800D02*
Y81200D01*
X333200D01*
Y78800D01*
X330800D01*
X326000Y70000D02*
Y74000D01*
X330000D01*
Y70000D01*
X326000D01*
X326800Y70800D02*
Y73200D01*
X329200D01*
Y70800D01*
X326800D01*
X330000Y62000D02*
Y66000D01*
X334000D01*
Y62000D01*
X330000D01*
X330800Y62800D02*
Y65200D01*
X333200D01*
Y62800D01*
X330800D01*
X326000Y54000D02*
Y58000D01*
X330000D01*
Y54000D01*
X326000D01*
X326800Y54800D02*
Y57200D01*
X329200D01*
Y54800D01*
X326800D01*
X326000Y38000D02*
Y42000D01*
X330000D01*
Y38000D01*
X326000D01*
X326800Y38800D02*
Y41200D01*
X329200D01*
Y38800D01*
X326800D01*
X326000Y22000D02*
Y26000D01*
X330000D01*
Y22000D01*
X326000D01*
X326800Y22800D02*
Y25200D01*
X329200D01*
Y22800D01*
X326800D01*
X326000Y6000D02*
Y10000D01*
X330000D01*
Y6000D01*
X326000D01*
X326800Y6800D02*
Y9200D01*
X329200D01*
Y6800D01*
X326800D01*
X322000Y78000D02*
Y82000D01*
X326000D01*
Y78000D01*
X322000D01*
X322800Y78800D02*
Y81200D01*
X325200D01*
Y78800D01*
X322800D01*
X318000Y70000D02*
Y74000D01*
X322000D01*
Y70000D01*
X318000D01*
X318800Y70800D02*
Y73200D01*
X321200D01*
Y70800D01*
X318800D01*
X322000Y62000D02*
Y66000D01*
X326000D01*
Y62000D01*
X322000D01*
X322800Y62800D02*
Y65200D01*
X325200D01*
Y62800D01*
X322800D01*
X318000Y54000D02*
Y58000D01*
X322000D01*
Y54000D01*
X318000D01*
X318800Y54800D02*
Y57200D01*
X321200D01*
Y54800D01*
X318800D01*
X318000Y38000D02*
Y42000D01*
X322000D01*
Y38000D01*
X318000D01*
X318800Y38800D02*
Y41200D01*
X321200D01*
Y38800D01*
X318800D01*
X322000Y30000D02*
Y34000D01*
X326000D01*
Y30000D01*
X322000D01*
X322800Y30800D02*
Y33200D01*
X325200D01*
Y30800D01*
X322800D01*
X318000Y22000D02*
Y26000D01*
X322000D01*
Y22000D01*
X318000D01*
X318800Y22800D02*
Y25200D01*
X321200D01*
Y22800D01*
X318800D01*
X322000Y14000D02*
Y18000D01*
X326000D01*
Y14000D01*
X322000D01*
X322800Y14800D02*
Y17200D01*
X325200D01*
Y14800D01*
X322800D01*
X318000Y6000D02*
Y10000D01*
X322000D01*
Y6000D01*
X318000D01*
X318800Y6800D02*
Y9200D01*
X321200D01*
Y6800D01*
X318800D01*
X314000Y78000D02*
Y82000D01*
X318000D01*
Y78000D01*
X314000D01*
X314800Y78800D02*
Y81200D01*
X317200D01*
Y78800D01*
X314800D01*
X310000Y54000D02*
Y58000D01*
X314000D01*
Y54000D01*
X310000D01*
X310800Y54800D02*
Y57200D01*
X313200D01*
Y54800D01*
X310800D01*
X310000Y38000D02*
Y42000D01*
X314000D01*
Y38000D01*
X310000D01*
X310800Y38800D02*
Y41200D01*
X313200D01*
Y38800D01*
X310800D01*
X314000Y30000D02*
Y34000D01*
X318000D01*
Y30000D01*
X314000D01*
X314800Y30800D02*
Y33200D01*
X317200D01*
Y30800D01*
X314800D01*
X310000Y22000D02*
Y26000D01*
X314000D01*
Y22000D01*
X310000D01*
X310800Y22800D02*
Y25200D01*
X313200D01*
Y22800D01*
X310800D01*
X314000Y14000D02*
Y18000D01*
X318000D01*
Y14000D01*
X314000D01*
X314800Y14800D02*
Y17200D01*
X317200D01*
Y14800D01*
X314800D01*
X310000Y6000D02*
Y10000D01*
X314000D01*
Y6000D01*
X310000D01*
X310800Y6800D02*
Y9200D01*
X313200D01*
Y6800D01*
X310800D01*
X306000Y78000D02*
Y82000D01*
X310000D01*
Y78000D01*
X306000D01*
X306800Y78800D02*
Y81200D01*
X309200D01*
Y78800D01*
X306800D01*
X302000Y70000D02*
Y74000D01*
X306000D01*
Y70000D01*
X302000D01*
X302800Y70800D02*
Y73200D01*
X305200D01*
Y70800D01*
X302800D01*
X302000Y54000D02*
Y58000D01*
X306000D01*
Y54000D01*
X302000D01*
X302800Y54800D02*
Y57200D01*
X305200D01*
Y54800D01*
X302800D01*
X302000Y38000D02*
Y42000D01*
X306000D01*
Y38000D01*
X302000D01*
X302800Y38800D02*
Y41200D01*
X305200D01*
Y38800D01*
X302800D01*
X306000Y30000D02*
Y34000D01*
X310000D01*
Y30000D01*
X306000D01*
X306800Y30800D02*
Y33200D01*
X309200D01*
Y30800D01*
X306800D01*
X302000Y22000D02*
Y26000D01*
X306000D01*
Y22000D01*
X302000D01*
X302800Y22800D02*
Y25200D01*
X305200D01*
Y22800D01*
X302800D01*
X306000Y14000D02*
Y18000D01*
X310000D01*
Y14000D01*
X306000D01*
X306800Y14800D02*
Y17200D01*
X309200D01*
Y14800D01*
X306800D01*
X302000Y6000D02*
Y10000D01*
X306000D01*
Y6000D01*
X302000D01*
X302800Y6800D02*
Y9200D01*
X305200D01*
Y6800D01*
X302800D01*
X298000Y78000D02*
Y82000D01*
X302000D01*
Y78000D01*
X298000D01*
X298800Y78800D02*
Y81200D01*
X301200D01*
Y78800D01*
X298800D01*
X294000Y70000D02*
Y74000D01*
X298000D01*
Y70000D01*
X294000D01*
X294800Y70800D02*
Y73200D01*
X297200D01*
Y70800D01*
X294800D01*
X298000Y62000D02*
Y66000D01*
X302000D01*
Y62000D01*
X298000D01*
X298800Y62800D02*
Y65200D01*
X301200D01*
Y62800D01*
X298800D01*
X294000Y54000D02*
Y58000D01*
X298000D01*
Y54000D01*
X294000D01*
X294800Y54800D02*
Y57200D01*
X297200D01*
Y54800D01*
X294800D01*
X294000Y38000D02*
Y42000D01*
X298000D01*
Y38000D01*
X294000D01*
X294800Y38800D02*
Y41200D01*
X297200D01*
Y38800D01*
X294800D01*
X298000Y30000D02*
Y34000D01*
X302000D01*
Y30000D01*
X298000D01*
X298800Y30800D02*
Y33200D01*
X301200D01*
Y30800D01*
X298800D01*
X294000Y22000D02*
Y26000D01*
X298000D01*
Y22000D01*
X294000D01*
X294800Y22800D02*
Y25200D01*
X297200D01*
Y22800D01*
X294800D01*
X298000Y14000D02*
Y18000D01*
X302000D01*
Y14000D01*
X298000D01*
X298800Y14800D02*
Y17200D01*
X301200D01*
Y14800D01*
X298800D01*
X294000Y6000D02*
Y10000D01*
X298000D01*
Y6000D01*
X294000D01*
X294800Y6800D02*
Y9200D01*
X297200D01*
Y6800D01*
X294800D01*
X290000Y78000D02*
Y82000D01*
X294000D01*
Y78000D01*
X290000D01*
X290800Y78800D02*
Y81200D01*
X293200D01*
Y78800D01*
X290800D01*
X286000Y70000D02*
Y74000D01*
X290000D01*
Y70000D01*
X286000D01*
X286800Y70800D02*
Y73200D01*
X289200D01*
Y70800D01*
X286800D01*
X290000Y62000D02*
Y66000D01*
X294000D01*
Y62000D01*
X290000D01*
X290800Y62800D02*
Y65200D01*
X293200D01*
Y62800D01*
X290800D01*
X286000Y54000D02*
Y58000D01*
X290000D01*
Y54000D01*
X286000D01*
X286800Y54800D02*
Y57200D01*
X289200D01*
Y54800D01*
X286800D01*
X286000Y38000D02*
Y42000D01*
X290000D01*
Y38000D01*
X286000D01*
X286800Y38800D02*
Y41200D01*
X289200D01*
Y38800D01*
X286800D01*
X290000Y30000D02*
Y34000D01*
X294000D01*
Y30000D01*
X290000D01*
X290800Y30800D02*
Y33200D01*
X293200D01*
Y30800D01*
X290800D01*
X286000Y22000D02*
Y26000D01*
X290000D01*
Y22000D01*
X286000D01*
X286800Y22800D02*
Y25200D01*
X289200D01*
Y22800D01*
X286800D01*
X290000Y14000D02*
Y18000D01*
X294000D01*
Y14000D01*
X290000D01*
X290800Y14800D02*
Y17200D01*
X293200D01*
Y14800D01*
X290800D01*
X286000Y6000D02*
Y10000D01*
X290000D01*
Y6000D01*
X286000D01*
X286800Y6800D02*
Y9200D01*
X289200D01*
Y6800D01*
X286800D01*
X10500Y181500D02*
Y185500D01*
X14500D01*
Y181500D01*
X10500D01*
X11300Y182300D02*
Y184700D01*
X13700D01*
Y182300D01*
X11300D01*
X304288Y201343D02*
Y205343D01*
X308288D01*
Y201343D01*
X304288D01*
X305088Y202143D02*
Y204542D01*
X307488D01*
Y202143D01*
X305088D01*
X309000Y201281D02*
Y205281D01*
X313000D01*
Y201281D01*
X309000D01*
X309800Y202081D02*
Y204482D01*
X312200D01*
Y202081D01*
X309800D01*
X301541Y201281D02*
Y205281D01*
X305541D01*
Y201281D01*
X301541D01*
X302341Y202081D02*
Y204482D01*
X304741D01*
Y202081D01*
X302341D01*
X216000Y179500D02*
Y183500D01*
X220000D01*
Y179500D01*
X216000D01*
X216800Y180300D02*
Y182700D01*
X219200D01*
Y180300D01*
X216800D01*
X227515Y179485D02*
Y183485D01*
X231515D01*
Y179485D01*
X227515D01*
X228315Y180285D02*
Y182685D01*
X230715D01*
Y180285D01*
X228315D01*
X258500Y179500D02*
Y183500D01*
X262500D01*
Y179500D01*
X258500D01*
X259300Y180300D02*
Y182700D01*
X261700D01*
Y180300D01*
X259300D01*
X278500Y179500D02*
Y183500D01*
X282500D01*
Y179500D01*
X278500D01*
X279300Y180300D02*
Y182700D01*
X281700D01*
Y180300D01*
X279300D01*
X8000Y175000D02*
Y179000D01*
X12000D01*
Y175000D01*
X8000D01*
X8800Y175800D02*
Y178200D01*
X11200D01*
Y175800D01*
X8800D01*
X284000Y127532D02*
Y131532D01*
X288000D01*
Y127532D01*
X284000D01*
X284800Y128331D02*
Y130731D01*
X287200D01*
Y128331D01*
X284800D01*
X21000Y151000D02*
Y155000D01*
X25000D01*
Y151000D01*
X21000D01*
X21800Y151800D02*
Y154200D01*
X24200D01*
Y151800D01*
X21800D01*
X276500Y146031D02*
Y150031D01*
X280500D01*
Y146031D01*
X276500D01*
X277300Y146832D02*
Y149232D01*
X279700D01*
Y146832D01*
X277300D01*
X269000Y148531D02*
Y152532D01*
X273000D01*
Y148531D01*
X269000D01*
X269800Y149331D02*
Y151732D01*
X272200D01*
Y149331D01*
X269800D01*
X272000Y148531D02*
Y152532D01*
X276000D01*
Y148531D01*
X272000D01*
X272800Y149331D02*
Y151732D01*
X275200D01*
Y149331D01*
X272800D01*
X274500Y148531D02*
Y152532D01*
X278500D01*
Y148531D01*
X274500D01*
X275300Y149331D02*
Y151732D01*
X277700D01*
Y149331D01*
X275300D01*
X280500Y147031D02*
Y151031D01*
X284500D01*
Y147031D01*
X280500D01*
X281300Y147831D02*
Y150232D01*
X283700D01*
Y147831D01*
X281300D01*
X469500Y66031D02*
Y69364D01*
X471166Y71030D01*
X472832Y69364D01*
Y66031D01*
Y68531D01*
X469500D01*
X73000Y294000D02*
X75000Y296000D01*
X77000Y294000D01*
X75000Y292000D01*
X73000Y294000D01*
X130095Y202095D02*
Y206095D01*
X134095D01*
Y202095D01*
X130095D01*
X130894Y202894D02*
Y205294D01*
X133294D01*
Y202894D01*
X130894D01*
X294500Y216500D02*
Y220500D01*
X298500D01*
Y216500D01*
X294500D01*
X295300Y217300D02*
Y219700D01*
X297700D01*
Y217300D01*
X295300D01*
X304500Y220000D02*
Y224000D01*
X308500D01*
Y220000D01*
X304500D01*
X305300Y220800D02*
Y223200D01*
X307700D01*
Y220800D01*
X305300D01*
X308000Y222500D02*
Y226500D01*
X312000D01*
Y222500D01*
X308000D01*
X308800Y223300D02*
Y225700D01*
X311200D01*
Y223300D01*
X308800D01*
X301500Y225000D02*
Y229000D01*
X305500D01*
Y225000D01*
X301500D01*
X302300Y225800D02*
Y228200D01*
X304700D01*
Y225800D01*
X302300D01*
X291000Y227000D02*
Y231000D01*
X295000D01*
Y227000D01*
X291000D01*
X291800Y227800D02*
Y230200D01*
X294200D01*
Y227800D01*
X291800D01*
X294500Y201281D02*
Y205281D01*
X298500D01*
Y201281D01*
X294500D01*
X295300Y202081D02*
Y204482D01*
X297700D01*
Y202081D01*
X295300D01*
X291066Y201216D02*
Y205216D01*
X295066D01*
Y201216D01*
X291066D01*
X291866Y202015D02*
Y204415D01*
X294266D01*
Y202015D01*
X291866D01*
X18000Y116750D02*
X20000Y118750D01*
X22000Y116750D01*
X20000Y114750D01*
X18000Y116750D01*
Y226750D02*
X20000Y228750D01*
X22000Y226750D01*
X20000Y224750D01*
X18000Y226750D01*
X97500Y317000D02*
X98500Y318000D01*
X99500D01*
X98500Y319000D01*
X99500Y320000D01*
X98500D01*
X97500Y321000D01*
X96500Y320000D01*
X95500D01*
X96500Y319000D01*
X95500Y318000D01*
X96500D01*
X97500Y317000D01*
Y317800D02*
X98100Y318400D01*
X98700D01*
X98100Y319000D01*
X98700Y319600D01*
X98100D01*
X97500Y320200D01*
X96900Y319600D01*
X96300D01*
X96900Y319000D01*
X96300Y318400D01*
X96900D01*
X97500Y317800D01*
X73000Y79000D02*
X75000Y81000D01*
X77000Y79000D01*
X75000Y77000D01*
X73000Y79000D01*
X541500Y318000D02*
Y317000D01*
X543500D01*
Y318000D01*
X544500D01*
Y320000D01*
X543500D01*
Y321000D01*
X541500D01*
Y320000D01*
X540500D01*
Y318000D01*
X541500D01*
X541900Y318400D02*
Y317800D01*
X543100D01*
Y318400D01*
X543700D01*
Y319600D01*
X543100D01*
Y320200D01*
X541900D01*
Y319600D01*
X541300D01*
Y318400D01*
X541900D01*
X97500Y92000D02*
X98500Y93000D01*
X99500D01*
X98500Y94000D01*
X99500Y95000D01*
X98500D01*
X97500Y96000D01*
X96500Y95000D01*
X95500D01*
X96500Y94000D01*
X95500Y93000D01*
X96500D01*
X97500Y92000D01*
Y92800D02*
X98100Y93400D01*
X98700D01*
X98100Y94000D01*
X98700Y94600D01*
X98100D01*
X97500Y95200D01*
X96900Y94600D01*
X96300D01*
X96900Y94000D01*
X96300Y93400D01*
X96900D01*
X97500Y92800D01*
X541500Y38000D02*
Y37000D01*
X543500D01*
Y38000D01*
X544500D01*
Y40000D01*
X543500D01*
Y41000D01*
X541500D01*
Y40000D01*
X540500D01*
Y38000D01*
X541500D01*
X541900Y38400D02*
Y37800D01*
X543100D01*
Y38400D01*
X543700D01*
Y39600D01*
X543100D01*
Y40200D01*
X541900D01*
Y39600D01*
X541300D01*
Y38400D01*
X541900D01*
X550500Y214000D02*
X552500Y216000D01*
X554500Y214000D01*
X552500Y212000D01*
X550500Y214000D01*
Y149000D02*
X552500Y151000D01*
X554500Y149000D01*
X552500Y147000D01*
X550500Y149000D01*
X499500Y76531D02*
Y80532D01*
X503500D01*
Y76531D01*
X499500D01*
X500300Y77332D02*
Y79732D01*
X502700D01*
Y77332D01*
X500300D01*
X499500Y102532D02*
Y106532D01*
X503500D01*
Y102532D01*
X499500D01*
X500300Y103331D02*
Y105731D01*
X502700D01*
Y103331D01*
X500300D01*
X499500Y90031D02*
Y94032D01*
X503500D01*
Y90031D01*
X499500D01*
X500300Y90832D02*
Y93231D01*
X502700D01*
Y90832D01*
X500300D01*
X466500Y85031D02*
Y89031D01*
X470500D01*
Y85031D01*
X466500D01*
X467300Y85831D02*
Y88231D01*
X469700D01*
Y85831D01*
X467300D01*
X466500Y93032D02*
Y97031D01*
X470500D01*
Y93032D01*
X466500D01*
X467300Y93831D02*
Y96232D01*
X469700D01*
Y93831D01*
X467300D01*
X459000Y89031D02*
Y93032D01*
X463000D01*
Y89031D01*
X459000D01*
X459800Y89832D02*
Y92232D01*
X462200D01*
Y89832D01*
X459800D01*
X459500Y112531D02*
Y116532D01*
X463500D01*
Y112531D01*
X459500D01*
X460300Y113331D02*
Y115732D01*
X462700D01*
Y113331D01*
X460300D01*
X459500Y65531D02*
Y69532D01*
X463500D01*
Y65531D01*
X459500D01*
X460300Y66331D02*
Y68731D01*
X462700D01*
Y66331D01*
X460300D01*
X515000Y32531D02*
Y36531D01*
X519000D01*
Y32531D01*
X515000D01*
X515800Y33332D02*
Y35732D01*
X518200D01*
Y33332D01*
X515800D01*
X518500Y32531D02*
Y36531D01*
X522500D01*
Y32531D01*
X518500D01*
X519300Y33332D02*
Y35732D01*
X521700D01*
Y33332D01*
X519300D01*
X470000Y39031D02*
Y43031D01*
X474000D01*
Y39031D01*
X470000D01*
X470800Y39832D02*
Y42232D01*
X473200D01*
Y39832D01*
X470800D01*
X465000Y33531D02*
Y37532D01*
X469000D01*
Y33531D01*
X465000D01*
X465800Y34332D02*
Y36731D01*
X468200D01*
Y34332D01*
X465800D01*
X470000Y28032D02*
Y32032D01*
X474000D01*
Y28032D01*
X470000D01*
X470800Y28831D02*
Y31231D01*
X473200D01*
Y28831D01*
X470800D01*
X460000Y170031D02*
Y174031D01*
X464000D01*
Y170031D01*
X460000D01*
X460800Y170832D02*
Y173231D01*
X463200D01*
Y170832D01*
X460800D01*
X460000Y154032D02*
Y158031D01*
X464000D01*
Y154032D01*
X460000D01*
X460800Y154832D02*
Y157231D01*
X463200D01*
Y154832D01*
X460800D01*
X477500Y265531D02*
Y269531D01*
X481500D01*
Y265531D01*
X477500D01*
X478300Y266332D02*
Y268731D01*
X480700D01*
Y266332D01*
X478300D01*
X473500Y260531D02*
Y264531D01*
X477500D01*
Y260531D01*
X473500D01*
X474300Y261332D02*
Y263732D01*
X476700D01*
Y261332D01*
X474300D01*
X495000Y304031D02*
Y308032D01*
X499000D01*
Y304031D01*
X495000D01*
X495800Y304832D02*
Y307231D01*
X498200D01*
Y304832D01*
X495800D01*
X491500Y306031D02*
Y310032D01*
X495500D01*
Y306031D01*
X491500D01*
X492300Y306832D02*
Y309231D01*
X494700D01*
Y306832D01*
X492300D01*
X488500Y306031D02*
Y310032D01*
X492500D01*
Y306031D01*
X488500D01*
X489300Y306832D02*
Y309231D01*
X491700D01*
Y306832D01*
X489300D01*
X485500Y306031D02*
Y310032D01*
X489500D01*
Y306031D01*
X485500D01*
X486300Y306832D02*
Y309231D01*
X488700D01*
Y306832D01*
X486300D01*
X482000Y304031D02*
Y308032D01*
X486000D01*
Y304031D01*
X482000D01*
X482800Y304832D02*
Y307231D01*
X485200D01*
Y304832D01*
X482800D01*
X478000Y288032D02*
Y292032D01*
X482000D01*
Y288032D01*
X478000D01*
X478800Y288831D02*
Y291231D01*
X481200D01*
Y288831D01*
X478800D01*
X498500Y289531D02*
Y293531D01*
X502500D01*
Y289531D01*
X498500D01*
X499300Y290332D02*
Y292731D01*
X501700D01*
Y290332D01*
X499300D01*
X513000Y282031D02*
Y286032D01*
X517000D01*
Y282031D01*
X513000D01*
X513800Y282832D02*
Y285231D01*
X516200D01*
Y282832D01*
X513800D01*
X508500Y282031D02*
Y286032D01*
X512500D01*
Y282031D01*
X508500D01*
X509300Y282832D02*
Y285231D01*
X511700D01*
Y282832D01*
X509300D01*
X504500Y282031D02*
Y286032D01*
X508500D01*
Y282031D01*
X504500D01*
X505300Y282832D02*
Y285231D01*
X507700D01*
Y282832D01*
X505300D01*
X500000Y282031D02*
Y286032D01*
X504000D01*
Y282031D01*
X500000D01*
X500800Y282832D02*
Y285231D01*
X503200D01*
Y282832D01*
X500800D01*
X476500Y276031D02*
Y280031D01*
X480500D01*
Y276031D01*
X476500D01*
X477300Y276832D02*
Y279232D01*
X479700D01*
Y276832D01*
X477300D01*
X472500Y276031D02*
Y280031D01*
X476500D01*
Y276031D01*
X472500D01*
X473300Y276832D02*
Y279232D01*
X475700D01*
Y276832D01*
X473300D01*
X479500Y283531D02*
Y287531D01*
X483500D01*
Y283531D01*
X479500D01*
X480300Y284331D02*
Y286732D01*
X482700D01*
Y284331D01*
X480300D01*
X343000Y156032D02*
Y160031D01*
X347000D01*
Y156032D01*
X343000D01*
X343800Y156832D02*
Y159231D01*
X346200D01*
Y156832D01*
X343800D01*
X339000Y156032D02*
Y160031D01*
X343000D01*
Y156032D01*
X339000D01*
X339800Y156832D02*
Y159231D01*
X342200D01*
Y156832D01*
X339800D01*
X343000Y162031D02*
Y166032D01*
X347000D01*
Y162031D01*
X343000D01*
X343800Y162831D02*
Y165232D01*
X346200D01*
Y162831D01*
X343800D01*
X339000Y162031D02*
Y166032D01*
X343000D01*
Y162031D01*
X339000D01*
X339800Y162831D02*
Y165232D01*
X342200D01*
Y162831D01*
X339800D01*
X339500Y173531D02*
Y177532D01*
X343500D01*
Y173531D01*
X339500D01*
X340300Y174331D02*
Y176732D01*
X342700D01*
Y174331D01*
X340300D01*
X333500Y173531D02*
Y177532D01*
X337500D01*
Y173531D01*
X333500D01*
X334300Y174331D02*
Y176732D01*
X336700D01*
Y174331D01*
X334300D01*
X333500Y178032D02*
Y182032D01*
X337500D01*
Y178032D01*
X333500D01*
X334300Y178832D02*
Y181231D01*
X336700D01*
Y178832D01*
X334300D01*
X339500Y178532D02*
Y182531D01*
X343500D01*
Y178532D01*
X339500D01*
X340300Y179332D02*
Y181731D01*
X342700D01*
Y179332D01*
X340300D01*
X343000Y184031D02*
Y188031D01*
X347000D01*
Y184031D01*
X343000D01*
X343800Y184832D02*
Y187232D01*
X346200D01*
Y184832D01*
X343800D01*
X339500Y190032D02*
Y194032D01*
X343500D01*
Y190032D01*
X339500D01*
X340300Y190831D02*
Y193231D01*
X342700D01*
Y190831D01*
X340300D01*
X331000Y190532D02*
Y194532D01*
X335000D01*
Y190532D01*
X331000D01*
X331800Y191332D02*
Y193731D01*
X334200D01*
Y191332D01*
X331800D01*
X331000Y195031D02*
Y199031D01*
X335000D01*
Y195031D01*
X331000D01*
X331800Y195832D02*
Y198231D01*
X334200D01*
Y195832D01*
X331800D01*
X278000Y187031D02*
Y191032D01*
X282000D01*
Y187031D01*
X278000D01*
X278800Y187831D02*
Y190232D01*
X281200D01*
Y187831D01*
X278800D01*
X272500Y191032D02*
Y195031D01*
X276500D01*
Y191032D01*
X272500D01*
X273300Y191832D02*
Y194231D01*
X275700D01*
Y191832D01*
X273300D01*
X259500Y187031D02*
Y191032D01*
X263500D01*
Y187031D01*
X259500D01*
X260300Y187831D02*
Y190232D01*
X262700D01*
Y187831D01*
X260300D01*
X265000Y191032D02*
Y195031D01*
X269000D01*
Y191032D01*
X265000D01*
X265800Y191832D02*
Y194231D01*
X268200D01*
Y191832D01*
X265800D01*
X272000Y170531D02*
Y174531D01*
X276000D01*
Y170531D01*
X272000D01*
X272800Y171332D02*
Y173732D01*
X275200D01*
Y171332D01*
X272800D01*
X269000Y170531D02*
Y174531D01*
X273000D01*
Y170531D01*
X269000D01*
X269800Y171332D02*
Y173732D01*
X272200D01*
Y171332D01*
X269800D01*
X266000Y170531D02*
Y174531D01*
X270000D01*
Y170531D01*
X266000D01*
X266800Y171332D02*
Y173732D01*
X269200D01*
Y171332D01*
X266800D01*
X263500Y170531D02*
Y174531D01*
X267500D01*
Y170531D01*
X263500D01*
X264300Y171332D02*
Y173732D01*
X266700D01*
Y171332D01*
X264300D01*
X288000Y122531D02*
Y126532D01*
X292000D01*
Y122531D01*
X288000D01*
X288800Y123331D02*
Y125732D01*
X291200D01*
Y123331D01*
X288800D01*
X311000Y114032D02*
Y118032D01*
X315000D01*
Y114032D01*
X311000D01*
X311800Y114831D02*
Y117232D01*
X314200D01*
Y114831D01*
X311800D01*
X315000Y127532D02*
Y131532D01*
X319000D01*
Y127532D01*
X315000D01*
X315800Y128331D02*
Y130731D01*
X318200D01*
Y128331D01*
X315800D01*
X315000Y120031D02*
Y124031D01*
X319000D01*
Y120031D01*
X315000D01*
X315800Y120832D02*
Y123231D01*
X318200D01*
Y120832D01*
X315800D01*
X284000Y131032D02*
Y135031D01*
X288000D01*
Y131032D01*
X284000D01*
X284800Y131832D02*
Y134231D01*
X287200D01*
Y131832D01*
X284800D01*
X307000Y145031D02*
Y149031D01*
X311000D01*
Y145031D01*
X307000D01*
X307800Y145832D02*
Y148231D01*
X310200D01*
Y145832D01*
X307800D01*
X330500Y133031D02*
Y137031D01*
X334500D01*
Y133031D01*
X330500D01*
X331300Y133832D02*
Y136232D01*
X333700D01*
Y133832D01*
X331300D01*
X320000Y133031D02*
Y137031D01*
X324000D01*
Y133031D01*
X320000D01*
X320800Y133832D02*
Y136232D01*
X323200D01*
Y133832D01*
X320800D01*
X315500Y133031D02*
Y137031D01*
X319500D01*
Y133031D01*
X315500D01*
X316300Y133832D02*
Y136232D01*
X318700D01*
Y133832D01*
X316300D01*
X311000Y133031D02*
Y137031D01*
X315000D01*
Y133031D01*
X311000D01*
X311800Y133832D02*
Y136232D01*
X314200D01*
Y133832D01*
X311800D01*
X277000Y139532D02*
Y143532D01*
X281000D01*
Y139532D01*
X277000D01*
X277800Y140331D02*
Y142731D01*
X280200D01*
Y140331D01*
X277800D01*
X284000Y137031D02*
Y141032D01*
X288000D01*
Y137031D01*
X284000D01*
X284800Y137831D02*
Y140232D01*
X287200D01*
Y137831D01*
X284800D01*
X287000Y137031D02*
Y141032D01*
X291000D01*
Y137031D01*
X287000D01*
X287800Y137831D02*
Y140232D01*
X290200D01*
Y137831D01*
X287800D01*
X290000Y137031D02*
Y141032D01*
X294000D01*
Y137031D01*
X290000D01*
X290800Y137831D02*
Y140232D01*
X293200D01*
Y137831D01*
X290800D01*
X328000Y156032D02*
Y160031D01*
X332000D01*
Y156032D01*
X328000D01*
X328800Y156832D02*
Y159231D01*
X331200D01*
Y156832D01*
X328800D01*
X330500Y153032D02*
Y157032D01*
X334500D01*
Y153032D01*
X330500D01*
X331300Y153832D02*
Y156231D01*
X333700D01*
Y153832D01*
X331300D01*
X335500Y141032D02*
Y145031D01*
X339500D01*
Y141032D01*
X335500D01*
X336300Y141832D02*
Y144231D01*
X338700D01*
Y141832D01*
X336300D01*
X325500Y133031D02*
Y137031D01*
X329500D01*
Y133031D01*
X325500D01*
X326300Y133832D02*
Y136232D01*
X328700D01*
Y133832D01*
X326300D01*
X309000Y156032D02*
Y160031D01*
X313000D01*
Y156032D01*
X309000D01*
X309800Y156832D02*
Y159231D01*
X312200D01*
Y156832D01*
X309800D01*
X293000Y154532D02*
Y158531D01*
X297000D01*
Y154532D01*
X293000D01*
X293800Y155332D02*
Y157731D01*
X296200D01*
Y155332D01*
X293800D01*
X293000Y151532D02*
Y155532D01*
X297000D01*
Y151532D01*
X293000D01*
X293800Y152331D02*
Y154732D01*
X296200D01*
Y152331D01*
X293800D01*
X305000Y147031D02*
Y151031D01*
X309000D01*
Y147031D01*
X305000D01*
X305800Y147831D02*
Y150232D01*
X308200D01*
Y147831D01*
X305800D01*
X495500Y248532D02*
Y252532D01*
X499500D01*
Y248532D01*
X495500D01*
X496300Y249331D02*
Y251731D01*
X498700D01*
Y249331D01*
X496300D01*
X486000Y278031D02*
Y282031D01*
X490000D01*
Y278031D01*
X486000D01*
X486800Y278832D02*
Y281231D01*
X489200D01*
Y278832D01*
X486800D01*
X491500Y280031D02*
Y284032D01*
X495500D01*
Y280031D01*
X491500D01*
X492300Y280832D02*
Y283231D01*
X494700D01*
Y280832D01*
X492300D01*
X473500Y250532D02*
Y254532D01*
X477500D01*
Y250532D01*
X473500D01*
X474300Y251331D02*
Y253731D01*
X476700D01*
Y251331D01*
X474300D01*
X296000Y144532D02*
Y148531D01*
X300000D01*
Y144532D01*
X296000D01*
X296800Y145332D02*
Y147731D01*
X299200D01*
Y145332D01*
X296800D01*
X274500Y137031D02*
Y141032D01*
X278500D01*
Y137031D01*
X274500D01*
X275300Y137831D02*
Y140232D01*
X277700D01*
Y137831D01*
X275300D01*
X305500Y140032D02*
Y144032D01*
X309500D01*
Y140032D01*
X305500D01*
X306300Y140831D02*
Y143231D01*
X308700D01*
Y140831D01*
X306300D01*
X305500Y137031D02*
Y141032D01*
X309500D01*
Y137031D01*
X305500D01*
X306300Y137831D02*
Y140232D01*
X308700D01*
Y137831D01*
X306300D01*
X308000Y135031D02*
Y139032D01*
X312000D01*
Y135031D01*
X308000D01*
X308800Y135831D02*
Y138232D01*
X311200D01*
Y135831D01*
X308800D01*
X277000Y169032D02*
Y173031D01*
X281000D01*
Y169032D01*
X277000D01*
X277800Y169832D02*
Y172231D01*
X280200D01*
Y169832D01*
X277800D01*
X279000Y172031D02*
Y176031D01*
X283000D01*
Y172031D01*
X279000D01*
X279800Y172831D02*
Y175232D01*
X282200D01*
Y172831D01*
X279800D01*
X485000Y241531D02*
Y245532D01*
X489000D01*
Y241531D01*
X485000D01*
X485800Y242332D02*
Y244731D01*
X488200D01*
Y242332D01*
X485800D01*
X324000Y159531D02*
Y163531D01*
X328000D01*
Y159531D01*
X324000D01*
X324800Y160331D02*
Y162732D01*
X327200D01*
Y160331D01*
X324800D01*
X299500Y155532D02*
Y159531D01*
X303500D01*
Y155532D01*
X299500D01*
X300300Y156332D02*
Y158731D01*
X302700D01*
Y156332D01*
X300300D01*
X297000Y155532D02*
Y159531D01*
X301000D01*
Y155532D01*
X297000D01*
X297800Y156332D02*
Y158731D01*
X300200D01*
Y156332D01*
X297800D01*
X297500Y147031D02*
Y151031D01*
X301500D01*
Y147031D01*
X297500D01*
X298300Y147831D02*
Y150232D01*
X300700D01*
Y147831D01*
X298300D01*
X300000Y131532D02*
Y135531D01*
X304000D01*
Y131532D01*
X300000D01*
X300800Y132332D02*
Y134731D01*
X303200D01*
Y132332D01*
X300800D01*
X280500Y167032D02*
Y171031D01*
X284500D01*
Y167032D01*
X280500D01*
X281300Y167832D02*
Y170231D01*
X283700D01*
Y167832D01*
X281300D01*
X276500Y155532D02*
Y159531D01*
X280500D01*
Y155532D01*
X276500D01*
X277300Y156332D02*
Y158731D01*
X279700D01*
Y156332D01*
X277300D01*
X289758Y162774D02*
Y166774D01*
X293758D01*
Y162774D01*
X289758D01*
X290558Y163574D02*
Y165974D01*
X292958D01*
Y163574D01*
X290558D01*
X492500Y24032D02*
Y28032D01*
X496500D01*
Y24032D01*
X492500D01*
X493300Y24832D02*
Y27231D01*
X495700D01*
Y24832D01*
X493300D01*
D100*
X323000Y204500D02*
G03*
X323000Y204500I-2000J0D01*
G01*
X351000Y168032D02*
G03*
X351000Y168032I-2000J0D01*
G01*
Y101031D02*
G03*
X351000Y101031I-2000J0D01*
G01*
X307000D02*
G03*
X307000Y101031I-2000J0D01*
G01*
X269000D02*
G03*
X269000Y101031I-2000J0D01*
G01*
D101*
X322200Y204500D02*
G03*
X322200Y204500I-1200J0D01*
G01*
X350200Y168032D02*
G03*
X350200Y168032I-1200J0D01*
G01*
Y101031D02*
G03*
X350200Y101031I-1200J0D01*
G01*
X306200D02*
G03*
X306200Y101031I-1200J0D01*
G01*
X268200D02*
G03*
X268200Y101031I-1200J0D01*
G01*
M02*
