G04*
G04 #@! TF.GenerationSoftware,Altium Limited,Altium Designer,25.2.1 (25)*
G04*
G04 Layer_Physical_Order=2*
G04 Layer_Color=36540*
%FSLAX25Y25*%
%MOIN*%
G70*
G04*
G04 #@! TF.SameCoordinates,85CC1250-A9D5-4C62-828A-8F390AD69E0A*
G04*
G04*
G04 #@! TF.FilePolarity,Positive*
G04*
G01*
G75*
%ADD57C,0.13000*%
%ADD59C,0.26000*%
%ADD72C,0.05937*%
%ADD74C,0.08858*%
%ADD75C,0.13583*%
%ADD76C,0.12480*%
%ADD77C,0.09409*%
%ADD78C,0.07677*%
%ADD79C,0.06496*%
%ADD80C,0.02000*%
%ADD81C,0.04000*%
%ADD82C,0.03000*%
%ADD83C,0.18000*%
%ADD84C,0.06000*%
G36*
X562369Y342866D02*
X562912Y342641D01*
X563400Y342315D01*
X563815Y341900D01*
X564141Y341412D01*
X564366Y340869D01*
X564480Y340294D01*
Y340000D01*
Y4000D01*
Y3706D01*
X564366Y3131D01*
X564141Y2588D01*
X563815Y2100D01*
X563400Y1685D01*
X562912Y1359D01*
X562369Y1134D01*
X561794Y1020D01*
X561500D01*
X79000Y1020D01*
X78706D01*
X78131Y1134D01*
X77588Y1359D01*
X77100Y1685D01*
X76685Y2100D01*
X76359Y2588D01*
X76134Y3131D01*
X76020Y3706D01*
X76020Y4000D01*
X76018Y4010D01*
X76019Y4020D01*
X75973Y6356D01*
X75967Y6386D01*
X75971Y6416D01*
X75604Y11073D01*
X75593Y11112D01*
X75595Y11153D01*
X74864Y15767D01*
X74850Y15805D01*
X74848Y15846D01*
X73757Y20389D01*
X73741Y20425D01*
X73736Y20466D01*
X72292Y24909D01*
X72272Y24944D01*
X72264Y24984D01*
X70476Y29300D01*
X70454Y29334D01*
X70443Y29373D01*
X68322Y33536D01*
X68297Y33568D01*
X68283Y33606D01*
X65842Y37589D01*
X65814Y37619D01*
X65797Y37656D01*
X63051Y41435D01*
X63021Y41463D01*
X63002Y41498D01*
X59967Y45051D01*
X59936Y45076D01*
X59913Y45110D01*
X56610Y48413D01*
X56576Y48436D01*
X56551Y48467D01*
X52998Y51502D01*
X52963Y51521D01*
X52935Y51551D01*
X49156Y54297D01*
X49119Y54314D01*
X49089Y54342D01*
X45106Y56783D01*
X45068Y56797D01*
X45036Y56822D01*
X40873Y58943D01*
X40834Y58954D01*
X40800Y58976D01*
X36484Y60764D01*
X36444Y60772D01*
X36409Y60792D01*
X31966Y62236D01*
X31925Y62240D01*
X31889Y62257D01*
X27346Y63348D01*
X27305Y63350D01*
X27267Y63364D01*
X22653Y64095D01*
X22613Y64093D01*
X22573Y64104D01*
X17916Y64470D01*
X17886Y64467D01*
X17856Y64473D01*
X15520Y64519D01*
X15510Y64518D01*
X15500Y64520D01*
X3706D01*
X3131Y64634D01*
X2588Y64859D01*
X2100Y65185D01*
X1685Y65600D01*
X1359Y66088D01*
X1134Y66631D01*
X1020Y67206D01*
Y67500D01*
Y276000D01*
Y276294D01*
X1134Y276869D01*
X1359Y277412D01*
X1685Y277900D01*
X2100Y278315D01*
X2588Y278641D01*
X3131Y278866D01*
X3706Y278980D01*
X15000D01*
X15010Y278982D01*
X15020Y278981D01*
X17376Y279027D01*
X17405Y279033D01*
X17436Y279030D01*
X22132Y279399D01*
X22171Y279411D01*
X22212Y279409D01*
X26865Y280146D01*
X26903Y280160D01*
X26943Y280161D01*
X31524Y281261D01*
X31561Y281278D01*
X31602Y281283D01*
X36082Y282739D01*
X36117Y282759D01*
X36157Y282767D01*
X40510Y284570D01*
X40543Y284592D01*
X40582Y284603D01*
X44780Y286742D01*
X44812Y286767D01*
X44850Y286781D01*
X48867Y289243D01*
X48897Y289270D01*
X48934Y289287D01*
X52745Y292056D01*
X52772Y292086D01*
X52808Y292106D01*
X56390Y295165D01*
X56415Y295197D01*
X56449Y295220D01*
X59780Y298551D01*
X59803Y298585D01*
X59835Y298610D01*
X62894Y302192D01*
X62914Y302228D01*
X62944Y302255D01*
X65713Y306066D01*
X65730Y306103D01*
X65758Y306133D01*
X68219Y310150D01*
X68233Y310188D01*
X68258Y310220D01*
X70397Y314418D01*
X70408Y314457D01*
X70430Y314490D01*
X72233Y318843D01*
X72241Y318883D01*
X72261Y318918D01*
X73717Y323398D01*
X73722Y323439D01*
X73739Y323476D01*
X74839Y328057D01*
X74840Y328097D01*
X74854Y328135D01*
X75591Y332788D01*
X75590Y332829D01*
X75600Y332868D01*
X75970Y337564D01*
X75967Y337595D01*
X75973Y337624D01*
X76019Y339980D01*
X76018Y339990D01*
X76020Y340000D01*
Y340294D01*
X76134Y340869D01*
X76359Y341412D01*
X76685Y341900D01*
X77100Y342315D01*
X77588Y342641D01*
X78131Y342866D01*
X78706Y342981D01*
X561794D01*
X562369Y342866D01*
D02*
G37*
%LPC*%
G36*
X495071Y332370D02*
X493929D01*
X492825Y332074D01*
X491836Y331503D01*
X491028Y330695D01*
X490457Y329706D01*
X490161Y328603D01*
Y327460D01*
X490457Y326357D01*
X491028Y325367D01*
X491836Y324560D01*
X492825Y323989D01*
X493929Y323693D01*
X495071D01*
X496175Y323989D01*
X497164Y324560D01*
X497972Y325367D01*
X498543Y326357D01*
X498839Y327460D01*
Y328603D01*
X498543Y329706D01*
X497972Y330695D01*
X497164Y331503D01*
X496175Y332074D01*
X495071Y332370D01*
D02*
G37*
G36*
X485071D02*
X483929D01*
X482825Y332074D01*
X481836Y331503D01*
X481028Y330695D01*
X480457Y329706D01*
X480161Y328603D01*
Y327460D01*
X480457Y326357D01*
X481028Y325367D01*
X481836Y324560D01*
X482825Y323989D01*
X483929Y323693D01*
X485071D01*
X486175Y323989D01*
X487164Y324560D01*
X487972Y325367D01*
X488543Y326357D01*
X488839Y327460D01*
Y328603D01*
X488543Y329706D01*
X487972Y330695D01*
X487164Y331503D01*
X486175Y332074D01*
X485071Y332370D01*
D02*
G37*
G36*
X150768Y319760D02*
X149398D01*
X148074Y319405D01*
X146887Y318720D01*
X145918Y317751D01*
X145233Y316564D01*
X144878Y315240D01*
Y313870D01*
X145233Y312546D01*
X145918Y311359D01*
X146887Y310390D01*
X148074Y309705D01*
X149398Y309350D01*
X150768D01*
X152092Y309705D01*
X153278Y310390D01*
X154247Y311359D01*
X154933Y312546D01*
X155287Y313870D01*
Y315240D01*
X154933Y316564D01*
X154247Y317751D01*
X153278Y318720D01*
X152092Y319405D01*
X150768Y319760D01*
D02*
G37*
G36*
X312386Y319602D02*
X311016D01*
X309692Y319248D01*
X308505Y318562D01*
X307536Y317593D01*
X306851Y316407D01*
X306496Y315083D01*
Y313712D01*
X306851Y312389D01*
X307536Y311202D01*
X308505Y310233D01*
X309692Y309548D01*
X311016Y309193D01*
X312386D01*
X313710Y309548D01*
X314897Y310233D01*
X315866Y311202D01*
X316551Y312389D01*
X316905Y313712D01*
Y315083D01*
X316551Y316407D01*
X315866Y317593D01*
X314897Y318562D01*
X313710Y319248D01*
X312386Y319602D01*
D02*
G37*
G36*
X493798Y283531D02*
X493202D01*
X492650Y283303D01*
X492228Y282881D01*
X492000Y282330D01*
Y281733D01*
X492228Y281182D01*
X492650Y280760D01*
X493202Y280532D01*
X493798D01*
X494350Y280760D01*
X494772Y281182D01*
X495000Y281733D01*
Y282330D01*
X494772Y282881D01*
X494350Y283303D01*
X493798Y283531D01*
D02*
G37*
G36*
X488298Y281532D02*
X487702D01*
X487150Y281303D01*
X486728Y280881D01*
X486500Y280330D01*
Y279733D01*
X486728Y279182D01*
X487150Y278760D01*
X487702Y278532D01*
X488298D01*
X488850Y278760D01*
X489272Y279182D01*
X489500Y279733D01*
Y280330D01*
X489272Y280881D01*
X488850Y281303D01*
X488298Y281532D01*
D02*
G37*
G36*
X219664Y288933D02*
X218336D01*
X217034Y288674D01*
X215807Y288166D01*
X214703Y287428D01*
X213765Y286490D01*
X213027Y285386D01*
X212519Y284159D01*
X212260Y282857D01*
Y281529D01*
X212519Y280227D01*
X213027Y279000D01*
X213765Y277896D01*
X214703Y276958D01*
X215807Y276220D01*
X217034Y275712D01*
X218336Y275453D01*
X219664D01*
X220966Y275712D01*
X222193Y276220D01*
X223297Y276958D01*
X224235Y277896D01*
X224973Y279000D01*
X225481Y280227D01*
X225740Y281529D01*
Y282857D01*
X225481Y284159D01*
X224973Y285386D01*
X224235Y286490D01*
X223297Y287428D01*
X222193Y288166D01*
X220966Y288674D01*
X219664Y288933D01*
D02*
G37*
G36*
X381282Y288776D02*
X379954D01*
X378652Y288517D01*
X377426Y288008D01*
X376322Y287271D01*
X375383Y286332D01*
X374645Y285228D01*
X374137Y284001D01*
X373878Y282699D01*
Y281372D01*
X374137Y280069D01*
X374645Y278843D01*
X375383Y277739D01*
X376322Y276800D01*
X377426Y276062D01*
X378652Y275554D01*
X379954Y275295D01*
X381282D01*
X382584Y275554D01*
X383811Y276062D01*
X384915Y276800D01*
X385854Y277739D01*
X386591Y278843D01*
X387099Y280069D01*
X387358Y281372D01*
Y282699D01*
X387099Y284001D01*
X386591Y285228D01*
X385854Y286332D01*
X384915Y287271D01*
X383811Y288008D01*
X382584Y288517D01*
X381282Y288776D01*
D02*
G37*
G36*
X288635Y289484D02*
X287199D01*
X285790Y289204D01*
X284464Y288654D01*
X283269Y287857D01*
X282254Y286841D01*
X281456Y285647D01*
X280906Y284320D01*
X280626Y282911D01*
Y281475D01*
X280906Y280066D01*
X281456Y278739D01*
X282254Y277545D01*
X283269Y276529D01*
X284464Y275731D01*
X285790Y275182D01*
X287199Y274902D01*
X288635D01*
X290044Y275182D01*
X291371Y275731D01*
X292565Y276529D01*
X293581Y277545D01*
X294379Y278739D01*
X294929Y280066D01*
X295209Y281475D01*
Y282911D01*
X294929Y284320D01*
X294379Y285647D01*
X293581Y286841D01*
X292565Y287857D01*
X291371Y288654D01*
X290044Y289204D01*
X288635Y289484D01*
D02*
G37*
G36*
X450254Y289327D02*
X448817D01*
X447409Y289047D01*
X446082Y288497D01*
X444887Y287699D01*
X443872Y286683D01*
X443074Y285489D01*
X442524Y284162D01*
X442244Y282754D01*
Y281317D01*
X442524Y279909D01*
X443074Y278582D01*
X443872Y277387D01*
X444887Y276372D01*
X446082Y275574D01*
X447409Y275024D01*
X448817Y274744D01*
X450254D01*
X451662Y275024D01*
X452989Y275574D01*
X454183Y276372D01*
X455199Y277387D01*
X455997Y278582D01*
X456547Y279909D01*
X456827Y281317D01*
Y282754D01*
X456547Y284162D01*
X455997Y285489D01*
X455199Y286683D01*
X454183Y287699D01*
X452989Y288497D01*
X451662Y289047D01*
X450254Y289327D01*
D02*
G37*
G36*
X475798Y254031D02*
X475202D01*
X474650Y253803D01*
X474228Y253381D01*
X474000Y252830D01*
Y252233D01*
X474228Y251682D01*
X474650Y251260D01*
X475202Y251031D01*
X475798D01*
X476350Y251260D01*
X476772Y251682D01*
X477000Y252233D01*
Y252830D01*
X476772Y253381D01*
X476350Y253803D01*
X475798Y254031D01*
D02*
G37*
G36*
X497798Y252031D02*
X497202D01*
X496650Y251803D01*
X496228Y251381D01*
X496000Y250830D01*
Y250233D01*
X496228Y249682D01*
X496650Y249260D01*
X497202Y249031D01*
X497798D01*
X498350Y249260D01*
X498772Y249682D01*
X499000Y250233D01*
Y250830D01*
X498772Y251381D01*
X498350Y251803D01*
X497798Y252031D01*
D02*
G37*
G36*
X487298Y245031D02*
X486702D01*
X486150Y244803D01*
X485728Y244381D01*
X485500Y243830D01*
Y243233D01*
X485728Y242682D01*
X486150Y242260D01*
X486702Y242032D01*
X487298D01*
X487850Y242260D01*
X488272Y242682D01*
X488500Y243233D01*
Y243830D01*
X488272Y244381D01*
X487850Y244803D01*
X487298Y245031D01*
D02*
G37*
G36*
X293298Y230500D02*
X292702D01*
X292150Y230272D01*
X291728Y229850D01*
X291500Y229298D01*
Y228702D01*
X291728Y228150D01*
X292150Y227728D01*
X292702Y227500D01*
X293298D01*
X293850Y227728D01*
X294272Y228150D01*
X294500Y228702D01*
Y229298D01*
X294272Y229850D01*
X293850Y230272D01*
X293298Y230500D01*
D02*
G37*
G36*
X303798Y228500D02*
X303202D01*
X302650Y228272D01*
X302228Y227850D01*
X302000Y227298D01*
Y226702D01*
X302228Y226150D01*
X302650Y225728D01*
X303202Y225500D01*
X303798D01*
X304350Y225728D01*
X304772Y226150D01*
X305000Y226702D01*
Y227298D01*
X304772Y227850D01*
X304350Y228272D01*
X303798Y228500D01*
D02*
G37*
G36*
X310298Y226000D02*
X309702D01*
X309150Y225772D01*
X308728Y225350D01*
X308500Y224798D01*
Y224202D01*
X308728Y223650D01*
X309150Y223228D01*
X309702Y223000D01*
X310298D01*
X310850Y223228D01*
X311272Y223650D01*
X311500Y224202D01*
Y224798D01*
X311272Y225350D01*
X310850Y225772D01*
X310298Y226000D01*
D02*
G37*
G36*
X306798Y223500D02*
X306202D01*
X305650Y223272D01*
X305228Y222850D01*
X305000Y222298D01*
Y221702D01*
X305228Y221150D01*
X305650Y220728D01*
X306202Y220500D01*
X306798D01*
X307350Y220728D01*
X307772Y221150D01*
X308000Y221702D01*
Y222298D01*
X307772Y222850D01*
X307350Y223272D01*
X306798Y223500D01*
D02*
G37*
G36*
X296798Y220000D02*
X296202D01*
X295650Y219772D01*
X295228Y219350D01*
X295000Y218798D01*
Y218202D01*
X295228Y217650D01*
X295650Y217228D01*
X296202Y217000D01*
X296798D01*
X297350Y217228D01*
X297772Y217650D01*
X298000Y218202D01*
Y218798D01*
X297772Y219350D01*
X297350Y219772D01*
X296798Y220000D01*
D02*
G37*
G36*
X60993Y221248D02*
X60007D01*
X59053Y220993D01*
X58199Y220499D01*
X57501Y219801D01*
X57007Y218947D01*
X56752Y217993D01*
Y217007D01*
X57007Y216053D01*
X57501Y215199D01*
X58199Y214501D01*
X59053Y214007D01*
X60007Y213752D01*
X60993D01*
X61947Y214007D01*
X62801Y214501D01*
X63499Y215199D01*
X63993Y216053D01*
X64248Y217007D01*
Y217993D01*
X63993Y218947D01*
X63499Y219801D01*
X62801Y220499D01*
X61947Y220993D01*
X60993Y221248D01*
D02*
G37*
G36*
X50993D02*
X50007D01*
X49053Y220993D01*
X48199Y220499D01*
X47501Y219801D01*
X47007Y218947D01*
X46752Y217993D01*
Y217007D01*
X47007Y216053D01*
X47501Y215199D01*
X48199Y214501D01*
X49053Y214007D01*
X50007Y213752D01*
X50993D01*
X51947Y214007D01*
X52801Y214501D01*
X53499Y215199D01*
X53993Y216053D01*
X54248Y217007D01*
Y217993D01*
X53993Y218947D01*
X53499Y219801D01*
X52801Y220499D01*
X51947Y220993D01*
X50993Y221248D01*
D02*
G37*
G36*
X61059Y211748D02*
X61000D01*
Y208000D01*
X64748D01*
Y208059D01*
X64459Y209140D01*
X63899Y210108D01*
X63108Y210899D01*
X62140Y211458D01*
X61059Y211748D01*
D02*
G37*
G36*
X60000D02*
X59941D01*
X58860Y211458D01*
X57892Y210899D01*
X57101Y210108D01*
X56542Y209140D01*
X56252Y208059D01*
Y208000D01*
X60000D01*
Y211748D01*
D02*
G37*
G36*
X306587Y204842D02*
X305990D01*
X305438Y204614D01*
X305407Y204582D01*
X304946Y204233D01*
X304391Y204553D01*
X303839Y204782D01*
X303242D01*
X302691Y204553D01*
X302269Y204131D01*
X302041Y203580D01*
Y202983D01*
X302269Y202432D01*
X302691Y202010D01*
X303242Y201782D01*
X303839D01*
X304391Y202010D01*
X304422Y202042D01*
X304883Y202391D01*
X305438Y202071D01*
X305990Y201842D01*
X306587D01*
X307138Y202071D01*
X307560Y202493D01*
X307788Y203044D01*
Y203641D01*
X307560Y204192D01*
X307138Y204614D01*
X306587Y204842D01*
D02*
G37*
G36*
X296798Y204782D02*
X296202D01*
X295650Y204553D01*
X295228Y204131D01*
X295202Y204068D01*
X294338Y204065D01*
X293916Y204487D01*
X293365Y204715D01*
X292768D01*
X292216Y204487D01*
X291794Y204065D01*
X291566Y203514D01*
Y202917D01*
X291794Y202366D01*
X292216Y201944D01*
X292768Y201715D01*
X293365D01*
X293916Y201944D01*
X294338Y202366D01*
X294364Y202429D01*
X295228Y202432D01*
X295650Y202010D01*
X296202Y201782D01*
X296798D01*
X297350Y202010D01*
X297772Y202432D01*
X298000Y202983D01*
Y203580D01*
X297772Y204131D01*
X297350Y204553D01*
X296798Y204782D01*
D02*
G37*
G36*
X50993Y211248D02*
X50007D01*
X49053Y210993D01*
X48199Y210499D01*
X47501Y209801D01*
X47007Y208947D01*
X46752Y207993D01*
Y207007D01*
X47007Y206053D01*
X47501Y205199D01*
X48199Y204501D01*
X49053Y204007D01*
X50007Y203752D01*
X50993D01*
X51947Y204007D01*
X52801Y204501D01*
X53499Y205199D01*
X53993Y206053D01*
X54248Y207007D01*
Y207993D01*
X53993Y208947D01*
X53499Y209801D01*
X52801Y210499D01*
X51947Y210993D01*
X50993Y211248D01*
D02*
G37*
G36*
X64748Y207000D02*
X61000D01*
Y203252D01*
X61059D01*
X62140Y203541D01*
X63108Y204101D01*
X63899Y204892D01*
X64459Y205860D01*
X64748Y206941D01*
Y207000D01*
D02*
G37*
G36*
X60000D02*
X56252D01*
Y206941D01*
X56542Y205860D01*
X57101Y204892D01*
X57892Y204101D01*
X58860Y203541D01*
X59941Y203252D01*
X60000D01*
Y207000D01*
D02*
G37*
G36*
X132393Y205594D02*
X131796D01*
X131245Y205366D01*
X130823Y204944D01*
X130595Y204393D01*
Y203796D01*
X130823Y203245D01*
X131245Y202823D01*
X131796Y202594D01*
X132393D01*
X132944Y202823D01*
X133366Y203245D01*
X133595Y203796D01*
Y204393D01*
X133366Y204944D01*
X132944Y205366D01*
X132393Y205594D01*
D02*
G37*
G36*
X321398Y206500D02*
X320602D01*
X319867Y206195D01*
X319304Y205633D01*
X319000Y204898D01*
Y204102D01*
X319304Y203367D01*
X319867Y202804D01*
X320602Y202500D01*
X321398D01*
X322133Y202804D01*
X322695Y203367D01*
X323000Y204102D01*
Y204898D01*
X322695Y205633D01*
X322133Y206195D01*
X321398Y206500D01*
D02*
G37*
G36*
X311298Y204782D02*
X310702D01*
X310150Y204553D01*
X309728Y204131D01*
X309500Y203580D01*
Y202983D01*
X309728Y202432D01*
X310150Y202010D01*
X310702Y201782D01*
X311298D01*
X311850Y202010D01*
X312272Y202432D01*
X312500Y202983D01*
Y203580D01*
X312272Y204131D01*
X311850Y204553D01*
X311298Y204782D01*
D02*
G37*
G36*
X61059Y201748D02*
X61000D01*
Y198000D01*
X64748D01*
Y198059D01*
X64459Y199140D01*
X63899Y200108D01*
X63108Y200899D01*
X62140Y201459D01*
X61059Y201748D01*
D02*
G37*
G36*
X60000D02*
X59941D01*
X58860Y201459D01*
X57892Y200899D01*
X57101Y200108D01*
X56542Y199140D01*
X56252Y198059D01*
Y198000D01*
X60000D01*
Y201748D01*
D02*
G37*
G36*
X50993Y201248D02*
X50007D01*
X49053Y200993D01*
X48199Y200499D01*
X47501Y199801D01*
X47007Y198947D01*
X46752Y197993D01*
Y197007D01*
X47007Y196053D01*
X47501Y195199D01*
X48199Y194501D01*
X49053Y194007D01*
X50007Y193752D01*
X50993D01*
X51947Y194007D01*
X52801Y194501D01*
X53499Y195199D01*
X53993Y196053D01*
X54248Y197007D01*
Y197993D01*
X53993Y198947D01*
X53499Y199801D01*
X52801Y200499D01*
X51947Y200993D01*
X50993Y201248D01*
D02*
G37*
G36*
X64748Y197000D02*
X61000D01*
Y193252D01*
X61059D01*
X62140Y193542D01*
X63108Y194101D01*
X63899Y194892D01*
X64459Y195860D01*
X64748Y196941D01*
Y197000D01*
D02*
G37*
G36*
X60000D02*
X56252D01*
Y196941D01*
X56542Y195860D01*
X57101Y194892D01*
X57892Y194101D01*
X58860Y193542D01*
X59941Y193252D01*
X60000D01*
Y197000D01*
D02*
G37*
G36*
X61059Y191748D02*
X61000D01*
Y188000D01*
X64748D01*
Y188059D01*
X64459Y189140D01*
X63899Y190108D01*
X63108Y190899D01*
X62140Y191458D01*
X61059Y191748D01*
D02*
G37*
G36*
X60000D02*
X59941D01*
X58860Y191458D01*
X57892Y190899D01*
X57101Y190108D01*
X56542Y189140D01*
X56252Y188059D01*
Y188000D01*
X60000D01*
Y191748D01*
D02*
G37*
G36*
X50993Y191248D02*
X50007D01*
X49053Y190993D01*
X48199Y190499D01*
X47501Y189801D01*
X47007Y188947D01*
X46752Y187993D01*
Y187007D01*
X47007Y186053D01*
X47501Y185199D01*
X48199Y184501D01*
X49053Y184007D01*
X50007Y183752D01*
X50993D01*
X51947Y184007D01*
X52801Y184501D01*
X53499Y185199D01*
X53993Y186053D01*
X54248Y187007D01*
Y187993D01*
X53993Y188947D01*
X53499Y189801D01*
X52801Y190499D01*
X51947Y190993D01*
X50993Y191248D01*
D02*
G37*
G36*
X64748Y187000D02*
X61000D01*
Y183252D01*
X61059D01*
X62140Y183542D01*
X63108Y184101D01*
X63899Y184892D01*
X64459Y185860D01*
X64748Y186941D01*
Y187000D01*
D02*
G37*
G36*
X60000D02*
X56252D01*
Y186941D01*
X56542Y185860D01*
X57101Y184892D01*
X57892Y184101D01*
X58860Y183542D01*
X59941Y183252D01*
X60000D01*
Y187000D01*
D02*
G37*
G36*
X12798Y185000D02*
X12202D01*
X11650Y184772D01*
X11228Y184350D01*
X11000Y183798D01*
Y183202D01*
X11228Y182650D01*
X11650Y182228D01*
X12202Y182000D01*
X12798D01*
X13350Y182228D01*
X13772Y182650D01*
X14000Y183202D01*
Y183798D01*
X13772Y184350D01*
X13350Y184772D01*
X12798Y185000D01*
D02*
G37*
G36*
X280798Y183000D02*
X280202D01*
X279650Y182772D01*
X279228Y182350D01*
X279000Y181798D01*
Y181202D01*
X279228Y180650D01*
X279650Y180228D01*
X280202Y180000D01*
X280798D01*
X281350Y180228D01*
X281772Y180650D01*
X282000Y181202D01*
Y181798D01*
X281772Y182350D01*
X281350Y182772D01*
X280798Y183000D01*
D02*
G37*
G36*
X260798D02*
X260202D01*
X259650Y182772D01*
X259228Y182350D01*
X259000Y181798D01*
Y181202D01*
X259228Y180650D01*
X259650Y180228D01*
X260202Y180000D01*
X260798D01*
X261350Y180228D01*
X261772Y180650D01*
X262000Y181202D01*
Y181798D01*
X261772Y182350D01*
X261350Y182772D01*
X260798Y183000D01*
D02*
G37*
G36*
X218298D02*
X217702D01*
X217150Y182772D01*
X216728Y182350D01*
X216500Y181798D01*
Y181202D01*
X216728Y180650D01*
X217150Y180228D01*
X217702Y180000D01*
X218298D01*
X218850Y180228D01*
X219272Y180650D01*
X219500Y181202D01*
Y181798D01*
X219272Y182350D01*
X218850Y182772D01*
X218298Y183000D01*
D02*
G37*
G36*
X229813Y182985D02*
X229217D01*
X228665Y182757D01*
X228243Y182335D01*
X228015Y181783D01*
Y181187D01*
X228243Y180635D01*
X228665Y180213D01*
X229217Y179985D01*
X229813D01*
X230365Y180213D01*
X230787Y180635D01*
X231015Y181187D01*
Y181783D01*
X230787Y182335D01*
X230365Y182757D01*
X229813Y182985D01*
D02*
G37*
G36*
X61059Y181748D02*
X61000D01*
Y178000D01*
X64748D01*
Y178059D01*
X64459Y179140D01*
X63899Y180108D01*
X63108Y180899D01*
X62140Y181458D01*
X61059Y181748D01*
D02*
G37*
G36*
X60000D02*
X59941D01*
X58860Y181458D01*
X57892Y180899D01*
X57101Y180108D01*
X56542Y179140D01*
X56252Y178059D01*
Y178000D01*
X60000D01*
Y181748D01*
D02*
G37*
G36*
X10298Y178500D02*
X9702D01*
X9150Y178272D01*
X8728Y177850D01*
X8500Y177298D01*
Y176702D01*
X8728Y176150D01*
X9150Y175728D01*
X9702Y175500D01*
X10298D01*
X10850Y175728D01*
X11272Y176150D01*
X11500Y176702D01*
Y177298D01*
X11272Y177850D01*
X10850Y178272D01*
X10298Y178500D01*
D02*
G37*
G36*
X325850Y176166D02*
X320150D01*
X319997Y176103D01*
X319934Y175950D01*
Y174050D01*
X319997Y173897D01*
X320150Y173834D01*
X325850D01*
X326003Y173897D01*
X326066Y174050D01*
Y175950D01*
X326003Y176103D01*
X325850Y176166D01*
D02*
G37*
G36*
X50993Y181248D02*
X50007D01*
X49053Y180993D01*
X48199Y180499D01*
X47501Y179801D01*
X47007Y178947D01*
X46752Y177993D01*
Y177007D01*
X47007Y176053D01*
X47501Y175199D01*
X48199Y174501D01*
X49053Y174007D01*
X50007Y173752D01*
X50993D01*
X51947Y174007D01*
X52801Y174501D01*
X53499Y175199D01*
X53993Y176053D01*
X54248Y177007D01*
Y177993D01*
X53993Y178947D01*
X53499Y179801D01*
X52801Y180499D01*
X51947Y180993D01*
X50993Y181248D01*
D02*
G37*
G36*
X64748Y177000D02*
X61000D01*
Y173252D01*
X61059D01*
X62140Y173541D01*
X63108Y174101D01*
X63899Y174892D01*
X64459Y175860D01*
X64748Y176941D01*
Y177000D01*
D02*
G37*
G36*
X60000D02*
X56252D01*
Y176941D01*
X56542Y175860D01*
X57101Y174892D01*
X57892Y174101D01*
X58860Y173541D01*
X59941Y173252D01*
X60000D01*
Y177000D01*
D02*
G37*
G36*
X281298Y175531D02*
X280702D01*
X280150Y175303D01*
X279728Y174881D01*
X279500Y174330D01*
Y173733D01*
X279710Y173227D01*
X279573Y172946D01*
X279453Y172765D01*
X279247Y172531D01*
X278702D01*
X278150Y172303D01*
X277728Y171881D01*
X277500Y171330D01*
Y170733D01*
X277728Y170182D01*
X278150Y169760D01*
X278702Y169532D01*
X279298D01*
X279850Y169760D01*
X280272Y170182D01*
X280500Y170733D01*
Y171330D01*
X280290Y171836D01*
X280427Y172117D01*
X280547Y172298D01*
X280753Y172531D01*
X281298D01*
X281850Y172760D01*
X282272Y173182D01*
X282500Y173733D01*
Y174330D01*
X282272Y174881D01*
X281850Y175303D01*
X281298Y175531D01*
D02*
G37*
G36*
X61059Y171748D02*
X61000D01*
Y168000D01*
X64748D01*
Y168059D01*
X64459Y169140D01*
X63899Y170108D01*
X63108Y170899D01*
X62140Y171458D01*
X61059Y171748D01*
D02*
G37*
G36*
X60000D02*
X59941D01*
X58860Y171458D01*
X57892Y170899D01*
X57101Y170108D01*
X56542Y169140D01*
X56252Y168059D01*
Y168000D01*
X60000D01*
Y171748D01*
D02*
G37*
G36*
X282798Y170531D02*
X282202D01*
X281650Y170303D01*
X281228Y169881D01*
X281000Y169330D01*
Y168733D01*
X281228Y168182D01*
X281650Y167760D01*
X282202Y167532D01*
X282798D01*
X283350Y167760D01*
X283772Y168182D01*
X284000Y168733D01*
Y169330D01*
X283772Y169881D01*
X283350Y170303D01*
X282798Y170531D01*
D02*
G37*
G36*
X349398Y170031D02*
X348602D01*
X347867Y169727D01*
X347305Y169164D01*
X347000Y168429D01*
Y167634D01*
X347305Y166899D01*
X347867Y166336D01*
X348602Y166032D01*
X349398D01*
X350133Y166336D01*
X350695Y166899D01*
X351000Y167634D01*
Y168429D01*
X350695Y169164D01*
X350133Y169727D01*
X349398Y170031D01*
D02*
G37*
G36*
X505444Y173677D02*
X504146D01*
X502893Y173341D01*
X501769Y172692D01*
X500851Y171775D01*
X500202Y170651D01*
X499866Y169397D01*
Y168099D01*
X500202Y166846D01*
X500851Y165721D01*
X501769Y164804D01*
X502893Y164155D01*
X504146Y163819D01*
X505444D01*
X506698Y164155D01*
X507822Y164804D01*
X508740Y165721D01*
X509388Y166846D01*
X509724Y168099D01*
Y169397D01*
X509388Y170651D01*
X508740Y171775D01*
X507822Y172692D01*
X506698Y173341D01*
X505444Y173677D01*
D02*
G37*
G36*
X479854D02*
X478556D01*
X477302Y173341D01*
X476178Y172692D01*
X475260Y171775D01*
X474612Y170651D01*
X474276Y169397D01*
Y168099D01*
X474612Y166846D01*
X475260Y165721D01*
X476178Y164804D01*
X477302Y164155D01*
X478556Y163819D01*
X479854D01*
X481107Y164155D01*
X482231Y164804D01*
X483149Y165721D01*
X483798Y166846D01*
X484134Y168099D01*
Y169397D01*
X483798Y170651D01*
X483149Y171775D01*
X482231Y172692D01*
X481107Y173341D01*
X479854Y173677D01*
D02*
G37*
G36*
X50993Y171248D02*
X50007D01*
X49053Y170993D01*
X48199Y170499D01*
X47501Y169801D01*
X47007Y168947D01*
X46752Y167993D01*
Y167007D01*
X47007Y166053D01*
X47501Y165199D01*
X48199Y164501D01*
X49053Y164007D01*
X50007Y163752D01*
X50993D01*
X51947Y164007D01*
X52801Y164501D01*
X53499Y165199D01*
X53993Y166053D01*
X54248Y167007D01*
Y167993D01*
X53993Y168947D01*
X53499Y169801D01*
X52801Y170499D01*
X51947Y170993D01*
X50993Y171248D01*
D02*
G37*
G36*
X292056Y166274D02*
X291459D01*
X290908Y166045D01*
X290486Y165623D01*
X290258Y165072D01*
Y164475D01*
X290486Y163924D01*
X290908Y163502D01*
X291459Y163274D01*
X292056D01*
X292607Y163502D01*
X293029Y163924D01*
X293258Y164475D01*
Y165072D01*
X293029Y165623D01*
X292607Y166045D01*
X292056Y166274D01*
D02*
G37*
G36*
X64748Y167000D02*
X61000D01*
Y163252D01*
X61059D01*
X62140Y163541D01*
X63108Y164101D01*
X63899Y164892D01*
X64459Y165860D01*
X64748Y166941D01*
Y167000D01*
D02*
G37*
G36*
X60000D02*
X56252D01*
Y166941D01*
X56542Y165860D01*
X57101Y164892D01*
X57892Y164101D01*
X58860Y163541D01*
X59941Y163252D01*
X60000D01*
Y167000D01*
D02*
G37*
G36*
X326298Y163031D02*
X325702D01*
X325150Y162803D01*
X324728Y162381D01*
X324500Y161830D01*
Y161233D01*
X324728Y160682D01*
X325150Y160260D01*
X325702Y160031D01*
X326298D01*
X326850Y160260D01*
X327272Y160682D01*
X327500Y161233D01*
Y161830D01*
X327272Y162381D01*
X326850Y162803D01*
X326298Y163031D01*
D02*
G37*
G36*
X301798Y159031D02*
X301202D01*
X300650Y158803D01*
X300250Y158403D01*
X299850Y158803D01*
X299298Y159031D01*
X298702D01*
X298150Y158803D01*
X297728Y158381D01*
X297500Y157830D01*
Y157233D01*
X297728Y156682D01*
X298150Y156260D01*
X298702Y156032D01*
X299298D01*
X299850Y156260D01*
X300250Y156660D01*
X300650Y156260D01*
X301202Y156032D01*
X301798D01*
X302350Y156260D01*
X302772Y156682D01*
X303000Y157233D01*
Y157830D01*
X302772Y158381D01*
X302350Y158803D01*
X301798Y159031D01*
D02*
G37*
G36*
X61059Y161748D02*
X61000D01*
Y158000D01*
X64748D01*
Y158059D01*
X64459Y159140D01*
X63899Y160108D01*
X63108Y160899D01*
X62140Y161459D01*
X61059Y161748D01*
D02*
G37*
G36*
X60000D02*
X59941D01*
X58860Y161459D01*
X57892Y160899D01*
X57101Y160108D01*
X56542Y159140D01*
X56252Y158059D01*
Y158000D01*
X60000D01*
Y161748D01*
D02*
G37*
G36*
X278798Y159031D02*
X278202D01*
X277650Y158803D01*
X277228Y158381D01*
X277000Y157830D01*
Y157233D01*
X277228Y156682D01*
X277650Y156260D01*
X278202Y156032D01*
X278798D01*
X279350Y156260D01*
X279772Y156682D01*
X280000Y157233D01*
Y157830D01*
X279772Y158381D01*
X279350Y158803D01*
X278798Y159031D01*
D02*
G37*
G36*
X50993Y161248D02*
X50007D01*
X49053Y160993D01*
X48199Y160499D01*
X47501Y159801D01*
X47007Y158947D01*
X46752Y157993D01*
Y157007D01*
X47007Y156053D01*
X47501Y155199D01*
X48199Y154501D01*
X49053Y154007D01*
X50007Y153752D01*
X50993D01*
X51947Y154007D01*
X52801Y154501D01*
X53499Y155199D01*
X53993Y156053D01*
X54248Y157007D01*
Y157993D01*
X53993Y158947D01*
X53499Y159801D01*
X52801Y160499D01*
X51947Y160993D01*
X50993Y161248D01*
D02*
G37*
G36*
X64748Y157000D02*
X61000D01*
Y153252D01*
X61059D01*
X62140Y153542D01*
X63108Y154101D01*
X63899Y154892D01*
X64459Y155860D01*
X64748Y156941D01*
Y157000D01*
D02*
G37*
G36*
X60000D02*
X56252D01*
Y156941D01*
X56542Y155860D01*
X57101Y154892D01*
X57892Y154101D01*
X58860Y153542D01*
X59941Y153252D01*
X60000D01*
Y157000D01*
D02*
G37*
G36*
X23298Y154500D02*
X22702D01*
X22150Y154272D01*
X21728Y153850D01*
X21500Y153298D01*
Y152702D01*
X21728Y152150D01*
X22150Y151728D01*
X22702Y151500D01*
X23298D01*
X23850Y151728D01*
X24272Y152150D01*
X24500Y152702D01*
Y153298D01*
X24272Y153850D01*
X23850Y154272D01*
X23298Y154500D01*
D02*
G37*
G36*
X276798Y152032D02*
X276202D01*
X275650Y151803D01*
X275250Y151403D01*
X274850Y151803D01*
X274298Y152032D01*
X273702D01*
X273150Y151803D01*
X273018Y151671D01*
X272500Y151470D01*
X271982Y151671D01*
X271850Y151803D01*
X271298Y152032D01*
X270702D01*
X270150Y151803D01*
X269728Y151381D01*
X269500Y150830D01*
Y150233D01*
X269728Y149682D01*
X270150Y149260D01*
X270702Y149031D01*
X271298D01*
X271850Y149260D01*
X271982Y149392D01*
X272500Y149593D01*
X273018Y149392D01*
X273150Y149260D01*
X273702Y149031D01*
X274298D01*
X274850Y149260D01*
X275250Y149660D01*
X275650Y149260D01*
X276202Y149031D01*
X276425D01*
X276985Y148349D01*
X277000Y148292D01*
Y147733D01*
X277228Y147182D01*
X277650Y146760D01*
X278202Y146531D01*
X278798D01*
X279350Y146760D01*
X279772Y147182D01*
X280000Y147733D01*
Y148330D01*
X279772Y148881D01*
X279350Y149303D01*
X278798Y149531D01*
X278575D01*
X278015Y150215D01*
X278000Y150271D01*
Y150830D01*
X277772Y151381D01*
X277350Y151803D01*
X276798Y152032D01*
D02*
G37*
G36*
X61059Y151748D02*
X61000D01*
Y148000D01*
X64748D01*
Y148059D01*
X64459Y149140D01*
X63899Y150108D01*
X63108Y150899D01*
X62140Y151459D01*
X61059Y151748D01*
D02*
G37*
G36*
X60000D02*
X59941D01*
X58860Y151459D01*
X57892Y150899D01*
X57101Y150108D01*
X56542Y149140D01*
X56252Y148059D01*
Y148000D01*
X60000D01*
Y151748D01*
D02*
G37*
G36*
X282798Y150531D02*
X282202D01*
X281650Y150303D01*
X281228Y149881D01*
X281000Y149330D01*
Y148733D01*
X281228Y148182D01*
X281650Y147760D01*
X282202Y147531D01*
X282798D01*
X283350Y147760D01*
X283772Y148182D01*
X284000Y148733D01*
Y149330D01*
X283772Y149881D01*
X283350Y150303D01*
X282798Y150531D01*
D02*
G37*
G36*
X505444Y155961D02*
X504146D01*
X502893Y155625D01*
X501769Y154976D01*
X500851Y154058D01*
X500202Y152934D01*
X499866Y151680D01*
Y150383D01*
X500202Y149129D01*
X500851Y148005D01*
X501769Y147087D01*
X502893Y146438D01*
X504146Y146102D01*
X505444D01*
X506698Y146438D01*
X507822Y147087D01*
X508740Y148005D01*
X509388Y149129D01*
X509724Y150383D01*
Y151680D01*
X509388Y152934D01*
X508740Y154058D01*
X507822Y154976D01*
X506698Y155625D01*
X505444Y155961D01*
D02*
G37*
G36*
X479854D02*
X478556D01*
X477302Y155625D01*
X476178Y154976D01*
X475260Y154058D01*
X474612Y152934D01*
X474276Y151680D01*
Y150383D01*
X474612Y149129D01*
X475260Y148005D01*
X476178Y147087D01*
X477302Y146438D01*
X478556Y146102D01*
X479854D01*
X481107Y146438D01*
X482231Y147087D01*
X483149Y148005D01*
X483798Y149129D01*
X484134Y150383D01*
Y151680D01*
X483798Y152934D01*
X483149Y154058D01*
X482231Y154976D01*
X481107Y155625D01*
X479854Y155961D01*
D02*
G37*
G36*
X299798Y150531D02*
X299202D01*
X298650Y150303D01*
X298228Y149881D01*
X298000Y149330D01*
Y148733D01*
X297702Y148031D01*
X297150Y147803D01*
X296728Y147381D01*
X296500Y146830D01*
Y146233D01*
X296728Y145682D01*
X297150Y145260D01*
X297702Y145031D01*
X298298D01*
X298850Y145260D01*
X299272Y145682D01*
X299500Y146233D01*
Y146830D01*
X299798Y147531D01*
X300350Y147760D01*
X300772Y148182D01*
X301000Y148733D01*
Y149330D01*
X300772Y149881D01*
X300350Y150303D01*
X299798Y150531D01*
D02*
G37*
G36*
X50993Y151248D02*
X50007D01*
X49053Y150993D01*
X48199Y150499D01*
X47501Y149801D01*
X47007Y148947D01*
X46752Y147993D01*
Y147007D01*
X47007Y146053D01*
X47501Y145199D01*
X48199Y144501D01*
X49053Y144007D01*
X50007Y143752D01*
X50993D01*
X51947Y144007D01*
X52801Y144501D01*
X53499Y145199D01*
X53993Y146053D01*
X54248Y147007D01*
Y147993D01*
X53993Y148947D01*
X53499Y149801D01*
X52801Y150499D01*
X51947Y150993D01*
X50993Y151248D01*
D02*
G37*
G36*
X64748Y147000D02*
X61000D01*
Y143252D01*
X61059D01*
X62140Y143542D01*
X63108Y144101D01*
X63899Y144892D01*
X64459Y145860D01*
X64748Y146941D01*
Y147000D01*
D02*
G37*
G36*
X60000D02*
X56252D01*
Y146941D01*
X56542Y145860D01*
X57101Y144892D01*
X57892Y144101D01*
X58860Y143542D01*
X59941Y143252D01*
X60000D01*
Y147000D01*
D02*
G37*
G36*
X61059Y141748D02*
X61000D01*
Y138000D01*
X64748D01*
Y138059D01*
X64459Y139140D01*
X63899Y140108D01*
X63108Y140899D01*
X62140Y141458D01*
X61059Y141748D01*
D02*
G37*
G36*
X60000D02*
X59941D01*
X58860Y141458D01*
X57892Y140899D01*
X57101Y140108D01*
X56542Y139140D01*
X56252Y138059D01*
Y138000D01*
X60000D01*
Y141748D01*
D02*
G37*
G36*
X276798Y140532D02*
X276202D01*
X275650Y140303D01*
X275228Y139881D01*
X275000Y139330D01*
Y138733D01*
X275228Y138182D01*
X275650Y137760D01*
X276202Y137531D01*
X276798D01*
X277350Y137760D01*
X277772Y138182D01*
X278000Y138733D01*
Y139330D01*
X277772Y139881D01*
X277350Y140303D01*
X276798Y140532D01*
D02*
G37*
G36*
X303642Y142813D02*
X296358D01*
X296205Y142750D01*
X296142Y142596D01*
Y137282D01*
X296205Y137128D01*
X296358Y137065D01*
X303642D01*
X303795Y137128D01*
X303858Y137282D01*
Y142596D01*
X303795Y142750D01*
X303642Y142813D01*
D02*
G37*
G36*
X307798Y140532D02*
X307202D01*
X306650Y140303D01*
X306228Y139881D01*
X306000Y139330D01*
Y138733D01*
X306228Y138182D01*
X306650Y137760D01*
X307202Y137531D01*
X307761D01*
X307817Y137516D01*
X308500Y136956D01*
Y136733D01*
X308728Y136182D01*
X309150Y135760D01*
X309702Y135531D01*
X310298D01*
X310850Y135760D01*
X311272Y136182D01*
X311500Y136733D01*
Y137330D01*
X311272Y137881D01*
X310850Y138303D01*
X310298Y138531D01*
X309739D01*
X309683Y138547D01*
X309000Y139107D01*
Y139330D01*
X308772Y139881D01*
X308350Y140303D01*
X307798Y140532D01*
D02*
G37*
G36*
X479919Y138744D02*
X479705D01*
Y133815D01*
X484634D01*
Y134030D01*
X484264Y135410D01*
X483549Y136648D01*
X482538Y137659D01*
X481300Y138374D01*
X479919Y138744D01*
D02*
G37*
G36*
X478705D02*
X478490D01*
X477109Y138374D01*
X475871Y137659D01*
X474860Y136648D01*
X474146Y135410D01*
X473776Y134030D01*
Y133815D01*
X478705D01*
Y138744D01*
D02*
G37*
G36*
X50993Y141248D02*
X50007D01*
X49053Y140993D01*
X48199Y140499D01*
X47501Y139801D01*
X47007Y138947D01*
X46752Y137993D01*
Y137007D01*
X47007Y136053D01*
X47501Y135199D01*
X48199Y134501D01*
X49053Y134007D01*
X50007Y133752D01*
X50993D01*
X51947Y134007D01*
X52801Y134501D01*
X53499Y135199D01*
X53993Y136053D01*
X54248Y137007D01*
Y137993D01*
X53993Y138947D01*
X53499Y139801D01*
X52801Y140499D01*
X51947Y140993D01*
X50993Y141248D01*
D02*
G37*
G36*
X64748Y137000D02*
X61000D01*
Y133252D01*
X61059D01*
X62140Y133542D01*
X63108Y134101D01*
X63899Y134892D01*
X64459Y135860D01*
X64748Y136941D01*
Y137000D01*
D02*
G37*
G36*
X60000D02*
X56252D01*
Y136941D01*
X56542Y135860D01*
X57101Y134892D01*
X57892Y134101D01*
X58860Y133542D01*
X59941Y133252D01*
X60000D01*
Y137000D01*
D02*
G37*
G36*
X505444Y138244D02*
X504146D01*
X502893Y137908D01*
X501769Y137259D01*
X500851Y136342D01*
X500202Y135217D01*
X499866Y133964D01*
Y132666D01*
X500202Y131412D01*
X500851Y130288D01*
X501769Y129371D01*
X502893Y128722D01*
X504146Y128386D01*
X505444D01*
X506698Y128722D01*
X507822Y129371D01*
X508740Y130288D01*
X509388Y131412D01*
X509724Y132666D01*
Y133964D01*
X509388Y135217D01*
X508740Y136342D01*
X507822Y137259D01*
X506698Y137908D01*
X505444Y138244D01*
D02*
G37*
G36*
X61059Y131748D02*
X61000D01*
Y128000D01*
X64748D01*
Y128059D01*
X64459Y129140D01*
X63899Y130108D01*
X63108Y130899D01*
X62140Y131458D01*
X61059Y131748D01*
D02*
G37*
G36*
X60000D02*
X59941D01*
X58860Y131458D01*
X57892Y130899D01*
X57101Y130108D01*
X56542Y129140D01*
X56252Y128059D01*
Y128000D01*
X60000D01*
Y131748D01*
D02*
G37*
G36*
X484634Y132815D02*
X479705D01*
Y127886D01*
X479919D01*
X481300Y128256D01*
X482538Y128971D01*
X483549Y129981D01*
X484264Y131219D01*
X484634Y132600D01*
Y132815D01*
D02*
G37*
G36*
X478705D02*
X473776D01*
Y132600D01*
X474146Y131219D01*
X474860Y129981D01*
X475871Y128971D01*
X477109Y128256D01*
X478490Y127886D01*
X478705D01*
Y132815D01*
D02*
G37*
G36*
X125752Y134327D02*
X124839D01*
X123957Y134090D01*
X123166Y133634D01*
X122520Y132988D01*
X122063Y132197D01*
X121827Y131315D01*
Y130402D01*
X122063Y129519D01*
X122520Y128729D01*
X123166Y128083D01*
X123957Y127626D01*
X124839Y127390D01*
X125752D01*
X126634Y127626D01*
X127425Y128083D01*
X128071Y128729D01*
X128527Y129519D01*
X128764Y130402D01*
Y131315D01*
X128527Y132197D01*
X128071Y132988D01*
X127425Y133634D01*
X126634Y134090D01*
X125752Y134327D01*
D02*
G37*
G36*
X100161D02*
X99248D01*
X98366Y134090D01*
X97575Y133634D01*
X96929Y132988D01*
X96473Y132197D01*
X96236Y131315D01*
Y130402D01*
X96473Y129519D01*
X96929Y128729D01*
X97575Y128083D01*
X98366Y127626D01*
X99248Y127390D01*
X100161D01*
X101043Y127626D01*
X101834Y128083D01*
X102480Y128729D01*
X102937Y129519D01*
X103173Y130402D01*
Y131315D01*
X102937Y132197D01*
X102480Y132988D01*
X101834Y133634D01*
X101043Y134090D01*
X100161Y134327D01*
D02*
G37*
G36*
X50993Y131248D02*
X50007D01*
X49053Y130993D01*
X48199Y130499D01*
X47501Y129801D01*
X47007Y128947D01*
X46752Y127993D01*
Y127007D01*
X47007Y126053D01*
X47501Y125199D01*
X48199Y124501D01*
X49053Y124007D01*
X50007Y123752D01*
X50993D01*
X51947Y124007D01*
X52801Y124501D01*
X53499Y125199D01*
X53993Y126053D01*
X54248Y127007D01*
Y127993D01*
X53993Y128947D01*
X53499Y129801D01*
X52801Y130499D01*
X51947Y130993D01*
X50993Y131248D01*
D02*
G37*
G36*
X64748Y127000D02*
X61000D01*
Y123252D01*
X61059D01*
X62140Y123541D01*
X63108Y124101D01*
X63899Y124892D01*
X64459Y125860D01*
X64748Y126941D01*
Y127000D01*
D02*
G37*
G36*
X60000D02*
X56252D01*
Y126941D01*
X56542Y125860D01*
X57101Y124892D01*
X57892Y124101D01*
X58860Y123541D01*
X59941Y123252D01*
X60000D01*
Y127000D01*
D02*
G37*
G36*
X125818Y117110D02*
X125795D01*
Y113642D01*
X129264D01*
Y113664D01*
X128993Y114673D01*
X128471Y115578D01*
X127732Y116317D01*
X126827Y116840D01*
X125818Y117110D01*
D02*
G37*
G36*
X124795D02*
X124773D01*
X123764Y116840D01*
X122859Y116317D01*
X122120Y115578D01*
X121597Y114673D01*
X121327Y113664D01*
Y113642D01*
X124795D01*
Y117110D01*
D02*
G37*
G36*
X100161Y116610D02*
X99248D01*
X98366Y116374D01*
X97575Y115917D01*
X96929Y115271D01*
X96473Y114480D01*
X96236Y113598D01*
Y112685D01*
X96473Y111803D01*
X96929Y111012D01*
X97575Y110366D01*
X98366Y109910D01*
X99248Y109673D01*
X100161D01*
X101043Y109910D01*
X101834Y110366D01*
X102480Y111012D01*
X102937Y111803D01*
X103173Y112685D01*
Y113598D01*
X102937Y114480D01*
X102480Y115271D01*
X101834Y115917D01*
X101043Y116374D01*
X100161Y116610D01*
D02*
G37*
G36*
X129264Y112642D02*
X125795D01*
Y109173D01*
X125818D01*
X126827Y109444D01*
X127732Y109966D01*
X128471Y110705D01*
X128993Y111610D01*
X129264Y112619D01*
Y112642D01*
D02*
G37*
G36*
X124795D02*
X121327D01*
Y112619D01*
X121597Y111610D01*
X122120Y110705D01*
X122859Y109966D01*
X123764Y109444D01*
X124773Y109173D01*
X124795D01*
Y112642D01*
D02*
G37*
G36*
X349398Y103032D02*
X348602D01*
X347867Y102727D01*
X347305Y102164D01*
X347000Y101429D01*
Y100634D01*
X347305Y99899D01*
X347867Y99336D01*
X348602Y99032D01*
X349398D01*
X350133Y99336D01*
X350695Y99899D01*
X351000Y100634D01*
Y101429D01*
X350695Y102164D01*
X350133Y102727D01*
X349398Y103032D01*
D02*
G37*
G36*
X305398D02*
X304602D01*
X303867Y102727D01*
X303305Y102164D01*
X303000Y101429D01*
Y100634D01*
X303305Y99899D01*
X303867Y99336D01*
X304602Y99032D01*
X305398D01*
X306133Y99336D01*
X306696Y99899D01*
X307000Y100634D01*
Y101429D01*
X306696Y102164D01*
X306133Y102727D01*
X305398Y103032D01*
D02*
G37*
G36*
X267398D02*
X266602D01*
X265867Y102727D01*
X265304Y102164D01*
X265000Y101429D01*
Y100634D01*
X265304Y99899D01*
X265867Y99336D01*
X266602Y99032D01*
X267398D01*
X268133Y99336D01*
X268695Y99899D01*
X269000Y100634D01*
Y101429D01*
X268695Y102164D01*
X268133Y102727D01*
X267398Y103032D01*
D02*
G37*
G36*
X469997Y68532D02*
X469003D01*
X468084Y68151D01*
X467381Y67448D01*
X467000Y66529D01*
Y65534D01*
X467381Y64615D01*
X468084Y63912D01*
X469003Y63532D01*
X469997D01*
X470916Y63912D01*
X471619Y64615D01*
X472000Y65534D01*
Y66529D01*
X471619Y67448D01*
X470916Y68151D01*
X469997Y68532D01*
D02*
G37*
G36*
X120527Y63000D02*
X120500D01*
Y59500D01*
X124000D01*
Y59527D01*
X123727Y60544D01*
X123201Y61456D01*
X122456Y62201D01*
X121544Y62727D01*
X120527Y63000D01*
D02*
G37*
G36*
X119500D02*
X119473D01*
X118456Y62727D01*
X117544Y62201D01*
X116799Y61456D01*
X116273Y60544D01*
X116000Y59527D01*
Y59500D01*
X119500D01*
Y63000D01*
D02*
G37*
G36*
X219664Y71610D02*
X218336D01*
X217034Y71351D01*
X215807Y70843D01*
X214703Y70105D01*
X213765Y69167D01*
X213027Y68063D01*
X212519Y66836D01*
X212260Y65534D01*
Y64206D01*
X212519Y62904D01*
X213027Y61677D01*
X213765Y60574D01*
X214703Y59635D01*
X215807Y58897D01*
X217034Y58389D01*
X218336Y58130D01*
X219664D01*
X220966Y58389D01*
X222193Y58897D01*
X223297Y59635D01*
X224235Y60574D01*
X224973Y61677D01*
X225481Y62904D01*
X225740Y64206D01*
Y65534D01*
X225481Y66836D01*
X224973Y68063D01*
X224235Y69167D01*
X223297Y70105D01*
X222193Y70843D01*
X220966Y71351D01*
X219664Y71610D01*
D02*
G37*
G36*
X381282Y71453D02*
X379954D01*
X378652Y71194D01*
X377426Y70686D01*
X376322Y69948D01*
X375383Y69009D01*
X374645Y67905D01*
X374137Y66679D01*
X373878Y65376D01*
Y64049D01*
X374137Y62747D01*
X374645Y61520D01*
X375383Y60416D01*
X376322Y59477D01*
X377426Y58740D01*
X378652Y58232D01*
X379954Y57973D01*
X381282D01*
X382584Y58232D01*
X383811Y58740D01*
X384915Y59477D01*
X385854Y60416D01*
X386591Y61520D01*
X387099Y62747D01*
X387358Y64049D01*
Y65376D01*
X387099Y66679D01*
X386591Y67905D01*
X385854Y69009D01*
X384915Y69948D01*
X383811Y70686D01*
X382584Y71194D01*
X381282Y71453D01*
D02*
G37*
G36*
X150801Y72161D02*
X149365D01*
X147956Y71881D01*
X146629Y71332D01*
X145435Y70534D01*
X144419Y69518D01*
X143621Y68324D01*
X143071Y66997D01*
X142791Y65588D01*
Y64152D01*
X143071Y62743D01*
X143621Y61416D01*
X144419Y60222D01*
X145435Y59206D01*
X146629Y58409D01*
X147956Y57859D01*
X149365Y57579D01*
X150801D01*
X152209Y57859D01*
X153536Y58409D01*
X154731Y59206D01*
X155746Y60222D01*
X156544Y61416D01*
X157094Y62743D01*
X157374Y64152D01*
Y65588D01*
X157094Y66997D01*
X156544Y68324D01*
X155746Y69518D01*
X154731Y70534D01*
X153536Y71332D01*
X152209Y71881D01*
X150801Y72161D01*
D02*
G37*
G36*
X312419Y72004D02*
X310983D01*
X309574Y71724D01*
X308247Y71174D01*
X307053Y70376D01*
X306037Y69361D01*
X305239Y68166D01*
X304690Y66839D01*
X304410Y65431D01*
Y63994D01*
X304690Y62586D01*
X305239Y61259D01*
X306037Y60065D01*
X307053Y59049D01*
X308247Y58251D01*
X309574Y57701D01*
X310983Y57421D01*
X312419D01*
X313828Y57701D01*
X315155Y58251D01*
X316349Y59049D01*
X317364Y60065D01*
X318162Y61259D01*
X318712Y62586D01*
X318992Y63994D01*
Y65431D01*
X318712Y66839D01*
X318162Y68166D01*
X317364Y69361D01*
X316349Y70376D01*
X315155Y71174D01*
X313828Y71724D01*
X312419Y72004D01*
D02*
G37*
G36*
X110461Y62500D02*
X109539D01*
X108649Y62261D01*
X107851Y61801D01*
X107199Y61149D01*
X106738Y60351D01*
X106500Y59461D01*
Y58539D01*
X106738Y57649D01*
X107199Y56851D01*
X107851Y56199D01*
X108649Y55739D01*
X109539Y55500D01*
X110461D01*
X111351Y55739D01*
X112149Y56199D01*
X112801Y56851D01*
X113261Y57649D01*
X113500Y58539D01*
Y59461D01*
X113261Y60351D01*
X112801Y61149D01*
X112149Y61801D01*
X111351Y62261D01*
X110461Y62500D01*
D02*
G37*
G36*
X100461D02*
X99539D01*
X98649Y62261D01*
X97851Y61801D01*
X97199Y61149D01*
X96738Y60351D01*
X96500Y59461D01*
Y58539D01*
X96738Y57649D01*
X97199Y56851D01*
X97851Y56199D01*
X98649Y55739D01*
X99539Y55500D01*
X100461D01*
X101351Y55739D01*
X102149Y56199D01*
X102801Y56851D01*
X103261Y57649D01*
X103500Y58539D01*
Y59461D01*
X103261Y60351D01*
X102801Y61149D01*
X102149Y61801D01*
X101351Y62261D01*
X100461Y62500D01*
D02*
G37*
G36*
X124000Y58500D02*
X120500D01*
Y55000D01*
X120527D01*
X121544Y55273D01*
X122456Y55799D01*
X123201Y56544D01*
X123727Y57456D01*
X124000Y58473D01*
Y58500D01*
D02*
G37*
G36*
X119500D02*
X116000D01*
Y58473D01*
X116273Y57456D01*
X116799Y56544D01*
X117544Y55799D01*
X118456Y55273D01*
X119473Y55000D01*
X119500D01*
Y58500D01*
D02*
G37*
G36*
X494798Y27531D02*
X494202D01*
X493650Y27303D01*
X493228Y26881D01*
X493000Y26330D01*
Y25733D01*
X493228Y25182D01*
X493650Y24760D01*
X494202Y24532D01*
X494798D01*
X495350Y24760D01*
X495772Y25182D01*
X496000Y25733D01*
Y26330D01*
X495772Y26881D01*
X495350Y27303D01*
X494798Y27531D01*
D02*
G37*
G36*
X504798Y10500D02*
X504202D01*
X503650Y10272D01*
X503250Y9871D01*
X502850Y10272D01*
X502298Y10500D01*
X501702D01*
X501150Y10272D01*
X500728Y9850D01*
X500500Y9298D01*
Y8702D01*
X500728Y8150D01*
X501150Y7728D01*
X501702Y7500D01*
X502298D01*
X502850Y7728D01*
X503250Y8129D01*
X503650Y7728D01*
X504202Y7500D01*
X504798D01*
X505350Y7728D01*
X505772Y8150D01*
X506000Y8702D01*
Y9298D01*
X505772Y9850D01*
X505350Y10272D01*
X504798Y10500D01*
D02*
G37*
G36*
X492798Y12500D02*
X492202D01*
X491650Y12272D01*
X491228Y11850D01*
X491000Y11298D01*
Y10702D01*
X491228Y10150D01*
X491650Y9728D01*
X492202Y9500D01*
X492261D01*
X492842Y9342D01*
X493000Y8761D01*
Y8702D01*
X493228Y8150D01*
X493650Y7728D01*
X494202Y7500D01*
X494798D01*
X495350Y7728D01*
X495750Y8129D01*
X496150Y7728D01*
X496702Y7500D01*
X497298D01*
X497850Y7728D01*
X498272Y8150D01*
X498500Y8702D01*
Y9298D01*
X498272Y9850D01*
X497850Y10272D01*
X497298Y10500D01*
X496702D01*
X496150Y10272D01*
X495750Y9871D01*
X495350Y10272D01*
X494798Y10500D01*
X494739D01*
X494158Y10658D01*
X494000Y11239D01*
Y11298D01*
X493772Y11850D01*
X493350Y12272D01*
X492798Y12500D01*
D02*
G37*
%LPD*%
D57*
X75000Y294000D02*
D03*
X20000Y116750D02*
D03*
Y226750D02*
D03*
X75000Y79000D02*
D03*
X552500Y214000D02*
D03*
Y149000D02*
D03*
D59*
X542500Y319000D02*
D03*
Y39000D02*
D03*
D72*
X125295Y113142D02*
D03*
X99705D02*
D03*
X125295Y130858D02*
D03*
X99705D02*
D03*
D74*
X479205Y168748D02*
D03*
Y133315D02*
D03*
X504795D02*
D03*
Y168748D02*
D03*
X479205Y151031D02*
D03*
X504795D02*
D03*
D75*
X287917Y282193D02*
D03*
X150083Y64870D02*
D03*
X311701Y64713D02*
D03*
X449535Y282035D02*
D03*
D76*
X219000Y282193D02*
D03*
Y64870D02*
D03*
X380618Y64713D02*
D03*
Y282035D02*
D03*
D77*
X150083Y314555D02*
D03*
X311701Y314398D02*
D03*
D78*
X484500Y328031D02*
D03*
X494500D02*
D03*
D79*
X60500Y127500D02*
D03*
X50500D02*
D03*
X60500Y137500D02*
D03*
X50500D02*
D03*
X60500Y147500D02*
D03*
X50500D02*
D03*
X60500Y157500D02*
D03*
X50500D02*
D03*
X60500Y167500D02*
D03*
X50500D02*
D03*
X60500Y177500D02*
D03*
X50500D02*
D03*
X60500Y187500D02*
D03*
X50500D02*
D03*
Y197500D02*
D03*
X60500D02*
D03*
X50500Y207500D02*
D03*
X60500D02*
D03*
X50500Y217500D02*
D03*
X60500D02*
D03*
D80*
X309000Y147031D02*
D03*
X307000Y149031D02*
D03*
X311000Y158031D02*
D03*
X520000Y24000D02*
D03*
X522000Y12000D02*
D03*
X520000Y8000D02*
D03*
X516000Y24000D02*
D03*
X518000Y20000D02*
D03*
X516000Y8000D02*
D03*
X514000Y36000D02*
D03*
X512000Y24000D02*
D03*
X514000Y20000D02*
D03*
X512000Y8000D02*
D03*
X510000Y36000D02*
D03*
X506000D02*
D03*
X502000D02*
D03*
X498000D02*
D03*
X492000Y32000D02*
D03*
X494000Y20000D02*
D03*
X488000Y8000D02*
D03*
X484000D02*
D03*
X480000D02*
D03*
X476000D02*
D03*
X474000Y12000D02*
D03*
X472000Y8000D02*
D03*
X468000Y32000D02*
D03*
X470000Y12000D02*
D03*
X468000Y8000D02*
D03*
X464000Y32000D02*
D03*
X466000Y12000D02*
D03*
X464000Y8000D02*
D03*
X492500Y11000D02*
D03*
X504500Y9000D02*
D03*
X502000D02*
D03*
X497000D02*
D03*
X494500D02*
D03*
X326000Y152032D02*
D03*
X314000Y158031D02*
D03*
X320500Y182500D02*
D03*
X280000Y194000D02*
D03*
Y191500D02*
D03*
X202000Y36000D02*
D03*
X200000Y32000D02*
D03*
X202000Y28000D02*
D03*
X200000Y24000D02*
D03*
X202000Y20000D02*
D03*
X200000Y16000D02*
D03*
X202000Y12000D02*
D03*
X200000Y8000D02*
D03*
X198000Y36000D02*
D03*
X196000Y32000D02*
D03*
X198000Y28000D02*
D03*
X196000Y24000D02*
D03*
X198000Y20000D02*
D03*
X196000Y16000D02*
D03*
X198000Y12000D02*
D03*
X196000Y8000D02*
D03*
X194000Y36000D02*
D03*
X190000D02*
D03*
X186000D02*
D03*
X182000D02*
D03*
X178000D02*
D03*
X174000D02*
D03*
X170000D02*
D03*
X166000D02*
D03*
X164000Y32000D02*
D03*
X166000Y28000D02*
D03*
X164000Y24000D02*
D03*
X166000Y20000D02*
D03*
X164000Y16000D02*
D03*
X166000Y12000D02*
D03*
X164000Y8000D02*
D03*
X162000Y36000D02*
D03*
X160000Y32000D02*
D03*
X162000Y28000D02*
D03*
X160000Y24000D02*
D03*
X162000Y20000D02*
D03*
X160000Y16000D02*
D03*
X162000Y12000D02*
D03*
X160000Y8000D02*
D03*
X396000Y80000D02*
D03*
X392000Y72000D02*
D03*
X396000Y64000D02*
D03*
X392000Y56000D02*
D03*
X396000Y48000D02*
D03*
X392000Y40000D02*
D03*
X396000Y32000D02*
D03*
Y16000D02*
D03*
X392000Y8000D02*
D03*
X388000Y80000D02*
D03*
X384000Y72000D02*
D03*
Y56000D02*
D03*
X388000Y48000D02*
D03*
X384000Y24000D02*
D03*
X388000Y16000D02*
D03*
X384000Y8000D02*
D03*
X380000Y80000D02*
D03*
X376000Y72000D02*
D03*
Y56000D02*
D03*
X380000Y48000D02*
D03*
Y32000D02*
D03*
X376000Y24000D02*
D03*
X380000Y16000D02*
D03*
X376000Y8000D02*
D03*
X372000Y80000D02*
D03*
X368000Y72000D02*
D03*
X372000Y64000D02*
D03*
X368000Y56000D02*
D03*
Y40000D02*
D03*
X372000Y32000D02*
D03*
X368000Y24000D02*
D03*
X372000Y16000D02*
D03*
X368000Y8000D02*
D03*
X364000Y80000D02*
D03*
X360000Y72000D02*
D03*
X364000Y64000D02*
D03*
X360000Y56000D02*
D03*
Y40000D02*
D03*
X364000Y32000D02*
D03*
X360000Y24000D02*
D03*
X364000Y16000D02*
D03*
X360000Y8000D02*
D03*
X356000Y80000D02*
D03*
X352000Y72000D02*
D03*
X356000Y64000D02*
D03*
X352000Y56000D02*
D03*
Y40000D02*
D03*
X348000Y80000D02*
D03*
X344000Y72000D02*
D03*
X348000Y64000D02*
D03*
X344000Y56000D02*
D03*
Y40000D02*
D03*
X340000Y80000D02*
D03*
X336000Y72000D02*
D03*
X340000Y64000D02*
D03*
X336000Y56000D02*
D03*
Y40000D02*
D03*
X332000Y80000D02*
D03*
X328000Y72000D02*
D03*
X332000Y64000D02*
D03*
X328000Y56000D02*
D03*
Y40000D02*
D03*
Y24000D02*
D03*
Y8000D02*
D03*
X324000Y80000D02*
D03*
X320000Y72000D02*
D03*
X324000Y64000D02*
D03*
X320000Y56000D02*
D03*
Y40000D02*
D03*
X324000Y32000D02*
D03*
X320000Y24000D02*
D03*
X324000Y16000D02*
D03*
X320000Y8000D02*
D03*
X316000Y80000D02*
D03*
X312000Y56000D02*
D03*
Y40000D02*
D03*
X316000Y32000D02*
D03*
X312000Y24000D02*
D03*
X316000Y16000D02*
D03*
X312000Y8000D02*
D03*
X308000Y80000D02*
D03*
X304000Y72000D02*
D03*
Y56000D02*
D03*
Y40000D02*
D03*
X308000Y32000D02*
D03*
X304000Y24000D02*
D03*
X308000Y16000D02*
D03*
X304000Y8000D02*
D03*
X300000Y80000D02*
D03*
X296000Y72000D02*
D03*
X300000Y64000D02*
D03*
X296000Y56000D02*
D03*
Y40000D02*
D03*
X300000Y32000D02*
D03*
X296000Y24000D02*
D03*
X300000Y16000D02*
D03*
X296000Y8000D02*
D03*
X292000Y80000D02*
D03*
X288000Y72000D02*
D03*
X292000Y64000D02*
D03*
X288000Y56000D02*
D03*
Y40000D02*
D03*
X292000Y32000D02*
D03*
X288000Y24000D02*
D03*
X292000Y16000D02*
D03*
X288000Y8000D02*
D03*
X12500Y183500D02*
D03*
X306288Y203343D02*
D03*
X311000Y203281D02*
D03*
X303541D02*
D03*
X218000Y181500D02*
D03*
X229515Y181485D02*
D03*
X260500Y181500D02*
D03*
X280500D02*
D03*
X10000Y177000D02*
D03*
X286000Y129532D02*
D03*
X23000Y153000D02*
D03*
X278500Y148031D02*
D03*
X271000Y150531D02*
D03*
X274000D02*
D03*
X276500D02*
D03*
X282500Y149031D02*
D03*
X132095Y204095D02*
D03*
X296500Y218500D02*
D03*
X306500Y222000D02*
D03*
X310000Y224500D02*
D03*
X303500Y227000D02*
D03*
X293000Y229000D02*
D03*
X296500Y203281D02*
D03*
X293066Y203216D02*
D03*
X501500Y78531D02*
D03*
Y104532D02*
D03*
Y92032D02*
D03*
X468500Y87032D02*
D03*
Y95031D02*
D03*
X461000Y91031D02*
D03*
X461500Y114532D02*
D03*
Y67532D02*
D03*
X517000Y34532D02*
D03*
X520500D02*
D03*
X472000Y41032D02*
D03*
X467000Y35531D02*
D03*
X472000Y30031D02*
D03*
X462000Y172031D02*
D03*
Y156032D02*
D03*
X479500Y267531D02*
D03*
X475500Y262531D02*
D03*
X497000Y306031D02*
D03*
X493500Y308032D02*
D03*
X490500D02*
D03*
X487500D02*
D03*
X484000Y306031D02*
D03*
X480000Y290032D02*
D03*
X500500Y291531D02*
D03*
X515000Y284032D02*
D03*
X510500D02*
D03*
X506500D02*
D03*
X502000D02*
D03*
X478500Y278031D02*
D03*
X474500D02*
D03*
X481500Y285531D02*
D03*
X345000Y158031D02*
D03*
X341000D02*
D03*
X345000Y164032D02*
D03*
X341000D02*
D03*
X341500Y175531D02*
D03*
X335500D02*
D03*
Y180032D02*
D03*
X341500Y180532D02*
D03*
X345000Y186031D02*
D03*
X341500Y192032D02*
D03*
X333000Y192532D02*
D03*
Y197031D02*
D03*
X280000Y189032D02*
D03*
X274500Y193032D02*
D03*
X261500Y189032D02*
D03*
X267000Y193032D02*
D03*
X274000Y172531D02*
D03*
X271000D02*
D03*
X268000D02*
D03*
X265500D02*
D03*
X290000Y124531D02*
D03*
X313000Y116032D02*
D03*
X317000Y129532D02*
D03*
Y122031D02*
D03*
X286000Y133031D02*
D03*
X332500Y135031D02*
D03*
X322000D02*
D03*
X317500D02*
D03*
X313000D02*
D03*
X279000Y141532D02*
D03*
X286000Y139032D02*
D03*
X289000D02*
D03*
X292000D02*
D03*
X330000Y158031D02*
D03*
X332500Y155032D02*
D03*
X337500Y143032D02*
D03*
X327500Y135031D02*
D03*
X295000Y156532D02*
D03*
Y153532D02*
D03*
X497500Y250532D02*
D03*
X488000Y280031D02*
D03*
X493500Y282031D02*
D03*
X475500Y252532D02*
D03*
X298000Y146531D02*
D03*
X276500Y139032D02*
D03*
X307500Y142032D02*
D03*
Y139032D02*
D03*
X310000Y137031D02*
D03*
X279000Y171031D02*
D03*
X281000Y174031D02*
D03*
X487000Y243531D02*
D03*
X326000Y161531D02*
D03*
X301500Y157531D02*
D03*
X299000D02*
D03*
X299500Y149031D02*
D03*
X302000Y133531D02*
D03*
X282500Y169032D02*
D03*
X278500Y157531D02*
D03*
X291758Y164774D02*
D03*
X494500Y26032D02*
D03*
D81*
X469500Y66031D02*
D03*
D82*
X321000Y204500D02*
D03*
X349000Y168032D02*
D03*
Y101031D02*
D03*
X305000D02*
D03*
X267000D02*
D03*
D83*
X97500Y319000D02*
D03*
Y94000D02*
D03*
D84*
X100000Y59000D02*
D03*
X110000D02*
D03*
X120000D02*
D03*
M02*
