G04*
G04 #@! TF.GenerationSoftware,Altium Limited,Altium Designer,25.2.1 (25)*
G04*
G04 Layer_Color=128*
%FSLAX25Y25*%
%MOIN*%
G70*
G04*
G04 #@! TF.SameCoordinates,85CC1250-A9D5-4C62-828A-8F390AD69E0A*
G04*
G04*
G04 #@! TF.FilePolarity,Positive*
G04*
G01*
G75*
%ADD26R,0.04700X0.04000*%
%ADD32R,0.05787X0.02441*%
%ADD33R,0.02441X0.05787*%
%ADD34R,0.04000X0.04700*%
%ADD90R,0.03150X0.00984*%
G04:AMPARAMS|DCode=91|XSize=31.5mil|YSize=9.84mil|CornerRadius=1.97mil|HoleSize=0mil|Usage=FLASHONLY|Rotation=180.000|XOffset=0mil|YOffset=0mil|HoleType=Round|Shape=RoundedRectangle|*
%AMROUNDEDRECTD91*
21,1,0.03150,0.00591,0,0,180.0*
21,1,0.02756,0.00984,0,0,180.0*
1,1,0.00394,-0.01378,0.00295*
1,1,0.00394,0.01378,0.00295*
1,1,0.00394,0.01378,-0.00295*
1,1,0.00394,-0.01378,-0.00295*
%
%ADD91ROUNDEDRECTD91*%
G04:AMPARAMS|DCode=92|XSize=11.81mil|YSize=21.65mil|CornerRadius=1.95mil|HoleSize=0mil|Usage=FLASHONLY|Rotation=180.000|XOffset=0mil|YOffset=0mil|HoleType=Round|Shape=RoundedRectangle|*
%AMROUNDEDRECTD92*
21,1,0.01181,0.01776,0,0,180.0*
21,1,0.00791,0.02165,0,0,180.0*
1,1,0.00390,-0.00396,0.00888*
1,1,0.00390,0.00396,0.00888*
1,1,0.00390,0.00396,-0.00888*
1,1,0.00390,-0.00396,-0.00888*
%
%ADD92ROUNDEDRECTD92*%
%ADD93R,0.25000X0.28898*%
G36*
X487173Y30173D02*
X487181D01*
X487193Y30169D01*
X487201D01*
X487213Y30165D01*
X487220Y30161D01*
X487232Y30158D01*
X487240Y30150D01*
X487248Y30146D01*
X487256Y30138D01*
X487264Y30134D01*
X487272Y30126D01*
X487280Y30118D01*
X487287Y30110D01*
X487295Y30102D01*
X487299Y30095D01*
X487307Y30087D01*
X487311Y30079D01*
X487319Y30071D01*
X487323Y30059D01*
X487327Y30051D01*
X487331Y30039D01*
Y30031D01*
X487335Y30020D01*
Y30012D01*
X487339Y30000D01*
Y29992D01*
Y29980D01*
Y29193D01*
Y29173D01*
X487343Y29154D01*
Y29130D01*
X487347Y29110D01*
X487350Y29091D01*
X487358Y29071D01*
X487366Y29051D01*
X487374Y29032D01*
X487382Y29016D01*
X487390Y28996D01*
X487402Y28980D01*
X487413Y28961D01*
X487425Y28945D01*
X487441Y28929D01*
X487453Y28913D01*
X487468Y28902D01*
X487484Y28886D01*
X487500Y28874D01*
X487520Y28862D01*
X487535Y28850D01*
X487555Y28842D01*
X487571Y28835D01*
X487591Y28827D01*
X487610Y28819D01*
X487630Y28811D01*
X487650Y28807D01*
X487669Y28803D01*
X487693D01*
X487713Y28799D01*
X490606D01*
X490618Y28795D01*
X490626D01*
X490638Y28791D01*
X490646D01*
X490658Y28787D01*
X490665Y28784D01*
X490677Y28780D01*
X490685Y28772D01*
X490693Y28768D01*
X490701Y28760D01*
X490709Y28756D01*
X490717Y28748D01*
X490724Y28740D01*
X490732Y28732D01*
X490740Y28724D01*
X490744Y28716D01*
X490752Y28709D01*
X490756Y28701D01*
X490764Y28693D01*
X490768Y28681D01*
X490772Y28673D01*
X490776Y28661D01*
Y28654D01*
X490779Y28642D01*
Y28634D01*
X490784Y28622D01*
Y28614D01*
Y28602D01*
Y28012D01*
Y28000D01*
Y27992D01*
X490779Y27980D01*
Y27972D01*
X490776Y27961D01*
Y27953D01*
X490772Y27941D01*
X490768Y27933D01*
X490764Y27921D01*
X490756Y27913D01*
X490752Y27905D01*
X490744Y27898D01*
X490740Y27890D01*
X490732Y27882D01*
X490724Y27874D01*
X490717Y27866D01*
X490709Y27858D01*
X490701Y27854D01*
X490693Y27847D01*
X490685Y27843D01*
X490677Y27835D01*
X490665Y27831D01*
X490658Y27827D01*
X490646Y27823D01*
X490638D01*
X490626Y27819D01*
X490618D01*
X490606Y27815D01*
X486138D01*
X486126Y27819D01*
X486118D01*
X486106Y27823D01*
X486098D01*
X486087Y27827D01*
X486079Y27831D01*
X486067Y27835D01*
X486059Y27843D01*
X486051Y27847D01*
X486043Y27854D01*
X486035Y27858D01*
X486028Y27866D01*
X486020Y27874D01*
X486012Y27882D01*
X486004Y27890D01*
X486000Y27898D01*
X485992Y27905D01*
X485988Y27913D01*
X485980Y27921D01*
X485976Y27933D01*
X485972Y27941D01*
X485968Y27953D01*
Y27961D01*
X485965Y27972D01*
Y27980D01*
X485961Y27992D01*
Y28000D01*
Y28012D01*
Y29980D01*
Y29992D01*
Y30000D01*
X485965Y30012D01*
Y30020D01*
X485968Y30031D01*
Y30039D01*
X485972Y30051D01*
X485976Y30059D01*
X485980Y30071D01*
X485988Y30079D01*
X485992Y30087D01*
X486000Y30095D01*
X486004Y30102D01*
X486012Y30110D01*
X486020Y30118D01*
X486028Y30126D01*
X486035Y30134D01*
X486043Y30138D01*
X486051Y30146D01*
X486059Y30150D01*
X486067Y30158D01*
X486079Y30161D01*
X486087Y30165D01*
X486098Y30169D01*
X486106D01*
X486118Y30173D01*
X486126D01*
X486138Y30177D01*
X487161D01*
X487173Y30173D01*
D02*
G37*
G36*
X480874D02*
X480882D01*
X480894Y30169D01*
X480902D01*
X480913Y30165D01*
X480921Y30161D01*
X480933Y30158D01*
X480941Y30150D01*
X480949Y30146D01*
X480957Y30138D01*
X480965Y30134D01*
X480972Y30126D01*
X480980Y30118D01*
X480988Y30110D01*
X480996Y30102D01*
X481000Y30095D01*
X481008Y30087D01*
X481012Y30079D01*
X481020Y30071D01*
X481024Y30059D01*
X481028Y30051D01*
X481032Y30039D01*
Y30031D01*
X481035Y30020D01*
Y30012D01*
X481039Y30000D01*
Y29992D01*
Y29980D01*
Y28012D01*
Y28000D01*
Y27992D01*
X481035Y27980D01*
Y27972D01*
X481032Y27961D01*
Y27953D01*
X481028Y27941D01*
X481024Y27933D01*
X481020Y27921D01*
X481012Y27913D01*
X481008Y27905D01*
X481000Y27898D01*
X480996Y27890D01*
X480988Y27882D01*
X480980Y27874D01*
X480972Y27866D01*
X480965Y27858D01*
X480957Y27854D01*
X480949Y27847D01*
X480941Y27843D01*
X480933Y27835D01*
X480921Y27831D01*
X480913Y27827D01*
X480902Y27823D01*
X480894D01*
X480882Y27819D01*
X480874D01*
X480862Y27815D01*
X476394D01*
X476382Y27819D01*
X476374D01*
X476362Y27823D01*
X476354D01*
X476342Y27827D01*
X476335Y27831D01*
X476323Y27835D01*
X476315Y27843D01*
X476307Y27847D01*
X476299Y27854D01*
X476291Y27858D01*
X476284Y27866D01*
X476276Y27874D01*
X476268Y27882D01*
X476260Y27890D01*
X476256Y27898D01*
X476248Y27905D01*
X476244Y27913D01*
X476236Y27921D01*
X476232Y27933D01*
X476228Y27941D01*
X476224Y27953D01*
Y27961D01*
X476221Y27972D01*
Y27980D01*
X476217Y27992D01*
Y28000D01*
Y28012D01*
Y28602D01*
Y28614D01*
Y28622D01*
X476221Y28634D01*
Y28642D01*
X476224Y28654D01*
Y28661D01*
X476228Y28673D01*
X476232Y28681D01*
X476236Y28693D01*
X476244Y28701D01*
X476248Y28709D01*
X476256Y28716D01*
X476260Y28724D01*
X476268Y28732D01*
X476276Y28740D01*
X476284Y28748D01*
X476291Y28756D01*
X476299Y28760D01*
X476307Y28768D01*
X476315Y28772D01*
X476323Y28780D01*
X476335Y28784D01*
X476342Y28787D01*
X476354Y28791D01*
X476362D01*
X476374Y28795D01*
X476382D01*
X476394Y28799D01*
X479287D01*
X479307Y28803D01*
X479331D01*
X479350Y28807D01*
X479370Y28811D01*
X479390Y28819D01*
X479410Y28827D01*
X479429Y28835D01*
X479445Y28842D01*
X479465Y28850D01*
X479480Y28862D01*
X479500Y28874D01*
X479516Y28886D01*
X479531Y28902D01*
X479547Y28913D01*
X479559Y28929D01*
X479575Y28945D01*
X479587Y28961D01*
X479598Y28980D01*
X479610Y28996D01*
X479618Y29016D01*
X479626Y29032D01*
X479634Y29051D01*
X479642Y29071D01*
X479650Y29091D01*
X479654Y29110D01*
X479658Y29130D01*
Y29154D01*
X479661Y29173D01*
Y29193D01*
Y29980D01*
Y29992D01*
Y30000D01*
X479665Y30012D01*
Y30020D01*
X479669Y30031D01*
Y30039D01*
X479673Y30051D01*
X479677Y30059D01*
X479681Y30071D01*
X479689Y30079D01*
X479693Y30087D01*
X479701Y30095D01*
X479705Y30102D01*
X479713Y30110D01*
X479720Y30118D01*
X479728Y30126D01*
X479736Y30134D01*
X479744Y30138D01*
X479752Y30146D01*
X479760Y30150D01*
X479768Y30158D01*
X479779Y30161D01*
X479787Y30165D01*
X479799Y30169D01*
X479807D01*
X479819Y30173D01*
X479827D01*
X479839Y30177D01*
X480862D01*
X480874Y30173D01*
D02*
G37*
G36*
X480776Y26827D02*
X480784D01*
X480795Y26823D01*
X480803D01*
X480815Y26819D01*
X480823Y26815D01*
X480835Y26811D01*
X480842Y26803D01*
X480850Y26799D01*
X480858Y26791D01*
X480866Y26787D01*
X480874Y26779D01*
X480882Y26772D01*
X480890Y26764D01*
X480898Y26756D01*
X480902Y26748D01*
X480909Y26740D01*
X480913Y26732D01*
X480921Y26724D01*
X480925Y26713D01*
X480929Y26705D01*
X480933Y26693D01*
Y26685D01*
X480937Y26673D01*
Y26665D01*
X480941Y26654D01*
Y26646D01*
Y26634D01*
Y24075D01*
Y24063D01*
Y24055D01*
X480937Y24043D01*
Y24035D01*
X480933Y24024D01*
Y24016D01*
X480929Y24004D01*
X480925Y23996D01*
X480921Y23984D01*
X480913Y23976D01*
X480909Y23968D01*
X480902Y23961D01*
X480898Y23953D01*
X480890Y23945D01*
X480882Y23937D01*
X480874Y23929D01*
X480866Y23921D01*
X480858Y23917D01*
X480850Y23910D01*
X480842Y23905D01*
X480835Y23898D01*
X480823Y23894D01*
X480815Y23890D01*
X480803Y23886D01*
X480795D01*
X480784Y23882D01*
X480776D01*
X480764Y23878D01*
X476394D01*
X476382Y23882D01*
X476374D01*
X476362Y23886D01*
X476354D01*
X476342Y23890D01*
X476335Y23894D01*
X476323Y23898D01*
X476315Y23905D01*
X476307Y23910D01*
X476299Y23917D01*
X476291Y23921D01*
X476284Y23929D01*
X476276Y23937D01*
X476268Y23945D01*
X476260Y23953D01*
X476256Y23961D01*
X476248Y23968D01*
X476244Y23976D01*
X476236Y23984D01*
X476232Y23996D01*
X476228Y24004D01*
X476224Y24016D01*
Y24024D01*
X476221Y24035D01*
Y24043D01*
X476217Y24055D01*
Y24063D01*
Y24075D01*
Y24665D01*
Y24677D01*
Y24685D01*
X476221Y24697D01*
Y24705D01*
X476224Y24716D01*
Y24724D01*
X476228Y24736D01*
X476232Y24744D01*
X476236Y24756D01*
X476244Y24764D01*
X476248Y24772D01*
X476256Y24780D01*
X476260Y24787D01*
X476268Y24795D01*
X476276Y24803D01*
X476284Y24811D01*
X476291Y24819D01*
X476299Y24823D01*
X476307Y24831D01*
X476315Y24835D01*
X476323Y24843D01*
X476335Y24847D01*
X476342Y24850D01*
X476354Y24854D01*
X476362D01*
X476374Y24858D01*
X476382D01*
X476394Y24862D01*
X477614D01*
X477626Y24866D01*
X477634D01*
X477646Y24870D01*
X477654D01*
X477665Y24874D01*
X477673Y24878D01*
X477685Y24882D01*
X477693Y24890D01*
X477701Y24894D01*
X477709Y24902D01*
X477716Y24905D01*
X477724Y24913D01*
X477732Y24921D01*
X477740Y24929D01*
X477748Y24937D01*
X477752Y24945D01*
X477760Y24953D01*
X477764Y24961D01*
X477772Y24969D01*
X477776Y24980D01*
X477779Y24988D01*
X477783Y25000D01*
Y25008D01*
X477787Y25020D01*
Y25028D01*
X477791Y25039D01*
Y25047D01*
Y25059D01*
Y25650D01*
Y25661D01*
Y25669D01*
X477787Y25681D01*
Y25689D01*
X477783Y25701D01*
Y25709D01*
X477779Y25721D01*
X477776Y25728D01*
X477772Y25740D01*
X477764Y25748D01*
X477760Y25756D01*
X477752Y25764D01*
X477748Y25772D01*
X477740Y25780D01*
X477732Y25787D01*
X477724Y25795D01*
X477716Y25803D01*
X477709Y25807D01*
X477701Y25815D01*
X477693Y25819D01*
X477685Y25827D01*
X477673Y25831D01*
X477665Y25835D01*
X477654Y25839D01*
X477646D01*
X477634Y25842D01*
X477626D01*
X477614Y25846D01*
X476394D01*
X476382Y25850D01*
X476374D01*
X476362Y25854D01*
X476354D01*
X476342Y25858D01*
X476335Y25862D01*
X476323Y25866D01*
X476315Y25874D01*
X476307Y25878D01*
X476299Y25886D01*
X476291Y25890D01*
X476284Y25898D01*
X476276Y25905D01*
X476268Y25913D01*
X476260Y25921D01*
X476256Y25929D01*
X476248Y25937D01*
X476244Y25945D01*
X476236Y25953D01*
X476232Y25965D01*
X476228Y25972D01*
X476224Y25984D01*
Y25992D01*
X476221Y26004D01*
Y26012D01*
X476217Y26024D01*
Y26032D01*
Y26043D01*
Y26634D01*
Y26646D01*
Y26654D01*
X476221Y26665D01*
Y26673D01*
X476224Y26685D01*
Y26693D01*
X476228Y26705D01*
X476232Y26713D01*
X476236Y26724D01*
X476244Y26732D01*
X476248Y26740D01*
X476256Y26748D01*
X476260Y26756D01*
X476268Y26764D01*
X476276Y26772D01*
X476284Y26779D01*
X476291Y26787D01*
X476299Y26791D01*
X476307Y26799D01*
X476315Y26803D01*
X476323Y26811D01*
X476335Y26815D01*
X476342Y26819D01*
X476354Y26823D01*
X476362D01*
X476374Y26827D01*
X476382D01*
X476394Y26831D01*
X480764D01*
X480776Y26827D01*
D02*
G37*
G36*
X490598Y22894D02*
X490618D01*
X490626Y22890D01*
X490638D01*
X490646Y22886D01*
X490658Y22882D01*
X490665Y22878D01*
X490677Y22874D01*
X490685Y22870D01*
X490693Y22862D01*
X490701Y22858D01*
X490709Y22850D01*
X490717Y22847D01*
X490724Y22839D01*
X490732Y22831D01*
X490740Y22823D01*
X490744Y22815D01*
X490752Y22807D01*
X490756Y22799D01*
X490764Y22787D01*
X490768Y22780D01*
X490772Y22768D01*
X490776Y22760D01*
Y22748D01*
X490779Y22740D01*
Y22728D01*
X490784Y22720D01*
Y22709D01*
Y22697D01*
Y22012D01*
Y22000D01*
Y21988D01*
X490779Y21980D01*
Y21969D01*
X490776Y21961D01*
Y21949D01*
X490772Y21941D01*
X490768Y21929D01*
X490764Y21921D01*
X490756Y21913D01*
X490752Y21902D01*
X490744Y21894D01*
X490740Y21886D01*
X490732Y21878D01*
X490724Y21870D01*
X490717Y21862D01*
X490709Y21858D01*
X490701Y21850D01*
X490693Y21847D01*
X490685Y21839D01*
X490677Y21835D01*
X490665Y21831D01*
X490658Y21827D01*
X490646Y21823D01*
X490638Y21819D01*
X490626D01*
X490618Y21815D01*
X485929D01*
X485921Y21819D01*
X485910D01*
X485902Y21823D01*
X485890Y21827D01*
X485882Y21831D01*
X485870Y21835D01*
X485862Y21839D01*
X485854Y21847D01*
X485847Y21850D01*
X485839Y21858D01*
X485831Y21862D01*
X485823Y21870D01*
X485815Y21878D01*
X485807Y21886D01*
X485803Y21894D01*
X485795Y21902D01*
X485791Y21913D01*
X485783Y21921D01*
X485779Y21929D01*
X485776Y21941D01*
X485772Y21949D01*
Y21961D01*
X485768Y21969D01*
Y21980D01*
X485764Y21988D01*
Y22000D01*
Y22010D01*
Y22012D01*
Y22697D01*
Y22709D01*
Y22720D01*
X485768Y22728D01*
Y22740D01*
X485772Y22748D01*
Y22760D01*
X485776Y22768D01*
X485779Y22780D01*
X485783Y22787D01*
X485791Y22799D01*
X485795Y22807D01*
X485803Y22815D01*
X485807Y22823D01*
X485815Y22831D01*
X485823Y22839D01*
X485831Y22847D01*
X485839Y22850D01*
X485847Y22858D01*
X485854Y22862D01*
X485862Y22870D01*
X485870Y22874D01*
X485882Y22878D01*
X485890Y22882D01*
X485902Y22886D01*
X485910Y22890D01*
X485921D01*
X485929Y22894D01*
X485949D01*
X485961Y22898D01*
X490587D01*
X490598Y22894D01*
D02*
G37*
G36*
X484811Y27024D02*
X484819D01*
X484831Y27020D01*
X484839D01*
X484850Y27016D01*
X484858Y27012D01*
X484870Y27008D01*
X484878Y27000D01*
X484886Y26996D01*
X484894Y26988D01*
X484902Y26984D01*
X484909Y26976D01*
X484917Y26969D01*
X484925Y26961D01*
X484933Y26953D01*
X484937Y26945D01*
X484945Y26937D01*
X484949Y26929D01*
X484957Y26921D01*
X484961Y26909D01*
X484965Y26902D01*
X484969Y26890D01*
Y26882D01*
X484972Y26870D01*
Y26862D01*
X484976Y26850D01*
Y26842D01*
Y26831D01*
Y22008D01*
Y21996D01*
Y21988D01*
X484972Y21976D01*
Y21969D01*
X484969Y21957D01*
Y21949D01*
X484965Y21937D01*
X484961Y21929D01*
X484957Y21917D01*
X484949Y21910D01*
X484945Y21902D01*
X484937Y21894D01*
X484933Y21886D01*
X484925Y21878D01*
X484917Y21870D01*
X484909Y21862D01*
X484902Y21854D01*
X484894Y21850D01*
X484886Y21843D01*
X484878Y21839D01*
X484870Y21831D01*
X484858Y21827D01*
X484850Y21823D01*
X484839Y21819D01*
X484831D01*
X484819Y21815D01*
X484811D01*
X484799Y21811D01*
X484169D01*
X484158Y21815D01*
X484150D01*
X484138Y21819D01*
X484130D01*
X484118Y21823D01*
X484110Y21827D01*
X484098Y21831D01*
X484091Y21839D01*
X484083Y21843D01*
X484075Y21850D01*
X484067Y21854D01*
X484059Y21862D01*
X484051Y21870D01*
X484043Y21878D01*
X484035Y21886D01*
X484031Y21894D01*
X484024Y21902D01*
X484020Y21910D01*
X484012Y21917D01*
X484008Y21929D01*
X484004Y21937D01*
X484000Y21949D01*
Y21957D01*
X483996Y21969D01*
Y21976D01*
X483992Y21988D01*
Y21996D01*
Y22008D01*
Y26831D01*
Y26842D01*
Y26850D01*
X483996Y26862D01*
Y26870D01*
X484000Y26882D01*
Y26890D01*
X484004Y26902D01*
X484008Y26909D01*
X484012Y26921D01*
X484020Y26929D01*
X484024Y26937D01*
X484031Y26945D01*
X484035Y26953D01*
X484043Y26961D01*
X484051Y26969D01*
X484059Y26976D01*
X484067Y26984D01*
X484075Y26988D01*
X484083Y26996D01*
X484091Y27000D01*
X484098Y27008D01*
X484110Y27012D01*
X484118Y27016D01*
X484130Y27020D01*
X484138D01*
X484150Y27024D01*
X484158D01*
X484169Y27028D01*
X484799D01*
X484811Y27024D01*
D02*
G37*
G36*
X490618Y18402D02*
X490626D01*
X490638Y18398D01*
X490646D01*
X490658Y18394D01*
X490665Y18390D01*
X490677Y18386D01*
X490685Y18378D01*
X490693Y18374D01*
X490701Y18366D01*
X490709Y18362D01*
X490717Y18354D01*
X490724Y18347D01*
X490732Y18339D01*
X490740Y18331D01*
X490744Y18323D01*
X490752Y18315D01*
X490756Y18307D01*
X490764Y18299D01*
X490768Y18287D01*
X490772Y18280D01*
X490776Y18268D01*
Y18260D01*
X490779Y18248D01*
Y18240D01*
X490784Y18228D01*
Y18221D01*
Y18209D01*
Y17618D01*
Y17606D01*
Y17598D01*
X490779Y17587D01*
Y17579D01*
X490776Y17567D01*
Y17559D01*
X490772Y17547D01*
X490768Y17539D01*
X490764Y17528D01*
X490756Y17520D01*
X490752Y17512D01*
X490744Y17504D01*
X490740Y17496D01*
X490732Y17488D01*
X490724Y17480D01*
X490717Y17472D01*
X490709Y17465D01*
X490701Y17461D01*
X490693Y17453D01*
X490685Y17449D01*
X490677Y17441D01*
X490665Y17437D01*
X490658Y17433D01*
X490646Y17429D01*
X490638D01*
X490626Y17425D01*
X490618D01*
X490606Y17421D01*
X489189D01*
X489177Y17425D01*
X489169D01*
X489157Y17429D01*
X489150D01*
X489138Y17433D01*
X489130Y17437D01*
X489118Y17441D01*
X489110Y17449D01*
X489102Y17453D01*
X489094Y17461D01*
X489087Y17465D01*
X489079Y17472D01*
X489071Y17480D01*
X489063Y17488D01*
X489055Y17496D01*
X489051Y17504D01*
X489043Y17512D01*
X489039Y17520D01*
X489032Y17528D01*
X489028Y17539D01*
X489024Y17547D01*
X489020Y17559D01*
Y17567D01*
X489016Y17579D01*
Y17587D01*
X489012Y17598D01*
Y17606D01*
Y17618D01*
Y18209D01*
Y18221D01*
Y18228D01*
X489016Y18240D01*
Y18248D01*
X489020Y18260D01*
Y18268D01*
X489024Y18280D01*
X489028Y18287D01*
X489032Y18299D01*
X489039Y18307D01*
X489043Y18315D01*
X489051Y18323D01*
X489055Y18331D01*
X489063Y18339D01*
X489071Y18347D01*
X489079Y18354D01*
X489087Y18362D01*
X489094Y18366D01*
X489102Y18374D01*
X489110Y18378D01*
X489118Y18386D01*
X489130Y18390D01*
X489138Y18394D01*
X489150Y18398D01*
X489157D01*
X489169Y18402D01*
X489177D01*
X489189Y18406D01*
X490606D01*
X490618Y18402D01*
D02*
G37*
G36*
X477823D02*
X477831D01*
X477843Y18398D01*
X477850D01*
X477862Y18394D01*
X477870Y18390D01*
X477882Y18386D01*
X477890Y18378D01*
X477898Y18374D01*
X477906Y18366D01*
X477913Y18362D01*
X477921Y18354D01*
X477929Y18347D01*
X477937Y18339D01*
X477945Y18331D01*
X477949Y18323D01*
X477957Y18315D01*
X477961Y18307D01*
X477969Y18299D01*
X477972Y18287D01*
X477976Y18280D01*
X477980Y18268D01*
Y18260D01*
X477984Y18248D01*
Y18240D01*
X477988Y18228D01*
Y18221D01*
Y18209D01*
Y17618D01*
Y17606D01*
Y17598D01*
X477984Y17587D01*
Y17579D01*
X477980Y17567D01*
Y17559D01*
X477976Y17547D01*
X477972Y17539D01*
X477969Y17528D01*
X477961Y17520D01*
X477957Y17512D01*
X477949Y17504D01*
X477945Y17496D01*
X477937Y17488D01*
X477929Y17480D01*
X477921Y17472D01*
X477913Y17465D01*
X477906Y17461D01*
X477898Y17453D01*
X477890Y17449D01*
X477882Y17441D01*
X477870Y17437D01*
X477862Y17433D01*
X477850Y17429D01*
X477843D01*
X477831Y17425D01*
X477823D01*
X477811Y17421D01*
X476394D01*
X476382Y17425D01*
X476374D01*
X476362Y17429D01*
X476354D01*
X476342Y17433D01*
X476335Y17437D01*
X476323Y17441D01*
X476315Y17449D01*
X476307Y17453D01*
X476299Y17461D01*
X476291Y17465D01*
X476284Y17472D01*
X476276Y17480D01*
X476268Y17488D01*
X476260Y17496D01*
X476256Y17504D01*
X476248Y17512D01*
X476244Y17520D01*
X476236Y17528D01*
X476232Y17539D01*
X476228Y17547D01*
X476224Y17559D01*
Y17567D01*
X476221Y17579D01*
Y17587D01*
X476217Y17598D01*
Y17606D01*
Y17618D01*
Y18209D01*
Y18221D01*
Y18228D01*
X476221Y18240D01*
Y18248D01*
X476224Y18260D01*
Y18268D01*
X476228Y18280D01*
X476232Y18287D01*
X476236Y18299D01*
X476244Y18307D01*
X476248Y18315D01*
X476256Y18323D01*
X476260Y18331D01*
X476268Y18339D01*
X476276Y18347D01*
X476284Y18354D01*
X476291Y18362D01*
X476299Y18366D01*
X476307Y18374D01*
X476315Y18378D01*
X476323Y18386D01*
X476335Y18390D01*
X476342Y18394D01*
X476354Y18398D01*
X476362D01*
X476374Y18402D01*
X476382D01*
X476394Y18406D01*
X477811D01*
X477823Y18402D01*
D02*
G37*
G36*
X490618Y16433D02*
X490626D01*
X490638Y16429D01*
X490646D01*
X490658Y16425D01*
X490665Y16421D01*
X490677Y16417D01*
X490685Y16409D01*
X490693Y16406D01*
X490701Y16398D01*
X490709Y16394D01*
X490717Y16386D01*
X490724Y16378D01*
X490732Y16370D01*
X490740Y16362D01*
X490744Y16354D01*
X490752Y16346D01*
X490756Y16339D01*
X490764Y16331D01*
X490768Y16319D01*
X490772Y16311D01*
X490776Y16299D01*
Y16291D01*
X490779Y16280D01*
Y16272D01*
X490784Y16260D01*
Y16252D01*
Y16240D01*
Y15650D01*
Y15638D01*
Y15630D01*
X490779Y15618D01*
Y15610D01*
X490776Y15598D01*
Y15591D01*
X490772Y15579D01*
X490768Y15571D01*
X490764Y15559D01*
X490756Y15551D01*
X490752Y15543D01*
X490744Y15535D01*
X490740Y15528D01*
X490732Y15520D01*
X490724Y15512D01*
X490717Y15504D01*
X490709Y15496D01*
X490701Y15492D01*
X490693Y15484D01*
X490685Y15480D01*
X490677Y15472D01*
X490665Y15469D01*
X490658Y15465D01*
X490646Y15461D01*
X490638D01*
X490626Y15457D01*
X490618D01*
X490606Y15453D01*
X489189D01*
X489177Y15457D01*
X489169D01*
X489157Y15461D01*
X489150D01*
X489138Y15465D01*
X489130Y15469D01*
X489118Y15472D01*
X489110Y15480D01*
X489102Y15484D01*
X489094Y15492D01*
X489087Y15496D01*
X489079Y15504D01*
X489071Y15512D01*
X489063Y15520D01*
X489055Y15528D01*
X489051Y15535D01*
X489043Y15543D01*
X489039Y15551D01*
X489032Y15559D01*
X489028Y15571D01*
X489024Y15579D01*
X489020Y15591D01*
Y15598D01*
X489016Y15610D01*
Y15618D01*
X489012Y15630D01*
Y15638D01*
Y15650D01*
Y16240D01*
Y16252D01*
Y16260D01*
X489016Y16272D01*
Y16280D01*
X489020Y16291D01*
Y16299D01*
X489024Y16311D01*
X489028Y16319D01*
X489032Y16331D01*
X489039Y16339D01*
X489043Y16346D01*
X489051Y16354D01*
X489055Y16362D01*
X489063Y16370D01*
X489071Y16378D01*
X489079Y16386D01*
X489087Y16394D01*
X489094Y16398D01*
X489102Y16406D01*
X489110Y16409D01*
X489118Y16417D01*
X489130Y16421D01*
X489138Y16425D01*
X489150Y16429D01*
X489157D01*
X489169Y16433D01*
X489177D01*
X489189Y16437D01*
X490606D01*
X490618Y16433D01*
D02*
G37*
G36*
X477823D02*
X477831D01*
X477843Y16429D01*
X477850D01*
X477862Y16425D01*
X477870Y16421D01*
X477882Y16417D01*
X477890Y16409D01*
X477898Y16406D01*
X477906Y16398D01*
X477913Y16394D01*
X477921Y16386D01*
X477929Y16378D01*
X477937Y16370D01*
X477945Y16362D01*
X477949Y16354D01*
X477957Y16346D01*
X477961Y16339D01*
X477969Y16331D01*
X477972Y16319D01*
X477976Y16311D01*
X477980Y16299D01*
Y16291D01*
X477984Y16280D01*
Y16272D01*
X477988Y16260D01*
Y16252D01*
Y16240D01*
Y15650D01*
Y15638D01*
Y15630D01*
X477984Y15618D01*
Y15610D01*
X477980Y15598D01*
Y15591D01*
X477976Y15579D01*
X477972Y15571D01*
X477969Y15559D01*
X477961Y15551D01*
X477957Y15543D01*
X477949Y15535D01*
X477945Y15528D01*
X477937Y15520D01*
X477929Y15512D01*
X477921Y15504D01*
X477913Y15496D01*
X477906Y15492D01*
X477898Y15484D01*
X477890Y15480D01*
X477882Y15472D01*
X477870Y15469D01*
X477862Y15465D01*
X477850Y15461D01*
X477843D01*
X477831Y15457D01*
X477823D01*
X477811Y15453D01*
X476394D01*
X476382Y15457D01*
X476374D01*
X476362Y15461D01*
X476354D01*
X476342Y15465D01*
X476335Y15469D01*
X476323Y15472D01*
X476315Y15480D01*
X476307Y15484D01*
X476299Y15492D01*
X476291Y15496D01*
X476284Y15504D01*
X476276Y15512D01*
X476268Y15520D01*
X476260Y15528D01*
X476256Y15535D01*
X476248Y15543D01*
X476244Y15551D01*
X476236Y15559D01*
X476232Y15571D01*
X476228Y15579D01*
X476224Y15591D01*
Y15598D01*
X476221Y15610D01*
Y15618D01*
X476217Y15630D01*
Y15638D01*
Y15650D01*
Y16240D01*
Y16252D01*
Y16260D01*
X476221Y16272D01*
Y16280D01*
X476224Y16291D01*
Y16299D01*
X476228Y16311D01*
X476232Y16319D01*
X476236Y16331D01*
X476244Y16339D01*
X476248Y16346D01*
X476256Y16354D01*
X476260Y16362D01*
X476268Y16370D01*
X476276Y16378D01*
X476284Y16386D01*
X476291Y16394D01*
X476299Y16398D01*
X476307Y16406D01*
X476315Y16409D01*
X476323Y16417D01*
X476335Y16421D01*
X476342Y16425D01*
X476354Y16429D01*
X476362D01*
X476374Y16433D01*
X476382D01*
X476394Y16437D01*
X477811D01*
X477823Y16433D01*
D02*
G37*
G36*
X490618Y14465D02*
X490626D01*
X490638Y14461D01*
X490646D01*
X490658Y14457D01*
X490665Y14453D01*
X490677Y14449D01*
X490685Y14441D01*
X490693Y14437D01*
X490701Y14429D01*
X490709Y14425D01*
X490717Y14417D01*
X490724Y14410D01*
X490732Y14402D01*
X490740Y14394D01*
X490744Y14386D01*
X490752Y14378D01*
X490756Y14370D01*
X490764Y14362D01*
X490768Y14350D01*
X490772Y14343D01*
X490776Y14331D01*
Y14323D01*
X490779Y14311D01*
Y14303D01*
X490784Y14291D01*
Y14284D01*
Y14272D01*
Y13681D01*
Y13669D01*
Y13661D01*
X490779Y13650D01*
Y13642D01*
X490776Y13630D01*
Y13622D01*
X490772Y13610D01*
X490768Y13602D01*
X490764Y13591D01*
X490756Y13583D01*
X490752Y13575D01*
X490744Y13567D01*
X490740Y13559D01*
X490732Y13551D01*
X490724Y13543D01*
X490717Y13535D01*
X490709Y13528D01*
X490701Y13524D01*
X490693Y13516D01*
X490685Y13512D01*
X490677Y13504D01*
X490665Y13500D01*
X490658Y13496D01*
X490646Y13492D01*
X490638D01*
X490626Y13488D01*
X490618D01*
X490606Y13484D01*
X489189D01*
X489177Y13488D01*
X489169D01*
X489157Y13492D01*
X489150D01*
X489138Y13496D01*
X489130Y13500D01*
X489118Y13504D01*
X489110Y13512D01*
X489102Y13516D01*
X489094Y13524D01*
X489087Y13528D01*
X489079Y13535D01*
X489071Y13543D01*
X489063Y13551D01*
X489055Y13559D01*
X489051Y13567D01*
X489043Y13575D01*
X489039Y13583D01*
X489032Y13591D01*
X489028Y13602D01*
X489024Y13610D01*
X489020Y13622D01*
Y13630D01*
X489016Y13642D01*
Y13650D01*
X489012Y13661D01*
Y13669D01*
Y13681D01*
Y14272D01*
Y14284D01*
Y14291D01*
X489016Y14303D01*
Y14311D01*
X489020Y14323D01*
Y14331D01*
X489024Y14343D01*
X489028Y14350D01*
X489032Y14362D01*
X489039Y14370D01*
X489043Y14378D01*
X489051Y14386D01*
X489055Y14394D01*
X489063Y14402D01*
X489071Y14410D01*
X489079Y14417D01*
X489087Y14425D01*
X489094Y14429D01*
X489102Y14437D01*
X489110Y14441D01*
X489118Y14449D01*
X489130Y14453D01*
X489138Y14457D01*
X489150Y14461D01*
X489157D01*
X489169Y14465D01*
X489177D01*
X489189Y14469D01*
X490606D01*
X490618Y14465D01*
D02*
G37*
G36*
X477823D02*
X477831D01*
X477843Y14461D01*
X477850D01*
X477862Y14457D01*
X477870Y14453D01*
X477882Y14449D01*
X477890Y14441D01*
X477898Y14437D01*
X477906Y14429D01*
X477913Y14425D01*
X477921Y14417D01*
X477929Y14410D01*
X477937Y14402D01*
X477945Y14394D01*
X477949Y14386D01*
X477957Y14378D01*
X477961Y14370D01*
X477969Y14362D01*
X477972Y14350D01*
X477976Y14343D01*
X477980Y14331D01*
Y14323D01*
X477984Y14311D01*
Y14303D01*
X477988Y14291D01*
Y14284D01*
Y14272D01*
Y13681D01*
Y13669D01*
Y13661D01*
X477984Y13650D01*
Y13642D01*
X477980Y13630D01*
Y13622D01*
X477976Y13610D01*
X477972Y13602D01*
X477969Y13591D01*
X477961Y13583D01*
X477957Y13575D01*
X477949Y13567D01*
X477945Y13559D01*
X477937Y13551D01*
X477929Y13543D01*
X477921Y13535D01*
X477913Y13528D01*
X477906Y13524D01*
X477898Y13516D01*
X477890Y13512D01*
X477882Y13504D01*
X477870Y13500D01*
X477862Y13496D01*
X477850Y13492D01*
X477843D01*
X477831Y13488D01*
X477823D01*
X477811Y13484D01*
X476394D01*
X476382Y13488D01*
X476374D01*
X476362Y13492D01*
X476354D01*
X476342Y13496D01*
X476335Y13500D01*
X476323Y13504D01*
X476315Y13512D01*
X476307Y13516D01*
X476299Y13524D01*
X476291Y13528D01*
X476284Y13535D01*
X476276Y13543D01*
X476268Y13551D01*
X476260Y13559D01*
X476256Y13567D01*
X476248Y13575D01*
X476244Y13583D01*
X476236Y13591D01*
X476232Y13602D01*
X476228Y13610D01*
X476224Y13622D01*
Y13630D01*
X476221Y13642D01*
Y13650D01*
X476217Y13661D01*
Y13669D01*
Y13681D01*
Y14272D01*
Y14284D01*
Y14291D01*
X476221Y14303D01*
Y14311D01*
X476224Y14323D01*
Y14331D01*
X476228Y14343D01*
X476232Y14350D01*
X476236Y14362D01*
X476244Y14370D01*
X476248Y14378D01*
X476256Y14386D01*
X476260Y14394D01*
X476268Y14402D01*
X476276Y14410D01*
X476284Y14417D01*
X476291Y14425D01*
X476299Y14429D01*
X476307Y14437D01*
X476315Y14441D01*
X476323Y14449D01*
X476335Y14453D01*
X476342Y14457D01*
X476354Y14461D01*
X476362D01*
X476374Y14465D01*
X476382D01*
X476394Y14469D01*
X477811D01*
X477823Y14465D01*
D02*
G37*
G36*
X488059Y19925D02*
X488071D01*
X488079Y19921D01*
X488091D01*
X488098Y19917D01*
X488110Y19913D01*
X488118Y19909D01*
X488126Y19902D01*
X488138Y19898D01*
X488146Y19890D01*
X488154Y19886D01*
X488161Y19878D01*
X488169Y19870D01*
X488177Y19862D01*
X488181Y19854D01*
X488189Y19847D01*
X488193Y19839D01*
X488201Y19831D01*
X488205Y19823D01*
X488209Y19811D01*
X488213Y19803D01*
X488216Y19791D01*
X488221Y19783D01*
Y19772D01*
X488224Y19764D01*
Y19752D01*
Y19744D01*
Y19732D01*
Y12764D01*
Y12752D01*
Y12744D01*
Y12732D01*
X488221Y12724D01*
Y12713D01*
X488216Y12705D01*
X488213Y12693D01*
X488209Y12685D01*
X488205Y12673D01*
X488201Y12665D01*
X488193Y12657D01*
X488189Y12650D01*
X488181Y12642D01*
X488177Y12634D01*
X488169Y12626D01*
X488161Y12618D01*
X488154Y12610D01*
X488146Y12606D01*
X488138Y12598D01*
X488126Y12595D01*
X488118Y12587D01*
X488110Y12583D01*
X488098Y12579D01*
X488091Y12575D01*
X488079D01*
X488071Y12571D01*
X488059D01*
X488051Y12567D01*
X485547D01*
X485539Y12571D01*
X485528D01*
X485520Y12575D01*
X485508D01*
X485500Y12579D01*
X485488Y12583D01*
X485480Y12587D01*
X485468Y12595D01*
X485461Y12598D01*
X485453Y12606D01*
X485445Y12610D01*
X485437Y12618D01*
X485429Y12626D01*
X485421Y12634D01*
X485417Y12642D01*
X485409Y12650D01*
X485405Y12657D01*
X485398Y12665D01*
X485394Y12673D01*
X485390Y12685D01*
X485386Y12693D01*
X485382Y12705D01*
X485378Y12713D01*
Y12724D01*
X485374Y12732D01*
Y12744D01*
Y12752D01*
X485370Y12764D01*
X485372D01*
X485370Y19732D01*
X485374Y19744D01*
Y19752D01*
Y19764D01*
X485378Y19772D01*
Y19783D01*
X485382Y19791D01*
X485386Y19803D01*
X485390Y19811D01*
X485394Y19823D01*
X485398Y19831D01*
X485405Y19839D01*
X485409Y19847D01*
X485417Y19854D01*
X485421Y19862D01*
X485429Y19870D01*
X485437Y19878D01*
X485445Y19886D01*
X485453Y19890D01*
X485461Y19898D01*
X485468Y19902D01*
X485480Y19909D01*
X485488Y19913D01*
X485500Y19917D01*
X485508Y19921D01*
X485520D01*
X485528Y19925D01*
X485539D01*
X485547Y19929D01*
X488051D01*
X488059Y19925D01*
D02*
G37*
G36*
X481461D02*
X481472D01*
X481480Y19921D01*
X481492D01*
X481500Y19917D01*
X481512Y19913D01*
X481520Y19909D01*
X481531Y19902D01*
X481539Y19898D01*
X481547Y19890D01*
X481555Y19886D01*
X481563Y19878D01*
X481571Y19870D01*
X481579Y19862D01*
X481583Y19854D01*
X481591Y19847D01*
X481595Y19839D01*
X481602Y19831D01*
X481606Y19823D01*
X481610Y19811D01*
X481614Y19803D01*
X481618Y19791D01*
X481622Y19783D01*
Y19772D01*
X481626Y19764D01*
Y19752D01*
Y19744D01*
X481630Y19732D01*
X481628Y12764D01*
X481630D01*
X481626Y12752D01*
Y12744D01*
Y12732D01*
X481622Y12724D01*
Y12713D01*
X481618Y12705D01*
X481614Y12693D01*
X481610Y12685D01*
X481606Y12673D01*
X481602Y12665D01*
X481595Y12657D01*
X481591Y12650D01*
X481583Y12642D01*
X481579Y12634D01*
X481571Y12626D01*
X481563Y12618D01*
X481555Y12610D01*
X481547Y12606D01*
X481539Y12598D01*
X481531Y12595D01*
X481520Y12587D01*
X481512Y12583D01*
X481500Y12579D01*
X481492Y12575D01*
X481480D01*
X481472Y12571D01*
X481461D01*
X481453Y12567D01*
X478949D01*
X478941Y12571D01*
X478929D01*
X478921Y12575D01*
X478909D01*
X478902Y12579D01*
X478890Y12583D01*
X478882Y12587D01*
X478874Y12595D01*
X478862Y12598D01*
X478854Y12606D01*
X478847Y12610D01*
X478839Y12618D01*
X478831Y12626D01*
X478823Y12634D01*
X478819Y12642D01*
X478811Y12650D01*
X478807Y12657D01*
X478799Y12665D01*
X478795Y12673D01*
X478791Y12685D01*
X478787Y12693D01*
X478784Y12705D01*
X478780Y12713D01*
Y12724D01*
X478776Y12732D01*
Y12744D01*
Y12752D01*
Y12764D01*
Y19732D01*
Y19744D01*
Y19752D01*
Y19764D01*
X478780Y19772D01*
Y19783D01*
X478784Y19791D01*
X478787Y19803D01*
X478791Y19811D01*
X478795Y19823D01*
X478799Y19831D01*
X478807Y19839D01*
X478811Y19847D01*
X478819Y19854D01*
X478823Y19862D01*
X478831Y19870D01*
X478839Y19878D01*
X478847Y19886D01*
X478854Y19890D01*
X478862Y19898D01*
X478874Y19902D01*
X478882Y19909D01*
X478890Y19913D01*
X478902Y19917D01*
X478909Y19921D01*
X478921D01*
X478929Y19925D01*
X478941D01*
X478949Y19929D01*
X481453D01*
X481461Y19925D01*
D02*
G37*
D26*
X506500Y15181D02*
D03*
Y21881D02*
D03*
X480000Y58881D02*
D03*
Y52182D02*
D03*
X499000Y15181D02*
D03*
Y21881D02*
D03*
X465500Y182731D02*
D03*
Y176031D02*
D03*
Y168382D02*
D03*
Y161681D02*
D03*
D32*
X471500Y17594D02*
D03*
Y25469D02*
D03*
X464000Y17594D02*
D03*
Y25469D02*
D03*
D33*
X461563Y109531D02*
D03*
X469437D02*
D03*
X461563Y73532D02*
D03*
X469437D02*
D03*
D34*
X478850Y35531D02*
D03*
X472150D02*
D03*
X498650Y29032D02*
D03*
X505350D02*
D03*
X512500D02*
D03*
X519200D02*
D03*
D90*
X488815Y22354D02*
D03*
D91*
X489209Y26339D02*
D03*
Y24370D02*
D03*
D92*
X484386Y29094D02*
D03*
D93*
X256618Y328374D02*
D03*
X181382D02*
D03*
X256618Y18689D02*
D03*
X181382D02*
D03*
X343000Y18531D02*
D03*
X418236D02*
D03*
X343000Y328217D02*
D03*
X418236D02*
D03*
M02*
