G04*
G04 #@! TF.GenerationSoftware,Altium Limited,Altium Designer,25.8.1 (18)*
G04*
G04 Layer_Color=32768*
%FSLAX25Y25*%
%MOIN*%
G70*
G04*
G04 #@! TF.SameCoordinates,31E2A41C-BC31-4C51-A6E1-2EC11E0042B4*
G04*
G04*
G04 #@! TF.FilePolarity,Positive*
G04*
G01*
G75*
%ADD13C,0.00600*%
%ADD31C,0.00394*%
%ADD33C,0.00197*%
G36*
X125235Y101463D02*
Y146537D01*
X101686D01*
Y101463D01*
X125235D01*
D02*
G37*
G36*
X126650Y118150D02*
Y130850D01*
X133350D01*
Y118150D01*
X126650D01*
D02*
G37*
G36*
X141250Y145650D02*
Y135350D01*
X135750D01*
Y145650D01*
X141250D01*
D02*
G37*
G36*
X148256Y146012D02*
Y134988D01*
X142744D01*
Y146012D01*
X148256D01*
D02*
G37*
D13*
X135750Y135350D02*
X141250D01*
X135750D02*
Y145650D01*
X141250D01*
Y135350D02*
Y145650D01*
X126650Y118150D02*
Y130850D01*
Y118150D02*
X133350D01*
Y130850D01*
X126650D02*
X133350D01*
X101686Y146537D02*
X125235D01*
X101686Y101463D02*
Y146537D01*
Y101463D02*
X125235D01*
Y146537D01*
D31*
X143539Y108126D02*
X148461D01*
Y116000D01*
X143539D02*
X148461D01*
X143539Y108126D02*
Y116000D01*
X128539Y108063D02*
X133461D01*
Y115937D01*
X128539D02*
X133461D01*
X128539Y108063D02*
Y115937D01*
X136039Y108126D02*
X140961D01*
Y116000D01*
X136039D02*
X140961D01*
X136039Y108126D02*
Y116000D01*
D33*
X135079Y131313D02*
X148858D01*
Y119502D02*
Y131313D01*
X135079Y119502D02*
X148858D01*
X135079D02*
Y131313D01*
M02*
