G04*
G04 #@! TF.GenerationSoftware,Altium Limited,Altium Designer,25.8.1 (18)*
G04*
G04 Layer_Color=255*
%FSLAX25Y25*%
%MOIN*%
G70*
G04*
G04 #@! TF.SameCoordinates,31E2A41C-BC31-4C51-A6E1-2EC11E0042B4*
G04*
G04*
G04 #@! TF.FilePolarity,Positive*
G04*
G01*
G75*
%ADD16R,0.03150X0.03150*%
%ADD17R,0.03500X0.02400*%
%ADD18R,0.04700X0.04000*%
%ADD19R,0.06700X0.02400*%
%ADD20R,0.05787X0.02441*%
%ADD25R,0.00984X0.01870*%
%ADD26R,0.01870X0.00984*%
%ADD27R,0.11200X0.03900*%
D16*
X145500Y143650D02*
D03*
Y137350D02*
D03*
D17*
X138500Y137550D02*
D03*
Y143450D02*
D03*
D18*
X130000Y121150D02*
D03*
Y127850D02*
D03*
D19*
X120885Y136303D02*
D03*
Y131382D02*
D03*
Y126461D02*
D03*
Y121539D02*
D03*
Y116618D02*
D03*
Y111697D02*
D03*
D20*
X146000Y116000D02*
D03*
Y108126D02*
D03*
X131000Y115937D02*
D03*
Y108063D02*
D03*
X138500Y116000D02*
D03*
Y108126D02*
D03*
D25*
X140000Y129000D02*
D03*
X141969D02*
D03*
X143937D02*
D03*
Y121815D02*
D03*
X141969D02*
D03*
X140000D02*
D03*
D26*
X146545Y128360D02*
D03*
Y126392D02*
D03*
Y124423D02*
D03*
Y122455D02*
D03*
X137392D02*
D03*
Y124423D02*
D03*
Y126392D02*
D03*
Y128360D02*
D03*
D27*
X108286Y143587D02*
D03*
Y104413D02*
D03*
M02*
