G04*
G04 #@! TF.GenerationSoftware,Altium Limited,Altium Designer,25.8.1 (18)*
G04*
G04 Layer_Color=8421504*
%FSLAX25Y25*%
%MOIN*%
G70*
G04*
G04 #@! TF.SameCoordinates,31E2A41C-BC31-4C51-A6E1-2EC11E0042B4*
G04*
G04*
G04 #@! TF.FilePolarity,Positive*
G04*
G01*
G75*
%ADD16R,0.03150X0.03150*%
%ADD17R,0.03500X0.02400*%
%ADD18R,0.04700X0.04000*%
%ADD19R,0.06700X0.02400*%
%ADD20R,0.05787X0.02441*%
G36*
X144405Y128114D02*
X143468D01*
Y129886D01*
X144405D01*
Y128114D01*
D02*
G37*
G36*
X142437D02*
X141500D01*
Y129886D01*
X142437D01*
Y128114D01*
D02*
G37*
G36*
X140469D02*
X139532D01*
Y129886D01*
X140469D01*
Y128114D01*
D02*
G37*
G36*
X147431Y127892D02*
X145659D01*
Y128829D01*
X147431D01*
Y127892D01*
D02*
G37*
G36*
X138278D02*
X136506D01*
Y128829D01*
X138278D01*
Y127892D01*
D02*
G37*
G36*
X147431Y125923D02*
X145659D01*
Y126860D01*
X147431D01*
Y125923D01*
D02*
G37*
G36*
X138278D02*
X136506D01*
Y126860D01*
X138278D01*
Y125923D01*
D02*
G37*
G36*
X147431Y123955D02*
X145659D01*
Y124892D01*
X147431D01*
Y123955D01*
D02*
G37*
G36*
X138278D02*
X136506D01*
Y124892D01*
X138278D01*
Y123955D01*
D02*
G37*
G36*
X147431Y121986D02*
X145659D01*
Y122923D01*
X147431D01*
Y121986D01*
D02*
G37*
G36*
X138278D02*
X136506D01*
Y122923D01*
X138278D01*
Y121986D01*
D02*
G37*
G36*
X144405Y120929D02*
X143468D01*
Y122701D01*
X144405D01*
Y120929D01*
D02*
G37*
G36*
X142437D02*
X141500D01*
Y122701D01*
X142437D01*
Y120929D01*
D02*
G37*
G36*
X140469D02*
X139532D01*
Y122701D01*
X140469D01*
Y120929D01*
D02*
G37*
D16*
X145500Y143650D02*
D03*
Y137350D02*
D03*
D17*
X138500Y137550D02*
D03*
Y143450D02*
D03*
D18*
X130000Y121150D02*
D03*
Y127850D02*
D03*
D19*
X120885Y136303D02*
D03*
Y131382D02*
D03*
Y126461D02*
D03*
Y121539D02*
D03*
Y116618D02*
D03*
Y111697D02*
D03*
D20*
X146000Y116000D02*
D03*
Y108126D02*
D03*
X131000Y115937D02*
D03*
Y108063D02*
D03*
X138500Y116000D02*
D03*
Y108126D02*
D03*
M02*
