G04*
G04 #@! TF.GenerationSoftware,Altium Limited,Altium Designer,25.2.1 (25)*
G04*
G04 Layer_Color=32768*
%FSLAX25Y25*%
%MOIN*%
G70*
G04*
G04 #@! TF.SameCoordinates,85CC1250-A9D5-4C62-828A-8F390AD69E0A*
G04*
G04*
G04 #@! TF.FilePolarity,Positive*
G04*
G01*
G75*
%ADD10C,0.00787*%
%ADD11C,0.00394*%
%ADD12C,0.00600*%
%ADD100C,0.00197*%
G36*
X501469Y314055D02*
X477531D01*
Y342008D01*
X501469D01*
Y314055D01*
D02*
G37*
G36*
X495603Y305082D02*
X498600D01*
Y303421D01*
X499800D01*
Y286642D01*
X498600D01*
Y284981D01*
X495603D01*
Y283382D01*
X485397D01*
Y284981D01*
X482400D01*
Y286642D01*
X481200D01*
Y303421D01*
X482400D01*
Y305082D01*
X485397D01*
Y306681D01*
X495603D01*
Y305082D01*
D02*
G37*
G36*
X486850Y267150D02*
X480150D01*
Y279850D01*
X486850D01*
Y267150D01*
D02*
G37*
G36*
X495990Y202279D02*
X491253Y197541D01*
X482272Y206522D01*
X487010Y211259D01*
X495990Y202279D01*
D02*
G37*
G36*
X490359Y196410D02*
X485621Y191673D01*
X476641Y200653D01*
X481379Y205390D01*
X490359Y196410D01*
D02*
G37*
G36*
X505256Y188020D02*
X499744D01*
Y199043D01*
X505256D01*
Y188020D01*
D02*
G37*
G36*
X468850Y173031D02*
X462150D01*
Y185731D01*
X468850D01*
Y173031D01*
D02*
G37*
G36*
X326850Y168250D02*
X319150D01*
Y181750D01*
X326850D01*
Y168250D01*
D02*
G37*
G36*
X25053Y181400D02*
X27400D01*
Y179053D01*
X27420D01*
Y169947D01*
X27400D01*
Y167600D01*
X25053D01*
Y167580D01*
X15947D01*
Y167600D01*
X13600D01*
Y169947D01*
X13580D01*
Y179053D01*
X13600D01*
Y181400D01*
X15947D01*
Y181420D01*
X25053D01*
Y181400D01*
D02*
G37*
G36*
X313386Y201582D02*
X317050D01*
Y197917D01*
X318250D01*
Y171146D01*
X317050D01*
Y167482D01*
X313386D01*
Y166281D01*
X286614D01*
Y167482D01*
X282950D01*
Y171146D01*
X281750D01*
Y197917D01*
X282950D01*
Y201582D01*
X286614D01*
Y202782D01*
X313386D01*
Y201582D01*
D02*
G37*
G36*
X276850Y159181D02*
X264150D01*
Y165882D01*
X276850D01*
Y159181D01*
D02*
G37*
G36*
X468850Y158681D02*
X462150D01*
Y171381D01*
X468850D01*
Y158681D01*
D02*
G37*
G36*
X276850Y152181D02*
X264150D01*
Y158881D01*
X276850D01*
Y152181D01*
D02*
G37*
G36*
X293350Y151181D02*
X286650D01*
Y163882D01*
X293350D01*
Y151181D01*
D02*
G37*
G36*
X285850D02*
X279150D01*
Y163882D01*
X285850D01*
Y151181D01*
D02*
G37*
G36*
X309453Y158244D02*
Y150441D01*
Y150193D01*
X303516D01*
Y150441D01*
Y158244D01*
Y158492D01*
X309453D01*
Y158244D01*
D02*
G37*
G36*
X21350Y150150D02*
X14650D01*
Y162850D01*
X21350D01*
Y150150D01*
D02*
G37*
G36*
X292850Y139681D02*
X280150D01*
Y146381D01*
X292850D01*
Y139681D01*
D02*
G37*
G36*
X74693Y106240D02*
X36898D01*
Y238760D01*
X74693D01*
Y106240D01*
D02*
G37*
G36*
X523200Y69532D02*
X462100D01*
Y112531D01*
X523200D01*
Y69532D01*
D02*
G37*
G36*
X483350Y49182D02*
X476650D01*
Y61882D01*
X483350D01*
Y49182D01*
D02*
G37*
G36*
X481850Y32182D02*
X469150D01*
Y38881D01*
X481850D01*
Y32182D01*
D02*
G37*
G36*
X522200Y25681D02*
X509500D01*
Y32381D01*
X522200D01*
Y25681D01*
D02*
G37*
G36*
X508350D02*
X495650D01*
Y32381D01*
X508350D01*
Y25681D01*
D02*
G37*
G36*
X509850Y12182D02*
X503150D01*
Y24882D01*
X509850D01*
Y12182D01*
D02*
G37*
G36*
X502350D02*
X495650D01*
Y24882D01*
X502350D01*
Y12182D01*
D02*
G37*
G36*
X126000Y9592D02*
X94000D01*
Y63100D01*
X126000D01*
Y9592D01*
D02*
G37*
D10*
X315713Y139961D02*
X328311D01*
X315713D02*
Y146102D01*
X328311D01*
Y139961D02*
Y146102D01*
D11*
X331516Y156839D02*
Y164713D01*
Y156839D02*
X337815D01*
Y164713D01*
X331516D02*
X337815D01*
X30040Y165496D02*
X34961D01*
Y173370D01*
X30040D02*
X34961D01*
X30040Y165496D02*
Y173370D01*
X469039Y17594D02*
X473961D01*
X469039Y25469D02*
X473961D01*
X469039Y17594D02*
Y25469D01*
X473961Y17594D02*
Y25469D01*
X461539Y17594D02*
X466461D01*
X461539Y25469D02*
X466461D01*
X461539Y17594D02*
Y25469D01*
X466461Y17594D02*
Y25469D01*
X479563Y22071D02*
Y26992D01*
Y22071D02*
X487437D01*
Y26992D01*
X479563D02*
X487437D01*
X479563Y29571D02*
Y34492D01*
Y29571D02*
X487437D01*
Y34492D01*
X479563D02*
X487437D01*
X461563Y107071D02*
Y111992D01*
X469437Y107071D02*
Y111992D01*
X461563D02*
X469437D01*
X461563Y107071D02*
X469437D01*
X461563Y71071D02*
Y75992D01*
X469437Y71071D02*
Y75992D01*
X461563D02*
X469437D01*
X461563Y71071D02*
X469437D01*
X473539Y286094D02*
X478461D01*
Y293969D01*
X473539D02*
X478461D01*
X473539Y286094D02*
Y293969D01*
X502039Y288094D02*
X506961D01*
Y295969D01*
X502039D02*
X506961D01*
X502039Y288094D02*
Y295969D01*
X510039Y288158D02*
X514961D01*
Y296031D01*
X510039D02*
X514961D01*
X510039Y288158D02*
Y296031D01*
X137461Y117563D02*
Y125437D01*
X132539Y117563D02*
X137461D01*
X132539D02*
Y125437D01*
X137461D01*
X296563Y160071D02*
Y164992D01*
Y160071D02*
X304437D01*
Y164992D01*
X296563D02*
X304437D01*
X328937Y188071D02*
Y192992D01*
X321063D02*
X328937D01*
X321063Y188071D02*
Y192992D01*
Y188071D02*
X328937D01*
X286961Y204095D02*
Y211968D01*
X282039Y204095D02*
X286961D01*
X282039D02*
Y211968D01*
X286961D01*
X328937Y195571D02*
Y200492D01*
X321063D02*
X328937D01*
X321063Y195571D02*
Y200492D01*
Y195571D02*
X328937D01*
X264539Y168595D02*
X269461D01*
Y176469D01*
X264539D02*
X269461D01*
X264539Y168595D02*
Y176469D01*
X272039Y168595D02*
X276961D01*
Y176469D01*
X272039D02*
X276961D01*
X272039Y168595D02*
Y176469D01*
Y188969D02*
X276961D01*
X272039Y181095D02*
Y188969D01*
Y181095D02*
X276961D01*
Y188969D01*
X264539D02*
X269461D01*
X264539Y181095D02*
Y188969D01*
Y181095D02*
X269461D01*
Y188969D01*
X311039Y153595D02*
X315961D01*
Y161469D01*
X311039D02*
X315961D01*
X311039Y153595D02*
Y161469D01*
X318539Y153595D02*
Y161469D01*
X323461D01*
Y153595D02*
Y161469D01*
X318539Y153595D02*
X323461D01*
X341437Y183571D02*
Y188492D01*
X333563D02*
X341437D01*
X333563Y183571D02*
Y188492D01*
Y183571D02*
X341437D01*
X310461Y206063D02*
Y213937D01*
X305539Y206063D02*
X310461D01*
X305539D02*
Y213937D01*
X310461D01*
X327539Y179969D02*
X332461D01*
X327539Y172095D02*
Y179969D01*
Y172095D02*
X332461D01*
Y179969D01*
X290063Y127571D02*
Y132492D01*
Y127571D02*
X297937D01*
Y132492D01*
X290063D02*
X297937D01*
X312874Y119571D02*
Y124492D01*
X305000D02*
X312874D01*
X305000Y119571D02*
Y124492D01*
Y119571D02*
X312874D01*
X312937Y127071D02*
Y131992D01*
X305063D02*
X312937D01*
X305063Y127071D02*
Y131992D01*
Y127071D02*
X312937D01*
X32937Y184539D02*
Y189461D01*
X25063D02*
X32937D01*
X25063Y184539D02*
Y189461D01*
Y184539D02*
X32937D01*
D12*
X482400Y305082D02*
X485397D01*
X495603D02*
X498600D01*
X482400Y284981D02*
X485397D01*
X495603D02*
X498600D01*
X482400Y303421D02*
Y305082D01*
Y284981D02*
Y286642D01*
X495603Y305082D02*
Y306681D01*
X485397Y283382D02*
Y284981D01*
Y305082D02*
Y306681D01*
X495603Y283382D02*
Y284981D01*
X485397Y306681D02*
X495603D01*
X485397Y283382D02*
X495603D01*
X498600Y284981D02*
Y286642D01*
Y303421D02*
Y305082D01*
Y303421D02*
X499800D01*
X481200D02*
X482400D01*
X481200Y286642D02*
Y303421D01*
Y286642D02*
X482400D01*
X498600D02*
X499800D01*
Y303421D01*
X282950Y167482D02*
X286614D01*
Y166281D02*
Y167482D01*
Y166281D02*
X313386D01*
Y167482D01*
X317050D01*
Y171146D01*
X318250D01*
Y197917D01*
X317050D02*
X318250D01*
X317050D02*
Y201582D01*
X313386D02*
X317050D01*
X313386D02*
Y202782D01*
X286614D02*
X313386D01*
X286614Y201582D02*
Y202782D01*
X282950Y201582D02*
X286614D01*
X282950Y197917D02*
Y201582D01*
X281750Y197917D02*
X282950D01*
X281750Y171146D02*
Y197917D01*
Y171146D02*
X282950D01*
Y167482D02*
Y171146D01*
X462100Y69532D02*
Y112531D01*
X523200D01*
Y69532D02*
Y112531D01*
X462100Y69532D02*
X523200D01*
X21350Y150150D02*
Y162850D01*
X14650D02*
X21350D01*
X14650Y150150D02*
Y162850D01*
Y150150D02*
X21350D01*
X13600Y167600D02*
X15947D01*
Y167580D02*
Y167600D01*
Y167580D02*
X25053D01*
Y167600D01*
X27400D01*
Y169947D01*
X27420D01*
Y179053D01*
X27400D02*
X27420D01*
X27400D02*
Y181400D01*
X25053D02*
X27400D01*
X25053D02*
Y181420D01*
X15947D02*
X25053D01*
X15947Y181400D02*
Y181420D01*
X13600Y181400D02*
X15947D01*
X13600Y179053D02*
Y181400D01*
X13580Y179053D02*
X13600D01*
X13580Y169947D02*
Y179053D01*
Y169947D02*
X13600D01*
Y167600D02*
Y169947D01*
X303516Y150193D02*
Y150441D01*
Y158244D01*
Y158492D01*
Y150193D02*
X309453D01*
Y150441D01*
X303516Y158492D02*
X309453D01*
Y150441D02*
Y158244D01*
Y158492D01*
X326850Y168250D02*
Y181750D01*
X319150D02*
X326850D01*
X319150Y168250D02*
Y181750D01*
Y168250D02*
X326850D01*
X94000Y63100D02*
X126000D01*
Y9592D02*
Y63100D01*
X94000Y9592D02*
X126000D01*
X94000D02*
Y63100D01*
X503150Y12182D02*
X509850D01*
X503150D02*
Y24882D01*
X509850Y12182D02*
Y24882D01*
X503150D02*
X509850D01*
X476650Y61882D02*
X483350D01*
Y49182D02*
Y61882D01*
X476650Y49182D02*
Y61882D01*
Y49182D02*
X483350D01*
X481850Y32182D02*
Y38881D01*
X469150D02*
X481850D01*
X469150Y32182D02*
Y38881D01*
Y32182D02*
X481850D01*
X502350Y12182D02*
Y24882D01*
X495650Y12182D02*
X502350D01*
X495650D02*
Y24882D01*
X502350D01*
X495650Y25681D02*
Y32381D01*
Y25681D02*
X508350D01*
Y32381D01*
X495650D02*
X508350D01*
X509500Y25681D02*
Y32381D01*
Y25681D02*
X522200D01*
Y32381D01*
X509500D02*
X522200D01*
X486850Y267150D02*
Y279850D01*
X480150D02*
X486850D01*
X480150Y267150D02*
Y279850D01*
Y267150D02*
X486850D01*
X264150Y159181D02*
X276850D01*
Y165882D01*
X264150D02*
X276850D01*
X264150Y159181D02*
Y165882D01*
Y152181D02*
X276850D01*
Y158881D01*
X264150D02*
X276850D01*
X264150Y152181D02*
Y158881D01*
X279150Y163882D02*
X285850D01*
Y151181D02*
Y163882D01*
X279150Y151181D02*
X285850D01*
X279150D02*
Y163882D01*
X286650Y151181D02*
X293350D01*
Y163882D01*
X286650Y151181D02*
Y163882D01*
X293350D01*
X280150Y139681D02*
Y146381D01*
Y139681D02*
X292850D01*
X280150Y146381D02*
X292850D01*
Y139681D02*
Y146381D01*
X462150Y185731D02*
X468850D01*
X462150Y173031D02*
Y185731D01*
Y173031D02*
X468850D01*
Y185731D01*
X462150Y171381D02*
X468850D01*
X462150Y158681D02*
Y171381D01*
Y158681D02*
X468850D01*
Y171381D01*
X482272Y206522D02*
X487010Y211259D01*
X495990Y202279D01*
X491253Y197541D02*
X495990Y202279D01*
X482272Y206522D02*
X491253Y197541D01*
X476641Y200653D02*
X481379Y205390D01*
X490359Y196410D01*
X485621Y191673D02*
X490359Y196410D01*
X476641Y200653D02*
X485621Y191673D01*
D100*
X293110Y145844D02*
X306890D01*
Y134034D02*
Y145844D01*
X293110Y134034D02*
X306890D01*
X293110D02*
Y145844D01*
X129248Y109189D02*
Y134811D01*
X95752D02*
X129248D01*
X95752Y109189D02*
Y134811D01*
Y109189D02*
X129248D01*
X513654Y118551D02*
Y183512D01*
X470346Y118551D02*
X513654D01*
X470346D02*
Y183512D01*
X513654D01*
X476807Y265839D02*
X490193D01*
X476807Y249224D02*
Y265839D01*
Y249224D02*
X490193D01*
Y265839D01*
X475035Y10689D02*
Y31161D01*
Y10689D02*
X491965D01*
X475035Y31161D02*
X491965D01*
Y10689D02*
Y31161D01*
X270181Y326209D02*
Y343807D01*
Y326209D02*
X298291D01*
Y20854D02*
Y326209D01*
X270181Y20854D02*
X298291D01*
X270181Y3256D02*
Y20854D01*
X167819Y343807D02*
X270181D01*
X167819Y326209D02*
Y343807D01*
X139709Y326209D02*
X167819D01*
Y3256D02*
Y20854D01*
Y3256D02*
X270181D01*
X139709Y20854D02*
X167819D01*
X139709D02*
Y326209D01*
X301327Y20697D02*
Y326051D01*
Y20697D02*
X329437D01*
Y3098D02*
X431799D01*
X329437D02*
Y20697D01*
X301327Y326051D02*
X329437D01*
Y343650D01*
X431799D01*
Y3098D02*
Y20697D01*
X459909D01*
Y326051D01*
X431799D02*
X459909D01*
X431799D02*
Y343650D01*
M02*
