G04*
G04 #@! TF.GenerationSoftware,Altium Limited,Altium Designer,25.2.1 (25)*
G04*
G04 Layer_Color=128*
%FSLAX25Y25*%
%MOIN*%
G70*
G04*
G04 #@! TF.SameCoordinates,85CC1250-A9D5-4C62-828A-8F390AD69E0A*
G04*
G04*
G04 #@! TF.FilePolarity,Positive*
G04*
G01*
G75*
%ADD15C,0.00500*%
D15*
X123327Y113142D02*
X127264D01*
X125295Y111173D02*
Y115110D01*
X97736Y113142D02*
X101673D01*
X99705Y111173D02*
Y115110D01*
X123327Y130858D02*
X127264D01*
X125295Y128890D02*
Y132827D01*
X97736Y130858D02*
X101673D01*
X99705Y128890D02*
Y132827D01*
X476252Y168748D02*
X482158D01*
X479205Y165795D02*
Y171701D01*
X476252Y133315D02*
X482158D01*
X479205Y130362D02*
Y136268D01*
X501842Y133315D02*
X507748D01*
X504795Y130362D02*
Y136268D01*
X501842Y168748D02*
X507748D01*
X504795Y165795D02*
Y171701D01*
X476252Y151031D02*
X482158D01*
X479205Y148079D02*
Y153984D01*
X501842Y151031D02*
X507748D01*
X504795Y148079D02*
Y153984D01*
X97900Y59000D02*
X102100D01*
X100000Y56900D02*
Y61100D01*
X107900Y59000D02*
X112100D01*
X110000Y56900D02*
Y61100D01*
X117900Y59000D02*
X122100D01*
X120000Y56900D02*
Y61100D01*
X281126Y282193D02*
X294709D01*
X287917Y275402D02*
Y288984D01*
X212760Y282193D02*
X225240D01*
X219000Y275953D02*
Y288433D01*
X212760Y64870D02*
X225240D01*
X219000Y58630D02*
Y71110D01*
X145378Y314555D02*
X154787D01*
X150083Y309850D02*
Y319260D01*
X143291Y64870D02*
X156874D01*
X150083Y58079D02*
Y71661D01*
X304909Y64713D02*
X318492D01*
X311701Y57921D02*
Y71504D01*
X306996Y314398D02*
X316406D01*
X311701Y309693D02*
Y319102D01*
X374378Y64713D02*
X386858D01*
X380618Y58473D02*
Y70953D01*
X374378Y282035D02*
X386858D01*
X380618Y275795D02*
Y288276D01*
X442744Y282035D02*
X456327D01*
X449535Y275244D02*
Y288827D01*
X481941Y328031D02*
X487059D01*
X484500Y325472D02*
Y330591D01*
X491941Y328031D02*
X497059D01*
X494500Y325472D02*
Y330591D01*
X58335Y127500D02*
X62665D01*
X60500Y125335D02*
Y129665D01*
X48335Y127500D02*
X52665D01*
X50500Y125335D02*
Y129665D01*
X58335Y137500D02*
X62665D01*
X60500Y135335D02*
Y139665D01*
X48335Y137500D02*
X52665D01*
X50500Y135335D02*
Y139665D01*
X58335Y147500D02*
X62665D01*
X60500Y145335D02*
Y149665D01*
X48335Y147500D02*
X52665D01*
X50500Y145335D02*
Y149665D01*
X58335Y157500D02*
X62665D01*
X60500Y155335D02*
Y159665D01*
X48335Y157500D02*
X52665D01*
X50500Y155335D02*
Y159665D01*
X58335Y167500D02*
X62665D01*
X60500Y165335D02*
Y169665D01*
X48335Y167500D02*
X52665D01*
X50500Y165335D02*
Y169665D01*
X58335Y177500D02*
X62665D01*
X60500Y175335D02*
Y179665D01*
X48335Y177500D02*
X52665D01*
X50500Y175335D02*
Y179665D01*
X58335Y187500D02*
X62665D01*
X60500Y185335D02*
Y189665D01*
X48335Y187500D02*
X52665D01*
X50500Y185335D02*
Y189665D01*
X48335Y197500D02*
X52665D01*
X50500Y195335D02*
Y199665D01*
X58335Y197500D02*
X62665D01*
X60500Y195335D02*
Y199665D01*
X48335Y207500D02*
X52665D01*
X50500Y205335D02*
Y209665D01*
X58335Y207500D02*
X62665D01*
X60500Y205335D02*
Y209665D01*
X48335Y217500D02*
X52665D01*
X50500Y215335D02*
Y219665D01*
X58335Y217500D02*
X62665D01*
X60500Y215335D02*
Y219665D01*
X308410Y147031D02*
X309591D01*
X309000Y146441D02*
Y147622D01*
X306410Y149031D02*
X307591D01*
X307000Y148441D02*
Y149622D01*
X310409Y158031D02*
X311591D01*
X311000Y157441D02*
Y158622D01*
X519410Y24000D02*
X520590D01*
X520000Y23410D02*
Y24590D01*
X521410Y12000D02*
X522590D01*
X522000Y11409D02*
Y12591D01*
X519410Y8000D02*
X520590D01*
X520000Y7409D02*
Y8591D01*
X515410Y24000D02*
X516590D01*
X516000Y23410D02*
Y24590D01*
X517410Y20000D02*
X518590D01*
X518000Y19410D02*
Y20591D01*
X515410Y8000D02*
X516590D01*
X516000Y7409D02*
Y8591D01*
X513410Y36000D02*
X514591D01*
X514000Y35409D02*
Y36591D01*
X511410Y24000D02*
X512591D01*
X512000Y23410D02*
Y24590D01*
X513410Y20000D02*
X514591D01*
X514000Y19410D02*
Y20591D01*
X511410Y8000D02*
X512591D01*
X512000Y7409D02*
Y8591D01*
X509410Y36000D02*
X510591D01*
X510000Y35409D02*
Y36591D01*
X505409Y36000D02*
X506591D01*
X506000Y35409D02*
Y36591D01*
X501409Y36000D02*
X502591D01*
X502000Y35409D02*
Y36591D01*
X497409Y36000D02*
X498591D01*
X498000Y35409D02*
Y36591D01*
X491409Y32000D02*
X492591D01*
X492000Y31409D02*
Y32591D01*
X493409Y20000D02*
X494591D01*
X494000Y19410D02*
Y20591D01*
X487409Y8000D02*
X488590D01*
X488000Y7409D02*
Y8591D01*
X483410Y8000D02*
X484590D01*
X484000Y7409D02*
Y8591D01*
X479410Y8000D02*
X480590D01*
X480000Y7409D02*
Y8591D01*
X475410Y8000D02*
X476590D01*
X476000Y7409D02*
Y8591D01*
X473410Y12000D02*
X474590D01*
X474000Y11409D02*
Y12591D01*
X471410Y8000D02*
X472590D01*
X472000Y7409D02*
Y8591D01*
X467410Y32000D02*
X468590D01*
X468000Y31409D02*
Y32591D01*
X469410Y12000D02*
X470590D01*
X470000Y11409D02*
Y12591D01*
X467410Y8000D02*
X468590D01*
X468000Y7409D02*
Y8591D01*
X463410Y32000D02*
X464591D01*
X464000Y31409D02*
Y32591D01*
X465410Y12000D02*
X466590D01*
X466000Y11409D02*
Y12591D01*
X463410Y8000D02*
X464591D01*
X464000Y7409D02*
Y8591D01*
X491910Y11000D02*
X493090D01*
X492500Y10409D02*
Y11591D01*
X503909Y9000D02*
X505091D01*
X504500Y8409D02*
Y9591D01*
X501409Y9000D02*
X502591D01*
X502000Y8409D02*
Y9591D01*
X496410Y9000D02*
X497590D01*
X497000Y8409D02*
Y9591D01*
X493910Y9000D02*
X495090D01*
X494500Y8409D02*
Y9591D01*
X325410Y152032D02*
X326590D01*
X326000Y151441D02*
Y152622D01*
X313409Y158031D02*
X314591D01*
X314000Y157441D02*
Y158622D01*
X319910Y182500D02*
X321091D01*
X320500Y181909D02*
Y183091D01*
X279410Y194000D02*
X280591D01*
X280000Y193409D02*
Y194591D01*
X279410Y191500D02*
X280591D01*
X280000Y190909D02*
Y192091D01*
X201409Y36000D02*
X202591D01*
X202000Y35409D02*
Y36591D01*
X199409Y32000D02*
X200591D01*
X200000Y31409D02*
Y32591D01*
X201409Y28000D02*
X202591D01*
X202000Y27409D02*
Y28591D01*
X199409Y24000D02*
X200591D01*
X200000Y23410D02*
Y24590D01*
X201409Y20000D02*
X202591D01*
X202000Y19410D02*
Y20591D01*
X199409Y16000D02*
X200591D01*
X200000Y15409D02*
Y16590D01*
X201409Y12000D02*
X202591D01*
X202000Y11409D02*
Y12591D01*
X199409Y8000D02*
X200591D01*
X200000Y7409D02*
Y8591D01*
X197409Y36000D02*
X198591D01*
X198000Y35409D02*
Y36591D01*
X195409Y32000D02*
X196591D01*
X196000Y31409D02*
Y32591D01*
X197409Y28000D02*
X198591D01*
X198000Y27409D02*
Y28591D01*
X195409Y24000D02*
X196591D01*
X196000Y23410D02*
Y24590D01*
X197409Y20000D02*
X198591D01*
X198000Y19410D02*
Y20591D01*
X195409Y16000D02*
X196591D01*
X196000Y15409D02*
Y16590D01*
X197409Y12000D02*
X198591D01*
X198000Y11409D02*
Y12591D01*
X195409Y8000D02*
X196591D01*
X196000Y7409D02*
Y8591D01*
X193409Y36000D02*
X194591D01*
X194000Y35409D02*
Y36591D01*
X189409Y36000D02*
X190591D01*
X190000Y35409D02*
Y36591D01*
X185409Y36000D02*
X186591D01*
X186000Y35409D02*
Y36591D01*
X181409Y36000D02*
X182591D01*
X182000Y35409D02*
Y36591D01*
X177409Y36000D02*
X178591D01*
X178000Y35409D02*
Y36591D01*
X173409Y36000D02*
X174591D01*
X174000Y35409D02*
Y36591D01*
X169409Y36000D02*
X170591D01*
X170000Y35409D02*
Y36591D01*
X165409Y36000D02*
X166591D01*
X166000Y35409D02*
Y36591D01*
X163409Y32000D02*
X164591D01*
X164000Y31409D02*
Y32591D01*
X165409Y28000D02*
X166591D01*
X166000Y27409D02*
Y28591D01*
X163409Y24000D02*
X164591D01*
X164000Y23410D02*
Y24590D01*
X165409Y20000D02*
X166591D01*
X166000Y19410D02*
Y20591D01*
X163409Y16000D02*
X164591D01*
X164000Y15409D02*
Y16590D01*
X165409Y12000D02*
X166591D01*
X166000Y11409D02*
Y12591D01*
X163409Y8000D02*
X164591D01*
X164000Y7409D02*
Y8591D01*
X161409Y36000D02*
X162591D01*
X162000Y35409D02*
Y36591D01*
X159409Y32000D02*
X160591D01*
X160000Y31409D02*
Y32591D01*
X161409Y28000D02*
X162591D01*
X162000Y27409D02*
Y28591D01*
X159409Y24000D02*
X160591D01*
X160000Y23410D02*
Y24590D01*
X161409Y20000D02*
X162591D01*
X162000Y19410D02*
Y20591D01*
X159409Y16000D02*
X160591D01*
X160000Y15409D02*
Y16590D01*
X161409Y12000D02*
X162591D01*
X162000Y11409D02*
Y12591D01*
X159409Y8000D02*
X160591D01*
X160000Y7409D02*
Y8591D01*
X395409Y80000D02*
X396590D01*
X396000Y79409D02*
Y80590D01*
X391409Y72000D02*
X392590D01*
X392000Y71409D02*
Y72591D01*
X395409Y64000D02*
X396590D01*
X396000Y63410D02*
Y64591D01*
X391409Y56000D02*
X392590D01*
X392000Y55409D02*
Y56590D01*
X395409Y48000D02*
X396590D01*
X396000Y47409D02*
Y48591D01*
X391409Y40000D02*
X392590D01*
X392000Y39409D02*
Y40591D01*
X395409Y32000D02*
X396590D01*
X396000Y31409D02*
Y32591D01*
X395409Y16000D02*
X396590D01*
X396000Y15409D02*
Y16590D01*
X391409Y8000D02*
X392590D01*
X392000Y7409D02*
Y8591D01*
X387409Y80000D02*
X388591D01*
X388000Y79409D02*
Y80590D01*
X383410Y72000D02*
X384591D01*
X384000Y71409D02*
Y72591D01*
X383410Y56000D02*
X384591D01*
X384000Y55409D02*
Y56590D01*
X387409Y48000D02*
X388591D01*
X388000Y47409D02*
Y48591D01*
X383410Y24000D02*
X384591D01*
X384000Y23410D02*
Y24590D01*
X387409Y16000D02*
X388591D01*
X388000Y15409D02*
Y16590D01*
X383410Y8000D02*
X384591D01*
X384000Y7409D02*
Y8591D01*
X379410Y80000D02*
X380591D01*
X380000Y79409D02*
Y80590D01*
X375410Y72000D02*
X376590D01*
X376000Y71409D02*
Y72591D01*
X375410Y56000D02*
X376590D01*
X376000Y55409D02*
Y56590D01*
X379410Y48000D02*
X380591D01*
X380000Y47409D02*
Y48591D01*
X379410Y32000D02*
X380591D01*
X380000Y31409D02*
Y32591D01*
X375410Y24000D02*
X376590D01*
X376000Y23410D02*
Y24590D01*
X379410Y16000D02*
X380591D01*
X380000Y15409D02*
Y16590D01*
X375410Y8000D02*
X376590D01*
X376000Y7409D02*
Y8591D01*
X371410Y80000D02*
X372590D01*
X372000Y79409D02*
Y80590D01*
X367409Y72000D02*
X368590D01*
X368000Y71409D02*
Y72591D01*
X371410Y64000D02*
X372590D01*
X372000Y63410D02*
Y64591D01*
X367409Y56000D02*
X368590D01*
X368000Y55409D02*
Y56590D01*
X367409Y40000D02*
X368590D01*
X368000Y39409D02*
Y40591D01*
X371410Y32000D02*
X372590D01*
X372000Y31409D02*
Y32591D01*
X367409Y24000D02*
X368590D01*
X368000Y23410D02*
Y24590D01*
X371410Y16000D02*
X372590D01*
X372000Y15409D02*
Y16590D01*
X367409Y8000D02*
X368590D01*
X368000Y7409D02*
Y8591D01*
X363409Y80000D02*
X364591D01*
X364000Y79409D02*
Y80590D01*
X359409Y72000D02*
X360591D01*
X360000Y71409D02*
Y72591D01*
X363409Y64000D02*
X364591D01*
X364000Y63410D02*
Y64591D01*
X359409Y56000D02*
X360591D01*
X360000Y55409D02*
Y56590D01*
X359409Y40000D02*
X360591D01*
X360000Y39409D02*
Y40591D01*
X363409Y32000D02*
X364591D01*
X364000Y31409D02*
Y32591D01*
X359409Y24000D02*
X360591D01*
X360000Y23410D02*
Y24590D01*
X363409Y16000D02*
X364591D01*
X364000Y15409D02*
Y16590D01*
X359409Y8000D02*
X360591D01*
X360000Y7409D02*
Y8591D01*
X355410Y80000D02*
X356591D01*
X356000Y79409D02*
Y80590D01*
X351410Y72000D02*
X352590D01*
X352000Y71409D02*
Y72591D01*
X355410Y64000D02*
X356591D01*
X356000Y63410D02*
Y64591D01*
X351410Y56000D02*
X352590D01*
X352000Y55409D02*
Y56590D01*
X351410Y40000D02*
X352590D01*
X352000Y39409D02*
Y40591D01*
X347410Y80000D02*
X348590D01*
X348000Y79409D02*
Y80590D01*
X343409Y72000D02*
X344590D01*
X344000Y71409D02*
Y72591D01*
X347410Y64000D02*
X348590D01*
X348000Y63410D02*
Y64591D01*
X343409Y56000D02*
X344590D01*
X344000Y55409D02*
Y56590D01*
X343409Y40000D02*
X344590D01*
X344000Y39409D02*
Y40591D01*
X339409Y80000D02*
X340591D01*
X340000Y79409D02*
Y80590D01*
X335409Y72000D02*
X336591D01*
X336000Y71409D02*
Y72591D01*
X339409Y64000D02*
X340591D01*
X340000Y63410D02*
Y64591D01*
X335409Y56000D02*
X336591D01*
X336000Y55409D02*
Y56590D01*
X335409Y40000D02*
X336591D01*
X336000Y39409D02*
Y40591D01*
X331410Y80000D02*
X332591D01*
X332000Y79409D02*
Y80590D01*
X327410Y72000D02*
X328590D01*
X328000Y71409D02*
Y72591D01*
X331410Y64000D02*
X332591D01*
X332000Y63410D02*
Y64591D01*
X327410Y56000D02*
X328590D01*
X328000Y55409D02*
Y56590D01*
X327410Y40000D02*
X328590D01*
X328000Y39409D02*
Y40591D01*
X327410Y24000D02*
X328590D01*
X328000Y23410D02*
Y24590D01*
X327410Y8000D02*
X328590D01*
X328000Y7409D02*
Y8591D01*
X323410Y80000D02*
X324590D01*
X324000Y79409D02*
Y80590D01*
X319409Y72000D02*
X320590D01*
X320000Y71409D02*
Y72591D01*
X323410Y64000D02*
X324590D01*
X324000Y63410D02*
Y64591D01*
X319409Y56000D02*
X320590D01*
X320000Y55409D02*
Y56590D01*
X319409Y40000D02*
X320590D01*
X320000Y39409D02*
Y40591D01*
X323410Y32000D02*
X324590D01*
X324000Y31409D02*
Y32591D01*
X319409Y24000D02*
X320590D01*
X320000Y23410D02*
Y24590D01*
X323410Y16000D02*
X324590D01*
X324000Y15409D02*
Y16590D01*
X319409Y8000D02*
X320590D01*
X320000Y7409D02*
Y8591D01*
X315409Y80000D02*
X316590D01*
X316000Y79409D02*
Y80590D01*
X311409Y56000D02*
X312591D01*
X312000Y55409D02*
Y56590D01*
X311409Y40000D02*
X312591D01*
X312000Y39409D02*
Y40591D01*
X315409Y32000D02*
X316590D01*
X316000Y31409D02*
Y32591D01*
X311409Y24000D02*
X312591D01*
X312000Y23410D02*
Y24590D01*
X315409Y16000D02*
X316590D01*
X316000Y15409D02*
Y16590D01*
X311409Y8000D02*
X312591D01*
X312000Y7409D02*
Y8591D01*
X307410Y80000D02*
X308591D01*
X308000Y79409D02*
Y80590D01*
X303410Y72000D02*
X304591D01*
X304000Y71409D02*
Y72591D01*
X303410Y56000D02*
X304591D01*
X304000Y55409D02*
Y56590D01*
X303410Y40000D02*
X304591D01*
X304000Y39409D02*
Y40591D01*
X307410Y32000D02*
X308591D01*
X308000Y31409D02*
Y32591D01*
X303410Y24000D02*
X304591D01*
X304000Y23410D02*
Y24590D01*
X307410Y16000D02*
X308591D01*
X308000Y15409D02*
Y16590D01*
X303410Y8000D02*
X304591D01*
X304000Y7409D02*
Y8591D01*
X299410Y80000D02*
X300590D01*
X300000Y79409D02*
Y80590D01*
X295409Y72000D02*
X296590D01*
X296000Y71409D02*
Y72591D01*
X299410Y64000D02*
X300590D01*
X300000Y63410D02*
Y64591D01*
X295409Y56000D02*
X296590D01*
X296000Y55409D02*
Y56590D01*
X295409Y40000D02*
X296590D01*
X296000Y39409D02*
Y40591D01*
X299410Y32000D02*
X300590D01*
X300000Y31409D02*
Y32591D01*
X295409Y24000D02*
X296590D01*
X296000Y23410D02*
Y24590D01*
X299410Y16000D02*
X300590D01*
X300000Y15409D02*
Y16590D01*
X295409Y8000D02*
X296590D01*
X296000Y7409D02*
Y8591D01*
X291409Y80000D02*
X292590D01*
X292000Y79409D02*
Y80590D01*
X287409Y72000D02*
X288591D01*
X288000Y71409D02*
Y72591D01*
X291409Y64000D02*
X292590D01*
X292000Y63410D02*
Y64591D01*
X287409Y56000D02*
X288591D01*
X288000Y55409D02*
Y56590D01*
X287409Y40000D02*
X288591D01*
X288000Y39409D02*
Y40591D01*
X291409Y32000D02*
X292590D01*
X292000Y31409D02*
Y32591D01*
X287409Y24000D02*
X288591D01*
X288000Y23410D02*
Y24590D01*
X291409Y16000D02*
X292590D01*
X292000Y15409D02*
Y16590D01*
X287409Y8000D02*
X288591D01*
X288000Y7409D02*
Y8591D01*
X11909Y183500D02*
X13091D01*
X12500Y182909D02*
Y184091D01*
X305698Y203343D02*
X306879D01*
X306288Y202752D02*
Y203933D01*
X310409Y203281D02*
X311591D01*
X311000Y202691D02*
Y203872D01*
X302950Y203281D02*
X304131D01*
X303541Y202691D02*
Y203872D01*
X217409Y181500D02*
X218590D01*
X218000Y180909D02*
Y182091D01*
X228924Y181485D02*
X230106D01*
X229515Y180894D02*
Y182076D01*
X259910Y181500D02*
X261090D01*
X260500Y180909D02*
Y182091D01*
X279909Y181500D02*
X281090D01*
X280500Y180909D02*
Y182091D01*
X9409Y177000D02*
X10591D01*
X10000Y176409D02*
Y177591D01*
X285409Y129532D02*
X286591D01*
X286000Y128941D02*
Y130122D01*
X22410Y153000D02*
X23591D01*
X23000Y152409D02*
Y153591D01*
X277909Y148031D02*
X279090D01*
X278500Y147441D02*
Y148622D01*
X270409Y150531D02*
X271590D01*
X271000Y149941D02*
Y151122D01*
X273410Y150531D02*
X274590D01*
X274000Y149941D02*
Y151122D01*
X275909Y150531D02*
X277091D01*
X276500Y149941D02*
Y151122D01*
X281909Y149031D02*
X283090D01*
X282500Y148441D02*
Y149622D01*
X468500Y66031D02*
X470500D01*
X469500Y65031D02*
Y67032D01*
X70000Y294000D02*
X80000D01*
X75000Y289000D02*
Y299000D01*
X131504Y204095D02*
X132685D01*
X132095Y203504D02*
Y204685D01*
X295910Y218500D02*
X297091D01*
X296500Y217910D02*
Y219091D01*
X305909Y222000D02*
X307090D01*
X306500Y221410D02*
Y222590D01*
X309409Y224500D02*
X310591D01*
X310000Y223909D02*
Y225091D01*
X302909Y227000D02*
X304090D01*
X303500Y226410D02*
Y227590D01*
X292409Y229000D02*
X293590D01*
X293000Y228410D02*
Y229591D01*
X320250Y204500D02*
X321750D01*
X321000Y203750D02*
Y205250D01*
X295910Y203281D02*
X297091D01*
X296500Y202691D02*
Y203872D01*
X292476Y203216D02*
X293657D01*
X293066Y202625D02*
Y203806D01*
X15000Y116750D02*
X25000D01*
X20000Y111750D02*
Y121750D01*
X15000Y226750D02*
X25000D01*
X20000Y221750D02*
Y231750D01*
X90000Y319000D02*
X105000D01*
X97500Y311500D02*
Y326500D01*
X70000Y79000D02*
X80000D01*
X75000Y74000D02*
Y84000D01*
X531000Y319000D02*
X554000D01*
X542500Y307500D02*
Y330500D01*
X90000Y94000D02*
X105000D01*
X97500Y86500D02*
Y101500D01*
X531000Y39000D02*
X554000D01*
X542500Y27500D02*
Y50500D01*
X547500Y214000D02*
X557500D01*
X552500Y209000D02*
Y219000D01*
X547500Y149000D02*
X557500D01*
X552500Y144000D02*
Y154000D01*
X500910Y78531D02*
X502091D01*
X501500Y77941D02*
Y79122D01*
X500910Y104532D02*
X502091D01*
X501500Y103941D02*
Y105122D01*
X500910Y92032D02*
X502091D01*
X501500Y91441D02*
Y92622D01*
X467909Y87032D02*
X469091D01*
X468500Y86441D02*
Y87622D01*
X467909Y95031D02*
X469091D01*
X468500Y94441D02*
Y95622D01*
X460409Y91031D02*
X461590D01*
X461000Y90441D02*
Y91622D01*
X460910Y114532D02*
X462090D01*
X461500Y113941D02*
Y115122D01*
X460910Y67532D02*
X462090D01*
X461500Y66941D02*
Y68122D01*
X516409Y34532D02*
X517591D01*
X517000Y33941D02*
Y35122D01*
X519909Y34532D02*
X521091D01*
X520500Y33941D02*
Y35122D01*
X471410Y41032D02*
X472590D01*
X472000Y40441D02*
Y41622D01*
X466409Y35531D02*
X467591D01*
X467000Y34941D02*
Y36122D01*
X471410Y30031D02*
X472590D01*
X472000Y29441D02*
Y30622D01*
X461410Y172031D02*
X462591D01*
X462000Y171441D02*
Y172622D01*
X461410Y156032D02*
X462591D01*
X462000Y155441D02*
Y156622D01*
X478909Y267531D02*
X480091D01*
X479500Y266941D02*
Y268122D01*
X474909Y262531D02*
X476090D01*
X475500Y261941D02*
Y263122D01*
X496410Y306031D02*
X497590D01*
X497000Y305441D02*
Y306622D01*
X492909Y308032D02*
X494091D01*
X493500Y307441D02*
Y308622D01*
X489910Y308032D02*
X491090D01*
X490500Y307441D02*
Y308622D01*
X486909Y308032D02*
X488091D01*
X487500Y307441D02*
Y308622D01*
X483410Y306031D02*
X484590D01*
X484000Y305441D02*
Y306622D01*
X479410Y290032D02*
X480590D01*
X480000Y289441D02*
Y290622D01*
X499909Y291531D02*
X501090D01*
X500500Y290941D02*
Y292122D01*
X514409Y284032D02*
X515590D01*
X515000Y283441D02*
Y284622D01*
X509909Y284032D02*
X511091D01*
X510500Y283441D02*
Y284622D01*
X505909Y284032D02*
X507091D01*
X506500Y283441D02*
Y284622D01*
X501409Y284032D02*
X502591D01*
X502000Y283441D02*
Y284622D01*
X477910Y278031D02*
X479090D01*
X478500Y277441D02*
Y278622D01*
X473910Y278031D02*
X475091D01*
X474500Y277441D02*
Y278622D01*
X480909Y285531D02*
X482091D01*
X481500Y284941D02*
Y286122D01*
X344409Y158031D02*
X345590D01*
X345000Y157441D02*
Y158622D01*
X340409Y158031D02*
X341590D01*
X341000Y157441D02*
Y158622D01*
X344409Y164032D02*
X345590D01*
X345000Y163441D02*
Y164622D01*
X340409Y164032D02*
X341590D01*
X341000Y163441D02*
Y164622D01*
X340910Y175531D02*
X342091D01*
X341500Y174941D02*
Y176122D01*
X334910Y175531D02*
X336090D01*
X335500Y174941D02*
Y176122D01*
X334910Y180032D02*
X336090D01*
X335500Y179441D02*
Y180622D01*
X340910Y180532D02*
X342091D01*
X341500Y179941D02*
Y181122D01*
X344409Y186031D02*
X345590D01*
X345000Y185441D02*
Y186622D01*
X340910Y192032D02*
X342091D01*
X341500Y191441D02*
Y192622D01*
X332410Y192532D02*
X333591D01*
X333000Y191941D02*
Y193122D01*
X332410Y197031D02*
X333591D01*
X333000Y196441D02*
Y197622D01*
X279410Y189032D02*
X280591D01*
X280000Y188441D02*
Y189622D01*
X273909Y193032D02*
X275091D01*
X274500Y192441D02*
Y193622D01*
X260910Y189032D02*
X262090D01*
X261500Y188441D02*
Y189622D01*
X266409Y193032D02*
X267590D01*
X267000Y192441D02*
Y193622D01*
X273410Y172531D02*
X274590D01*
X274000Y171941D02*
Y173122D01*
X270409Y172531D02*
X271590D01*
X271000Y171941D02*
Y173122D01*
X267409Y172531D02*
X268590D01*
X268000Y171941D02*
Y173122D01*
X264910Y172531D02*
X266090D01*
X265500Y171941D02*
Y173122D01*
X289409Y124531D02*
X290591D01*
X290000Y123941D02*
Y125122D01*
X312409Y116032D02*
X313591D01*
X313000Y115441D02*
Y116622D01*
X316409Y129532D02*
X317590D01*
X317000Y128941D02*
Y130122D01*
X316409Y122031D02*
X317590D01*
X317000Y121441D02*
Y122622D01*
X285409Y133031D02*
X286591D01*
X286000Y132441D02*
Y133622D01*
X331909Y135031D02*
X333090D01*
X332500Y134441D02*
Y135622D01*
X321410Y135031D02*
X322590D01*
X322000Y134441D02*
Y135622D01*
X316910Y135031D02*
X318091D01*
X317500Y134441D02*
Y135622D01*
X312409Y135031D02*
X313591D01*
X313000Y134441D02*
Y135622D01*
X278410Y141532D02*
X279591D01*
X279000Y140941D02*
Y142122D01*
X285409Y139032D02*
X286591D01*
X286000Y138441D02*
Y139622D01*
X288409Y139032D02*
X289591D01*
X289000Y138441D02*
Y139622D01*
X291409Y139032D02*
X292590D01*
X292000Y138441D02*
Y139622D01*
X329410Y158031D02*
X330591D01*
X330000Y157441D02*
Y158622D01*
X331909Y155032D02*
X333090D01*
X332500Y154441D02*
Y155622D01*
X336910Y143032D02*
X338090D01*
X337500Y142441D02*
Y143622D01*
X326909Y135031D02*
X328091D01*
X327500Y134441D02*
Y135622D01*
X294409Y156532D02*
X295590D01*
X295000Y155941D02*
Y157122D01*
X294409Y153532D02*
X295590D01*
X295000Y152941D02*
Y154122D01*
X496910Y250532D02*
X498091D01*
X497500Y249941D02*
Y251122D01*
X487409Y280031D02*
X488590D01*
X488000Y279441D02*
Y280622D01*
X492909Y282031D02*
X494091D01*
X493500Y281441D02*
Y282622D01*
X474909Y252532D02*
X476090D01*
X475500Y251941D02*
Y253122D01*
X297410Y146531D02*
X298590D01*
X298000Y145941D02*
Y147122D01*
X275909Y139032D02*
X277091D01*
X276500Y138441D02*
Y139622D01*
X306909Y142032D02*
X308090D01*
X307500Y141441D02*
Y142622D01*
X306909Y139032D02*
X308090D01*
X307500Y138441D02*
Y139622D01*
X309409Y137031D02*
X310591D01*
X310000Y136441D02*
Y137622D01*
X278410Y171031D02*
X279591D01*
X279000Y170441D02*
Y171622D01*
X280410Y174031D02*
X281591D01*
X281000Y173441D02*
Y174622D01*
X486410Y243531D02*
X487591D01*
X487000Y242941D02*
Y244122D01*
X348250Y168032D02*
X349750D01*
X349000Y167281D02*
Y168781D01*
X348250Y101031D02*
X349750D01*
X349000Y100282D02*
Y101781D01*
X325410Y161531D02*
X326590D01*
X326000Y160941D02*
Y162122D01*
X304250Y101031D02*
X305750D01*
X305000Y100282D02*
Y101781D01*
X266250Y101031D02*
X267750D01*
X267000Y100282D02*
Y101781D01*
X300909Y157531D02*
X302091D01*
X301500Y156941D02*
Y158122D01*
X298410Y157531D02*
X299590D01*
X299000Y156941D02*
Y158122D01*
X298909Y149031D02*
X300091D01*
X299500Y148441D02*
Y149622D01*
X301410Y133531D02*
X302590D01*
X302000Y132941D02*
Y134122D01*
X281909Y169032D02*
X283090D01*
X282500Y168441D02*
Y169622D01*
X277909Y157531D02*
X279090D01*
X278500Y156941D02*
Y158122D01*
X291167Y164774D02*
X292348D01*
X291758Y164183D02*
Y165364D01*
X493910Y26032D02*
X495090D01*
X494500Y25441D02*
Y26622D01*
M02*
