G04*
G04 #@! TF.GenerationSoftware,Altium Limited,Altium Designer,25.2.1 (25)*
G04*
G04 Layer_Color=32896*
%FSLAX25Y25*%
%MOIN*%
G70*
G04*
G04 #@! TF.SameCoordinates,85CC1250-A9D5-4C62-828A-8F390AD69E0A*
G04*
G04*
G04 #@! TF.FilePolarity,Positive*
G04*
G01*
G75*
%ADD11C,0.00394*%
%ADD100C,0.00197*%
D11*
X310201Y135945D02*
X335595D01*
X310201D02*
Y150118D01*
X335595D01*
Y135945D02*
Y150118D01*
X342342Y152311D02*
Y169240D01*
X326988Y152311D02*
X342342D01*
X326988D02*
Y169240D01*
X342342D01*
D100*
X28997Y163685D02*
X36004D01*
Y175181D01*
X28997D02*
X36004D01*
X28997Y163685D02*
Y175181D01*
X467996Y15784D02*
X475004D01*
X467996D02*
Y27279D01*
X475004Y15784D02*
Y27279D01*
X467996D02*
X475004D01*
X460496Y15784D02*
X467504D01*
X460496D02*
Y27279D01*
X467504Y15784D02*
Y27279D01*
X460496D02*
X467504D01*
X477752Y21028D02*
Y28035D01*
Y21028D02*
X489248D01*
Y28035D01*
X477752D02*
X489248D01*
X477752Y28528D02*
Y35535D01*
Y28528D02*
X489248D01*
Y35535D01*
X477752D02*
X489248D01*
X459752Y106028D02*
Y113035D01*
X471248D01*
X459752Y106028D02*
X471248D01*
Y113035D01*
X459752Y70028D02*
Y77035D01*
X471248D01*
X459752Y70028D02*
X471248D01*
Y77035D01*
X472496Y284283D02*
X479504D01*
Y295779D01*
X472496D02*
X479504D01*
X472496Y284283D02*
Y295779D01*
X500996Y286283D02*
X508004D01*
Y297779D01*
X500996D02*
X508004D01*
X500996Y286283D02*
Y297779D01*
X508996Y286347D02*
X516004D01*
Y297843D01*
X508996D02*
X516004D01*
X508996Y286347D02*
Y297843D01*
X138504Y115752D02*
Y127248D01*
X131496Y115752D02*
X138504D01*
X131496D02*
Y127248D01*
X138504D01*
X294752Y159028D02*
Y166035D01*
Y159028D02*
X306248D01*
Y166035D01*
X294752D02*
X306248D01*
X330748Y187028D02*
Y194035D01*
X319252D02*
X330748D01*
X319252Y187028D02*
Y194035D01*
Y187028D02*
X330748D01*
X288004Y202284D02*
Y213779D01*
X280996Y202284D02*
X288004D01*
X280996D02*
Y213779D01*
X288004D01*
X330748Y194528D02*
Y201535D01*
X319252D02*
X330748D01*
X319252Y194528D02*
Y201535D01*
Y194528D02*
X330748D01*
X263496Y166783D02*
X270504D01*
Y178279D01*
X263496D02*
X270504D01*
X263496Y166783D02*
Y178279D01*
X270996Y166783D02*
X278004D01*
Y178279D01*
X270996D02*
X278004D01*
X270996Y166783D02*
Y178279D01*
Y190779D02*
X278004D01*
X270996Y179283D02*
Y190779D01*
Y179283D02*
X278004D01*
Y190779D01*
X263496D02*
X270504D01*
X263496Y179283D02*
Y190779D01*
Y179283D02*
X270504D01*
Y190779D01*
X309996Y151784D02*
X317004D01*
Y163279D01*
X309996D02*
X317004D01*
X309996Y151784D02*
Y163279D01*
X317496Y151784D02*
Y163279D01*
X324504D01*
Y151784D02*
Y163279D01*
X317496Y151784D02*
X324504D01*
X343248Y182528D02*
Y189535D01*
X331752D02*
X343248D01*
X331752Y182528D02*
Y189535D01*
Y182528D02*
X343248D01*
X311504Y204252D02*
Y215748D01*
X304496Y204252D02*
X311504D01*
X304496D02*
Y215748D01*
X311504D01*
X326496Y181780D02*
X333504D01*
X326496Y170283D02*
Y181780D01*
Y170283D02*
X333504D01*
Y181780D01*
X288252Y126528D02*
Y133535D01*
Y126528D02*
X299748D01*
Y133535D01*
X288252D02*
X299748D01*
X314685Y118528D02*
Y125535D01*
X303189D02*
X314685D01*
X303189Y118528D02*
Y125535D01*
Y118528D02*
X314685D01*
X314748Y126028D02*
Y133035D01*
X303252D02*
X314748D01*
X303252Y126028D02*
Y133035D01*
Y126028D02*
X314748D01*
X34748Y183496D02*
Y190504D01*
X23252D02*
X34748D01*
X23252Y183496D02*
Y190504D01*
Y183496D02*
X34748D01*
M02*
