G04*
G04 #@! TF.GenerationSoftware,Altium Limited,Altium Designer,25.2.1 (25)*
G04*
G04 Layer_Color=8388736*
%FSLAX25Y25*%
%MOIN*%
G70*
G04*
G04 #@! TF.SameCoordinates,85CC1250-A9D5-4C62-828A-8F390AD69E0A*
G04*
G04*
G04 #@! TF.FilePolarity,Negative*
G04*
G01*
G75*
%ADD23R,0.01200X0.03200*%
%ADD24R,0.03200X0.01200*%
%ADD26R,0.04700X0.04000*%
%ADD27R,0.01200X0.01800*%
%ADD28R,0.01800X0.01200*%
%ADD30R,0.05700X0.04600*%
%ADD34R,0.04000X0.04700*%
G04:AMPARAMS|DCode=35|XSize=40mil|YSize=47mil|CornerRadius=0mil|HoleSize=0mil|Usage=FLASHONLY|Rotation=315.000|XOffset=0mil|YOffset=0mil|HoleType=Round|Shape=Rectangle|*
%AMROTATEDRECTD35*
4,1,4,-0.03076,-0.00248,0.00248,0.03076,0.03076,0.00248,-0.00248,-0.03076,-0.03076,-0.00248,0.0*
%
%ADD35ROTATEDRECTD35*%

%ADD36R,0.01384X0.02270*%
%ADD37R,0.02270X0.01384*%
%ADD38R,0.03950X0.03950*%
%ADD39R,0.05524X0.07099*%
%ADD40R,0.08500X0.12400*%
%ADD41R,0.25600X0.25600*%
G04:AMPARAMS|DCode=42|XSize=55.64mil|YSize=31.23mil|CornerRadius=9.81mil|HoleSize=0mil|Usage=FLASHONLY|Rotation=270.000|XOffset=0mil|YOffset=0mil|HoleType=Round|Shape=RoundedRectangle|*
%AMROUNDEDRECTD42*
21,1,0.05564,0.01161,0,0,270.0*
21,1,0.03602,0.03123,0,0,270.0*
1,1,0.01961,-0.00581,-0.01801*
1,1,0.01961,-0.00581,0.01801*
1,1,0.01961,0.00581,0.01801*
1,1,0.01961,0.00581,-0.01801*
%
%ADD42ROUNDEDRECTD42*%
%ADD43R,0.00781X0.00781*%
%ADD44R,0.03750X0.04143*%
%ADD45R,0.06587X0.03241*%
%ADD46R,0.03241X0.06587*%
%ADD47R,0.06737X0.06737*%
%ADD48C,0.06737*%
%ADD49R,0.09658X0.09658*%
%ADD50C,0.09658*%
%ADD51C,0.06200*%
%ADD52C,0.14383*%
%ADD53C,0.13280*%
%ADD54C,0.10209*%
%ADD55C,0.08477*%
%ADD56C,0.07296*%
%ADD57C,0.13000*%
%ADD58C,0.20000*%
%ADD59C,0.26000*%
G36*
X492000Y288831D02*
X489000D01*
Y285981D01*
X490000D01*
Y287281D01*
X491000D01*
Y285981D01*
X492000D01*
Y288831D01*
D02*
G37*
G36*
Y301232D02*
X489000D01*
Y304082D01*
X490000D01*
Y302782D01*
X491000D01*
Y304082D01*
X492000D01*
Y301232D01*
D02*
G37*
D23*
X487547Y286382D02*
D03*
Y303681D02*
D03*
X493453D02*
D03*
Y286382D02*
D03*
D24*
X483800Y288142D02*
D03*
Y290110D02*
D03*
Y292079D02*
D03*
Y294047D02*
D03*
Y296016D02*
D03*
Y297984D02*
D03*
Y299953D02*
D03*
Y301921D02*
D03*
X497200D02*
D03*
Y299953D02*
D03*
Y297984D02*
D03*
Y296016D02*
D03*
Y294047D02*
D03*
Y292079D02*
D03*
Y290110D02*
D03*
Y288142D02*
D03*
D26*
X18000Y159850D02*
D03*
Y153150D02*
D03*
X483500Y276850D02*
D03*
Y270150D02*
D03*
X282500Y160881D02*
D03*
Y154182D02*
D03*
X290000D02*
D03*
Y160881D02*
D03*
D27*
X17547Y179520D02*
D03*
X19516D02*
D03*
X21484D02*
D03*
X23453D02*
D03*
Y169480D02*
D03*
X21484D02*
D03*
X19516D02*
D03*
X17547D02*
D03*
D28*
X25520Y177453D02*
D03*
Y175484D02*
D03*
Y173516D02*
D03*
Y171547D02*
D03*
X15480D02*
D03*
Y173516D02*
D03*
Y175484D02*
D03*
Y177453D02*
D03*
D30*
X323000Y178450D02*
D03*
Y171550D02*
D03*
D34*
X273850Y162531D02*
D03*
X267150D02*
D03*
X273850Y155532D02*
D03*
X267150D02*
D03*
X283150Y143032D02*
D03*
X289850D02*
D03*
D35*
X486762Y206769D02*
D03*
X491500Y202031D02*
D03*
X481131Y200900D02*
D03*
X485869Y196163D02*
D03*
D36*
X298031Y143532D02*
D03*
X300000D02*
D03*
X301969D02*
D03*
Y136346D02*
D03*
X300000D02*
D03*
X298031D02*
D03*
D37*
X304577Y142892D02*
D03*
Y140923D02*
D03*
Y138955D02*
D03*
Y136986D02*
D03*
X295423D02*
D03*
Y138955D02*
D03*
Y140923D02*
D03*
Y142892D02*
D03*
D38*
X502500Y196681D02*
D03*
Y190382D02*
D03*
D39*
X327524Y143032D02*
D03*
X316500D02*
D03*
D40*
X490500Y295031D02*
D03*
D41*
X300000Y184531D02*
D03*
D42*
X487240Y252591D02*
D03*
X479760D02*
D03*
Y262472D02*
D03*
X483500D02*
D03*
X487240D02*
D03*
D43*
X305500Y152032D02*
D03*
X307469D02*
D03*
Y154342D02*
D03*
X305500D02*
D03*
X307469Y156653D02*
D03*
X305500D02*
D03*
D44*
X332500Y163531D02*
D03*
Y158020D02*
D03*
X336831D02*
D03*
Y163531D02*
D03*
D45*
X32500Y173370D02*
D03*
Y165496D02*
D03*
X476000Y293969D02*
D03*
Y286094D02*
D03*
X504500Y295969D02*
D03*
Y288094D02*
D03*
X512500Y296031D02*
D03*
Y288158D02*
D03*
X135000Y125437D02*
D03*
Y117563D02*
D03*
X284500Y211968D02*
D03*
Y204095D02*
D03*
X267000Y176469D02*
D03*
Y168595D02*
D03*
X274500Y176469D02*
D03*
Y168595D02*
D03*
Y181095D02*
D03*
Y188969D02*
D03*
X267000Y181095D02*
D03*
Y188969D02*
D03*
X313500Y161469D02*
D03*
Y153595D02*
D03*
X321000D02*
D03*
Y161469D02*
D03*
X308000Y213937D02*
D03*
Y206063D02*
D03*
X330000Y172095D02*
D03*
Y179969D02*
D03*
D46*
X487437Y24532D02*
D03*
X479563D02*
D03*
X487437Y32032D02*
D03*
X479563D02*
D03*
X304437Y162531D02*
D03*
X296563D02*
D03*
X321063Y190532D02*
D03*
X328937D02*
D03*
X321063Y198031D02*
D03*
X328937D02*
D03*
X333563Y186031D02*
D03*
X341437D02*
D03*
X297937Y130032D02*
D03*
X290063D02*
D03*
X305000Y122031D02*
D03*
X312874D02*
D03*
X305063Y129532D02*
D03*
X312937D02*
D03*
X25063Y187000D02*
D03*
X32937D02*
D03*
D47*
X125295Y113142D02*
D03*
D48*
X99705D02*
D03*
X125295Y130858D02*
D03*
X99705D02*
D03*
D49*
X479205Y168748D02*
D03*
D50*
Y133315D02*
D03*
X504795D02*
D03*
Y168748D02*
D03*
X479205Y151031D02*
D03*
X504795D02*
D03*
D51*
X100000Y59000D02*
D03*
X110000D02*
D03*
X120000D02*
D03*
D52*
X287917Y282193D02*
D03*
X150083Y64870D02*
D03*
X311701Y64713D02*
D03*
X449535Y282035D02*
D03*
D53*
X219000Y282193D02*
D03*
Y64870D02*
D03*
X380618Y64713D02*
D03*
Y282035D02*
D03*
D54*
X150083Y314555D02*
D03*
X311701Y314398D02*
D03*
D55*
X484500Y328031D02*
D03*
X494500D02*
D03*
D56*
X60500Y127500D02*
D03*
X50500D02*
D03*
X60500Y137500D02*
D03*
X50500D02*
D03*
X60500Y147500D02*
D03*
X50500D02*
D03*
X60500Y157500D02*
D03*
X50500D02*
D03*
X60500Y167500D02*
D03*
X50500D02*
D03*
X60500Y177500D02*
D03*
X50500D02*
D03*
X60500Y187500D02*
D03*
X50500D02*
D03*
Y197500D02*
D03*
X60500D02*
D03*
X50500Y207500D02*
D03*
X60500D02*
D03*
X50500Y217500D02*
D03*
X60500D02*
D03*
D57*
X75000Y294000D02*
D03*
X20000Y116750D02*
D03*
Y226750D02*
D03*
X75000Y79000D02*
D03*
X552500Y214000D02*
D03*
Y149000D02*
D03*
D58*
X97500Y319000D02*
D03*
Y94000D02*
D03*
D59*
X542500Y319000D02*
D03*
Y39000D02*
D03*
M02*
