G04*
G04 #@! TF.GenerationSoftware,Altium Limited,Altium Designer,25.2.1 (25)*
G04*
G04 Layer_Color=255*
%FSLAX25Y25*%
%MOIN*%
G70*
G04*
G04 #@! TF.SameCoordinates,85CC1250-A9D5-4C62-828A-8F390AD69E0A*
G04*
G04*
G04 #@! TF.FilePolarity,Positive*
G04*
G01*
G75*
%ADD26R,0.04700X0.04000*%
%ADD32R,0.05787X0.02441*%
%ADD33R,0.02441X0.05787*%
%ADD34R,0.04000X0.04700*%
%ADD51C,0.06200*%
%ADD71R,0.05937X0.05937*%
%ADD72C,0.05937*%
%ADD73R,0.08858X0.08858*%
%ADD74C,0.08858*%
%ADD75C,0.13583*%
%ADD76C,0.12480*%
%ADD77C,0.09409*%
%ADD78C,0.07677*%
%ADD79C,0.06496*%
%ADD85R,0.41200X0.41000*%
%ADD86R,0.10600X0.04000*%
%ADD87R,0.02953X0.05906*%
%ADD88R,0.01968X0.01968*%
%ADD89R,0.00984X0.01968*%
%ADD90R,0.03150X0.00984*%
G04:AMPARAMS|DCode=91|XSize=31.5mil|YSize=9.84mil|CornerRadius=1.97mil|HoleSize=0mil|Usage=FLASHONLY|Rotation=180.000|XOffset=0mil|YOffset=0mil|HoleType=Round|Shape=RoundedRectangle|*
%AMROUNDEDRECTD91*
21,1,0.03150,0.00591,0,0,180.0*
21,1,0.02756,0.00984,0,0,180.0*
1,1,0.00394,-0.01378,0.00295*
1,1,0.00394,0.01378,0.00295*
1,1,0.00394,0.01378,-0.00295*
1,1,0.00394,-0.01378,-0.00295*
%
%ADD91ROUNDEDRECTD91*%
G04:AMPARAMS|DCode=92|XSize=11.81mil|YSize=21.65mil|CornerRadius=1.95mil|HoleSize=0mil|Usage=FLASHONLY|Rotation=180.000|XOffset=0mil|YOffset=0mil|HoleType=Round|Shape=RoundedRectangle|*
%AMROUNDEDRECTD92*
21,1,0.01181,0.01776,0,0,180.0*
21,1,0.00791,0.02165,0,0,180.0*
1,1,0.00390,-0.00396,0.00888*
1,1,0.00390,0.00396,0.00888*
1,1,0.00390,0.00396,-0.00888*
1,1,0.00390,-0.00396,-0.00888*
%
%ADD92ROUNDEDRECTD92*%
%ADD93R,0.25000X0.28898*%
D26*
X506500Y15181D02*
D03*
Y21881D02*
D03*
X480000Y58881D02*
D03*
Y52182D02*
D03*
X499000Y15181D02*
D03*
Y21881D02*
D03*
X465500Y182731D02*
D03*
Y176031D02*
D03*
Y168382D02*
D03*
Y161681D02*
D03*
D32*
X471500Y17594D02*
D03*
Y25469D02*
D03*
X464000Y17594D02*
D03*
Y25469D02*
D03*
D33*
X461563Y109531D02*
D03*
X469437D02*
D03*
X461563Y73532D02*
D03*
X469437D02*
D03*
D34*
X478850Y35531D02*
D03*
X472150D02*
D03*
X498650Y29032D02*
D03*
X505350D02*
D03*
X512500D02*
D03*
X519200D02*
D03*
D51*
X100000Y59000D02*
D03*
X110000D02*
D03*
X120000D02*
D03*
D71*
X125295Y113142D02*
D03*
D72*
X99705D02*
D03*
X125295Y130858D02*
D03*
X99705D02*
D03*
D73*
X479205Y168748D02*
D03*
D74*
Y133315D02*
D03*
X504795D02*
D03*
Y168748D02*
D03*
X479205Y151031D02*
D03*
X504795D02*
D03*
D75*
X287917Y282193D02*
D03*
X150083Y64870D02*
D03*
X311701Y64713D02*
D03*
X449535Y282035D02*
D03*
D76*
X219000Y282193D02*
D03*
Y64870D02*
D03*
X380618Y64713D02*
D03*
Y282035D02*
D03*
D77*
X150083Y314555D02*
D03*
X311701Y314398D02*
D03*
D78*
X484500Y328031D02*
D03*
X494500D02*
D03*
D79*
X60500Y127500D02*
D03*
X50500D02*
D03*
X60500Y137500D02*
D03*
X50500D02*
D03*
X60500Y147500D02*
D03*
X50500D02*
D03*
X60500Y157500D02*
D03*
X50500D02*
D03*
X60500Y167500D02*
D03*
X50500D02*
D03*
X60500Y177500D02*
D03*
X50500D02*
D03*
X60500Y187500D02*
D03*
X50500D02*
D03*
Y197500D02*
D03*
X60500D02*
D03*
X50500Y207500D02*
D03*
X60500D02*
D03*
X50500Y217500D02*
D03*
X60500D02*
D03*
D85*
X501600Y91031D02*
D03*
D86*
X468400Y101031D02*
D03*
Y91031D02*
D03*
Y81032D02*
D03*
D87*
X479760Y16250D02*
D03*
X487240D02*
D03*
D88*
X479366Y25354D02*
D03*
D89*
X480350Y28996D02*
D03*
X486650D02*
D03*
D90*
X488815Y22354D02*
D03*
D91*
X489209Y26339D02*
D03*
Y24370D02*
D03*
D92*
X484386Y29094D02*
D03*
D93*
X256618Y328374D02*
D03*
X181382D02*
D03*
X256618Y18689D02*
D03*
X181382D02*
D03*
X343000Y18531D02*
D03*
X418236D02*
D03*
X343000Y328217D02*
D03*
X418236D02*
D03*
M02*
