G04*
G04 #@! TF.GenerationSoftware,Altium Limited,Altium Designer,25.8.1 (18)*
G04*
G04 Layer_Color=255*
%FSLAX25Y25*%
%MOIN*%
G70*
G04*
G04 #@! TF.SameCoordinates,67F45A81-E337-433C-A550-62EA9ADE51A4*
G04*
G04*
G04 #@! TF.FilePolarity,Positive*
G04*
G01*
G75*
%ADD25R,0.04700X0.04000*%
%ADD41C,0.03543*%
%ADD42C,0.05512*%
%ADD43C,0.06000*%
%ADD44C,0.07677*%
D25*
X263000Y184150D02*
D03*
Y190850D02*
D03*
X197500Y159350D02*
D03*
Y152650D02*
D03*
X189000Y178850D02*
D03*
Y172150D02*
D03*
X259500Y230150D02*
D03*
Y236850D02*
D03*
D41*
X245500Y122500D02*
D03*
Y132500D02*
D03*
Y142500D02*
D03*
Y152500D02*
D03*
Y162500D02*
D03*
Y172500D02*
D03*
Y182500D02*
D03*
X175500D02*
D03*
Y172500D02*
D03*
Y162500D02*
D03*
Y152500D02*
D03*
Y142500D02*
D03*
Y132500D02*
D03*
Y122500D02*
D03*
X245500Y127500D02*
D03*
Y137500D02*
D03*
Y147500D02*
D03*
Y157500D02*
D03*
Y167500D02*
D03*
Y177500D02*
D03*
X175500D02*
D03*
Y167500D02*
D03*
Y157500D02*
D03*
D42*
X240500Y122500D02*
D03*
Y132500D02*
D03*
Y142500D02*
D03*
Y152500D02*
D03*
Y162500D02*
D03*
Y172500D02*
D03*
Y182500D02*
D03*
X180500D02*
D03*
Y172500D02*
D03*
Y162500D02*
D03*
Y152500D02*
D03*
Y142500D02*
D03*
Y132500D02*
D03*
Y122500D02*
D03*
D43*
X206500Y159500D02*
D03*
X112000Y210500D02*
D03*
Y190500D02*
D03*
X162000Y180500D02*
D03*
Y220500D02*
D03*
Y190500D02*
D03*
Y210500D02*
D03*
Y200500D02*
D03*
D44*
X179500Y243000D02*
D03*
X189500D02*
D03*
M02*
