G04*
G04 #@! TF.GenerationSoftware,Altium Limited,Altium Designer,25.2.1 (25)*
G04*
G04 Layer_Color=16711935*
%FSLAX25Y25*%
%MOIN*%
G70*
G04*
G04 #@! TF.SameCoordinates,2F33FC32-E69D-4905-AB7C-0DFD41B7419D*
G04*
G04*
G04 #@! TF.FilePolarity,Negative*
G04*
G01*
G75*
%ADD26R,0.04700X0.04000*%
%ADD34R,0.04000X0.04700*%
%ADD45R,0.06587X0.03241*%
%ADD46R,0.03241X0.06587*%
%ADD47C,0.06737*%
%ADD48R,0.06737X0.06737*%
%ADD49C,0.09658*%
%ADD50R,0.09658X0.09658*%
%ADD51C,0.06200*%
%ADD52C,0.14383*%
%ADD53C,0.10209*%
%ADD54C,0.13280*%
%ADD55C,0.08477*%
%ADD56C,0.07296*%
%ADD57C,0.13000*%
%ADD58C,0.20000*%
%ADD59C,0.26000*%
%ADD95R,0.25800X0.29698*%
G36*
X484819Y30370D02*
X484842D01*
X484862Y30366D01*
X484882Y30362D01*
X484902Y30354D01*
X484921Y30347D01*
X484941Y30339D01*
X484957Y30331D01*
X484976Y30323D01*
X484992Y30311D01*
X485012Y30299D01*
X485028Y30287D01*
X485043Y30272D01*
X485059Y30260D01*
X485071Y30244D01*
X485087Y30228D01*
X485098Y30213D01*
X485110Y30193D01*
X485122Y30177D01*
X485130Y30158D01*
X485138Y30142D01*
X485146Y30122D01*
X485153Y30102D01*
X485161Y30083D01*
X485165Y30063D01*
X485169Y30043D01*
Y30020D01*
X485173Y30000D01*
Y29980D01*
Y28209D01*
Y28189D01*
X485169Y28169D01*
Y28146D01*
X485165Y28126D01*
X485161Y28106D01*
X485153Y28087D01*
X485146Y28067D01*
X485138Y28047D01*
X485130Y28032D01*
X485122Y28012D01*
X485110Y27996D01*
X485098Y27976D01*
X485087Y27961D01*
X485071Y27945D01*
X485059Y27929D01*
X485043Y27917D01*
X485028Y27902D01*
X485012Y27890D01*
X484992Y27878D01*
X484976Y27866D01*
X484957Y27858D01*
X484941Y27850D01*
X484921Y27843D01*
X484902Y27835D01*
X484882Y27827D01*
X484862Y27823D01*
X484842Y27819D01*
X484819D01*
X484799Y27815D01*
X483972D01*
X483953Y27819D01*
X483929D01*
X483910Y27823D01*
X483890Y27827D01*
X483870Y27835D01*
X483850Y27843D01*
X483831Y27850D01*
X483815Y27858D01*
X483795Y27866D01*
X483779Y27878D01*
X483760Y27890D01*
X483744Y27902D01*
X483728Y27917D01*
X483713Y27929D01*
X483701Y27945D01*
X483685Y27961D01*
X483673Y27976D01*
X483661Y27996D01*
X483650Y28012D01*
X483642Y28032D01*
X483634Y28047D01*
X483626Y28067D01*
X483618Y28087D01*
X483610Y28106D01*
X483606Y28126D01*
X483602Y28146D01*
Y28169D01*
X483598Y28189D01*
Y28209D01*
Y29980D01*
Y30000D01*
X483602Y30020D01*
Y30043D01*
X483606Y30063D01*
X483610Y30083D01*
X483618Y30102D01*
X483626Y30122D01*
X483634Y30142D01*
X483642Y30158D01*
X483650Y30177D01*
X483661Y30193D01*
X483673Y30213D01*
X483685Y30228D01*
X483701Y30244D01*
X483713Y30260D01*
X483728Y30272D01*
X483744Y30287D01*
X483760Y30299D01*
X483779Y30311D01*
X483795Y30323D01*
X483815Y30331D01*
X483831Y30339D01*
X483850Y30347D01*
X483870Y30354D01*
X483890Y30362D01*
X483910Y30366D01*
X483929Y30370D01*
X483953D01*
X483972Y30374D01*
X484799D01*
X484819Y30370D01*
D02*
G37*
G36*
X487181D02*
X487205D01*
X487224Y30366D01*
X487244Y30362D01*
X487264Y30354D01*
X487284Y30347D01*
X487303Y30339D01*
X487319Y30331D01*
X487339Y30323D01*
X487354Y30311D01*
X487374Y30299D01*
X487390Y30287D01*
X487405Y30272D01*
X487421Y30260D01*
X487433Y30244D01*
X487449Y30228D01*
X487461Y30213D01*
X487472Y30193D01*
X487484Y30177D01*
X487492Y30158D01*
X487500Y30142D01*
X487508Y30122D01*
X487516Y30102D01*
X487524Y30083D01*
X487528Y30063D01*
X487532Y30043D01*
Y30020D01*
X487535Y30000D01*
Y29980D01*
Y29193D01*
Y29181D01*
Y29173D01*
X487539Y29161D01*
Y29154D01*
X487543Y29142D01*
Y29134D01*
X487547Y29122D01*
X487551Y29114D01*
X487555Y29102D01*
X487563Y29094D01*
X487567Y29087D01*
X487575Y29079D01*
X487579Y29071D01*
X487587Y29063D01*
X487595Y29055D01*
X487602Y29047D01*
X487610Y29039D01*
X487618Y29035D01*
X487626Y29028D01*
X487634Y29024D01*
X487642Y29016D01*
X487653Y29012D01*
X487661Y29008D01*
X487673Y29004D01*
X487681D01*
X487693Y29000D01*
X487701D01*
X487713Y28996D01*
X490606D01*
X490626Y28992D01*
X490650D01*
X490669Y28988D01*
X490689Y28984D01*
X490709Y28976D01*
X490728Y28969D01*
X490748Y28961D01*
X490764Y28953D01*
X490784Y28945D01*
X490799Y28933D01*
X490819Y28921D01*
X490835Y28909D01*
X490850Y28894D01*
X490866Y28882D01*
X490878Y28866D01*
X490894Y28850D01*
X490906Y28835D01*
X490917Y28815D01*
X490929Y28799D01*
X490937Y28780D01*
X490945Y28764D01*
X490953Y28744D01*
X490961Y28724D01*
X490969Y28705D01*
X490972Y28685D01*
X490976Y28665D01*
Y28642D01*
X490980Y28622D01*
Y28602D01*
Y28012D01*
Y27992D01*
X490976Y27972D01*
Y27949D01*
X490972Y27929D01*
X490969Y27909D01*
X490961Y27890D01*
X490953Y27870D01*
X490945Y27850D01*
X490937Y27835D01*
X490929Y27815D01*
X490917Y27799D01*
X490906Y27779D01*
X490894Y27764D01*
X490878Y27748D01*
X490866Y27732D01*
X490850Y27720D01*
X490835Y27705D01*
X490819Y27693D01*
X490799Y27681D01*
X490784Y27669D01*
X490764Y27661D01*
X490748Y27654D01*
X490728Y27646D01*
X490709Y27638D01*
X490689Y27630D01*
X490669Y27626D01*
X490650Y27622D01*
X490626D01*
X490606Y27618D01*
X486138D01*
X486118Y27622D01*
X486095D01*
X486075Y27626D01*
X486055Y27630D01*
X486035Y27638D01*
X486016Y27646D01*
X485996Y27654D01*
X485980Y27661D01*
X485961Y27669D01*
X485945Y27681D01*
X485925Y27693D01*
X485910Y27705D01*
X485894Y27720D01*
X485878Y27732D01*
X485866Y27748D01*
X485850Y27764D01*
X485839Y27779D01*
X485827Y27799D01*
X485815Y27815D01*
X485807Y27835D01*
X485799Y27850D01*
X485791Y27870D01*
X485783Y27890D01*
X485776Y27909D01*
X485772Y27929D01*
X485768Y27949D01*
Y27972D01*
X485764Y27992D01*
Y28012D01*
Y29980D01*
Y30000D01*
X485768Y30020D01*
Y30043D01*
X485772Y30063D01*
X485776Y30083D01*
X485783Y30102D01*
X485791Y30122D01*
X485799Y30142D01*
X485807Y30158D01*
X485815Y30177D01*
X485827Y30193D01*
X485839Y30213D01*
X485850Y30228D01*
X485866Y30244D01*
X485878Y30260D01*
X485894Y30272D01*
X485910Y30287D01*
X485925Y30299D01*
X485945Y30311D01*
X485961Y30323D01*
X485980Y30331D01*
X485996Y30339D01*
X486016Y30347D01*
X486035Y30354D01*
X486055Y30362D01*
X486075Y30366D01*
X486095Y30370D01*
X486118D01*
X486138Y30374D01*
X487161D01*
X487181Y30370D01*
D02*
G37*
G36*
X480882D02*
X480905D01*
X480925Y30366D01*
X480945Y30362D01*
X480965Y30354D01*
X480984Y30347D01*
X481004Y30339D01*
X481020Y30331D01*
X481039Y30323D01*
X481055Y30311D01*
X481075Y30299D01*
X481090Y30287D01*
X481106Y30272D01*
X481122Y30260D01*
X481134Y30244D01*
X481150Y30228D01*
X481161Y30213D01*
X481173Y30193D01*
X481185Y30177D01*
X481193Y30158D01*
X481201Y30142D01*
X481209Y30122D01*
X481216Y30102D01*
X481224Y30083D01*
X481228Y30063D01*
X481232Y30043D01*
Y30020D01*
X481236Y30000D01*
Y29980D01*
Y28012D01*
Y27992D01*
X481232Y27972D01*
Y27949D01*
X481228Y27929D01*
X481224Y27909D01*
X481216Y27890D01*
X481209Y27870D01*
X481201Y27850D01*
X481193Y27835D01*
X481185Y27815D01*
X481173Y27799D01*
X481161Y27779D01*
X481150Y27764D01*
X481134Y27748D01*
X481122Y27732D01*
X481106Y27720D01*
X481090Y27705D01*
X481075Y27693D01*
X481055Y27681D01*
X481039Y27669D01*
X481020Y27661D01*
X481004Y27654D01*
X480984Y27646D01*
X480965Y27638D01*
X480945Y27630D01*
X480925Y27626D01*
X480905Y27622D01*
X480882D01*
X480862Y27618D01*
X476394D01*
X476374Y27622D01*
X476350D01*
X476331Y27626D01*
X476311Y27630D01*
X476291Y27638D01*
X476272Y27646D01*
X476252Y27654D01*
X476236Y27661D01*
X476217Y27669D01*
X476201Y27681D01*
X476181Y27693D01*
X476165Y27705D01*
X476150Y27720D01*
X476134Y27732D01*
X476122Y27748D01*
X476106Y27764D01*
X476094Y27779D01*
X476083Y27799D01*
X476071Y27815D01*
X476063Y27835D01*
X476055Y27850D01*
X476047Y27870D01*
X476039Y27890D01*
X476031Y27909D01*
X476028Y27929D01*
X476024Y27949D01*
Y27972D01*
X476020Y27992D01*
Y28012D01*
Y28602D01*
Y28622D01*
X476024Y28642D01*
Y28665D01*
X476028Y28685D01*
X476031Y28705D01*
X476039Y28724D01*
X476047Y28744D01*
X476055Y28764D01*
X476063Y28780D01*
X476071Y28799D01*
X476083Y28815D01*
X476094Y28835D01*
X476106Y28850D01*
X476122Y28866D01*
X476134Y28882D01*
X476150Y28894D01*
X476165Y28909D01*
X476181Y28921D01*
X476201Y28933D01*
X476217Y28945D01*
X476236Y28953D01*
X476252Y28961D01*
X476272Y28969D01*
X476291Y28976D01*
X476311Y28984D01*
X476331Y28988D01*
X476350Y28992D01*
X476374D01*
X476394Y28996D01*
X479287D01*
X479299Y29000D01*
X479307D01*
X479319Y29004D01*
X479327D01*
X479339Y29008D01*
X479347Y29012D01*
X479358Y29016D01*
X479366Y29024D01*
X479374Y29028D01*
X479382Y29035D01*
X479390Y29039D01*
X479398Y29047D01*
X479405Y29055D01*
X479413Y29063D01*
X479421Y29071D01*
X479425Y29079D01*
X479433Y29087D01*
X479437Y29094D01*
X479445Y29102D01*
X479449Y29114D01*
X479453Y29122D01*
X479457Y29134D01*
Y29142D01*
X479461Y29154D01*
Y29161D01*
X479465Y29173D01*
Y29181D01*
Y29193D01*
Y29980D01*
Y30000D01*
X479468Y30020D01*
Y30043D01*
X479472Y30063D01*
X479476Y30083D01*
X479484Y30102D01*
X479492Y30122D01*
X479500Y30142D01*
X479508Y30158D01*
X479516Y30177D01*
X479528Y30193D01*
X479539Y30213D01*
X479551Y30228D01*
X479567Y30244D01*
X479579Y30260D01*
X479595Y30272D01*
X479610Y30287D01*
X479626Y30299D01*
X479646Y30311D01*
X479661Y30323D01*
X479681Y30331D01*
X479697Y30339D01*
X479716Y30347D01*
X479736Y30354D01*
X479756Y30362D01*
X479776Y30366D01*
X479795Y30370D01*
X479819D01*
X479839Y30374D01*
X480862D01*
X480882Y30370D01*
D02*
G37*
G36*
X490626Y27024D02*
X490650D01*
X490669Y27020D01*
X490689Y27016D01*
X490709Y27008D01*
X490728Y27000D01*
X490748Y26992D01*
X490764Y26984D01*
X490784Y26976D01*
X490799Y26965D01*
X490819Y26953D01*
X490835Y26941D01*
X490850Y26925D01*
X490866Y26913D01*
X490878Y26898D01*
X490894Y26882D01*
X490906Y26866D01*
X490917Y26847D01*
X490929Y26831D01*
X490937Y26811D01*
X490945Y26795D01*
X490953Y26776D01*
X490961Y26756D01*
X490969Y26736D01*
X490972Y26717D01*
X490976Y26697D01*
Y26673D01*
X490980Y26654D01*
Y26634D01*
Y26043D01*
Y26024D01*
X490976Y26004D01*
Y25980D01*
X490972Y25961D01*
X490969Y25941D01*
X490961Y25921D01*
X490953Y25902D01*
X490945Y25882D01*
X490937Y25866D01*
X490929Y25846D01*
X490917Y25831D01*
X490906Y25811D01*
X490894Y25795D01*
X490878Y25780D01*
X490866Y25764D01*
X490850Y25752D01*
X490835Y25736D01*
X490819Y25724D01*
X490799Y25713D01*
X490784Y25701D01*
X490764Y25693D01*
X490748Y25685D01*
X490728Y25677D01*
X490709Y25669D01*
X490689Y25661D01*
X490669Y25657D01*
X490650Y25654D01*
X490626D01*
X490606Y25650D01*
X487811D01*
X487791Y25654D01*
X487768D01*
X487748Y25657D01*
X487728Y25661D01*
X487709Y25669D01*
X487689Y25677D01*
X487669Y25685D01*
X487653Y25693D01*
X487634Y25701D01*
X487618Y25713D01*
X487598Y25724D01*
X487583Y25736D01*
X487567Y25752D01*
X487551Y25764D01*
X487539Y25780D01*
X487524Y25795D01*
X487512Y25811D01*
X487500Y25831D01*
X487488Y25846D01*
X487480Y25866D01*
X487472Y25882D01*
X487465Y25902D01*
X487457Y25921D01*
X487449Y25941D01*
X487445Y25961D01*
X487441Y25980D01*
Y26004D01*
X487437Y26024D01*
Y26043D01*
Y26634D01*
Y26654D01*
X487441Y26673D01*
Y26697D01*
X487445Y26717D01*
X487449Y26736D01*
X487457Y26756D01*
X487465Y26776D01*
X487472Y26795D01*
X487480Y26811D01*
X487488Y26831D01*
X487500Y26847D01*
X487512Y26866D01*
X487524Y26882D01*
X487539Y26898D01*
X487551Y26913D01*
X487567Y26925D01*
X487583Y26941D01*
X487598Y26953D01*
X487618Y26965D01*
X487634Y26976D01*
X487653Y26984D01*
X487669Y26992D01*
X487689Y27000D01*
X487709Y27008D01*
X487728Y27016D01*
X487748Y27020D01*
X487768Y27024D01*
X487791D01*
X487811Y27028D01*
X490606D01*
X490626Y27024D01*
D02*
G37*
G36*
X480776Y26827D02*
X480784D01*
X480795Y26823D01*
X480803D01*
X480815Y26819D01*
X480823Y26815D01*
X480835Y26811D01*
X480842Y26803D01*
X480850Y26799D01*
X480858Y26791D01*
X480866Y26787D01*
X480874Y26779D01*
X480882Y26772D01*
X480890Y26764D01*
X480898Y26756D01*
X480902Y26748D01*
X480909Y26740D01*
X480913Y26732D01*
X480921Y26724D01*
X480925Y26713D01*
X480929Y26705D01*
X480933Y26693D01*
Y26685D01*
X480937Y26673D01*
Y26665D01*
X480941Y26654D01*
Y26646D01*
Y26634D01*
Y24075D01*
Y24063D01*
Y24055D01*
X480937Y24043D01*
Y24035D01*
X480933Y24024D01*
Y24016D01*
X480929Y24004D01*
X480925Y23996D01*
X480921Y23984D01*
X480913Y23976D01*
X480909Y23968D01*
X480902Y23961D01*
X480898Y23953D01*
X480890Y23945D01*
X480882Y23937D01*
X480874Y23929D01*
X480866Y23921D01*
X480858Y23917D01*
X480850Y23910D01*
X480842Y23905D01*
X480835Y23898D01*
X480823Y23894D01*
X480815Y23890D01*
X480803Y23886D01*
X480795D01*
X480784Y23882D01*
X480776D01*
X480764Y23878D01*
X476394D01*
X476382Y23882D01*
X476374D01*
X476362Y23886D01*
X476354D01*
X476342Y23890D01*
X476335Y23894D01*
X476323Y23898D01*
X476315Y23905D01*
X476307Y23910D01*
X476299Y23917D01*
X476291Y23921D01*
X476284Y23929D01*
X476276Y23937D01*
X476268Y23945D01*
X476260Y23953D01*
X476256Y23961D01*
X476248Y23968D01*
X476244Y23976D01*
X476236Y23984D01*
X476232Y23996D01*
X476228Y24004D01*
X476224Y24016D01*
Y24024D01*
X476221Y24035D01*
Y24043D01*
X476217Y24055D01*
Y24063D01*
Y24075D01*
Y24665D01*
Y24677D01*
Y24685D01*
X476221Y24697D01*
Y24705D01*
X476224Y24716D01*
Y24724D01*
X476228Y24736D01*
X476232Y24744D01*
X476236Y24756D01*
X476244Y24764D01*
X476248Y24772D01*
X476256Y24780D01*
X476260Y24787D01*
X476268Y24795D01*
X476276Y24803D01*
X476284Y24811D01*
X476291Y24819D01*
X476299Y24823D01*
X476307Y24831D01*
X476315Y24835D01*
X476323Y24843D01*
X476335Y24847D01*
X476342Y24850D01*
X476354Y24854D01*
X476362D01*
X476374Y24858D01*
X476382D01*
X476394Y24862D01*
X477614D01*
X477626Y24866D01*
X477634D01*
X477646Y24870D01*
X477654D01*
X477665Y24874D01*
X477673Y24878D01*
X477685Y24882D01*
X477693Y24890D01*
X477701Y24894D01*
X477709Y24902D01*
X477716Y24905D01*
X477724Y24913D01*
X477732Y24921D01*
X477740Y24929D01*
X477748Y24937D01*
X477752Y24945D01*
X477760Y24953D01*
X477764Y24961D01*
X477772Y24969D01*
X477776Y24980D01*
X477779Y24988D01*
X477783Y25000D01*
Y25008D01*
X477787Y25020D01*
Y25028D01*
X477791Y25039D01*
Y25047D01*
Y25059D01*
Y25650D01*
Y25661D01*
Y25669D01*
X477787Y25681D01*
Y25689D01*
X477783Y25701D01*
Y25709D01*
X477779Y25721D01*
X477776Y25728D01*
X477772Y25740D01*
X477764Y25748D01*
X477760Y25756D01*
X477752Y25764D01*
X477748Y25772D01*
X477740Y25780D01*
X477732Y25787D01*
X477724Y25795D01*
X477716Y25803D01*
X477709Y25807D01*
X477701Y25815D01*
X477693Y25819D01*
X477685Y25827D01*
X477673Y25831D01*
X477665Y25835D01*
X477654Y25839D01*
X477646D01*
X477634Y25842D01*
X477626D01*
X477614Y25846D01*
X476394D01*
X476382Y25850D01*
X476374D01*
X476362Y25854D01*
X476354D01*
X476342Y25858D01*
X476335Y25862D01*
X476323Y25866D01*
X476315Y25874D01*
X476307Y25878D01*
X476299Y25886D01*
X476291Y25890D01*
X476284Y25898D01*
X476276Y25905D01*
X476268Y25913D01*
X476260Y25921D01*
X476256Y25929D01*
X476248Y25937D01*
X476244Y25945D01*
X476236Y25953D01*
X476232Y25965D01*
X476228Y25972D01*
X476224Y25984D01*
Y25992D01*
X476221Y26004D01*
Y26012D01*
X476217Y26024D01*
Y26032D01*
Y26043D01*
Y26634D01*
Y26646D01*
Y26654D01*
X476221Y26665D01*
Y26673D01*
X476224Y26685D01*
Y26693D01*
X476228Y26705D01*
X476232Y26713D01*
X476236Y26724D01*
X476244Y26732D01*
X476248Y26740D01*
X476256Y26748D01*
X476260Y26756D01*
X476268Y26764D01*
X476276Y26772D01*
X476284Y26779D01*
X476291Y26787D01*
X476299Y26791D01*
X476307Y26799D01*
X476315Y26803D01*
X476323Y26811D01*
X476335Y26815D01*
X476342Y26819D01*
X476354Y26823D01*
X476362D01*
X476374Y26827D01*
X476382D01*
X476394Y26831D01*
X480764D01*
X480776Y26827D01*
D02*
G37*
G36*
X490626Y25055D02*
X490650D01*
X490669Y25051D01*
X490689Y25047D01*
X490709Y25039D01*
X490728Y25032D01*
X490748Y25024D01*
X490764Y25016D01*
X490784Y25008D01*
X490799Y24996D01*
X490819Y24984D01*
X490835Y24972D01*
X490850Y24957D01*
X490866Y24945D01*
X490878Y24929D01*
X490894Y24913D01*
X490906Y24898D01*
X490917Y24878D01*
X490929Y24862D01*
X490937Y24843D01*
X490945Y24827D01*
X490953Y24807D01*
X490961Y24787D01*
X490969Y24768D01*
X490972Y24748D01*
X490976Y24728D01*
Y24705D01*
X490980Y24685D01*
Y24665D01*
Y24075D01*
Y24055D01*
X490976Y24035D01*
Y24012D01*
X490972Y23992D01*
X490969Y23972D01*
X490961Y23953D01*
X490953Y23933D01*
X490945Y23913D01*
X490937Y23898D01*
X490929Y23878D01*
X490917Y23862D01*
X490906Y23843D01*
X490894Y23827D01*
X490878Y23811D01*
X490866Y23795D01*
X490850Y23784D01*
X490835Y23768D01*
X490819Y23756D01*
X490799Y23744D01*
X490784Y23732D01*
X490764Y23724D01*
X490748Y23717D01*
X490728Y23709D01*
X490709Y23701D01*
X490689Y23693D01*
X490669Y23689D01*
X490650Y23685D01*
X490626D01*
X490606Y23681D01*
X487811D01*
X487791Y23685D01*
X487768D01*
X487748Y23689D01*
X487728Y23693D01*
X487709Y23701D01*
X487689Y23709D01*
X487669Y23717D01*
X487653Y23724D01*
X487634Y23732D01*
X487618Y23744D01*
X487598Y23756D01*
X487583Y23768D01*
X487567Y23784D01*
X487551Y23795D01*
X487539Y23811D01*
X487524Y23827D01*
X487512Y23843D01*
X487500Y23862D01*
X487488Y23878D01*
X487480Y23898D01*
X487472Y23913D01*
X487465Y23933D01*
X487457Y23953D01*
X487449Y23972D01*
X487445Y23992D01*
X487441Y24012D01*
Y24035D01*
X487437Y24055D01*
Y24075D01*
Y24665D01*
Y24685D01*
X487441Y24705D01*
Y24728D01*
X487445Y24748D01*
X487449Y24768D01*
X487457Y24787D01*
X487465Y24807D01*
X487472Y24827D01*
X487480Y24843D01*
X487488Y24862D01*
X487500Y24878D01*
X487512Y24898D01*
X487524Y24913D01*
X487539Y24929D01*
X487551Y24945D01*
X487567Y24957D01*
X487583Y24972D01*
X487598Y24984D01*
X487618Y24996D01*
X487634Y25008D01*
X487653Y25016D01*
X487669Y25024D01*
X487689Y25032D01*
X487709Y25039D01*
X487728Y25047D01*
X487748Y25051D01*
X487768Y25055D01*
X487791D01*
X487811Y25059D01*
X490606D01*
X490626Y25055D01*
D02*
G37*
G36*
X484819Y27220D02*
X484842D01*
X484862Y27217D01*
X484882Y27213D01*
X484902Y27205D01*
X484921Y27197D01*
X484941Y27189D01*
X484957Y27181D01*
X484976Y27173D01*
X484992Y27161D01*
X485012Y27150D01*
X485028Y27138D01*
X485043Y27122D01*
X485059Y27110D01*
X485071Y27095D01*
X485087Y27079D01*
X485098Y27063D01*
X485110Y27043D01*
X485122Y27028D01*
X485130Y27008D01*
X485138Y26992D01*
X485146Y26972D01*
X485153Y26953D01*
X485161Y26933D01*
X485165Y26913D01*
X485169Y26894D01*
Y26870D01*
X485173Y26850D01*
Y26831D01*
Y23890D01*
Y23878D01*
Y23866D01*
Y23858D01*
X485177Y23846D01*
Y23839D01*
Y23827D01*
X485181Y23815D01*
Y23807D01*
X485185Y23795D01*
Y23787D01*
X485189Y23776D01*
X485193Y23768D01*
X485197Y23756D01*
X485201Y23748D01*
X485205Y23736D01*
X485209Y23728D01*
X485213Y23720D01*
X485217Y23709D01*
X485220Y23701D01*
X485224Y23693D01*
X485232Y23681D01*
X485236Y23673D01*
X485244Y23665D01*
X485248Y23658D01*
X485256Y23650D01*
X485260Y23642D01*
X485268Y23634D01*
X485276Y23626D01*
X485280Y23618D01*
X485287Y23610D01*
X485689Y23209D01*
X485697Y23201D01*
X485705Y23193D01*
X485713Y23185D01*
X485720Y23181D01*
X485728Y23173D01*
X485736Y23169D01*
X485744Y23161D01*
X485756Y23157D01*
X485764Y23150D01*
X485772Y23146D01*
X485779Y23142D01*
X485791Y23134D01*
X485799Y23130D01*
X485807Y23126D01*
X485819Y23122D01*
X485827Y23118D01*
X485839Y23114D01*
X485847Y23110D01*
X485858D01*
X485866Y23106D01*
X485878Y23102D01*
X485886D01*
X485898Y23098D01*
X485906D01*
X485917Y23095D01*
X485961D01*
X485968Y23091D01*
X490626D01*
X490650Y23087D01*
X490669Y23083D01*
X490689Y23079D01*
X490709Y23075D01*
X490728Y23067D01*
X490748Y23059D01*
X490764Y23051D01*
X490784Y23039D01*
X490799Y23028D01*
X490819Y23016D01*
X490835Y23004D01*
X490850Y22992D01*
X490866Y22976D01*
X490878Y22961D01*
X490894Y22945D01*
X490906Y22929D01*
X490917Y22913D01*
X490929Y22898D01*
X490937Y22878D01*
X490945Y22858D01*
X490953Y22839D01*
X490961Y22819D01*
X490969Y22799D01*
X490972Y22780D01*
X490976Y22760D01*
Y22740D01*
X490980Y22720D01*
Y22697D01*
Y22012D01*
Y21988D01*
X490976Y21969D01*
Y21949D01*
X490972Y21929D01*
X490969Y21910D01*
X490961Y21890D01*
X490953Y21870D01*
X490945Y21850D01*
X490937Y21831D01*
X490929Y21811D01*
X490917Y21795D01*
X490906Y21779D01*
X490894Y21764D01*
X490878Y21748D01*
X490866Y21732D01*
X490850Y21716D01*
X490835Y21705D01*
X490819Y21693D01*
X490799Y21681D01*
X490784Y21669D01*
X490764Y21657D01*
X490748Y21650D01*
X490728Y21642D01*
X490709Y21634D01*
X490689Y21630D01*
X490669Y21626D01*
X490650Y21622D01*
X490626Y21618D01*
X484150D01*
X484126Y21622D01*
X484106Y21626D01*
X484087Y21630D01*
X484067Y21634D01*
X484047Y21642D01*
X484028Y21650D01*
X484012Y21657D01*
X483992Y21669D01*
X483976Y21681D01*
X483957Y21693D01*
X483941Y21705D01*
X483925Y21716D01*
X483910Y21732D01*
X483898Y21748D01*
X483882Y21764D01*
X483870Y21779D01*
X483858Y21795D01*
X483847Y21815D01*
X483839Y21831D01*
X483831Y21850D01*
X483823Y21870D01*
X483815Y21890D01*
X483807Y21910D01*
X483803Y21929D01*
X483799Y21949D01*
Y21969D01*
X483795Y21988D01*
Y22012D01*
Y26831D01*
Y26850D01*
X483799Y26870D01*
Y26894D01*
X483803Y26913D01*
X483807Y26933D01*
X483815Y26953D01*
X483823Y26972D01*
X483831Y26992D01*
X483839Y27008D01*
X483847Y27028D01*
X483858Y27043D01*
X483870Y27063D01*
X483882Y27079D01*
X483898Y27095D01*
X483910Y27110D01*
X483925Y27122D01*
X483941Y27138D01*
X483957Y27150D01*
X483976Y27161D01*
X483992Y27173D01*
X484012Y27181D01*
X484028Y27189D01*
X484047Y27197D01*
X484067Y27205D01*
X484087Y27213D01*
X484106Y27217D01*
X484126Y27220D01*
X484150D01*
X484169Y27224D01*
X484799D01*
X484819Y27220D01*
D02*
G37*
G36*
X489043Y20035D02*
X489051D01*
X489063Y20031D01*
X489071D01*
X489083Y20028D01*
X489090Y20024D01*
X489102Y20020D01*
X489110Y20012D01*
X489118Y20008D01*
X489126Y20000D01*
X489134Y19996D01*
X489142Y19988D01*
X489150Y19980D01*
X489157Y19972D01*
X489165Y19965D01*
X489169Y19957D01*
X489177Y19949D01*
X489181Y19941D01*
X489189Y19933D01*
X489193Y19921D01*
X489197Y19913D01*
X489201Y19902D01*
Y19894D01*
X489205Y19882D01*
Y19874D01*
X489209Y19862D01*
Y19854D01*
Y19842D01*
Y18602D01*
Y18591D01*
Y18583D01*
X489213Y18571D01*
Y18563D01*
X489217Y18551D01*
Y18543D01*
X489221Y18531D01*
X489224Y18524D01*
X489228Y18512D01*
X489236Y18504D01*
X489240Y18496D01*
X489248Y18488D01*
X489252Y18480D01*
X489260Y18472D01*
X489268Y18465D01*
X489276Y18457D01*
X489284Y18449D01*
X489291Y18445D01*
X489299Y18437D01*
X489307Y18433D01*
X489315Y18425D01*
X489327Y18421D01*
X489335Y18417D01*
X489347Y18413D01*
X489354D01*
X489366Y18409D01*
X489374D01*
X489386Y18406D01*
X490606D01*
X490618Y18402D01*
X490626D01*
X490638Y18398D01*
X490646D01*
X490658Y18394D01*
X490665Y18390D01*
X490677Y18386D01*
X490685Y18378D01*
X490693Y18374D01*
X490701Y18366D01*
X490709Y18362D01*
X490717Y18354D01*
X490724Y18347D01*
X490732Y18339D01*
X490740Y18331D01*
X490744Y18323D01*
X490752Y18315D01*
X490756Y18307D01*
X490764Y18299D01*
X490768Y18287D01*
X490772Y18280D01*
X490776Y18268D01*
Y18260D01*
X490779Y18248D01*
Y18240D01*
X490784Y18228D01*
Y18221D01*
Y18209D01*
Y17618D01*
Y17606D01*
Y17598D01*
X490779Y17587D01*
Y17579D01*
X490776Y17567D01*
Y17559D01*
X490772Y17547D01*
X490768Y17539D01*
X490764Y17528D01*
X490756Y17520D01*
X490752Y17512D01*
X490744Y17504D01*
X490740Y17496D01*
X490732Y17488D01*
X490724Y17480D01*
X490717Y17472D01*
X490709Y17465D01*
X490701Y17461D01*
X490693Y17453D01*
X490685Y17449D01*
X490677Y17441D01*
X490665Y17437D01*
X490658Y17433D01*
X490646Y17429D01*
X490638D01*
X490626Y17425D01*
X490618D01*
X490606Y17421D01*
X489386D01*
X489374Y17417D01*
X489366D01*
X489354Y17413D01*
X489347D01*
X489335Y17410D01*
X489327Y17405D01*
X489315Y17402D01*
X489307Y17394D01*
X489299Y17390D01*
X489291Y17382D01*
X489284Y17378D01*
X489276Y17370D01*
X489268Y17362D01*
X489260Y17354D01*
X489252Y17346D01*
X489248Y17339D01*
X489240Y17331D01*
X489236Y17323D01*
X489228Y17315D01*
X489224Y17303D01*
X489221Y17295D01*
X489217Y17284D01*
Y17276D01*
X489213Y17264D01*
Y17256D01*
X489209Y17244D01*
Y17236D01*
Y17224D01*
Y16634D01*
Y16622D01*
Y16614D01*
X489213Y16602D01*
Y16594D01*
X489217Y16583D01*
Y16575D01*
X489221Y16563D01*
X489224Y16555D01*
X489228Y16543D01*
X489236Y16535D01*
X489240Y16528D01*
X489248Y16520D01*
X489252Y16512D01*
X489260Y16504D01*
X489268Y16496D01*
X489276Y16488D01*
X489284Y16480D01*
X489291Y16476D01*
X489299Y16468D01*
X489307Y16465D01*
X489315Y16457D01*
X489327Y16453D01*
X489335Y16449D01*
X489347Y16445D01*
X489354D01*
X489366Y16441D01*
X489374D01*
X489386Y16437D01*
X490606D01*
X490618Y16433D01*
X490626D01*
X490638Y16429D01*
X490646D01*
X490658Y16425D01*
X490665Y16421D01*
X490677Y16417D01*
X490685Y16409D01*
X490693Y16406D01*
X490701Y16398D01*
X490709Y16394D01*
X490717Y16386D01*
X490724Y16378D01*
X490732Y16370D01*
X490740Y16362D01*
X490744Y16354D01*
X490752Y16346D01*
X490756Y16339D01*
X490764Y16331D01*
X490768Y16319D01*
X490772Y16311D01*
X490776Y16299D01*
Y16291D01*
X490779Y16280D01*
Y16272D01*
X490784Y16260D01*
Y16252D01*
Y16240D01*
Y15650D01*
Y15638D01*
Y15630D01*
X490779Y15618D01*
Y15610D01*
X490776Y15598D01*
Y15591D01*
X490772Y15579D01*
X490768Y15571D01*
X490764Y15559D01*
X490756Y15551D01*
X490752Y15543D01*
X490744Y15535D01*
X490740Y15528D01*
X490732Y15520D01*
X490724Y15512D01*
X490717Y15504D01*
X490709Y15496D01*
X490701Y15492D01*
X490693Y15484D01*
X490685Y15480D01*
X490677Y15472D01*
X490665Y15469D01*
X490658Y15465D01*
X490646Y15461D01*
X490638D01*
X490626Y15457D01*
X490618D01*
X490606Y15453D01*
X489386D01*
X489374Y15449D01*
X489366D01*
X489354Y15445D01*
X489347D01*
X489335Y15441D01*
X489327Y15437D01*
X489315Y15433D01*
X489307Y15425D01*
X489299Y15421D01*
X489291Y15413D01*
X489284Y15409D01*
X489276Y15402D01*
X489268Y15394D01*
X489260Y15386D01*
X489252Y15378D01*
X489248Y15370D01*
X489240Y15362D01*
X489236Y15354D01*
X489228Y15347D01*
X489224Y15335D01*
X489221Y15327D01*
X489217Y15315D01*
Y15307D01*
X489213Y15295D01*
Y15287D01*
X489209Y15276D01*
Y15268D01*
Y15256D01*
Y14665D01*
Y14654D01*
Y14646D01*
X489213Y14634D01*
Y14626D01*
X489217Y14614D01*
Y14606D01*
X489221Y14594D01*
X489224Y14587D01*
X489228Y14575D01*
X489236Y14567D01*
X489240Y14559D01*
X489248Y14551D01*
X489252Y14543D01*
X489260Y14535D01*
X489268Y14528D01*
X489276Y14520D01*
X489284Y14512D01*
X489291Y14508D01*
X489299Y14500D01*
X489307Y14496D01*
X489315Y14488D01*
X489327Y14484D01*
X489335Y14480D01*
X489347Y14476D01*
X489354D01*
X489366Y14472D01*
X489374D01*
X489386Y14469D01*
X490606D01*
X490618Y14465D01*
X490626D01*
X490638Y14461D01*
X490646D01*
X490658Y14457D01*
X490665Y14453D01*
X490677Y14449D01*
X490685Y14441D01*
X490693Y14437D01*
X490701Y14429D01*
X490709Y14425D01*
X490717Y14417D01*
X490724Y14410D01*
X490732Y14402D01*
X490740Y14394D01*
X490744Y14386D01*
X490752Y14378D01*
X490756Y14370D01*
X490764Y14362D01*
X490768Y14350D01*
X490772Y14343D01*
X490776Y14331D01*
Y14323D01*
X490779Y14311D01*
Y14303D01*
X490784Y14291D01*
Y14284D01*
Y14272D01*
Y13681D01*
Y13669D01*
Y13661D01*
X490779Y13650D01*
Y13642D01*
X490776Y13630D01*
Y13622D01*
X490772Y13610D01*
X490768Y13602D01*
X490764Y13591D01*
X490756Y13583D01*
X490752Y13575D01*
X490744Y13567D01*
X490740Y13559D01*
X490732Y13551D01*
X490724Y13543D01*
X490717Y13535D01*
X490709Y13528D01*
X490701Y13524D01*
X490693Y13516D01*
X490685Y13512D01*
X490677Y13504D01*
X490665Y13500D01*
X490658Y13496D01*
X490646Y13492D01*
X490638D01*
X490626Y13488D01*
X490618D01*
X490606Y13484D01*
X489386D01*
X489374Y13480D01*
X489366D01*
X489354Y13476D01*
X489347D01*
X489335Y13472D01*
X489327Y13468D01*
X489315Y13465D01*
X489307Y13457D01*
X489299Y13453D01*
X489291Y13445D01*
X489284Y13441D01*
X489276Y13433D01*
X489268Y13425D01*
X489260Y13417D01*
X489252Y13409D01*
X489248Y13402D01*
X489240Y13394D01*
X489236Y13386D01*
X489228Y13378D01*
X489224Y13366D01*
X489221Y13358D01*
X489217Y13347D01*
Y13339D01*
X489213Y13327D01*
Y13319D01*
X489209Y13307D01*
Y13299D01*
Y13287D01*
Y12657D01*
Y12646D01*
Y12638D01*
X489205Y12626D01*
Y12618D01*
X489201Y12606D01*
Y12598D01*
X489197Y12587D01*
X489193Y12579D01*
X489189Y12567D01*
X489181Y12559D01*
X489177Y12551D01*
X489169Y12543D01*
X489165Y12535D01*
X489157Y12528D01*
X489150Y12520D01*
X489142Y12512D01*
X489134Y12504D01*
X489126Y12500D01*
X489118Y12492D01*
X489110Y12488D01*
X489102Y12480D01*
X489090Y12476D01*
X489083Y12472D01*
X489071Y12468D01*
X489063D01*
X489051Y12465D01*
X489043D01*
X489032Y12461D01*
X485449D01*
X485437Y12465D01*
X485429D01*
X485417Y12468D01*
X485409D01*
X485398Y12472D01*
X485390Y12476D01*
X485378Y12480D01*
X485370Y12488D01*
X485362Y12492D01*
X485354Y12500D01*
X485347Y12504D01*
X485339Y12512D01*
X485331Y12520D01*
X485323Y12528D01*
X485315Y12535D01*
X485311Y12543D01*
X485303Y12551D01*
X485299Y12559D01*
X485291Y12567D01*
X485287Y12579D01*
X485284Y12587D01*
X485280Y12598D01*
Y12606D01*
X485276Y12618D01*
Y12626D01*
X485272Y12638D01*
Y12646D01*
Y12657D01*
Y19842D01*
Y19854D01*
Y19862D01*
X485276Y19874D01*
Y19882D01*
X485280Y19894D01*
Y19902D01*
X485284Y19913D01*
X485287Y19921D01*
X485291Y19933D01*
X485299Y19941D01*
X485303Y19949D01*
X485311Y19957D01*
X485315Y19965D01*
X485323Y19972D01*
X485331Y19980D01*
X485339Y19988D01*
X485347Y19996D01*
X485354Y20000D01*
X485362Y20008D01*
X485370Y20012D01*
X485378Y20020D01*
X485390Y20024D01*
X485398Y20028D01*
X485409Y20031D01*
X485417D01*
X485429Y20035D01*
X485437D01*
X485449Y20039D01*
X489032D01*
X489043Y20035D01*
D02*
G37*
G36*
X481563D02*
X481571D01*
X481583Y20031D01*
X481591D01*
X481602Y20028D01*
X481610Y20024D01*
X481622Y20020D01*
X481630Y20012D01*
X481638Y20008D01*
X481646Y20000D01*
X481653Y19996D01*
X481661Y19988D01*
X481669Y19980D01*
X481677Y19972D01*
X481685Y19965D01*
X481689Y19957D01*
X481697Y19949D01*
X481701Y19941D01*
X481709Y19933D01*
X481713Y19921D01*
X481716Y19913D01*
X481720Y19902D01*
Y19894D01*
X481724Y19882D01*
Y19874D01*
X481728Y19862D01*
Y19854D01*
Y19842D01*
Y12657D01*
Y12646D01*
Y12638D01*
X481724Y12626D01*
Y12618D01*
X481720Y12606D01*
Y12598D01*
X481716Y12587D01*
X481713Y12579D01*
X481709Y12567D01*
X481701Y12559D01*
X481697Y12551D01*
X481689Y12543D01*
X481685Y12535D01*
X481677Y12528D01*
X481669Y12520D01*
X481661Y12512D01*
X481653Y12504D01*
X481646Y12500D01*
X481638Y12492D01*
X481630Y12488D01*
X481622Y12480D01*
X481610Y12476D01*
X481602Y12472D01*
X481591Y12468D01*
X481583D01*
X481571Y12465D01*
X481563D01*
X481551Y12461D01*
X477969D01*
X477957Y12465D01*
X477949D01*
X477937Y12468D01*
X477929D01*
X477917Y12472D01*
X477910Y12476D01*
X477898Y12480D01*
X477890Y12488D01*
X477882Y12492D01*
X477874Y12500D01*
X477866Y12504D01*
X477858Y12512D01*
X477850Y12520D01*
X477843Y12528D01*
X477835Y12535D01*
X477831Y12543D01*
X477823Y12551D01*
X477819Y12559D01*
X477811Y12567D01*
X477807Y12579D01*
X477803Y12587D01*
X477799Y12598D01*
Y12606D01*
X477795Y12618D01*
Y12626D01*
X477791Y12638D01*
Y12646D01*
Y12657D01*
Y13287D01*
Y13299D01*
Y13307D01*
X477787Y13319D01*
Y13327D01*
X477783Y13339D01*
Y13347D01*
X477779Y13358D01*
X477776Y13366D01*
X477772Y13378D01*
X477764Y13386D01*
X477760Y13394D01*
X477752Y13402D01*
X477748Y13409D01*
X477740Y13417D01*
X477732Y13425D01*
X477724Y13433D01*
X477716Y13441D01*
X477709Y13445D01*
X477701Y13453D01*
X477693Y13457D01*
X477685Y13465D01*
X477673Y13468D01*
X477665Y13472D01*
X477654Y13476D01*
X477646D01*
X477634Y13480D01*
X477626D01*
X477614Y13484D01*
X476394D01*
X476382Y13488D01*
X476374D01*
X476362Y13492D01*
X476354D01*
X476342Y13496D01*
X476335Y13500D01*
X476323Y13504D01*
X476315Y13512D01*
X476307Y13516D01*
X476299Y13524D01*
X476291Y13528D01*
X476284Y13535D01*
X476276Y13543D01*
X476268Y13551D01*
X476260Y13559D01*
X476256Y13567D01*
X476248Y13575D01*
X476244Y13583D01*
X476236Y13591D01*
X476232Y13602D01*
X476228Y13610D01*
X476224Y13622D01*
Y13630D01*
X476221Y13642D01*
Y13650D01*
X476217Y13661D01*
Y13669D01*
Y13681D01*
Y14272D01*
Y14284D01*
Y14291D01*
X476221Y14303D01*
Y14311D01*
X476224Y14323D01*
Y14331D01*
X476228Y14343D01*
X476232Y14350D01*
X476236Y14362D01*
X476244Y14370D01*
X476248Y14378D01*
X476256Y14386D01*
X476260Y14394D01*
X476268Y14402D01*
X476276Y14410D01*
X476284Y14417D01*
X476291Y14425D01*
X476299Y14429D01*
X476307Y14437D01*
X476315Y14441D01*
X476323Y14449D01*
X476335Y14453D01*
X476342Y14457D01*
X476354Y14461D01*
X476362D01*
X476374Y14465D01*
X476382D01*
X476394Y14469D01*
X477614D01*
X477626Y14472D01*
X477634D01*
X477646Y14476D01*
X477654D01*
X477665Y14480D01*
X477673Y14484D01*
X477685Y14488D01*
X477693Y14496D01*
X477701Y14500D01*
X477709Y14508D01*
X477716Y14512D01*
X477724Y14520D01*
X477732Y14528D01*
X477740Y14535D01*
X477748Y14543D01*
X477752Y14551D01*
X477760Y14559D01*
X477764Y14567D01*
X477772Y14575D01*
X477776Y14587D01*
X477779Y14594D01*
X477783Y14606D01*
Y14614D01*
X477787Y14626D01*
Y14634D01*
X477791Y14646D01*
Y14654D01*
Y14665D01*
Y15256D01*
Y15268D01*
Y15276D01*
X477787Y15287D01*
Y15295D01*
X477783Y15307D01*
Y15315D01*
X477779Y15327D01*
X477776Y15335D01*
X477772Y15347D01*
X477764Y15354D01*
X477760Y15362D01*
X477752Y15370D01*
X477748Y15378D01*
X477740Y15386D01*
X477732Y15394D01*
X477724Y15402D01*
X477716Y15409D01*
X477709Y15413D01*
X477701Y15421D01*
X477693Y15425D01*
X477685Y15433D01*
X477673Y15437D01*
X477665Y15441D01*
X477654Y15445D01*
X477646D01*
X477634Y15449D01*
X477626D01*
X477614Y15453D01*
X476394D01*
X476382Y15457D01*
X476374D01*
X476362Y15461D01*
X476354D01*
X476342Y15465D01*
X476335Y15469D01*
X476323Y15472D01*
X476315Y15480D01*
X476307Y15484D01*
X476299Y15492D01*
X476291Y15496D01*
X476284Y15504D01*
X476276Y15512D01*
X476268Y15520D01*
X476260Y15528D01*
X476256Y15535D01*
X476248Y15543D01*
X476244Y15551D01*
X476236Y15559D01*
X476232Y15571D01*
X476228Y15579D01*
X476224Y15591D01*
Y15598D01*
X476221Y15610D01*
Y15618D01*
X476217Y15630D01*
Y15638D01*
Y15650D01*
Y16240D01*
Y16252D01*
Y16260D01*
X476221Y16272D01*
Y16280D01*
X476224Y16291D01*
Y16299D01*
X476228Y16311D01*
X476232Y16319D01*
X476236Y16331D01*
X476244Y16339D01*
X476248Y16346D01*
X476256Y16354D01*
X476260Y16362D01*
X476268Y16370D01*
X476276Y16378D01*
X476284Y16386D01*
X476291Y16394D01*
X476299Y16398D01*
X476307Y16406D01*
X476315Y16409D01*
X476323Y16417D01*
X476335Y16421D01*
X476342Y16425D01*
X476354Y16429D01*
X476362D01*
X476374Y16433D01*
X476382D01*
X476394Y16437D01*
X477614D01*
X477626Y16441D01*
X477634D01*
X477646Y16445D01*
X477654D01*
X477665Y16449D01*
X477673Y16453D01*
X477685Y16457D01*
X477693Y16465D01*
X477701Y16468D01*
X477709Y16476D01*
X477716Y16480D01*
X477724Y16488D01*
X477732Y16496D01*
X477740Y16504D01*
X477748Y16512D01*
X477752Y16520D01*
X477760Y16528D01*
X477764Y16535D01*
X477772Y16543D01*
X477776Y16555D01*
X477779Y16563D01*
X477783Y16575D01*
Y16583D01*
X477787Y16594D01*
Y16602D01*
X477791Y16614D01*
Y16622D01*
Y16634D01*
Y17224D01*
Y17236D01*
Y17244D01*
X477787Y17256D01*
Y17264D01*
X477783Y17276D01*
Y17284D01*
X477779Y17295D01*
X477776Y17303D01*
X477772Y17315D01*
X477764Y17323D01*
X477760Y17331D01*
X477752Y17339D01*
X477748Y17346D01*
X477740Y17354D01*
X477732Y17362D01*
X477724Y17370D01*
X477716Y17378D01*
X477709Y17382D01*
X477701Y17390D01*
X477693Y17394D01*
X477685Y17402D01*
X477673Y17405D01*
X477665Y17410D01*
X477654Y17413D01*
X477646D01*
X477634Y17417D01*
X477626D01*
X477614Y17421D01*
X476394D01*
X476382Y17425D01*
X476374D01*
X476362Y17429D01*
X476354D01*
X476342Y17433D01*
X476335Y17437D01*
X476323Y17441D01*
X476315Y17449D01*
X476307Y17453D01*
X476299Y17461D01*
X476291Y17465D01*
X476284Y17472D01*
X476276Y17480D01*
X476268Y17488D01*
X476260Y17496D01*
X476256Y17504D01*
X476248Y17512D01*
X476244Y17520D01*
X476236Y17528D01*
X476232Y17539D01*
X476228Y17547D01*
X476224Y17559D01*
Y17567D01*
X476221Y17579D01*
Y17587D01*
X476217Y17598D01*
Y17606D01*
Y17618D01*
Y18209D01*
Y18221D01*
Y18228D01*
X476221Y18240D01*
Y18248D01*
X476224Y18260D01*
Y18268D01*
X476228Y18280D01*
X476232Y18287D01*
X476236Y18299D01*
X476244Y18307D01*
X476248Y18315D01*
X476256Y18323D01*
X476260Y18331D01*
X476268Y18339D01*
X476276Y18347D01*
X476284Y18354D01*
X476291Y18362D01*
X476299Y18366D01*
X476307Y18374D01*
X476315Y18378D01*
X476323Y18386D01*
X476335Y18390D01*
X476342Y18394D01*
X476354Y18398D01*
X476362D01*
X476374Y18402D01*
X476382D01*
X476394Y18406D01*
X477614D01*
X477626Y18409D01*
X477634D01*
X477646Y18413D01*
X477654D01*
X477665Y18417D01*
X477673Y18421D01*
X477685Y18425D01*
X477693Y18433D01*
X477701Y18437D01*
X477709Y18445D01*
X477716Y18449D01*
X477724Y18457D01*
X477732Y18465D01*
X477740Y18472D01*
X477748Y18480D01*
X477752Y18488D01*
X477760Y18496D01*
X477764Y18504D01*
X477772Y18512D01*
X477776Y18524D01*
X477779Y18531D01*
X477783Y18543D01*
Y18551D01*
X477787Y18563D01*
Y18571D01*
X477791Y18583D01*
Y18591D01*
Y18602D01*
Y19842D01*
Y19854D01*
Y19862D01*
X477795Y19874D01*
Y19882D01*
X477799Y19894D01*
Y19902D01*
X477803Y19913D01*
X477807Y19921D01*
X477811Y19933D01*
X477819Y19941D01*
X477823Y19949D01*
X477831Y19957D01*
X477835Y19965D01*
X477843Y19972D01*
X477850Y19980D01*
X477858Y19988D01*
X477866Y19996D01*
X477874Y20000D01*
X477882Y20008D01*
X477890Y20012D01*
X477898Y20020D01*
X477910Y20024D01*
X477917Y20028D01*
X477929Y20031D01*
X477937D01*
X477949Y20035D01*
X477957D01*
X477969Y20039D01*
X481551D01*
X481563Y20035D01*
D02*
G37*
D26*
X506500Y21881D02*
D03*
Y15181D02*
D03*
X480000Y52182D02*
D03*
Y58881D02*
D03*
X499000Y21881D02*
D03*
Y15181D02*
D03*
X465500Y176031D02*
D03*
Y182731D02*
D03*
Y161681D02*
D03*
Y168382D02*
D03*
D34*
X472150Y35531D02*
D03*
X478850D02*
D03*
X505350Y29032D02*
D03*
X498650D02*
D03*
X519200D02*
D03*
X512500D02*
D03*
D45*
X471500Y25469D02*
D03*
Y17594D02*
D03*
X464000Y25469D02*
D03*
Y17594D02*
D03*
D46*
X469437Y109531D02*
D03*
X461563D02*
D03*
X469437Y73532D02*
D03*
X461563D02*
D03*
D47*
X99705Y130858D02*
D03*
X125295D02*
D03*
X99705Y113142D02*
D03*
D48*
X125295D02*
D03*
D49*
X504795Y151031D02*
D03*
X479205D02*
D03*
X504795Y168748D02*
D03*
Y133315D02*
D03*
X479205D02*
D03*
D50*
Y168748D02*
D03*
D51*
X120000Y59000D02*
D03*
X110000D02*
D03*
X100000D02*
D03*
D52*
X150083Y64870D02*
D03*
X287917Y282193D02*
D03*
X449535Y282035D02*
D03*
X311701Y64713D02*
D03*
D53*
X150083Y314555D02*
D03*
X311701Y314398D02*
D03*
D54*
X219000Y64870D02*
D03*
Y282193D02*
D03*
X380618Y282035D02*
D03*
Y64713D02*
D03*
D55*
X494500Y328031D02*
D03*
X484500D02*
D03*
D56*
X60500Y217500D02*
D03*
X50500D02*
D03*
X60500Y207500D02*
D03*
X50500D02*
D03*
X60500Y197500D02*
D03*
X50500D02*
D03*
Y187500D02*
D03*
X60500D02*
D03*
X50500Y177500D02*
D03*
X60500D02*
D03*
X50500Y167500D02*
D03*
X60500D02*
D03*
X50500Y157500D02*
D03*
X60500D02*
D03*
X50500Y147500D02*
D03*
X60500D02*
D03*
X50500Y137500D02*
D03*
X60500D02*
D03*
X50500Y127500D02*
D03*
X60500D02*
D03*
D57*
X75000Y294000D02*
D03*
X20000Y116750D02*
D03*
Y226750D02*
D03*
X75000Y79000D02*
D03*
X552500Y214000D02*
D03*
Y149000D02*
D03*
D58*
X97500Y319000D02*
D03*
Y94000D02*
D03*
D59*
X542500Y319000D02*
D03*
Y39000D02*
D03*
D95*
X181382Y18689D02*
D03*
X256618D02*
D03*
X181382Y328374D02*
D03*
X256618D02*
D03*
X418236Y328217D02*
D03*
X343000D02*
D03*
X418236Y18531D02*
D03*
X343000D02*
D03*
M02*
