G04*
G04 #@! TF.GenerationSoftware,Altium Limited,Altium Designer,25.2.1 (25)*
G04*
G04 Layer_Color=16711935*
%FSLAX25Y25*%
%MOIN*%
G70*
G04*
G04 #@! TF.SameCoordinates,2F33FC32-E69D-4905-AB7C-0DFD41B7419D*
G04*
G04*
G04 #@! TF.FilePolarity,Positive*
G04*
G01*
G75*
%ADD10C,0.00787*%
%ADD11C,0.00394*%
%ADD15C,0.00500*%
%ADD18C,0.00500*%
%ADD19C,0.00300*%
%ADD96C,0.00000*%
%ADD97C,0.00100*%
%ADD98R,0.41339X0.62992*%
D10*
X292520Y142892D02*
G03*
X292520Y142892I-394J0D01*
G01*
X125689Y106236D02*
G03*
X125689Y106236I-394J0D01*
G01*
X479598Y185480D02*
G03*
X479598Y185480I-394J0D01*
G01*
X488028Y267020D02*
G03*
X488028Y267020I-394J0D01*
G01*
X493342Y26339D02*
G03*
X493342Y26339I-394J0D01*
G01*
D11*
X72924Y226831D02*
G03*
X72924Y228799I17J984D01*
G01*
X72926Y116201D02*
G03*
X72926Y118169I34J984D01*
G01*
X72924Y171516D02*
G03*
X72924Y173484I17J984D01*
G01*
X500925Y196681D02*
X504075D01*
X500925Y190382D02*
X504075D01*
X500925D02*
Y196681D01*
X504075Y190382D02*
Y196681D01*
X501949Y193965D02*
X503090D01*
X502500Y193020D02*
X503090Y193965D01*
X501949D02*
X502500Y193020D01*
X478713Y315236D02*
Y340827D01*
X500287D01*
Y315236D02*
Y340827D01*
X478713Y315236D02*
X500287D01*
X38079Y237579D02*
X72921D01*
Y228799D02*
Y237579D01*
Y118169D02*
Y226831D01*
Y107421D02*
Y116201D01*
X38079Y107421D02*
X72921D01*
X38079D02*
Y163642D01*
Y181358D02*
Y237579D01*
X68000Y111988D02*
Y233012D01*
X43000Y111988D02*
X68000D01*
X43000D02*
Y163642D01*
Y181358D02*
Y233012D01*
X43059D01*
X68000D01*
X70362Y109606D02*
Y235394D01*
X40638Y109606D02*
X70362D01*
X40638D02*
Y163642D01*
Y181358D02*
Y235394D01*
X70362D01*
X67980Y232972D02*
X70342Y235374D01*
X40657D02*
X43059Y233012D01*
X40657Y109665D02*
X43020Y112067D01*
X67902Y112028D02*
X70303Y109665D01*
X40638Y181358D02*
X43000D01*
X38197D02*
X40559D01*
X40638Y163642D02*
X43000D01*
X38118D02*
X40480D01*
D15*
X294094Y144860D02*
X305906D01*
Y135018D02*
Y144860D01*
X294094Y135018D02*
X305906D01*
X294094D02*
Y144860D01*
X124311Y110189D02*
Y133811D01*
X100689D02*
X124311D01*
X100689Y110189D02*
Y133811D01*
Y110189D02*
X124311D01*
X471331Y182528D02*
X512669D01*
X471331Y119535D02*
Y182528D01*
Y119535D02*
X512669D01*
Y182528D01*
X477791Y260681D02*
X489209D01*
X477791Y254382D02*
X489209D01*
Y260681D01*
X477791Y254382D02*
Y260681D01*
X489996Y11673D02*
Y29390D01*
X477004D02*
X489996D01*
X477004Y11673D02*
X489996D01*
X477004D02*
Y29390D01*
X163882Y13098D02*
Y17035D01*
X140693Y21839D02*
Y325224D01*
Y21839D02*
X297307D01*
X161913Y331996D02*
X165850D01*
X163882Y330028D02*
Y333965D01*
X140693Y325224D02*
X297307D01*
X274118Y13098D02*
Y17035D01*
X272150Y15067D02*
X276087D01*
X297307Y21839D02*
Y325224D01*
X274118Y330028D02*
Y333965D01*
X435736Y329870D02*
Y333807D01*
X458925Y21681D02*
Y325067D01*
X433768Y14909D02*
X437705D01*
X435736Y12941D02*
Y16878D01*
X323532Y331839D02*
X327468D01*
X302311Y325067D02*
X458925D01*
X325500Y329870D02*
Y333807D01*
X302311Y21681D02*
X458925D01*
X302311D02*
Y325067D01*
X325500Y12941D02*
Y16878D01*
D18*
X502482Y199831D02*
Y201430D01*
X501682Y200630D02*
X503281D01*
D19*
X494703Y286316D02*
X491370Y289648D01*
X494703D02*
X491370Y286316D01*
X494703Y287982D02*
X491370D01*
X493037Y289648D02*
Y286316D01*
X285100Y199583D02*
X288432Y196250D01*
X285100D02*
X288432Y199583D01*
X285100Y197916D02*
X288432D01*
X286766Y196250D02*
Y199583D01*
X476665Y72031D02*
X473333Y75364D01*
Y72031D02*
X476665Y75364D01*
X474999Y72031D02*
Y75364D01*
X473333Y73698D02*
X476665D01*
X16130Y180102D02*
X19463Y176770D01*
X16130D02*
X19463Y180102D01*
X16130Y178436D02*
X19463D01*
X17796Y176770D02*
Y180102D01*
D96*
X307178Y152032D02*
G03*
X307178Y152032I-300J0D01*
G01*
X307684Y151193D02*
G03*
X305284Y151193I-1200J0D01*
G01*
D97*
X492600Y285981D02*
X497600Y290982D01*
X483400Y304082D02*
X497600D01*
X483400Y285981D02*
Y304082D01*
Y285981D02*
X497600D01*
Y304082D01*
X283950Y195581D02*
X288950Y200582D01*
X312098D02*
X313098D01*
X312098D02*
X313098D01*
X310524D02*
X311524D01*
X310524D02*
X311524D01*
X308949D02*
X309949D01*
X308949D02*
X309949D01*
X307374D02*
X308374D01*
X307374D02*
X308374D01*
X305799D02*
X306799D01*
X305799D02*
X306799D01*
X304224D02*
X305224D01*
X304224D02*
X305224D01*
X302650D02*
X303650D01*
X302650D02*
X303650D01*
X301075D02*
X302075D01*
X301075D02*
X302075D01*
X299500D02*
X300500D01*
X299500D02*
X300500D01*
X297925D02*
X298925D01*
X297925D02*
X298925D01*
X296350D02*
X297350D01*
X296350D02*
X297350D01*
X294776D02*
X295776D01*
X294776D02*
X295776D01*
X293201D02*
X294201D01*
X293201D02*
X294201D01*
X291626D02*
X292626D01*
X291626D02*
X292626D01*
X290051D02*
X291051D01*
X290051D02*
X291051D01*
X288476D02*
X289476D01*
X288476D02*
X289476D01*
X286902D02*
X287902D01*
X286902D02*
X287902D01*
X283950Y196630D02*
Y197630D01*
Y196630D02*
Y197630D01*
Y195055D02*
Y196055D01*
Y195055D02*
Y196055D01*
Y193480D02*
Y194480D01*
Y193480D02*
Y194480D01*
Y191905D02*
Y192905D01*
Y191905D02*
Y192905D01*
Y190331D02*
Y191331D01*
Y190331D02*
Y191331D01*
Y188756D02*
Y189756D01*
Y188756D02*
Y189756D01*
Y187181D02*
Y188181D01*
Y187181D02*
Y188181D01*
Y185606D02*
Y186606D01*
Y185606D02*
Y186606D01*
Y184031D02*
Y185031D01*
Y184031D02*
Y185031D01*
Y182457D02*
Y183457D01*
Y182457D02*
Y183457D01*
Y180882D02*
Y181882D01*
Y180882D02*
Y181882D01*
Y179307D02*
Y180307D01*
Y179307D02*
Y180307D01*
Y177732D02*
Y178732D01*
Y177732D02*
Y178732D01*
Y176157D02*
Y177157D01*
Y176157D02*
Y177157D01*
Y174583D02*
Y175583D01*
Y174583D02*
Y175583D01*
Y173008D02*
Y174008D01*
Y173008D02*
Y174008D01*
Y171433D02*
Y172433D01*
Y171433D02*
Y172433D01*
X286902Y168482D02*
X287902D01*
X286902D02*
X287902D01*
X288476D02*
X289476D01*
X288476D02*
X289476D01*
X290051D02*
X291051D01*
X290051D02*
X291051D01*
X291626D02*
X292626D01*
X291626D02*
X292626D01*
X293201D02*
X294201D01*
X293201D02*
X294201D01*
X294776D02*
X295776D01*
X294776D02*
X295776D01*
X296350D02*
X297350D01*
X296350D02*
X297350D01*
X297925D02*
X298925D01*
X297925D02*
X298925D01*
X299500D02*
X300500D01*
X299500D02*
X300500D01*
X301075D02*
X302075D01*
X301075D02*
X302075D01*
X302650D02*
X303650D01*
X302650D02*
X303650D01*
X304224D02*
X305224D01*
X304224D02*
X305224D01*
X305799D02*
X306799D01*
X305799D02*
X306799D01*
X307374D02*
X308374D01*
X307374D02*
X308374D01*
X308949D02*
X309949D01*
X308949D02*
X309949D01*
X310524D02*
X311524D01*
X310524D02*
X311524D01*
X312098D02*
X313098D01*
X312098D02*
X313098D01*
X316050Y171433D02*
Y172433D01*
Y171433D02*
Y172433D01*
Y173008D02*
Y174008D01*
Y173008D02*
Y174008D01*
Y174583D02*
Y175583D01*
Y174583D02*
Y175583D01*
Y176157D02*
Y177157D01*
Y176157D02*
Y177157D01*
Y177732D02*
Y178732D01*
Y177732D02*
Y178732D01*
Y179307D02*
Y180307D01*
Y179307D02*
Y180307D01*
Y180882D02*
Y181882D01*
Y180882D02*
Y181882D01*
Y182457D02*
Y183457D01*
Y182457D02*
Y183457D01*
Y184031D02*
Y185031D01*
Y184031D02*
Y185031D01*
Y185606D02*
Y186606D01*
Y185606D02*
Y186606D01*
Y187181D02*
Y188181D01*
Y187181D02*
Y188181D01*
Y188756D02*
Y189756D01*
Y188756D02*
Y189756D01*
Y190331D02*
Y191331D01*
Y190331D02*
Y191331D01*
Y191905D02*
Y192905D01*
Y191905D02*
Y192905D01*
Y193480D02*
Y194480D01*
Y193480D02*
Y194480D01*
Y195055D02*
Y196055D01*
Y195055D02*
Y196055D01*
Y196630D02*
Y197630D01*
Y196630D02*
Y197630D01*
X283950Y168482D02*
X316050D01*
Y200582D01*
X283950D02*
X316050D01*
X283950Y168482D02*
Y200582D01*
X481000Y79132D02*
Y82932D01*
X464500Y79132D02*
X481000D01*
X464500D02*
Y82932D01*
X481000D01*
Y89131D02*
Y92931D01*
X464500Y89131D02*
X481000D01*
X464500D02*
Y92931D01*
X481000D01*
Y99132D02*
Y102931D01*
X464500Y99132D02*
X481000D01*
X464500D02*
Y102931D01*
X481000D01*
Y70531D02*
Y111531D01*
X521000D01*
Y70531D02*
Y111531D01*
X481000Y70531D02*
X521000D01*
X15650Y155150D02*
X20350D01*
X15650Y152550D02*
Y155150D01*
Y152550D02*
X20350D01*
Y155150D01*
X15650Y157850D02*
X20350D01*
Y160450D01*
X15650D02*
X20350D01*
X15650Y157850D02*
Y160450D01*
X20350Y152550D02*
Y160450D01*
X15650D02*
X20350D01*
X15650Y152550D02*
Y160450D01*
Y152550D02*
X20350D01*
X14600Y175400D02*
X19600Y180400D01*
X14600Y168600D02*
X26400D01*
Y180400D01*
X14600D02*
X26400D01*
X14600Y168600D02*
Y180400D01*
X304516Y157492D02*
X308453D01*
Y151193D02*
Y157492D01*
X304516Y151193D02*
X308453D01*
X304516D02*
Y157492D01*
X320150Y173850D02*
X325850D01*
X320150Y170650D02*
Y173850D01*
Y170650D02*
X325850D01*
Y173850D01*
X320150Y176150D02*
X325850D01*
Y179350D01*
X320150D02*
X325850D01*
X320150Y176150D02*
Y179350D01*
X325850Y170650D02*
Y179350D01*
X320150D02*
X325850D01*
X320150Y170650D02*
Y179350D01*
Y170650D02*
X325850D01*
X95000Y10592D02*
X125000D01*
Y51992D01*
X95000D02*
X125000D01*
X95000Y10592D02*
Y51992D01*
X508850Y19882D02*
Y22481D01*
X504150Y17181D02*
X508850D01*
Y14581D02*
Y17181D01*
X504150Y22481D02*
X508850D01*
X504150D02*
X508850D01*
X504150Y19882D02*
X508850D01*
X504150D02*
Y22481D01*
X508850Y14581D02*
Y22481D01*
X504150Y14581D02*
Y22481D01*
Y14581D02*
X508850D01*
X504150D02*
Y17181D01*
Y14581D02*
X508850D01*
X477650Y51582D02*
Y54181D01*
Y56881D02*
X482350D01*
X477650D02*
Y59482D01*
Y51582D02*
X482350D01*
X477650D02*
X482350D01*
X477650Y54181D02*
X482350D01*
Y51582D02*
Y54181D01*
X477650Y51582D02*
Y59482D01*
X482350Y51582D02*
Y59482D01*
X477650D02*
X482350D01*
Y56881D02*
Y59482D01*
X477650D02*
X482350D01*
X479450Y33182D02*
Y37881D01*
X471550D02*
X479450D01*
X471550Y33182D02*
Y37881D01*
Y33182D02*
X479450D01*
X471550Y37881D02*
X474150D01*
X471550Y33182D02*
Y37881D01*
Y33182D02*
X474150D01*
Y37881D01*
X476850Y33182D02*
X479450D01*
Y37881D01*
X476850D02*
X479450D01*
X476850Y33182D02*
Y37881D01*
X496650Y19882D02*
X501350D01*
X496650D02*
Y22481D01*
X501350D01*
Y19882D02*
Y22481D01*
X496650Y17181D02*
X501350D01*
Y14581D02*
Y17181D01*
X496650Y14581D02*
X501350D01*
X496650D02*
Y17181D01*
X501350Y14581D02*
Y22481D01*
X496650Y14581D02*
X501350D01*
X496650D02*
Y22481D01*
X501350D01*
X498050Y26682D02*
Y31381D01*
Y26682D02*
X505950D01*
Y31381D01*
X498050D02*
X505950D01*
X503350Y26682D02*
X505950D01*
Y31381D01*
X503350D02*
X505950D01*
X503350Y26682D02*
Y31381D01*
X498050D02*
X500650D01*
X498050Y26682D02*
Y31381D01*
Y26682D02*
X500650D01*
Y31381D01*
X511900Y26682D02*
Y31381D01*
Y26682D02*
X519800D01*
Y31381D01*
X511900D02*
X519800D01*
X517200Y26682D02*
X519800D01*
Y31381D01*
X517200D02*
X519800D01*
X517200Y26682D02*
Y31381D01*
X511900D02*
X514500D01*
X511900Y26682D02*
Y31381D01*
Y26682D02*
X514500D01*
Y31381D01*
X481150Y272150D02*
X485850D01*
X481150Y269550D02*
Y272150D01*
Y269550D02*
X485850D01*
Y272150D01*
X481150Y274850D02*
X485850D01*
Y277450D01*
X481150D02*
X485850D01*
X481150Y274850D02*
Y277450D01*
X485850Y269550D02*
Y277450D01*
X481150D02*
X485850D01*
X481150Y269550D02*
Y277450D01*
Y269550D02*
X485850D01*
X269150Y160181D02*
Y164882D01*
X266550D02*
X269150D01*
X266550Y160181D02*
Y164882D01*
Y160181D02*
X269150D01*
X271850D02*
Y164882D01*
Y160181D02*
X274450D01*
Y164882D01*
X271850D02*
X274450D01*
X266550Y160181D02*
X274450D01*
Y164882D01*
X266550D02*
X274450D01*
X266550Y160181D02*
Y164882D01*
X269150Y153182D02*
Y157881D01*
X266550D02*
X269150D01*
X266550Y153182D02*
Y157881D01*
Y153182D02*
X269150D01*
X271850D02*
Y157881D01*
Y153182D02*
X274450D01*
Y157881D01*
X271850D02*
X274450D01*
X266550Y153182D02*
X274450D01*
Y157881D01*
X266550D02*
X274450D01*
X266550Y153182D02*
Y157881D01*
X280150Y161481D02*
X284850D01*
Y153582D02*
Y161481D01*
X280150Y153582D02*
X284850D01*
X280150D02*
Y161481D01*
X284850Y153582D02*
Y156182D01*
X280150Y153582D02*
X284850D01*
X280150D02*
Y156182D01*
X284850D01*
X280150Y158881D02*
Y161481D01*
X284850D01*
Y158881D02*
Y161481D01*
X280150Y158881D02*
X284850D01*
X287650Y161481D02*
X292350D01*
X287650Y158881D02*
Y161481D01*
X292350D01*
X287650Y153582D02*
Y161481D01*
X292350Y153582D02*
Y161481D01*
X287650Y153582D02*
Y156182D01*
X292350D01*
X287650Y153582D02*
X292350D01*
X287650D02*
X292350D01*
Y158881D02*
Y161481D01*
X287650Y158881D02*
X292350D01*
Y153582D02*
Y156182D01*
X287850Y145381D02*
X290450D01*
X285150Y140682D02*
Y145381D01*
X282550D02*
X285150D01*
X290450Y140682D02*
Y145381D01*
Y140682D02*
Y145381D01*
X287850Y140682D02*
Y145381D01*
Y140682D02*
X290450D01*
X282550Y145381D02*
X290450D01*
X282550Y140682D02*
X290450D01*
X282550D02*
Y145381D01*
Y140682D02*
X285150D01*
X282550D02*
Y145381D01*
X463150Y183332D02*
X467850D01*
X463150Y175432D02*
Y183332D01*
Y175432D02*
X467850D01*
Y183332D01*
X463150Y175432D02*
Y178032D01*
Y175432D02*
X467850D01*
Y178032D01*
X463150D02*
X467850D01*
Y180731D02*
Y183332D01*
X463150D02*
X467850D01*
X463150Y180731D02*
Y183332D01*
Y180731D02*
X467850D01*
X463150Y168982D02*
X467850D01*
X463150Y161082D02*
Y168982D01*
Y161082D02*
X467850D01*
Y168982D01*
X463150Y161082D02*
Y163681D01*
Y161082D02*
X467850D01*
Y163681D01*
X463150D02*
X467850D01*
Y166382D02*
Y168982D01*
X463150D02*
X467850D01*
X463150Y166382D02*
Y168982D01*
Y166382D02*
X467850D01*
X484676Y205532D02*
X488000Y208855D01*
X493586Y203269D01*
X490263Y199945D02*
X493586Y203269D01*
X484676Y205532D02*
X490263Y199945D01*
X491748Y205107D02*
X493586Y203269D01*
X490263Y199945D02*
X493586Y203269D01*
X488424Y201784D02*
X490263Y199945D01*
X488424Y201784D02*
X491748Y205107D01*
X484676Y205532D02*
X486515Y203693D01*
X484676Y205532D02*
X488000Y208855D01*
X489838Y207017D01*
X486515Y203693D02*
X489838Y207017D01*
X479045Y199663D02*
X482369Y202986D01*
X487955Y197400D01*
X484631Y194077D02*
X487955Y197400D01*
X479045Y199663D02*
X484631Y194077D01*
X486116Y199239D02*
X487955Y197400D01*
X484631Y194077D02*
X487955Y197400D01*
X482793Y195915D02*
X484631Y194077D01*
X482793Y195915D02*
X486116Y199239D01*
X479045Y199663D02*
X480884Y197824D01*
X479045Y199663D02*
X482369Y202986D01*
X484207Y201148D01*
X480884Y197824D02*
X484207Y201148D01*
D98*
X491992Y151022D02*
D03*
M02*
