G04*
G04 #@! TF.GenerationSoftware,Altium Limited,Altium Designer,25.8.1 (18)*
G04*
G04 Layer_Color=2752767*
%FSLAX25Y25*%
%MOIN*%
G70*
G04*
G04 #@! TF.SameCoordinates,31E2A41C-BC31-4C51-A6E1-2EC11E0042B4*
G04*
G04*
G04 #@! TF.FilePolarity,Positive*
G04*
G01*
G75*
%ADD12C,0.00500*%
%ADD34C,0.00667*%
D12*
X148500Y131000D02*
X149500Y132000D01*
X150500D01*
X149500Y133000D01*
X150500Y134000D01*
X149500D01*
X148500Y135000D01*
X147500Y134000D01*
X146500D01*
X147500Y133000D01*
X146500Y132000D01*
X147500D01*
X148500Y131000D01*
X127000Y111000D02*
X128000Y112000D01*
X129000D01*
X128000Y113000D01*
X129000Y114000D01*
X128000D01*
X127000Y115000D01*
X126000Y114000D01*
X125000D01*
X126000Y113000D01*
X125000Y112000D01*
X126000D01*
X127000Y111000D01*
D34*
X144000Y119000D02*
G03*
X144000Y119000I-2000J0D01*
G01*
X152000Y136000D02*
G03*
X152000Y136000I-2000J0D01*
G01*
Y119500D02*
G03*
X152000Y119500I-2000J0D01*
G01*
X136500Y121000D02*
G03*
X136500Y121000I-2000J0D01*
G01*
X128000Y108000D02*
G03*
X128000Y108000I-2000J0D01*
G01*
X117000Y116500D02*
G03*
X117000Y116500I-2000J0D01*
G01*
Y120000D02*
G03*
X117000Y120000I-2000J0D01*
G01*
Y113500D02*
G03*
X117000Y113500I-2000J0D01*
G01*
M02*
