M48
;Layer_Color=9474304
;FILE_FORMAT=2:5
INCH,TZ
;TYPE=PLATED
T01F00S00C0.01181
T02F00S00C0.02000
T03F00S00C0.03937
T04F00S00C0.04200
T05F00S00C0.04200
T06F00S00C0.04331
T07F00S00C0.05118
T08F00S00C0.10000
T09F00S00C0.15000
T10F00S00C0.23000
;TYPE=NON_PLATED
T11F00S00C0.09409
T12F00S00C0.12480
T13F00S00C0.13583
%
T01
X264000Y64000
X268000
X266000Y68000
X268000Y72000
X264000
X266000Y76000
X268000Y80000
X264000
X266000Y84000
X268000Y88000
X264000
X266000Y92000
X270000
X274000
X278000
X282000
X286000
X290000
X294000
X298000
X302000
X300000Y88000
X302000Y84000
X298000
X300000Y80000
X302000Y76000
X298000
X300000Y72000
X302000Y68000
X298000
X300000Y64000
X407750Y66500
X411250
X414750
X418250
X421750
X425250
X428750
X432250
X435750
X439500Y67594
X442000Y66094
X444500
X447000
X449500
X456750Y66500
X460250
X463750
X462000Y77000
X458500
X460250Y80500
X463750
X467250
X465500Y91000
X462000
X458500
X455000
X451500
X448000
X444500
X441000
X437500
X439250Y94500
X442750
X446250
X449750
X453250
X456750
X460250
X463750
X467250
X465500Y98000
X462000
X458500
X455000
X451500
X448000
X444500
X446250Y101500
X449750
X453250
X456750
X460250
X458500Y105000
X455000
X451500
X441000
X437500
X439250Y108500
X442750
X439250Y101500
X430500Y105000
Y98000
X420000
X416500
X413000
X409500
X406000
X407750Y101500
X411250
X414750
X418250
X421750
X420000Y105000
X416500
X413000
X409500
X406000
X407750Y108500
X411250
X414750
X418250
X421750
X416500Y120595
X411250Y94500
X407750
X409500Y91000
X413000
X414750Y87500
X418250
X421750
X411250
X407750
X406000Y91000
Y70000
X409500
X413000
X416500
X420000
X439250Y73500
X441000Y77000
Y83126
X439250Y87500
X470750Y73500
X498750
X497000Y77000
X498750Y80500
X497000Y84000
X498750Y87500
X505750Y94500
X509250
X512750
X516250
X519750
X523250
X526750
X530250
X532000Y91000
X528500
X530250Y87500
X532000Y84000
X530250Y80500
X532000Y77000
X530250Y73500
X532000Y70000
X530250Y66500
X532000Y63000
X497000
X498750Y66500
X497000Y70000
X514500Y91000
X575000Y170595
X432000Y204232
X435500Y209646
X437000Y217028
X430835Y225339
X429263Y227095
X427500Y228839
X435000Y235595
Y245094
X419000Y240094
X417000Y234594
X402500Y235094
X403500Y223425
X405500Y224902
X407500Y225886
X410000
X405500Y221094
X421000Y220472
Y217094
X413000Y305594
X114500Y240094
X113343Y233594
X118000Y203095
X125000Y209594
X235500Y333169
X419500Y338126
X423500
X426500Y345626
X425000Y350126
X432500Y341094
X438500Y342126
X442500Y343094
X447000Y344126
X451500
X455500
X460000
X445500Y351626
X442000Y366126
X438500Y368126
X435500
X432500
X429000Y366126
X424500Y327626
X420500Y324311
X414500Y314469
X441000Y312595
T02
X386650Y150444
T03
X126705Y132736
Y150453
X152295
Y132736
T04
X202000Y115594
X212000
X222000
X224000Y135594
X214000
Y145595
Y155595
X224000
Y145595
X454000
Y155595
X464000
Y145595
Y135594
X454000
Y165594
Y175594
Y185594
Y195595
Y205594
Y215595
Y225594
Y235595
Y245595
Y255594
Y265595
Y275594
Y285595
Y295595
Y305594
X464000
Y295595
Y285595
Y275594
Y265595
Y255594
Y245595
Y235595
Y225594
Y215595
Y205594
Y195595
Y185594
Y175594
Y165594
X224000
X214000
Y175594
Y185594
Y195595
Y205594
Y215595
Y225594
Y235595
Y245595
X224000
Y255594
X214000
Y265595
Y275594
Y285595
Y295595
Y305594
X224000
Y295595
Y285595
Y275594
Y265595
Y235595
Y225594
Y215595
Y205594
Y195595
Y185594
Y175594
Y315595
X214000
X454000
X464000
T05
X215500Y350886
X225500
X235500
T06
X162500Y184095
Y194095
Y204095
Y214094
Y224095
Y234095
Y244094
Y254095
Y264094
Y274095
X152500
Y264094
Y254095
Y244094
Y234095
Y224095
Y214094
Y204095
Y194095
Y184095
T07
X431000Y384095
X441000
T08
X177000Y135594
X654500Y205594
Y270595
X122000Y283345
Y173345
X177000Y350594
T09
X199500Y150594
Y375594
T10
X644500Y95595
Y375594
T11
X252083Y371150
X483083Y370457
T12
X321000Y121465
X552000Y120772
X321000Y338787
X552000Y338094
T13
X252083Y121465
X483083Y120772
X389917Y338787
X620917Y338094
M30
