M48
;Layer_Color=9474304
;FILE_FORMAT=2:5
INCH,LZ
;TYPE=PLATED
T01F00S00C0.01000
T02F00S00C0.02362
T03F00S00C0.03000
T04F00S00C0.03346
T05F00S00C0.05118
%
T01
X0118Y0109
X0129
X0143
X01425Y0156
X01305
X01185
X0169154Y0155439
X0171999Y0147099
X017Y01385
Y01125
X01735
X0173562Y0107246
X01735Y0104
X0201Y01325
X0169Y0163
X01625Y01665
Y01735
X0169Y0191
X01565Y01925
X0176Y0209
X01945Y0208
X0195Y02115
X0201Y02105
X02015Y0214
X0207Y02205
X02095Y02225
X02065Y02315
X0214
X02215Y0232
X02225Y02125
X0228Y02135
X02315Y0208
Y02005
X02165Y0204
X0214Y0206
X0211
X0192Y0204
X0226Y0185
X0263Y0196
Y02175
X0265Y023
X0249Y02315
X02512Y0220482
X0239332Y023735
X0159Y0238
X0155Y02545
X014
X01505Y02225
X0146Y0218
X0143Y0192
Y0184
X0149Y0179
X0113Y0239
T02
X01755Y01225
Y01325
Y01425
Y01525
X02455
Y01475
Y01425
Y01375
Y01325
Y01275
Y01225
Y01575
Y01625
Y01675
Y01725
Y01775
Y01825
X01755
Y01775
Y01725
Y01675
Y01625
Y01575
T03
X0162Y01805
Y01905
Y02005
Y02105
Y02205
X02065Y01595
X0112Y01905
Y02105
T04
X01805Y01225
Y01325
Y01425
Y01525
X02405
Y01425
Y01325
Y01225
Y01625
Y01725
Y01825
X01805
Y01725
Y01625
T05
X01795Y0243
X01895
M30
