M48
;Layer_Color=9474304
;FILE_FORMAT=2:5
INCH,TZ
;TYPE=PLATED
T01F00S00C0.01181
T02F00S00C0.01500
T03F00S00C0.02000
T04F00S00C0.03937
T05F00S00C0.04200
T06F00S00C0.04331
T07F00S00C0.05118
T08F00S00C0.05906
T09F00S00C0.10000
T10F00S00C0.15000
T11F00S00C0.23000
;TYPE=NON_PLATED
T12F00S00C0.09409
T13F00S00C0.12480
T14F00S00C0.13583
%
T01
X23000Y153000
X271000Y150531
X274000
X276500
X278500Y148031
X282500Y149031
X279000Y141532
X276500Y139032
X286000
X289000
X292000
X286000Y133031
Y129532
X290000Y124531
X302000Y133531
X307500Y139032
Y142032
X309000Y147031
X307000Y149031
X299500
X298000Y146531
X295000Y153532
X310000Y137031
X308000Y80000
X300000
X292000
X296000Y72000
X304000
X300000Y64000
X292000
X296000Y56000
X304000
X312000
Y40000
X304000
X296000
X288000
X292000Y32000
X300000
X308000
X312000Y24000
X304000
X296000
X288000
X292000Y16000
X300000
X308000
X312000Y8000
X304000
X296000
X288000
Y56000
Y72000
X202000Y36000
X198000
X194000
X190000
X186000
X182000
X178000
X174000
X170000
X166000
X162000
X164000Y32000
X160000
X162000Y28000
X166000
X164000Y24000
X160000
X162000Y20000
X166000
X164000Y16000
X160000
X162000Y12000
X166000
X164000Y8000
X160000
X196000
X200000
X202000Y12000
X198000
X200000Y16000
X196000
X198000Y20000
X202000
X200000Y24000
X196000
X198000Y28000
X202000
X200000Y32000
X196000
X316000
X324000
X328000Y40000
X336000
X344000
X352000
X360000
X368000
X372000Y32000
X380000
X384000Y24000
X376000
X368000
X360000
X364000Y32000
Y16000
X372000
X380000
X388000
X396000
X392000Y8000
X384000
X376000
X368000
X360000
X328000
X320000
X324000Y16000
X316000
X320000Y24000
X328000
X320000Y40000
Y56000
X328000
X336000
X344000
X352000
X360000
X368000
X376000
X384000
X392000
X396000Y64000
X392000Y72000
X384000
X376000
X368000
X360000
X352000
X344000
X336000
X328000
X320000
X324000Y80000
X332000
X340000
X348000
X356000
X364000
X372000
X380000
X388000
X396000
Y48000
X388000
X380000
X392000Y40000
X396000Y32000
X372000Y64000
X364000
X356000
X348000
X340000
X332000
X324000
X316000Y80000
X313000Y116032
X317000Y122031
Y129532
X317500Y135031
X322000
X327500
X332500
X337500Y143032
X332500Y155032
X326000Y152032
X313000Y135031
X461500Y114532
X461000Y91031
X468500Y87032
Y95031
X461500Y67532
X467000Y35531
X468000Y32000
X464000
X466000Y12000
X468000Y8000
X464000
X462000Y156032
X501500Y104532
Y92032
Y78531
X502000Y36000
X506000
X510000
X514000
X517000Y34532
X520500
X520000Y24000
X516000
X512000
X514000Y20000
X518000
X522000Y12000
X520000Y8000
X516000
X512000
X504500Y9000
X502000
X497000
X494500
X492500Y11000
X488000Y8000
X484000
X480000
X476000
X472000
X474000Y12000
X470000
X472000Y30031
Y41032
X492000Y32000
X494500Y26032
X494000Y20000
X498000Y36000
X497500Y250532
X487000Y243531
X475500Y252532
Y262531
X479500Y267531
X478500Y278031
X474500
X481500Y285531
X480000Y290032
X488000Y280031
X493500Y282031
X502000Y284032
X506500
X510500
X515000
X500500Y291531
X497000Y306031
X493500Y308032
X490500
X487500
X484000Y306031
X462000Y172031
X341500Y175531
Y180532
X335500Y180032
Y175531
X341000Y164032
X345000
Y158031
X341000
X330000
X326000Y161531
X314000Y158031
X320500Y182500
X333000Y192532
Y197031
X341500Y192032
X345000Y186031
X311000Y203281
X306288Y203343
X303541Y203281
X296500
X293066Y203216
X296500Y218500
X306500Y222000
X310000Y224500
X303500Y227000
X293000Y229000
X280000Y194000
Y191500
Y189032
X280500Y181500
X281000Y174031
X279000Y171031
X282500Y169032
X274000Y172531
X271000
X268000
X265500
X260500Y181500
X261500Y189032
X267000Y193032
X274500
X278500Y157531
X295000Y156532
X299000Y157531
X301500
X311000Y158031
X291758Y164774
X229515Y181485
X218000Y181500
X132095Y204095
X12500Y183500
X10000Y177000
T02
X267000Y101031
X305000
X349000
Y168032
X321000Y204500
T03
X469500Y66031
T04
X99705Y113142
Y130858
X125295
Y113142
T05
X100000Y59000
X110000
X120000
T06
X50500Y127500
X60500
Y137500
X50500
Y147500
X60500
Y157500
X50500
Y167500
X60500
Y177500
X50500
Y187500
X60500
Y197500
X50500
Y207500
X60500
Y217500
X50500
T07
X484500Y328031
X494500
T08
X479205Y133315
Y151031
X504795
Y133315
Y168748
X479205
T09
X20000Y116750
X75000Y79000
X552500Y149000
Y214000
X20000Y226750
X75000Y294000
T10
X97500Y94000
Y319000
T11
X542500Y39000
Y319000
T12
X150083Y314555
X311701Y314398
T13
X219000Y64870
X380618Y64713
Y282035
X219000Y282193
T14
X150083Y64870
X311701Y64713
X449535Y282035
X287917Y282193
M30
