G04*
G04 #@! TF.GenerationSoftware,Altium Limited,Altium Designer,25.8.1 (18)*
G04*
G04 Layer_Physical_Order=2*
G04 Layer_Color=16711680*
%FSLAX25Y25*%
%MOIN*%
G70*
G04*
G04 #@! TF.SameCoordinates,67F45A81-E337-433C-A550-62EA9ADE51A4*
G04*
G04*
G04 #@! TF.FilePolarity,Positive*
G04*
G01*
G75*
%ADD12C,0.02000*%
%ADD25R,0.04700X0.04000*%
%ADD26C,0.01000*%
%ADD41C,0.03543*%
%ADD42C,0.05512*%
%ADD43C,0.06000*%
%ADD44C,0.07677*%
%ADD45C,0.02000*%
G36*
X268480Y102520D02*
X101020D01*
Y259981D01*
X268480D01*
Y102520D01*
D02*
G37*
%LPC*%
G36*
X129250Y249267D02*
X125750D01*
X125597Y249203D01*
X125533Y249050D01*
Y245950D01*
X125597Y245797D01*
X125750Y245733D01*
X129250D01*
X129403Y245797D01*
X129466Y245950D01*
Y249050D01*
X129403Y249203D01*
X129250Y249267D01*
D02*
G37*
G36*
X114750D02*
X111250D01*
X111097Y249203D01*
X111033Y249050D01*
Y245950D01*
X111097Y245797D01*
X111250Y245733D01*
X114750D01*
X114903Y245797D01*
X114966Y245950D01*
Y249050D01*
X114903Y249203D01*
X114750Y249267D01*
D02*
G37*
G36*
X189000Y247814D02*
X188237Y247714D01*
X187060Y247227D01*
X186049Y246451D01*
X185274Y245440D01*
X184786Y244263D01*
X184752Y244006D01*
X183945D01*
X183922Y244185D01*
X183464Y245289D01*
X182737Y246237D01*
X181789Y246964D01*
X180685Y247422D01*
X179500Y247578D01*
X178315Y247422D01*
X177211Y246964D01*
X176263Y246237D01*
X175536Y245289D01*
X175078Y244185D01*
X174922Y243000D01*
X175078Y241815D01*
X175536Y240711D01*
X176263Y239763D01*
X177211Y239036D01*
X178315Y238578D01*
X179500Y238422D01*
X180685Y238578D01*
X181789Y239036D01*
X182737Y239763D01*
X183464Y240711D01*
X183922Y241815D01*
X183945Y241994D01*
X184752D01*
X184786Y241737D01*
X185274Y240560D01*
X186049Y239549D01*
X187060Y238773D01*
X188237Y238286D01*
X189000Y238186D01*
Y243000D01*
Y247814D01*
D02*
G37*
G36*
X190000D02*
Y243500D01*
X194315D01*
X194214Y244263D01*
X193727Y245440D01*
X192951Y246451D01*
X191940Y247227D01*
X190763Y247714D01*
X190000Y247814D01*
D02*
G37*
G36*
X194315Y242500D02*
X190000D01*
Y238186D01*
X190763Y238286D01*
X191940Y238773D01*
X192951Y239549D01*
X193727Y240560D01*
X194214Y241737D01*
X194315Y242500D01*
D02*
G37*
G36*
X257162Y239552D02*
X256450Y239550D01*
Y239399D01*
X255156Y239083D01*
X239332D01*
X238668Y238951D01*
X238106Y238576D01*
X237730Y238013D01*
X237598Y237350D01*
X237730Y236687D01*
X238106Y236124D01*
X238668Y235749D01*
X239332Y235617D01*
X242085D01*
X242232Y234830D01*
X241835Y234565D01*
X233635Y226365D01*
X233370Y225968D01*
X233277Y225500D01*
Y182905D01*
X233370Y182437D01*
X233635Y182040D01*
X239040Y176635D01*
X239163Y176553D01*
X239137Y175676D01*
X238757Y175519D01*
X238035Y174965D01*
X237481Y174243D01*
X237133Y173402D01*
X237102Y173165D01*
X236257Y172879D01*
X227223Y181912D01*
Y183773D01*
X227226Y183774D01*
X227601Y184337D01*
X227733Y185000D01*
X227601Y185663D01*
X227226Y186226D01*
X226663Y186601D01*
X226000Y186733D01*
X225337Y186601D01*
X224774Y186226D01*
X224523Y185850D01*
X223724Y186058D01*
Y211221D01*
X223726Y211240D01*
X223733Y211284D01*
X223733Y211286D01*
X224101Y211837D01*
X224233Y212500D01*
X224101Y213163D01*
X223726Y213726D01*
X223163Y214101D01*
X222500Y214233D01*
X221837Y214101D01*
X221274Y213726D01*
X220899Y213163D01*
X220767Y212500D01*
X220899Y211837D01*
X221267Y211286D01*
X221267Y211284D01*
X221273Y211248D01*
X221276Y211207D01*
Y151500D01*
X221370Y151032D01*
X221635Y150635D01*
X230635Y141635D01*
X231032Y141370D01*
X231500Y141277D01*
X236245D01*
X236368Y141252D01*
X236515Y141204D01*
X236682Y141130D01*
X236868Y141029D01*
X237070Y140898D01*
X237282Y140742D01*
X237771Y140318D01*
X237963Y140129D01*
X238035Y140035D01*
X238757Y139481D01*
X239598Y139133D01*
X240500Y139014D01*
X241128Y139097D01*
X241161Y139095D01*
X241175Y139100D01*
X241189Y139100D01*
X241530Y138818D01*
X241597Y138732D01*
X241745Y138429D01*
X241715Y138321D01*
X241676Y138216D01*
X241595Y137706D01*
X241597Y137650D01*
X241586Y137594D01*
Y137390D01*
X241608Y137280D01*
X241621Y137169D01*
X241807Y136598D01*
X241753Y136416D01*
X241693Y136305D01*
X241382Y135998D01*
X241253Y135905D01*
X241226Y135893D01*
X241203Y135898D01*
X241181Y135898D01*
X241161Y135905D01*
X241128Y135903D01*
X240500Y135986D01*
X239598Y135867D01*
X238757Y135519D01*
X238035Y134965D01*
X237481Y134243D01*
X237133Y133402D01*
X237014Y132500D01*
X237133Y131598D01*
X237481Y130757D01*
X238035Y130035D01*
X238757Y129481D01*
X239598Y129133D01*
X240500Y129014D01*
X241128Y129097D01*
X241161Y129095D01*
X241175Y129100D01*
X241189Y129100D01*
X241530Y128818D01*
X241597Y128732D01*
X241745Y128429D01*
X241715Y128321D01*
X241676Y128217D01*
X241595Y127706D01*
X241597Y127650D01*
X241586Y127594D01*
Y127390D01*
X241608Y127280D01*
X241621Y127169D01*
X241807Y126598D01*
X241753Y126416D01*
X241693Y126305D01*
X241382Y125998D01*
X241253Y125905D01*
X241226Y125893D01*
X241203Y125898D01*
X241181Y125898D01*
X241161Y125905D01*
X241128Y125903D01*
X240500Y125986D01*
X239598Y125867D01*
X238757Y125519D01*
X238035Y124965D01*
X237481Y124243D01*
X237133Y123402D01*
X237014Y122500D01*
X237133Y121598D01*
X237481Y120757D01*
X238035Y120035D01*
X238757Y119481D01*
X239598Y119133D01*
X240500Y119014D01*
X241128Y119097D01*
X241161Y119095D01*
X241175Y119100D01*
X241189Y119100D01*
X241296Y119119D01*
X241402Y119133D01*
X241425Y119142D01*
X242651Y119365D01*
X243253Y119444D01*
X243966Y119498D01*
X245700D01*
X246168Y119591D01*
X246565Y119856D01*
X246830Y120253D01*
X246868Y120441D01*
X247282Y120718D01*
X247828Y121536D01*
X248020Y122500D01*
X247988Y122662D01*
X247988Y122687D01*
X248000Y122836D01*
X248019Y122971D01*
X248045Y123093D01*
X248077Y123202D01*
X248114Y123299D01*
X248156Y123385D01*
X248203Y123462D01*
X248235Y123504D01*
X252065Y127335D01*
X252330Y127732D01*
X252424Y128200D01*
Y219202D01*
X252426Y219221D01*
X252433Y219266D01*
X252433Y219267D01*
X252801Y219818D01*
X252933Y220482D01*
X252801Y221145D01*
X252426Y221707D01*
X251863Y222083D01*
X251200Y222215D01*
X251024Y222180D01*
X250223Y222763D01*
Y230221D01*
X250226Y230240D01*
X250233Y230284D01*
X250233Y230286D01*
X250326Y230424D01*
X251303Y230578D01*
X254727Y227154D01*
Y224550D01*
X254820Y224082D01*
X255085Y223685D01*
X261230Y217540D01*
X261242Y217525D01*
X261268Y217488D01*
X261269Y217487D01*
X261399Y216837D01*
X261774Y216274D01*
X262337Y215899D01*
X263000Y215767D01*
X263663Y215899D01*
X264226Y216274D01*
X264601Y216837D01*
X264733Y217500D01*
X264601Y218163D01*
X264226Y218726D01*
X263663Y219101D01*
X263013Y219231D01*
X263012Y219232D01*
X262983Y219253D01*
X262950Y219280D01*
X257173Y225057D01*
Y227450D01*
X261750D01*
X261829Y227450D01*
X261838Y227448D01*
X262550Y227450D01*
Y227657D01*
X262853Y228332D01*
X262968Y228362D01*
X263207Y228402D01*
X263378Y228417D01*
X264310D01*
X264337Y228399D01*
X265000Y228267D01*
X265663Y228399D01*
X266226Y228774D01*
X266601Y229337D01*
X266733Y230000D01*
X266601Y230663D01*
X266226Y231226D01*
X266076Y231376D01*
X265513Y231751D01*
X264850Y231883D01*
X263378D01*
X263207Y231898D01*
X262968Y231938D01*
X262784Y231986D01*
X262658Y232037D01*
X262588Y232080D01*
X262562Y232103D01*
X262560Y232107D01*
X262559Y232110D01*
X262550Y232192D01*
Y232850D01*
X262067D01*
Y234150D01*
X262550D01*
Y239550D01*
X257250D01*
X257171Y239550D01*
X257162Y239552D01*
D02*
G37*
G36*
X213142Y216374D02*
X205858D01*
X205705Y216311D01*
X205642Y216158D01*
Y210842D01*
X205705Y210689D01*
X205858Y210626D01*
X213142D01*
X213295Y210689D01*
X213358Y210842D01*
Y216158D01*
X213295Y216311D01*
X213142Y216374D01*
D02*
G37*
G36*
X159000Y239733D02*
X158337Y239601D01*
X157774Y239226D01*
X157399Y238663D01*
X157267Y238000D01*
X157399Y237337D01*
X157774Y236774D01*
X158337Y236399D01*
X159000Y236267D01*
X159002Y236267D01*
X174776Y220493D01*
Y210227D01*
X174774Y210226D01*
X174399Y209663D01*
X174267Y209000D01*
X174399Y208337D01*
X174774Y207774D01*
X175337Y207399D01*
X176000Y207267D01*
X176663Y207399D01*
X177226Y207774D01*
X177601Y208337D01*
X177733Y209000D01*
X177601Y209663D01*
X177226Y210226D01*
X177224Y210227D01*
Y221000D01*
X177130Y221468D01*
X176865Y221865D01*
X160733Y237998D01*
X160733Y238000D01*
X160601Y238663D01*
X160226Y239226D01*
X159663Y239601D01*
X159000Y239733D01*
D02*
G37*
G36*
X112000Y214232D02*
X111034Y214105D01*
X110134Y213732D01*
X109361Y213139D01*
X108768Y212366D01*
X108395Y211466D01*
X108268Y210500D01*
X108395Y209534D01*
X108768Y208634D01*
X109361Y207861D01*
X110134Y207268D01*
X111034Y206895D01*
X112000Y206768D01*
X112966Y206895D01*
X113866Y207268D01*
X114639Y207861D01*
X115232Y208634D01*
X115605Y209534D01*
X115732Y210500D01*
X115605Y211466D01*
X115232Y212366D01*
X114639Y213139D01*
X113866Y213732D01*
X112966Y214105D01*
X112000Y214232D01*
D02*
G37*
G36*
X155000Y256233D02*
X154337Y256101D01*
X153774Y255726D01*
X153399Y255163D01*
X153267Y254500D01*
X153399Y253837D01*
X153774Y253274D01*
X153777Y253273D01*
Y219000D01*
X153870Y218532D01*
X154135Y218135D01*
X157235Y215035D01*
X157632Y214770D01*
X158100Y214676D01*
X160324D01*
X160483Y213877D01*
X160134Y213732D01*
X159361Y213139D01*
X158768Y212366D01*
X158395Y211466D01*
X158268Y210500D01*
X158395Y209534D01*
X158768Y208634D01*
X159361Y207861D01*
X160134Y207268D01*
X161034Y206895D01*
X162000Y206768D01*
X162966Y206895D01*
X163866Y207268D01*
X164176Y207506D01*
X164977Y207112D01*
Y203888D01*
X164176Y203494D01*
X163866Y203732D01*
X162966Y204105D01*
X162000Y204232D01*
X161034Y204105D01*
X160134Y203732D01*
X159361Y203139D01*
X158768Y202366D01*
X158395Y201466D01*
X158268Y200500D01*
X158395Y199534D01*
X158768Y198634D01*
X159361Y197861D01*
X160134Y197268D01*
X161034Y196895D01*
X162000Y196768D01*
X162966Y196895D01*
X163866Y197268D01*
X164176Y197506D01*
X164977Y197112D01*
Y194266D01*
X164176Y193872D01*
X164017Y193994D01*
X163044Y194397D01*
X162500Y194469D01*
Y190500D01*
Y186531D01*
X163044Y186603D01*
X164017Y187006D01*
X164176Y187128D01*
X164977Y186734D01*
Y183888D01*
X164176Y183494D01*
X163866Y183732D01*
X162966Y184105D01*
X162000Y184232D01*
X161034Y184105D01*
X160901Y184050D01*
X114733Y230218D01*
Y239000D01*
X114601Y239663D01*
X114226Y240226D01*
X113663Y240601D01*
X113000Y240733D01*
X112337Y240601D01*
X111774Y240226D01*
X111399Y239663D01*
X111267Y239000D01*
Y229500D01*
X111399Y228837D01*
X111774Y228274D01*
X158450Y181599D01*
X158395Y181466D01*
X158268Y180500D01*
X158395Y179534D01*
X158768Y178634D01*
X159361Y177861D01*
X160134Y177268D01*
X161034Y176895D01*
X162000Y176768D01*
X162966Y176895D01*
X163866Y177268D01*
X164176Y177506D01*
X164977Y177112D01*
Y149786D01*
X165070Y149318D01*
X165335Y148921D01*
X168777Y145480D01*
Y139727D01*
X168774Y139726D01*
X168399Y139163D01*
X168267Y138500D01*
X168399Y137837D01*
X168774Y137274D01*
X169337Y136899D01*
X170000Y136767D01*
X170663Y136899D01*
X171226Y137274D01*
X171601Y137837D01*
X171733Y138500D01*
X171601Y139163D01*
X171226Y139726D01*
X171223Y139727D01*
Y144704D01*
X171999Y145366D01*
X172662Y145498D01*
X173224Y145873D01*
X173600Y146436D01*
X173732Y147099D01*
X173600Y147762D01*
X173224Y148325D01*
X173222Y148326D01*
Y150130D01*
X173365Y150199D01*
X174142Y150251D01*
X174253Y150128D01*
X174435Y149856D01*
X174832Y149591D01*
X175300Y149498D01*
X177086D01*
X177181Y149493D01*
X179423Y149178D01*
X179553Y149152D01*
X179598Y149133D01*
X179733Y149115D01*
X179797Y149102D01*
X179819Y149102D01*
X179839Y149095D01*
X179872Y149097D01*
X180500Y149014D01*
X181402Y149133D01*
X182243Y149481D01*
X182965Y150035D01*
X183029Y150119D01*
X183485Y150550D01*
X183711Y150737D01*
X183930Y150898D01*
X184133Y151029D01*
X184318Y151130D01*
X184485Y151204D01*
X184632Y151251D01*
X184755Y151277D01*
X194375D01*
X194433Y151271D01*
X194450Y151269D01*
Y149950D01*
X199827D01*
Y133760D01*
X199774Y133726D01*
X199399Y133163D01*
X199267Y132500D01*
X199399Y131837D01*
X199774Y131274D01*
X200337Y130899D01*
X201000Y130767D01*
X201663Y130899D01*
X202226Y131274D01*
X202601Y131837D01*
X202733Y132500D01*
X202601Y133163D01*
X202274Y133654D01*
Y157170D01*
X202770Y157382D01*
X203074Y157395D01*
X203647Y156647D01*
X204483Y156006D01*
X205456Y155603D01*
X206000Y155531D01*
Y159500D01*
Y163469D01*
X205456Y163397D01*
X204483Y162994D01*
X203647Y162353D01*
X203074Y161605D01*
X202770Y161618D01*
X202274Y161830D01*
Y174019D01*
X202223Y174270D01*
Y209221D01*
X202226Y209240D01*
X202233Y209284D01*
X202233Y209286D01*
X202601Y209837D01*
X202733Y210500D01*
X202601Y211163D01*
X202226Y211726D01*
X201663Y212101D01*
X201000Y212233D01*
X200337Y212101D01*
X199774Y211726D01*
X199523Y211350D01*
X198723Y211558D01*
Y216993D01*
X201007Y219276D01*
X205720D01*
X205740Y219274D01*
X205784Y219267D01*
X205786Y219267D01*
X206337Y218899D01*
X207000Y218767D01*
X207663Y218899D01*
X208226Y219274D01*
X208601Y219837D01*
X208669Y220178D01*
X208745Y220504D01*
X209496Y220767D01*
X209500Y220767D01*
X210163Y220899D01*
X210726Y221274D01*
X211101Y221837D01*
X211231Y222487D01*
X211231Y222488D01*
X211253Y222517D01*
X211280Y222550D01*
X219507Y230777D01*
X220220D01*
X220240Y230774D01*
X220284Y230767D01*
X220286Y230767D01*
X220837Y230399D01*
X221500Y230267D01*
X222163Y230399D01*
X222726Y230774D01*
X223101Y231337D01*
X223233Y232000D01*
X223101Y232663D01*
X222726Y233226D01*
X222163Y233601D01*
X221500Y233733D01*
X220837Y233601D01*
X220286Y233233D01*
X220284Y233233D01*
X220248Y233227D01*
X220206Y233224D01*
X219000D01*
X218532Y233130D01*
X218135Y232865D01*
X209540Y224270D01*
X209525Y224258D01*
X209488Y224232D01*
X209487Y224231D01*
X208837Y224101D01*
X208614Y223952D01*
X208610Y223951D01*
X208595Y223948D01*
X208581Y223941D01*
X208514Y223926D01*
X208491Y223922D01*
X208384Y223915D01*
X207955D01*
X207911Y223923D01*
X196700D01*
X196232Y223830D01*
X196072Y223724D01*
X195010D01*
X194542Y223630D01*
X194145Y223365D01*
X188135Y217355D01*
X187870Y216958D01*
X187777Y216490D01*
Y181625D01*
X187771Y181567D01*
X187769Y181550D01*
X185950D01*
Y176150D01*
X186433D01*
Y174850D01*
X185950D01*
Y173731D01*
X185933Y173729D01*
X185875Y173723D01*
X184755D01*
X184632Y173749D01*
X184485Y173796D01*
X184318Y173870D01*
X184132Y173971D01*
X183930Y174102D01*
X183718Y174258D01*
X183229Y174682D01*
X183037Y174871D01*
X182965Y174965D01*
X182243Y175519D01*
X181402Y175867D01*
X180500Y175986D01*
X179872Y175903D01*
X179839Y175905D01*
X179825Y175900D01*
X179811Y175900D01*
X179470Y176182D01*
X179403Y176268D01*
X179255Y176571D01*
X179285Y176679D01*
X179324Y176784D01*
X179405Y177294D01*
X179403Y177350D01*
X179414Y177406D01*
Y177610D01*
X179392Y177720D01*
X179379Y177831D01*
X179181Y178440D01*
X179357Y178733D01*
X179752Y179100D01*
X179774Y179110D01*
X180500Y179014D01*
X181402Y179133D01*
X182243Y179481D01*
X182965Y180035D01*
X183519Y180757D01*
X183867Y181598D01*
X183986Y182500D01*
X183867Y183402D01*
X183519Y184243D01*
X182965Y184965D01*
X182243Y185519D01*
X181402Y185867D01*
X180500Y185986D01*
X179598Y185867D01*
X178757Y185519D01*
X178728Y185497D01*
X178700Y185502D01*
X175300D01*
X174832Y185409D01*
X174435Y185144D01*
X174253Y184872D01*
X174142Y184749D01*
X173365Y184801D01*
X173222Y184870D01*
Y210502D01*
X173129Y210970D01*
X172864Y211367D01*
X165339Y218892D01*
X165605Y219534D01*
X165732Y220500D01*
X165605Y221466D01*
X165232Y222366D01*
X164639Y223139D01*
X163866Y223732D01*
X162966Y224105D01*
X162000Y224232D01*
X161034Y224105D01*
X160134Y223732D01*
X159361Y223139D01*
X158768Y222366D01*
X158395Y221466D01*
X158268Y220500D01*
X158395Y219534D01*
X158768Y218634D01*
X158989Y218346D01*
X158636Y217492D01*
X158285Y217445D01*
X156223Y219507D01*
Y245733D01*
X159250D01*
X159403Y245797D01*
X159467Y245950D01*
Y249050D01*
X159403Y249203D01*
X159250Y249267D01*
X156223D01*
Y253273D01*
X156226Y253274D01*
X156601Y253837D01*
X156733Y254500D01*
X156601Y255163D01*
X156226Y255726D01*
X155663Y256101D01*
X155000Y256233D01*
D02*
G37*
G36*
X112000Y194232D02*
X111034Y194105D01*
X110134Y193732D01*
X109361Y193139D01*
X108768Y192366D01*
X108395Y191466D01*
X108268Y190500D01*
X108395Y189534D01*
X108768Y188634D01*
X109361Y187861D01*
X110134Y187268D01*
X111034Y186895D01*
X112000Y186768D01*
X112966Y186895D01*
X113866Y187268D01*
X114639Y187861D01*
X115232Y188634D01*
X115605Y189534D01*
X115732Y190500D01*
X115605Y191466D01*
X115232Y192366D01*
X114639Y193139D01*
X113866Y193732D01*
X112966Y194105D01*
X112000Y194232D01*
D02*
G37*
G36*
X140000Y256233D02*
X139337Y256101D01*
X138774Y255726D01*
X138399Y255163D01*
X138267Y254500D01*
X138399Y253837D01*
X138774Y253274D01*
X138777Y253273D01*
Y209000D01*
X138870Y208532D01*
X139135Y208135D01*
X154767Y192502D01*
X154767Y192500D01*
X154899Y191837D01*
X155274Y191274D01*
X155837Y190899D01*
X156500Y190767D01*
X157163Y190899D01*
X157216Y190934D01*
X157966Y190500D01*
X158103Y189456D01*
X158506Y188483D01*
X159147Y187647D01*
X159983Y187006D01*
X160956Y186603D01*
X161500Y186531D01*
Y190500D01*
Y194469D01*
X160956Y194397D01*
X159983Y193994D01*
X159147Y193353D01*
X158934Y193076D01*
X158470Y193125D01*
X158051Y193239D01*
X157726Y193726D01*
X157163Y194101D01*
X156500Y194233D01*
X156498Y194233D01*
X141224Y209507D01*
Y245733D01*
X144250D01*
X144403Y245797D01*
X144466Y245950D01*
Y249050D01*
X144403Y249203D01*
X144250Y249267D01*
X141224D01*
Y253273D01*
X141226Y253274D01*
X141601Y253837D01*
X141733Y254500D01*
X141601Y255163D01*
X141226Y255726D01*
X140663Y256101D01*
X140000Y256233D01*
D02*
G37*
G36*
X263000Y197733D02*
X262337Y197601D01*
X261774Y197226D01*
X261399Y196663D01*
X261267Y196000D01*
Y194380D01*
X261251Y194208D01*
X261212Y193968D01*
X261162Y193784D01*
X261110Y193657D01*
X261067Y193584D01*
X261040Y193556D01*
X261032Y193551D01*
X261031Y193550D01*
X259950D01*
Y188150D01*
X260434D01*
Y187150D01*
X259650D01*
Y184650D01*
X263000D01*
X266350D01*
Y187150D01*
X265566D01*
Y188150D01*
X266050D01*
Y193550D01*
X264969D01*
X264968Y193551D01*
X264960Y193556D01*
X264933Y193584D01*
X264890Y193657D01*
X264838Y193784D01*
X264788Y193968D01*
X264749Y194208D01*
X264733Y194380D01*
Y196000D01*
X264601Y196663D01*
X264226Y197226D01*
X263663Y197601D01*
X263000Y197733D01*
D02*
G37*
G36*
X266350Y183650D02*
X263500D01*
Y181150D01*
X266350D01*
Y183650D01*
D02*
G37*
G36*
X262500D02*
X259650D01*
Y181150D01*
X262500D01*
Y183650D01*
D02*
G37*
G36*
X207000Y163469D02*
Y160000D01*
X210469D01*
X210397Y160544D01*
X209994Y161517D01*
X209353Y162353D01*
X208517Y162994D01*
X207544Y163397D01*
X207000Y163469D01*
D02*
G37*
G36*
X210469Y159000D02*
X207000D01*
Y155531D01*
X207544Y155603D01*
X208517Y156006D01*
X209353Y156647D01*
X209994Y157483D01*
X210397Y158456D01*
X210469Y159000D01*
D02*
G37*
G36*
X180500Y145986D02*
X179598Y145867D01*
X178757Y145519D01*
X178728Y145497D01*
X178700Y145502D01*
X175300D01*
X174832Y145409D01*
X174435Y145144D01*
X174170Y144747D01*
X174132Y144559D01*
X173718Y144282D01*
X173172Y143464D01*
X172980Y142500D01*
X173172Y141536D01*
X173718Y140718D01*
X174132Y140441D01*
X174170Y140253D01*
X174435Y139856D01*
X174832Y139591D01*
X175300Y139498D01*
X178700D01*
X178728Y139503D01*
X178757Y139481D01*
X179598Y139133D01*
X180500Y139014D01*
X181402Y139133D01*
X182243Y139481D01*
X182965Y140035D01*
X183519Y140757D01*
X183867Y141598D01*
X183986Y142500D01*
X183867Y143402D01*
X183519Y144243D01*
X182965Y144965D01*
X182243Y145519D01*
X181402Y145867D01*
X180500Y145986D01*
D02*
G37*
G36*
X181000Y136223D02*
Y133000D01*
X184222D01*
X184159Y133481D01*
X183781Y134394D01*
X183179Y135179D01*
X182394Y135781D01*
X181481Y136159D01*
X181000Y136223D01*
D02*
G37*
G36*
X180000D02*
X179519Y136159D01*
X178606Y135781D01*
X178437Y135651D01*
X178349Y135635D01*
X177747Y135556D01*
X177034Y135502D01*
X175300D01*
X174832Y135409D01*
X174435Y135144D01*
X174356Y135026D01*
X174102Y134921D01*
X173523Y134477D01*
X173079Y133898D01*
X172800Y133224D01*
X172770Y133000D01*
X175300D01*
Y134279D01*
X176573D01*
X176741Y134779D01*
X176986Y134783D01*
X177820Y134846D01*
X178460Y134930D01*
X179938Y135198D01*
X178700Y133555D01*
Y131445D01*
X179938Y129802D01*
X179544Y129882D01*
X177248Y130204D01*
X176986Y130217D01*
X176741Y130221D01*
X176573Y130721D01*
X175300D01*
Y132000D01*
X172770D01*
X172800Y131776D01*
X173079Y131102D01*
X173523Y130523D01*
X174102Y130079D01*
X174356Y129974D01*
X174435Y129856D01*
X174832Y129591D01*
X175300Y129498D01*
X177086D01*
X177181Y129493D01*
X178489Y129309D01*
X178606Y129219D01*
X179519Y128841D01*
X180000Y128778D01*
Y132500D01*
Y136223D01*
D02*
G37*
G36*
X184222Y132000D02*
X181000D01*
Y128778D01*
X181481Y128841D01*
X182394Y129219D01*
X183179Y129821D01*
X183781Y130606D01*
X184159Y131519D01*
X184222Y132000D01*
D02*
G37*
G36*
X180500Y125986D02*
X179872Y125903D01*
X179839Y125905D01*
X179825Y125900D01*
X179811Y125900D01*
X179704Y125881D01*
X179598Y125867D01*
X179575Y125857D01*
X178349Y125635D01*
X177747Y125556D01*
X177034Y125502D01*
X175300D01*
X174832Y125409D01*
X174435Y125144D01*
X174170Y124747D01*
X174132Y124559D01*
X173718Y124282D01*
X173172Y123464D01*
X172980Y122500D01*
X173172Y121536D01*
X173718Y120718D01*
X174132Y120441D01*
X174170Y120253D01*
X174435Y119856D01*
X174832Y119591D01*
X175300Y119498D01*
X177086D01*
X177181Y119493D01*
X179423Y119178D01*
X179553Y119152D01*
X179598Y119133D01*
X179733Y119115D01*
X179797Y119102D01*
X179819Y119102D01*
X179839Y119095D01*
X179872Y119097D01*
X180500Y119014D01*
X181402Y119133D01*
X182243Y119481D01*
X182965Y120035D01*
X183519Y120757D01*
X183867Y121598D01*
X183986Y122500D01*
X183867Y123402D01*
X183519Y124243D01*
X182965Y124965D01*
X182243Y125519D01*
X181402Y125867D01*
X180500Y125986D01*
D02*
G37*
%LPD*%
G36*
X257162Y235350D02*
X255162Y236350D01*
Y238350D01*
X257162Y238838D01*
Y235350D01*
D02*
G37*
G36*
X249662Y230743D02*
X249628Y230693D01*
X249598Y230636D01*
X249572Y230572D01*
X249550Y230500D01*
X249532Y230421D01*
X249518Y230335D01*
X249508Y230242D01*
X249500Y230034D01*
X248500D01*
X248498Y230142D01*
X248482Y230335D01*
X248468Y230421D01*
X248450Y230500D01*
X248428Y230572D01*
X248402Y230636D01*
X248372Y230693D01*
X248338Y230743D01*
X248300Y230786D01*
X249700D01*
X249662Y230743D01*
D02*
G37*
G36*
X261858Y231950D02*
X261918Y231782D01*
X262018Y231634D01*
X262158Y231506D01*
X262338Y231397D01*
X262558Y231308D01*
X262818Y231239D01*
X263118Y231189D01*
X263458Y231160D01*
X263838Y231150D01*
Y229150D01*
X263458Y229140D01*
X263118Y229111D01*
X262818Y229061D01*
X262558Y228992D01*
X262338Y228903D01*
X262158Y228794D01*
X262018Y228666D01*
X261918Y228518D01*
X261858Y228350D01*
X261838Y228162D01*
Y232138D01*
X261858Y231950D01*
D02*
G37*
G36*
X251862Y219725D02*
X251828Y219675D01*
X251798Y219618D01*
X251772Y219553D01*
X251750Y219482D01*
X251732Y219403D01*
X251718Y219317D01*
X251708Y219224D01*
X251700Y219016D01*
X250700D01*
X250698Y219123D01*
X250682Y219317D01*
X250668Y219403D01*
X250650Y219482D01*
X250628Y219553D01*
X250602Y219618D01*
X250572Y219675D01*
X250538Y219725D01*
X250500Y219768D01*
X251900D01*
X251862Y219725D01*
D02*
G37*
G36*
X262394Y218815D02*
X262543Y218690D01*
X262613Y218639D01*
X262682Y218596D01*
X262748Y218561D01*
X262812Y218534D01*
X262874Y218515D01*
X262933Y218503D01*
X262990Y218500D01*
X262000Y217510D01*
X261997Y217567D01*
X261985Y217627D01*
X261966Y217688D01*
X261939Y217752D01*
X261904Y217818D01*
X261861Y217887D01*
X261810Y217957D01*
X261751Y218030D01*
X261610Y218183D01*
X262317Y218890D01*
X262394Y218815D01*
D02*
G37*
G36*
X223162Y211743D02*
X223128Y211693D01*
X223098Y211636D01*
X223072Y211572D01*
X223050Y211500D01*
X223032Y211421D01*
X223018Y211335D01*
X223008Y211242D01*
X223000Y211034D01*
X222000D01*
X221998Y211142D01*
X221982Y211335D01*
X221968Y211421D01*
X221950Y211500D01*
X221928Y211572D01*
X221902Y211636D01*
X221872Y211693D01*
X221838Y211743D01*
X221800Y211786D01*
X223200D01*
X223162Y211743D01*
D02*
G37*
G36*
X245700Y180721D02*
X242300D01*
Y184279D01*
X245700D01*
Y180721D01*
D02*
G37*
G36*
Y175721D02*
X243984D01*
X243474Y175802D01*
X242999Y176044D01*
X242611Y176432D01*
X242300Y177390D01*
Y177594D01*
X242381Y178105D01*
X242623Y178579D01*
X243011Y178968D01*
X243968Y179279D01*
X245700D01*
Y175721D01*
D02*
G37*
G36*
X241456Y175118D02*
X243752Y174795D01*
X244014Y174783D01*
X244259Y174779D01*
X244427Y174279D01*
X245700D01*
Y170721D01*
X244427D01*
X244259Y170221D01*
X244014Y170217D01*
X243180Y170154D01*
X242540Y170070D01*
X241061Y169802D01*
X242300Y171445D01*
Y173555D01*
X241061Y175198D01*
X241456Y175118D01*
D02*
G37*
G36*
X245700Y165721D02*
X243984D01*
X243474Y165802D01*
X242999Y166044D01*
X242611Y166432D01*
X242300Y167390D01*
Y167595D01*
X242381Y168105D01*
X242623Y168579D01*
X243011Y168968D01*
X243968Y169279D01*
X245700D01*
Y165721D01*
D02*
G37*
G36*
X241456Y165118D02*
X243752Y164795D01*
X244014Y164783D01*
X244259Y164779D01*
X244427Y164279D01*
X245700D01*
Y160721D01*
X244427D01*
X244259Y160221D01*
X244014Y160217D01*
X243180Y160154D01*
X242540Y160070D01*
X241061Y159802D01*
X242300Y161445D01*
Y163555D01*
X241061Y165198D01*
X241456Y165118D01*
D02*
G37*
G36*
X245700Y155721D02*
X243984D01*
X243474Y155802D01*
X242999Y156044D01*
X242611Y156432D01*
X242300Y157390D01*
Y157595D01*
X242381Y158105D01*
X242623Y158579D01*
X243011Y158968D01*
X243968Y159279D01*
X245700D01*
Y155721D01*
D02*
G37*
G36*
X241456Y155118D02*
X243752Y154796D01*
X244014Y154783D01*
X244259Y154779D01*
X244427Y154279D01*
X245700D01*
Y150721D01*
X244427D01*
X244259Y150221D01*
X244014Y150217D01*
X243180Y150154D01*
X242540Y150070D01*
X241061Y149802D01*
X242300Y151445D01*
Y153555D01*
X241061Y155198D01*
X241456Y155118D01*
D02*
G37*
G36*
X245700Y145721D02*
X243984D01*
X243474Y145802D01*
X242999Y146044D01*
X242611Y146432D01*
X242300Y147390D01*
Y147594D01*
X242381Y148105D01*
X242623Y148579D01*
X243011Y148968D01*
X243968Y149279D01*
X245700D01*
Y145721D01*
D02*
G37*
G36*
X238532Y140571D02*
X238256Y140842D01*
X237728Y141300D01*
X237476Y141486D01*
X237233Y141643D01*
X236997Y141771D01*
X236770Y141871D01*
X236550Y141943D01*
X236339Y141986D01*
X236136Y142000D01*
Y143000D01*
X236339Y143014D01*
X236550Y143057D01*
X236770Y143129D01*
X236997Y143229D01*
X237233Y143357D01*
X237476Y143515D01*
X237728Y143700D01*
X237988Y143915D01*
X238532Y144429D01*
Y140571D01*
D02*
G37*
G36*
X241456Y145118D02*
X243752Y144796D01*
X244014Y144783D01*
X244259Y144779D01*
X244427Y144279D01*
X245700D01*
Y140721D01*
X244427D01*
X244259Y140221D01*
X244014Y140217D01*
X243180Y140154D01*
X242540Y140070D01*
X241061Y139802D01*
X242300Y141445D01*
Y143555D01*
X241061Y145198D01*
X241456Y145118D01*
D02*
G37*
G36*
X245700Y135721D02*
X243984D01*
X243474Y135802D01*
X242999Y136044D01*
X242611Y136432D01*
X242300Y137390D01*
Y137594D01*
X242381Y138105D01*
X242623Y138579D01*
X243011Y138968D01*
X243968Y139279D01*
X245700D01*
Y135721D01*
D02*
G37*
G36*
X241456Y135118D02*
X243752Y134795D01*
X244014Y134783D01*
X244259Y134779D01*
X244427Y134279D01*
X245700D01*
Y130721D01*
X244427D01*
X244259Y130221D01*
X244014Y130217D01*
X243180Y130154D01*
X242540Y130070D01*
X241061Y129802D01*
X242300Y131445D01*
Y133555D01*
X241061Y135198D01*
X241456Y135118D01*
D02*
G37*
G36*
X247807Y129100D02*
X247703Y128986D01*
X247611Y128862D01*
X247530Y128728D01*
X247459Y128585D01*
X247400Y128431D01*
X247352Y128268D01*
X247315Y128095D01*
X247290Y127913D01*
X247275Y127720D01*
X247272Y127518D01*
X245700Y129089D01*
Y125721D01*
X243984D01*
X243474Y125802D01*
X242999Y126044D01*
X242611Y126432D01*
X242300Y127390D01*
Y127594D01*
X242381Y128105D01*
X242623Y128579D01*
X243011Y128968D01*
X243968Y129279D01*
X245700D01*
Y129275D01*
X245720Y129275D01*
X245913Y129290D01*
X246095Y129315D01*
X246268Y129352D01*
X246431Y129400D01*
X246585Y129459D01*
X246728Y129530D01*
X246862Y129611D01*
X246986Y129703D01*
X247100Y129807D01*
X247807Y129100D01*
D02*
G37*
G36*
X241456Y125118D02*
X243752Y124795D01*
X244014Y124783D01*
X244259Y124779D01*
X244427Y124279D01*
X245700D01*
Y124275D01*
X245720Y124275D01*
X245913Y124290D01*
X246095Y124315D01*
X246268Y124352D01*
X246431Y124400D01*
X246585Y124459D01*
X246728Y124530D01*
X246862Y124611D01*
X246986Y124703D01*
X247100Y124807D01*
X247807Y124100D01*
X247703Y123986D01*
X247611Y123862D01*
X247530Y123728D01*
X247459Y123585D01*
X247400Y123432D01*
X247352Y123268D01*
X247315Y123095D01*
X247290Y122913D01*
X247275Y122720D01*
X247272Y122518D01*
X245700Y124089D01*
Y120721D01*
X244427D01*
X244259Y120221D01*
X244014Y120217D01*
X243180Y120154D01*
X242540Y120070D01*
X241061Y119802D01*
X242300Y121445D01*
Y123555D01*
X241061Y125198D01*
X241456Y125118D01*
D02*
G37*
G36*
X220786Y231300D02*
X220743Y231338D01*
X220693Y231372D01*
X220636Y231402D01*
X220571Y231428D01*
X220500Y231450D01*
X220421Y231468D01*
X220335Y231482D01*
X220242Y231492D01*
X220034Y231500D01*
Y232500D01*
X220142Y232502D01*
X220335Y232518D01*
X220421Y232532D01*
X220500Y232550D01*
X220571Y232572D01*
X220636Y232598D01*
X220693Y232628D01*
X220743Y232662D01*
X220786Y232700D01*
Y231300D01*
D02*
G37*
G36*
X210890Y223183D02*
X210816Y223106D01*
X210690Y222957D01*
X210639Y222887D01*
X210596Y222818D01*
X210561Y222752D01*
X210534Y222688D01*
X210515Y222626D01*
X210503Y222567D01*
X210500Y222510D01*
X209510Y223500D01*
X209567Y223503D01*
X209627Y223515D01*
X209688Y223534D01*
X209752Y223561D01*
X209818Y223596D01*
X209887Y223639D01*
X209957Y223690D01*
X210030Y223749D01*
X210183Y223890D01*
X210890Y223183D01*
D02*
G37*
G36*
X208664Y221952D02*
X208628Y221997D01*
X208585Y222038D01*
X208533Y222074D01*
X208474Y222105D01*
X208406Y222131D01*
X208331Y222153D01*
X208247Y222170D01*
X208156Y222182D01*
X208056Y222189D01*
X207949Y222191D01*
X208177Y223191D01*
X208286Y223193D01*
X208569Y223212D01*
X208648Y223224D01*
X208784Y223255D01*
X208840Y223275D01*
X208889Y223298D01*
X208931Y223322D01*
X208664Y221952D01*
D02*
G37*
G36*
X206286Y219800D02*
X206243Y219838D01*
X206193Y219872D01*
X206136Y219902D01*
X206071Y219928D01*
X206000Y219950D01*
X205921Y219968D01*
X205835Y219982D01*
X205742Y219992D01*
X205534Y220000D01*
Y221000D01*
X205642Y221002D01*
X205835Y221018D01*
X205921Y221032D01*
X206000Y221050D01*
X206071Y221072D01*
X206136Y221098D01*
X206193Y221128D01*
X206243Y221162D01*
X206286Y221200D01*
Y219800D01*
D02*
G37*
G36*
X198946Y220676D02*
X196635Y218365D01*
X196370Y217968D01*
X196276Y217500D01*
Y209747D01*
X196248Y209719D01*
X195476Y209392D01*
X195163Y209601D01*
X194500Y209733D01*
X193837Y209601D01*
X193274Y209226D01*
X192899Y208663D01*
X192767Y208000D01*
X192899Y207337D01*
X193267Y206786D01*
X193267Y206784D01*
X193273Y206748D01*
X193277Y206707D01*
Y168507D01*
X188493Y163724D01*
X184755D01*
X184632Y163749D01*
X184485Y163796D01*
X184318Y163870D01*
X184132Y163971D01*
X183930Y164102D01*
X183718Y164258D01*
X183229Y164682D01*
X183037Y164871D01*
X182965Y164965D01*
X182243Y165519D01*
X181402Y165867D01*
X180500Y165986D01*
X179872Y165903D01*
X179839Y165905D01*
X179825Y165900D01*
X179811Y165900D01*
X179470Y166182D01*
X179403Y166268D01*
X179255Y166571D01*
X179285Y166679D01*
X179324Y166783D01*
X179405Y167294D01*
X179403Y167350D01*
X179414Y167405D01*
Y167610D01*
X179392Y167720D01*
X179379Y167831D01*
X179193Y168402D01*
X179247Y168584D01*
X179307Y168695D01*
X179618Y169002D01*
X179747Y169095D01*
X179774Y169107D01*
X179797Y169102D01*
X179819Y169102D01*
X179839Y169095D01*
X179872Y169097D01*
X180500Y169014D01*
X181402Y169133D01*
X182243Y169481D01*
X182965Y170035D01*
X183029Y170119D01*
X183485Y170550D01*
X183711Y170737D01*
X183930Y170898D01*
X184133Y171029D01*
X184318Y171130D01*
X184485Y171204D01*
X184632Y171251D01*
X184755Y171276D01*
X185875D01*
X185933Y171271D01*
X185950Y171269D01*
Y169450D01*
X192050D01*
Y174850D01*
X191567D01*
Y176150D01*
X192050D01*
Y181550D01*
X190231D01*
X190229Y181567D01*
X190224Y181625D01*
Y215983D01*
X195517Y221276D01*
X196500D01*
X196968Y221370D01*
X197128Y221477D01*
X198615D01*
X198946Y220676D01*
D02*
G37*
G36*
X201662Y209743D02*
X201628Y209693D01*
X201598Y209636D01*
X201572Y209572D01*
X201550Y209500D01*
X201532Y209421D01*
X201518Y209335D01*
X201508Y209242D01*
X201500Y209034D01*
X200500D01*
X200498Y209142D01*
X200482Y209335D01*
X200468Y209421D01*
X200450Y209500D01*
X200428Y209572D01*
X200402Y209636D01*
X200372Y209693D01*
X200338Y209743D01*
X200300Y209786D01*
X201700D01*
X201662Y209743D01*
D02*
G37*
G36*
X195162Y207243D02*
X195128Y207193D01*
X195098Y207136D01*
X195072Y207071D01*
X195050Y207000D01*
X195032Y206921D01*
X195018Y206835D01*
X195008Y206742D01*
X195000Y206534D01*
X194000D01*
X193998Y206642D01*
X193982Y206835D01*
X193968Y206921D01*
X193950Y207000D01*
X193928Y207071D01*
X193902Y207136D01*
X193872Y207193D01*
X193838Y207243D01*
X193800Y207286D01*
X195200D01*
X195162Y207243D01*
D02*
G37*
G36*
X189505Y181648D02*
X189520Y181477D01*
X189545Y181327D01*
X189580Y181196D01*
X189625Y181085D01*
X189680Y180994D01*
X189745Y180922D01*
X189820Y180870D01*
X189905Y180838D01*
X190000Y180826D01*
X188000D01*
X188095Y180838D01*
X188180Y180870D01*
X188255Y180922D01*
X188320Y180994D01*
X188375Y181085D01*
X188420Y181196D01*
X188455Y181327D01*
X188480Y181477D01*
X188495Y181648D01*
X188500Y181838D01*
X189500D01*
X189505Y181648D01*
D02*
G37*
G36*
X178700Y180721D02*
X175300D01*
Y184279D01*
X178700D01*
Y180721D01*
D02*
G37*
G36*
X177526Y179198D02*
X178001Y178956D01*
X178389Y178568D01*
X178700Y177610D01*
Y177406D01*
X178619Y176895D01*
X178377Y176421D01*
X177989Y176032D01*
X177032Y175721D01*
X175300D01*
Y179279D01*
X177016D01*
X177526Y179198D01*
D02*
G37*
G36*
X186674Y171500D02*
X186662Y171595D01*
X186630Y171680D01*
X186578Y171755D01*
X186506Y171820D01*
X186415Y171875D01*
X186304Y171920D01*
X186173Y171955D01*
X186022Y171980D01*
X185852Y171995D01*
X185662Y172000D01*
Y173000D01*
X185852Y173005D01*
X186022Y173020D01*
X186173Y173045D01*
X186304Y173080D01*
X186415Y173125D01*
X186506Y173180D01*
X186578Y173245D01*
X186630Y173320D01*
X186662Y173405D01*
X186674Y173500D01*
Y171500D01*
D02*
G37*
G36*
X182744Y174158D02*
X183272Y173700D01*
X183524Y173514D01*
X183767Y173357D01*
X184003Y173229D01*
X184230Y173129D01*
X184450Y173057D01*
X184661Y173014D01*
X184864Y173000D01*
Y172000D01*
X184661Y171986D01*
X184450Y171943D01*
X184230Y171871D01*
X184003Y171771D01*
X183767Y171643D01*
X183524Y171485D01*
X183272Y171300D01*
X183012Y171085D01*
X182468Y170571D01*
Y174429D01*
X182744Y174158D01*
D02*
G37*
G36*
X178700Y173555D02*
Y171445D01*
X179938Y169802D01*
X179544Y169882D01*
X177248Y170204D01*
X176986Y170217D01*
X176741Y170221D01*
X176573Y170721D01*
X175300D01*
Y174279D01*
X176573D01*
X176741Y174779D01*
X176986Y174783D01*
X177820Y174846D01*
X178460Y174930D01*
X179938Y175198D01*
X178700Y173555D01*
D02*
G37*
G36*
X177526Y169198D02*
X178001Y168956D01*
X178389Y168568D01*
X178700Y167610D01*
Y167405D01*
X178619Y166895D01*
X178377Y166421D01*
X177989Y166032D01*
X177032Y165721D01*
X175300D01*
Y169279D01*
X177016D01*
X177526Y169198D01*
D02*
G37*
G36*
X198005Y162148D02*
X198020Y161978D01*
X198045Y161827D01*
X198080Y161696D01*
X198125Y161585D01*
X198180Y161494D01*
X198245Y161422D01*
X198320Y161370D01*
X198405Y161338D01*
X198500Y161326D01*
X196500D01*
X196595Y161338D01*
X196680Y161370D01*
X196755Y161422D01*
X196820Y161494D01*
X196875Y161585D01*
X196920Y161696D01*
X196955Y161827D01*
X196980Y161978D01*
X196995Y162148D01*
X197000Y162338D01*
X198000D01*
X198005Y162148D01*
D02*
G37*
G36*
X182744Y164158D02*
X183272Y163700D01*
X183524Y163514D01*
X183767Y163357D01*
X184003Y163229D01*
X184230Y163129D01*
X184450Y163057D01*
X184661Y163014D01*
X184864Y163000D01*
Y162000D01*
X184661Y161986D01*
X184450Y161943D01*
X184230Y161871D01*
X184003Y161771D01*
X183767Y161643D01*
X183524Y161486D01*
X183272Y161300D01*
X183012Y161085D01*
X182468Y160571D01*
Y164429D01*
X182744Y164158D01*
D02*
G37*
G36*
X178700Y163555D02*
Y161445D01*
X179938Y159802D01*
X179544Y159882D01*
X177248Y160205D01*
X176986Y160217D01*
X176741Y160221D01*
X176573Y160721D01*
X175300D01*
Y164279D01*
X176573D01*
X176741Y164779D01*
X176986Y164783D01*
X177820Y164846D01*
X178460Y164930D01*
X179938Y165198D01*
X178700Y163555D01*
D02*
G37*
G36*
X177526Y159198D02*
X178001Y158956D01*
X178389Y158568D01*
X178700Y157610D01*
Y157405D01*
X178619Y156895D01*
X178377Y156421D01*
X177989Y156032D01*
X177032Y155721D01*
X175300D01*
Y159279D01*
X177016D01*
X177526Y159198D01*
D02*
G37*
G36*
X195174Y151500D02*
X195162Y151595D01*
X195130Y151680D01*
X195078Y151755D01*
X195006Y151820D01*
X194915Y151875D01*
X194804Y151920D01*
X194673Y151955D01*
X194523Y151980D01*
X194352Y151995D01*
X194162Y152000D01*
Y153000D01*
X194352Y153005D01*
X194523Y153020D01*
X194673Y153045D01*
X194804Y153080D01*
X194915Y153125D01*
X195006Y153180D01*
X195078Y153245D01*
X195130Y153320D01*
X195162Y153405D01*
X195174Y153500D01*
Y151500D01*
D02*
G37*
G36*
X182744Y154158D02*
X183272Y153700D01*
X183524Y153515D01*
X183767Y153357D01*
X184003Y153229D01*
X184230Y153129D01*
X184450Y153057D01*
X184661Y153014D01*
X184864Y153000D01*
Y152000D01*
X184661Y151986D01*
X184450Y151943D01*
X184230Y151871D01*
X184003Y151771D01*
X183767Y151643D01*
X183524Y151486D01*
X183272Y151300D01*
X183012Y151085D01*
X182468Y150571D01*
Y154429D01*
X182744Y154158D01*
D02*
G37*
G36*
X178700Y153555D02*
Y151445D01*
X179938Y149802D01*
X179544Y149882D01*
X177248Y150205D01*
X176986Y150217D01*
X176741Y150221D01*
X176573Y150721D01*
X175300D01*
Y154279D01*
X176573D01*
X176741Y154779D01*
X176986Y154783D01*
X177820Y154846D01*
X178460Y154930D01*
X179938Y155198D01*
X178700Y153555D01*
D02*
G37*
G36*
X170775Y209995D02*
Y148326D01*
X170773Y148325D01*
X170673Y148175D01*
X169695Y148021D01*
X167423Y150293D01*
Y212215D01*
X168224Y212546D01*
X170775Y209995D01*
D02*
G37*
G36*
X264010Y194458D02*
X264040Y194117D01*
X264090Y193817D01*
X264160Y193556D01*
X264250Y193335D01*
X264360Y193154D01*
X264490Y193012D01*
X264640Y192910D01*
X264810Y192848D01*
X265000Y192826D01*
X261000D01*
X261190Y192848D01*
X261360Y192910D01*
X261510Y193012D01*
X261640Y193154D01*
X261750Y193335D01*
X261840Y193556D01*
X261910Y193817D01*
X261960Y194117D01*
X261990Y194458D01*
X262000Y194838D01*
X264000D01*
X264010Y194458D01*
D02*
G37*
G36*
X178700Y140721D02*
X175300D01*
Y144279D01*
X178700D01*
Y140721D01*
D02*
G37*
G36*
Y123555D02*
Y121445D01*
X179938Y119802D01*
X179544Y119882D01*
X177248Y120204D01*
X176986Y120217D01*
X176741Y120221D01*
X176573Y120721D01*
X175300D01*
Y124279D01*
X176573D01*
X176741Y124779D01*
X176986Y124783D01*
X177820Y124846D01*
X178460Y124930D01*
X179938Y125198D01*
X178700Y123555D01*
D02*
G37*
D12*
X113000Y229500D02*
Y239000D01*
Y229500D02*
X162000Y180500D01*
X259000Y237350D02*
X259500Y236850D01*
X239332Y237350D02*
X259000D01*
X263000Y190850D02*
Y196000D01*
X264850Y230150D02*
X265000Y230000D01*
X259500Y230150D02*
X264850D01*
D25*
X263000Y184150D02*
D03*
Y190850D02*
D03*
X197500Y159350D02*
D03*
Y152650D02*
D03*
X189000Y178850D02*
D03*
Y172150D02*
D03*
X259500Y230150D02*
D03*
Y236850D02*
D03*
D26*
X242300Y184279D02*
X245700D01*
X242300Y180721D02*
Y184279D01*
Y180721D02*
X245700D01*
Y184279D01*
X178700Y180721D02*
Y184279D01*
X242300Y174279D02*
X245700D01*
X242300Y170721D02*
Y174279D01*
Y170721D02*
X245700D01*
Y174279D01*
X175300D02*
X178700D01*
X175300Y170721D02*
Y174279D01*
Y170721D02*
X178700D01*
Y174279D01*
X242300Y164279D02*
X245700D01*
X242300Y160721D02*
Y164279D01*
Y160721D02*
X245700D01*
Y164279D01*
X175300D02*
X178700D01*
X175300Y160721D02*
Y164279D01*
Y160721D02*
X178700D01*
Y164279D01*
X242300Y154279D02*
X245700D01*
X242300Y150721D02*
Y154279D01*
Y150721D02*
X245700D01*
Y154279D01*
X175300D02*
X178700D01*
X175300Y150721D02*
Y154279D01*
Y150721D02*
X178700D01*
Y154279D01*
X242300Y144279D02*
X245700D01*
X242300Y140721D02*
Y144279D01*
Y140721D02*
X245700D01*
Y144279D01*
X175300D02*
X178700D01*
X175300Y140721D02*
Y144279D01*
Y140721D02*
X178700D01*
Y144279D01*
X242300Y134279D02*
X245700D01*
X242300Y130721D02*
Y134279D01*
Y130721D02*
X245700D01*
Y134279D01*
X175300D02*
X178700D01*
X175300Y130721D02*
Y134279D01*
Y130721D02*
X178700D01*
Y134279D01*
X242300Y124279D02*
X245700D01*
X242300Y120721D02*
Y124279D01*
Y120721D02*
X245700D01*
Y124279D01*
X175300D02*
X178700D01*
X175300Y120721D02*
Y124279D01*
Y120721D02*
X178700D01*
Y124279D01*
X175300Y180721D02*
Y184279D01*
X178700D01*
X175300Y180721D02*
X178700D01*
X201000Y132500D02*
X201050Y132550D01*
Y174019D01*
X222500Y151500D02*
Y212500D01*
Y151500D02*
X231500Y142500D01*
X240500D01*
X201000Y174069D02*
X201050Y174019D01*
X201000Y174069D02*
Y210500D01*
X159000Y238000D02*
X176000Y221000D01*
Y209000D02*
Y221000D01*
X226000Y181405D02*
Y185000D01*
Y181405D02*
X239906Y167500D01*
X245500D01*
X140000Y209000D02*
Y254500D01*
Y209000D02*
X156500Y192500D01*
X163100Y215900D02*
X166200Y212800D01*
Y149786D02*
Y212800D01*
X158100Y215900D02*
X163100D01*
X155000Y219000D02*
Y254500D01*
Y219000D02*
X158100Y215900D01*
X166200Y149786D02*
X170000Y145986D01*
Y138500D02*
Y145986D01*
X162000Y220500D02*
X171999Y210502D01*
Y147099D02*
Y210502D01*
X255950Y224550D02*
X263000Y217500D01*
X255950Y224550D02*
Y227661D01*
X249911Y233700D02*
X255950Y227661D01*
X242700Y233700D02*
X249911D01*
X234500Y225500D02*
X242700Y233700D01*
X234500Y182905D02*
Y225500D01*
Y182905D02*
X239906Y177500D01*
X245500D01*
X251200Y128200D02*
Y220482D01*
X249000Y131000D02*
Y231500D01*
X245500Y127500D02*
X249000Y131000D01*
X245500Y122500D02*
X251200Y128200D01*
X180500Y162500D02*
X189000D01*
X194500Y168000D01*
Y208000D01*
X197500Y159350D02*
Y217500D01*
X189000Y178850D02*
Y216490D01*
X219000Y232000D02*
X221500D01*
X209500Y222500D02*
X219000Y232000D01*
X209309Y222691D02*
X209500Y222500D01*
X207920Y222691D02*
X209309D01*
X196700Y222700D02*
X207911D01*
X207920Y222691D01*
X200500Y220500D02*
X207000D01*
X197500Y217500D02*
X200500Y220500D01*
X196500Y222500D02*
X196700Y222700D01*
X195010Y222500D02*
X196500D01*
X189000Y216490D02*
X195010Y222500D01*
X188350Y172500D02*
X188850Y172000D01*
X180500Y172500D02*
X188350D01*
X197350Y152500D02*
X197500Y152650D01*
X180500Y152500D02*
X197350D01*
X188850Y172000D02*
X189000Y172150D01*
D41*
X245500Y122500D02*
D03*
Y132500D02*
D03*
Y142500D02*
D03*
Y152500D02*
D03*
Y162500D02*
D03*
Y172500D02*
D03*
Y182500D02*
D03*
X175500D02*
D03*
Y172500D02*
D03*
Y162500D02*
D03*
Y152500D02*
D03*
Y142500D02*
D03*
Y132500D02*
D03*
Y122500D02*
D03*
X245500Y127500D02*
D03*
Y137500D02*
D03*
Y147500D02*
D03*
Y157500D02*
D03*
Y167500D02*
D03*
Y177500D02*
D03*
X175500D02*
D03*
Y167500D02*
D03*
Y157500D02*
D03*
D42*
X240500Y122500D02*
D03*
Y132500D02*
D03*
Y142500D02*
D03*
Y152500D02*
D03*
Y162500D02*
D03*
Y172500D02*
D03*
Y182500D02*
D03*
X180500D02*
D03*
Y172500D02*
D03*
Y162500D02*
D03*
Y152500D02*
D03*
Y142500D02*
D03*
Y132500D02*
D03*
Y122500D02*
D03*
D43*
X206500Y159500D02*
D03*
X112000Y210500D02*
D03*
Y190500D02*
D03*
X162000Y180500D02*
D03*
Y220500D02*
D03*
Y190500D02*
D03*
Y210500D02*
D03*
Y200500D02*
D03*
D44*
X179500Y243000D02*
D03*
X189500D02*
D03*
D45*
X201000Y132500D02*
D03*
X150500Y222500D02*
D03*
X146000Y218000D02*
D03*
X149000Y179000D02*
D03*
X143000Y184000D02*
D03*
Y192000D02*
D03*
X169000Y191000D02*
D03*
X162500Y166500D02*
D03*
Y173500D02*
D03*
X113000Y239000D02*
D03*
X159000Y238000D02*
D03*
X176000Y209000D02*
D03*
X226000Y185000D02*
D03*
X140000Y254500D02*
D03*
X156500Y192500D02*
D03*
X155000Y254500D02*
D03*
X171999Y147099D02*
D03*
X169000Y163000D02*
D03*
X169154Y155439D02*
D03*
X170000Y138500D02*
D03*
X239332Y237350D02*
D03*
X263000Y217500D02*
D03*
X231500Y200500D02*
D03*
Y208000D02*
D03*
X263000Y196000D02*
D03*
X265000Y230000D02*
D03*
X173500Y104000D02*
D03*
Y112500D02*
D03*
X173562Y107246D02*
D03*
X170000Y112500D02*
D03*
X216500Y204000D02*
D03*
X214000Y206000D02*
D03*
X211000D02*
D03*
X206500Y231500D02*
D03*
X214000D02*
D03*
X143000Y109000D02*
D03*
X129000D02*
D03*
X118000D02*
D03*
X130500Y156000D02*
D03*
X142500D02*
D03*
X118500D02*
D03*
X195000Y211500D02*
D03*
X192000Y204000D02*
D03*
X201500Y214000D02*
D03*
X228000Y213500D02*
D03*
X251200Y220482D02*
D03*
X249000Y231500D02*
D03*
X201000Y210500D02*
D03*
X194500Y208000D02*
D03*
X221500Y232000D02*
D03*
X209500Y222500D02*
D03*
X207000Y220500D02*
D03*
X222500Y212500D02*
D03*
M02*
