G04*
G04 #@! TF.GenerationSoftware,Altium Limited,Altium Designer,25.8.1 (18)*
G04*
G04 Layer_Physical_Order=1*
G04 Layer_Color=255*
%FSLAX25Y25*%
%MOIN*%
G70*
G04*
G04 #@! TF.SameCoordinates,67F45A81-E337-433C-A550-62EA9ADE51A4*
G04*
G04*
G04 #@! TF.FilePolarity,Positive*
G04*
G01*
G75*
%ADD12C,0.02000*%
%ADD19R,0.03150X0.03150*%
%ADD20R,0.07700X0.04700*%
%ADD21R,0.03500X0.02400*%
%ADD22R,0.02400X0.06700*%
%ADD23R,0.02441X0.05787*%
%ADD24R,0.04000X0.04700*%
%ADD25R,0.04700X0.04000*%
%ADD26C,0.01000*%
%ADD35R,0.00984X0.01870*%
%ADD36R,0.01870X0.00984*%
%ADD37R,0.41200X0.41000*%
%ADD38R,0.10600X0.04000*%
%ADD39R,0.03900X0.11200*%
%ADD40C,0.03000*%
%ADD41C,0.03543*%
%ADD42C,0.05512*%
%ADD43C,0.06000*%
%ADD44C,0.07677*%
%ADD45C,0.02000*%
G36*
X268480Y102520D02*
X172672D01*
X172158Y103106D01*
X172158Y103320D01*
Y106500D01*
X169937D01*
X167717D01*
Y103320D01*
X167717Y103106D01*
X167202Y102520D01*
X101020D01*
Y259981D01*
X268480D01*
Y102520D01*
D02*
G37*
%LPC*%
G36*
X124075Y253224D02*
X122000D01*
Y251150D01*
X124075D01*
Y253224D01*
D02*
G37*
G36*
X109575D02*
X107500D01*
Y251150D01*
X109575D01*
Y253224D01*
D02*
G37*
G36*
X151000D02*
X148925D01*
Y251150D01*
X151000D01*
Y253224D01*
D02*
G37*
G36*
X136000D02*
X133925D01*
Y251150D01*
X136000D01*
Y253224D01*
D02*
G37*
G36*
X121000D02*
X118925D01*
Y251150D01*
X121000D01*
Y253224D01*
D02*
G37*
G36*
X106500D02*
X104425D01*
Y251150D01*
X106500D01*
Y253224D01*
D02*
G37*
G36*
X154075Y250150D02*
X152000D01*
Y248075D01*
X154075D01*
Y250150D01*
D02*
G37*
G36*
X151000D02*
X148925D01*
Y248075D01*
X151000D01*
Y250150D01*
D02*
G37*
G36*
X139075D02*
X137000D01*
Y248075D01*
X139075D01*
Y250150D01*
D02*
G37*
G36*
X136000D02*
X133925D01*
Y248075D01*
X136000D01*
Y250150D01*
D02*
G37*
G36*
X124075D02*
X122000D01*
Y248075D01*
X124075D01*
Y250150D01*
D02*
G37*
G36*
X109575D02*
X107500D01*
Y248075D01*
X109575D01*
Y250150D01*
D02*
G37*
G36*
X106500D02*
X104425D01*
Y248075D01*
X106500D01*
Y250150D01*
D02*
G37*
G36*
X155000Y256233D02*
X154337Y256101D01*
X153774Y255726D01*
X153399Y255163D01*
X153267Y254500D01*
X153361Y254024D01*
X153034Y253434D01*
X152846Y253224D01*
X152000D01*
Y251150D01*
X154075D01*
Y251547D01*
X154875Y251943D01*
X155026Y251828D01*
Y251150D01*
X155050Y251032D01*
Y248550D01*
X155534D01*
Y246450D01*
X155050D01*
Y245774D01*
X153775D01*
Y246625D01*
X149225D01*
Y242076D01*
X153775D01*
Y243326D01*
X155050D01*
Y242650D01*
X159950D01*
Y246450D01*
X159467D01*
Y248550D01*
X159950D01*
Y252350D01*
X157474D01*
Y252979D01*
X157380Y253448D01*
X157115Y253844D01*
X156688Y254272D01*
X156733Y254500D01*
X156601Y255163D01*
X156226Y255726D01*
X155663Y256101D01*
X155000Y256233D01*
D02*
G37*
G36*
X140000D02*
X139337Y256101D01*
X138774Y255726D01*
X138399Y255163D01*
X138267Y254500D01*
X138361Y254024D01*
X138034Y253434D01*
X137846Y253224D01*
X137000D01*
Y251150D01*
X139075D01*
Y251506D01*
X139875Y252067D01*
X139892Y252061D01*
X140050Y251920D01*
Y248550D01*
X140533D01*
Y246450D01*
X140050D01*
Y245774D01*
X138775D01*
Y246625D01*
X134225D01*
Y242076D01*
X138775D01*
Y243326D01*
X140050D01*
Y242650D01*
X144950D01*
Y246450D01*
X144466D01*
Y248550D01*
X144950D01*
Y252350D01*
X143723D01*
Y253500D01*
X143630Y253968D01*
X143365Y254365D01*
X142557Y255174D01*
X142159Y255439D01*
X141691Y255532D01*
X141355D01*
X141226Y255726D01*
X140663Y256101D01*
X140000Y256233D01*
D02*
G37*
G36*
X115450Y252350D02*
X110550D01*
Y248550D01*
X111033D01*
Y246450D01*
X110550D01*
Y245774D01*
X109275D01*
Y246625D01*
X104725D01*
Y242076D01*
X109275D01*
Y243326D01*
X110550D01*
Y242650D01*
X114199D01*
X111774Y240226D01*
X111399Y239663D01*
X111267Y239000D01*
X111399Y238337D01*
X111774Y237774D01*
X112337Y237399D01*
X113000Y237267D01*
X113663Y237399D01*
X114226Y237774D01*
X117676Y241224D01*
X118051Y241787D01*
X118183Y242450D01*
Y247935D01*
X118925Y248075D01*
X118983Y248075D01*
X121000D01*
Y250150D01*
X118925D01*
Y249418D01*
X118125Y249339D01*
X118051Y249710D01*
X117676Y250273D01*
X116473Y251476D01*
X115910Y251851D01*
X115450Y251943D01*
Y252350D01*
D02*
G37*
G36*
X246237Y257014D02*
X240937D01*
X240937Y245002D01*
Y244948D01*
Y244948D01*
X240937Y244925D01*
X240844Y244887D01*
X240137Y244594D01*
X239365Y245365D01*
X238968Y245630D01*
X238500Y245724D01*
X220853D01*
X220385Y245630D01*
X219988Y245365D01*
X217135Y242513D01*
X217078Y242464D01*
X216973Y242385D01*
X216874Y242321D01*
X216780Y242269D01*
X216693Y242230D01*
X216611Y242201D01*
X216535Y242182D01*
X216462Y242172D01*
X216356Y242166D01*
X216353Y242165D01*
X214718D01*
Y234065D01*
X218518D01*
Y239346D01*
X218519Y239480D01*
X218521Y239584D01*
X218523Y239609D01*
X218526Y239638D01*
X218544Y239762D01*
X218565Y239889D01*
X218599Y240078D01*
X218695Y240152D01*
X219275Y240295D01*
X219347Y240291D01*
X219386Y240281D01*
X219412Y240271D01*
X219463Y240244D01*
X219639Y240085D01*
Y234065D01*
X220288D01*
X220291Y234048D01*
X220296Y233991D01*
Y233294D01*
X220294Y233275D01*
X220287Y233234D01*
X220274Y233226D01*
X219899Y232663D01*
X219767Y232000D01*
X219899Y231337D01*
X220274Y230774D01*
X220837Y230399D01*
X221500Y230267D01*
X222163Y230399D01*
X222726Y230774D01*
X223101Y231337D01*
X223233Y232000D01*
X223101Y232663D01*
X222757Y233179D01*
X222752Y233200D01*
X222746Y233237D01*
X222743Y233277D01*
Y233991D01*
X222748Y234048D01*
X222751Y234065D01*
X223439D01*
Y242165D01*
X220248D01*
X221359Y243277D01*
X237673D01*
X237897Y242965D01*
X237487Y242165D01*
X234403D01*
Y234065D01*
X236336D01*
X236503Y234032D01*
X236671Y234065D01*
X237856D01*
Y234065D01*
X238203D01*
X238203Y234721D01*
X238224Y234905D01*
X238974Y235215D01*
X239166Y235064D01*
X251252Y222979D01*
X251245Y222878D01*
X250936Y222163D01*
X250537Y222083D01*
X249974Y221707D01*
X249599Y221145D01*
X249469Y220495D01*
X249468Y220494D01*
X249447Y220464D01*
X249420Y220432D01*
X248212Y219223D01*
X246199D01*
X245428Y219292D01*
X245428Y220023D01*
Y225393D01*
X236328D01*
X236328Y219292D01*
X235557Y219223D01*
X227392D01*
X225251Y221365D01*
X224853Y221630D01*
X224385Y221724D01*
X212271D01*
X211860Y221642D01*
X211591Y221810D01*
X211167Y222168D01*
X211233Y222500D01*
X211198Y222676D01*
X211781Y223477D01*
X222816D01*
X223285Y223570D01*
X223682Y223835D01*
X232247Y232400D01*
X232512Y232797D01*
X232605Y233265D01*
Y233991D01*
X232610Y234048D01*
X232613Y234065D01*
X233282D01*
Y242165D01*
X229482D01*
X229482Y234065D01*
D01*
X229652Y233265D01*
X229593Y233207D01*
X228484Y232098D01*
X227684Y232429D01*
Y233991D01*
X227689Y234048D01*
X227692Y234065D01*
X228361D01*
Y242165D01*
X224561D01*
Y234065D01*
X225229D01*
X225232Y234048D01*
X225237Y233991D01*
Y231967D01*
X220893Y227624D01*
X196400D01*
X195932Y227530D01*
X195535Y227265D01*
X189285Y221015D01*
X189020Y220618D01*
X188926Y220150D01*
Y219625D01*
X188921Y219568D01*
X188918Y219550D01*
X187450D01*
Y213450D01*
X188919D01*
X188921Y213433D01*
X188926Y213375D01*
Y212350D01*
X189020Y211882D01*
X189285Y211485D01*
X192730Y208040D01*
X192742Y208025D01*
X192769Y207988D01*
X192769Y207987D01*
X192899Y207337D01*
X193274Y206774D01*
X193837Y206399D01*
X194500Y206267D01*
X195163Y206399D01*
X195726Y206774D01*
X196101Y207337D01*
X196233Y208000D01*
X196101Y208663D01*
X195726Y209226D01*
X195163Y209601D01*
X194513Y209731D01*
X194512Y209732D01*
X194482Y209753D01*
X194450Y209780D01*
X191936Y212294D01*
X191580Y212650D01*
X191863Y213423D01*
X192148Y213450D01*
X192850Y213450D01*
Y213686D01*
X192850D01*
Y213933D01*
X194150D01*
Y213450D01*
X199550D01*
Y215221D01*
X199567Y215224D01*
X199625Y215229D01*
X202988D01*
Y214984D01*
X204923D01*
Y213984D01*
X202988D01*
Y213016D01*
X204923D01*
Y212016D01*
X202988D01*
Y211914D01*
X202222Y211766D01*
X202183Y211772D01*
X202148Y211779D01*
X202143Y211781D01*
X201663Y212101D01*
X201000Y212233D01*
X200337Y212101D01*
X199774Y211726D01*
X199399Y211163D01*
X199267Y210500D01*
X199399Y209837D01*
X199774Y209274D01*
X200337Y208899D01*
X201000Y208767D01*
X201663Y208899D01*
X202226Y209274D01*
X202247Y209307D01*
X202279Y209312D01*
X202323Y209316D01*
X204915D01*
X205113Y209355D01*
X206300D01*
Y206668D01*
X206295Y206611D01*
X206292Y206594D01*
X205453D01*
Y200281D01*
X205436Y200187D01*
X205352Y199885D01*
X205245Y199593D01*
X205114Y199311D01*
X204959Y199037D01*
X204779Y198772D01*
X204611Y198563D01*
X204282Y198233D01*
X194718D01*
X176526Y216426D01*
X175963Y216801D01*
X175300Y216933D01*
X165235D01*
X164605Y217343D01*
X164479Y217714D01*
X164639Y217861D01*
X165232Y218634D01*
X165605Y219534D01*
X165732Y220500D01*
X165605Y221466D01*
X165232Y222366D01*
X164639Y223139D01*
X163866Y223732D01*
X162966Y224105D01*
X162602Y224153D01*
X162316Y224997D01*
X167455Y230136D01*
X168879D01*
X169738Y230307D01*
X170466Y230793D01*
X177329Y237656D01*
X177425Y237736D01*
X177670Y237909D01*
X177917Y238057D01*
X178164Y238180D01*
X178414Y238279D01*
X178666Y238355D01*
X178923Y238408D01*
X179185Y238439D01*
X179338Y238444D01*
X179500Y238422D01*
X180685Y238578D01*
X181789Y239036D01*
X182737Y239763D01*
X183464Y240711D01*
X183922Y241815D01*
X183945Y241994D01*
X184752D01*
X184786Y241737D01*
X185274Y240560D01*
X186049Y239549D01*
X187060Y238773D01*
X188237Y238286D01*
X189000Y238186D01*
Y243000D01*
Y247814D01*
X188237Y247714D01*
X187060Y247227D01*
X186049Y246451D01*
X185274Y245440D01*
X184786Y244263D01*
X184752Y244006D01*
X183945D01*
X183922Y244185D01*
X183464Y245289D01*
X182737Y246237D01*
X181789Y246964D01*
X180685Y247422D01*
X179500Y247578D01*
X178315Y247422D01*
X177211Y246964D01*
X176263Y246237D01*
X175536Y245289D01*
X175078Y244185D01*
X174922Y243000D01*
X174944Y242838D01*
X174939Y242685D01*
X174908Y242423D01*
X174855Y242166D01*
X174779Y241914D01*
X174680Y241664D01*
X174557Y241417D01*
X174409Y241170D01*
X174236Y240925D01*
X174156Y240828D01*
X167950Y234623D01*
X166526D01*
X165667Y234452D01*
X164939Y233966D01*
X145914Y214940D01*
X145428Y214212D01*
X145257Y213354D01*
Y187000D01*
X145428Y186142D01*
X145914Y185414D01*
X151707Y179621D01*
Y127350D01*
X151878Y126492D01*
X152364Y125764D01*
X154720Y123408D01*
X154902Y123198D01*
X155195Y122820D01*
X155444Y122453D01*
X155651Y122098D01*
X155817Y121756D01*
X155942Y121426D01*
X156029Y121110D01*
X156067Y120889D01*
X156100Y120103D01*
X156100Y120103D01*
X156100Y119800D01*
X156788Y119799D01*
X156796Y119800D01*
X156849D01*
X156852Y119799D01*
X156854Y119800D01*
X156900Y119800D01*
X159114D01*
X159185Y119792D01*
X159277Y119758D01*
X159360Y119703D01*
X159450Y119605D01*
X159549Y119443D01*
X159645Y119206D01*
X159730Y118892D01*
X159794Y118502D01*
X159820Y118214D01*
Y107000D01*
X159991Y106142D01*
X160143Y105914D01*
Y103406D01*
X163984D01*
Y105914D01*
X164135Y106142D01*
X164306Y107000D01*
Y118214D01*
X164331Y118502D01*
X164396Y118892D01*
X164481Y119206D01*
X164577Y119443D01*
X164676Y119605D01*
X164766Y119703D01*
X164849Y119758D01*
X164942Y119792D01*
X165013Y119800D01*
X167300D01*
X167379Y119800D01*
X167388Y119798D01*
X168100Y119800D01*
Y120007D01*
X168816Y120210D01*
X169491Y120257D01*
X174169D01*
X174170Y120253D01*
X174435Y119856D01*
X174832Y119591D01*
X175300Y119498D01*
X177086D01*
X177181Y119493D01*
X179423Y119178D01*
X179553Y119152D01*
X179598Y119133D01*
X179733Y119115D01*
X179797Y119102D01*
X179819Y119102D01*
X179839Y119095D01*
X179872Y119097D01*
X180500Y119014D01*
X181402Y119133D01*
X182243Y119481D01*
X182965Y120035D01*
X183519Y120757D01*
X183867Y121598D01*
X183986Y122500D01*
X183867Y123402D01*
X183519Y124243D01*
X182965Y124965D01*
X182243Y125519D01*
X181402Y125867D01*
X180500Y125986D01*
X179872Y125903D01*
X179839Y125905D01*
X179825Y125900D01*
X179811Y125900D01*
X179704Y125881D01*
X179598Y125867D01*
X179575Y125857D01*
X178349Y125635D01*
X177747Y125556D01*
X177034Y125502D01*
X175300D01*
X174832Y125409D01*
X174435Y125144D01*
X174170Y124747D01*
X174169Y124743D01*
X169191D01*
X168808Y124770D01*
X168100Y124993D01*
X168100Y125200D01*
X167388Y125202D01*
X167379Y125200D01*
X167300Y125200D01*
X160889D01*
X160705Y125210D01*
X160349Y125265D01*
X159989Y125357D01*
X159624Y125486D01*
X159254Y125654D01*
X158877Y125862D01*
X158494Y126111D01*
X158107Y126403D01*
X157858Y126614D01*
X156193Y128279D01*
Y129500D01*
X161600D01*
Y132500D01*
Y135500D01*
X156193D01*
Y139800D01*
X167447D01*
X167862Y139800D01*
X168217Y139379D01*
X168390Y139120D01*
X168267Y138500D01*
X168399Y137837D01*
X168774Y137274D01*
X169337Y136899D01*
X170000Y136767D01*
X170663Y136899D01*
X171226Y137274D01*
X171227Y137276D01*
X228904D01*
X229372Y137370D01*
X229769Y137635D01*
X236840Y144706D01*
X237481Y144243D01*
X237133Y143402D01*
X237014Y142500D01*
X237133Y141598D01*
X237481Y140757D01*
X238035Y140035D01*
X238757Y139481D01*
X239598Y139133D01*
X240500Y139014D01*
X241128Y139097D01*
X241161Y139095D01*
X241175Y139100D01*
X241189Y139100D01*
X241530Y138818D01*
X241597Y138732D01*
X241745Y138429D01*
X241715Y138321D01*
X241676Y138216D01*
X241595Y137706D01*
X241597Y137650D01*
X241586Y137594D01*
Y137390D01*
X241608Y137280D01*
X241621Y137169D01*
X241807Y136598D01*
X241753Y136416D01*
X241693Y136305D01*
X241382Y135998D01*
X241253Y135905D01*
X241226Y135893D01*
X241203Y135898D01*
X241181Y135898D01*
X241161Y135905D01*
X241128Y135903D01*
X240500Y135986D01*
X239598Y135867D01*
X238757Y135519D01*
X238035Y134965D01*
X237481Y134243D01*
X237266Y133723D01*
X202227D01*
X202226Y133726D01*
X201663Y134101D01*
X201000Y134233D01*
X200337Y134101D01*
X199774Y133726D01*
X199399Y133163D01*
X199267Y132500D01*
X199399Y131837D01*
X199774Y131274D01*
X200337Y130899D01*
X201000Y130767D01*
X201663Y130899D01*
X202226Y131274D01*
X202227Y131277D01*
X237266D01*
X237481Y130757D01*
X238035Y130035D01*
X238757Y129481D01*
X239598Y129133D01*
X240500Y129014D01*
X241128Y129097D01*
X241161Y129095D01*
X241175Y129100D01*
X241189Y129100D01*
X241530Y128818D01*
X241597Y128732D01*
X241745Y128429D01*
X241715Y128321D01*
X241676Y128217D01*
X241595Y127706D01*
X241597Y127650D01*
X241586Y127594D01*
Y127390D01*
X241608Y127280D01*
X241621Y127169D01*
X241807Y126598D01*
X241753Y126416D01*
X241693Y126305D01*
X241382Y125998D01*
X241253Y125905D01*
X241226Y125893D01*
X241203Y125898D01*
X241181Y125898D01*
X241161Y125905D01*
X241128Y125903D01*
X240500Y125986D01*
X239598Y125867D01*
X238757Y125519D01*
X238035Y124965D01*
X237481Y124243D01*
X237133Y123402D01*
X237014Y122500D01*
X237133Y121598D01*
X237481Y120757D01*
X238035Y120035D01*
X238757Y119481D01*
X239598Y119133D01*
X240500Y119014D01*
X241128Y119097D01*
X241161Y119095D01*
X241175Y119100D01*
X241189Y119100D01*
X241296Y119119D01*
X241402Y119133D01*
X241425Y119142D01*
X242651Y119365D01*
X243253Y119444D01*
X243966Y119498D01*
X245700D01*
X246168Y119591D01*
X246565Y119856D01*
X246830Y120253D01*
X246868Y120441D01*
X247282Y120718D01*
X247374Y120855D01*
X247392Y120873D01*
X247505Y120970D01*
X247614Y121052D01*
X247719Y121120D01*
X247818Y121174D01*
X247913Y121216D01*
X248004Y121248D01*
X248092Y121269D01*
X248144Y121276D01*
X251493D01*
X251619Y121151D01*
X251659Y121105D01*
X251740Y121000D01*
X251807Y120903D01*
X251860Y120813D01*
X251900Y120733D01*
X251928Y120661D01*
X251946Y120600D01*
X251950Y120578D01*
Y117150D01*
X252433D01*
Y115850D01*
X251950D01*
Y110450D01*
X258050D01*
Y111180D01*
X258122Y111204D01*
X258263Y111234D01*
X258589Y111267D01*
X259000D01*
X259663Y111399D01*
X260226Y111774D01*
X262726Y114274D01*
X263101Y114837D01*
X263233Y115500D01*
Y131409D01*
X263101Y132072D01*
X262726Y132635D01*
X260051Y135309D01*
X259489Y135685D01*
X258826Y135817D01*
X258328D01*
X258167Y135834D01*
X258050Y135855D01*
Y137550D01*
X256969D01*
X256968Y137550D01*
X256960Y137556D01*
X256933Y137584D01*
X256890Y137657D01*
X256838Y137784D01*
X256788Y137968D01*
X256749Y138208D01*
X256741Y138290D01*
X266226Y147774D01*
X266601Y148337D01*
X266733Y149000D01*
X266733Y149000D01*
Y167328D01*
X266601Y167992D01*
X266226Y168554D01*
X265054Y169726D01*
X264492Y170101D01*
X263828Y170233D01*
X263550D01*
Y171050D01*
X262316D01*
X262315Y171051D01*
X262307Y171056D01*
X262281Y171084D01*
X262237Y171157D01*
X262185Y171284D01*
X262135Y171468D01*
X262096Y171708D01*
X262080Y171880D01*
Y175153D01*
X261948Y175816D01*
X261573Y176379D01*
X257847Y180104D01*
X257285Y180480D01*
X256621Y180612D01*
X256158D01*
X256058Y180620D01*
X255844Y180651D01*
X255681Y180690D01*
X255570Y180729D01*
X255550Y180740D01*
Y182050D01*
X254469D01*
X254468Y182051D01*
X254460Y182056D01*
X254433Y182084D01*
X254390Y182157D01*
X254338Y182284D01*
X254288Y182468D01*
X254248Y182708D01*
X254233Y182880D01*
Y185325D01*
X254233Y185325D01*
X254101Y185988D01*
X253726Y186550D01*
X245449Y194827D01*
X245315Y195018D01*
X245225Y195198D01*
X245178Y195357D01*
X245163Y195500D01*
X245178Y195643D01*
X245225Y195802D01*
X245315Y195982D01*
X245449Y196173D01*
X255726Y206450D01*
X256101Y207012D01*
X256233Y207675D01*
Y222182D01*
X256101Y222845D01*
X255726Y223407D01*
X249934Y229199D01*
X250084Y230180D01*
X250226Y230274D01*
X250601Y230837D01*
X250733Y231500D01*
X250601Y232163D01*
X250233Y232714D01*
X250233Y232716D01*
X250227Y232752D01*
X250223Y232793D01*
Y234000D01*
X250130Y234468D01*
X249865Y234865D01*
X241116Y243614D01*
X241448Y244414D01*
X241471Y244414D01*
X241471Y244414D01*
X241525Y244414D01*
X246237D01*
Y257014D01*
D02*
G37*
G36*
X207063D02*
X201763D01*
Y244414D01*
X207063D01*
Y257014D01*
D02*
G37*
G36*
X190000Y247814D02*
Y243500D01*
X194315D01*
X194214Y244263D01*
X193727Y245440D01*
X192951Y246451D01*
X191940Y247227D01*
X190763Y247714D01*
X190000Y247814D01*
D02*
G37*
G36*
X213897Y242465D02*
X212197D01*
Y238615D01*
X213897D01*
Y242465D01*
D02*
G37*
G36*
X211197D02*
X209497D01*
Y238615D01*
X211197D01*
Y242465D01*
D02*
G37*
G36*
X194315Y242500D02*
X190000D01*
Y238186D01*
X190763Y238286D01*
X191940Y238773D01*
X192951Y239549D01*
X193727Y240560D01*
X194214Y241737D01*
X194315Y242500D01*
D02*
G37*
G36*
X129950Y252350D02*
X125050D01*
Y248550D01*
X125533D01*
Y246450D01*
X125050D01*
Y245774D01*
X123775D01*
Y246625D01*
X119225D01*
Y242076D01*
X123775D01*
Y243326D01*
X125050D01*
Y242650D01*
X129950D01*
Y246450D01*
X129466D01*
Y248093D01*
X130761Y246799D01*
Y241016D01*
X130854Y240548D01*
X131119Y240151D01*
X134135Y237135D01*
X134532Y236870D01*
X135000Y236776D01*
X157773D01*
X157774Y236774D01*
X158337Y236399D01*
X159000Y236267D01*
X159663Y236399D01*
X160226Y236774D01*
X160601Y237337D01*
X160733Y238000D01*
X160601Y238663D01*
X160226Y239226D01*
X159663Y239601D01*
X159000Y239733D01*
X158337Y239601D01*
X157774Y239226D01*
X157773Y239224D01*
X135507D01*
X133208Y241523D01*
Y247306D01*
X133114Y247774D01*
X132849Y248171D01*
X130405Y250615D01*
X130008Y250880D01*
X129950Y250892D01*
Y252350D01*
D02*
G37*
G36*
X213897Y237615D02*
X212197D01*
Y233765D01*
X213897D01*
Y237615D01*
D02*
G37*
G36*
X211197D02*
X209497D01*
Y233765D01*
X211197D01*
Y237615D01*
D02*
G37*
G36*
X265000Y231733D02*
X264337Y231601D01*
X263774Y231226D01*
X261896Y229348D01*
X261521Y228785D01*
X261389Y228122D01*
Y226223D01*
X261373Y226051D01*
X261334Y225812D01*
X261284Y225629D01*
X261233Y225504D01*
X261190Y225434D01*
X261166Y225408D01*
X261160Y225404D01*
X261154Y225401D01*
X261068Y225393D01*
X258572D01*
Y219292D01*
X261264D01*
X261316Y219235D01*
X261619Y218493D01*
X261399Y218163D01*
X261267Y217500D01*
X261396Y216850D01*
X261396Y216850D01*
X261399Y216837D01*
X261399Y216837D01*
X261452Y216747D01*
X261615Y216112D01*
X261556Y215941D01*
X261006Y215550D01*
X261002Y215550D01*
X258572D01*
Y209450D01*
X267672D01*
Y215550D01*
X265028D01*
X264440Y215902D01*
X264392Y216059D01*
X264500Y216665D01*
X264601Y216837D01*
X264601Y216837D01*
X264606Y216863D01*
X264606Y216863D01*
X264733Y217500D01*
X264601Y218163D01*
X264381Y218493D01*
X264684Y219235D01*
X264736Y219292D01*
X267672D01*
Y225393D01*
X265176D01*
X265090Y225401D01*
X265084Y225404D01*
X265078Y225408D01*
X265054Y225434D01*
X265011Y225504D01*
X264960Y225629D01*
X264910Y225812D01*
X264871Y226051D01*
X264855Y226223D01*
Y227404D01*
X266226Y228774D01*
X266601Y229337D01*
X266733Y230000D01*
X266601Y230663D01*
X266226Y231226D01*
X265663Y231601D01*
X265000Y231733D01*
D02*
G37*
G36*
X112000Y214232D02*
X111034Y214105D01*
X110134Y213732D01*
X109361Y213139D01*
X108768Y212366D01*
X108395Y211466D01*
X108268Y210500D01*
X108395Y209534D01*
X108768Y208634D01*
X109361Y207861D01*
X110134Y207268D01*
X111034Y206895D01*
X112000Y206768D01*
X112966Y206895D01*
X113866Y207268D01*
X114639Y207861D01*
X115232Y208634D01*
X115605Y209534D01*
X115732Y210500D01*
X115605Y211466D01*
X115232Y212366D01*
X114639Y213139D01*
X113866Y213732D01*
X112966Y214105D01*
X112000Y214232D01*
D02*
G37*
G36*
X201720Y206894D02*
X200000D01*
Y203500D01*
X201720D01*
Y206894D01*
D02*
G37*
G36*
X199000D02*
X197280D01*
Y203500D01*
X199000D01*
Y206894D01*
D02*
G37*
G36*
X201720Y202500D02*
X200000D01*
Y199106D01*
X201720D01*
Y202500D01*
D02*
G37*
G36*
X199000D02*
X197280D01*
Y199106D01*
X199000D01*
Y202500D01*
D02*
G37*
G36*
X267672Y205708D02*
X258572D01*
Y199608D01*
X261153D01*
X261154Y199607D01*
X261162Y199601D01*
X261189Y199573D01*
X261232Y199501D01*
X261284Y199373D01*
X261334Y199189D01*
X261373Y198950D01*
X261389Y198777D01*
Y196614D01*
X261267Y196000D01*
X261399Y195337D01*
X261774Y194774D01*
X262337Y194399D01*
X263000Y194267D01*
X263663Y194399D01*
X264226Y194774D01*
X264348Y194896D01*
X264348Y194896D01*
X264723Y195459D01*
X264855Y196122D01*
Y198777D01*
X264871Y198950D01*
X264910Y199189D01*
X264960Y199373D01*
X265012Y199501D01*
X265056Y199573D01*
X265082Y199601D01*
X265090Y199607D01*
X265091Y199608D01*
X267672D01*
Y205708D01*
D02*
G37*
G36*
X112000Y194232D02*
X111034Y194105D01*
X110134Y193732D01*
X109361Y193139D01*
X108768Y192366D01*
X108395Y191466D01*
X108268Y190500D01*
X108395Y189534D01*
X108768Y188634D01*
X109361Y187861D01*
X110134Y187268D01*
X111034Y186895D01*
X112000Y186768D01*
X112966Y186895D01*
X113866Y187268D01*
X114639Y187861D01*
X115232Y188634D01*
X115605Y189534D01*
X115732Y190500D01*
X115605Y191466D01*
X115232Y192366D01*
X114639Y193139D01*
X113866Y193732D01*
X112966Y194105D01*
X112000Y194232D01*
D02*
G37*
G36*
X168400Y135500D02*
X162600D01*
Y133000D01*
X168400D01*
Y135500D01*
D02*
G37*
G36*
X150500Y154000D02*
X129400D01*
Y133000D01*
X150500D01*
Y154000D01*
D02*
G37*
G36*
X181000Y136223D02*
Y133000D01*
X184222D01*
X184159Y133481D01*
X183781Y134394D01*
X183179Y135179D01*
X182394Y135781D01*
X181481Y136159D01*
X181000Y136223D01*
D02*
G37*
G36*
X128400Y154000D02*
X107300D01*
Y133000D01*
X128400D01*
Y154000D01*
D02*
G37*
G36*
X180000Y136223D02*
X179519Y136159D01*
X178606Y135781D01*
X178437Y135651D01*
X178349Y135635D01*
X177747Y135556D01*
X177034Y135502D01*
X175300D01*
X174832Y135409D01*
X174435Y135144D01*
X174356Y135026D01*
X174102Y134921D01*
X173523Y134477D01*
X173079Y133898D01*
X172800Y133224D01*
X172770Y133000D01*
X175300D01*
Y134279D01*
X176573D01*
X176741Y134779D01*
X176986Y134783D01*
X177820Y134846D01*
X178460Y134930D01*
X179938Y135198D01*
X178700Y133555D01*
Y131445D01*
X179938Y129802D01*
X179544Y129882D01*
X177248Y130204D01*
X176986Y130217D01*
X176741Y130221D01*
X176573Y130721D01*
X175300D01*
Y132000D01*
X172770D01*
X172800Y131776D01*
X173079Y131102D01*
X173523Y130523D01*
X174102Y130079D01*
X174356Y129974D01*
X174435Y129856D01*
X174832Y129591D01*
X175300Y129498D01*
X177086D01*
X177181Y129493D01*
X178489Y129309D01*
X178606Y129219D01*
X179519Y128841D01*
X180000Y128778D01*
Y132500D01*
Y136223D01*
D02*
G37*
G36*
X168400Y132000D02*
X162600D01*
Y129500D01*
X168400D01*
Y132000D01*
D02*
G37*
G36*
X184222D02*
X181000D01*
Y128778D01*
X181481Y128841D01*
X182394Y129219D01*
X183179Y129821D01*
X183781Y130606D01*
X184159Y131519D01*
X184222Y132000D01*
D02*
G37*
G36*
X150500D02*
X129400D01*
Y111000D01*
X150500D01*
Y132000D01*
D02*
G37*
G36*
X128400D02*
X107300D01*
Y111000D01*
X128400D01*
Y132000D01*
D02*
G37*
G36*
X172158Y110894D02*
X170437D01*
Y107500D01*
X172158D01*
Y110894D01*
D02*
G37*
G36*
X169437D02*
X167717D01*
Y107500D01*
X169437D01*
Y110894D01*
D02*
G37*
%LPD*%
G36*
X218513Y241453D02*
X218379Y241312D01*
X218259Y241171D01*
X218153Y241029D01*
X218061Y240888D01*
X217983Y240746D01*
X217919Y240605D01*
X217870Y240463D01*
X217834Y240322D01*
X217813Y240181D01*
X217806Y240039D01*
X216392Y241453D01*
X216533Y241460D01*
X216675Y241482D01*
X216816Y241517D01*
X216958Y241566D01*
X217099Y241630D01*
X217240Y241708D01*
X217382Y241800D01*
X217523Y241906D01*
X217665Y242026D01*
X217806Y242161D01*
X218513Y241453D01*
D02*
G37*
G36*
X179462Y239162D02*
X179132Y239151D01*
X178809Y239113D01*
X178491Y239047D01*
X178179Y238954D01*
X177874Y238833D01*
X177574Y238684D01*
X177280Y238507D01*
X176992Y238303D01*
X176710Y238072D01*
X176434Y237812D01*
X174312Y239934D01*
X174572Y240210D01*
X174803Y240492D01*
X175007Y240780D01*
X175184Y241074D01*
X175333Y241374D01*
X175454Y241679D01*
X175547Y241991D01*
X175613Y242309D01*
X175651Y242632D01*
X175662Y242962D01*
X179462Y239162D01*
D02*
G37*
G36*
X237500Y239031D02*
X237557Y238888D01*
X237651Y238762D01*
X237781Y238653D01*
X237948Y238560D01*
X238152Y238485D01*
X238392Y238426D01*
X238668Y238384D01*
X238982Y238358D01*
X239332Y238350D01*
Y236350D01*
X238982Y236342D01*
X238668Y236316D01*
X238392Y236274D01*
X238152Y236216D01*
X237948Y236140D01*
X237781Y236048D01*
X237651Y235938D01*
X237557Y235812D01*
X237500Y235669D01*
X237479Y235510D01*
Y239191D01*
X237500Y239031D01*
D02*
G37*
G36*
X232287Y234777D02*
X232202Y234745D01*
X232127Y234693D01*
X232062Y234622D01*
X232007Y234530D01*
X231962Y234419D01*
X231927Y234288D01*
X231902Y234138D01*
X231887Y233967D01*
X231882Y233777D01*
X230882D01*
X230877Y233967D01*
X230862Y234138D01*
X230837Y234288D01*
X230802Y234419D01*
X230757Y234530D01*
X230702Y234622D01*
X230637Y234693D01*
X230562Y234745D01*
X230477Y234777D01*
X230382Y234789D01*
X232382D01*
X232287Y234777D01*
D02*
G37*
G36*
X227366D02*
X227281Y234745D01*
X227206Y234693D01*
X227141Y234622D01*
X227086Y234530D01*
X227041Y234419D01*
X227006Y234288D01*
X226981Y234138D01*
X226966Y233967D01*
X226961Y233777D01*
X225961D01*
X225956Y233967D01*
X225941Y234138D01*
X225916Y234288D01*
X225881Y234419D01*
X225836Y234530D01*
X225781Y234622D01*
X225716Y234693D01*
X225641Y234745D01*
X225556Y234777D01*
X225461Y234789D01*
X227461D01*
X227366Y234777D01*
D02*
G37*
G36*
X222425D02*
X222340Y234745D01*
X222265Y234693D01*
X222200Y234622D01*
X222145Y234530D01*
X222100Y234419D01*
X222065Y234288D01*
X222040Y234138D01*
X222025Y233967D01*
X222020Y233777D01*
X221020D01*
X221015Y233967D01*
X221000Y234138D01*
X220975Y234288D01*
X220940Y234419D01*
X220895Y234530D01*
X220840Y234622D01*
X220775Y234693D01*
X220700Y234745D01*
X220615Y234777D01*
X220520Y234789D01*
X222520D01*
X222425Y234777D01*
D02*
G37*
G36*
X222020Y233454D02*
X222022Y233347D01*
X222037Y233153D01*
X222051Y233067D01*
X222068Y232988D01*
X222090Y232916D01*
X222115Y232851D01*
X222144Y232794D01*
X222177Y232743D01*
X222214Y232700D01*
X220814Y232728D01*
X220853Y232770D01*
X220888Y232820D01*
X220919Y232876D01*
X220946Y232941D01*
X220968Y233012D01*
X220987Y233090D01*
X221001Y233176D01*
X221011Y233269D01*
X221020Y233477D01*
X222020Y233454D01*
D02*
G37*
G36*
X249502Y232858D02*
X249518Y232665D01*
X249532Y232579D01*
X249550Y232500D01*
X249572Y232429D01*
X249598Y232364D01*
X249628Y232307D01*
X249662Y232257D01*
X249700Y232214D01*
X248300D01*
X248338Y232257D01*
X248372Y232307D01*
X248402Y232364D01*
X248428Y232429D01*
X248450Y232500D01*
X248468Y232579D01*
X248482Y232665D01*
X248492Y232758D01*
X248500Y232966D01*
X249500D01*
X249502Y232858D01*
D02*
G37*
G36*
X207502Y221858D02*
X207518Y221665D01*
X207532Y221579D01*
X207550Y221500D01*
X207572Y221428D01*
X207598Y221364D01*
X207628Y221307D01*
X207662Y221257D01*
X207700Y221214D01*
X206300D01*
X206338Y221257D01*
X206372Y221307D01*
X206402Y221364D01*
X206428Y221428D01*
X206450Y221500D01*
X206468Y221579D01*
X206482Y221665D01*
X206492Y221758D01*
X206500Y221966D01*
X207500D01*
X207502Y221858D01*
D02*
G37*
G36*
X210162Y221743D02*
X210128Y221693D01*
X210098Y221636D01*
X210072Y221571D01*
X210050Y221500D01*
X210032Y221421D01*
X210018Y221335D01*
X210008Y221242D01*
X210000Y221034D01*
X209000D01*
X208998Y221142D01*
X208982Y221335D01*
X208968Y221421D01*
X208950Y221500D01*
X208928Y221571D01*
X208902Y221636D01*
X208872Y221693D01*
X208838Y221743D01*
X208800Y221786D01*
X210200D01*
X210162Y221743D01*
D02*
G37*
G36*
X251190Y219482D02*
X251133Y219478D01*
X251074Y219467D01*
X251012Y219448D01*
X250948Y219421D01*
X250882Y219386D01*
X250813Y219343D01*
X250743Y219292D01*
X250670Y219233D01*
X250517Y219092D01*
X249810Y219799D01*
X249885Y219876D01*
X250010Y220024D01*
X250061Y220095D01*
X250104Y220163D01*
X250139Y220230D01*
X250166Y220293D01*
X250185Y220355D01*
X250197Y220415D01*
X250200Y220472D01*
X251190Y219482D01*
D02*
G37*
G36*
X208032Y219053D02*
X207031Y218900D01*
X207029Y219009D01*
X207010Y219196D01*
X206992Y219273D01*
X206970Y219341D01*
X206943Y219398D01*
X206911Y219444D01*
X206875Y219481D01*
X206833Y219507D01*
X206787Y219523D01*
X207957Y220210D01*
X208032Y219053D01*
D02*
G37*
G36*
X190655Y219648D02*
X190670Y219478D01*
X190695Y219328D01*
X190730Y219198D01*
X190775Y219088D01*
X190830Y218998D01*
X190895Y218928D01*
X190970Y218878D01*
X191055Y218848D01*
X191150Y218838D01*
X189150D01*
X189245Y218848D01*
X189330Y218878D01*
X189405Y218928D01*
X189470Y218998D01*
X189525Y219088D01*
X189570Y219198D01*
X189605Y219328D01*
X189630Y219478D01*
X189645Y219648D01*
X189650Y219838D01*
X190650D01*
X190655Y219648D01*
D02*
G37*
G36*
X198838Y217358D02*
X198870Y217273D01*
X198922Y217198D01*
X198994Y217133D01*
X199085Y217078D01*
X199196Y217033D01*
X199327Y216998D01*
X199478Y216973D01*
X199648Y216958D01*
X199838Y216953D01*
Y215953D01*
X199648Y215948D01*
X199478Y215933D01*
X199327Y215908D01*
X199196Y215873D01*
X199085Y215828D01*
X198994Y215773D01*
X198922Y215708D01*
X198870Y215633D01*
X198838Y215548D01*
X198826Y215453D01*
Y217453D01*
X198838Y217358D01*
D02*
G37*
G36*
X191055Y214162D02*
X190970Y214130D01*
X190895Y214078D01*
X190830Y214006D01*
X190775Y213915D01*
X190730Y213804D01*
X190695Y213673D01*
X190670Y213523D01*
X190655Y213352D01*
X190650Y213162D01*
X189650D01*
X189645Y213352D01*
X189630Y213523D01*
X189605Y213673D01*
X189570Y213804D01*
X189525Y213915D01*
X189470Y214006D01*
X189405Y214078D01*
X189330Y214130D01*
X189245Y214162D01*
X189150Y214174D01*
X191150D01*
X191055Y214162D01*
D02*
G37*
G36*
X221780Y211806D02*
X221738Y211844D01*
X221688Y211878D01*
X221631Y211909D01*
X221567Y211935D01*
X221495Y211957D01*
X221416Y211976D01*
X221330Y211990D01*
X221237Y212000D01*
X221029Y212008D01*
X221039Y213008D01*
X221146Y213010D01*
X221340Y213026D01*
X221426Y213039D01*
X221505Y213057D01*
X221576Y213079D01*
X221641Y213105D01*
X221698Y213134D01*
X221748Y213168D01*
X221791Y213206D01*
X221780Y211806D01*
D02*
G37*
G36*
X226020Y217135D02*
X226417Y216870D01*
X226885Y216776D01*
X248718D01*
X249186Y216870D01*
X249583Y217135D01*
X251160Y218712D01*
X251175Y218724D01*
X251212Y218750D01*
X251213Y218751D01*
X251863Y218880D01*
X251967Y218949D01*
X252767Y218522D01*
Y208393D01*
X245428Y201055D01*
Y205708D01*
X236328D01*
Y199608D01*
X243981D01*
X242521Y198147D01*
X242311Y197980D01*
X242046Y197799D01*
X241773Y197644D01*
X241491Y197513D01*
X241199Y197406D01*
X240896Y197323D01*
X240581Y197263D01*
X240314Y197233D01*
X230157D01*
Y200000D01*
X227937D01*
X225716D01*
Y197233D01*
X221984D01*
Y204094D01*
X221984D01*
X221920Y204406D01*
X221920Y204406D01*
Y210882D01*
X222500Y210767D01*
X223163Y210899D01*
X223726Y211274D01*
X224101Y211837D01*
X224233Y212500D01*
X224101Y213163D01*
X223726Y213726D01*
X223163Y214101D01*
X222500Y214233D01*
X221837Y214101D01*
X221300Y213743D01*
X221290Y213741D01*
X221254Y213735D01*
X221213Y213731D01*
X216012D01*
Y213984D01*
X214077D01*
Y214984D01*
X216012D01*
Y215953D01*
X214077D01*
Y216453D01*
X213577D01*
Y217945D01*
X212692D01*
Y219191D01*
X212777Y219276D01*
X223879D01*
X226020Y217135D01*
D02*
G37*
G36*
X201729Y211192D02*
X201780Y211160D01*
X201838Y211132D01*
X201903Y211107D01*
X201975Y211086D01*
X202054Y211069D01*
X202140Y211056D01*
X202334Y211041D01*
X202442Y211039D01*
X202488Y210039D01*
X202380Y210037D01*
X202187Y210020D01*
X202101Y210006D01*
X202023Y209987D01*
X201952Y209963D01*
X201888Y209936D01*
X201832Y209905D01*
X201783Y209869D01*
X201741Y209829D01*
X201686Y211228D01*
X201729Y211192D01*
D02*
G37*
G36*
X215007Y210969D02*
X215028Y210902D01*
X215064Y210827D01*
X215113Y210742D01*
X215177Y210649D01*
X215254Y210547D01*
X215452Y210317D01*
X215707Y210051D01*
X214984Y209360D01*
X214843Y209494D01*
X214701Y209615D01*
X214560Y209721D01*
X214418Y209813D01*
X214277Y209890D01*
X214136Y209954D01*
X213994Y210003D01*
X213853Y210039D01*
X213711Y210060D01*
X213570Y210067D01*
X215000Y211027D01*
X215007Y210969D01*
D02*
G37*
G36*
X193894Y209315D02*
X194043Y209190D01*
X194113Y209139D01*
X194182Y209096D01*
X194248Y209061D01*
X194312Y209034D01*
X194374Y209015D01*
X194433Y209003D01*
X194490Y209000D01*
X193500Y208010D01*
X193497Y208067D01*
X193485Y208126D01*
X193466Y208188D01*
X193439Y208252D01*
X193404Y208318D01*
X193361Y208387D01*
X193310Y208457D01*
X193251Y208530D01*
X193110Y208683D01*
X193817Y209390D01*
X193894Y209315D01*
D02*
G37*
G36*
X211968Y207972D02*
X212961D01*
Y208808D01*
X213528Y209260D01*
X213713Y209338D01*
X213789Y209319D01*
X213871Y209291D01*
X213958Y209251D01*
X214052Y209200D01*
X214151Y209135D01*
X214256Y209057D01*
X214313Y209008D01*
X216186Y207135D01*
X216583Y206870D01*
X217051Y206776D01*
X217643D01*
X218079Y206558D01*
Y204406D01*
X218079D01*
X218143Y204094D01*
X218143Y204094D01*
Y202442D01*
X217706Y202223D01*
X215007D01*
X213365Y203865D01*
X212968Y204130D01*
X212500Y204223D01*
X209654D01*
X209295Y204236D01*
Y206594D01*
X208755D01*
X208752Y206611D01*
X208747Y206668D01*
Y207972D01*
X209000D01*
Y209908D01*
X210000D01*
Y207972D01*
X210968D01*
Y209908D01*
X211968D01*
Y207972D01*
D02*
G37*
G36*
X218792Y207000D02*
X217792Y207500D01*
Y208500D01*
X218792Y209000D01*
Y207000D01*
D02*
G37*
G36*
X161970Y207500D02*
X161537Y207497D01*
X160761Y207445D01*
X160418Y207396D01*
X160105Y207332D01*
X159821Y207252D01*
X159568Y207158D01*
X159345Y207048D01*
X159152Y206923D01*
X158989Y206782D01*
X158282Y207489D01*
X158423Y207652D01*
X158548Y207845D01*
X158658Y208068D01*
X158752Y208321D01*
X158832Y208605D01*
X158896Y208918D01*
X158945Y209261D01*
X158997Y210037D01*
X159000Y210470D01*
X161970Y207500D01*
D02*
G37*
G36*
X208029Y206692D02*
X208044Y206521D01*
X208069Y206371D01*
X208104Y206240D01*
X208149Y206129D01*
X208204Y206037D01*
X208269Y205966D01*
X208344Y205914D01*
X208429Y205882D01*
X208524Y205870D01*
X206524D01*
X206619Y205882D01*
X206704Y205914D01*
X206779Y205966D01*
X206844Y206037D01*
X206899Y206129D01*
X206944Y206240D01*
X206979Y206371D01*
X207004Y206521D01*
X207019Y206692D01*
X207024Y206882D01*
X208024D01*
X208029Y206692D01*
D02*
G37*
G36*
X208593Y203905D02*
X208623Y203820D01*
X208672Y203745D01*
X208742Y203680D01*
X208833Y203625D01*
X208943Y203580D01*
X209072Y203545D01*
X209191Y203525D01*
X209867Y203502D01*
X210240Y203500D01*
Y202500D01*
X209867Y202498D01*
X209025Y202442D01*
X208943Y202420D01*
X208833Y202375D01*
X208742Y202320D01*
X208672Y202255D01*
X208623Y202180D01*
X208593Y202095D01*
X208582Y202000D01*
Y202413D01*
X208362Y202398D01*
X208234Y202367D01*
X208140Y202332D01*
X208081Y202292D01*
Y203708D01*
X208140Y203668D01*
X208234Y203633D01*
X208362Y203602D01*
X208526Y203575D01*
X208582Y203569D01*
Y204000D01*
X208593Y203905D01*
D02*
G37*
G36*
X220936Y205118D02*
X220851Y205086D01*
X220777Y205034D01*
X220711Y204963D01*
X220656Y204871D01*
X220612Y204760D01*
X220577Y204629D01*
X220551Y204479D01*
X220536Y204308D01*
X220535Y204250D01*
X220536Y204192D01*
X220551Y204021D01*
X220577Y203871D01*
X220612Y203740D01*
X220656Y203629D01*
X220711Y203537D01*
X220777Y203466D01*
X220851Y203414D01*
X220936Y203382D01*
X221031Y203370D01*
X219032D01*
X219127Y203382D01*
X219212Y203414D01*
X219286Y203466D01*
X219352Y203537D01*
X219407Y203629D01*
X219451Y203740D01*
X219486Y203871D01*
X219512Y204021D01*
X219527Y204192D01*
X219528Y204250D01*
X219527Y204308D01*
X219512Y204479D01*
X219486Y204629D01*
X219451Y204760D01*
X219407Y204871D01*
X219352Y204963D01*
X219286Y205034D01*
X219212Y205086D01*
X219127Y205118D01*
X219032Y205130D01*
X221031D01*
X220936Y205118D01*
D02*
G37*
G36*
X218854Y200000D02*
X217854Y200500D01*
Y201500D01*
X218854Y202000D01*
Y200000D01*
D02*
G37*
G36*
X164451Y202296D02*
X165036Y201784D01*
X165314Y201576D01*
X165580Y201400D01*
X165837Y201256D01*
X166083Y201144D01*
X166318Y201064D01*
X166543Y201016D01*
X166758Y201000D01*
Y200000D01*
X166543Y199984D01*
X166318Y199936D01*
X166083Y199856D01*
X165837Y199744D01*
X165580Y199600D01*
X165314Y199424D01*
X165036Y199216D01*
X164451Y198704D01*
X164142Y198400D01*
Y202600D01*
X164451Y202296D01*
D02*
G37*
G36*
X208273Y200779D02*
X208315Y200396D01*
X208368Y200118D01*
X208582D01*
X208479Y199686D01*
X208485Y199667D01*
X208612Y199319D01*
X208768Y198984D01*
X208952Y198660D01*
X209164Y198348D01*
X209404Y198047D01*
X209673Y197759D01*
X208673Y195930D01*
X208390Y196185D01*
X208107Y196383D01*
X207824Y196524D01*
X207541Y196609D01*
X207259Y196637D01*
X206976Y196609D01*
X206693Y196524D01*
X206410Y196383D01*
X206127Y196185D01*
X205844Y195930D01*
X204844Y197759D01*
X205113Y198047D01*
X205353Y198348D01*
X205566Y198660D01*
X205750Y198984D01*
X205905Y199319D01*
X206032Y199667D01*
X206131Y200026D01*
X206202Y200396D01*
X206244Y200779D01*
X206259Y201173D01*
X208259D01*
X208273Y200779D01*
D02*
G37*
G36*
X245153Y196914D02*
X244899Y196631D01*
X244701Y196349D01*
X244559Y196066D01*
X244474Y195783D01*
X244446Y195500D01*
X244474Y195217D01*
X244559Y194934D01*
X244701Y194651D01*
X244899Y194369D01*
X245153Y194086D01*
X243325Y193086D01*
X243036Y193354D01*
X242736Y193595D01*
X242423Y193807D01*
X242099Y193991D01*
X241764Y194147D01*
X241417Y194274D01*
X241058Y194373D01*
X240687Y194443D01*
X240305Y194486D01*
X239910Y194500D01*
Y196500D01*
X240305Y196514D01*
X240687Y196557D01*
X241058Y196627D01*
X241417Y196726D01*
X241764Y196853D01*
X242099Y197009D01*
X242423Y197193D01*
X242736Y197405D01*
X243036Y197645D01*
X243325Y197914D01*
X245153Y196914D01*
D02*
G37*
G36*
X181664Y186606D02*
X181537Y186249D01*
X181252Y185887D01*
X180500Y185986D01*
X179598Y185867D01*
X178757Y185519D01*
X178728Y185497D01*
X178700Y185502D01*
X175300D01*
X174832Y185409D01*
X174435Y185144D01*
X174170Y184747D01*
X174132Y184559D01*
X173718Y184282D01*
X173172Y183464D01*
X172980Y182500D01*
X173172Y181536D01*
X173718Y180718D01*
X174079Y180477D01*
X174148Y180195D01*
X173841Y179364D01*
X173718Y179282D01*
X173172Y178464D01*
X172980Y177500D01*
X173172Y176536D01*
X173718Y175718D01*
X173841Y175636D01*
X174148Y174805D01*
X174079Y174523D01*
X173718Y174282D01*
X173172Y173464D01*
X172980Y172500D01*
X173172Y171536D01*
X173718Y170718D01*
X174079Y170477D01*
X174148Y170195D01*
X173841Y169364D01*
X173718Y169282D01*
X173172Y168464D01*
X172980Y167500D01*
X173172Y166536D01*
X173718Y165718D01*
X173841Y165636D01*
X174148Y164805D01*
X174079Y164523D01*
X173718Y164282D01*
X173172Y163464D01*
X172980Y162500D01*
X173172Y161536D01*
X173718Y160718D01*
X174079Y160477D01*
X174148Y160195D01*
X173841Y159364D01*
X173718Y159282D01*
X173172Y158464D01*
X172980Y157500D01*
X173172Y156536D01*
X173718Y155718D01*
X173841Y155636D01*
X174148Y154805D01*
X174079Y154523D01*
X173718Y154282D01*
X173172Y153464D01*
X172980Y152500D01*
X173172Y151536D01*
X173718Y150718D01*
X174132Y150441D01*
X174170Y150253D01*
X174435Y149856D01*
X174832Y149591D01*
X175300Y149498D01*
X177086D01*
X177181Y149493D01*
X179423Y149178D01*
X179553Y149152D01*
X179598Y149133D01*
X179733Y149115D01*
X179797Y149102D01*
X179888Y149023D01*
X179759Y148482D01*
X179576Y148223D01*
X173292D01*
X173224Y148325D01*
X172662Y148700D01*
X171999Y148832D01*
X171335Y148700D01*
X170773Y148325D01*
X170397Y147762D01*
X170265Y147099D01*
X170397Y146436D01*
X170773Y145873D01*
X171335Y145498D01*
X171999Y145366D01*
X172662Y145498D01*
X173079Y145776D01*
X173969D01*
X174122Y145569D01*
X174323Y144976D01*
X174170Y144747D01*
X174132Y144559D01*
X173718Y144282D01*
X173172Y143464D01*
X172980Y142500D01*
X173172Y141536D01*
X173718Y140718D01*
X173727Y140455D01*
X173160Y139724D01*
X171227D01*
X171226Y139726D01*
X170663Y140101D01*
X170000Y140233D01*
X169337Y140101D01*
X168900Y139810D01*
X168889Y139813D01*
X168889Y139813D01*
X168420Y139952D01*
X168100Y140156D01*
X168100Y140501D01*
Y145200D01*
X164069D01*
X164068Y145201D01*
X164059Y145206D01*
X164033Y145234D01*
X163990Y145307D01*
X163938Y145434D01*
X163888Y145618D01*
X163848Y145858D01*
X163833Y146030D01*
Y147400D01*
X163833Y147400D01*
X163701Y148063D01*
X163326Y148626D01*
X159733Y152218D01*
Y154714D01*
X159895Y155906D01*
X159984Y155906D01*
X159985Y156618D01*
X159984Y156627D01*
X159984Y156706D01*
Y162294D01*
X159984Y162373D01*
X159985Y162382D01*
X159984Y163094D01*
X159796Y163874D01*
Y175234D01*
X160627Y176065D01*
X160715Y176135D01*
X160896Y176262D01*
X161089Y176377D01*
X161292Y176480D01*
X161507Y176572D01*
X161735Y176652D01*
X161976Y176720D01*
X162230Y176776D01*
X162517Y176823D01*
X162573Y176844D01*
X162966Y176895D01*
X163866Y177268D01*
X164639Y177861D01*
X165232Y178634D01*
X165605Y179534D01*
X165732Y180500D01*
X165605Y181466D01*
X165232Y182366D01*
X164639Y183139D01*
X164199Y183476D01*
X164471Y184276D01*
X168980D01*
X169448Y184370D01*
X169845Y184635D01*
X172487Y187276D01*
X180993D01*
X181664Y186606D01*
D02*
G37*
G36*
X253510Y182958D02*
X253540Y182617D01*
X253590Y182317D01*
X253660Y182056D01*
X253750Y181835D01*
X253860Y181654D01*
X253990Y181512D01*
X254140Y181410D01*
X254310Y181348D01*
X254500Y181326D01*
X250500D01*
X250690Y181348D01*
X250860Y181410D01*
X251010Y181512D01*
X251140Y181654D01*
X251250Y181835D01*
X251340Y182056D01*
X251410Y182317D01*
X251460Y182617D01*
X251490Y182958D01*
X251500Y183338D01*
X253500D01*
X253510Y182958D01*
D02*
G37*
G36*
X245700Y180721D02*
X242300D01*
Y184279D01*
X245700D01*
Y180721D01*
D02*
G37*
G36*
X178700D02*
X175300D01*
Y184279D01*
X178700D01*
Y180721D01*
D02*
G37*
G36*
X159639Y184291D02*
X159854Y184122D01*
X160081Y183974D01*
X160318Y183845D01*
X160566Y183737D01*
X160825Y183649D01*
X161095Y183582D01*
X161376Y183534D01*
X161667Y183507D01*
X161970Y183500D01*
X159000Y180530D01*
X158993Y180833D01*
X158966Y181124D01*
X158918Y181405D01*
X158851Y181675D01*
X158763Y181934D01*
X158655Y182182D01*
X158526Y182419D01*
X158378Y182646D01*
X158209Y182861D01*
X158020Y183066D01*
X159434Y184480D01*
X159639Y184291D01*
D02*
G37*
G36*
X200335Y167935D02*
X200732Y167670D01*
X201200Y167577D01*
X210693D01*
X221635Y156635D01*
X222032Y156370D01*
X222500Y156277D01*
X238247D01*
X238705Y155563D01*
X238702Y155476D01*
X238035Y154965D01*
X237481Y154243D01*
X237133Y153402D01*
X237014Y152500D01*
X237028Y152395D01*
X237011Y151768D01*
X236982Y151476D01*
X236942Y151208D01*
X236891Y150972D01*
X236832Y150769D01*
X236765Y150599D01*
X236696Y150461D01*
X236626Y150357D01*
X234493Y148223D01*
X180623D01*
X180570Y149023D01*
X181402Y149133D01*
X182243Y149481D01*
X182965Y150035D01*
X183519Y150757D01*
X183867Y151598D01*
X183986Y152500D01*
X183867Y153402D01*
X183519Y154243D01*
X182965Y154965D01*
X182243Y155519D01*
X181402Y155867D01*
X180500Y155986D01*
X179872Y155903D01*
X179839Y155905D01*
X179825Y155900D01*
X179811Y155900D01*
X179470Y156182D01*
X179403Y156268D01*
X179255Y156571D01*
X179285Y156679D01*
X179324Y156783D01*
X179405Y157294D01*
X179403Y157350D01*
X179414Y157405D01*
Y157610D01*
X179392Y157720D01*
X179379Y157831D01*
X179193Y158402D01*
X179247Y158584D01*
X179307Y158695D01*
X179618Y159002D01*
X179747Y159095D01*
X179774Y159107D01*
X179797Y159102D01*
X179819Y159102D01*
X179839Y159095D01*
X179872Y159097D01*
X180500Y159014D01*
X181402Y159133D01*
X182243Y159481D01*
X182965Y160035D01*
X183519Y160757D01*
X183867Y161598D01*
X183986Y162500D01*
X183867Y163402D01*
X183519Y164243D01*
X182965Y164965D01*
X182243Y165519D01*
X181402Y165867D01*
X180500Y165986D01*
X179872Y165903D01*
X179839Y165905D01*
X179825Y165900D01*
X179811Y165900D01*
X179470Y166182D01*
X179403Y166268D01*
X179255Y166571D01*
X179285Y166679D01*
X179324Y166783D01*
X179405Y167294D01*
X179403Y167350D01*
X179414Y167405D01*
Y167610D01*
X179392Y167720D01*
X179379Y167831D01*
X179193Y168402D01*
X179247Y168584D01*
X179307Y168695D01*
X179618Y169002D01*
X179747Y169095D01*
X179774Y169107D01*
X179797Y169102D01*
X179819Y169102D01*
X179839Y169095D01*
X179872Y169097D01*
X180500Y169014D01*
X181402Y169133D01*
X182243Y169481D01*
X182965Y170035D01*
X183519Y170757D01*
X183867Y171598D01*
X183986Y172500D01*
X183867Y173402D01*
X183519Y174243D01*
X182965Y174965D01*
X182243Y175519D01*
X181402Y175867D01*
X180500Y175986D01*
X179872Y175903D01*
X179839Y175905D01*
X179825Y175900D01*
X179811Y175900D01*
X179470Y176182D01*
X179403Y176268D01*
X179255Y176571D01*
X179285Y176679D01*
X179324Y176784D01*
X179405Y177294D01*
X179403Y177350D01*
X179414Y177406D01*
Y177610D01*
X179392Y177720D01*
X179379Y177831D01*
X179181Y178440D01*
X179357Y178733D01*
X179752Y179100D01*
X179774Y179110D01*
X180500Y179014D01*
X181402Y179133D01*
X182243Y179481D01*
X182965Y180035D01*
X183519Y180757D01*
X183867Y181598D01*
X183986Y182500D01*
X183887Y183252D01*
X184249Y183537D01*
X184606Y183664D01*
X200335Y167935D01*
D02*
G37*
G36*
X254846Y180513D02*
X254902Y180380D01*
X254993Y180262D01*
X255119Y180161D01*
X255281Y180075D01*
X255478Y180004D01*
X255711Y179949D01*
X255979Y179910D01*
X256282Y179886D01*
X256621Y179879D01*
Y177879D01*
X256282Y177874D01*
X255712Y177832D01*
X255480Y177796D01*
X255284Y177750D01*
X255123Y177693D01*
X254998Y177626D01*
X254909Y177548D01*
X254856Y177460D01*
X254838Y177362D01*
X254826Y180662D01*
X254846Y180513D01*
D02*
G37*
G36*
X162402Y177527D02*
X162096Y177477D01*
X161802Y177412D01*
X161519Y177332D01*
X161249Y177237D01*
X160990Y177127D01*
X160743Y177002D01*
X160509Y176862D01*
X160286Y176706D01*
X160075Y176536D01*
X159876Y176350D01*
X158243Y177546D01*
X158435Y177755D01*
X158601Y177972D01*
X158743Y178199D01*
X158860Y178435D01*
X158952Y178680D01*
X159019Y178934D01*
X159061Y179196D01*
X159077Y179468D01*
X159069Y179748D01*
X159036Y180038D01*
X162402Y177527D01*
D02*
G37*
G36*
X245700Y175721D02*
X243984D01*
X243474Y175802D01*
X242999Y176044D01*
X242611Y176432D01*
X242300Y177390D01*
Y177594D01*
X242381Y178105D01*
X242623Y178579D01*
X243011Y178968D01*
X243968Y179279D01*
X245700D01*
Y175721D01*
D02*
G37*
G36*
X177526Y179198D02*
X178001Y178956D01*
X178389Y178568D01*
X178700Y177610D01*
Y177406D01*
X178619Y176895D01*
X178377Y176421D01*
X177989Y176032D01*
X177032Y175721D01*
X175300D01*
Y179279D01*
X177016D01*
X177526Y179198D01*
D02*
G37*
G36*
X250162Y171500D02*
X249162Y172000D01*
Y173000D01*
X250162Y173500D01*
Y171500D01*
D02*
G37*
G36*
X246911Y173600D02*
X247057Y173474D01*
X247205Y173363D01*
X247353Y173266D01*
X247502Y173185D01*
X247653Y173118D01*
X247804Y173067D01*
X247956Y173030D01*
X248109Y173007D01*
X248263Y173000D01*
Y172000D01*
X248109Y171993D01*
X247956Y171970D01*
X247804Y171933D01*
X247653Y171882D01*
X247502Y171815D01*
X247353Y171733D01*
X247205Y171637D01*
X247057Y171526D01*
X246911Y171400D01*
X246765Y171260D01*
Y173740D01*
X246911Y173600D01*
D02*
G37*
G36*
X238532Y170571D02*
X238256Y170842D01*
X237728Y171300D01*
X237476Y171485D01*
X237233Y171643D01*
X236997Y171771D01*
X236770Y171871D01*
X236550Y171943D01*
X236339Y171986D01*
X236136Y172000D01*
Y173000D01*
X236339Y173014D01*
X236550Y173057D01*
X236770Y173129D01*
X236997Y173229D01*
X237233Y173357D01*
X237476Y173514D01*
X237728Y173700D01*
X237988Y173915D01*
X238532Y174429D01*
Y170571D01*
D02*
G37*
G36*
X261357Y171958D02*
X261387Y171617D01*
X261437Y171317D01*
X261507Y171056D01*
X261597Y170835D01*
X261707Y170654D01*
X261837Y170512D01*
X261987Y170410D01*
X262157Y170348D01*
X262347Y170326D01*
X258347D01*
X258537Y170348D01*
X258707Y170410D01*
X258857Y170512D01*
X258987Y170654D01*
X259097Y170835D01*
X259187Y171056D01*
X259257Y171317D01*
X259307Y171617D01*
X259337Y171958D01*
X259347Y172338D01*
X261347D01*
X261357Y171958D01*
D02*
G37*
G36*
X204246Y170024D02*
X201707D01*
X182365Y189365D01*
X181968Y189630D01*
X181500Y189724D01*
X171980D01*
X171512Y189630D01*
X171115Y189365D01*
X168473Y186723D01*
X164963D01*
X164692Y187523D01*
X164853Y187647D01*
X165494Y188483D01*
X165897Y189456D01*
X165969Y190000D01*
X162000D01*
Y191000D01*
X165969D01*
X165897Y191544D01*
X165494Y192517D01*
X164853Y193353D01*
X164692Y193476D01*
X164963Y194276D01*
X179993D01*
X204246Y170024D01*
D02*
G37*
G36*
X241456Y175118D02*
X243752Y174795D01*
X244014Y174783D01*
X244259Y174779D01*
X244427Y174279D01*
X245700D01*
Y170721D01*
X244427D01*
X244259Y170221D01*
X244014Y170217D01*
X243180Y170154D01*
X242540Y170070D01*
X241061Y169802D01*
X242300Y171445D01*
Y173555D01*
X241061Y175198D01*
X241456Y175118D01*
D02*
G37*
G36*
X178700Y173555D02*
Y171445D01*
X179938Y169802D01*
X179544Y169882D01*
X177248Y170204D01*
X176986Y170217D01*
X176741Y170221D01*
X176573Y170721D01*
X175300D01*
Y174279D01*
X176573D01*
X176741Y174779D01*
X176986Y174783D01*
X177820Y174846D01*
X178460Y174930D01*
X179938Y175198D01*
X178700Y173555D01*
D02*
G37*
G36*
X245700Y165721D02*
X243984D01*
X243474Y165802D01*
X242999Y166044D01*
X242611Y166432D01*
X242300Y167390D01*
Y167595D01*
X242381Y168105D01*
X242623Y168579D01*
X243011Y168968D01*
X243968Y169279D01*
X245700D01*
Y165721D01*
D02*
G37*
G36*
X177526Y169198D02*
X178001Y168956D01*
X178389Y168568D01*
X178700Y167610D01*
Y167405D01*
X178619Y166895D01*
X178377Y166421D01*
X177989Y166032D01*
X177032Y165721D01*
X175300D01*
Y169279D01*
X177016D01*
X177526Y169198D01*
D02*
G37*
G36*
X237922Y165806D02*
X238101Y165687D01*
X238307Y165582D01*
X238538Y165492D01*
X238796Y165417D01*
X239079Y165356D01*
X239389Y165309D01*
X239724Y165277D01*
X240472Y165256D01*
X237744Y162528D01*
X237741Y162915D01*
X237691Y163611D01*
X237645Y163921D01*
X237583Y164204D01*
X237508Y164462D01*
X237418Y164693D01*
X237313Y164899D01*
X237194Y165078D01*
X237061Y165232D01*
X237768Y165939D01*
X237922Y165806D01*
D02*
G37*
G36*
X159065Y164002D02*
X159165Y162562D01*
X159196Y162462D01*
X159232Y162402D01*
X159272Y162382D01*
X156854D01*
X156894Y162402D01*
X156930Y162462D01*
X156961Y162562D01*
X156988Y162702D01*
X157011Y162882D01*
X157044Y163362D01*
X157063Y164382D01*
X159063D01*
X159065Y164002D01*
D02*
G37*
G36*
X258162Y161500D02*
X257162Y162000D01*
Y163000D01*
X258162Y163500D01*
Y161500D01*
D02*
G37*
G36*
X246911Y163600D02*
X247057Y163474D01*
X247205Y163363D01*
X247353Y163267D01*
X247502Y163185D01*
X247653Y163118D01*
X247804Y163067D01*
X247956Y163030D01*
X248109Y163007D01*
X248263Y163000D01*
Y162000D01*
X248109Y161993D01*
X247956Y161970D01*
X247804Y161933D01*
X247653Y161882D01*
X247502Y161815D01*
X247353Y161733D01*
X247205Y161637D01*
X247057Y161526D01*
X246911Y161400D01*
X246765Y161260D01*
Y163740D01*
X246911Y163600D01*
D02*
G37*
G36*
X241456Y165118D02*
X243752Y164795D01*
X244014Y164783D01*
X244259Y164779D01*
X244427Y164279D01*
X245700D01*
Y160721D01*
X244427D01*
X244259Y160221D01*
X244014Y160217D01*
X243180Y160154D01*
X242540Y160070D01*
X241061Y159802D01*
X242300Y161445D01*
Y163555D01*
X241061Y165198D01*
X241456Y165118D01*
D02*
G37*
G36*
X178700Y163555D02*
Y161445D01*
X179938Y159802D01*
X179544Y159882D01*
X177248Y160205D01*
X176986Y160217D01*
X176741Y160221D01*
X176573Y160721D01*
X175300D01*
Y164279D01*
X176573D01*
X176741Y164779D01*
X176986Y164783D01*
X177820Y164846D01*
X178460Y164930D01*
X179938Y165198D01*
X178700Y163555D01*
D02*
G37*
G36*
X245700Y155721D02*
X243984D01*
X243474Y155802D01*
X242999Y156044D01*
X242611Y156432D01*
X242300Y157390D01*
Y157595D01*
X242381Y158105D01*
X242623Y158579D01*
X243011Y158968D01*
X243968Y159279D01*
X245700D01*
Y155721D01*
D02*
G37*
G36*
X177526Y159198D02*
X178001Y158956D01*
X178389Y158568D01*
X178700Y157610D01*
Y157405D01*
X178619Y156895D01*
X178377Y156421D01*
X177989Y156032D01*
X177032Y155721D01*
X175300D01*
Y159279D01*
X177016D01*
X177526Y159198D01*
D02*
G37*
G36*
X159000Y154618D02*
X157000D01*
X156854Y156618D01*
X159272D01*
X159000Y154618D01*
D02*
G37*
G36*
X241456Y155118D02*
X243752Y154796D01*
X244014Y154783D01*
X244259Y154779D01*
X244427Y154279D01*
X245700D01*
Y150721D01*
X244427D01*
X244259Y150221D01*
X244014Y150217D01*
X243180Y150154D01*
X242540Y150070D01*
X241061Y149802D01*
X242300Y151445D01*
Y153555D01*
X241061Y155198D01*
X241456Y155118D01*
D02*
G37*
G36*
X178700Y153555D02*
Y151445D01*
X179938Y149802D01*
X179544Y149882D01*
X177248Y150205D01*
X176986Y150217D01*
X176741Y150221D01*
X176573Y150721D01*
X175300D01*
Y154279D01*
X176573D01*
X176741Y154779D01*
X176986Y154783D01*
X177820Y154846D01*
X178460Y154930D01*
X179938Y155198D01*
X178700Y153555D01*
D02*
G37*
G36*
X240472Y149744D02*
X240085Y149741D01*
X239389Y149691D01*
X239079Y149644D01*
X238796Y149583D01*
X238538Y149508D01*
X238307Y149418D01*
X238101Y149313D01*
X237922Y149194D01*
X237768Y149061D01*
X237061Y149768D01*
X237194Y149922D01*
X237313Y150101D01*
X237418Y150307D01*
X237508Y150538D01*
X237583Y150796D01*
X237645Y151079D01*
X237691Y151389D01*
X237723Y151724D01*
X237744Y152472D01*
X240472Y149744D01*
D02*
G37*
G36*
X245700Y145721D02*
X243984D01*
X243474Y145802D01*
X242999Y146044D01*
X242611Y146432D01*
X242300Y147390D01*
Y147594D01*
X242381Y148105D01*
X242623Y148579D01*
X243011Y148968D01*
X243968Y149279D01*
X245700D01*
Y145721D01*
D02*
G37*
G36*
X163110Y146108D02*
X163140Y145767D01*
X163190Y145467D01*
X163260Y145206D01*
X163350Y144985D01*
X163460Y144804D01*
X163590Y144662D01*
X163740Y144560D01*
X163910Y144498D01*
X164100Y144476D01*
X160100D01*
X160290Y144498D01*
X160460Y144560D01*
X160610Y144662D01*
X160740Y144804D01*
X160850Y144985D01*
X160940Y145206D01*
X161010Y145467D01*
X161060Y145767D01*
X161090Y146108D01*
X161100Y146488D01*
X163100D01*
X163110Y146108D01*
D02*
G37*
G36*
X178700Y140721D02*
X175300D01*
Y144279D01*
X178700D01*
Y140721D01*
D02*
G37*
G36*
X241456Y145118D02*
X243752Y144796D01*
X244014Y144783D01*
X244259Y144779D01*
X244427Y144279D01*
X245700D01*
Y140721D01*
X244427D01*
X244259Y140221D01*
X244014Y140217D01*
X243180Y140154D01*
X242540Y140070D01*
X241061Y139802D01*
X242300Y141445D01*
Y143555D01*
X241061Y145198D01*
X241456Y145118D01*
D02*
G37*
G36*
X256010Y138458D02*
X256040Y138118D01*
X256090Y137817D01*
X256160Y137556D01*
X256250Y137335D01*
X256360Y137154D01*
X256490Y137012D01*
X256640Y136910D01*
X256810Y136848D01*
X257000Y136826D01*
X253000D01*
X253190Y136848D01*
X253360Y136910D01*
X253510Y137012D01*
X253640Y137154D01*
X253750Y137335D01*
X253840Y137556D01*
X253910Y137817D01*
X253960Y138118D01*
X253990Y138458D01*
X254000Y138838D01*
X256000D01*
X256010Y138458D01*
D02*
G37*
G36*
X245700Y135721D02*
X243984D01*
X243474Y135802D01*
X242999Y136044D01*
X242611Y136432D01*
X242300Y137390D01*
Y137594D01*
X242381Y138105D01*
X242623Y138579D01*
X243011Y138968D01*
X243968Y139279D01*
X245700D01*
Y135721D01*
D02*
G37*
G36*
X257343Y135478D02*
X257390Y135396D01*
X257466Y135322D01*
X257572Y135259D01*
X257707Y135205D01*
X257872Y135161D01*
X258066Y135127D01*
X258290Y135103D01*
X258826Y135083D01*
Y133083D01*
X258543Y133081D01*
X257710Y133028D01*
X257576Y133004D01*
X257472Y132975D01*
X257398Y132942D01*
X257353Y132904D01*
X257338Y132862D01*
X257326Y135571D01*
X257343Y135478D01*
D02*
G37*
G36*
X241456Y135118D02*
X243752Y134795D01*
X244014Y134783D01*
X244259Y134779D01*
X244427Y134279D01*
X245700D01*
Y130721D01*
X244427D01*
X244259Y130221D01*
X244014Y130217D01*
X243180Y130154D01*
X242540Y130070D01*
X241061Y129802D01*
X242300Y131445D01*
Y133555D01*
X241061Y135198D01*
X241456Y135118D01*
D02*
G37*
G36*
X252662Y126500D02*
X251662Y127000D01*
Y128000D01*
X252662Y128500D01*
Y126500D01*
D02*
G37*
G36*
X246911Y128600D02*
X247057Y128474D01*
X247205Y128363D01*
X247353Y128267D01*
X247502Y128185D01*
X247653Y128118D01*
X247804Y128067D01*
X247956Y128030D01*
X248109Y128007D01*
X248263Y128000D01*
Y127000D01*
X248109Y126993D01*
X247956Y126970D01*
X247804Y126933D01*
X247653Y126882D01*
X247502Y126815D01*
X247353Y126734D01*
X247205Y126637D01*
X247057Y126526D01*
X246911Y126400D01*
X246765Y126260D01*
Y128740D01*
X246911Y128600D01*
D02*
G37*
G36*
X245700Y125721D02*
X243984D01*
X243474Y125802D01*
X242999Y126044D01*
X242611Y126432D01*
X242300Y127390D01*
Y127594D01*
X242381Y128105D01*
X242623Y128579D01*
X243011Y128968D01*
X243968Y129279D01*
X245700D01*
Y125721D01*
D02*
G37*
G36*
X246911Y123600D02*
X247057Y123474D01*
X247205Y123363D01*
X247353Y123266D01*
X247502Y123185D01*
X247653Y123118D01*
X247804Y123067D01*
X247956Y123030D01*
X248109Y123007D01*
X248263Y123000D01*
Y122000D01*
X248109Y121993D01*
X247956Y121970D01*
X247804Y121933D01*
X247653Y121882D01*
X247502Y121815D01*
X247353Y121733D01*
X247205Y121637D01*
X247057Y121526D01*
X246911Y121400D01*
X246765Y121260D01*
Y123740D01*
X246911Y123600D01*
D02*
G37*
G36*
X252802Y122411D02*
X253078Y122183D01*
X253213Y122091D01*
X253346Y122012D01*
X253478Y121947D01*
X253608Y121896D01*
X253736Y121859D01*
X253862Y121835D01*
X253986Y121826D01*
X252674Y120514D01*
X252665Y120638D01*
X252641Y120764D01*
X252604Y120892D01*
X252553Y121022D01*
X252488Y121153D01*
X252409Y121287D01*
X252317Y121422D01*
X252210Y121559D01*
X252089Y121697D01*
X251955Y121838D01*
X252662Y122545D01*
X252802Y122411D01*
D02*
G37*
G36*
X167418Y124395D02*
X167508Y124312D01*
X167658Y124239D01*
X167868Y124176D01*
X168138Y124122D01*
X168468Y124078D01*
X169308Y124020D01*
X170388Y124000D01*
Y121000D01*
X169818Y120995D01*
X168138Y120878D01*
X167868Y120824D01*
X167658Y120761D01*
X167508Y120688D01*
X167418Y120605D01*
X167388Y120512D01*
Y124488D01*
X167418Y124395D01*
D02*
G37*
G36*
X157236Y126206D02*
X157660Y125845D01*
X158085Y125526D01*
X158509Y125250D01*
X158933Y125015D01*
X159358Y124823D01*
X159782Y124673D01*
X160206Y124565D01*
X160630Y124499D01*
X161055Y124476D01*
X156812Y120512D01*
X156791Y120886D01*
X156727Y121265D01*
X156621Y121649D01*
X156473Y122038D01*
X156282Y122433D01*
X156048Y122834D01*
X155773Y123239D01*
X155454Y123650D01*
X155094Y124066D01*
X154691Y124488D01*
X156812Y126609D01*
X157236Y126206D01*
D02*
G37*
G36*
X241456Y125118D02*
X243752Y124795D01*
X244014Y124783D01*
X244259Y124779D01*
X244427Y124279D01*
X245700D01*
Y120721D01*
X244427D01*
X244259Y120221D01*
X244014Y120217D01*
X243180Y120154D01*
X242540Y120070D01*
X241061Y119802D01*
X242300Y121445D01*
Y123555D01*
X241061Y125198D01*
X241456Y125118D01*
D02*
G37*
G36*
X178700Y123555D02*
Y121445D01*
X179938Y119802D01*
X179544Y119882D01*
X177248Y120204D01*
X176986Y120217D01*
X176741Y120221D01*
X176573Y120721D01*
X174800D01*
X174141Y121547D01*
X175300D01*
Y123453D01*
X174141D01*
X174800Y124279D01*
X176573D01*
X176741Y124779D01*
X176986Y124783D01*
X177820Y124846D01*
X178460Y124930D01*
X179938Y125198D01*
X178700Y123555D01*
D02*
G37*
G36*
X164778Y120492D02*
X164523Y120400D01*
X164298Y120248D01*
X164103Y120036D01*
X163938Y119765D01*
X163803Y119434D01*
X163698Y119043D01*
X163623Y118593D01*
X163578Y118082D01*
X163563Y117512D01*
X160563D01*
X160548Y118082D01*
X160503Y118593D01*
X160428Y119043D01*
X160323Y119434D01*
X160188Y119765D01*
X160023Y120036D01*
X159828Y120248D01*
X159603Y120400D01*
X159348Y120492D01*
X159063Y120524D01*
X165063D01*
X164778Y120492D01*
D02*
G37*
G36*
X257355Y114536D02*
X257404Y114424D01*
X257488Y114324D01*
X257604Y114238D01*
X257753Y114165D01*
X257936Y114106D01*
X258152Y114060D01*
X258402Y114026D01*
X258684Y114007D01*
X259000Y114000D01*
Y112000D01*
X258684Y111993D01*
X258152Y111940D01*
X257936Y111894D01*
X257753Y111835D01*
X257604Y111762D01*
X257488Y111676D01*
X257404Y111576D01*
X257355Y111464D01*
X257338Y111338D01*
Y114662D01*
X257355Y114536D01*
D02*
G37*
%LPC*%
G36*
X216012Y217945D02*
X214577D01*
Y216953D01*
X216012D01*
Y217945D01*
D02*
G37*
G36*
X245428Y215550D02*
X236328D01*
Y209450D01*
X245428D01*
Y215550D01*
D02*
G37*
G36*
X230095Y211894D02*
X228374D01*
Y208500D01*
X230095D01*
Y211894D01*
D02*
G37*
G36*
X227374D02*
X225654D01*
Y208500D01*
X227374D01*
Y211894D01*
D02*
G37*
G36*
X230095Y207500D02*
X227874D01*
X225654D01*
Y204106D01*
X225716D01*
Y201000D01*
X227937D01*
X230157D01*
Y204394D01*
X230095D01*
Y207500D01*
D02*
G37*
%LPD*%
G36*
X228907Y205118D02*
X229082D01*
X228977Y203929D01*
X228992Y203702D01*
X229023Y203562D01*
X229059Y203462D01*
X229100Y203402D01*
X229146Y203382D01*
X228929D01*
X228906Y203118D01*
X226905D01*
X226874Y203382D01*
X226729D01*
X226762Y203402D01*
X226792Y203462D01*
X226819Y203562D01*
X226838Y203680D01*
X226665Y205118D01*
X226903D01*
X226905Y205382D01*
X228906D01*
X228907Y205118D01*
D02*
G37*
%LPC*%
G36*
X168157Y163394D02*
X166437D01*
Y160000D01*
X168157D01*
Y163394D01*
D02*
G37*
G36*
X165437D02*
X163716D01*
Y160000D01*
X165437D01*
Y163394D01*
D02*
G37*
G36*
X168157Y159000D02*
X166437D01*
Y155606D01*
X168157D01*
Y159000D01*
D02*
G37*
G36*
X165437D02*
X163716D01*
Y155606D01*
X165437D01*
Y159000D01*
D02*
G37*
G36*
X207000Y163469D02*
Y160000D01*
X210469D01*
X210397Y160544D01*
X209994Y161517D01*
X209353Y162353D01*
X208517Y162994D01*
X207544Y163397D01*
X207000Y163469D01*
D02*
G37*
G36*
X206000D02*
X205456Y163397D01*
X204483Y162994D01*
X203647Y162353D01*
X203006Y161517D01*
X202603Y160544D01*
X202531Y160000D01*
X206000D01*
Y163469D01*
D02*
G37*
G36*
X210469Y159000D02*
X207000D01*
Y155531D01*
X207544Y155603D01*
X208517Y156006D01*
X209353Y156647D01*
X209994Y157483D01*
X210397Y158456D01*
X210469Y159000D01*
D02*
G37*
G36*
X206000D02*
X202531D01*
X202603Y158456D01*
X203006Y157483D01*
X203647Y156647D01*
X204483Y156006D01*
X205456Y155603D01*
X206000Y155531D01*
Y159000D01*
D02*
G37*
%LPD*%
G36*
X264132Y226301D02*
X264162Y225960D01*
X264212Y225660D01*
X264282Y225400D01*
X264372Y225181D01*
X264482Y225001D01*
X264612Y224861D01*
X264762Y224761D01*
X264932Y224700D01*
X265122Y224680D01*
X261122D01*
X261312Y224700D01*
X261482Y224761D01*
X261632Y224861D01*
X261762Y225001D01*
X261872Y225181D01*
X261962Y225400D01*
X262032Y225660D01*
X262082Y225960D01*
X262112Y226301D01*
X262122Y226680D01*
X264122D01*
X264132Y226301D01*
D02*
G37*
G36*
X263662Y216743D02*
X263628Y216693D01*
X263598Y216636D01*
X263572Y216571D01*
X263550Y216500D01*
X263532Y216421D01*
X263518Y216335D01*
X263508Y216242D01*
X263500Y216034D01*
X262500D01*
X262498Y216142D01*
X262482Y216335D01*
X262468Y216421D01*
X262450Y216500D01*
X262428Y216571D01*
X262402Y216636D01*
X262372Y216693D01*
X262338Y216743D01*
X262300Y216786D01*
X263700D01*
X263662Y216743D01*
D02*
G37*
G36*
X263505Y215648D02*
X263520Y215478D01*
X263545Y215328D01*
X263580Y215198D01*
X263625Y215088D01*
X263680Y214998D01*
X263745Y214928D01*
X263820Y214878D01*
X263905Y214848D01*
X264000Y214838D01*
X262000D01*
X262095Y214848D01*
X262180Y214878D01*
X262255Y214928D01*
X262320Y214998D01*
X262375Y215088D01*
X262420Y215198D01*
X262455Y215328D01*
X262480Y215478D01*
X262495Y215648D01*
X262500Y215838D01*
X263500D01*
X263505Y215648D01*
D02*
G37*
G36*
X264932Y200309D02*
X264762Y200247D01*
X264612Y200145D01*
X264482Y200004D01*
X264372Y199822D01*
X264282Y199601D01*
X264212Y199341D01*
X264162Y199040D01*
X264132Y198700D01*
X264122Y198319D01*
X262122D01*
X262112Y198700D01*
X262082Y199040D01*
X262032Y199341D01*
X261962Y199601D01*
X261872Y199822D01*
X261762Y200004D01*
X261632Y200145D01*
X261482Y200247D01*
X261312Y200309D01*
X261122Y200331D01*
X265122D01*
X264932Y200309D01*
D02*
G37*
D12*
X113000Y250450D02*
X113200Y250250D01*
X115247D01*
X116450Y249047D01*
Y242450D02*
Y249047D01*
X113000Y239000D02*
X116450Y242450D01*
X236303Y237550D02*
X236503Y237350D01*
X160053Y215200D02*
X175300D01*
X236503Y235765D02*
Y237915D01*
X194000Y196500D02*
X205000D01*
X236303Y237550D02*
Y238115D01*
X255000Y113150D02*
X256000Y114150D01*
X175300Y215200D02*
X194000Y196500D01*
X152800Y207947D02*
X160053Y215200D01*
X152800Y189700D02*
Y207947D01*
Y189700D02*
X162000Y180500D01*
X236303Y238115D02*
X236503Y237915D01*
X242325Y195500D02*
X252500Y185325D01*
Y179350D02*
Y185325D01*
X210517Y195500D02*
X242325D01*
X254500Y207675D01*
X263000Y196000D02*
X263122Y196122D01*
Y202658D01*
Y228122D02*
X265000Y230000D01*
X263122Y222342D02*
Y228122D01*
X239332Y237350D02*
X254500Y222182D01*
Y207675D02*
Y222182D01*
X236503Y237350D02*
X239332D01*
X259000Y113000D02*
X261500Y115500D01*
X255150Y113000D02*
X259000D01*
X255000Y113150D02*
X255150Y113000D01*
X261500Y115500D02*
Y131409D01*
X255767Y134083D02*
X258826D01*
X261500Y131409D01*
X255000Y134850D02*
X255767Y134083D01*
X255000Y134850D02*
Y139000D01*
X265000Y149000D02*
Y167328D01*
X255000Y139000D02*
X265000Y149000D01*
X263828Y168500D02*
X265000Y167328D01*
X260650Y168500D02*
X263828D01*
X260500Y168350D02*
X260650Y168500D01*
X227906Y201031D02*
X227937Y201000D01*
X227906Y201031D02*
Y207968D01*
X227874Y208000D02*
X227906Y207968D01*
X256621Y178879D02*
X260347Y175153D01*
X252500Y179350D02*
X252971Y178879D01*
X256621D01*
X260347Y168503D02*
Y175153D01*
X207259Y198759D02*
X210517Y195500D01*
X207259Y198759D02*
Y202885D01*
X207374Y203000D01*
X205000Y196500D02*
X207259Y198759D01*
X162000Y179889D02*
Y180500D01*
X158063Y175952D02*
X162000Y179889D01*
X158063Y159500D02*
Y175952D01*
X158000Y159437D02*
X158063Y159500D01*
X158000Y151500D02*
Y159437D01*
Y151500D02*
X162100Y147400D01*
Y142500D02*
Y147400D01*
D19*
X151500Y250650D02*
D03*
Y244350D02*
D03*
X107000Y250650D02*
D03*
Y244350D02*
D03*
X121500Y250650D02*
D03*
Y244350D02*
D03*
X136500Y250650D02*
D03*
Y244350D02*
D03*
D20*
X240878Y202658D02*
D03*
Y212500D02*
D03*
Y222342D02*
D03*
X263122D02*
D03*
Y212500D02*
D03*
Y202658D02*
D03*
D21*
X157500Y250450D02*
D03*
Y244550D02*
D03*
X113000Y250450D02*
D03*
Y244550D02*
D03*
X127500Y250450D02*
D03*
Y244550D02*
D03*
X142500Y250450D02*
D03*
Y244550D02*
D03*
D22*
X236303Y238115D02*
D03*
X231382D02*
D03*
X226461D02*
D03*
X221539D02*
D03*
X216618D02*
D03*
X211697D02*
D03*
D23*
X158063Y159500D02*
D03*
X165937D02*
D03*
X220000Y208000D02*
D03*
X227874D02*
D03*
X207374Y203000D02*
D03*
X199500D02*
D03*
X220063Y200500D02*
D03*
X227937D02*
D03*
X162063Y107000D02*
D03*
X169937D02*
D03*
D24*
X190150Y216500D02*
D03*
X196850D02*
D03*
D25*
X255000Y119850D02*
D03*
Y113150D02*
D03*
Y128150D02*
D03*
Y134850D02*
D03*
X252500Y172650D02*
D03*
Y179350D02*
D03*
X260500Y161650D02*
D03*
Y168350D02*
D03*
D26*
X242300Y184279D02*
X245700D01*
X242300Y180721D02*
Y184279D01*
Y180721D02*
X245700D01*
Y184279D01*
X178700Y180721D02*
Y184279D01*
X242300Y174279D02*
X245700D01*
X242300Y170721D02*
Y174279D01*
Y170721D02*
X245700D01*
Y174279D01*
X175300D02*
X178700D01*
X175300Y170721D02*
Y174279D01*
Y170721D02*
X178700D01*
Y174279D01*
X242300Y164279D02*
X245700D01*
X242300Y160721D02*
Y164279D01*
Y160721D02*
X245700D01*
Y164279D01*
X175300D02*
X178700D01*
X175300Y160721D02*
Y164279D01*
Y160721D02*
X178700D01*
Y164279D01*
X242300Y154279D02*
X245700D01*
X242300Y150721D02*
Y154279D01*
Y150721D02*
X245700D01*
Y154279D01*
X175300D02*
X178700D01*
X175300Y150721D02*
Y154279D01*
Y150721D02*
X178700D01*
Y154279D01*
X242300Y144279D02*
X245700D01*
X242300Y140721D02*
Y144279D01*
Y140721D02*
X245700D01*
Y144279D01*
X175300D02*
X178700D01*
X175300Y140721D02*
Y144279D01*
Y140721D02*
X178700D01*
Y144279D01*
X242300Y134279D02*
X245700D01*
X242300Y130721D02*
Y134279D01*
Y130721D02*
X245700D01*
Y134279D01*
X175300D02*
X178700D01*
X175300Y130721D02*
Y134279D01*
Y130721D02*
X178700D01*
Y134279D01*
X242300Y124279D02*
X245700D01*
X242300Y120721D02*
Y124279D01*
Y120721D02*
X245700D01*
Y124279D01*
X175300D02*
X178700D01*
X175300Y120721D02*
Y124279D01*
Y120721D02*
X178700D01*
Y124279D01*
X175300Y184279D02*
X178700D01*
X175300Y180721D02*
Y184279D01*
Y180721D02*
X178700D01*
X201000Y132500D02*
X240500D01*
X228904Y138500D02*
X237904Y147500D01*
X170000Y138500D02*
X228904D01*
X131984Y241016D02*
Y247306D01*
X135000Y238000D02*
X159000D01*
X131984Y241016D02*
X135000Y238000D01*
X129540Y249750D02*
X131984Y247306D01*
X128200Y249750D02*
X129540D01*
X127500Y250450D02*
X128200Y249750D01*
X176000Y209000D02*
X200000Y185000D01*
X226000D01*
X162000Y200500D02*
X180427D01*
X208426Y172500D01*
X159000Y195500D02*
X180500D01*
X205500Y170500D01*
X171980Y188500D02*
X181500D01*
X201200Y168800D01*
X142500Y250450D02*
Y253500D01*
X141691Y254309D02*
X142500Y253500D01*
X140191Y254309D02*
X141691D01*
X140000Y254500D02*
X140191Y254309D01*
X156560Y189440D02*
X160500Y185500D01*
X168980D02*
X171980Y188500D01*
X160500Y185500D02*
X168980D01*
X156560Y189440D02*
Y192440D01*
X156500Y192500D02*
X156560Y192440D01*
X201200Y168800D02*
X211200D01*
X222500Y157500D01*
X245500D01*
X172098Y147000D02*
X235000D01*
X208426Y172500D02*
X240500D01*
X205500Y170500D02*
X232500D01*
X240500Y162500D01*
X156950Y250450D02*
X157500D01*
X156250Y251150D02*
X156950Y250450D01*
X156250Y251150D02*
Y252979D01*
X155000Y254229D02*
X156250Y252979D01*
X155000Y254229D02*
Y254500D01*
X171999Y147099D02*
X172098Y147000D01*
X237904Y147500D02*
X245500D01*
Y162500D02*
X259650D01*
X151700Y244550D02*
X157500D01*
X151500Y244350D02*
X151700Y244550D01*
X136700D02*
X142500D01*
X136500Y244350D02*
X136700Y244550D01*
X121700D02*
X127500D01*
X121500Y244350D02*
X121700Y244550D01*
X107200D02*
X113000D01*
X107000Y244350D02*
X107200Y244550D01*
X263000Y212622D02*
Y217500D01*
Y212622D02*
X263122Y212500D01*
X249000Y231500D02*
Y234000D01*
X238500Y244500D02*
X249000Y234000D01*
X220853Y244500D02*
X238500D01*
X216618Y240265D02*
X220853Y244500D01*
X248718Y218000D02*
X251200Y220482D01*
X226885Y218000D02*
X248718D01*
X224385Y220500D02*
X226885Y218000D01*
X212271Y220500D02*
X224385D01*
X220000Y201000D02*
X220031Y201031D01*
X214500Y201000D02*
X220000D01*
X211469Y219698D02*
X212271Y220500D01*
X211469Y217092D02*
Y219698D01*
X235000Y147000D02*
X240500Y152500D01*
X216618Y238115D02*
Y240265D01*
X155000Y199500D02*
X159000Y195500D01*
X155000Y199500D02*
Y203500D01*
X162000Y210500D01*
X254650Y119850D02*
X255000D01*
X252000Y122500D02*
X254650Y119850D01*
X245500Y122500D02*
X252000D01*
X254350Y127500D02*
X255000Y128150D01*
X245500Y127500D02*
X254350D01*
X201000Y210500D02*
X201039Y210539D01*
X204915D01*
X204923Y210547D01*
X190150Y212350D02*
X194500Y208000D01*
X190150Y212350D02*
Y216500D01*
X259650Y162500D02*
X260500Y161650D01*
X252350Y172500D02*
X252500Y172650D01*
X245500Y172500D02*
X252350D01*
X221520Y238096D02*
X221539Y238115D01*
X221520Y232020D02*
Y238096D01*
X221500Y232000D02*
X221520Y232020D01*
X190150Y220150D02*
X196400Y226400D01*
X221400D01*
X231382Y233265D02*
Y238115D01*
X222816Y224700D02*
X231382Y233265D01*
X208589Y224700D02*
X222816D01*
X207000Y223111D02*
X208589Y224700D01*
X207000Y220500D02*
Y223111D01*
X221400Y226400D02*
X226461Y231461D01*
Y238115D01*
X209500Y217092D02*
Y222500D01*
X190150Y216500D02*
Y220150D01*
X207531Y217092D02*
Y219698D01*
X207000Y220229D02*
Y220500D01*
Y220229D02*
X207531Y219698D01*
X222492Y212508D02*
X222500Y212500D01*
X214085Y212508D02*
X222492D01*
X212500Y203000D02*
X214500Y201000D01*
X207374Y203000D02*
X212500D01*
X220031Y201031D02*
Y207968D01*
X220000Y208000D02*
X220031Y207968D01*
X217051Y208000D02*
X220000D01*
X214504Y210547D02*
X217051Y208000D01*
X214077Y210547D02*
X214504D01*
X207374Y203000D02*
X207524Y203150D01*
Y209900D01*
X207531Y209908D01*
X214077Y212516D02*
X214085Y212508D01*
X196850Y216500D02*
X196897Y216453D01*
X204923D01*
D35*
X207531Y217092D02*
D03*
X209500D02*
D03*
X211469D02*
D03*
Y209908D02*
D03*
X209500D02*
D03*
X207531D02*
D03*
D36*
X214077Y216453D02*
D03*
Y214484D02*
D03*
Y212516D02*
D03*
Y210547D02*
D03*
X204923D02*
D03*
Y212516D02*
D03*
Y214484D02*
D03*
Y216453D02*
D03*
D37*
X128900Y132500D02*
D03*
D38*
X162100Y142500D02*
D03*
Y132500D02*
D03*
Y122500D02*
D03*
D39*
X243587Y250714D02*
D03*
X204413D02*
D03*
D40*
X147500Y213354D02*
X166526Y232380D01*
X147500Y187000D02*
Y213354D01*
Y187000D02*
X153950Y180550D01*
Y127350D02*
Y180550D01*
X158837Y122463D02*
X162063D01*
X153950Y127350D02*
X158837Y122463D01*
X166526Y232380D02*
X168879D01*
X179500Y243000D01*
X162100Y122500D02*
X175500D01*
X162063Y107000D02*
Y122463D01*
D41*
X245500Y122500D02*
D03*
Y132500D02*
D03*
Y142500D02*
D03*
Y152500D02*
D03*
Y162500D02*
D03*
Y172500D02*
D03*
Y182500D02*
D03*
X175500D02*
D03*
Y172500D02*
D03*
Y162500D02*
D03*
Y152500D02*
D03*
Y142500D02*
D03*
Y132500D02*
D03*
Y122500D02*
D03*
X245500Y127500D02*
D03*
Y137500D02*
D03*
Y147500D02*
D03*
Y157500D02*
D03*
Y167500D02*
D03*
Y177500D02*
D03*
X175500D02*
D03*
Y167500D02*
D03*
Y157500D02*
D03*
D42*
X240500Y122500D02*
D03*
Y132500D02*
D03*
Y142500D02*
D03*
Y152500D02*
D03*
Y162500D02*
D03*
Y172500D02*
D03*
Y182500D02*
D03*
X180500D02*
D03*
Y172500D02*
D03*
Y162500D02*
D03*
Y152500D02*
D03*
Y142500D02*
D03*
Y132500D02*
D03*
Y122500D02*
D03*
D43*
X206500Y159500D02*
D03*
X112000Y210500D02*
D03*
Y190500D02*
D03*
X162000Y180500D02*
D03*
Y220500D02*
D03*
Y190500D02*
D03*
Y210500D02*
D03*
Y200500D02*
D03*
D44*
X179500Y243000D02*
D03*
X189500D02*
D03*
D45*
X201000Y132500D02*
D03*
X150500Y222500D02*
D03*
X146000Y218000D02*
D03*
X149000Y179000D02*
D03*
X143000Y184000D02*
D03*
Y192000D02*
D03*
X169000Y191000D02*
D03*
X162500Y166500D02*
D03*
Y173500D02*
D03*
X113000Y239000D02*
D03*
X159000Y238000D02*
D03*
X176000Y209000D02*
D03*
X226000Y185000D02*
D03*
X140000Y254500D02*
D03*
X156500Y192500D02*
D03*
X155000Y254500D02*
D03*
X171999Y147099D02*
D03*
X169000Y163000D02*
D03*
X169154Y155439D02*
D03*
X170000Y138500D02*
D03*
X239332Y237350D02*
D03*
X263000Y217500D02*
D03*
X231500Y200500D02*
D03*
Y208000D02*
D03*
X263000Y196000D02*
D03*
X265000Y230000D02*
D03*
X173500Y104000D02*
D03*
Y112500D02*
D03*
X173562Y107246D02*
D03*
X170000Y112500D02*
D03*
X216500Y204000D02*
D03*
X214000Y206000D02*
D03*
X211000D02*
D03*
X206500Y231500D02*
D03*
X214000D02*
D03*
X143000Y109000D02*
D03*
X129000D02*
D03*
X118000D02*
D03*
X130500Y156000D02*
D03*
X142500D02*
D03*
X118500D02*
D03*
X195000Y211500D02*
D03*
X192000Y204000D02*
D03*
X201500Y214000D02*
D03*
X228000Y213500D02*
D03*
X251200Y220482D02*
D03*
X249000Y231500D02*
D03*
X201000Y210500D02*
D03*
X194500Y208000D02*
D03*
X221500Y232000D02*
D03*
X209500Y222500D02*
D03*
X207000Y220500D02*
D03*
X222500Y212500D02*
D03*
M02*
