G04*
G04 #@! TF.GenerationSoftware,Altium Limited,Altium Designer,25.8.1 (18)*
G04*
G04 Layer_Color=65535*
%FSLAX25Y25*%
%MOIN*%
G70*
G04*
G04 #@! TF.SameCoordinates,67F45A81-E337-433C-A550-62EA9ADE51A4*
G04*
G04*
G04 #@! TF.FilePolarity,Positive*
G04*
G01*
G75*
%ADD10C,0.00787*%
%ADD11C,0.00600*%
%ADD12C,0.02000*%
%ADD13C,0.01575*%
%ADD14C,0.00500*%
%ADD15C,0.00800*%
%ADD16C,0.00630*%
%ADD17C,0.00500*%
%ADD18C,0.00300*%
D10*
X202020Y216453D02*
G03*
X202020Y216453I-394J0D01*
G01*
X153900Y247106D02*
Y247894D01*
X149100Y247106D02*
Y247894D01*
X162000Y157433D02*
Y161567D01*
X173319Y229811D02*
X195681D01*
X173319D02*
Y256189D01*
X195681D01*
Y229811D02*
Y256189D01*
X223937Y205933D02*
Y210067D01*
X203437Y200933D02*
Y205067D01*
X224000Y198433D02*
Y202567D01*
X166000Y104933D02*
Y109067D01*
X109400Y247106D02*
Y247894D01*
X104600Y247106D02*
Y247894D01*
X123900Y247106D02*
Y247894D01*
X119100Y247106D02*
Y247894D01*
X138900Y247106D02*
Y247894D01*
X134100Y247106D02*
Y247894D01*
D11*
X266300Y197500D02*
G03*
X266300Y197500I-300J0D01*
G01*
X151900Y144400D02*
X155400D01*
X151900Y134400D02*
X155400D01*
X151900Y124400D02*
X155400D01*
X151900Y140600D02*
X155400D01*
X151900Y130600D02*
X155400D01*
X151900Y120600D02*
X155400D01*
X244200Y193500D02*
Y198997D01*
Y206317D02*
Y208840D01*
Y216160D02*
Y218683D01*
X259800Y226003D02*
Y231500D01*
Y216160D02*
Y218683D01*
Y206317D02*
Y208840D01*
Y193500D02*
Y198997D01*
X244200Y193500D02*
X259800D01*
X244200Y226003D02*
Y231500D01*
X259800D01*
X155250Y246961D02*
Y248039D01*
X159750Y246961D02*
Y248039D01*
X207673Y255550D02*
X240327D01*
X202350Y235450D02*
Y243809D01*
Y235450D02*
X209187D01*
X245650D02*
Y243809D01*
X238813Y235450D02*
X245650D01*
X110750Y246961D02*
Y248039D01*
X115250Y246961D02*
Y248039D01*
X125250Y246961D02*
Y248039D01*
X129750Y246961D02*
Y248039D01*
X140250Y246961D02*
Y248039D01*
X144750Y246961D02*
Y248039D01*
D12*
X254150Y238115D02*
G03*
X254150Y238115I-1500J0D01*
G01*
D13*
X193555Y236307D02*
G03*
X193555Y236307I-394J0D01*
G01*
D14*
X203594Y208579D02*
Y208795D01*
Y218205D02*
Y218421D01*
X213221Y208579D02*
X215406D01*
X203594D02*
X205780D01*
X215406D02*
Y208795D01*
Y218205D02*
Y218421D01*
X213221D02*
X215406D01*
X203594D02*
X205780D01*
D15*
X204835Y221501D02*
Y225499D01*
X206168Y224166D01*
X207501Y225499D01*
Y221501D01*
X208834Y225499D02*
X211499D01*
X210166D01*
Y221501D01*
X212832D02*
X214165D01*
X213499D01*
Y225499D01*
X212832Y224833D01*
X111168Y108999D02*
Y105667D01*
X111834Y105001D01*
X113167D01*
X113833Y105667D01*
Y108999D01*
X115166Y108333D02*
X115833Y108999D01*
X117166D01*
X117832Y108333D01*
Y107667D01*
X117166Y107000D01*
X116499D01*
X117166D01*
X117832Y106333D01*
Y105667D01*
X117166Y105001D01*
X115833D01*
X115166Y105667D01*
X259167Y237501D02*
X258501Y236834D01*
Y235501D01*
X259167Y234835D01*
X259834D01*
X260500Y235501D01*
Y236834D01*
X261166Y237501D01*
X261833D01*
X262499Y236834D01*
Y235501D01*
X261833Y234835D01*
X258501Y238834D02*
X262499D01*
X261166Y240166D01*
X262499Y241499D01*
X258501D01*
X262499Y242832D02*
Y244165D01*
Y243499D01*
X258501D01*
X259167Y242832D01*
X175834Y199499D02*
Y196167D01*
X176501Y195501D01*
X177833D01*
X178500Y196167D01*
Y199499D01*
X179833Y195501D02*
X181166D01*
X180499D01*
Y199499D01*
X179833Y198833D01*
X252499Y248500D02*
Y249833D01*
Y249166D01*
X249167D01*
X248501Y249833D01*
Y250499D01*
X249167Y251166D01*
X248501Y247167D02*
Y245834D01*
Y246501D01*
X252499D01*
X251833Y247167D01*
X149334Y160833D02*
X148667Y161499D01*
X147334D01*
X146668Y160833D01*
Y158167D01*
X147334Y157501D01*
X148667D01*
X149334Y158167D01*
X153332Y161499D02*
X150666D01*
Y159500D01*
X151999Y160167D01*
X152666D01*
X153332Y159500D01*
Y158167D01*
X152666Y157501D01*
X151333D01*
X150666Y158167D01*
X110168Y161999D02*
Y158667D01*
X110834Y158001D01*
X112167D01*
X112833Y158667D01*
Y161999D01*
X116832Y158001D02*
X114166D01*
X116832Y160667D01*
Y161333D01*
X116166Y161999D01*
X114833D01*
X114166Y161333D01*
X166501Y247834D02*
Y246501D01*
Y247167D01*
X169833D01*
X170499Y246501D01*
Y245834D01*
X169833Y245168D01*
X170499Y251832D02*
Y249166D01*
X167833Y251832D01*
X167167D01*
X166501Y251166D01*
Y249833D01*
X167167Y249166D01*
X223500Y223833D02*
X222834Y224499D01*
X221501D01*
X220834Y223833D01*
Y221167D01*
X221501Y220501D01*
X222834D01*
X223500Y221167D01*
X224833Y220501D02*
X226166D01*
X225499D01*
Y224499D01*
X224833Y223833D01*
X190333Y204333D02*
X189667Y204999D01*
X188334D01*
X187668Y204333D01*
Y201667D01*
X188334Y201001D01*
X189667D01*
X190333Y201667D01*
X194332Y201001D02*
X191666D01*
X194332Y203666D01*
Y204333D01*
X193666Y204999D01*
X192333D01*
X191666Y204333D01*
X223334Y216833D02*
X222667Y217499D01*
X221334D01*
X220668Y216833D01*
Y214167D01*
X221334Y213501D01*
X222667D01*
X223334Y214167D01*
X224667Y216833D02*
X225333Y217499D01*
X226666D01*
X227332Y216833D01*
Y216166D01*
X226666Y215500D01*
X225999D01*
X226666D01*
X227332Y214834D01*
Y214167D01*
X226666Y213501D01*
X225333D01*
X224667Y214167D01*
X152333Y108333D02*
X151667Y108999D01*
X150334D01*
X149668Y108333D01*
Y105667D01*
X150334Y105001D01*
X151667D01*
X152333Y105667D01*
X155666Y105001D02*
Y108999D01*
X153666Y107000D01*
X156332D01*
X190834Y221501D02*
Y225499D01*
X192833D01*
X193500Y224833D01*
Y223500D01*
X192833Y222834D01*
X190834D01*
X192167D02*
X193500Y221501D01*
X194833D02*
X196166D01*
X195499D01*
Y225499D01*
X194833Y224833D01*
X263999Y113668D02*
X260001D01*
Y115667D01*
X260667Y116333D01*
X262000D01*
X262666Y115667D01*
Y113668D01*
Y115001D02*
X263999Y116333D01*
X260667Y117666D02*
X260001Y118333D01*
Y119666D01*
X260667Y120332D01*
X261334D01*
X262000Y119666D01*
Y118999D01*
Y119666D01*
X262666Y120332D01*
X263333D01*
X263999Y119666D01*
Y118333D01*
X263333Y117666D01*
X260501Y134832D02*
X264499D01*
Y132833D01*
X263833Y132167D01*
X262500D01*
X261834Y132833D01*
Y134832D01*
Y133499D02*
X260501Y132167D01*
X264499Y128168D02*
X263833Y129501D01*
X262500Y130833D01*
X261167D01*
X260501Y130167D01*
Y128834D01*
X261167Y128168D01*
X261834D01*
X262500Y128834D01*
Y130833D01*
X262499Y174668D02*
X258501D01*
Y176667D01*
X259167Y177333D01*
X260500D01*
X261166Y176667D01*
Y174668D01*
Y176001D02*
X262499Y177333D01*
Y181332D02*
Y178666D01*
X259834Y181332D01*
X259167D01*
X258501Y180666D01*
Y179333D01*
X259167Y178666D01*
X262499Y148168D02*
X258501D01*
Y150167D01*
X259167Y150833D01*
X260500D01*
X261166Y150167D01*
Y148168D01*
Y149501D02*
X262499Y150833D01*
Y154166D02*
X258501D01*
X260500Y152166D01*
Y154832D01*
D16*
X149925Y231376D02*
X153075D01*
Y232950D01*
X152550Y233475D01*
X150450D01*
X149925Y232950D01*
Y231376D01*
X153075Y236099D02*
X149925D01*
X151500Y234525D01*
Y236624D01*
X159074Y232064D02*
X155926D01*
Y233638D01*
X156450Y234163D01*
X157500D01*
X158025Y233638D01*
Y232064D01*
Y233113D02*
X159074Y234163D01*
Y235213D02*
Y236262D01*
Y235738D01*
X155926D01*
X156450Y235213D01*
Y237837D02*
X155926Y238362D01*
Y239411D01*
X156450Y239936D01*
X156975D01*
X157500Y239411D01*
Y238887D01*
Y239411D01*
X158025Y239936D01*
X158550D01*
X159074Y239411D01*
Y238362D01*
X158550Y237837D01*
X105426Y232401D02*
X108574D01*
Y233975D01*
X108050Y234500D01*
X105950D01*
X105426Y233975D01*
Y232401D01*
X108574Y235550D02*
Y236599D01*
Y236074D01*
X105426D01*
X105950Y235550D01*
X119925Y231876D02*
X123074D01*
Y233450D01*
X122550Y233975D01*
X120450D01*
X119925Y233450D01*
Y231876D01*
X123074Y237124D02*
Y235025D01*
X120975Y237124D01*
X120450D01*
X119925Y236599D01*
Y235550D01*
X120450Y235025D01*
X134925Y231876D02*
X138075D01*
Y233450D01*
X137550Y233975D01*
X135450D01*
X134925Y233450D01*
Y231876D01*
X135450Y235025D02*
X134925Y235550D01*
Y236599D01*
X135450Y237124D01*
X135975D01*
X136500Y236599D01*
Y236074D01*
Y236599D01*
X137025Y237124D01*
X137550D01*
X138075Y236599D01*
Y235550D01*
X137550Y235025D01*
X114575Y232564D02*
X111425D01*
Y234138D01*
X111950Y234663D01*
X113000D01*
X113525Y234138D01*
Y232564D01*
Y233613D02*
X114575Y234663D01*
Y235713D02*
Y236762D01*
Y236238D01*
X111425D01*
X111950Y235713D01*
Y238337D02*
X111425Y238862D01*
Y239911D01*
X111950Y240436D01*
X114050D01*
X114575Y239911D01*
Y238862D01*
X114050Y238337D01*
X111950D01*
X129075Y233089D02*
X125926D01*
Y234663D01*
X126450Y235188D01*
X127500D01*
X128025Y234663D01*
Y233089D01*
Y234138D02*
X129075Y235188D01*
Y236238D02*
Y237287D01*
Y236762D01*
X125926D01*
X126450Y236238D01*
X129075Y238862D02*
Y239911D01*
Y239387D01*
X125926D01*
X126450Y238862D01*
X144074Y232564D02*
X140926D01*
Y234138D01*
X141450Y234663D01*
X142500D01*
X143025Y234138D01*
Y232564D01*
Y233613D02*
X144074Y234663D01*
Y235713D02*
Y236762D01*
Y236238D01*
X140926D01*
X141450Y235713D01*
X144074Y240436D02*
Y238337D01*
X141975Y240436D01*
X141450D01*
X140926Y239911D01*
Y238862D01*
X141450Y238337D01*
X152729Y257754D02*
X152205Y258279D01*
X151155D01*
X150630Y257754D01*
Y255655D01*
X151155Y255130D01*
X152205D01*
X152729Y255655D01*
X153779Y255130D02*
Y257229D01*
X154829Y258279D01*
X155878Y257229D01*
Y255130D01*
Y256704D01*
X153779D01*
X156928Y258279D02*
Y255130D01*
X159027D01*
X136229Y257754D02*
X135705Y258279D01*
X134655D01*
X134130Y257754D01*
Y255655D01*
X134655Y255130D01*
X135705D01*
X136229Y255655D01*
X137279Y255130D02*
Y257229D01*
X138329Y258279D01*
X139378Y257229D01*
Y255130D01*
Y256704D01*
X137279D01*
X140428Y258279D02*
Y255130D01*
X142527D01*
X145676D02*
X143577D01*
X145676Y257229D01*
Y257754D01*
X145151Y258279D01*
X144102D01*
X143577Y257754D01*
X121729D02*
X121204Y258279D01*
X120155D01*
X119630Y257754D01*
Y255655D01*
X120155Y255130D01*
X121204D01*
X121729Y255655D01*
X122779Y255130D02*
Y257229D01*
X123829Y258279D01*
X124878Y257229D01*
Y255130D01*
Y256704D01*
X122779D01*
X125928Y258279D02*
Y255130D01*
X128027D01*
X129077D02*
X130127D01*
X129602D01*
Y258279D01*
X129077Y257754D01*
X107630Y255130D02*
Y258279D01*
X109204D01*
X109729Y257754D01*
Y256704D01*
X109204Y256180D01*
X107630D01*
X112878Y257754D02*
X112354Y258279D01*
X111304D01*
X110779Y257754D01*
Y255655D01*
X111304Y255130D01*
X112354D01*
X112878Y255655D01*
Y256704D01*
X111829D01*
D17*
X151518Y241201D02*
Y239601D01*
X152318Y240401D02*
X150719D01*
X107018Y241201D02*
Y239601D01*
X107818Y240401D02*
X106219D01*
X121519Y241201D02*
Y239601D01*
X122318Y240401D02*
X120719D01*
X136519Y241201D02*
Y239601D01*
X137318Y240401D02*
X135719D01*
D18*
X160435Y113750D02*
X163767Y117082D01*
Y113750D02*
X160435Y117082D01*
X162101Y113750D02*
Y117082D01*
X163767Y115416D02*
X160435D01*
M02*
