G04*
G04 #@! TF.GenerationSoftware,Altium Limited,Altium Designer,25.8.1 (18)*
G04*
G04 Layer_Color=128*
%FSLAX25Y25*%
%MOIN*%
G70*
G04*
G04 #@! TF.SameCoordinates,67F45A81-E337-433C-A550-62EA9ADE51A4*
G04*
G04*
G04 #@! TF.FilePolarity,Positive*
G04*
G01*
G75*
%ADD14C,0.00500*%
D14*
X244319Y122500D02*
X246681D01*
X245500Y121319D02*
Y123681D01*
X238827Y122500D02*
X242173D01*
X240500Y120827D02*
Y124173D01*
X244319Y132500D02*
X246681D01*
X245500Y131319D02*
Y133681D01*
X238827Y132500D02*
X242173D01*
X240500Y130827D02*
Y134173D01*
X244319Y142500D02*
X246681D01*
X245500Y141319D02*
Y143681D01*
X238827Y142500D02*
X242173D01*
X240500Y140827D02*
Y144173D01*
X244319Y152500D02*
X246681D01*
X245500Y151319D02*
Y153681D01*
X238827Y152500D02*
X242173D01*
X240500Y150827D02*
Y154173D01*
X244319Y162500D02*
X246681D01*
X245500Y161319D02*
Y163681D01*
X238827Y162500D02*
X242173D01*
X240500Y160827D02*
Y164173D01*
X244319Y172500D02*
X246681D01*
X245500Y171319D02*
Y173681D01*
X238827Y172500D02*
X242173D01*
X240500Y170827D02*
Y174173D01*
X244319Y182500D02*
X246681D01*
X245500Y181319D02*
Y183681D01*
X238827Y182500D02*
X242173D01*
X240500Y180827D02*
Y184173D01*
X178827Y182500D02*
X182173D01*
X180500Y180827D02*
Y184173D01*
X174319Y182500D02*
X176681D01*
X175500Y181319D02*
Y183681D01*
X178827Y172500D02*
X182173D01*
X180500Y170827D02*
Y174173D01*
X174319Y172500D02*
X176681D01*
X175500Y171319D02*
Y173681D01*
X178827Y162500D02*
X182173D01*
X180500Y160827D02*
Y164173D01*
X174319Y162500D02*
X176681D01*
X175500Y161319D02*
Y163681D01*
X178827Y152500D02*
X182173D01*
X180500Y150827D02*
Y154173D01*
X174319Y152500D02*
X176681D01*
X175500Y151319D02*
Y153681D01*
X178827Y142500D02*
X182173D01*
X180500Y140827D02*
Y144173D01*
X174319Y142500D02*
X176681D01*
X175500Y141319D02*
Y143681D01*
X178827Y132500D02*
X182173D01*
X180500Y130827D02*
Y134173D01*
X174319Y132500D02*
X176681D01*
X175500Y131319D02*
Y133681D01*
X178827Y122500D02*
X182173D01*
X180500Y120827D02*
Y124173D01*
X174319Y122500D02*
X176681D01*
X175500Y121319D02*
Y123681D01*
X244319Y127500D02*
X246681D01*
X245500Y126319D02*
Y128681D01*
X244319Y137500D02*
X246681D01*
X245500Y136319D02*
Y138681D01*
X244319Y147500D02*
X246681D01*
X245500Y146319D02*
Y148681D01*
X244319Y157500D02*
X246681D01*
X245500Y156319D02*
Y158681D01*
X244319Y167500D02*
X246681D01*
X245500Y166319D02*
Y168681D01*
X244319Y177500D02*
X246681D01*
X245500Y176319D02*
Y178681D01*
X174319Y177500D02*
X176681D01*
X175500Y176319D02*
Y178681D01*
X174319Y167500D02*
X176681D01*
X175500Y166319D02*
Y168681D01*
X174319Y157500D02*
X176681D01*
X175500Y156319D02*
Y158681D01*
X205000Y159500D02*
X208000D01*
X206500Y158000D02*
Y161000D01*
X110500Y210500D02*
X113500D01*
X112000Y209000D02*
Y212000D01*
X110500Y190500D02*
X113500D01*
X112000Y189000D02*
Y192000D01*
X160500Y180500D02*
X163500D01*
X162000Y179000D02*
Y182000D01*
X160500Y220500D02*
X163500D01*
X162000Y219000D02*
Y222000D01*
X160500Y190500D02*
X163500D01*
X162000Y189000D02*
Y192000D01*
X160500Y210500D02*
X163500D01*
X162000Y209000D02*
Y212000D01*
X160500Y200500D02*
X163500D01*
X162000Y199000D02*
Y202000D01*
X176941Y243000D02*
X182059D01*
X179500Y240441D02*
Y245559D01*
X186941Y243000D02*
X192059D01*
X189500Y240441D02*
Y245559D01*
X200500Y132500D02*
X201500D01*
X201000Y132000D02*
Y133000D01*
X150000Y222500D02*
X151000D01*
X150500Y222000D02*
Y223000D01*
X145500Y218000D02*
X146500D01*
X146000Y217500D02*
Y218500D01*
X148500Y179000D02*
X149500D01*
X149000Y178500D02*
Y179500D01*
X142500Y184000D02*
X143500D01*
X143000Y183500D02*
Y184500D01*
X142500Y192000D02*
X143500D01*
X143000Y191500D02*
Y192500D01*
X168500Y191000D02*
X169500D01*
X169000Y190500D02*
Y191500D01*
X162000Y166500D02*
X163000D01*
X162500Y166000D02*
Y167000D01*
X162000Y173500D02*
X163000D01*
X162500Y173000D02*
Y174000D01*
X112500Y239000D02*
X113500D01*
X113000Y238500D02*
Y239500D01*
X158500Y238000D02*
X159500D01*
X159000Y237500D02*
Y238500D01*
X175500Y209000D02*
X176500D01*
X176000Y208500D02*
Y209500D01*
X225500Y185000D02*
X226500D01*
X226000Y184500D02*
Y185500D01*
X139500Y254500D02*
X140500D01*
X140000Y254000D02*
Y255000D01*
X156000Y192500D02*
X157000D01*
X156500Y192000D02*
Y193000D01*
X154500Y254500D02*
X155500D01*
X155000Y254000D02*
Y255000D01*
X171499Y147099D02*
X172499D01*
X171999Y146599D02*
Y147599D01*
X168500Y163000D02*
X169500D01*
X169000Y162500D02*
Y163500D01*
X168654Y155439D02*
X169654D01*
X169154Y154939D02*
Y155939D01*
X169500Y138500D02*
X170500D01*
X170000Y138000D02*
Y139000D01*
X238832Y237350D02*
X239832D01*
X239332Y236850D02*
Y237850D01*
X262500Y217500D02*
X263500D01*
X263000Y217000D02*
Y218000D01*
X231000Y200500D02*
X232000D01*
X231500Y200000D02*
Y201000D01*
X231000Y208000D02*
X232000D01*
X231500Y207500D02*
Y208500D01*
X262500Y196000D02*
X263500D01*
X263000Y195500D02*
Y196500D01*
X264500Y230000D02*
X265500D01*
X265000Y229500D02*
Y230500D01*
X173000Y104000D02*
X174000D01*
X173500Y103500D02*
Y104500D01*
X173000Y112500D02*
X174000D01*
X173500Y112000D02*
Y113000D01*
X173062Y107246D02*
X174062D01*
X173562Y106746D02*
Y107746D01*
X169500Y112500D02*
X170500D01*
X170000Y112000D02*
Y113000D01*
X216000Y204000D02*
X217000D01*
X216500Y203500D02*
Y204500D01*
X213500Y206000D02*
X214500D01*
X214000Y205500D02*
Y206500D01*
X210500Y206000D02*
X211500D01*
X211000Y205500D02*
Y206500D01*
X206000Y231500D02*
X207000D01*
X206500Y231000D02*
Y232000D01*
X213500Y231500D02*
X214500D01*
X214000Y231000D02*
Y232000D01*
X142500Y109000D02*
X143500D01*
X143000Y108500D02*
Y109500D01*
X128500Y109000D02*
X129500D01*
X129000Y108500D02*
Y109500D01*
X117500Y109000D02*
X118500D01*
X118000Y108500D02*
Y109500D01*
X130000Y156000D02*
X131000D01*
X130500Y155500D02*
Y156500D01*
X142000Y156000D02*
X143000D01*
X142500Y155500D02*
Y156500D01*
X118000Y156000D02*
X119000D01*
X118500Y155500D02*
Y156500D01*
X194500Y211500D02*
X195500D01*
X195000Y211000D02*
Y212000D01*
X191500Y204000D02*
X192500D01*
X192000Y203500D02*
Y204500D01*
X201000Y214000D02*
X202000D01*
X201500Y213500D02*
Y214500D01*
X227500Y213500D02*
X228500D01*
X228000Y213000D02*
Y214000D01*
X250700Y220482D02*
X251700D01*
X251200Y219982D02*
Y220982D01*
X248500Y231500D02*
X249500D01*
X249000Y231000D02*
Y232000D01*
X200500Y210500D02*
X201500D01*
X201000Y210000D02*
Y211000D01*
X194000Y208000D02*
X195000D01*
X194500Y207500D02*
Y208500D01*
X221000Y232000D02*
X222000D01*
X221500Y231500D02*
Y232500D01*
X209000Y222500D02*
X210000D01*
X209500Y222000D02*
Y223000D01*
X206500Y220500D02*
X207500D01*
X207000Y220000D02*
Y221000D01*
X222000Y212500D02*
X223000D01*
X222500Y212000D02*
Y213000D01*
M02*
