G04*
G04 #@! TF.GenerationSoftware,Altium Limited,Altium Designer,25.2.1 (25)*
G04*
G04 Layer_Color=16711935*
%FSLAX44Y44*%
%MOMM*%
G71*
G04*
G04 #@! TF.SameCoordinates,3DF48369-53CF-4C9B-B775-AACAF03539EE*
G04*
G04*
G04 #@! TF.FilePolarity,Positive*
G04*
G01*
G75*
%ADD11C,0.2000*%
%ADD13C,0.5080*%
%ADD14C,0.1270*%
%ADD16C,0.1269*%
%ADD17C,0.0762*%
%ADD46C,0.0000*%
%ADD47C,0.0254*%
%ADD48C,0.1000*%
D11*
X513130Y549790D02*
G03*
X513130Y549790I-1000J0D01*
G01*
D13*
X604020Y585763D02*
G03*
X604020Y585763I-3810J0D01*
G01*
D14*
X517130Y554790D02*
X547130D01*
Y529790D02*
Y554790D01*
X517130Y529790D02*
X547130D01*
X517130D02*
Y554790D01*
D16*
X384857Y612650D02*
Y608587D01*
X386888Y610619D02*
X382826D01*
X346757Y612650D02*
Y608587D01*
X348788Y610619D02*
X344726D01*
X308657Y612650D02*
Y608587D01*
X310688Y610619D02*
X306626D01*
X271827Y612650D02*
Y608587D01*
X273858Y610619D02*
X269796D01*
D17*
X407504Y288925D02*
X415968Y297389D01*
Y288925D02*
X407504Y297389D01*
X411736Y288925D02*
Y297389D01*
X415968Y293157D02*
X407504D01*
D46*
X656463Y514750D02*
G03*
X656463Y514750I-381J0D01*
G01*
X643128Y492760D02*
G03*
X637032Y492760I-3048J0D01*
G01*
D47*
X395605Y624205D02*
X404495D01*
X395605Y620141D02*
Y624205D01*
Y620141D02*
X404495D01*
Y624205D01*
X395605Y633095D02*
X404495D01*
Y637159D01*
X395605D02*
X404495D01*
X395605Y633095D02*
Y637159D01*
X404495Y620141D02*
Y637159D01*
X395605D02*
X404495D01*
X395605Y620141D02*
Y637159D01*
Y620141D02*
X404495D01*
X357505Y624205D02*
X366395D01*
X357505Y620141D02*
Y624205D01*
Y620141D02*
X366395D01*
Y624205D01*
X357505Y633095D02*
X366395D01*
Y637159D01*
X357505D02*
X366395D01*
X357505Y633095D02*
Y637159D01*
X366395Y620141D02*
Y637159D01*
X357505D02*
X366395D01*
X357505Y620141D02*
Y637159D01*
Y620141D02*
X366395D01*
X319405Y624205D02*
X328295D01*
X319405Y620141D02*
Y624205D01*
Y620141D02*
X328295D01*
Y624205D01*
X319405Y633095D02*
X328295D01*
Y637159D01*
X319405D02*
X328295D01*
X319405Y633095D02*
Y637159D01*
X328295Y620141D02*
Y637159D01*
X319405D02*
X328295D01*
X319405Y620141D02*
Y637159D01*
Y620141D02*
X328295D01*
X282575Y624205D02*
X291465D01*
X282575Y620141D02*
Y624205D01*
Y620141D02*
X291465D01*
Y624205D01*
X282575Y633095D02*
X291465D01*
Y637159D01*
X282575D02*
X291465D01*
X282575Y633095D02*
Y637159D01*
X291465Y620141D02*
Y637159D01*
X282575D02*
X291465D01*
X282575Y620141D02*
Y637159D01*
Y620141D02*
X291465D01*
X379730Y306324D02*
Y315976D01*
Y306324D02*
X421640D01*
Y315976D01*
X379730D02*
X421640D01*
X379730Y331724D02*
Y341376D01*
Y331724D02*
X421640D01*
Y341376D01*
X379730D02*
X421640D01*
X379730Y357124D02*
Y366776D01*
Y357124D02*
X421640D01*
Y366776D01*
X379730D02*
X421640D01*
X379730Y284480D02*
Y388620D01*
X278130D02*
X379730D01*
X278130Y284480D02*
Y388620D01*
Y284480D02*
X379730D01*
X621538Y586740D02*
X658622D01*
X621538Y492760D02*
Y586740D01*
Y492760D02*
X658622D01*
Y586740D01*
X662051Y479679D02*
X673989D01*
X662051D02*
Y486283D01*
X673989D01*
Y479679D02*
Y486283D01*
X662051Y472821D02*
X673989D01*
Y466217D02*
Y472821D01*
X662051Y466217D02*
X673989D01*
X662051D02*
Y472821D01*
X673989Y466217D02*
Y486283D01*
X662051Y466217D02*
X673989D01*
X662051D02*
Y486283D01*
X673989D01*
X653161Y596519D02*
X665099D01*
X653161D02*
Y603123D01*
X665099D01*
Y596519D02*
Y603123D01*
X653161Y589661D02*
X665099D01*
Y583057D02*
Y589661D01*
X653161Y583057D02*
X665099D01*
X653161D02*
Y589661D01*
X665099Y583057D02*
Y603123D01*
X653161Y583057D02*
X665099D01*
X653161D02*
Y603123D01*
X665099D01*
X474091Y442341D02*
X486029D01*
Y435737D02*
Y442341D01*
X474091Y435737D02*
X486029D01*
X474091D02*
Y442341D01*
Y449199D02*
X486029D01*
X474091D02*
Y455803D01*
X486029D01*
Y449199D02*
Y455803D01*
X474091Y435737D02*
Y455803D01*
X486029D01*
Y435737D02*
Y455803D01*
X474091Y435737D02*
X486029D01*
X641731Y337439D02*
X653669D01*
Y344043D01*
X641731D02*
X653669D01*
X641731Y337439D02*
Y344043D01*
Y330581D02*
X653669D01*
X641731Y323977D02*
Y330581D01*
Y323977D02*
X653669D01*
Y330581D01*
X641731Y323977D02*
Y344043D01*
Y323977D02*
X653669D01*
Y344043D01*
X641731D02*
X653669D01*
X495681Y392811D02*
X507619D01*
Y386207D02*
Y392811D01*
X495681Y386207D02*
X507619D01*
X495681D02*
Y392811D01*
Y399669D02*
X507619D01*
X495681D02*
Y406273D01*
X507619D01*
Y399669D02*
Y406273D01*
X495681Y386207D02*
Y406273D01*
X507619D01*
Y386207D02*
Y406273D01*
X495681Y386207D02*
X507619D01*
X655701Y422529D02*
X667639D01*
Y429133D01*
X655701D02*
X667639D01*
X655701Y422529D02*
Y429133D01*
Y415671D02*
X667639D01*
X655701Y409067D02*
Y415671D01*
Y409067D02*
X667639D01*
Y415671D01*
X655701Y409067D02*
Y429133D01*
Y409067D02*
X667639D01*
Y429133D01*
X655701D02*
X667639D01*
X641731Y292481D02*
X653669D01*
X641731Y285877D02*
Y292481D01*
Y285877D02*
X653669D01*
Y292481D01*
X641731Y299339D02*
X653669D01*
Y305943D01*
X641731D02*
X653669D01*
X641731Y299339D02*
Y305943D01*
X653669Y285877D02*
Y305943D01*
X641731D02*
X653669D01*
X641731Y285877D02*
Y305943D01*
Y285877D02*
X653669D01*
X635381Y450469D02*
X647319D01*
Y457073D01*
X635381D02*
X647319D01*
X635381Y450469D02*
Y457073D01*
Y443611D02*
X647319D01*
X635381Y437007D02*
Y443611D01*
Y437007D02*
X647319D01*
Y443611D01*
X635381Y437007D02*
Y457073D01*
Y437007D02*
X647319D01*
Y457073D01*
X635381D02*
X647319D01*
X494919Y543941D02*
Y555879D01*
Y543941D02*
X501523D01*
Y555879D01*
X494919D02*
X501523D01*
X488061Y543941D02*
Y555879D01*
X481457D02*
X488061D01*
X481457Y543941D02*
Y555879D01*
Y543941D02*
X488061D01*
X481457Y555879D02*
X501523D01*
X481457Y543941D02*
Y555879D01*
Y543941D02*
X501523D01*
Y555879D01*
X622681Y599313D02*
Y647827D01*
X515239Y599313D02*
X622681D01*
X515239D02*
Y647827D01*
X622681D01*
D48*
X384810Y629950D02*
X386210Y627550D01*
X383310D02*
X384810Y629950D01*
X383310Y627550D02*
X386210D01*
X380810Y620650D02*
Y636650D01*
X388810Y620650D02*
Y636650D01*
X380810D02*
X388810D01*
X380810Y620650D02*
X388810D01*
X346710Y629950D02*
X348110Y627550D01*
X345210D02*
X346710Y629950D01*
X345210Y627550D02*
X348110D01*
X342710Y620650D02*
Y636650D01*
X350710Y620650D02*
Y636650D01*
X342710D02*
X350710D01*
X342710Y620650D02*
X350710D01*
X308610Y629950D02*
X310010Y627550D01*
X307110D02*
X308610Y629950D01*
X307110Y627550D02*
X310010D01*
X304610Y620650D02*
Y636650D01*
X312610Y620650D02*
Y636650D01*
X304610D02*
X312610D01*
X304610Y620650D02*
X312610D01*
X271780Y629950D02*
X273180Y627550D01*
X270280D02*
X271780Y629950D01*
X270280Y627550D02*
X273180D01*
X267780Y620650D02*
Y636650D01*
X275780Y620650D02*
Y636650D01*
X267780D02*
X275780D01*
X267780Y620650D02*
X275780D01*
X441230Y584720D02*
Y649720D01*
X496030D01*
Y584720D02*
Y649720D01*
X441230Y584720D02*
X496030D01*
M02*
