G04*
G04 #@! TF.GenerationSoftware,Altium Limited,Altium Designer,25.2.1 (25)*
G04*
G04 Layer_Color=65535*
%FSLAX44Y44*%
%MOMM*%
G71*
G04*
G04 #@! TF.SameCoordinates,3DF48369-53CF-4C9B-B775-AACAF03539EE*
G04*
G04*
G04 #@! TF.FilePolarity,Positive*
G04*
G01*
G75*
%ADD10C,0.1524*%
%ADD11C,0.2000*%
%ADD12C,0.4000*%
%ADD13C,0.5080*%
%ADD14C,0.1270*%
%ADD15C,0.1600*%
%ADD16C,0.1269*%
%ADD17C,0.0762*%
%ADD18C,0.2032*%
D10*
X676402Y501650D02*
G03*
X676402Y501650I-762J0D01*
G01*
X405765Y627281D02*
Y630019D01*
X394335Y627281D02*
Y630019D01*
X367665Y627281D02*
Y630019D01*
X356235Y627281D02*
Y630019D01*
X329565Y627281D02*
Y630019D01*
X318135Y627281D02*
Y630019D01*
X292735Y627281D02*
Y630019D01*
X281305Y627281D02*
Y630019D01*
X385826Y306324D02*
X394716D01*
X385826Y331724D02*
X394716D01*
X385826Y357124D02*
X394716D01*
X385826Y315976D02*
X394716D01*
X385826Y341376D02*
X394716D01*
X385826Y366776D02*
X394716D01*
X620268Y588010D02*
X659892D01*
X620268Y574046D02*
Y588010D01*
Y491490D02*
X659892D01*
Y505454D01*
Y524046D02*
Y530454D01*
Y549046D02*
Y555454D01*
Y574046D02*
Y588010D01*
X620268Y549046D02*
Y555454D01*
Y524046D02*
Y530454D01*
Y491490D02*
Y505454D01*
X606585Y598043D02*
X623951D01*
Y619274D01*
X513969Y598043D02*
X531335D01*
X513969D02*
Y619274D01*
X527490Y649097D02*
X610430D01*
D11*
X513130Y549790D02*
G03*
X513130Y549790I-1000J0D01*
G01*
X378714Y627650D02*
Y629650D01*
X390906Y627650D02*
Y629650D01*
X340614Y627650D02*
Y629650D01*
X352806Y627650D02*
Y629650D01*
X302514Y627650D02*
Y629650D01*
X314706Y627650D02*
Y629650D01*
X265684Y627650D02*
Y629650D01*
X277876Y627650D02*
Y629650D01*
X497030Y583720D02*
Y650720D01*
X440230D02*
X497030D01*
X440230Y583720D02*
Y650720D01*
Y583720D02*
X497030D01*
X411480Y399880D02*
Y410380D01*
X421640Y266530D02*
Y277030D01*
X568960Y504020D02*
Y514520D01*
X516730Y510370D02*
Y520870D01*
X568800Y523070D02*
Y533570D01*
D12*
X491630Y600220D02*
G03*
X491630Y600220I-1000J0D01*
G01*
D13*
X645541Y604813D02*
G03*
X645541Y604813I-3810J0D01*
G01*
D14*
X517130Y554790D02*
X522680D01*
X541580D02*
X547130D01*
Y554240D02*
Y554790D01*
Y529790D02*
Y530340D01*
X517130Y529790D02*
X522680D01*
X541580D02*
X547130D01*
X517130Y554240D02*
Y554790D01*
Y529790D02*
Y530340D01*
D15*
X387933Y654696D02*
X386599Y656029D01*
X383933D01*
X382600Y654696D01*
Y649363D01*
X383933Y648030D01*
X386599D01*
X387933Y649363D01*
X390599Y648030D02*
Y653363D01*
X393265Y656029D01*
X395931Y653363D01*
Y648030D01*
Y652029D01*
X390599D01*
X398597Y656029D02*
Y648030D01*
X403929D01*
X346022Y654696D02*
X344689Y656029D01*
X342023D01*
X340690Y654696D01*
Y649363D01*
X342023Y648030D01*
X344689D01*
X346022Y649363D01*
X348689Y648030D02*
Y653363D01*
X351355Y656029D01*
X354021Y653363D01*
Y648030D01*
Y652029D01*
X348689D01*
X356687Y656029D02*
Y648030D01*
X362019D01*
X370018D02*
X364685D01*
X370018Y653363D01*
Y654696D01*
X368685Y656029D01*
X366018D01*
X364685Y654696D01*
X309193D02*
X307859Y656029D01*
X305193D01*
X303860Y654696D01*
Y649363D01*
X305193Y648030D01*
X307859D01*
X309193Y649363D01*
X311859Y648030D02*
Y653363D01*
X314525Y656029D01*
X317191Y653363D01*
Y648030D01*
Y652029D01*
X311859D01*
X319857Y656029D02*
Y648030D01*
X325189D01*
X327855D02*
X330522D01*
X329188D01*
Y656029D01*
X327855Y654696D01*
X273380Y648030D02*
Y656029D01*
X277379D01*
X278713Y654696D01*
Y652029D01*
X277379Y650696D01*
X273380D01*
X286711Y654696D02*
X285378Y656029D01*
X282712D01*
X281379Y654696D01*
Y649363D01*
X282712Y648030D01*
X285378D01*
X286711Y649363D01*
Y652029D01*
X284045D01*
X404049Y589442D02*
X396051D01*
Y593441D01*
X397384Y594774D01*
X400050D01*
X401383Y593441D01*
Y589442D01*
Y592108D02*
X404049Y594774D01*
Y597440D02*
Y600107D01*
Y598773D01*
X396051D01*
X397384Y597440D01*
Y604106D02*
X396051Y605439D01*
Y608105D01*
X397384Y609438D01*
X398717D01*
X400050Y608105D01*
Y606772D01*
Y608105D01*
X401383Y609438D01*
X402716D01*
X404049Y608105D01*
Y605439D01*
X402716Y604106D01*
X365949Y590712D02*
X357951D01*
Y594711D01*
X359284Y596044D01*
X361950D01*
X363283Y594711D01*
Y590712D01*
Y593378D02*
X365949Y596044D01*
Y598710D02*
Y601376D01*
Y600043D01*
X357951D01*
X359284Y598710D01*
X365949Y610708D02*
Y605376D01*
X360617Y610708D01*
X359284D01*
X357951Y609375D01*
Y606709D01*
X359284Y605376D01*
X327849Y592045D02*
X319851D01*
Y596044D01*
X321184Y597377D01*
X323850D01*
X325183Y596044D01*
Y592045D01*
Y594711D02*
X327849Y597377D01*
Y600043D02*
Y602710D01*
Y601376D01*
X319851D01*
X321184Y600043D01*
X327849Y606709D02*
Y609375D01*
Y608042D01*
X319851D01*
X321184Y606709D01*
X291019Y590712D02*
X283021D01*
Y594711D01*
X284354Y596044D01*
X287020D01*
X288353Y594711D01*
Y590712D01*
Y593378D02*
X291019Y596044D01*
Y598710D02*
Y601376D01*
Y600043D01*
X283021D01*
X284354Y598710D01*
Y605376D02*
X283021Y606709D01*
Y609375D01*
X284354Y610708D01*
X289686D01*
X291019Y609375D01*
Y606709D01*
X289686Y605376D01*
X284354D01*
X380811Y587695D02*
X388809D01*
Y591694D01*
X387476Y593027D01*
X382144D01*
X380811Y591694D01*
Y587695D01*
X388809Y599692D02*
X380811D01*
X384810Y595693D01*
Y601025D01*
X342711Y588965D02*
X350709D01*
Y592964D01*
X349376Y594297D01*
X344044D01*
X342711Y592964D01*
Y588965D01*
X344044Y596963D02*
X342711Y598296D01*
Y600962D01*
X344044Y602295D01*
X345377D01*
X346710Y600962D01*
Y599629D01*
Y600962D01*
X348043Y602295D01*
X349376D01*
X350709Y600962D01*
Y598296D01*
X349376Y596963D01*
X304611Y588965D02*
X312609D01*
Y592964D01*
X311276Y594297D01*
X305944D01*
X304611Y592964D01*
Y588965D01*
X312609Y602295D02*
Y596963D01*
X307277Y602295D01*
X305944D01*
X304611Y600962D01*
Y598296D01*
X305944Y596963D01*
X267781Y590298D02*
X275779D01*
Y594297D01*
X274446Y595630D01*
X269114D01*
X267781Y594297D01*
Y590298D01*
X275779Y598296D02*
Y600962D01*
Y599629D01*
X267781D01*
X269114Y598296D01*
D16*
X384857Y612650D02*
Y608587D01*
X386888Y610619D02*
X382826D01*
X346757Y612650D02*
Y608587D01*
X348788Y610619D02*
X344726D01*
X308657Y612650D02*
Y608587D01*
X310688Y610619D02*
X306626D01*
X271827Y612650D02*
Y608587D01*
X273858Y610619D02*
X269796D01*
D17*
X407504Y288925D02*
X415968Y297389D01*
Y288925D02*
X407504Y297389D01*
X411736Y288925D02*
Y297389D01*
X415968Y293157D02*
X407504D01*
D18*
X658284Y603252D02*
X656592Y601559D01*
Y598173D01*
X658284Y596480D01*
X659977D01*
X661670Y598173D01*
Y601559D01*
X663363Y603252D01*
X665055D01*
X666748Y601559D01*
Y598173D01*
X665055Y596480D01*
X656592Y606637D02*
X666748D01*
X663363Y610023D01*
X666748Y613408D01*
X656592D01*
X666748Y616794D02*
Y620179D01*
Y618487D01*
X656592D01*
X658284Y616794D01*
X666748Y376346D02*
X656592D01*
Y381424D01*
X658284Y383117D01*
X661670D01*
X663363Y381424D01*
Y376346D01*
Y379732D02*
X666748Y383117D01*
Y391581D02*
X656592D01*
X661670Y386503D01*
Y393274D01*
X666748Y443656D02*
X656592D01*
Y448734D01*
X658284Y450427D01*
X661670D01*
X663363Y448734D01*
Y443656D01*
Y447042D02*
X666748Y450427D01*
Y460584D02*
Y453813D01*
X659977Y460584D01*
X658284D01*
X656592Y458891D01*
Y455506D01*
X658284Y453813D01*
X282366Y276858D02*
Y268394D01*
X284059Y266702D01*
X287444D01*
X289137Y268394D01*
Y276858D01*
X292523Y275166D02*
X294216Y276858D01*
X297601D01*
X299294Y275166D01*
Y273473D01*
X297601Y271780D01*
X295908D01*
X297601D01*
X299294Y270087D01*
Y268394D01*
X297601Y266702D01*
X294216D01*
X292523Y268394D01*
X279826Y411478D02*
Y403014D01*
X281519Y401322D01*
X284904D01*
X286597Y403014D01*
Y411478D01*
X296754Y401322D02*
X289983D01*
X296754Y408093D01*
Y409786D01*
X295061Y411478D01*
X291676D01*
X289983Y409786D01*
X446619Y506728D02*
Y498264D01*
X448312Y496572D01*
X451697D01*
X453390Y498264D01*
Y506728D01*
X456776Y496572D02*
X460161D01*
X458468D01*
Y506728D01*
X456776Y505036D01*
X661672Y342474D02*
X671828D01*
Y337396D01*
X670136Y335703D01*
X666750D01*
X665057Y337396D01*
Y342474D01*
Y339088D02*
X661672Y335703D01*
X671828Y325546D02*
X670136Y328932D01*
X666750Y332317D01*
X663364D01*
X661672Y330624D01*
Y327239D01*
X663364Y325546D01*
X665057D01*
X666750Y327239D01*
Y332317D01*
X670558Y288716D02*
X660402D01*
Y293794D01*
X662094Y295487D01*
X665480D01*
X667173Y293794D01*
Y288716D01*
Y292102D02*
X670558Y295487D01*
X662094Y298873D02*
X660402Y300566D01*
Y303951D01*
X662094Y305644D01*
X663787D01*
X665480Y303951D01*
Y302258D01*
Y303951D01*
X667173Y305644D01*
X668866D01*
X670558Y303951D01*
Y300566D01*
X668866Y298873D01*
X484719Y562612D02*
Y572768D01*
X489797D01*
X491490Y571076D01*
Y567690D01*
X489797Y565997D01*
X484719D01*
X488104D02*
X491490Y562612D01*
X494876D02*
X498261D01*
X496568D01*
Y572768D01*
X494876Y571076D01*
X520280Y562612D02*
Y572768D01*
X523666Y569383D01*
X527052Y572768D01*
Y562612D01*
X530437Y572768D02*
X537208D01*
X533823D01*
Y562612D01*
X540594D02*
X543979D01*
X542287D01*
Y572768D01*
X540594Y571076D01*
X641348Y631190D02*
Y634576D01*
Y632883D01*
X632884D01*
X631192Y634576D01*
Y636268D01*
X632884Y637961D01*
X631192Y627804D02*
Y624419D01*
Y626112D01*
X641348D01*
X639656Y627804D01*
X422912Y629497D02*
Y626112D01*
Y627804D01*
X431376D01*
X433068Y626112D01*
Y624419D01*
X431376Y622726D01*
X433068Y639654D02*
Y632883D01*
X426297Y639654D01*
X424604D01*
X422912Y637961D01*
Y634576D01*
X424604Y632883D01*
X379307Y408516D02*
X377614Y410208D01*
X374229D01*
X372536Y408516D01*
Y401744D01*
X374229Y400052D01*
X377614D01*
X379307Y401744D01*
X389464Y410208D02*
X382693D01*
Y405130D01*
X386078Y406823D01*
X387771D01*
X389464Y405130D01*
Y401744D01*
X387771Y400052D01*
X384386D01*
X382693Y401744D01*
X386927Y275166D02*
X385234Y276858D01*
X381849D01*
X380156Y275166D01*
Y268394D01*
X381849Y266702D01*
X385234D01*
X386927Y268394D01*
X395391Y266702D02*
Y276858D01*
X390313Y271780D01*
X397084D01*
X567267Y550756D02*
X565574Y552448D01*
X562189D01*
X560496Y550756D01*
Y543984D01*
X562189Y542292D01*
X565574D01*
X567267Y543984D01*
X570653Y550756D02*
X572346Y552448D01*
X575731D01*
X577424Y550756D01*
Y549063D01*
X575731Y547370D01*
X574038D01*
X575731D01*
X577424Y545677D01*
Y543984D01*
X575731Y542292D01*
X572346D01*
X570653Y543984D01*
X483447Y519006D02*
X481754Y520698D01*
X478369D01*
X476676Y519006D01*
Y512234D01*
X478369Y510542D01*
X481754D01*
X483447Y512234D01*
X493604Y510542D02*
X486833D01*
X493604Y517313D01*
Y519006D01*
X491911Y520698D01*
X488526D01*
X486833Y519006D01*
X567690Y568536D02*
X565997Y570228D01*
X562612D01*
X560919Y568536D01*
Y561764D01*
X562612Y560072D01*
X565997D01*
X567690Y561764D01*
X571076Y560072D02*
X574461D01*
X572768D01*
Y570228D01*
X571076Y568536D01*
M02*
