G04*
G04 #@! TF.GenerationSoftware,Altium Limited,Altium Designer,25.2.1 (25)*
G04*
G04 Layer_Color=32768*
%FSLAX44Y44*%
%MOMM*%
G71*
G04*
G04 #@! TF.SameCoordinates,3DF48369-53CF-4C9B-B775-AACAF03539EE*
G04*
G04*
G04 #@! TF.FilePolarity,Positive*
G04*
G01*
G75*
%ADD10C,0.1524*%
%ADD48C,0.1000*%
%ADD49C,0.0500*%
G36*
X407035Y615569D02*
X393065D01*
Y641731D01*
X407035D01*
Y615569D01*
D02*
G37*
G36*
X368935D02*
X354965D01*
Y641731D01*
X368935D01*
Y615569D01*
D02*
G37*
G36*
X330835D02*
X316865D01*
Y641731D01*
X330835D01*
Y615569D01*
D02*
G37*
G36*
X294005D02*
X280035D01*
Y641731D01*
X294005D01*
Y615569D01*
D02*
G37*
G36*
X391810Y614650D02*
X377810D01*
Y642650D01*
X391810D01*
Y614650D01*
D02*
G37*
G36*
X353710D02*
X339710D01*
Y642650D01*
X353710D01*
Y614650D01*
D02*
G37*
G36*
X315610D02*
X301610D01*
Y642650D01*
X315610D01*
Y614650D01*
D02*
G37*
G36*
X278780D02*
X264780D01*
Y642650D01*
X278780D01*
Y614650D01*
D02*
G37*
G36*
X626203Y593764D02*
X511717D01*
Y653577D01*
X626203D01*
Y593764D01*
D02*
G37*
G36*
X499030Y581720D02*
X438230D01*
Y652720D01*
X499030D01*
Y581720D01*
D02*
G37*
G36*
X507619Y541401D02*
X475361D01*
Y558419D01*
X507619D01*
Y541401D01*
D02*
G37*
G36*
X667639Y576961D02*
X661162D01*
Y573259D01*
X680649D01*
Y506241D01*
X661162D01*
Y492379D01*
X676529D01*
Y460121D01*
X659511D01*
Y490220D01*
X618998D01*
Y506241D01*
X599511D01*
Y573259D01*
X618998D01*
Y589280D01*
X650621D01*
Y609219D01*
X667639D01*
Y576961D01*
D02*
G37*
G36*
X649859Y430911D02*
X632841D01*
Y463169D01*
X649859D01*
Y430911D01*
D02*
G37*
G36*
X488569Y429641D02*
X471551D01*
Y461899D01*
X488569D01*
Y429641D01*
D02*
G37*
G36*
X670179Y402971D02*
X653161D01*
Y435229D01*
X670179D01*
Y402971D01*
D02*
G37*
G36*
X510159Y380111D02*
X493141D01*
Y412369D01*
X510159D01*
Y380111D01*
D02*
G37*
G36*
X656209Y317881D02*
X639191D01*
Y350139D01*
X656209D01*
Y317881D01*
D02*
G37*
G36*
X427736Y281940D02*
X272542D01*
Y391160D01*
X427736D01*
Y281940D01*
D02*
G37*
G36*
X656209Y279781D02*
X639191D01*
Y312039D01*
X656209D01*
Y279781D01*
D02*
G37*
D10*
X393065Y615569D02*
X407035D01*
X393065D02*
Y641731D01*
X407035D01*
Y615569D02*
Y641731D01*
X354965Y615569D02*
X368935D01*
X354965D02*
Y641731D01*
X368935D01*
Y615569D02*
Y641731D01*
X316865Y615569D02*
X330835D01*
X316865D02*
Y641731D01*
X330835D01*
Y615569D02*
Y641731D01*
X280035Y615569D02*
X294005D01*
X280035D02*
Y641731D01*
X294005D01*
Y615569D02*
Y641731D01*
X272542Y281940D02*
X427736D01*
X272542D02*
Y391160D01*
X427736D01*
Y281940D02*
Y391160D01*
X680649Y506241D02*
Y573259D01*
X661162Y506241D02*
X680649D01*
X599511D02*
X618998D01*
X599511D02*
Y573259D01*
X618998D01*
X661162D02*
X680649D01*
X661162Y490220D02*
Y506241D01*
X618998Y490220D02*
X661162D01*
X618998D02*
Y506241D01*
Y573259D02*
Y589280D01*
X661162D01*
Y573259D02*
Y589280D01*
X659511Y492379D02*
X676529D01*
X659511Y460121D02*
Y492379D01*
Y460121D02*
X676529D01*
Y492379D01*
X650621Y609219D02*
X667639D01*
X650621Y576961D02*
Y609219D01*
Y576961D02*
X667639D01*
Y609219D01*
X471551Y429641D02*
X488569D01*
Y461899D01*
X471551D02*
X488569D01*
X471551Y429641D02*
Y461899D01*
X639191Y350139D02*
X656209D01*
Y317881D02*
Y350139D01*
X639191Y317881D02*
X656209D01*
X639191D02*
Y350139D01*
X493141Y380111D02*
X510159D01*
Y412369D01*
X493141D02*
X510159D01*
X493141Y380111D02*
Y412369D01*
X653161Y435229D02*
X670179D01*
Y402971D02*
Y435229D01*
X653161Y402971D02*
X670179D01*
X653161D02*
Y435229D01*
X639191Y279781D02*
X656209D01*
X639191D02*
Y312039D01*
X656209D01*
Y279781D02*
Y312039D01*
X632841Y463169D02*
X649859D01*
Y430911D02*
Y463169D01*
X632841Y430911D02*
X649859D01*
X632841D02*
Y463169D01*
X507619Y541401D02*
Y558419D01*
X475361Y541401D02*
X507619D01*
X475361D02*
Y558419D01*
X507619D01*
X511717Y593764D02*
X626203D01*
X511717D02*
Y653577D01*
X626203D01*
Y593764D02*
Y653577D01*
D48*
X401480Y398880D02*
X421480D01*
X401480D02*
Y411380D01*
X421480D01*
Y398880D02*
Y411380D01*
X411640Y265530D02*
X431640D01*
X411640D02*
Y278030D01*
X431640D01*
Y265530D02*
Y278030D01*
X558960Y503020D02*
X578960D01*
X558960D02*
Y515520D01*
X578960D01*
Y503020D02*
Y515520D01*
X506730Y521870D02*
X526730D01*
Y509370D02*
Y521870D01*
X506730Y509370D02*
X526730D01*
X506730D02*
Y521870D01*
X558800Y522070D02*
X578800D01*
X558800D02*
Y534570D01*
X578800D01*
Y522070D02*
Y534570D01*
D49*
X514630Y527290D02*
Y557290D01*
Y527290D02*
X549630D01*
Y557290D01*
X514630D02*
X549630D01*
M02*
