G04*
G04 #@! TF.GenerationSoftware,Altium Limited,Altium Designer,25.2.1 (25)*
G04*
G04 Layer_Color=255*
%FSLAX44Y44*%
%MOMM*%
G71*
G04*
G04 #@! TF.SameCoordinates,3DF48369-53CF-4C9B-B775-AACAF03539EE*
G04*
G04*
G04 #@! TF.FilePolarity,Positive*
G04*
G01*
G75*
%ADD19R,0.8890X0.6096*%
%ADD20R,0.8000X0.8000*%
%ADD21R,1.9558X1.1938*%
%ADD22R,1.1938X1.0160*%
%ADD23R,1.0160X1.1938*%
%ADD24R,0.6096X1.7018*%
%ADD25R,0.6200X1.4700*%
%ADD35R,2.6924X1.0160*%
%ADD36R,10.4648X10.4140*%
%ADD37R,0.4750X0.2500*%
%ADD38R,0.2500X0.4750*%
%ADD39R,0.9906X2.8448*%
%ADD41C,1.5240*%
%ADD42C,0.9000*%
%ADD43C,1.4000*%
%ADD44C,1.9500*%
D19*
X400050Y621157D02*
D03*
Y636143D02*
D03*
X361950Y621157D02*
D03*
Y636143D02*
D03*
X323850Y621157D02*
D03*
Y636143D02*
D03*
X287020Y621157D02*
D03*
Y636143D02*
D03*
D20*
X384810Y620650D02*
D03*
Y636650D02*
D03*
X346710Y620650D02*
D03*
Y636650D02*
D03*
X308610Y620650D02*
D03*
Y636650D02*
D03*
X271780Y620650D02*
D03*
Y636650D02*
D03*
D21*
X668330Y514750D02*
D03*
Y539750D02*
D03*
Y564750D02*
D03*
X611830D02*
D03*
Y539750D02*
D03*
Y514750D02*
D03*
D22*
X647700Y342519D02*
D03*
Y325501D02*
D03*
X661670Y427609D02*
D03*
Y410591D02*
D03*
X647700Y287401D02*
D03*
Y304419D02*
D03*
X641350Y455549D02*
D03*
Y438531D02*
D03*
D23*
X499999Y549910D02*
D03*
X482981D02*
D03*
D24*
X537710Y604813D02*
D03*
X550210D02*
D03*
X562710D02*
D03*
X575210D02*
D03*
X587710D02*
D03*
X600210D02*
D03*
D25*
X421480Y405130D02*
D03*
X401480D02*
D03*
X431640Y271780D02*
D03*
X411640D02*
D03*
X578960Y509270D02*
D03*
X558960D02*
D03*
X506730Y515620D02*
D03*
X526730D02*
D03*
X578800Y528320D02*
D03*
X558800D02*
D03*
D35*
X411734Y311150D02*
D03*
Y336550D02*
D03*
Y361950D02*
D03*
D36*
X327406Y336550D02*
D03*
D37*
X520505Y549790D02*
D03*
Y544790D02*
D03*
Y539790D02*
D03*
Y534790D02*
D03*
X543755D02*
D03*
Y539790D02*
D03*
Y544790D02*
D03*
Y549790D02*
D03*
D38*
X527130Y533165D02*
D03*
X532130D02*
D03*
X537130D02*
D03*
Y551415D02*
D03*
X532130D02*
D03*
X527130D02*
D03*
D39*
X519210Y636813D02*
D03*
X618710D02*
D03*
D41*
X411480Y509270D02*
D03*
Y534670D02*
D03*
Y483870D02*
D03*
Y560070D02*
D03*
Y458470D02*
D03*
X284480Y483870D02*
D03*
Y534670D02*
D03*
X524510Y405130D02*
D03*
D42*
X445770Y400050D02*
D03*
Y425450D02*
D03*
Y450850D02*
D03*
X623570D02*
D03*
Y425450D02*
D03*
Y400050D02*
D03*
Y374650D02*
D03*
Y349250D02*
D03*
Y323850D02*
D03*
X445770Y311150D02*
D03*
Y336550D02*
D03*
Y361950D02*
D03*
Y387350D02*
D03*
Y412750D02*
D03*
Y438150D02*
D03*
Y463550D02*
D03*
X623570D02*
D03*
Y438150D02*
D03*
Y412750D02*
D03*
Y387350D02*
D03*
Y361950D02*
D03*
Y336550D02*
D03*
Y311150D02*
D03*
D43*
X458470D02*
D03*
Y336550D02*
D03*
Y361950D02*
D03*
Y387350D02*
D03*
Y412750D02*
D03*
Y438150D02*
D03*
Y463550D02*
D03*
X610870D02*
D03*
Y438150D02*
D03*
Y412750D02*
D03*
Y387350D02*
D03*
Y361950D02*
D03*
Y336550D02*
D03*
Y311150D02*
D03*
D44*
X481330Y617220D02*
D03*
X455930D02*
D03*
M02*
