G04*
G04 #@! TF.GenerationSoftware,Altium Limited,Altium Designer,25.2.1 (25)*
G04*
G04 Layer_Color=128*
%FSLAX44Y44*%
%MOMM*%
G71*
G04*
G04 #@! TF.SameCoordinates,3DF48369-53CF-4C9B-B775-AACAF03539EE*
G04*
G04*
G04 #@! TF.FilePolarity,Positive*
G04*
G01*
G75*
%ADD14C,0.1270*%
D14*
X407670Y509270D02*
X415290D01*
X411480Y505460D02*
Y513080D01*
X407670Y534670D02*
X415290D01*
X411480Y530860D02*
Y538480D01*
X407670Y483870D02*
X415290D01*
X411480Y480060D02*
Y487680D01*
X407670Y560070D02*
X415290D01*
X411480Y556260D02*
Y563880D01*
X407670Y458470D02*
X415290D01*
X411480Y454660D02*
Y462280D01*
X280670Y483870D02*
X288290D01*
X284480Y480060D02*
Y487680D01*
X280670Y534670D02*
X288290D01*
X284480Y530860D02*
Y538480D01*
X520700Y405130D02*
X528320D01*
X524510Y401320D02*
Y408940D01*
X442770Y400050D02*
X448770D01*
X445770Y397050D02*
Y403050D01*
X442770Y425450D02*
X448770D01*
X445770Y422450D02*
Y428450D01*
X442770Y450850D02*
X448770D01*
X445770Y447850D02*
Y453850D01*
X620570Y450850D02*
X626570D01*
X623570Y447850D02*
Y453850D01*
X620570Y425450D02*
X626570D01*
X623570Y422450D02*
Y428450D01*
X620570Y400050D02*
X626570D01*
X623570Y397050D02*
Y403050D01*
X620570Y374650D02*
X626570D01*
X623570Y371650D02*
Y377650D01*
X620570Y349250D02*
X626570D01*
X623570Y346250D02*
Y352250D01*
X620570Y323850D02*
X626570D01*
X623570Y320850D02*
Y326850D01*
X442770Y311150D02*
X448770D01*
X445770Y308150D02*
Y314150D01*
X454220Y311150D02*
X462720D01*
X458470Y306900D02*
Y315400D01*
X442770Y336550D02*
X448770D01*
X445770Y333550D02*
Y339550D01*
X454220Y336550D02*
X462720D01*
X458470Y332300D02*
Y340800D01*
X442770Y361950D02*
X448770D01*
X445770Y358950D02*
Y364950D01*
X454220Y361950D02*
X462720D01*
X458470Y357700D02*
Y366200D01*
X442770Y387350D02*
X448770D01*
X445770Y384350D02*
Y390350D01*
X454220Y387350D02*
X462720D01*
X458470Y383100D02*
Y391600D01*
X442770Y412750D02*
X448770D01*
X445770Y409750D02*
Y415750D01*
X454220Y412750D02*
X462720D01*
X458470Y408500D02*
Y417000D01*
X442770Y438150D02*
X448770D01*
X445770Y435150D02*
Y441150D01*
X454220Y438150D02*
X462720D01*
X458470Y433900D02*
Y442400D01*
X442770Y463550D02*
X448770D01*
X445770Y460550D02*
Y466550D01*
X454220Y463550D02*
X462720D01*
X458470Y459300D02*
Y467800D01*
X606620Y463550D02*
X615120D01*
X610870Y459300D02*
Y467800D01*
X620570Y463550D02*
X626570D01*
X623570Y460550D02*
Y466550D01*
X606620Y438150D02*
X615120D01*
X610870Y433900D02*
Y442400D01*
X620570Y438150D02*
X626570D01*
X623570Y435150D02*
Y441150D01*
X606620Y412750D02*
X615120D01*
X610870Y408500D02*
Y417000D01*
X620570Y412750D02*
X626570D01*
X623570Y409750D02*
Y415750D01*
X606620Y387350D02*
X615120D01*
X610870Y383100D02*
Y391600D01*
X620570Y387350D02*
X626570D01*
X623570Y384350D02*
Y390350D01*
X606620Y361950D02*
X615120D01*
X610870Y357700D02*
Y366200D01*
X620570Y361950D02*
X626570D01*
X623570Y358950D02*
Y364950D01*
X606620Y336550D02*
X615120D01*
X610870Y332300D02*
Y340800D01*
X620570Y336550D02*
X626570D01*
X623570Y333550D02*
Y339550D01*
X606620Y311150D02*
X615120D01*
X610870Y306900D02*
Y315400D01*
X620570Y311150D02*
X626570D01*
X623570Y308150D02*
Y314150D01*
X474830Y617220D02*
X487830D01*
X481330Y610720D02*
Y623720D01*
X449430Y617220D02*
X462430D01*
X455930Y610720D02*
Y623720D01*
X509040Y336550D02*
X512040D01*
X510540Y335050D02*
Y338050D01*
X380770Y565150D02*
X383770D01*
X382270Y563650D02*
Y566650D01*
X369340Y553720D02*
X372340D01*
X370840Y552220D02*
Y555220D01*
X376960Y454660D02*
X379960D01*
X378460Y453160D02*
Y456160D01*
X361720Y467360D02*
X364720D01*
X363220Y465860D02*
Y468860D01*
X361720Y487680D02*
X364720D01*
X363220Y486180D02*
Y489180D01*
X427760Y485140D02*
X430760D01*
X429260Y483640D02*
Y486640D01*
X411250Y422910D02*
X414250D01*
X412750Y421410D02*
Y424410D01*
X411250Y440690D02*
X414250D01*
X412750Y439190D02*
Y442190D01*
X285520Y607060D02*
X288520D01*
X287020Y605560D02*
Y608560D01*
X402360Y604520D02*
X405360D01*
X403860Y603020D02*
Y606020D01*
X445540Y530860D02*
X448540D01*
X447040Y529360D02*
Y532360D01*
X572540Y469900D02*
X575540D01*
X574040Y468400D02*
Y471400D01*
X354100Y646430D02*
X357100D01*
X355600Y644930D02*
Y647930D01*
X396010Y488950D02*
X399010D01*
X397510Y487450D02*
Y490450D01*
X392200Y646430D02*
X395200D01*
X393700Y644930D02*
Y647930D01*
X435376Y373632D02*
X438376D01*
X436876Y372132D02*
Y375132D01*
X427760Y414020D02*
X430760D01*
X429260Y412520D02*
Y415520D01*
X428152Y394814D02*
X431152D01*
X429652Y393314D02*
Y396314D01*
X430300Y351790D02*
X433300D01*
X431800Y350290D02*
Y353290D01*
X606402Y602869D02*
X609402D01*
X607902Y601369D02*
Y604369D01*
X666520Y552450D02*
X669520D01*
X668020Y550950D02*
Y553950D01*
X586510Y509270D02*
X589510D01*
X588010Y507770D02*
Y510770D01*
X586510Y528320D02*
X589510D01*
X588010Y526820D02*
Y529820D01*
X666520Y497840D02*
X669520D01*
X668020Y496340D02*
Y499340D01*
X671600Y584200D02*
X674600D01*
X673100Y582700D02*
Y585700D01*
X439190Y264160D02*
X442190D01*
X440690Y262660D02*
Y265660D01*
X439190Y285750D02*
X442190D01*
X440690Y284250D02*
Y287250D01*
X439348Y272404D02*
X442349D01*
X440849Y270904D02*
Y273904D01*
X430300Y285750D02*
X433300D01*
X431800Y284250D02*
Y287250D01*
X548410Y518160D02*
X551410D01*
X549910Y516660D02*
Y519660D01*
X542060Y523240D02*
X545060D01*
X543560Y521740D02*
Y524740D01*
X534440Y523240D02*
X537440D01*
X535940Y521740D02*
Y524740D01*
X523010Y588010D02*
X526010D01*
X524510Y586510D02*
Y589510D01*
X542060Y588010D02*
X545060D01*
X543560Y586510D02*
Y589510D01*
X361720Y276860D02*
X364720D01*
X363220Y275360D02*
Y278360D01*
X326160Y276860D02*
X329160D01*
X327660Y275360D02*
Y278360D01*
X298220Y276860D02*
X301220D01*
X299720Y275360D02*
Y278360D01*
X329970Y396240D02*
X332970D01*
X331470Y394740D02*
Y397740D01*
X360450Y396240D02*
X363450D01*
X361950Y394740D02*
Y397740D01*
X299490Y396240D02*
X302490D01*
X300990Y394740D02*
Y397740D01*
X493800Y537210D02*
X496800D01*
X495300Y535710D02*
Y538710D01*
X486180Y518160D02*
X489180D01*
X487680Y516660D02*
Y519660D01*
X510310Y543560D02*
X513310D01*
X511810Y542060D02*
Y545060D01*
X577620Y542290D02*
X580620D01*
X579120Y540790D02*
Y543790D01*
X636548Y560023D02*
X639548D01*
X638048Y558523D02*
Y561524D01*
X630960Y588010D02*
X633960D01*
X632460Y586510D02*
Y589510D01*
X509040Y534670D02*
X512040D01*
X510540Y533170D02*
Y536170D01*
X492530Y528320D02*
X495530D01*
X494030Y526820D02*
Y529820D01*
X561110Y589280D02*
X564110D01*
X562610Y587780D02*
Y590780D01*
X530630Y565150D02*
X533630D01*
X532130Y563650D02*
Y566650D01*
X524280Y560070D02*
X527280D01*
X525780Y558570D02*
Y561570D01*
X563650Y539750D02*
X566650D01*
X565150Y538250D02*
Y541250D01*
M02*
